<svg xmlns="http://www.w3.org/2000/svg" xmlns:xlink="http://www.w3.org/1999/xlink" width="164px" height="18px" viewBox="0 0 164 18"><title>is-logo</title><desc>Created with Sketch.</desc><g id="Symbols" stroke="none" stroke-width="1" fill="none" fill-rule="evenodd"><g id="header-/-desktop-/-light" transform="translate(-40.000000, -36.000000)" fill="#554842"><g id="header" transform="translate(40.000000, 35.000000)"><path d="M3.8191672e-14,18.407975 C3.8191672e-14,17.9641594 0.921636915,17.939503 0.921636915,17.0518718 L0.921636915,2.97251366 C0.921636915,2.08488251 3.8191672e-14,2.06022609 3.8191672e-14,1.5917541 L3.8191672e-14,1.54244126 C3.8191672e-14,1.34518989 0.205089533,1.24656421 0.512020508,1.24656421 L3.71214868,1.24656421 C4.01964232,1.24656421 4.22445052,1.34518989 4.22445052,1.54244126 L4.22445052,1.5917541 C4.22445052,2.06022609 3.25161156,2.08488251 3.25161156,2.97251366 L3.25161156,17.0518718 C3.25161156,17.939503 4.22445052,17.9641594 4.22445052,18.407975 L4.22445052,18.4575587 C4.22445052,18.6545392 4.01964232,18.7531648 3.71214868,18.7531648 L0.512020508,18.7531648 C0.205089533,18.7531648 3.8191672e-14,18.6545392 3.8191672e-14,18.4575587 L3.8191672e-14,18.407975 Z M23.553703,1.56704349 L23.553703,1.61662728 C23.553703,2.0601719 22.5293806,2.08482832 22.5293806,2.97245947 L22.5293806,18.0876582 C22.5293806,18.5068174 22.2989714,18.7533816 21.889355,18.7533816 L21.2496107,18.7533816 C20.9933191,18.7533816 20.7629099,18.6054431 20.4300965,18.1120437 L9.49817736,3.76173588 L9.49817736,16.9531919 C9.49817736,17.8654795 10.5990215,17.9397197 10.5990215,18.4079208 L10.5990215,18.4575046 C10.5990215,18.654485 10.3686122,18.7533816 10.0613999,18.7533816 L7.73170661,18.7533816 C7.39861195,18.7533816 7.21940477,18.654485 7.21940477,18.4575046 L7.21940477,18.4079208 C7.21940477,17.9397197 8.19224373,17.8654795 8.19224373,16.9531919 L8.19224373,2.99711589 C8.19224373,2.13441211 7.21940477,2.13441211 7.21940477,1.66566917 L7.21940477,1.56704349 C7.21940477,1.36979212 7.39861195,1.24651002 7.73170661,1.24651002 L9.67738454,1.24651002 C10.0870009,1.24651002 10.3686122,1.41910496 10.5990215,1.73990938 L21.2237283,15.8929658 L21.2237283,2.97245947 C21.2237283,2.08482832 20.1740863,2.0601719 20.1740863,1.61662728 L20.1740863,1.56704349 C20.1740863,1.36979212 20.3788945,1.24651002 20.7117078,1.24651002 L23.0416825,1.24651002 C23.3486134,1.24651002 23.553703,1.36979212 23.553703,1.56704349 Z M33.3584737,17.7422516 C37.2754306,17.7422516 40.5523619,15.1779838 40.5523619,10.6409315 C40.5523619,5.512125 36.5073998,2.25774841 32.1805452,2.25774841 L30.3884734,2.25774841 C29.978857,2.25774841 29.6719261,2.50404167 29.6719261,3.04675387 L29.6719261,16.3861485 C29.6719261,17.2493941 30.1324632,17.7422516 30.8748929,17.7422516 L33.3584737,17.7422516 Z M26.4459155,18.4575587 L26.4459155,18.407975 C26.4459155,17.9397739 27.3931535,17.8901901 27.3931535,17.0272154 L27.3931535,2.97251366 C27.3931535,2.08488251 26.4459155,2.06022609 26.4459155,1.5917541 L26.4459155,1.54244126 C26.4459155,1.34518989 26.6763247,1.24656421 26.9835371,1.24656421 L32.5904429,1.24656421 C38.2482696,1.24656421 42.9335385,4.69846311 42.9335385,9.851926 C42.9335385,15.424548 38.7858911,18.7531648 33.5120799,18.7531648 L26.9835371,18.7531648 C26.6763247,18.7531648 26.4459155,18.6545392 26.4459155,18.4575587 Z M45.365017,18.407975 C45.365017,17.9641594 46.2866539,17.939503 46.2866539,17.0518718 L46.2866539,2.97251366 C46.2866539,2.08488251 45.365017,2.06022609 45.365017,1.5917541 L45.365017,1.54244126 C45.365017,1.34518989 45.5701066,1.24656421 45.8770375,1.24656421 L49.0771657,1.24656421 C49.3846594,1.24656421 49.5894676,1.34518989 49.5894676,1.54244126 L49.5894676,1.5917541 C49.5894676,2.06022609 48.6166286,2.08488251 48.6166286,2.97251366 L48.6166286,17.0518718 C48.6166286,17.939503 49.5894676,17.9641594 49.5894676,18.407975 L49.5894676,18.4575587 C49.5894676,18.6545392 49.3846594,18.7531648 49.0771657,18.7531648 L45.8770375,18.7531648 C45.5701066,18.7531648 45.365017,18.6545392 45.365017,18.4575587 L45.365017,18.407975 Z M51.9704755,10.073888 C51.9704755,4.62481899 55.7597085,1.02471061 60.5471003,1.02471061 C64.8736736,1.02471061 67.6132646,3.76157331 67.6132646,5.56176298 C67.6132646,6.20282992 67.1780472,6.62198907 66.5121392,6.62198907 C64.5920623,6.62198907 64.5411416,2.03562386 59.8814736,2.03562386 C56.7834682,2.03562386 54.249248,4.92042509 54.249248,8.74244126 C54.249248,13.7479656 57.7053865,17.4957416 61.4431362,17.4957416 C63.0816018,17.4957416 64.5411416,17.051926 65.4371775,16.4355155 L65.4371775,12.1696837 C65.4371775,11.1834269 63.6963078,11.2327398 63.6963078,10.8135806 L63.6963078,10.7149549 C63.6963078,10.4930471 63.926717,10.369765 64.2339293,10.369765 L68.6117046,10.3944214 C68.9189169,10.3944214 69.1240065,10.5177036 69.1240065,10.7149549 L69.1240065,10.8135806 C69.1240065,11.2327398 67.6132646,11.1834269 67.6132646,12.1696837 L67.6132646,15.9916999 C67.6132646,16.5094847 67.4596585,16.7807054 66.947638,17.1752081 C65.6163847,18.2354342 63.4912182,18.9997832 60.8287116,18.9997832 C56.1178416,18.9997832 51.9704755,14.9068174 51.9704755,10.073888 Z M86.0460311,11.5778755 C86.0460311,6.35071425 83.0507111,2.06022609 78.6726544,2.06022609 C75.2162347,2.06022609 72.8353393,4.82174522 72.8353393,8.44651002 C72.8353393,13.5257327 75.8306593,17.939503 80.2087159,17.939503 C83.6392534,17.939503 86.0460311,14.9067632 86.0460311,11.5778755 Z M70.531247,9.95055168 C70.531247,4.84640164 74.1921936,1 79.4662862,1 C84.7147777,1 88.3501234,5.16720606 88.3501234,10.0984902 C88.3501234,14.956076 84.5867726,19 79.6454934,19 C74.2433957,19 70.531247,14.7095118 70.531247,9.95055168 Z M95.9266484,14.660199 C95.9266484,14.0931013 96.259743,13.6736712 96.8994873,13.6736712 C98.7430425,13.7479114 98.1027355,18.0383996 103.248823,18.0383996 C105.681202,18.0383996 107.345268,16.6820255 107.345268,14.7338973 C107.345268,8.59444854 96.4130678,13.2301266 96.4130678,5.83292942 C96.4130678,3.09579576 98.7174415,1.02465642 102.788005,1.02465642 C107.140179,1.02465642 109.418951,3.34235997 109.418951,5.04392395 C109.418951,5.6354071 109.060537,6.02990983 108.369309,6.02990983 C106.448951,6.02990983 107.42179,1.98652778 102.711201,1.98652778 C100.125498,1.98652778 98.7430425,3.4412566 98.7430425,5.31514458 C98.7430425,11.0600906 109.700563,6.76987341 109.700563,14.2161125 C109.700563,17.1751539 106.730562,19 103.146419,19 C98.1283365,19 95.9266484,16.1642407 95.9266484,14.660199 Z M122.219464,13.0575316 L118.37931,3.90945765 L114.794885,13.0575316 L122.219464,13.0575316 Z M127.595679,18.407975 L127.595679,18.4575587 C127.595679,18.6545392 127.416754,18.7531648 127.109541,18.7531648 L123.499515,18.7531648 C123.192303,18.7531648 123.013096,18.6545392 123.013096,18.4575587 L123.013096,18.407975 C123.013096,17.9397739 124.216625,17.8901901 123.883531,17.0272154 L122.654682,14.1177577 L114.359668,14.1177577 L113.233223,17.0272154 C112.874809,17.8901901 114.103658,17.9397739 114.103658,18.407975 L114.103658,18.4575587 C114.103658,18.6545392 113.89885,18.7531648 113.566036,18.7531648 L111.133939,18.7531648 C110.800844,18.7531648 110.621637,18.6545392 110.621637,18.4575587 L110.621637,18.407975 C110.621637,17.9397739 111.466471,17.9641594 111.825166,17.0272154 L117.508875,3.04675387 C117.816088,2.3067903 116.715244,1.98652778 116.715244,1.5917541 L116.715244,1.51778484 C116.715244,1.36984631 116.817366,1.24656421 117.073377,1.24656421 L118.558236,1.24656421 C119.172942,1.24656421 119.505755,1.46874294 119.761766,2.06022609 L126.36683,17.0272154 C126.776447,17.9397739 127.595679,17.9397739 127.595679,18.407975 Z M129.13101,18.407975 C129.13101,17.9641594 130.052646,17.939503 130.052646,17.0518718 L130.052646,2.97251366 C130.052646,2.08488251 129.13101,2.06022609 129.13101,1.5917541 L129.13101,1.54244126 C129.13101,1.34518989 129.336099,1.24656421 129.64303,1.24656421 L132.843158,1.24656421 C133.150652,1.24656421 133.35546,1.34518989 133.35546,1.54244126 L133.35546,1.5917541 C133.35546,2.06022609 132.382621,2.08488251 132.382621,2.97251366 L132.382621,17.0518718 C132.382621,17.939503 133.35546,17.9641594 133.35546,18.407975 L133.35546,18.4575587 C133.35546,18.6545392 133.150652,18.7531648 132.843158,18.7531648 L129.64303,18.7531648 C129.336099,18.7531648 129.13101,18.6545392 129.13101,18.4575587 L129.13101,18.407975 Z M136.401616,18.4574504 L136.401616,18.4078666 C136.401616,17.9396655 137.323253,17.8900817 137.323253,17.027378 L137.323253,2.97267623 C137.323253,2.06011771 136.401616,2.08477413 136.401616,1.59164572 L136.401616,1.54233288 C136.401616,1.34535246 136.606706,1.24645583 136.913637,1.24645583 L140.139647,1.24645583 C140.44686,1.24645583 140.651387,1.34535246 140.651387,1.54233288 L140.651387,1.59164572 C140.651387,2.08477413 139.653228,2.06011771 139.653228,2.97267623 L139.653228,16.7808138 C139.653228,17.3476405 139.934839,17.7421432 140.472461,17.7421432 L146.15617,17.7421432 C147.641029,17.7421432 147.948241,15.0302079 148.844277,15.0302079 L149.049086,15.0302079 C149.279495,15.0302079 149.4075,15.1778755 149.330697,15.4737525 L148.690671,18.1862297 C148.613868,18.556076 148.43438,18.7533274 148.050646,18.7533274 L136.913637,18.7533274 C136.606706,18.7533274 136.401616,18.6300453 136.401616,18.4574504 Z M150.226086,14.660199 C150.226086,14.0931013 150.55918,13.6736712 151.198925,13.6736712 C153.04248,13.7479114 152.402173,18.0383996 157.54826,18.0383996 C159.980639,18.0383996 161.644706,16.6820255 161.644706,14.7338973 C161.644706,8.59444854 150.712505,13.2301266 150.712505,5.83292942 C150.712505,3.09579576 153.016879,1.02465642 157.087442,1.02465642 C161.439616,1.02465642 163.718389,3.34235997 163.718389,5.04392395 C163.718389,5.6354071 163.359974,6.02990983 162.668747,6.02990983 C160.748388,6.02990983 161.721227,1.98652778 157.010639,1.98652778 C154.424935,1.98652778 153.04248,3.4412566 153.04248,5.31514458 C153.04248,11.0600906 164,6.76987341 164,14.2161125 C164,17.1751539 161.03,19 157.445856,19 C152.427774,19 150.226086,16.1642407 150.226086,14.660199 Z" id="is-logo"></path></g></g></g></svg>