<?xml version="1.0" encoding="UTF-8"?>
<svg id="Layer_1" xmlns="http://www.w3.org/2000/svg" version="1.1" viewBox="0 0 1846 1978.6">
  <!-- Generator: Adobe Illustrator 29.0.1, SVG Export Plug-In . SVG Version: 2.1.0 Build 192)  -->
  <defs>
    <style>
      .st0 {
        font-family: Duper, Duper;
        font-size: 322.3px;
        letter-spacing: 0em;
      }

      .st0, .st1 {
        fill: #784d6c;
      }

      .st2 {
        fill: #fffbf5;
      }
    </style>
  </defs>
  <rect class="st2" x="-3437.1" y="-441.4" width="7995.1" height="2579.9"/>
  <g>
    <g>
      <path class="st1" d="M1355,283.1c3,1.7,5.4,3.4,6.7,6.7v7.2c-4.3,8.9-9.1,17.6-13.8,26.2-134.5,243.5-275.6,483.4-416.7,723.1l-3.9,3.1h-6.7l-3.9-2.6c-125.3-219.1-249.8-438.7-379.3-655.4-17.1-28.5-33.7-57.7-51.5-85.7-.5-.7-.8-1.6-1.6-2v-6.2l4.6-5.2c4.8-3.3,20.9-3.2,27.3-3.5,274.1-12.1,548,9,821.8-4.8,2.9-.1,6.4.7,8.9-1h8.2ZM1347.3,296.6c-6.6.2-13.3.2-19.9.5-16,.6-32,1.4-48,1.9-245.2,8.1-490.7-8.6-735.8,2l-44.4,1.9c96,159.8,190.3,320.6,282.7,482.5.9.8,4.5,1,6,1.2,61.4,6.9,120.4-44.1,114.5-107.2-1.1-12.1-7.4-38.9-18.1-45.7-11.2-7.2-26.8-8.1-38.4-1.6-4.6,2.6-12.2,9.5-16.5,10.9-2.1.7-2.2-.7-1.2-2.2,2.2-3.4,8.9-11.3,12-13.9,13.1-11.1,31.7-6.2,47.3-5.7.2-.8-.3-1-.7-1.5-1.5-1.7-5.8-4.3-7.9-5.5-10.5-6.1-26.4-13.4-37.8-18.4-4.2-1.9-8.5-3.7-13-4.7-12.2-2.9-25.1-1.9-37.3-4-1.6-2.2,5.9-3.3,7.5-3.6,16.2-3.7,30.2-2.9,45.7,2.8,10.2,3.7,23.7,9,33.3,13.7,14,6.9,19.6,15.9,27.1,29,22.8,39.9,29.9,87.5,12.1,130.8-18,44-59.4,71.2-106.3,75.4l5.3,8.9c1,.6,10.1-1.5,12-1.9,53.1-11.9,92.1-42.6,102.6-98,12.3-65.1-18.1-121-58.7-168.5-7.1-8.3-10.2-16.1-15.9-24.9-15.7-24.4-53.5-40.3-77.9-56-2.5-1.6-5.4-3.2-7.2-5.5,4.2.2,8.2,2.1,12.1,3.5,23,8.3,61.6,27.1,77.1,45.7,7.6,9,13.2,19.7,20.7,28.8,7.6,9.2,15.9,15.6,22.1,26.3,3.9,6.7,6.2,14.1,9.6,21.1,3.5,7.2,8.1,13.8,11.7,20.9,43.5,85.5,8.6,191.9-89.4,213.9-4.6,1-9.3,1.7-14,2.6l3,6.2h.6c37.1-2.1,70.5-17.8,93.6-47,32.1-40.7,36.8-98,23.2-146.9-2.9-10.4-7.1-20.3-10.1-30.7-5-17.7-1.6-33-1.3-51,.3-18.6,3.9-41.3-3.1-58.8-4.9-12.2-15.2-22.2-26.2-29l-25.9-14.7c15.4,1.5,31.2,6.4,42.7,17s13.4,19,20.1,28.6c4.5-28.7,15.9-58.4,34.6-80.8,3-3.6,6.5-7.9,11-9.4.5.5-2.7,6.5-3.3,7.5-6.3,12-14.3,23-19.8,35.3-13.1,29.2-13.9,61.6-13.4,93.2l2.2,40c17.5-22.3,33.9-47.3,55.7-65.7,14.7-12.4,32.7-21,44.9-36.3,10.9-13.7,13.4-28.1,18.6-44.3l2-4.9c.8,18.4-1.4,37.6-10.8,53.7-9.3,15.8-25.7,25-39.3,36.5-11.4,9.6-21.7,23.2-30.4,35.3-1.2,1.6-8.6,11.6-7.8,12.6,22.1-9.4,48.9-12,71.2-1.9,12.3,5.6,22.7,15.1,30.1,26.3-7.5-2.1-13.9-6.9-20.9-10-51.8-23-110.4-4.9-105.3,59.7,2.2,28.3,16.1,76.6,40.2,93.7s37.2,17.8,55.6,18.8c3,.2,15.4.5,17.6-.2s1-.5,1.3-1.1c93.6-161.6,187-323.3,276.6-487.2ZM795.4,808.9c49.2,1.8,96-32.2,115.2-76.4,9.3-21.4,8.2-34.5,2.7-56.6-1.4-5.6-3-11.3-4.9-16.7,0,6.3,2,12.7,2.6,19,3.7,40.1-9.3,73.2-42.7,95.9-23.1,15.7-50.9,25.6-79.2,22.8l6.3,11.9ZM958.5,749.5l-2.7.5c-9.3,51.4-49.7,99.7-101.9,110.7-8.9,1.9-17.9,3-27,3.5l5.4,9.5c23.8-3.3,47.8-13.1,68.4-25.3,14.9-8.8,23.4-16.4,33.2-30.6,13.4-19.6,24.6-44.2,24.6-68.3ZM801.1,818.2l4.8,8.9c37.3-2.6,78.2-23.3,98.1-55.5,2.1-3.4,8.8-16,8.4-19.3-.2-1.5-1.2-3-2.7-1.8-9.7,15.1-19.6,28.4-33.9,39.6-21.3,16.6-47.9,26.4-74.8,28.1ZM849.1,902.6l7.9,14.4c1,1,2.8-.3,4.1-.7,17.5-6.7,38.5-18.1,54.2-28.3,26-16.9,44.7-34,57.7-62.7,9.4-20.7,8.5-31.1,1.4-52.4-.6-1.8-2.8-8.9-4.2-9.3l-1.4.4c-1.4,2.1,3.4,16.9,4,20.5,2.1,14.3-7,36.4-14.2,48.9-22.9,39.8-64.8,62.7-109.5,69.3ZM1051.1,816.7c-20.6-3.2-41.1-14.2-55.4-29.3-1.8-1.9-6.1-8.1-7.6-9.2s-1.9-.5-2.5.5,3,7.1,3.9,8.6c9.6,14.9,28.3,27.4,44.7,33.5,2,.7,11.8,4.2,13,3.4l3.9-7.6ZM1062.2,798c-17.3.4-34.1-4.1-49.8-11-1.8-.8-6.3-3.6-7.7-3.8s-2,1.7-1.5,2.7,3.1,2.7,3.7,3.2c13.3,11.5,32.3,17.6,49.6,19l5.6-10.1ZM839,884.9l5.6,9.5c32.8-7,66.4-17.6,89.5-43.3,13-14.5,27.1-40.4,28.7-60.1.2-2.4.9-9.2-2.8-6.1-5.4,14.3-10.8,27.6-20,40-17.6,23.5-38.6,39-66.2,49s-23.1,7.7-34.8,11ZM1042,832.6c-15.5-4.1-31.4-11.2-43.2-22.3-3-2.8-5.2-6.5-8.4-8.7-2.1-.2-2.5,8-2.1,9.6s7.3,8.4,8.9,9.9c11,10,24.7,17.1,38.8,21.5l6.1-10ZM984.9,821.5c-.7,2.4-4.7,7.5-4.3,9.7.4,1.8,8,8.9,9.8,10.4,8.8,7.4,20.9,13.5,32.3,15.2,1.7.3,4.2,1,5.4,0s2.8-4.3,1.9-4.8c-15.7-4-31.2-11.5-40.9-24.8-.7-.9-3.2-6.3-4.2-5.6ZM1022.4,866.6c-3.5-.6-7.1-.9-10.6-1.7-12.6-2.9-23.5-13.9-34.6-20.1-1.5-.8-3.3-2.4-4.8-1s-4.7,7.4-4.7,7.8-.1.7.2,1.1c4.8,3.6,9.2,8.6,14.5,11.4s13.8,4.9,20.3,8.1c1.6.8,3,2.2,4.7,3s6.3,2.8,7.3,2.9.8,0,1.3-.4c2-1.8,4.4-8.7,6.5-11ZM1009.4,887.8l-29.1-13.9-19.2-12.5c-.6-.2-.9,0-1.3.4-2.6,1.7-5.4,7-8.4,8.9,9.7,4.9,18.8,11.6,28.3,16.8,4.7,2.6,18.3,9.6,22.9,10.7s1.1.3,1.5,0c.3-1.8,6.1-9.4,5.3-10.5ZM864.9,930.9l5.1,8.6c13-7.9,26.1-16,38.8-24.4s22-13.7,29.5-22.3,7.3-8.6,8.4-10.8.3-.6,0-.9l-3.6-2.7c-24,20.3-49.9,38.7-78.2,52.6ZM955.4,887.3l-7,8.4c4.7,3.2,37.3,30,39.8,28.8,1.8-3.1,4.6-6.7,6-9.9.3-.6.9-1.2.5-1.9-13.2-8.5-27.4-15.3-39.4-25.4ZM880.3,956.9c-.4.7,2,5,2.6,5.7s.6.6,1.2.3c9.1-5.4,18.4-10.6,27.3-16.4,8.9-5.7,20.1-12.6,26.4-21.2,2.2-3,8.2-13.5,8.6-16.8.3-2.1-3.4-4.2-5.2-4.9,0,.4-.2.9-.5,1.2-7.6,8-15.1,17.5-23.5,24.5-5.5,4.5-12.3,8.1-18.2,12.5s-12.3,10.3-18.7,15.1ZM949.9,928.5l27.1,14.8,6-9.3-25.8-16c-.7,0-1,.5-1.3.9-2.1,2.7-4,6.7-6,9.6ZM939.3,942.9c-.4,2.2-3.8,4.6-4.6,6.2s-.4.9,0,1.4c7.1,5.7,14,11.8,21.4,17,1,.7,4.4,3.5,5.2,3l5.1-8.9-27.1-18.7ZM956.6,978.4c-1.3,0-2.3-.4-3.4-1.2-6-4.2-13.4-14.2-19.4-19.5-.6-.5-3.4-2.9-3.8-2.8l-5.8,5.3-31.9,18.9,5,8.4c8.3-4.3,16.3-9.5,24.7-13.6,6.4-3.2,8.7-5.4,15.1-.2,2.2,1.7,12.7,13.4,13.9,13.5.7,0,.8-.4,1.1-.8,1.6-2.2,3-5.5,4.4-7.8Z"/>
      <path class="st1" d="M1026.6,347.2c1.5-.7,3.2,0,3.7,1.6,1.4,4.1,3.3,8.2,3.8,12.4,2.1,17.6-7.2,40.7-22.3,50.4-2.4,1.5-8.6,5.5-10.9,6.4s-.8.5-1.4.3c-2-.5-6.6-12.4-7.3-14.8-7.2-26.2,12.3-46.3,34.3-56.3Z"/>
      <path class="st1" d="M1167.1,465.5c12.8-.7,28.8,7.5,37,17.2,1.7,2,3.1,3.2,1.5,5.9s-13.2,6.5-17.1,7.3c-5.1,1.1-11.1,2.2-16.3,1.3-10-1.7-18.5-11.8-23.3-20.7s-.5-2.5.4-3.5c4.6-4.8,11.2-7.2,17.8-7.6Z"/>
      <path class="st1" d="M817.4,404.9c-2.9-.3-7.8-1.8-10.6-2.9-23.6-8.7-29.1-34.8-30.8-57.4-.1-1.4,1.1-2.5,2.5-2.3,21.6,3,39.9,21.5,45.2,42.3.4,1.5,1.6,5.9,1.6,7.1v12.5l-.7.7c-2.3-.2-4.9.2-7.2,0Z"/>
      <path class="st1" d="M812.8,441.5c3.3-.8,8.9,0,13.4.5,19.7,2.6,40.7,18.3,41.4,39.3,0,1.4-.9,2.8-2.2,3.2-17.1,5.9-41.4-2.4-50.6-17.7s-9-16-7.4-21.4c.5-1.6,3.8-3.6,5.4-4Z"/>
      <path class="st1" d="M1058.8,369.5c.8-.6,7.1,5.8,7.9,6.7,15,17.6,20.1,55.5.9,71.9-8.4-5.8-16.6-18.7-19.4-28.5-4.6-16,2.1-36.4,10.6-50.1Z"/>
      <path class="st1" d="M1036.7,485.6c.2,1.4-.9,2.7-2.3,2.8-8.7.3-18-1.6-25.6-5.8-11.6-6.5-24.1-25.3-20.9-39,.4-1.7.9-1.7,2.6-1.7,4.6,0,12.3,1,16.8,2.2,19.5,5,27.2,23.4,29.5,41.7Z"/>
      <path class="st1" d="M1181.7,377.2c-1.4.3-2.6.5-4.1.3s-9.4,1.4-10.5-1.4c-1-2.7-.9-12.8-.7-16.1.9-15,4.3-28.9,20.1-33.8,18-5.5,22.1,4.8,21.7,21-.3,13.7-13.3,27.6-26.6,29.9Z"/>
      <path class="st1" d="M913.9,376.6c3.3-.7,6.3.7,9.5.9,4.5.3,8.3-.3,12.8.6,15.2,2.9,25.6,16.9,30.9,30.6.5,1.4,2.6,6.8,2,7.7-1.2.6-2.7.6-3.9.9-8.9,1.5-22.8,2.6-31.3-.3s-17.9-15.1-21.6-24.5c-1.6-4.2-5.1-14.5,1.7-15.8Z"/>
      <path class="st1" d="M699.2,385.7c-2.8,2.3-7.8-2.2-10.6-3.3-10.9-4.5-21.3-5.2-29.4-15.3-7.8-9.7-8.9-31.4,7.7-31.7,18.2-.3,31.4,13.1,33.8,30.5.5,4,1.6,17.1-1.5,19.7Z"/>
      <path class="st1" d="M859.8,371.2c.9-1,2.4-1.3,3.6-.6,6.9,4,10.2,11,11.9,18.8,2.1,9.8,3.7,23.7-.2,33-2.4,5.7-6,8.7-10.9,11.7-.9.5-2,.6-2.9,0-5.7-3.3-11.6-7.1-14.9-12.8-9.7-16.7,2.2-37.1,13.5-50.2Z"/>
      <path class="st1" d="M1107.8,427.2c-1.5.2-2.9-.6-3.4-1.9-3.5-8.9-2.2-20.1,1.4-28.8,4.9-12,18.1-20,29.9-24.4s6.8-2.9,7.2,2.4c.6,8.1.5,21.7-1.8,29.4-4.7,15.6-18.5,21-33.2,23.3Z"/>
      <path class="st1" d="M630.5,416.2c.2-.6.7-1.2,1.3-1.4,14.6-6.6,29.5-15.6,46.1-10.1,6.9,2.3,13.5,7.3,17.3,13.6s.5,1.9-.1,2.7c-7.4,9.3-17.3,17-30,15.8-6.4-.6-27.1-6.9-32.1-10.6-4.4-3.2-3.8-5.4-2.4-9.8Z"/>
      <path class="st1" d="M1151.4,528.7c-.9.9-5.1,1.7-6.5,1.9-23,3.7-35.8-.9-56-10.5-4.5-2.1-9.2-4.4-13.2-7.6-1.1-.9-1.1-2.6,0-3.4,18.2-13.8,48.4-9.3,65.6,4.1,4.2,3.3,7.7,8.2,10,13s.6,1.7,0,2.4Z"/>
      <path class="st1" d="M744.9,435.7c-11.6-2.3-22-4.1-25.6-16.9-2.8-10.3-1.3-33.9,3.7-43.6s2.4-3.2,6-1.2c16.5,8.9,27.8,36,19.4,53.5s-4.1,5-3.6,8.2Z"/>
      <path class="st1" d="M1066,632.9c15.4.3,30.9,7.1,40.2,19.5,5.5,7.3,10.3,17.4,9.2,26.8-.2,2-2,2.2-3.8,2.5-7.4,1.1-20-.8-26-5.4-6.1-4.7-19.7-25.6-19.7-33.1v-10.3Z"/>
      <path class="st1" d="M992,506.4c2-.2,14.7-.5,15.5,0l.4.6c1.1,19.3-11.3,34.7-30.5,37.5s-21.3,1.5-23.7-2.5-.6-2.5-.3-3.8c.3-1.3,3.9-8.8,4.8-10.6,7-14.2,18.3-20,33.9-21.3Z"/>
      <path class="st1" d="M1156.4,413c-.1-.1-.3-.3-.5-.4-1.3-1.2-1.2-3.3.2-4.3,16-11.9,34.1-18,54.3-13,27.3,6.8.6,22.3-11.7,26.6-19.5,6.7-27.5,4-42.3-8.8Z"/>
      <path class="st1" d="M787.4,420.4c5.7,11.3,9.3,27.4,2.5,39s-13,14.6-17.4,18.6c-2.6,2.4-6.1,4-8.3.2-2.6-4.5-4.4-26-3.9-31.6,1.4-14,15.7-21.2,27.1-26.1Z"/>
      <path class="st1" d="M1119.7,445.5c5.2-.4,11.9-.4,16.9,1.1,4.1,1.2,8,3.9,6.3,8.7-1.7,4.7-16.5,16.9-21.4,18.5-7.3,2.3-30.9,3-37.2-1.3-5.9-4-.3-10,3.3-13.4,8.5-8,20.5-12.6,32.1-13.5Z"/>
      <path class="st1" d="M1146.8,585.2c1.2.7,1.6,2.4.8,3.6-2.6,4-8.7,11.4-9.9,12.6-12.6,11.7-24.5,6.7-37.4-1-1.2-.7-7.5-4.5-8-5-1.8-1.9.5-4.6,1.7-6.5,11.8-18.5,29.6-16.8,47.1-7.2,2,1.1,3.8,2.4,5.7,3.5Z"/>
      <path class="st1" d="M699.2,450.3c10.5-1,23.6,1.6,32.7,7.9s3,5.2,1.2,7.5-2.3,2.8-3.7,4.1c-9.9,8.4-32.4,12.7-43.8,5.9s-12.1-7.9-12.1-12.2,2.7-3.3,3.1-3.7c5.2-4.9,15.7-8.8,22.7-9.5Z"/>
      <path class="st1" d="M1086.2,562.7c1.2.6,1.1,2.4-.1,2.9-7.1,3.1-12.4,8.8-19.7,11.8-10.2,4.2-20.6,4.4-30.4-1-4.2-2.3-5.9-4.3-7.4-9,10.6-16.1,22.5-23.2,41.6-15.2,6,2.5,9.2,5.7,14.1,9.4s1.1.6,1.9,1Z"/>
      <path class="st1" d="M978.2,372.7c-9.3.8-18.8,1.4-27.4-2.6-6.5-3-9.5-8-13-13.9s-9.5-23.1-2.9-25.1c.9-.3,1.7,0,2.5.3,6.4,1.7,26,9.3,30.3,13.5,6.7,6.4,6.2,12,8.2,20.2.6,2.5,2.2,4.9,2.3,7.6Z"/>
      <path class="st1" d="M893.5,443.7c8.8-10.6,23.3-13,36.4-12.4.6,0,1,.5.9,1.1-1.4,9.5-3.2,22.9-10.5,29.4-5.5,4.9-17,7.4-24.2,7.9-6.9.5-9.8.5-9.4-7.5.4-6.8,2.4-13.3,6.8-18.5Z"/>
      <path class="st1" d="M729,482.9c5.4-.7,14.3.3,19.4,2.4,8.5,3.5,5.2,9.1.6,14.3-9.9,11.4-22.5,18.4-37.8,12.8-3.2-1.2-10.1-5.2-9.5-9.2s8.2-9.9,9.9-11.3c4-3.3,12.3-8.3,17.4-9Z"/>
      <path class="st1" d="M1003.6,668.4c-3.5-15.3,2.6-33.6,14.7-43.7s5.2-3.3,7.9-5.1c2.6-1.7,5.4-6,8.9-4s2.4,19.1,1,23.9c-3.1,11.1-12.6,18.8-22.3,24.2-1.2.7-9.6,5-10.1,4.6Z"/>
      <path class="st1" d="M814.3,703.6c-14.7-13.9-9.1-40.2,5.5-52.4,1.4-1.2,3.5-1,4.7.5,6.2,7.8,7.1,19.4,6.3,29-.6,6.9-3.9,14.5-9.4,19-1.3,1-3.8,3-5.2,4s-1.4.4-1.9,0Z"/>
      <path class="st1" d="M766.9,502.1c2-1.2,4.7-.2,5.5,2,2.6,7.2,4.6,14.9,3.7,22.5s-10.2,17.7-16.5,21c-3.5,1.8-6.9,3.1-9.2-1-3.4-6-3.4-19.3-1.2-25.7,2.8-7.9,10.3-14.5,17.7-18.8Z"/>
      <path class="st1" d="M737.9,567.2c-.3-1,.2-2,1.2-2.4,12.7-4.7,29.9-3.5,38.8,7.6,5.4,6.7,3.5,11.1-4.1,14.2-12.1,4.8-21.9.4-29.7-9.1-1.1-1.4-5.1-7.1-6.1-10.3Z"/>
      <path class="st1" d="M873.5,495.3c3.6-1,8.4,7.1,9.7,10.4,4.3,10.9-1.2,19.6-5.5,28.7-.5,1.1-1.9,1.2-2.6.2-.2-.3-.4-.6-.6-.8-2.7-3.6-9.1-14.6-9.5-19-.5-4.7,4.2-18.2,8.6-19.5Z"/>
      <path class="st1" d="M753,632.3c-1.5-.2-2.7-1.3-3-2.8-.7-4.1.6-7.9,2.4-11.8,3.6-7.4,12.3-15.4,20.4-17.6,1.1-.3,5.6-1,8.6-1.2s3.4,1.2,3.6,3c.5,3.9-1,8.5-2.4,11.9-5,12.4-16.5,19.9-29.7,18.4Z"/>
      <path class="st1" d="M841.3,648.4c10.8-1.3,20.8,2,27.1,11s8.3,15.5,0,16.6c-12.1,1.7-23.3-4.4-29.8-14.3-1.1-1.6-5.6-9.8-4.8-11.1s6.1-2.1,7.4-2.3Z"/>
      <path class="st1" d="M813.9,541.5c1.6-.7,3.4.2,3.9,1.8,4,12.6-4.2,28.7-18,30.1-6.6.7-6.9-2.5-6.4-8.3,1.1-11.4,10.5-19.4,20.5-23.6Z"/>
      <path class="st1" d="M802.4,627.8c6.9-.4,14.5,2.6,17.8,8.6.9,1.7.3,3.9-1.4,4.8-10.5,6-22.2,10.5-32.8,1.3s-2.6-6,1.7-8.8c4-2.6,9.9-5.6,14.7-5.9Z"/>
      <path class="st1" d="M901.2,521.3c.4-.8,1.3-1.2,2.2-1,4.3,1,8.8,4.1,9.4,8.6.5,3.9-1.3,15.6-4.1,18.4-3.2,3.3-5.5.5-8.1-1.9-2-1.8-4.6-4.3-5-7-.9-6.2,2.7-11.9,5.6-17.1Z"/>
    </g>
    <text class="st0" transform="translate(287.4 1589.1)"><tspan x="0" y="0">Tara Flynn</tspan></text>
  </g>
</svg>