<?xml version="1.0" encoding="UTF-8"?>
<svg id="Layer_1" xmlns="http://www.w3.org/2000/svg" version="1.1" viewBox="0 0 2831.6 1065.5">
  <!-- Generator: Adobe Illustrator 29.0.1, SVG Export Plug-In . SVG Version: 2.1.0 Build 192)  -->
  <defs>
    <style>
      .st0 {
        isolation: isolate;
      }

      .st1 {
        fill: #5e3d5a;
      }
    </style>
  </defs>
  <g>
    <path class="st1" d="M1170.7,19.3c3.9,2.2,7.1,4.5,8.8,8.8v9.5c-5.7,11.7-12,23.1-18.1,34.4-176.8,320.2-362.4,635.6-547.9,950.8l-5.1,4.1h-8.8l-5.1-3.4C429.6,735.4,265.9,446.7,95.7,161.7c-22.5-37.5-44.3-75.9-67.7-112.7-.7-.9-1.1-2.1-2.1-2.6v-8.2l6-6.8c6.3-4.3,27.5-4.2,35.9-4.6,360.4-15.9,720.5,11.8,1080.5-6.3,3.8-.1,8.4.9,11.7-1.3h10.8-.1ZM1160.6,37.1c-8.7.3-17.5.3-26.2.7-21,.8-42.1,1.8-63.1,2.5-322.4,10.7-645.2-11.3-967.5,2.6l-58.4,2.5c126.2,210.1,250.2,421.5,371.7,634.4,1.2,1.1,5.9,1.3,7.9,1.6,80.7,9.1,158.3-58,150.6-141-1.4-15.9-9.7-51.1-23.8-60.1-14.7-9.5-35.2-10.7-50.5-2.1-6,3.4-16,12.5-21.7,14.3-2.8.9-2.9-.9-1.6-2.9,2.9-4.5,11.7-14.9,15.8-18.3,17.2-14.6,41.7-8.2,62.2-7.5.3-1.1-.4-1.3-.9-2-2-2.2-7.6-5.7-10.4-7.2-13.8-8-34.7-17.6-49.7-24.2-5.5-2.5-11.2-4.9-17.1-6.2-16-3.8-33-2.5-49-5.3-2.1-2.9,7.8-4.3,9.9-4.7,21.3-4.9,39.7-3.8,60.1,3.7,13.4,4.9,31.2,11.8,43.8,18,18.4,9.1,25.8,20.9,35.6,38.1,30,52.5,39.3,115,15.9,172-23.7,57.9-78.1,93.6-139.8,99.1l7,11.7c1.3.8,13.3-2,15.8-2.5,69.8-15.6,121.1-56,134.9-128.9,16.2-85.6-23.8-159.1-77.2-221.6-9.3-10.9-13.4-21.2-20.9-32.7-20.6-32.1-70.3-53-102.4-73.6-3.3-2.1-7.1-4.2-9.5-7.2,5.5.3,10.8,2.8,15.9,4.6,30.2,10.9,81,35.6,101.4,60.1,10,11.8,17.4,25.9,27.2,37.9,10,12.1,20.9,20.5,29.1,34.6s8.2,18.5,12.6,27.7c4.6,9.5,10.7,18.1,15.4,27.5,57.2,112.4,11.3,252.3-117.5,281.2-6,1.3-12.2,2.2-18.4,3.4l3.9,8.2h.8c48.8-2.8,92.7-23.4,123.1-61.8,42.2-53.5,48.4-128.9,30.5-193.2-3.8-13.7-9.3-26.7-13.3-40.4-6.6-23.3-2.1-43.4-1.7-67.1.4-24.5,5.1-54.3-4.1-77.3-6.4-16-20-29.2-34.4-38.1l-34.1-19.3c20.2,2,41,8.4,56.1,22.4,11.6,10.5,17.6,25,26.4,37.6,5.9-37.7,20.9-76.8,45.5-106.2,3.9-4.7,8.5-10.4,14.5-12.4.7.7-3.6,8.5-4.3,9.9-8.3,15.8-18.8,30.2-26,46.4-17.2,38.4-18.3,81-17.6,122.5l2.9,52.6c23-29.3,44.6-62.2,73.2-86.4,19.3-16.3,43-27.6,59-47.7,14.3-18,17.6-36.9,24.5-58.2l2.6-6.4c1.1,24.2-1.8,49.4-14.2,70.6s-33.8,32.9-51.7,48c-15,12.6-28.5,30.5-40,46.4-11.4,15.9-11.3,15.3-10.3,16.6,29.1-12.4,64.3-15.8,93.6-2.5,16.2,7.4,29.8,19.9,39.6,34.6-9.9-2.8-18.3-9.1-27.5-13.1-68.1-30.2-145.2-6.4-138.5,78.5,2.9,37.2,21.2,100.7,52.9,123.2,19.7,14.1,48.9,23.4,73.1,24.7,3.9.3,20.2.7,23.1-.3s1.3-.7,1.7-1.4c123.1-212.5,245.9-425.1,363.7-640.6h-.3ZM434.9,710.7c64.7,2.4,126.2-42.3,151.5-100.5,12.2-28.1,10.8-45.4,3.6-74.4-1.8-7.4-3.9-14.9-6.4-22,0,8.3,2.6,16.7,3.4,25,4.9,52.7-12.2,96.2-56.1,126.1-30.4,20.6-66.9,33.7-104.1,30l8.3,15.6h0ZM649.4,632.6l-3.6.7c-12.2,67.6-65.3,131.1-134,145.6-11.7,2.5-23.5,3.9-35.5,4.6l7.1,12.5c31.3-4.3,62.9-17.2,89.9-33.3,19.6-11.6,30.8-21.6,43.7-40.2,17.6-25.8,32.3-58.1,32.3-89.8h0ZM442.4,722.8l6.3,11.7c49-3.4,102.8-30.6,129-73,2.8-4.5,11.6-21,11-25.4s-1.6-3.9-3.6-2.4c-12.8,19.9-25.8,37.3-44.6,52.1-28,21.8-63,34.7-98.4,36.9h.1ZM505.5,833.9l10.4,18.9c1.3,1.3,3.7-.4,5.4-.9,23-8.8,50.6-23.8,71.3-37.2,34.2-22.2,58.8-44.7,75.9-82.4,12.4-27.2,11.2-40.9,1.8-68.9-.8-2.4-3.7-11.7-5.5-12.2l-1.8.5c-1.8,2.8,4.5,22.2,5.3,27,2.8,18.8-9.2,47.9-18.7,64.3-30.1,52.3-85.2,82.4-144,91.1h0ZM771.2,720.9c-27.1-4.2-54-18.7-72.8-38.5-2.4-2.5-8-10.7-10-12.1s-2.5-.7-3.3.7c-.8,1.7,3.9,9.3,5.1,11.3,12.6,19.6,37.2,36,58.8,44,2.6.9,15.5,5.5,17.1,4.5l5.1-10h0ZM785.7,696.4c-22.7.5-44.8-5.4-65.5-14.5-2.4-1.1-8.3-4.7-10.1-5s-2.6,2.2-2,3.6,4.1,3.6,4.9,4.2c17.5,15.1,42.5,23.1,65.2,25l7.4-13.3h.1ZM492.2,810.6l7.4,12.5c43.1-9.2,87.3-23.1,117.7-56.9,17.1-19.1,35.6-53.1,37.7-79,.3-3.2,1.2-12.1-3.7-8-7.1,18.8-14.2,36.3-26.3,52.6-23.1,30.9-50.8,51.3-87,64.4-15,5.4-30.4,10.1-45.8,14.5h0ZM759.2,741.7c-20.4-5.4-41.3-14.7-56.8-29.3-3.9-3.7-6.8-8.5-11-11.4-2.8-.3-3.3,10.5-2.8,12.6s9.6,11,11.7,13c14.5,13.1,32.5,22.5,51,28.3l8-13.1h-.1ZM684.1,727.3c-.9,3.2-6.2,9.9-5.7,12.8s10.5,11.7,12.9,13.7c11.6,9.7,27.5,17.8,42.5,20,2.2.4,5.5,1.3,7.1,0s3.7-5.7,2.5-6.3c-20.6-5.3-41-15.1-53.8-32.6-.9-1.2-4.2-8.3-5.5-7.4h0ZM733.4,786.6c-4.6-.8-9.3-1.2-13.9-2.2-16.6-3.8-30.9-18.3-45.5-26.4-14.6-8.2-4.3-3.2-6.3-1.3-.5.4-6.2,9.7-6.2,10.3s-.1.9.3,1.4c6.3,4.7,12.1,11.3,19.1,15,8,4.3,18.1,6.4,26.7,10.7,2.1,1.1,3.9,2.9,6.2,3.9s8.3,3.7,9.6,3.8,1.1,0,1.7-.5c2.6-2.4,5.8-11.4,8.5-14.5h-.1ZM716.3,814.4l-38.3-18.3-25.2-16.4c-.8-.3-1.2,0-1.7.5-3.4,2.2-7.1,9.2-11,11.7,12.8,6.4,24.7,15.3,37.2,22.1s24.1,12.6,30.1,14.1,1.4.4,2,0c.4-2.4,8-12.4,7-13.8h0ZM526.3,871.1l6.7,11.3c17.1-10.4,34.3-21,51-32.1,12.6-8.4,28.9-18,38.8-29.3,2.5-2.9,9.6-11.3,11-14.2s.4-.8,0-1.2l-4.7-3.6c-31.6,26.7-65.6,50.9-102.8,69.2h0ZM645.3,813.8l-9.2,11c6.2,4.2,49,39.4,52.3,37.9,2.4-4.1,6-8.8,7.9-13,.4-.8,1.2-1.6.7-2.5-17.4-11.2-36-20.1-51.8-33.4h.1ZM546.7,905.3c-.5.9,2.6,6.6,3.4,7.5s.8.8,1.6.4c12-7.1,24.2-13.9,35.9-21.6,11.7-7.5,26.4-16.6,34.7-27.9,8.3-11.3,10.8-17.8,11.3-22.1s-4.5-5.5-6.8-6.4c0,.5-.3,1.2-.7,1.6-10,10.5-19.9,23-30.9,32.2-7.2,5.9-16.2,10.7-23.9,16.4s-16.2,13.5-24.6,19.9h0ZM638.1,867.9l35.6,19.5,7.9-12.2-33.9-21c-.9,0-1.3.7-1.7,1.2-2.8,3.6-5.3,8.8-7.9,12.6ZM624.1,886.9c-.5,2.9-5,6-6,8.2-.3.7-.5,1.2,0,1.8,9.3,7.5,18.4,15.5,28.1,22.4,1.3.9,5.8,4.6,6.8,3.9l6.7-11.7-35.6-24.6h0ZM646.9,933.6c-1.7,0-3-.5-4.5-1.6-7.9-5.5-17.6-18.7-25.5-25.6-.8-.7-4.5-3.8-5-3.7l-7.6,7-41.9,24.9,6.6,11c10.9-5.7,21.4-12.5,32.5-17.9,8.4-4.2,11.4-7.1,19.9-.3s16.7,17.6,18.3,17.8c.9,0,1.1-.5,1.4-1.1,2.1-2.9,3.9-7.2,5.8-10.3v-.3Z"/>
    <path class="st1" d="M739,103.6c2-.9,4.2,0,4.9,2.1,1.8,5.4,4.3,10.8,5,16.3,2.8,23.1-9.5,53.5-29.3,66.3-3.2,2-11.3,7.2-14.3,8.4s-1.1.7-1.8.4c-2.6-.7-8.7-16.3-9.6-19.5-9.5-34.4,16.2-60.9,45.1-74h.1Z"/>
    <path class="st1" d="M923.6,259.2c16.8-.9,37.9,9.9,48.6,22.6,2.2,2.6,4.1,4.2,2,7.8s-17.4,8.5-22.5,9.6c-6.7,1.4-14.6,2.9-21.4,1.7-13.1-2.2-24.3-15.5-30.6-27.2-6.3-11.7-.7-3.3.5-4.6,6-6.3,14.7-9.5,23.4-10h0Z"/>
    <path class="st1" d="M463.8,179.5c-3.8-.4-10.3-2.4-13.9-3.8-31-11.4-38.3-45.8-40.5-75.5-.1-1.8,1.4-3.3,3.3-3,28.4,3.9,52.5,28.3,59.4,55.6.5,2,2.1,7.8,2.1,9.3v16.4l-.9.9c-3-.3-6.4.3-9.5,0h0Z"/>
    <path class="st1" d="M457.9,227.6c4.3-1.1,11.7,0,17.6.7,25.9,3.4,53.5,24.1,54.4,51.7,0,1.8-1.2,3.7-2.9,4.2-22.5,7.8-54.4-3.2-66.5-23.3-5.7-9.5-11.8-21-9.7-28.1.7-2.1,5-4.7,7.1-5.3h0Z"/>
    <path class="st1" d="M781.4,132.9c1.1-.8,9.3,7.6,10.4,8.8,19.7,23.1,26.4,73,1.2,94.5-11-7.6-21.8-24.6-25.5-37.5-6-21,2.8-47.9,13.9-65.9Z"/>
    <path class="st1" d="M752.2,285.6c.3,1.8-1.2,3.6-3,3.7-11.4.4-23.7-2.1-33.7-7.6-15.3-8.5-31.7-33.3-27.5-51.3.5-2.2,1.2-2.2,3.4-2.2,6,0,16.2,1.3,22.1,2.9,25.6,6.6,35.8,30.8,38.8,54.8v-.3Z"/>
    <path class="st1" d="M942.8,143.1c-1.8.4-3.4.7-5.4.4s-12.4,1.8-13.8-1.8-1.2-16.8-.9-21.2c1.2-19.7,5.7-38,26.4-44.4,23.7-7.2,29.1,6.3,28.5,27.6-.4,18-17.5,36.3-35,39.3h.1Z"/>
    <path class="st1" d="M590.7,142.1c4.3-.9,8.3.9,12.5,1.2,5.9.4,10.9-.4,16.8.8,20,3.8,33.7,22.2,40.6,40.2.7,1.8,3.4,8.9,2.6,10.1-1.6.8-3.6.8-5.1,1.2-11.7,2-30,3.4-41.2-.4s-23.5-19.9-28.4-32.2c-2.1-5.5-6.7-19.1,2.2-20.8h-.1Z"/>
    <path class="st1" d="M308.4,154.2c-3.7,3-10.3-2.9-13.9-4.3-14.3-5.9-28-6.8-38.7-20.1-10.3-12.8-11.7-41.3,10.1-41.7,23.9-.4,41.3,17.2,44.4,40.1.7,5.3,2.1,22.5-2,25.9h0Z"/>
    <path class="st1" d="M519.6,135.2c1.2-1.3,3.2-1.7,4.7-.8,9.1,5.3,13.4,14.5,15.6,24.7,2.8,12.9,4.9,31.2-.3,43.4-3.2,7.5-7.9,11.4-14.3,15.4-1.2.7-2.6.8-3.8,0-7.5-4.3-15.3-9.3-19.6-16.8-12.8-22,2.9-48.8,17.8-66h-.1Z"/>
    <path class="st1" d="M845.8,208.8c-2,.3-3.8-.8-4.5-2.5-4.6-11.7-2.9-26.4,1.8-37.9,6.4-15.8,23.8-26.3,39.3-32.1s8.9-3.8,9.5,3.2c.8,10.7.7,28.5-2.4,38.7-6.2,20.5-24.3,27.6-43.7,30.6h-.1Z"/>
    <path class="st1" d="M218.1,194.3c.3-.8.9-1.6,1.7-1.8,19.2-8.7,38.8-20.5,60.6-13.3,9.1,3,17.8,9.6,22.7,17.9s.7,2.5-.1,3.6c-9.7,12.2-22.7,22.4-39.4,20.8-8.4-.8-35.6-9.1-42.2-13.9-5.8-4.2-5-7.1-3.2-12.9v-.3Z"/>
    <path class="st1" d="M903,342.3c-1.2,1.2-6.7,2.2-8.5,2.5-30.2,4.9-47.1-1.2-73.6-13.8-26.6-12.6-12.1-5.8-17.4-10-1.4-1.2-1.4-3.4,0-4.5,23.9-18.1,63.6-12.2,86.3,5.4,5.5,4.3,10.1,10.8,13.1,17.1s.8,2.2,0,3.2h.1Z"/>
    <path class="st1" d="M368.5,220c-15.3-3-28.9-5.4-33.7-22.2-3.7-13.5-1.7-44.6,4.9-57.3,6.6-12.8,3.2-4.2,7.9-1.6,21.7,11.7,36.6,47.3,25.5,70.3-1.7,3.6-5.4,6.6-4.7,10.8h.1Z"/>
    <path class="st1" d="M790.7,479.3c20.2.4,40.6,9.3,52.9,25.6,7.2,9.6,13.5,22.9,12.1,35.2-.3,2.6-2.6,2.9-5,3.3-9.7,1.4-26.3-1.1-34.2-7.1-8-6.2-25.9-33.7-25.9-43.5v-13.5h.1Z"/>
    <path class="st1" d="M693.4,312.9c2.6-.3,19.3-.7,20.4,0l.5.8c1.4,25.4-14.9,45.6-40.1,49.3-25.2,3.7-28,2-31.2-3.3-.9-1.4-.8-3.3-.4-5s5.1-11.6,6.3-13.9c9.2-18.7,24.1-26.3,44.6-28h-.1Z"/>
    <path class="st1" d="M909.7,190.1c-.1-.1-.4-.4-.7-.5-1.7-1.6-1.6-4.3.3-5.7,21-15.6,44.8-23.7,71.4-17.1,35.9,8.9.8,29.3-15.4,35-25.6,8.8-36.2,5.3-55.6-11.6h0Z"/>
    <path class="st1" d="M424.4,199.9c7.5,14.9,12.2,36,3.3,51.3s-17.1,19.2-22.9,24.5c-3.4,3.2-8,5.3-10.9.3-3.4-5.9-5.8-34.2-5.1-41.5,1.8-18.4,20.6-27.9,35.6-34.3h0Z"/>
    <path class="st1" d="M861.3,232.7c6.8-.5,15.6-.5,22.2,1.4s10.5,5.1,8.3,11.4c-2.2,6.2-21.7,22.2-28.1,24.3-9.6,3-40.6,3.9-48.9-1.7-7.8-5.3-.4-13.1,4.3-17.6,11.2-10.5,27-16.6,42.2-17.8h0Z"/>
    <path class="st1" d="M896.9,416.6c1.6.9,2.1,3.2,1.1,4.7-3.4,5.3-11.4,15-13,16.6-16.6,15.4-32.2,8.8-49.2-1.3-1.6-.9-9.9-5.9-10.5-6.6-2.4-2.5.7-6,2.2-8.5,15.5-24.3,38.9-22.1,61.9-9.5,23,12.6,5,3.2,7.5,4.6h0Z"/>
    <path class="st1" d="M308.4,239.1c13.8-1.3,31,2.1,43,10.4,3.3,2.2,3.9,6.8,1.6,9.9-1.4,1.8-3,3.7-4.9,5.4-13,11-42.6,16.7-57.6,7.8s-15.9-10.4-15.9-16,3.6-4.3,4.1-4.9c6.8-6.4,20.6-11.6,29.8-12.5h-.1Z"/>
    <path class="st1" d="M817.3,386.8c1.6.8,1.4,3.2-.1,3.8-9.3,4.1-16.3,11.6-25.9,15.5-9.6,3.9-27.1,5.8-40-1.3-5.5-3-7.8-5.7-9.7-11.8,13.9-21.2,29.6-30.5,54.7-20,7.9,3.3,12.1,7.5,18.5,12.4.4.3,1.4.8,2.5,1.3h0Z"/>
    <path class="st1" d="M675.3,137.2c-12.2,1.1-24.7,1.8-36-3.4-8.5-3.9-12.5-10.5-17.1-18.3s-12.5-30.4-3.8-33c1.2-.4,2.2,0,3.3.4,8.4,2.2,34.2,12.2,39.8,17.8,8.8,8.4,8.2,15.8,10.8,26.6.8,3.3,2.9,6.4,3,10h0Z"/>
    <path class="st1" d="M563.9,230.5c11.6-13.9,30.6-17.1,47.9-16.3.8,0,1.3.7,1.2,1.4-1.8,12.5-4.2,30.1-13.8,38.7-7.2,6.4-22.4,9.7-31.8,10.4-9.1.7-12.9.7-12.4-9.9.5-8.9,3.2-17.5,8.9-24.3Z"/>
    <path class="st1" d="M347.6,282c7.1-.9,18.8.4,25.5,3.2,11.2,4.6,6.8,12,.8,18.8-13,15-29.6,24.2-49.7,16.8-4.2-1.6-13.3-6.8-12.5-12.1.3-2,10.8-13,13-14.9,5.3-4.3,16.2-10.9,22.9-11.8h0Z"/>
    <path class="st1" d="M708.7,526c-4.6-20.1,3.4-44.2,19.3-57.5,15.9-13.3,6.8-4.3,10.4-6.7,3.4-2.2,7.1-7.9,11.7-5.3,6.3,3.6,3.2,25.1,1.3,31.4-4.1,14.6-16.6,24.7-29.3,31.8-1.6.9-12.6,6.6-13.3,6h-.1Z"/>
    <path class="st1" d="M459.8,572.2c-19.3-18.3-12-52.9,7.2-68.9,1.8-1.6,4.6-1.3,6.2.7,8.2,10.3,9.3,25.5,8.3,38.1-.8,9.1-5.1,19.1-12.4,25-1.7,1.3-5,3.9-6.8,5.3s-1.8.5-2.5,0h0Z"/>
    <path class="st1" d="M397.4,307.3c2.6-1.6,6.2-.3,7.2,2.6,3.4,9.5,6,19.6,4.9,29.6-1.2,10-13.4,23.3-21.7,27.6-4.6,2.4-9.1,4.1-12.1-1.3-4.5-7.9-4.5-25.4-1.6-33.8,3.7-10.4,13.5-19.1,23.3-24.7Z"/>
    <path class="st1" d="M359.3,392.9c-.4-1.3.3-2.6,1.6-3.2,16.7-6.2,39.3-4.6,51,10,7.1,8.8,4.6,14.6-5.4,18.7-15.9,6.3-28.8.5-39.1-12-1.4-1.8-6.7-9.3-8-13.5h-.1Z"/>
    <path class="st1" d="M537.6,298.4c4.7-1.3,11,9.3,12.8,13.7,5.7,14.3-1.6,25.8-7.2,37.7-.7,1.4-2.5,1.6-3.4.3s-.5-.8-.8-1.1c-3.6-4.7-12-19.2-12.5-25-.7-6.2,5.5-23.9,11.3-25.6h-.1Z"/>
    <path class="st1" d="M379.2,478.5c-2-.3-3.6-1.7-3.9-3.7-.9-5.4.8-10.4,3.2-15.5,4.7-9.7,16.2-20.2,26.8-23.1,1.4-.4,7.4-1.3,11.3-1.6s4.5,1.6,4.7,3.9c.7,5.1-1.3,11.2-3.2,15.6-6.6,16.3-21.7,26.2-39.1,24.2h.1Z"/>
    <path class="st1" d="M495.3,499.7c14.2-1.7,27.3,2.6,35.6,14.5,3.7,5.3,10.9,20.4,0,21.8-15.9,2.2-30.6-5.8-39.2-18.8-1.4-2.1-7.4-12.9-6.3-14.6s8-2.8,9.7-3h.1Z"/>
    <path class="st1" d="M459.2,359.1c2.1-.9,4.5.3,5.1,2.4,5.3,16.6-5.5,37.7-23.7,39.6-8.7.9-9.1-3.3-8.4-10.9,1.4-15,13.8-25.5,27-31Z"/>
    <path class="st1" d="M444.1,472.6c9.1-.5,19.1,3.4,23.4,11.3,1.2,2.2.4,5.1-1.8,6.3-13.8,7.9-29.2,13.8-43.1,1.7-6.6-5.8-3.4-7.9,2.2-11.6,5.3-3.4,13-7.4,19.3-7.8h0Z"/>
    <path class="st1" d="M574,332.5c.5-1.1,1.7-1.6,2.9-1.3,5.7,1.3,11.6,5.4,12.4,11.3.7,5.1-1.7,20.5-5.4,24.2-4.2,4.3-7.2.7-10.7-2.5-2.6-2.4-6-5.7-6.6-9.2-1.2-8.2,3.6-15.6,7.4-22.5h0Z"/>
  </g>
  <g class="st0">
    <g class="st0">
      <path class="st1" d="M1311.1,395.2c14,0,27.5,3,41.1,3.4h2.5c6.4,0,12.7-1.3,19.1-1.3h8.5c8.1,0,16.5-.4,24.6-.4s14,.4,20.8,1.3c12.7,1.7,26.7,0,33.1,14.4.8,2.1,1.3,4.2,1.3,6.4s0,2.1-.4,3.4c-1.3,3.8-4.2,8.5-8.9,9.3h-.8c-2.5,0-5.1-1.3-7.6-1.3h-5.5c-9.7,0-19.5-1.3-29.2-2.5-2.5-.4-4.7-.4-6.8-.4-12.7,0-14.4,5.5-14.8,11.4-.4,3.8-.4,8.9-.8,12.7v4.2c0,14.4,3.4,27.5,4.2,42v3.8c0,7.6-.8,14.8-1.3,22.5v2.5c0,6.4,1.3,12.7,1.3,19.1v2.1c-.4,12.7-1.7,25-1.7,37.7s.4,10.2.8,15.3v15.7c0,5.5,1.3,11.4,1.3,17.4v2.1c-.8,9.3-8.9,19.5-18.6,20.8h-1.7c-10.6,0-15.3-12.3-16.1-20.8v-19.5c0-11.4,0-20.3-.4-32.2,0-6.4,1.7-12.7,1.7-19.5s-.4-14.8-.4-20.8c-.4-7.2-.8-12.3-.8-19.9s.8-10.6.8-15.7-.4-3-.4-4.7c-.8-10.6-3.4-18.6-3.4-28.8v-3.8c.4-3,.4-6.4.4-9.3,0-5.9-.4-12.3-.4-18.6v-2.1c0-3.4-.4-7.2-3.4-8.9-3-2.1-7.2-1.3-10.6-1.7-3-.4-6.4-1.3-9.3-1.3h-1.3c-.8.4-1.7.4-2.5.4-2.5,0-5.1-.8-8.1-.8s-3,.4-4.7.4c-3,0-5.9-.4-9.3-1.7-7.2-2.5-11.4,1.3-17.8-4.7-3-3-4.7-5.9-4.7-9.3,0-7.6,7.6-15.3,15.7-17,4.7-.8,9.7-1.3,14.8-1.3Z"/>
      <path class="st1" d="M1517.1,452.4c3.4,0,6.4.4,9.3,1.3,7.6,2.1,16.1,3.4,23.7,7.6,3.8,2.5,7.6,5.9,11,8.9,7.6,6.4,15.7,14.8,18.6,24.6,2.1,5.5,2.1,11,2.5,17,.4,5.1.4,9.7.4,14.4,0,14.4-1.3,29.2-1.3,43.6s.4,6.8.4,10.2c.8,8.5,1.3,17,1.3,25.4s1.3,12.7,1.3,19.1c.8,6.4,3,14,3.8,19.5,0,.8.4,2.1.4,3,0,6.8-3.8,13.6-10.6,15.3-1.3.4-3,.4-4.2.4-8.9,0-16.5-6.4-18.6-14-1.3-3.8-.8-11-5.9-11h-.8c-3.8.8-7.6,3.4-11,4.7-9.3,3.8-19.9,8.9-30.1,8.9h-2.1c-12.3-.8-28.4-3.8-37.3-12.7-4.7-5.1-6.8-11.9-8.9-17.8-3.4-8.5-5.5-18.2-5.5-27.5s3.4-22.5,12.7-30.9c17.8-16.5,42.8-24.2,65.7-27.5,2.5-.4,5.1-.4,8.1-.4s5.9,0,8.5-.8c4.7-1.7,5.9-5.5,5.9-9.7s-.4-5.1-.8-7.6c-2.5-12.7-11-21.6-22.9-26.7-8.1-3.4-17.4-4.7-26.3-4.7s-14.4.8-20.8,2.5c-7.2,2.1-17,9.7-25.4,9.7s-7.6-1.7-10.6-7.2c-1.3-2.1-1.7-4.2-1.7-5.9,0-6.8,6.8-11.4,12.7-14.8,10.2-6.4,17-9.7,29.2-11.9,9.3-1.7,19.5-4.7,29.2-4.7ZM1494.2,572.8c-3.8,1.7-8.9,8.1-11.4,11.9-1.3,3-1.3,6.4-1.3,9.3,0,9.3,2.5,20.3,11,25,4.2,2.5,8.9,3.4,14,3.4s8.1-.4,11.9-1.3c10.2-1.7,25.4-5.5,32.2-14.4,3.4-4.2,3.8-11.4,3.8-18.6s-.4-10.2-.4-13.6-.4-8.1-3.4-10.2c-2.1-1.3-5.1-1.7-7.6-1.7s-5.5.4-8.1.4h-1.7c-2.5,0-5.1-.4-7.6-.4h-2.1c-10.2,2.1-19.9,5.5-29.2,10.2Z"/>
      <path class="st1" d="M1734.9,462.2c2.1,2.5,3.4,5.9,3.4,9.3s-1.7,9.7-3.8,12.7c-3.8,4.2-7.2,3.4-11.4,4.7-4.2,1.3-10.2.8-17.4,2.1-4.2,1.3-8.9,2.5-13.1,4.7-8.1,4.2-11.4,5.9-13.1,15.3-.4,2.1-.4,4.7-.4,8.1,0,11.4,1.3,28,1.7,34.7,0,3.8-.8,7.6-1.3,11.4,0,4.7,1.3,8.9,1.3,14v16.1c0,5.9,0,12.3.4,16.1.4,4.7.8,11.9.8,17.4v3.4c-.4,11-2.5,23.3-16.1,26.3-1.3.4-2.1.4-3,.4-5.1,0-7.6-3.8-8.9-9.7-2.1-10.2-4.2-20.8-4.7-30.9-1.7-21.6-1.7-52.1-2.1-74.2,0-7.2.8-22,.8-33.5s-.4-7.2-.4-9.7c-.4-11.4-1.3-22-1.3-33.5v-7.6c0-3.4,0-6.4,1.3-9.3,2.1-3.8,8.9-6.8,15.3-6.8s5.9.4,8.5,2.1c4.2,2.5,6.4,7.2,6.8,11.4.4,2.1,0,7.2,2.5,8.1.8.4,1.7.4,2.5.4,3.4,0,8.1-2.1,10.6-2.5,11.9-1.7,18.2-7.2,26.3-7.2s2.5,0,3.8.4c6.4,1.3,8.9,3.4,11,5.9Z"/>
      <path class="st1" d="M1816.3,452.4c3.4,0,6.4.4,9.3,1.3,7.6,2.1,16.1,3.4,23.7,7.6,3.8,2.5,7.6,5.9,11,8.9,7.6,6.4,15.7,14.8,18.6,24.6,2.1,5.5,2.1,11,2.5,17,.4,5.1.4,9.7.4,14.4,0,14.4-1.3,29.2-1.3,43.6s.4,6.8.4,10.2c.8,8.5,1.3,17,1.3,25.4s1.3,12.7,1.3,19.1c.8,6.4,3,14,3.8,19.5,0,.8.4,2.1.4,3,0,6.8-3.8,13.6-10.6,15.3-1.3.4-3,.4-4.2.4-8.9,0-16.5-6.4-18.6-14-1.3-3.8-.8-11-5.9-11h-.8c-3.8.8-7.6,3.4-11,4.7-9.3,3.8-19.9,8.9-30.1,8.9h-2.1c-12.3-.8-28.4-3.8-37.3-12.7-4.7-5.1-6.8-11.9-8.9-17.8-3.4-8.5-5.5-18.2-5.5-27.5s3.4-22.5,12.7-30.9c17.8-16.5,42.8-24.2,65.7-27.5,2.5-.4,5.1-.4,8.1-.4s5.9,0,8.5-.8c4.7-1.7,5.9-5.5,5.9-9.7s-.4-5.1-.8-7.6c-2.5-12.7-11-21.6-22.9-26.7-8.1-3.4-17.4-4.7-26.3-4.7s-14.4.8-20.8,2.5c-7.2,2.1-17,9.7-25.4,9.7s-7.6-1.7-10.6-7.2c-1.3-2.1-1.7-4.2-1.7-5.9,0-6.8,6.8-11.4,12.7-14.8,10.2-6.4,17-9.7,29.2-11.9,9.3-1.7,19.5-4.7,29.2-4.7ZM1793.4,572.8c-3.8,1.7-8.9,8.1-11.4,11.9-1.3,3-1.3,6.4-1.3,9.3,0,9.3,2.5,20.3,11,25,4.2,2.5,8.9,3.4,14,3.4s8.1-.4,11.9-1.3c10.2-1.7,25.4-5.5,32.2-14.4,3.4-4.2,3.8-11.4,3.8-18.6s-.4-10.2-.4-13.6-.4-8.1-3.4-10.2c-2.1-1.3-5.1-1.7-7.6-1.7s-5.5.4-8.1.4h-1.7c-2.5,0-5.1-.4-7.6-.4h-2.1c-10.2,2.1-19.9,5.5-29.2,10.2Z"/>
      <path class="st1" d="M2138.3,431.7c-2.1.4-4.2.4-6.4.4h-10.2c-9.7,1.3-14.4,1.7-24.2,2.1-8.1,0-14.8,2.5-22.5,3.8-4.7.8-11,2.1-13.1,7.2-.8,2.1-1.3,4.7-1.3,7.2s.4,4.7.4,6.8c0,7.2.4,12.3.4,18.2s0,5.9-.4,9.7v5.9c0,3.8.4,8.1,3.4,9.7,2.5,1.3,6.4,1.7,9.7,1.7s4.7-.4,6.8-.4h2.1c4.7,0,9.3.8,14.4,1.3h12.3c2.1,0,4.7,0,7.6.4,14.8.8,31.4-.8,35.2,17.8.4,1.7.8,3.8.8,5.9s-.4,3.4-.8,5.1c-1.7,5.1-6.4,6.4-11.9,6.4s-12.3-1.7-16.5-1.7c-12.3-.4-21.2-2.1-31.4-2.1s-7.6.4-12.3.8h-6.4c-1.3,0-2.1.4-3.4.8-1.7.8-4.7,1.3-6.4,2.5-2.1,1.7-2.5,7.6-2.5,13.6s.8,15.3.8,18.2c0,6.8-1.3,13.6-1.7,20.8,0,5.1,1.3,10.2,1.3,15.3-.4,7.6-.4,23.7-1.7,30.9-1.7,8.9-7.2,18.6-18.2,19.5h-.8c-6.4,0-12.3-5.1-14-11-.4-1.3-.4-3-.4-4.2,0-3.4.4-6.4.8-9.7.4-3,.4-7.2.4-11.4,0-8.9-.4-18.6-.4-25,0-11,1.3-21.2,1.3-32.2v-4.2c0-15.3-1.3-30.5-1.3-45.8v-5.9c.4-10.2,1.3-20.8,1.3-30.9v-30.9c0-8.9,1.3-17.4,2.5-26.7.4-4.7-.4-9.3,2.1-13.6,3-5.5,8.5-8.5,14-8.5s4.2.4,6.4,1.3c3.8,1.3,7.2,4.7,11,5.1h.8c5.5,0,12.3-3,17.4-3.4,17.8-2.1,28.4-2.5,46.2-3.4,5.9,0,11,.8,17,.8h3c3,0,9.7,5.1,9.7,15.3s-.4,5.9-1.7,9.7c-2.1,6.8-8.1,5.9-19.5,6.8Z"/>
      <path class="st1" d="M2213.3,370.6h2.1c9.3.8,11.9,6.8,11.9,14s-3.8,19.9-4.7,27.1c0,3.8-.8,10.2-.8,13.6-.8,8.9-.8,15.3-.8,24.2,0,16.1,1.7,32.6,2.5,49.2,0,3,.4,5.5.4,8.5,0,11.4-1.3,23.3-1.3,34.7s.8,6.4.8,9.7v3.8c0,7.6-.8,15.3-.8,22.5v21.2c-.4,3-.4,5.9-.4,8.5v8.1c0,3.8-1.3,7.6-1.3,11.4s.4,10.2.4,14.4v2.5c-.4,2.5-3,5.1-4.2,7.2-3.4,5.1-5.5,3.4-11.4,5.1-1.7.4-3.4.8-5.1.8-6.4,0-11-4.2-12.7-11.4-.4-1.7-.4-3.4-.4-5.1,0-4.7.8-8.9,1.3-13.1.8-8.1,1.3-16.1,1.7-23.7.8-15.7.8-30.9.8-46.2s.8-33.9.8-50.4-.4-11-.4-16.5c-.4-15.3-1.3-30.1-1.3-44.9s0-13.1.4-19.5c.4-6.8,1.7-14,2.1-20.8.8-12.3.4-29.2,15.7-34.3,1.7-.4,3-.4,4.7-.4Z"/>
      <path class="st1" d="M2263.8,454.5c4.7,0,8.5.8,12.7,3s6.8,3.4,8.1,6.8c1.7,5.5,4.7,14.4,7.6,19.9,3.4,7.6,5.5,12.7,9.3,19.9,5.9,11,9.3,23.3,14.8,34.7,3.8,7.2,4.7,13.6,8.9,20.8,3.8,7.6,8.9,14,13.1,21.2,1.3,2.1,3,7.2,5.5,8.5h.8c2.5,0,3.8-4.2,4.7-5.9,3.4-8.1,7.2-16.5,9.7-25,4.7-14.8,11.4-28.4,16.1-43.2,4.2-14.4,7.6-28.4,13.6-42,3.8-7.6,12.7-15.3,21.6-15.3s6.8.8,9.7,3.4c3,2.5,4.2,5.5,4.2,8.5,0,6.4-5.1,13.6-7.6,18.6-5.1,9.7-5.5,22-8.9,32.2-3.4,10.6-9.3,19.5-13.1,29.2-2.5,5.9-3,12.3-4.2,18.2-2.1,8.5-5.5,17-8.5,25-6.8,19.1-15.7,36.9-25.4,54.7-5.9,11-9.7,22.9-17.8,33.5-7.6,10.6-15.3,21.6-25,30.1-8.9,7.2-19.9,13.1-30.1,18.6-12.7,7.2-30.1,10.6-44.5,11.4-3.8,0-8.1,0-11.4-2.5-4.2-3-5.9-7.6-5.9-12.3s1.7-9.7,5.1-12.7c10.2-9.7,28-6.8,40.3-12.3,7.2-3.4,13.6-6.8,19.9-11.4,3.8-2.5,8.1-4.2,11.9-7.6,12.3-11,15.3-16.5,22.5-31.8,2.5-5.1,6.8-9.7,8.1-15.3.4-1.3.4-2.5.4-3.8,0-6.8-3.4-14.4-6.8-17.8-4.7-3.8-6.8-9.7-9.3-14.8-8.1-16.5-18.2-31.8-27.1-47.9-5.5-10.2-8.9-21.6-14.4-31.8-3.8-6.8-8.5-12.7-11.9-19.5-1.3-2.5-2.1-4.7-3.8-6.8-4.2-5.9-11.4-17-11.4-25.9s2.5-9.3,9.3-11.4c3-.8,6.4-1.3,9.3-1.3Z"/>
      <path class="st1" d="M2543,457.5c8.1,0,15.7,1.3,23.3,3.8,10.2,4.2,22,8.5,29.7,17,11.9,15.3,16.1,33.1,16.1,51.3v59.8c.4,8.1,1.7,17,1.7,25-.4,3.8-.4,6.4-.4,9.3s0,4.7.4,7.2v5.5c0,10.2-2.5,18.2-14,20.3-1.3,0-2.1.4-3.4.4-8.1,0-14.8-4.2-16.1-13.1-.4-2.5-.4-5.1-.4-8.1,0-5.5.4-11.9.4-17.8s0-5.5-.4-8.5c-1.3-8.9-1.3-17.4-1.3-25.4s.4-21.6.4-32.6,0-10.2-.4-15.3c-.4-11.9.8-22.5-5.9-32.6-4.2-6.8-14-10.6-20.8-13.6-5.5-1.7-11-3-17-3s-11.4,1.3-16.5,3.4c-5.9,2.5-10.6,6.4-16.1,9.7-8.1,4.7-11.4,9.3-14,18.2-.8,3.8-1.3,7.6-1.3,11.9,0,7.2.8,14.4,1.3,20.8,0,9.7-2.1,14.8-2.1,24.6s1.3,19.5,1.3,29.2v3.8c-.4,2.5-.4,4.7-.4,6.8,0,6.4.8,11.4.8,17.4s0,5.5-.4,8.5c-.4,6.4-9.7,13.6-16.5,15.3-.8.4-1.3.4-2.1.4-4.7,0-8.5-4.7-10.6-8.5-3.4-7.2-4.2-17-4.2-25.8s0-7.6.4-11v-3.4c0-6.8-.8-13.6-.8-19.9v-8.5c0-10.2.8-16.5.8-28v-9.3c0-12.3-.4-24.2-.4-36.9.4-6.4.4-12.7.4-19.1v-7.6c0-3-.8-5.5-.8-8.5s.4-3.8,1.3-5.5c2.5-5.5,10.6-10.2,17.4-10.2s3.4,0,5.1.8c5.5,2.5,5.9,8.5,5.9,13.6v4.2c0,1.7.4,3,2.1,3.4.4,0,.8.4,1.3.4,1.7,0,3.8-1.7,4.7-2.5,5.9-2.5,8.1-5.5,13.1-8.9,10.6-5.9,23.3-7.6,35.2-8.5h3.4Z"/>
      <path class="st1" d="M2752,457.5c8.1,0,15.7,1.3,23.3,3.8,10.2,4.2,22,8.5,29.7,17,11.9,15.3,16.1,33.1,16.1,51.3v59.8c.4,8.1,1.7,17,1.7,25-.4,3.8-.4,6.4-.4,9.3s0,4.7.4,7.2v5.5c0,10.2-2.5,18.2-14,20.3-1.3,0-2.1.4-3.4.4-8.1,0-14.8-4.2-16.1-13.1-.4-2.5-.4-5.1-.4-8.1,0-5.5.4-11.9.4-17.8s0-5.5-.4-8.5c-1.3-8.9-1.3-17.4-1.3-25.4s.4-21.6.4-32.6,0-10.2-.4-15.3c-.4-11.9.8-22.5-5.9-32.6-4.2-6.8-14-10.6-20.8-13.6-5.5-1.7-11-3-17-3s-11.4,1.3-16.5,3.4c-5.9,2.5-10.6,6.4-16.1,9.7-8.1,4.7-11.4,9.3-14,18.2-.8,3.8-1.3,7.6-1.3,11.9,0,7.2.8,14.4,1.3,20.8,0,9.7-2.1,14.8-2.1,24.6s1.3,19.5,1.3,29.2v3.8c-.4,2.5-.4,4.7-.4,6.8,0,6.4.8,11.4.8,17.4s0,5.5-.4,8.5c-.4,6.4-9.7,13.6-16.5,15.3-.8.4-1.3.4-2.1.4-4.7,0-8.5-4.7-10.6-8.5-3.4-7.2-4.2-17-4.2-25.8s0-7.6.4-11v-3.4c0-6.8-.8-13.6-.8-19.9v-8.5c0-10.2.8-16.5.8-28v-9.3c0-12.3-.4-24.2-.4-36.9.4-6.4.4-12.7.4-19.1v-7.6c0-3-.8-5.5-.8-8.5s.4-3.8,1.3-5.5c2.5-5.5,10.6-10.2,17.4-10.2s3.4,0,5.1.8c5.5,2.5,5.9,8.5,5.9,13.6v4.2c0,1.7.4,3,2.1,3.4.4,0,.8.4,1.3.4,1.7,0,3.8-1.7,4.7-2.5,5.9-2.5,8.1-5.5,13.1-8.9,10.6-5.9,23.3-7.6,35.2-8.5h3.4Z"/>
    </g>
  </g>
</svg>