<?xml version="1.0" encoding="UTF-8"?>
<svg id="Layer_1" xmlns="http://www.w3.org/2000/svg" version="1.1" viewBox="0 0 2806.3 1314.7">
  <!-- Generator: Adobe Illustrator 29.0.1, SVG Export Plug-In . SVG Version: 2.1.0 Build 192)  -->
  <defs>
    <style>
      .st0 {
        fill: #784d6c;
      }
    </style>
  </defs>
  <g>
    <path class="st0" d="M1158.2,274.2c3,1.7,5.4,3.4,6.7,6.7v7.2c-4.3,8.9-9.1,17.6-13.8,26.2-134.5,243.5-275.6,483.4-416.7,723.1l-3.9,3.1h-6.7l-3.9-2.6c-125.3-219.1-249.8-438.7-379.3-655.4-17.1-28.5-33.7-57.7-51.5-85.7-.5-.7-.8-1.6-1.6-2v-6.2l4.6-5.2c4.8-3.3,20.9-3.2,27.3-3.5,274.1-12.1,548,9,821.8-4.8,2.9-.1,6.4.7,8.9-1h8.2ZM1150.5,287.7c-6.6.2-13.3.2-19.9.5-16,.6-32,1.4-48,1.9-245.2,8.1-490.7-8.6-735.8,2l-44.4,1.9c96,159.8,190.3,320.6,282.7,482.5.9.8,4.5,1,6,1.2,61.4,6.9,120.4-44.1,114.5-107.2-1.1-12.1-7.4-38.9-18.1-45.7-11.2-7.2-26.8-8.1-38.4-1.6s-12.2,9.5-16.5,10.9-2.2-.7-1.2-2.2c2.2-3.4,8.9-11.3,12-13.9,13.1-11.1,31.7-6.2,47.3-5.7.2-.8-.3-1-.7-1.5-1.5-1.7-5.8-4.3-7.9-5.5-10.5-6.1-26.4-13.4-37.8-18.4-4.2-1.9-8.5-3.7-13-4.7-12.2-2.9-25.1-1.9-37.3-4-1.6-2.2,5.9-3.3,7.5-3.6,16.2-3.7,30.2-2.9,45.7,2.8,10.2,3.7,23.7,9,33.3,13.7,14,6.9,19.6,15.9,27.1,29,22.8,39.9,29.9,87.5,12.1,130.8-18,44-59.4,71.2-106.3,75.4l5.3,8.9c1,.6,10.1-1.5,12-1.9,53.1-11.9,92.1-42.6,102.6-98,12.3-65.1-18.1-121-58.7-168.5-7.1-8.3-10.2-16.1-15.9-24.9-15.7-24.4-53.5-40.3-77.9-56-2.5-1.6-5.4-3.2-7.2-5.5,4.2.2,8.2,2.1,12.1,3.5,23,8.3,61.6,27.1,77.1,45.7,7.6,9,13.2,19.7,20.7,28.8,7.6,9.2,15.9,15.6,22.1,26.3,3.9,6.7,6.2,14.1,9.6,21.1,3.5,7.2,8.1,13.8,11.7,20.9,43.5,85.5,8.6,191.9-89.4,213.9-4.6,1-9.3,1.7-14,2.6l3,6.2h.6c37.1-2.1,70.5-17.8,93.6-47,32.1-40.7,36.8-98,23.2-146.9-2.9-10.4-7.1-20.3-10.1-30.7-5-17.7-1.6-33-1.3-51s3.9-41.3-3.1-58.8c-4.9-12.2-15.2-22.2-26.2-29l-25.9-14.7c15.4,1.5,31.2,6.4,42.7,17,8.8,8,13.4,19,20.1,28.6,4.5-28.7,15.9-58.4,34.6-80.8,3-3.6,6.5-7.9,11-9.4.5.5-2.7,6.5-3.3,7.5-6.3,12-14.3,23-19.8,35.3-13.1,29.2-13.9,61.6-13.4,93.2l2.2,40c17.5-22.3,33.9-47.3,55.7-65.7,14.7-12.4,32.7-21,44.9-36.3,10.9-13.7,13.4-28.1,18.6-44.3l2-4.9c.8,18.4-1.4,37.6-10.8,53.7-9.3,15.8-25.7,25-39.3,36.5-11.4,9.6-21.7,23.2-30.4,35.3-1.2,1.6-8.6,11.6-7.8,12.6,22.1-9.4,48.9-12,71.2-1.9,12.3,5.6,22.7,15.1,30.1,26.3-7.5-2.1-13.9-6.9-20.9-10-51.8-23-110.4-4.9-105.3,59.7,2.2,28.3,16.1,76.6,40.2,93.7s37.2,17.8,55.6,18.8c3,.2,15.4.5,17.6-.2.6-.2,1-.5,1.3-1.1,93.6-161.6,187-323.3,276.6-487.2ZM598.6,800c49.2,1.8,96-32.2,115.2-76.4,9.3-21.4,8.2-34.5,2.7-56.6-1.4-5.6-3-11.3-4.9-16.7,0,6.3,2,12.7,2.6,19,3.7,40.1-9.3,73.2-42.7,95.9-23.1,15.7-50.9,25.6-79.2,22.8l6.3,11.9ZM761.7,740.6l-2.7.5c-9.3,51.4-49.7,99.7-101.9,110.7-8.9,1.9-17.9,3-27,3.5l5.4,9.5c23.8-3.3,47.8-13.1,68.4-25.3,14.9-8.8,23.4-16.4,33.2-30.6,13.4-19.6,24.6-44.2,24.6-68.3ZM604.3,809.2l4.8,8.9c37.3-2.6,78.2-23.3,98.1-55.5s8.8-16,8.4-19.3-1.2-3-2.7-1.8c-9.7,15.1-19.6,28.4-33.9,39.6-21.3,16.6-47.9,26.4-74.8,28.1ZM652.3,893.7l7.9,14.4c1,1,2.8-.3,4.1-.7,17.5-6.7,38.5-18.1,54.2-28.3,26-16.9,44.7-34,57.7-62.7,9.4-20.7,8.5-31.1,1.4-52.4-.6-1.8-2.8-8.9-4.2-9.3l-1.4.4c-1.4,2.1,3.4,16.9,4,20.5,2.1,14.3-7,36.4-14.2,48.9-22.9,39.8-64.8,62.7-109.5,69.3ZM854.4,807.8c-20.6-3.2-41.1-14.2-55.4-29.3-1.8-1.9-6.1-8.1-7.6-9.2s-1.9-.5-2.5.5c-.6,1.3,3,7.1,3.9,8.6,9.6,14.9,28.3,27.4,44.7,33.5,2,.7,11.8,4.2,13,3.4l3.9-7.6ZM865.4,789.1c-17.3.4-34.1-4.1-49.8-11-1.8-.8-6.3-3.6-7.7-3.8s-2,1.7-1.5,2.7,3.1,2.7,3.7,3.2c13.3,11.5,32.3,17.6,49.6,19l5.6-10.1ZM642.2,876l5.6,9.5c32.8-7,66.4-17.6,89.5-43.3,13-14.5,27.1-40.4,28.7-60.1.2-2.4.9-9.2-2.8-6.1-5.4,14.3-10.8,27.6-20,40-17.6,23.5-38.6,39-66.2,49s-23.1,7.7-34.8,11ZM845.2,823.6c-15.5-4.1-31.4-11.2-43.2-22.3-3-2.8-5.2-6.5-8.4-8.7-2.1-.2-2.5,8-2.1,9.6s7.3,8.4,8.9,9.9c11,10,24.7,17.1,38.8,21.5l6.1-10ZM788.1,812.6c-.7,2.4-4.7,7.5-4.3,9.7.4,1.8,8,8.9,9.8,10.4,8.8,7.4,20.9,13.5,32.3,15.2,1.7.3,4.2,1,5.4,0,.4-.4,2.8-4.3,1.9-4.8-15.7-4-31.2-11.5-40.9-24.8-.7-.9-3.2-6.3-4.2-5.6ZM825.6,857.7c-3.5-.6-7.1-.9-10.6-1.7-12.6-2.9-23.5-13.9-34.6-20.1s-3.3-2.4-4.8-1-4.7,7.4-4.7,7.8-.1.7.2,1.1c4.8,3.6,9.2,8.6,14.5,11.4s13.8,4.9,20.3,8.1c1.6.8,3,2.2,4.7,3,1.2.6,6.3,2.8,7.3,2.9s.8,0,1.3-.4c2-1.8,4.4-8.7,6.5-11ZM812.6,878.9l-29.1-13.9-19.2-12.5c-.6-.2-.9,0-1.3.4-2.6,1.7-5.4,7-8.4,8.9,9.7,4.9,18.8,11.6,28.3,16.8,4.7,2.6,18.3,9.6,22.9,10.7s1.1.3,1.5,0c.3-1.8,6.1-9.4,5.3-10.5ZM668.1,922l5.1,8.6c13-7.9,26.1-16,38.8-24.4,9.6-6.4,22-13.7,29.5-22.3,1.9-2.2,7.3-8.6,8.4-10.8s.3-.6,0-.9l-3.6-2.7c-24,20.3-49.9,38.7-78.2,52.6ZM758.6,878.4l-7,8.4c4.7,3.2,37.3,30,39.8,28.8,1.8-3.1,4.6-6.7,6-9.9s.9-1.2.5-1.9c-13.2-8.5-27.4-15.3-39.4-25.4ZM683.6,948c-.4.7,2,5,2.6,5.7s.6.6,1.2.3c9.1-5.4,18.4-10.6,27.3-16.4,8.9-5.7,20.1-12.6,26.4-21.2,2.2-3,8.2-13.5,8.6-16.8.3-2.1-3.4-4.2-5.2-4.9,0,.4-.2.9-.5,1.2-7.6,8-15.1,17.5-23.5,24.5-5.5,4.5-12.3,8.1-18.2,12.5-6.4,4.8-12.3,10.3-18.7,15.1ZM753.1,919.6l27.1,14.8,6-9.3-25.8-16c-.7,0-1,.5-1.3.9-2.1,2.7-4,6.7-6,9.6ZM742.5,934c-.4,2.2-3.8,4.6-4.6,6.2s-.4.9,0,1.4c7.1,5.7,14,11.8,21.4,17s4.4,3.5,5.2,3l5.1-8.9-27.1-18.7ZM759.8,969.5c-1.3,0-2.3-.4-3.4-1.2-6-4.2-13.4-14.2-19.4-19.5-.6-.5-3.4-2.9-3.8-2.8l-5.8,5.3-31.9,18.9,5,8.4c8.3-4.3,16.3-9.5,24.7-13.6,6.4-3.2,8.7-5.4,15.1-.2s12.7,13.4,13.9,13.5c.7,0,.8-.4,1.1-.8,1.6-2.2,3-5.5,4.4-7.8Z"/>
    <path class="st0" d="M829.9,338.3c1.5-.7,3.2,0,3.7,1.6,1.4,4.1,3.3,8.2,3.8,12.4,2.1,17.6-7.2,40.7-22.3,50.4-2.4,1.5-8.6,5.5-10.9,6.4s-.8.5-1.4.3c-2-.5-6.6-12.4-7.3-14.8-7.2-26.2,12.3-46.3,34.3-56.3Z"/>
    <path class="st0" d="M970.3,456.6c12.8-.7,28.8,7.5,37,17.2,1.7,2,3.1,3.2,1.5,5.9s-13.2,6.5-17.1,7.3c-5.1,1.1-11.1,2.2-16.3,1.3-10-1.7-18.5-11.8-23.3-20.7s-.5-2.5.4-3.5c4.6-4.8,11.2-7.2,17.8-7.6Z"/>
    <path class="st0" d="M620.6,396c-2.9-.3-7.8-1.8-10.6-2.9-23.6-8.7-29.1-34.8-30.8-57.4-.1-1.4,1.1-2.5,2.5-2.3,21.6,3,39.9,21.5,45.2,42.3.4,1.5,1.6,5.9,1.6,7.1v12.5l-.7.7c-2.3-.2-4.9.2-7.2,0Z"/>
    <path class="st0" d="M616.1,432.6c3.3-.8,8.9,0,13.4.5,19.7,2.6,40.7,18.3,41.4,39.3,0,1.4-.9,2.8-2.2,3.2-17.1,5.9-41.4-2.4-50.6-17.7-4.3-7.2-9-16-7.4-21.4.5-1.6,3.8-3.6,5.4-4Z"/>
    <path class="st0" d="M862.1,360.6c.8-.6,7.1,5.8,7.9,6.7,15,17.6,20.1,55.5.9,71.9-8.4-5.8-16.6-18.7-19.4-28.5-4.6-16,2.1-36.4,10.6-50.1Z"/>
    <path class="st0" d="M839.9,476.7c.2,1.4-.9,2.7-2.3,2.8-8.7.3-18-1.6-25.6-5.8-11.6-6.5-24.1-25.3-20.9-39,.4-1.7.9-1.7,2.6-1.7,4.6,0,12.3,1,16.8,2.2,19.5,5,27.2,23.4,29.5,41.7Z"/>
    <path class="st0" d="M984.9,368.3c-1.4.3-2.6.5-4.1.3s-9.4,1.4-10.5-1.4c-1-2.7-.9-12.8-.7-16.1.9-15,4.3-28.9,20.1-33.8,18-5.5,22.1,4.8,21.7,21-.3,13.7-13.3,27.6-26.6,29.9Z"/>
    <path class="st0" d="M717.1,367.6c3.3-.7,6.3.7,9.5.9,4.5.3,8.3-.3,12.8.6,15.2,2.9,25.6,16.9,30.9,30.6.5,1.4,2.6,6.8,2,7.7-1.2.6-2.7.6-3.9.9-8.9,1.5-22.8,2.6-31.3-.3-10-3.4-17.9-15.1-21.6-24.5-1.6-4.2-5.1-14.5,1.7-15.8Z"/>
    <path class="st0" d="M502.4,376.8c-2.8,2.3-7.8-2.2-10.6-3.3-10.9-4.5-21.3-5.2-29.4-15.3s-8.9-31.4,7.7-31.7c18.2-.3,31.4,13.1,33.8,30.5.5,4,1.6,17.1-1.5,19.7Z"/>
    <path class="st0" d="M663,362.3c.9-1,2.4-1.3,3.6-.6,6.9,4,10.2,11,11.9,18.8,2.1,9.8,3.7,23.7-.2,33-2.4,5.7-6,8.7-10.9,11.7-.9.5-2,.6-2.9,0-5.7-3.3-11.6-7.1-14.9-12.8-9.7-16.7,2.2-37.1,13.5-50.2Z"/>
    <path class="st0" d="M911.1,418.3c-1.5.2-2.9-.6-3.4-1.9-3.5-8.9-2.2-20.1,1.4-28.8,4.9-12,18.1-20,29.9-24.4,3.8-1.4,6.8-2.9,7.2,2.4.6,8.1.5,21.7-1.8,29.4-4.7,15.6-18.5,21-33.2,23.3Z"/>
    <path class="st0" d="M433.7,407.3c.2-.6.7-1.2,1.3-1.4,14.6-6.6,29.5-15.6,46.1-10.1,6.9,2.3,13.5,7.3,17.3,13.6.5.8.5,1.9-.1,2.7-7.4,9.3-17.3,17-30,15.8-6.4-.6-27.1-6.9-32.1-10.6-4.4-3.2-3.8-5.4-2.4-9.8Z"/>
    <path class="st0" d="M954.6,519.8c-.9.9-5.1,1.7-6.5,1.9-23,3.7-35.8-.9-56-10.5-4.5-2.1-9.2-4.4-13.2-7.6-1.1-.9-1.1-2.6,0-3.4,18.2-13.8,48.4-9.3,65.6,4.1,4.2,3.3,7.7,8.2,10,13s.6,1.7,0,2.4Z"/>
    <path class="st0" d="M548.1,426.8c-11.6-2.3-22-4.1-25.6-16.9-2.8-10.3-1.3-33.9,3.7-43.6,2.1-3.9,2.4-3.2,6-1.2,16.5,8.9,27.8,36,19.4,53.5-1.3,2.7-4.1,5-3.6,8.2Z"/>
    <path class="st0" d="M869.2,624c15.4.3,30.9,7.1,40.2,19.5,5.5,7.3,10.3,17.4,9.2,26.8-.2,2-2,2.2-3.8,2.5-7.4,1.1-20-.8-26-5.4-6.1-4.7-19.7-25.6-19.7-33.1v-10.3Z"/>
    <path class="st0" d="M795.2,497.5c2-.2,14.7-.5,15.5,0l.4.6c1.1,19.3-11.3,34.7-30.5,37.5-4.3.6-21.3,1.5-23.7-2.5s-.6-2.5-.3-3.8,3.9-8.8,4.8-10.6c7-14.2,18.3-20,33.9-21.3Z"/>
    <path class="st0" d="M959.7,404.1c-.1-.1-.3-.3-.5-.4-1.3-1.2-1.2-3.3.2-4.3,16-11.9,34.1-18,54.3-13,27.3,6.8.6,22.3-11.7,26.6-19.5,6.7-27.5,4-42.3-8.8Z"/>
    <path class="st0" d="M590.6,411.5c5.7,11.3,9.3,27.4,2.5,39-2.7,4.7-13,14.6-17.4,18.6-2.6,2.4-6.1,4-8.3.2s-4.4-26-3.9-31.6c1.4-14,15.7-21.2,27.1-26.1Z"/>
    <path class="st0" d="M922.9,436.5c5.2-.4,11.9-.4,16.9,1.1,4.1,1.2,8,3.9,6.3,8.7-1.7,4.7-16.5,16.9-21.4,18.5-7.3,2.3-30.9,3-37.2-1.3-5.9-4-.3-10,3.3-13.4,8.5-8,20.5-12.6,32.1-13.5Z"/>
    <path class="st0" d="M950,576.3c1.2.7,1.6,2.4.8,3.6-2.6,4-8.7,11.4-9.9,12.6-12.6,11.7-24.5,6.7-37.4-1s-7.5-4.5-8-5c-1.8-1.9.5-4.6,1.7-6.5,11.8-18.5,29.6-16.8,47.1-7.2,2,1.1,3.8,2.4,5.7,3.5Z"/>
    <path class="st0" d="M502.4,441.3c10.5-1,23.6,1.6,32.7,7.9,2.5,1.7,3,5.2,1.2,7.5-1.1,1.4-2.3,2.8-3.7,4.1-9.9,8.4-32.4,12.7-43.8,5.9-4.3-2.6-12.1-7.9-12.1-12.2,0-1.2,2.7-3.3,3.1-3.7,5.2-4.9,15.7-8.8,22.7-9.5Z"/>
    <path class="st0" d="M889.4,553.7c1.2.6,1.1,2.4-.1,2.9-7.1,3.1-12.4,8.8-19.7,11.8-10.2,4.2-20.6,4.4-30.4-1-4.2-2.3-5.9-4.3-7.4-9,10.6-16.1,22.5-23.2,41.6-15.2s9.2,5.7,14.1,9.4c.3.2,1.1.6,1.9,1Z"/>
    <path class="st0" d="M781.4,363.8c-9.3.8-18.8,1.4-27.4-2.6s-9.5-8-13-13.9c-2-3.5-9.5-23.1-2.9-25.1.9-.3,1.7,0,2.5.3,6.4,1.7,26,9.3,30.3,13.5,6.7,6.4,6.2,12,8.2,20.2.6,2.5,2.2,4.9,2.3,7.6Z"/>
    <path class="st0" d="M696.7,434.8c8.8-10.6,23.3-13,36.4-12.4.6,0,1,.5.9,1.1-1.4,9.5-3.2,22.9-10.5,29.4-5.5,4.9-17,7.4-24.2,7.9-6.9.5-9.8.5-9.4-7.5.4-6.8,2.4-13.3,6.8-18.5Z"/>
    <path class="st0" d="M532.2,474c5.4-.7,14.3.3,19.4,2.4,8.5,3.5,5.2,9.1.6,14.3-9.9,11.4-22.5,18.4-37.8,12.8-3.2-1.2-10.1-5.2-9.5-9.2s8.2-9.9,9.9-11.3c4-3.3,12.3-8.3,17.4-9Z"/>
    <path class="st0" d="M806.8,659.5c-3.5-15.3,2.6-33.6,14.7-43.7s5.2-3.3,7.9-5.1,5.4-6,8.9-4c4.8,2.7,2.4,19.1,1,23.9-3.1,11.1-12.6,18.8-22.3,24.2-1.2.7-9.6,5-10.1,4.6Z"/>
    <path class="st0" d="M617.5,694.7c-14.7-13.9-9.1-40.2,5.5-52.4,1.4-1.2,3.5-1,4.7.5,6.2,7.8,7.1,19.4,6.3,29-.6,6.9-3.9,14.5-9.4,19-1.3,1-3.8,3-5.2,4s-1.4.4-1.9,0Z"/>
    <path class="st0" d="M570.1,493.2c2-1.2,4.7-.2,5.5,2,2.6,7.2,4.6,14.9,3.7,22.5-.8,7.2-10.2,17.7-16.5,21-3.5,1.8-6.9,3.1-9.2-1-3.4-6-3.4-19.3-1.2-25.7,2.8-7.9,10.3-14.5,17.7-18.8Z"/>
    <path class="st0" d="M541.1,558.3c-.3-1,.2-2,1.2-2.4,12.7-4.7,29.9-3.5,38.8,7.6,5.4,6.7,3.5,11.1-4.1,14.2-12.1,4.8-21.9.4-29.7-9.1-1.1-1.4-5.1-7.1-6.1-10.3Z"/>
    <path class="st0" d="M676.7,486.4c3.6-1,8.4,7.1,9.7,10.4,4.3,10.9-1.2,19.6-5.5,28.7s-1.9,1.2-2.6.2-.4-.6-.6-.8c-2.7-3.6-9.1-14.6-9.5-19-.5-4.7,4.2-18.2,8.6-19.5Z"/>
    <path class="st0" d="M556.2,623.4c-1.5-.2-2.7-1.3-3-2.8-.7-4.1.6-7.9,2.4-11.8,3.6-7.4,12.3-15.4,20.4-17.6,1.1-.3,5.6-1,8.6-1.2s3.4,1.2,3.6,3c.5,3.9-1,8.5-2.4,11.9-5,12.4-16.5,19.9-29.7,18.4Z"/>
    <path class="st0" d="M644.5,639.5c10.8-1.3,20.8,2,27.1,11,2.8,4,8.3,15.5,0,16.6-12.1,1.7-23.3-4.4-29.8-14.3-1.1-1.6-5.6-9.8-4.8-11.1s6.1-2.1,7.4-2.3Z"/>
    <path class="st0" d="M617.1,532.6c1.6-.7,3.4.2,3.9,1.8,4,12.6-4.2,28.7-18,30.1-6.6.7-6.9-2.5-6.4-8.3,1.1-11.4,10.5-19.4,20.5-23.6Z"/>
    <path class="st0" d="M605.6,618.9c6.9-.4,14.5,2.6,17.8,8.6s.3,3.9-1.4,4.8c-10.5,6-22.2,10.5-32.8,1.3-5-4.4-2.6-6,1.7-8.8,4-2.6,9.9-5.6,14.7-5.9Z"/>
    <path class="st0" d="M704.4,512.4c.4-.8,1.3-1.2,2.2-1,4.3,1,8.8,4.1,9.4,8.6.5,3.9-1.3,15.6-4.1,18.4-3.2,3.3-5.5.5-8.1-1.9-2-1.8-4.6-4.3-5-7-.9-6.2,2.7-11.9,5.6-17.1Z"/>
  </g>
  <g>
    <path class="st0" d="M1265,560c10.6,0,21,2.3,31.3,2.6h1.9c4.8,0,9.7-1,14.5-1h6.4c6.1,0,12.6-.3,18.7-.3s10.6.3,15.8,1c9.7,1.3,20.3,0,25.1,11,.6,1.6,1,3.2,1,4.8s0,1.6-.3,2.6c-1,2.9-3.2,6.4-6.8,7.1h-.6c-1.9,0-3.9-1-5.8-1h-4.2c-7.4,0-14.8-1-22.2-1.9-1.9-.3-3.5-.3-5.2-.3-9.7,0-11,4.2-11.3,8.7-.3,2.9-.3,6.8-.6,9.7v3.2c0,11,2.6,21,3.2,31.9v2.9c0,5.8-.6,11.3-1,17.1v1.9c0,4.8,1,9.7,1,14.5v1.6c-.3,9.7-1.3,19-1.3,28.7s.3,7.7.6,11.6v11.9c0,4.2,1,8.7,1,13.2v1.6c-.6,7.1-6.8,14.8-14.2,15.8h-1.3c-8.1,0-11.6-9.3-12.2-15.8v-14.8c0-8.7,0-15.5-.3-24.5,0-4.8,1.3-9.7,1.3-14.8s-.3-11.3-.3-15.8c-.3-5.5-.6-9.3-.6-15.1s.6-8.1.6-11.9-.3-2.3-.3-3.5c-.6-8.1-2.6-14.2-2.6-21.9v-2.9c.3-2.3.3-4.8.3-7.1,0-4.5-.3-9.3-.3-14.2v-1.6c0-2.6-.3-5.5-2.6-6.8-2.3-1.6-5.5-1-8.1-1.3-2.3-.3-4.8-1-7.1-1h-1c-.6.3-1.3.3-1.9.3-1.9,0-3.9-.6-6.1-.6s-2.3.3-3.5.3c-2.3,0-4.5-.3-7.1-1.3-5.5-1.9-8.7,1-13.5-3.5-2.3-2.3-3.5-4.5-3.5-7.1,0-5.8,5.8-11.6,11.9-12.9,3.5-.6,7.4-1,11.3-1Z"/>
    <path class="st0" d="M1431.3,603.5c2.6,0,4.8.3,7.1,1,5.8,1.6,12.2,2.6,18,5.8,2.9,1.9,5.8,4.5,8.4,6.8,5.8,4.8,11.9,11.3,14.2,18.7,1.6,4.2,1.6,8.4,1.9,12.9.3,3.9.3,7.4.3,11,0,11-1,22.2-1,33.2s.3,5.2.3,7.7c.6,6.4,1,12.9,1,19.3s1,9.7,1,14.5c.6,4.8,2.3,10.6,2.9,14.8,0,.6.3,1.6.3,2.3,0,5.2-2.9,10.3-8.1,11.6-1,.3-2.3.3-3.2.3-6.8,0-12.6-4.8-14.2-10.6-1-2.9-.6-8.4-4.5-8.4h-.6c-2.9.6-5.8,2.6-8.4,3.5-7.1,2.9-15.1,6.8-22.9,6.8h-1.6c-9.3-.6-21.6-2.9-28.4-9.7-3.5-3.9-5.2-9-6.8-13.5-2.6-6.4-4.2-13.9-4.2-21s2.6-17.1,9.7-23.5c13.5-12.6,32.6-18.4,50-21,1.9-.3,3.9-.3,6.1-.3s4.5,0,6.4-.6c3.5-1.3,4.5-4.2,4.5-7.4s-.3-3.9-.6-5.8c-1.9-9.7-8.4-16.4-17.4-20.3-6.1-2.6-13.2-3.5-20-3.5s-11,.6-15.8,1.9c-5.5,1.6-12.9,7.4-19.3,7.4s-5.8-1.3-8.1-5.5c-1-1.6-1.3-3.2-1.3-4.5,0-5.2,5.2-8.7,9.7-11.3,7.7-4.8,12.9-7.4,22.2-9,7.1-1.3,14.8-3.5,22.2-3.5ZM1413.9,695.1c-2.9,1.3-6.8,6.1-8.7,9-1,2.3-1,4.8-1,7.1,0,7.1,1.9,15.5,8.4,19,3.2,1.9,6.8,2.6,10.6,2.6s6.1-.3,9-1c7.7-1.3,19.3-4.2,24.5-11,2.6-3.2,2.9-8.7,2.9-14.2s-.3-7.7-.3-10.3-.3-6.1-2.6-7.7c-1.6-1-3.9-1.3-5.8-1.3s-4.2.3-6.1.3h-1.3c-1.9,0-3.9-.3-5.8-.3h-1.6c-7.7,1.6-15.1,4.2-22.2,7.7Z"/>
    <path class="st0" d="M1555.1,601.9c3.9,0,6.1,1.9,7.4,5.8,1.3,3.2,1,7.7,5.5,8.7h1.3c3.2,0,6.1-1.9,8.4-3.2,6.1-3.2,9.3-7.1,16.1-8.1,1,0,1.9-.3,2.9-.3,3.5,0,7.4,1,10,3.2,2.6,1.9,4.5,6.4,4.5,10.6s-.6,4.5-2.3,6.1c-2.6,1.9-5.5,2.3-8.4,3.2l-15.5,3.5c-11.6,4.8-17.1,10-19,22.9-.3,2.3-.3,4.2-.3,6.1v2.6c.3,3.9.3,7.7.3,11.6,0,6.4-1,12.9-1,19.3s0,9,.6,13.2c.6,7.1.3,17.4,1,24.5v2.3c0,9.3-3.2,24.8-14.8,25.8h-1c-6.4,0-9.7-3.2-10.3-9.3-.3-2.6-.3-5.2-.3-7.4v-6.8c0-1.9,0-4.2-.3-6.4-.6-4.2-.6-9.3-.6-14.8s0-13.5.3-18.4v-3.5c0-4.8-.3-10-.3-14.8-.3-9.3-1-18.7-1-27.7s.3-13.5,1.3-20.3c1.6-11-.6-27.7,14.5-28.4h1Z"/>
    <path class="st0" d="M1675,599.3c10.3,0,21.6,1.9,30,7.4,8.1,4.8,15.8,8.7,21,17.1,6.1,9.3,6.8,21.3,6.8,31.9s0,22.2-.6,30.9c-.6,7.4-1.6,15.1-1.6,22.6v6.8c0,3.2-.3,6.1-.3,9.3v1.9c.6,8.4,2.9,16.8,2.9,25.1v2.9c-.3,5.2-4.5,10-9.7,11.3-.6,0-1.3.3-1.9.3-4.2,0-7.4-2.9-9.7-6.4-2.3-3.5-2.9-7.1-6.1-7.1s-1.9.3-3.5,1c-4.8,1.9-12.6,5.8-17.4,6.8-3.5.3-6.8,1-10.3,1-8.1-.6-17.1-1-24.2-4.5-11-5.2-20-18.7-21-30.3-.3-1.3-.3-2.6-.3-4.2s0-2.9.3-4.5c.3-8.7,2.3-16.4,8.1-23.2,4.2-5.2,9.7-7.7,15.5-10.3,2.6-1.6,6.4-2.9,9.7-3.5,3.5-.6,8.4-1.6,12.2-1.9,4.8-1,8.4-1.6,13.2-1.9,4.5-.6,11,0,15.5-1.3,5.2-1.6,6.4-9.7,6.4-16.8s-.3-7.1-.6-9.3c-1.6-7.1-3.5-12.9-9-18-6.4-7.1-17.4-10.6-28-10.6s-12.9,1.3-18,4.2c-2.6,1.6-5.2,3.2-6.4,6.1-1.3,2.9-1,6.8-3.9,8.4-1,.6-2.3,1-3.2,1-4.5,0-9.3-5.2-10.6-9-.6-1.6-1-3.2-1-4.5,0-3.9,1.9-6.8,4.5-10.6,1.9-2.9,4.8-5.2,7.4-7.4,3.2-2.3,5.2-3.5,8.7-4.8,2.9-1,5.8-2.6,8.7-3.2,4.8-1.3,10-1.3,14.5-2.3h2.3ZM1676.9,700.2c-8.1,1.3-15.5,2.6-21.3,9-2.6,2.9-3.9,7.7-3.9,12.2s1.6,10.6,4.8,13.9c4.2,3.9,12.6,5.8,19.3,5.8s2.9,0,4.2-.3c7.4-1.3,21.6-5.8,25.5-12.6,1-1.9,1.3-4.2,1.3-6.8s-.3-5.8-.3-8.1v-10.3c0-1.9-.3-3.9-2.3-4.8-1.6-1-4.2-1.3-6.8-1.3s-7.4.6-9.7,1c-3.5.3-7.4,1.6-11,2.3Z"/>
    <path class="st0" d="M1880,564.5c5.5,0,11.6.6,17.4.6h8.1c12.6,0,26.8.3,38.4,2.6,6.8,1,11.3,4.8,11.3,10s-1,4.8-3.2,7.4c-3.2,4.2-7.4,5.2-11.9,5.2s-5.2-.3-7.7-.3h-1.3c-4.2.6-11,.3-15.1.6-1.9.3-3.5.3-5.5.3h-5.5c-1.9,0-5.2-.3-8.1-.3s-8.1.6-10,2.9c-.6,1-1,2.3-1,3.5,0,2.3.6,4.5.6,6.4,0,4.8.3,9.3.3,13.9s-.3,6.8-.6,10.3v10.6c0,1.9,0,3.9-.3,5.5-.3,1.3-.3,2.6-.3,3.9s0,3.2.6,4.5c.6,1.3,1.6,1.6,2.9,1.6h1c2.3-.3,4.5-.3,7.1-.3h7.1c4.8-.6,9-1,13.9-1h4.8c1.6,0,3.2,0,4.8-.6,2.9-1,6.1-1,9.3-1h11.3c1.9,0,3.5,0,5.2.6,3.2,1.3,4.8,5.5,4.8,9.7s-.3,2.9-.6,4.2c-2.6,9.7-11,10-19,10h-1.6c-9.7.3-17.1.3-26.4,1-3.2,0-6.8-.3-10-.3s-8.7.6-12.2,2.9c-2.6,1.6-2.9,5.8-2.9,9.7v7.4c-.3,5.5-.3,10.6-.3,15.5v15.1c-.3,6.1-.3,13.5-1.3,19.7-1.3,5.8-6.4,11.9-12.9,12.6h-1.3c-5.5,0-9-4.2-10-9.7-1-4.5-1.3-10-1.3-15.1s.3-10.3.6-15.5c.3-3.2.3-6.8.3-10,0-6.8-.3-13.5-.3-20.3s0-6.8.3-10.3v-6.8c0-2.3,0-4.8.3-7.1,0-1.9.3-3.9.3-6.1,0-6.4-.6-13.9-.6-20.3s0-5.5.3-7.7c.6-4.5.6-9,.6-13.5,0-6.4-.3-12.9-.6-18.7,0-4.2.6-7.4.6-11.3s-.3-2.6-.3-3.9v-1.9c0-7.4,3.2-14.2,13.9-15.8,1.9-.3,3.9-.3,6.1-.3Z"/>
    <path class="st0" d="M2009.2,541.3h1.6c7.1.6,9,5.2,9,10.6s-2.9,15.1-3.5,20.6c0,2.9-.6,7.7-.6,10.3-.6,6.8-.6,11.6-.6,18.4,0,12.2,1.3,24.8,1.9,37.4,0,2.3.3,4.2.3,6.4,0,8.7-1,17.7-1,26.4s.6,4.8.6,7.4v2.9c0,5.8-.6,11.6-.6,17.1v16.1c-.3,2.3-.3,4.5-.3,6.4v6.1c0,2.9-1,5.8-1,8.7s.3,7.7.3,11v1.9c-.3,1.9-2.3,3.9-3.2,5.5-2.6,3.9-4.2,2.6-8.7,3.9-1.3.3-2.6.6-3.9.6-4.8,0-8.4-3.2-9.7-8.7-.3-1.3-.3-2.6-.3-3.9,0-3.5.6-6.8,1-10,.6-6.1,1-12.2,1.3-18.1.6-11.9.6-23.5.6-35.1s.6-25.8.6-38.4-.3-8.4-.3-12.6c-.3-11.6-1-22.9-1-34.2s0-10,.3-14.8c.3-5.2,1.3-10.6,1.6-15.8.6-9.3.3-22.2,11.9-26.1,1.3-.3,2.3-.3,3.5-.3Z"/>
    <path class="st0" d="M2076.6,614.2c1.9,6.1,2.9,13.2,5.8,19,2.6,6.4,3.2,12.6,6.4,18.4,2.6,4.5,3.9,9.3,6.4,13.9,4.5,7.7,5.5,17.4,10.6,24.8,2.6,3.9,4.2,8.4,6.4,12.9.6,1.6,1.3,4.5,2.9,5.5h.6c1.9,0,2.3-3.5,2.9-4.5,1.9-6.1,5.5-12.9,7.4-19,3.9-10,8.4-21.6,12.2-31.6,5.2-12.9,9.7-27.4,17.1-39.3,1.6-2.6,4.8-3.9,8.4-3.9s9.7,1.9,11.9,5.2c1,1.3,1.3,2.6,1.3,3.9,0,4.2-3.9,8.4-5.5,12.2-3.9,9-6.4,19-11,28-2.6,5.5-5.5,10.6-7.7,16.1-3.5,7.7-4.8,16.8-8.4,24.5-1.3,2.9-2.3,7.4-3.5,10.6-10,25.1-16.8,53.8-35.5,74.8-4.5,5.2-11.3,11-17.7,14.5-3.5,1.9-6.8,4.5-10,6.4-3.9,2.3-7.4,3.9-11.3,5.8-5.8,2.6-12.2,3.5-18.4,4.5-2.6,1-6.1,1.9-9,1.9h-1.6c-5.5-1.3-7.7-5.5-7.7-10s3.2-11.3,7.4-13.5c5.5-2.9,12.9-1.9,19-4.2,4.2-1.3,7.7-2.6,11.6-4.5,5.2-3.2,9.7-6.8,14.2-10.3,7.7-5.8,11-11,15.1-19.7,1.6-3.5,3.5-7.4,3.5-11.3v-1.6c-.3-3.2-2.6-6.4-3.5-9.7-2.3-7.7-5.2-16.4-9-23.5-4.5-7.7-5.8-17.4-11-24.8-5.5-8.1-7.7-21.3-12.2-30-4.2-7.7-6.1-16.1-8.4-24.5-1-3.9-2.9-7.1-3.2-11v-.3c0-6.8,7.1-12.6,14.5-12.6h1.6c3.9.3,5.8,3.5,7.1,6.8Z"/>
    <path class="st0" d="M2226.2,600.3c4.2,0,9,1.9,11.3,5.8,1,1.9,1,6.8,3.9,7.1h.6c2.9,0,6.4-1.9,8.7-2.9,2.6-1,5.8-1.9,8.1-3.2,3.2-1.6,8.7-2.3,12.6-2.6,2.6-.3,5.8-.3,8.7-.3h3.2c14.2,1.6,25.5,3.2,34.2,16.8,3.9,5.8,6.4,11.6,8.4,18.4,1.6,5.5,1.6,12.6,2.6,18.4,1,4.5,1.3,9.3,1.3,13.9s-.3,9.3-.3,13.9-.6,11.3-.6,17.1,0,3.9.3,5.5v2.6c0,4.8-.6,9.7-.6,14.5-.3,3.2-.3,8.4-.3,11.9-.3,6.8-2.3,20.6-11.9,20.6h-.6c-5.2,0-10-4.8-10.6-9.7-.3-2.3-.6-3.5-.6-5.8,0-4.5-.3-9-.3-13.5v-3.5c0-4.8.6-10,.6-14.8v-23.2c0-4.5-.6-9-1-13.5-.3-1.6-.3-3.5-.3-5.2,0-3.2.3-6.4.3-9.3s-.3-6.8-1.6-10.6c-3.2-9.7-7.1-19-18.7-21.3-2.6-.6-4.8-1-6.8-1-3.2,0-6.1.6-10.6,1.6-4.5,1-8.4,1-12.9,3.2-2.9,1.6-6.4,3.2-8.1,6.4-1.6,2.9-2.3,6.1-2.3,9,0,5.8-1.3,11.6-1.6,17.4s0,11.3-1,17.1c-.3,3.5-.3,7.7-.3,11.6v11.6c0,8.1-1.3,16.1-1.3,23.9s-.6,15.5-.6,22.9v5.2c0,1.9,0,3.9-.6,5.5-1.6,4.5-7.7,8.4-12.9,8.4s-2.6,0-3.5-.6c-5.8-2.3-6.4-7.7-6.4-13.2s1-15.1,1-22.6-.3-7.4-.3-11.3,0-3.9.3-5.8c.3-2.9.6-6.8.6-10.6s-.3-10.6-.3-15.5v-4.5c.3-2.6.3-5.5.3-8.1,0-5.5-.3-11-.3-16.4.3-7.4,1-13.9,1-20.6s0-7.7-.6-11.6c-.3-3.5-1.3-9-1.3-14.2s1-10.3,4.8-12.6c1.3-1.3,4.2-1.3,5.8-1.9h1Z"/>
    <path class="st0" d="M2447.9,607.4c6.1,0,11.9,1,17.7,2.9,7.7,3.2,16.8,6.4,22.6,12.9,9,11.6,12.2,25.1,12.2,39v45.4c.3,6.1,1.3,12.9,1.3,19-.3,2.9-.3,4.8-.3,7.1s0,3.5.3,5.5v4.2c0,7.7-1.9,13.9-10.6,15.5-1,0-1.6.3-2.6.3-6.1,0-11.3-3.2-12.2-10-.3-1.9-.3-3.9-.3-6.1,0-4.2.3-9,.3-13.5s0-4.2-.3-6.4c-1-6.8-1-13.2-1-19.3s.3-16.4.3-24.8,0-7.7-.3-11.6c-.3-9,.6-17.1-4.5-24.8-3.2-5.2-10.6-8.1-15.8-10.3-4.2-1.3-8.4-2.3-12.9-2.3s-8.7,1-12.6,2.6c-4.5,1.9-8.1,4.8-12.2,7.4-6.1,3.5-8.7,7.1-10.6,13.9-.6,2.9-1,5.8-1,9,0,5.5.6,11,1,15.8,0,7.4-1.6,11.3-1.6,18.7s1,14.8,1,22.2v2.9c-.3,1.9-.3,3.5-.3,5.2,0,4.8.6,8.7.6,13.2s0,4.2-.3,6.4c-.3,4.8-7.4,10.3-12.6,11.6-.6.3-1,.3-1.6.3-3.5,0-6.4-3.5-8.1-6.4-2.6-5.5-3.2-12.9-3.2-19.7s0-5.8.3-8.4v-2.6c0-5.2-.6-10.3-.6-15.1v-6.4c0-7.7.6-12.6.6-21.3v-7.1c0-9.3-.3-18.4-.3-28,.3-4.8.3-9.7.3-14.5v-5.8c0-2.3-.6-4.2-.6-6.4s.3-2.9,1-4.2c1.9-4.2,8.1-7.7,13.2-7.7s2.6,0,3.9.6c4.2,1.9,4.5,6.4,4.5,10.3v3.2c0,1.3.3,2.3,1.6,2.6.3,0,.6.3,1,.3,1.3,0,2.9-1.3,3.5-1.9,4.5-1.9,6.1-4.2,10-6.8,8.1-4.5,17.7-5.8,26.8-6.4h2.6Z"/>
  </g>
</svg>