<?xml version="1.0" encoding="UTF-8"?>
<svg id="Layer_1" xmlns="http://www.w3.org/2000/svg" version="1.1" viewBox="0 0 3840 15">
  <!-- Generator: Adobe Illustrator 29.0.1, SVG Export Plug-In . SVG Version: 2.1.0 Build 192)  -->
  <defs>
    <style>
      .st0 {
        fill: #5e3d5a;
      }

      .st1 {
        fill: #c9aaca;
      }
    </style>
  </defs>
  <path class="st1" d="M986.9,8.6c-1.3,0-2.1-.3-2.6,0,.8,0,2.5.2,2.6,0Z"/>
  <path class="st1" d="M960.5,8.8c0-.4,1.9-.1,2-.5h-3c-.5.3.7.4,1.1.6h-.1Z"/>
  <path class="st1" d="M909.5,7.4c-.9-.3-1.9,0-2.7.1,1.1,0,2.5.1,2.7-.1Z"/>
  <path class="st1" d="M955,8.6c-.6,0-.5-.2-1.3-.1-.8.2,1.3.4,1.3.1Z"/>
  <path class="st1" d="M896.2,7.7c.4-.2,2.5,0,2.3-.4-1.6,0-2-.2-2.9-.3-.1.3-.5.6.6.7h0Z"/>
  <path class="st1" d="M950.6,8.5h-1.8c.5.2,1.6.2,1.8,0Z"/>
  <path class="st1" d="M893.2,7.6c-.2-.3,1-.2,1.1-.4-.6,0-.8-.2-1.7-.2-.2.3-.3.5.6.6h0Z"/>
  <path class="st1" d="M935,8.2c-1.1,0-3,0-3.2.3,1.2.3,2.9,0,3.2-.3Z"/>
  <path class="st1" d="M925.6,8.7h1.8c0-.2.3-.4-.3-.4-.1.2-1.1,0-1.8,0-.2.2.4.2.2.4h.1Z"/>
  <path class="st1" d="M929.3,8.2v.2h1.3c.1-.2-.3-.3-1.2-.2h-.1Z"/>
  <path class="st1" d="M879.6,8.7c3.6-.2,10.3.5,13.7-.3-.2-.2,0-.6-1-.7-.7.1-.8.5-1.6.6-1.7-.5-5,0-7.3-.4-.3.4-1.2.6-3.3.5.1-.2,0-.3-.2-.4-1.3,0-1.8,0-2.3.3,2.9,0,.4.4,2,.5h0Z"/>
  <path class="st1" d="M919.1,9.6c1.7,0,1.3-.2,1.1-.5,1.2.2,3.7,0,4.9,0-1-.4-7-.2-6.6.1.9-.3,1.9.3.7.4h0Z"/>
  <path class="st1" d="M915.8,9.9c.2-.2,1-.5-.2-.6-.7.1-1,.6.2.6Z"/>
  <path class="st1" d="M918.7,10.3c-1.3,0-1.5.2-1.5.5,2.9,0,3.7-.8,5-1.4-1.2.3-4.2,0-5.4.4,1.9,0,1.6.3,2,.5h-.1Z"/>
  <path class="st1" d="M933.3,10.1c-1.1.4-.8-.3-2.1-.3-.6.5,3.2.8,2.1.3Z"/>
  <path class="st1" d="M891.7,9.1c-1,0-1.4.1-2.6,0-.8,1-2.5,0-1,.2-.8-.1-1.3,0-2.6,0,.4.3-.8.2-1,.4.8,0,5.7.3,6.6,0-1,0-1.6,0-1.6-.3,1.3,0,1.8,0,2.3-.3h0Z"/>
  <path class="st1" d="M921.8,10.2c1,0,1.8.2,2,.4-.5.1-1.6,0-1.4.3,1.3.2,1,0,2.6,0,.6-.5-2.2-1.1-3.2-.7h0Z"/>
  <path class="st1" d="M895.2,9.9v.2h1.3c.1-.2-.3-.3-1.2-.2h-.1Z"/>
  <path class="st1" d="M877.8,9.7c-1.3-.4-1.5.4,0,0h0Z"/>
  <path class="st1" d="M814.5,8.2c-2.8.1-5.1-.3-7.1.1,2.3,0,6.6.5,7.1-.1Z"/>
  <path class="st1" d="M923.6,11.1c0,.3,1,.4,2,.5,0-.3-.6-.5-2-.5Z"/>
  <path class="st1" d="M816.2,8.4h-1.3c0,.1,0,.2-.1.3h.9c0-.1.6-.1.6-.3h0Z"/>
  <path class="st1" d="M810.3,8.9c-.6,0-.8-.2-1.7-.2-.4.4,1.2.4,1.7.2Z"/>
  <path class="st1" d="M811.1,9c-.2.3,0,.7-.8.8,1.2,0,1.6-.2,2-.5-1.6.1-.1-.4-1.2-.4h0Z"/>
  <path class="st1" d="M814.8,9.6h-2.2c-.3.3.4.4,1.6.4,0-.1.3-.2.6-.3h0Z"/>
  <path class="st1" d="M817.7,10c-1.2,0-1.2.3-1.9.4,1.4.1,1.7-.1,1.9-.4Z"/>
  <path class="st1" d="M821.4,10.5c-.3,0-1.6-.3-1.7,0,.3,0,1.6.3,1.7,0Z"/>
  <path class="st1" d="M806.3,10.1c0,.1,0,.2-.1.3,1.2.2,1.5-.4.1-.3Z"/>
  <path class="st1" d="M820.5,11.5c2.5.2,3.3-.1,4.1-.4-.5-.2-2-.2-2.9-.4,0,.4-1.3.4-1.2.8h0Z"/>
  <path class="st1" d="M810.9,10.5c-1.4-.1-1.9.4-.6.4.2-.1.7-.2.6-.4Z"/>
  <path class="st1" d="M829.3,11.4c.7,0,1.1,0,1.4-.2-.7,0-1.5,0-1.4.2Z"/>
  <path class="st1" d="M836.7,11.5c-1.4,0-1.5-.1-2.6-.2-.2.3.6.2-.2.4,1.3,0,2.8.1,2.7-.3h.1Z"/>
  <path class="st1" d="M806.7,11c.1-.2-.2-.3-.7-.3-.1.2-1.1,0-1.8,0,.2.3-.3.3-.8.4-.5,0-1,0-.8-.4h-1.8c-.5,0-.8.2-.7.3,1.2,0,1.8.1,2.6.2h1.6c.8-.1,1.3-.3,2.6-.2h-.2Z"/>
  <path class="st1" d="M839.9,12.2c1.7-.1,1.7-.2,3,0,1.5-.3-3.2-.7-3,0Z"/>
  <path class="st1" d="M831.8,11.7c-1.6,0-3,0-3.2.3,1.1.1,3.1.1,3.2-.3Z"/>
  <path class="st1" d="M809.5,11.8c-.7,0-2.2-.2-2.2,0,.6.2,1.9.4,2.2,0Z"/>
  <path class="st1" d="M821.2,12.9h.9v-.2h-.9v.2Z"/>
  <path class="st1" d="M846.2,14c-2.7-.2-1.1.3,0,0h0Z"/>
  <path class="st1" d="M809.9,13.8c-1-.1-2.1.3-1,.4,0-.2,1.2-.1,1-.4Z"/>
  <path class="st1" d="M822,10.3s.1-.1.5,0c1.4.1,0,.2.7.4,2.4,0,2.9-.4,4.3-.4-.7,0,2.7.4,4.1.3-1,.2,0,.1.3.3,1.6.1.7-.5,2.4-.4.8,0,.9.2.7.4,2.3,0,5.4.2,5.5-.5-.8-.4-2.8.2-3,0,.5-.4,1.8-.6,2.6-.9-1.6-.5-3.1,0-5.6-.1.5-.3-1.1-.2-.6-.6-4,.2-6.2-.2-10.9-.2,0,.6,2.1,1.3,1.5,1.6-1.1,0-3.1-.2-2.2,0h-.3Z"/>
  <path class="st1" d="M839.8,11.6c-1.3,0-2.7.2-3.3.5,1.3,0,1.1.2,2.1.2,1.4-.5,2.4-1,4.5-1.3-.9,0-1.3-.3-2-.4,1,.7-1.6.3-1.3,1Z"/>
  <path class="st1" d="M816.1,10.6c-1.7.2-3.2.4-4.3.7,2,.1,1.5-.5,3.3-.5,0,.3-1.1.3-1.1.6,1.4.1.9-.4,1.9-.4.3.3,1.6.4,2.8.5.2-.3-.5-.3-.6-.6-1.3.1-2.5,0-2-.5v.2Z"/>
  <path class="st1" d="M829.5,12.9c-1.4-.1-.8.3-1.1.5.8,0,1,.2,1.3,0-.9,0,0-.4-.2-.5Z"/>
  <path class="st1" d="M801.3,13.4c-.9,0-.7-.3-1.6-.4-.1.1-.4.2-.8.2v.5h.1c0,.1,0,.2-.1.3h0c1.8.2,1.2-.5,2.4-.6h0Z"/>
  <path class="st1" d="M1267.5,10.7c-.1-.2.1-.4-.7-.4,0,.2-1.7.1-1.3.4h2Z"/>
  <path class="st1" d="M1344.6,9.3c-1,.3,2.3.4,2,.1-.4,0-.8,0-.7-.1h-1.3Z"/>
  <path class="st1" d="M1341.9,9c.2-.6-3.8-.2-3.3.1,1.6,0,2.6,0,3.3-.1Z"/>
  <path class="st1" d="M1477.2,7.7c0-.2.3-.3.7-.4h-2c0,.2,0,.5,1.3.4Z"/>
  <path class="st1" d="M1200.6,7.3c1-.3-2.3-.4-2-.1.9,0,.9.2,2,.1Z"/>
  <path class="st1" d="M1589,4.7c1.6.7,8.4.3,12.1.3-3.3,0-3.5-.5-2.7-1.1-2.7-.5-5.2,0-8,.3-.5-.3-2-.6-3.4-.3.5.5,4.2.4,6,.7-2,0-2,.2-4,.1h0Z"/>
  <path class="st1" d="M1583,5.1c2,0,5.2.2,5.4-.3-1.7.1-5.8-.3-5.4.3Z"/>
  <path class="st1" d="M1520,1.4c2.8.6,7.8.2,8.7,1,1.6-.3,6.4.1,6-.5-.4-.3-4.3,0-4-.4,2.2,0,1.6-.6,4-.5,2.7.9,8.5-.2,11.4.5h-6.7c-.6.6,4.8.5,6,.3,3.5.3,9.9.5,13.4.5h6c3.1,0,6.2.5,9.4.5,8.4.2,16-.2,22.1-.3,1.4-.2,1.7-.6,3.4-.7h3V.7c-3,0-6.6,0-6.4-.5-20.6,0-32.8,0-54.3-.3-.8.6,2.8.2,3.4.5-3.4,0-5.9,0-6.7-.5,0,.2-.2.3-1.3.3-5.3,0-11.9-.2-17.4.3.1.5.9.5,0,1h0Z"/>
  <path class="st1" d="M646.5,8.8c.3-.2,1.5-.2,1.1-.6-1.3.2-1.2,0-3,0,0,.3,2,.1,2,.5h-.1Z"/>
  <path class="st1" d="M700.2,7.5c-.8-.1-1.8-.4-2.7-.1.2.3,1.5.2,2.7.1Z"/>
  <path class="st1" d="M653.3,8.5c-.7,0-.7.1-1.3.1,0,.2,2,.1,1.3-.1Z"/>
  <path class="st1" d="M710.7,7.7c1.1,0,.7-.4.6-.7-.9.1-1.4.3-2.9.3-.1.4,1.9.1,2.3.4h0Z"/>
  <path class="st1" d="M658.1,8.5c-.2-.1-1.1,0-1.8,0,.2.2,1.3.2,1.8,0Z"/>
  <path class="st1" d="M713.8,7.6c.9,0,.8-.3.6-.6-.9,0-1.1.1-1.7.2,0,.2,1.2.1,1.1.4h0Z"/>
  <path class="st1" d="M675.2,8.5c-.2-.4-2.1-.3-3.2-.3.3.4,2,.6,3.2.3Z"/>
  <path class="st1" d="M681.4,8.7c-.1-.2.4-.2.2-.4h-1.8c-.6,0-.2.3-.2.4.8,0,1,.1,1.8,0Z"/>
  <path class="st1" d="M677.7,8.2c-.9,0-1.3,0-1.2.2h1.3v-.2h-.1Z"/>
  <path class="st1" d="M713.6,8.4c3.4.8,10.1.1,13.7.3,1.6-.1-.9-.5,2-.5-.5-.2-1-.3-2.3-.3-.3.1-.4.3-.2.4-2.1.1-3,0-3.3-.5-2.2.3-5.6,0-7.3.4-.8-.1-.9-.5-1.6-.6-1,0-.8.4-1,.7h0Z"/>
  <path class="st1" d="M686.8,9.1c-.2.3-.6.6,1.1.5-1.2-.1-.2-.8.7-.4.3-.4-5.6-.5-6.6-.1,1.2.1,3.7.3,4.9,0h0Z"/>
  <path class="st1" d="M691.1,9.9c1.2,0,.8-.5.2-.6-1.2.1-.4.4-.2.6Z"/>
  <path class="st1" d="M690.2,9.8c-1.3-.3-4.2,0-5.4-.4,1.2.6,2.1,1.3,5,1.4,0-.3-.2-.6-1.5-.5.4-.2,0-.6,2-.5h-.1Z"/>
  <path class="st1" d="M673.7,10.1c-1.1.5,2.6.2,2.1-.3-1.2,0-1,.6-2.1.3Z"/>
  <path class="st1" d="M722.5,9.6c-.3-.2-1.4,0-1.1-.4h-2.6c1.5-.2-.1.8-1-.2-1.3.1-1.6,0-2.6,0,.5.2,1,.3,2.3.3,0,.2-.6.3-1.6.3.9.4,5.8,0,6.6,0h0Z"/>
  <path class="st1" d="M684.5,10.9c.2-.3-1-.2-1.4-.3.2-.2,1-.3,2-.4-1-.4-3.8.2-3.2.7h2.6,0Z"/>
  <path class="st1" d="M710.5,10.2h1.3v-.2c-.9,0-1.3,0-1.2.2h-.1Z"/>
  <path class="st1" d="M729.1,9.7c1.5.4,1.3-.4,0,0h0Z"/>
  <path class="st1" d="M799.4,8.4c-1.9-.4-4.2,0-7.1-.1.5.6,4.8,0,7.1.1Z"/>
  <path class="st1" d="M681.3,11.6c1,0,2-.2,2-.5-1.4,0-2,.2-2,.5Z"/>
  <path class="st1" d="M803.4,8.5h.9c1.6-.3,2.2-.3,3.6-.4v-.2c-1-.1-3.1,0-4.5,0-1.5-.1-3.5-.2-4.5,0v.2c1.5,0,2.1.1,3.7.4h.9,0Z"/>
  <path class="st1" d="M791.2,8.7h.9c0-.1,0-.2-.1-.3h-1.3c0,.2.5.2.6.3h0Z"/>
  <path class="st1" d="M798.3,8.7c-.9,0-1.1.1-1.7.2.5.2,2,.2,1.7-.2Z"/>
  <path class="st1" d="M794.6,9.4c.4.2.8.5,2,.5-.7-.1-.6-.5-.8-.8-1.1,0,.5.5-1.2.4h0Z"/>
  <path class="st1" d="M792.1,9.6c.3,0,.5.2.6.3,1.1,0,1.8,0,1.6-.4-1.3.1-.8,0-2.2,0h0Z"/>
  <path class="st1" d="M791.1,10.4c-.7-.1-.7-.4-1.9-.4.3.2.5.5,1.9.4Z"/>
  <path class="st1" d="M787.2,10.4c-.2-.3-1.5,0-1.7,0,.2.3,1.5,0,1.7,0Z"/>
  <path class="st1" d="M800.7,10.4c0-.1,0-.2-.1-.3-1.3-.1-1.1.5.1.3Z"/>
  <path class="st1" d="M782.2,11.1c.9.3,1.6.6,4.1.4,0-.4-1.3-.4-1.2-.8-.9.2-2.4.2-2.9.4h0Z"/>
  <path class="st1" d="M796.6,10.9c1.2,0,.8-.5-.6-.4,0,.2.4.3.6.4Z"/>
  <path class="st1" d="M777.6,11.4c.1-.2-.7-.2-1.4-.2.2.1.6.2,1.4.2Z"/>
  <path class="st1" d="M772.7,11.3c-1,0-1.2.2-2.6.2,0,.4,1.4.3,2.7.3-.8-.2,0-.1-.2-.4h.1Z"/>
  <path class="st1" d="M767,12.2c.2-.7-4.5-.2-3,0,1.3-.3,1.3-.2,3,0Z"/>
  <path class="st1" d="M778.3,12c-.2-.4-1.6-.4-3.2-.3.2.5,2.1.5,3.2.3Z"/>
  <path class="st1" d="M797.4,11.8c.4.4,1.6.2,2.2,0,0-.2-1.6,0-2.2,0Z"/>
  <path class="st1" d="M784.8,12.9h.9v-.2h-.9v.2Z"/>
  <path class="st1" d="M760.7,14c1.1.3,2.7-.2,0,0h0Z"/>
  <path class="st1" d="M797,13.8c-.2.3,1,.2,1,.4,1,0,0-.5-1-.4Z"/>
  <path class="st1" d="M766.6,10.4c.1.7,3.2.5,5.5.5-.2-.2,0-.4.7-.4,1.6-.1.7.5,2.3.4.2-.2,1.3-.1.3-.3,1.4.1,4.8-.2,4.1-.3,1.3,0,1.9.4,4.3.4.7-.2-.7-.3.7-.4h.5c.9-.3-1.1-.1-2.2,0-.7-.4,1.6-1,1.5-1.6-4.7,0-6.8.4-10.9.2.5.3-1.1.2-.6.6-2.6.1-4-.3-5.6.1.7.3,2.1.5,2.6.9-.2.2-2.2-.3-3,0h-.2Z"/>
  <path class="st1" d="M770.4,12c-.6-.3-1.9-.4-3.3-.5.2-.7-2.3-.4-1.3-1-.7.1-1.2.3-2,.4,2.1.2,3.1.8,4.5,1.3,1.1,0,.9-.2,2.1-.2Z"/>
  <path class="st1" d="M791,11.2c1,0,.5.5,1.9.4,0-.3-1.1-.3-1.1-.6,1.8,0,1.2.6,3.3.5-1-.4-2.6-.6-4.3-.7.5.5-.7.6-2,.5,0,.2-.8.3-.6.6,1.3-.1,2.6-.2,2.8-.5v-.2Z"/>
  <path class="st1" d="M777.1,13.5c.3.2.5,0,1.3,0-.3-.2.3-.7-1.1-.5-.2.2.7.5-.2.5Z"/>
  <path class="st1" d="M808,13.2c-.4,0-.7,0-.8-.2-.9,0-.7.3-1.6.4,1.3,0,.6.8,2.4.7h0c0-.2,0-.3-.1-.4h.1v-.5h0Z"/>
  <path class="st1" d="M2589.4,8.9c-1.3,0-2.1-.3-2.6,0,.8,0,2.5.2,2.6,0Z"/>
  <path class="st1" d="M2563,9.2c0-.4,1.9-.1,2-.5h-3c-.5.3.7.4,1.1.6h0Z"/>
  <path class="st1" d="M2511.9,7.7c-.9-.3-1.9,0-2.7.1,1.1,0,2.5.1,2.7-.1Z"/>
  <path class="st1" d="M2557.4,8.9c-.6,0-.5-.2-1.3-.1-.8.2,1.3.4,1.3.1Z"/>
  <path class="st1" d="M2498.7,8c.4-.2,2.5,0,2.3-.4-1.6,0-2-.2-2.9-.3,0,.3-.5.6.6.7Z"/>
  <path class="st1" d="M2553.1,8.8h-1.8c.5.2,1.6.2,1.8,0Z"/>
  <path class="st1" d="M2495.6,7.9c-.2-.3,1-.2,1.1-.4-.6,0-.8-.2-1.7-.2-.2.3-.3.5.6.6h0Z"/>
  <path class="st1" d="M2537.4,8.5c-1.1,0-3,0-3.2.3,1.2.3,2.9,0,3.2-.3Z"/>
  <path class="st1" d="M2528,9h1.8c0-.2.3-.4-.3-.4,0,.2-1.1,0-1.8,0-.2.2.4.2.2.4h.1Z"/>
  <path class="st1" d="M2531.7,8.6v.2h1.3c0-.2-.3-.3-1.2-.2h-.1Z"/>
  <path class="st1" d="M2482,9c3.6-.2,10.3.5,13.7-.3-.2-.2,0-.6-1-.7-.7.1-.8.5-1.6.6-1.7-.5-5,0-7.3-.4-.3.4-1.2.6-3.3.5,0-.2,0-.3-.2-.4-1.3,0-1.8,0-2.3.3,2.9,0,.4.4,2,.5h0Z"/>
  <path class="st1" d="M2521.5,9.9c1.7,0,1.3-.2,1.1-.5,1.2.2,3.7,0,4.9,0-1-.4-7-.2-6.6.1.9-.3,1.9.3.7.4h0Z"/>
  <path class="st1" d="M2518.3,10.2c.2-.2,1-.5-.2-.6-.7.1-1,.6.2.6Z"/>
  <path class="st1" d="M2521.2,10.6c-1.3,0-1.5.2-1.5.5,2.9,0,3.7-.8,5-1.4-1.2.3-4.2,0-5.4.4,1.9,0,1.6.3,2,.5h0Z"/>
  <path class="st1" d="M2535.7,10.4c-1.1.4-.8-.3-2.1-.3-.6.5,3.2.8,2.1.3Z"/>
  <path class="st1" d="M2494.1,9.4c-1,0-1.4.1-2.6,0-.8,1-2.5,0-1,.2-.8-.1-1.3,0-2.6,0,.4.3-.8.2-1,.4.8,0,5.7.3,6.6,0-1,0-1.6,0-1.6-.3,1.3,0,1.8,0,2.3-.3h-.1Z"/>
  <path class="st1" d="M2524.3,10.5c1,0,1.8.2,2,.4-.5.1-1.6,0-1.4.3,1.3.2,1,0,2.6,0,.6-.5-2.2-1.1-3.2-.7Z"/>
  <path class="st1" d="M2497.7,10.2v.2h1.3c0-.2-.3-.3-1.2-.2h-.1Z"/>
  <path class="st1" d="M2480.3,10c-1.3-.4-1.5.4,0,0h0Z"/>
  <path class="st1" d="M2417,8.6c-2.8.1-5.1-.3-7.1.1,2.3,0,6.6.5,7.1-.1Z"/>
  <path class="st1" d="M2526.1,11.4c0,.3,1,.4,2,.5,0-.3-.6-.5-2-.5Z"/>
  <path class="st1" d="M2418.6,8.7h-1.3c0,.1,0,.2,0,.3h.9c0-.1.6-.1.6-.3h0Z"/>
  <path class="st1" d="M2412.7,9.2c-.6,0-.8-.2-1.7-.2-.4.4,1.2.4,1.7.2Z"/>
  <path class="st1" d="M2413.6,9.3c-.2.3,0,.7-.8.8,1.2,0,1.6-.2,2-.5-1.6.1,0-.4-1.2-.4h0Z"/>
  <path class="st1" d="M2417.2,10h-2.2c-.3.3.4.4,1.6.4,0-.1.3-.2.6-.3h0Z"/>
  <path class="st1" d="M2420.1,10.4c-1.2,0-1.2.3-1.9.4,1.4.1,1.7-.1,1.9-.4Z"/>
  <path class="st1" d="M2423.9,10.8c-.3,0-1.6-.3-1.7,0,.3,0,1.6.3,1.7,0Z"/>
  <path class="st1" d="M2408.7,10.4c0,.1,0,.2,0,.3,1.2.2,1.5-.4,0-.3Z"/>
  <path class="st1" d="M2423,11.8c2.5.2,3.3-.1,4.1-.4-.5-.2-2-.2-2.9-.4,0,.4-1.3.4-1.2.8h0Z"/>
  <path class="st1" d="M2413.3,10.8c-1.4-.1-1.9.4-.6.4.2-.1.7-.2.6-.4Z"/>
  <path class="st1" d="M2431.8,11.7c.7,0,1.1,0,1.4-.2-.7,0-1.5,0-1.4.2Z"/>
  <path class="st1" d="M2439.2,11.8c-1.4,0-1.5-.1-2.6-.2-.2.3.6.2-.2.4,1.3,0,2.8.1,2.7-.3h0Z"/>
  <path class="st1" d="M2409.2,11.4c0-.2-.2-.3-.7-.3,0,.2-1.1,0-1.8,0,.2.3-.3.3-.8.4-.5,0-1,0-.8-.4h-1.8c-.5,0-.8.2-.7.3,1.2,0,1.8.1,2.6.2h1.6c.8-.1,1.3-.3,2.6-.2h-.2Z"/>
  <path class="st1" d="M2442.4,12.5c1.7-.1,1.7-.2,3,0,1.5-.3-3.2-.7-3,0Z"/>
  <path class="st1" d="M2434.3,12c-1.6,0-3,0-3.2.3,1.1.1,3.1.1,3.2-.3Z"/>
  <path class="st1" d="M2411.9,12.1c-.7,0-2.2-.2-2.2,0,.6.2,1.9.4,2.2,0Z"/>
  <path class="st1" d="M2423.7,13.2h.9v-.2h-.9v.2Z"/>
  <path class="st1" d="M2448.6,14.3c-2.7-.2-1.1.3,0,0h0Z"/>
  <path class="st1" d="M2412.3,14.1c-1-.1-2.1.3-1,.4,0-.2,1.2-.1,1-.4Z"/>
  <path class="st1" d="M2424.4,10.6s0-.1.5,0c1.4.1,0,.2.7.4,2.4,0,2.9-.4,4.3-.4-.7,0,2.7.4,4.1.3-1,.2,0,.1.3.3,1.6.1.7-.5,2.4-.4.8,0,.9.2.7.4,2.3,0,5.4.2,5.5-.5-.8-.4-2.8.2-3,0,.5-.4,1.8-.6,2.6-.9-1.6-.5-3.1,0-5.6-.1.5-.3-1.1-.2-.6-.6-4,.2-6.2-.2-10.9-.2,0,.6,2.1,1.3,1.5,1.6-1.1,0-3.1-.2-2.2,0h-.3Z"/>
  <path class="st1" d="M2442.2,11.9c-1.3,0-2.7.2-3.3.5,1.3,0,1.1.2,2.1.2,1.4-.5,2.4-1,4.5-1.3-.9,0-1.3-.3-2-.4,1,.7-1.6.3-1.3,1h0Z"/>
  <path class="st1" d="M2418.5,11c-1.7.2-3.2.4-4.3.7,2,.1,1.5-.5,3.3-.5,0,.3-1.1.3-1.1.6,1.4.1.9-.4,1.9-.4.3.3,1.6.4,2.8.5.2-.3-.5-.3-.6-.6-1.3.1-2.5,0-2-.5v.2Z"/>
  <path class="st1" d="M2432,13.2c-1.4-.1-.8.3-1.1.5.8,0,1,.2,1.3,0-.9,0,0-.4-.2-.5h0Z"/>
  <path class="st1" d="M2403.8,13.7c-.9,0-.7-.3-1.6-.4,0,.1-.4.2-.8.2v.5h0c0,.1,0,.2,0,.3h0c1.8.2,1.2-.5,2.4-.6Z"/>
  <path class="st1" d="M2870,11c0-.2,0-.4-.7-.4,0,.2-1.7.1-1.3.4h2Z"/>
  <path class="st1" d="M2947,9.6c-1,.3,2.3.4,2,.1-.4,0-.8,0-.7-.1h-1.3Z"/>
  <path class="st1" d="M2944.3,9.3c.2-.6-3.8-.2-3.3.1,1.6,0,2.6,0,3.3-.1Z"/>
  <path class="st1" d="M3079.6,8c0-.2.3-.3.7-.4h-2c0,.2,0,.5,1.3.4Z"/>
  <path class="st1" d="M2803,7.6c1-.3-2.3-.4-2-.1.9,0,.9.2,2,.1Z"/>
  <path class="st1" d="M3191.5,5c1.6.7,8.4.3,12.1.3-3.3,0-3.5-.5-2.7-1.1-2.7-.5-5.2,0-8,.3-.5-.3-2-.6-3.4-.3.5.5,4.2.4,6,.7-2,0-2,.2-4,.1h0Z"/>
  <path class="st1" d="M3185.5,5.4c2,0,5.2.2,5.4-.3-1.7.1-5.8-.3-5.4.3Z"/>
  <path class="st1" d="M3122.5,1.7c2.8.6,7.8.2,8.7,1,1.6-.3,6.4.1,6-.5-.4-.3-4.3,0-4-.4,2.2,0,1.6-.6,4-.5,2.7.9,8.5-.2,11.4.5h-6.7c-.6.6,4.8.5,6,.3,3.5.3,9.9.5,13.4.5h6c3.1,0,6.2.5,9.4.5,8.4.2,16-.2,22.1-.3,1.4-.2,1.7-.6,3.4-.7h3v-1.1c-3,0-6.6,0-6.4-.5-20.6,0-32.8,0-54.3-.3-.8.6,2.8.2,3.4.5-3.4,0-5.9,0-6.7-.5,0,.2-.2.3-1.3.3-5.3,0-11.9-.2-17.4.3,0,.5.9.5,0,1h0Z"/>
  <path class="st1" d="M2225.2,8.9c-.6-.4-1.3,0-2.6,0,.2.2,1.9,0,2.6,0Z"/>
  <path class="st1" d="M2248.9,9.2c.3-.2,1.5-.2,1.1-.6-1.3.2-1.2,0-3,0,0,.3,2,.1,2,.5h0Z"/>
  <path class="st1" d="M2302.6,7.9c-.8-.1-1.8-.4-2.7-.1.2.3,1.5.2,2.7.1Z"/>
  <path class="st1" d="M2255.7,8.8c-.7,0-.7.1-1.3.1,0,.2,2,.1,1.3-.1Z"/>
  <path class="st1" d="M2313.2,8c1.1,0,.7-.4.6-.7-.9.1-1.4.3-2.9.3,0,.4,1.9.1,2.3.4Z"/>
  <path class="st1" d="M2260.6,8.9c-.2-.1-1.1,0-1.8,0,.2.2,1.3.2,1.8,0Z"/>
  <path class="st1" d="M2316.2,7.9c.9,0,.8-.3.6-.6-.9,0-1.1.1-1.7.2,0,.2,1.2.1,1.1.4h0Z"/>
  <path class="st1" d="M2277.7,8.8c-.2-.4-2.1-.3-3.2-.3.3.4,2,.6,3.2.3Z"/>
  <path class="st1" d="M2283.8,9c0-.2.4-.2.2-.4h-1.8c-.6,0-.2.3-.2.4.8,0,1,.1,1.8,0Z"/>
  <path class="st1" d="M2280.2,8.6c-.9,0-1.3,0-1.2.2h1.3v-.2h-.1Z"/>
  <path class="st1" d="M2316.1,8.7c3.4.8,10.1.1,13.7.3,1.6-.1-.9-.5,2-.5-.5-.2-1-.3-2.3-.3-.3.1-.4.3-.2.4-2.1.1-3,0-3.3-.5-2.2.3-5.6,0-7.3.4-.8-.1-.9-.5-1.6-.6-1,0-.8.4-1,.7h0Z"/>
  <path class="st1" d="M2289.3,9.4c-.2.3-.6.6,1.1.5-1.2-.1-.2-.8.7-.4.3-.4-5.6-.5-6.6-.1,1.2.1,3.7.3,4.9,0h0Z"/>
  <path class="st1" d="M2293.6,10.2c1.2,0,.8-.5.2-.6-1.2.1-.4.4-.2.6Z"/>
  <path class="st1" d="M2292.7,10.2c-1.3-.3-4.2,0-5.4-.4,1.2.6,2.1,1.3,5,1.4,0-.3-.2-.6-1.5-.5.4-.2,0-.6,2-.5h0Z"/>
  <path class="st1" d="M2276.1,10.4c-1.1.5,2.6.2,2.1-.3-1.2,0-1,.6-2.1.3Z"/>
  <path class="st1" d="M2325,10c-.3-.2-1.4,0-1.1-.4h-2.6c1.5-.2,0,.8-1-.2-1.3.1-1.6,0-2.6,0,.5.2,1,.3,2.3.3,0,.2-.6.3-1.6.3.9.4,5.8,0,6.6,0h0Z"/>
  <path class="st1" d="M2287,11.2c.2-.3-1-.2-1.4-.3.2-.2,1-.3,2-.4-1-.4-3.8.2-3.2.7h2.6Z"/>
  <path class="st1" d="M2312.9,10.5h1.3v-.2c-.9,0-1.3,0-1.2.2h-.1Z"/>
  <path class="st1" d="M2331.5,10c1.5.4,1.3-.4,0,0h0Z"/>
  <path class="st1" d="M2401.9,8.7c-1.9-.4-4.2,0-7.1-.1.5.6,4.8,0,7.1.1Z"/>
  <path class="st1" d="M2283.8,11.9c1,0,2-.2,2-.5-1.4,0-2,.2-2,.5Z"/>
  <path class="st1" d="M2405.9,8.8h.9c1.6-.3,2.2-.3,3.6-.4v-.2c-1-.1-3.1,0-4.5,0-1.5-.1-3.5-.2-4.5,0v.2c1.5,0,2.1.1,3.7.4h.9,0Z"/>
  <path class="st1" d="M2393.7,9h.9c0-.1,0-.2,0-.3h-1.3c0,.2.5.2.6.3h0Z"/>
  <path class="st1" d="M2400.7,9c-.9,0-1.1.1-1.7.2.5.2,2,.2,1.7-.2Z"/>
  <path class="st1" d="M2397,9.7c.4.2.8.5,2,.5-.7-.1-.6-.5-.8-.8-1.1,0,.5.5-1.2.4h0Z"/>
  <path class="st1" d="M2394.5,10c.3,0,.5.2.6.3,1.1,0,1.8,0,1.6-.4-1.3.1-.8,0-2.2,0h0Z"/>
  <path class="st1" d="M2393.6,10.7c-.7-.1-.7-.4-1.9-.4.3.2.5.5,1.9.4Z"/>
  <path class="st1" d="M2389.6,10.7c-.2-.3-1.5,0-1.7,0,.2.3,1.5,0,1.7,0Z"/>
  <path class="st1" d="M2403.2,10.7c0-.1,0-.2,0-.3-1.3-.1-1.1.5,0,.3Z"/>
  <path class="st1" d="M2384.7,11.4c.9.3,1.6.6,4.1.4,0-.4-1.3-.4-1.2-.8-.9.2-2.4.2-2.9.4h0Z"/>
  <path class="st1" d="M2399,11.2c1.2,0,.8-.5-.6-.4,0,.2.4.3.6.4Z"/>
  <path class="st1" d="M2380,11.7c0-.2-.7-.2-1.4-.2.2.1.6.2,1.4.2Z"/>
  <path class="st1" d="M2375.1,11.6c-1,0-1.2.2-2.6.2,0,.4,1.4.3,2.7.3-.8-.2,0-.1-.2-.4h0Z"/>
  <path class="st1" d="M2369.4,12.5c.2-.7-4.5-.2-3,0,1.3-.3,1.3-.2,3,0Z"/>
  <path class="st1" d="M2380.7,12.4c-.2-.4-1.6-.4-3.2-.3.2.5,2.1.5,3.2.3Z"/>
  <path class="st1" d="M2399.8,12.1c.4.4,1.6.2,2.2,0,0-.2-1.6,0-2.2,0Z"/>
  <path class="st1" d="M2387.2,13.3h.9v-.2h-.9v.2Z"/>
  <path class="st1" d="M2363.2,14.3c1.1.3,2.7-.2,0,0h0Z"/>
  <path class="st1" d="M2399.4,14.1c-.2.3,1,.2,1,.4,1,0,0-.5-1-.4Z"/>
  <path class="st1" d="M2369.1,10.7c0,.7,3.2.5,5.5.5-.2-.2,0-.4.7-.4,1.6-.1.7.5,2.3.4.2-.2,1.3-.1.3-.3,1.4.1,4.8-.2,4.1-.3,1.3,0,1.9.4,4.3.4.7-.2-.7-.3.7-.4h.5c.9-.3-1.1-.1-2.2,0-.7-.4,1.6-1,1.5-1.6-4.7,0-6.8.4-10.9.2.5.3-1.1.2-.6.6-2.6.1-4-.3-5.6.1.7.3,2.1.5,2.6.9-.2.2-2.2-.3-3,0h-.2Z"/>
  <path class="st1" d="M2372.8,12.3c-.6-.3-1.9-.4-3.3-.5.2-.7-2.3-.4-1.3-1-.7.1-1.2.3-2,.4,2.1.2,3.1.8,4.5,1.3,1.1,0,.9-.2,2.1-.2h0Z"/>
  <path class="st1" d="M2393.5,11.5c1,0,.5.5,1.9.4,0-.3-1.1-.3-1.1-.6,1.8,0,1.2.6,3.3.5-1-.4-2.6-.6-4.3-.7.5.5-.7.6-2,.5,0,.2-.8.3-.6.6,1.3-.1,2.6-.2,2.8-.5v-.2Z"/>
  <path class="st1" d="M2379.6,13.8c.3.2.5,0,1.3,0-.3-.2.3-.7-1.1-.5-.2.2.7.5-.2.5h0Z"/>
  <path class="st1" d="M2410.4,13.5c-.4,0-.7,0-.8-.2-.9,0-.7.3-1.6.4,1.3,0,.6.8,2.4.7h0c0-.2,0-.3,0-.4h0v-.5Z"/>
  <path class="st1" d="M1942.9,10.6c-.8,0-.6.2-.7.4h2c.4-.3-1.3-.2-1.3-.4Z"/>
  <path class="st1" d="M1865.3,9.6h-1.3c0,.1-.3.1-.7.1-.3.3,3,.2,2-.1Z"/>
  <path class="st1" d="M1871.3,9.5c.4-.3-3.5-.7-3.3-.1.8.1,1.8.2,3.3.1Z"/>
  <path class="st1" d="M1732.8,8c1.4,0,1.3-.2,1.3-.4h-2c.4.1.7.2.7.4Z"/>
  <path class="st1" d="M2011.1,7.4c.3-.3-3-.2-2,.1,1.1,0,1.2-.1,2-.1Z"/>
  <path class="st1" d="M1605,5.1c.6.2,1.7.3,3.3.3,0-.3-1.7-.3-3.3-.3Z"/>
  <path class="st1" d="M1609,5.3c3.7,0,10.5.4,12-.3-2,0-2-.2-4-.1,1.8-.3,5.5-.1,6-.7-1.3-.3-2.9,0-3.3.3-2.8-.2-5.4-.8-8-.3.9.6.6,1-2.7,1.1Z"/>
  <path class="st1" d="M1621.7,5.1c.1.4,3.3.2,5.4.3.4-.5-3.7-.2-5.4-.3Z"/>
  <path class="st0" d="M-.7,183.9v9.1c.9,0,1.6,0,1.2.3-.5,0-.8,0-1.2,0v2c7,0,14.2-.3,21.3-.3,20.3,0,41.2,0,60.9-.4,5.4,0,10.7,0,14.7-.3,2.5-.2,3.8-.7,6.7-.8.8,0,2.6,0,3.4,0,6.9,0,14-.2,19.4-.7,8,.5,17.7.4,26.8.5,3.8,0,8.1.3,12.1,0,.9,0,1.7-.3,2.7-.3,19.4-.3,38.3,1,57.6.3,4.6.5,9.4,0,14.1,0s13.4.2,20.1.3c13.1,0,26.6.3,39.5.4,7.4,0,14.3,0,21.4,0,11,0,26.2.2,37.5,0,15,0,31.7,0,44.9,0s15.1.4,20.1.5c4.7,0,9.6-.2,14.1-.3,6.4,0,13.1,0,19.4,0s6.3-.2,8.7-.3c8.7-.2,17.8,0,23.4,0,1.6,0,3.3-.2,5.4-.3,1.4,0,3.2.2,3.4.5,6.3-.7,18.5.5,26.1-.3,5.3.5,10.2,0,16.1,0s16.5,0,24.8,0,15.9.5,22.1,0c1.5.5,3.8,0,6,0,8.2.2,17,1.1,22.8,1.4-1.6,0-1.4-.5-.7-.7,1.6,0,2.5.2,4.7,0,1.1,0,.4-.4,1.3-.4h13.1v.3h18.9c1,0,.2.4,1.3.4,2.2,0,3.1,0,4.7,0,.8.2.9.6-.7.7,5.8-.3,14.6-1.1,22.7-1.4,2.2,0,4.5.4,6,0,6.2.5,14.2,0,22.1,0s16.9,0,24.8,0,10.8.4,16.1,0c7.7.7,19.8-.4,26.1.3.2-.4,2-.4,3.3-.5,2.1,0,3.8,0,5.4.3,5.6-.2,14.7-.4,23.4,0,2.4,0,5.3.3,8.7.3,6.4,0,13-.2,19.4,0,4.4,0,9.3.4,14.1.3,5,0,12.2-.5,20.1-.5,13.2,0,29.8,0,44.8,0,11.3,0,26.5-.3,37.5,0,7.2,0,14,.2,21.4,0,13,0,26.4-.3,39.5-.4,6.7,0,13.5-.3,20.1-.3s9.4.5,14.1,0c19.3.7,38.2-.5,57.5-.3,1,0,1.8.2,2.7.3,3.9.2,8.2,0,12,0,9.1,0,18.7,0,26.8-.5,5.4.5,12.5.6,19.4.7.8,0,2.5-.2,3.3,0,2.9,0,4.2.6,6.7.8,4,.3,9.3.2,14.7.3,19.7.3,40.6.3,60.9.4,11,0,22.2.7,32.8,0,7.6.7,15,0,20.7,0,1.8,0,2.8.4,4.7.4s3.9-.4,6.7-.5h3.3c.6,0,1-.5,2-.5s2.9.3,3.3.3c1.1,0,1.6-.2,2.7-.3,1.7,0,4.5,0,6.7,0,4.2-.3,7.5-.4,10.7.3,4-.2,9.9-1.5,13.4-.5,0-.4,3.4-.7,4,0,1,0-.3-.2,0-.4,1.7,0,2.4,0,2,.4,2.8-.4,6.7-.8,9.4-.3,5.1,0,11.6-.3,15.4,0,.8,0,.6.2.7.4,1.9-.3,3,0,4.7,0,6.6,0,12.5-.6,17.4-.4.8-.2.3-.2,0-.4,2,0,6.3-.3,5.4.4,1-.5,3.1-.2,5.4,0,1.9.2-2.7.6-.7.8,6-.2,9.3-.3,14.7-.4-.3-.4-5.1,0-5.4-.3,1.8,0,3.9-.2,6-.3,2.1,0,4.2.2,6,.3-.3.4-5.1,0-5.4.3,5.4,0,8.7.2,14.7.4,2-.3-2.5-.6-.7-.8,2.2,0,4.4-.3,5.4,0-1-.7,3.4-.3,5.4-.4-.3.2-.8.2,0,.4,4.9-.2,10.8.5,17.4.4,1.7,0,2.7-.4,4.7,0,.1-.2-.1-.4.7-.4,3.8,0,10.3,0,15.4,0,2.6-.5,6.5,0,9.4.3-.4-.4.3-.5,2-.4.3.2-1,.3,0,.4.6-.5,3.9-.2,4,0,3.5-1,9.4.3,13.4.5,3.2-.7,6.5-.5,10.7-.3,2.2,0,5,0,6.7,0,1.1,0,1.6.3,2.7.3s2.7-.3,3.3-.3c1,0,1.4.5,2,.5h3.4c2.8.2,4.5.5,6.7.5s2.9-.3,4.7-.4c5.7-.2,13.2.6,20.8,0,10.6.7,21.8,0,32.8,0,20.3,0,41.2,0,60.9-.4,5.4,0,10.7,0,14.7-.3,2.5-.2,3.8-.7,6.7-.8.8,0,2.6,0,3.4,0,6.9,0,14-.2,19.4-.7,8,.5,17.7.4,26.8.5,3.8,0,8.1.3,12.1,0,.9,0,1.7-.3,2.7-.3,19.4-.3,38.3,1,57.6.3,4.6.5,9.4,0,14.1,0s13.4.2,20.1.3c13.1,0,26.6.3,39.5.4,7.4,0,14.3,0,21.4,0,11,0,26.2.2,37.5,0,15,0,31.7,0,44.9,0s15.1.4,20.1.5c4.7,0,9.6-.2,14.1-.3,6.4,0,13.1,0,19.4,0s6.3-.2,8.7-.3c8.7-.2,17.8,0,23.4,0,1.6,0,3.3-.2,5.4-.3,1.4,0,3.2.2,3.4.5,6.3-.7,18.5.5,26.1-.3,5.3.5,10.2,0,16.1,0s16.5,0,24.8,0,15.9.5,22.1,0c1.5.5,3.8,0,6,0,8.2.2,17,1.1,22.8,1.4-1.6,0-1.4-.5-.7-.7,1.6,0,2.5.2,4.7,0,1.1,0,.4-.4,1.3-.4h13.7v-11.7h0v10.2c1,0,1.9.4,2.2.6-.6,0-1.4,0-2.2,0v1.2h18.9c1,0,.2.4,1.3.4,2.2,0,3.1,0,4.7,0,.8.2.9.6-.7.7,5.8-.3,14.6-1.1,22.7-1.4,2.2,0,4.5.4,6,0,6.2.5,14.2,0,22.1,0s16.9,0,24.8,0,10.8.4,16.1,0c7.7.7,19.8-.4,26.1.3.2-.4,2-.4,3.3-.5,2.1,0,3.8,0,5.4.3,5.6-.2,14.7-.4,23.4,0,2.4,0,5.3.3,8.7.3,6.4,0,13-.2,19.4,0,4.4,0,9.3.4,14.1.3,5,0,12.2-.5,20.1-.5,13.2,0,29.8,0,44.8,0,11.3,0,26.5-.3,37.5,0,7.2,0,14,.2,21.4,0,13,0,26.4-.3,39.5-.4,6.7,0,13.5-.3,20.1-.3s9.4.5,14.1,0c19.3.7,38.2-.5,57.5-.3,1,0,1.8.2,2.7.3,3.9.2,8.2,0,12,0,9.1,0,18.7,0,26.8-.5,5.4.5,12.5.6,19.4.7.8,0,2.5-.2,3.3,0,2.9,0,4.2.6,6.7.8,4,.3,9.3.2,14.7.3,19.7.3,40.6.3,60.9.4,11,0,22.2.7,32.8,0,7.6.7,15,0,20.7,0,1.8,0,2.8.4,4.7.4s3.9-.4,6.7-.5h3.3c.6,0,1-.5,2-.5s2.9.3,3.3.3c1.1,0,1.6-.2,2.7-.3,1.7,0,4.5,0,6.7,0,4.2-.3,7.5-.4,10.7.3,4-.2,9.9-1.5,13.4-.5,0-.4,3.4-.7,4,0,1,0-.3-.2,0-.4,1.7,0,2.4,0,2,.4,2.8-.4,6.7-.8,9.4-.3,5.1,0,11.6-.3,15.4,0,.8,0,.6.2.7.4,1.9-.3,3,0,4.7,0,6.6,0,12.5-.6,17.4-.4.8-.2.3-.2,0-.4,2,0,6.3-.3,5.4.4,1-.5,3.1-.2,5.4,0,1.9.2-2.7.6-.7.8,6-.2,9.3-.3,14.7-.4-.3-.4-5.1,0-5.4-.3,1.8,0,3.9-.2,6-.3,2.1,0,4.2.2,6,.3-.3.4-5.1,0-5.4.3,5.4,0,8.7.2,14.7.4,2-.3-2.5-.6-.7-.8,2.2,0,4.4-.3,5.4,0-1-.7,3.4-.3,5.4-.4-.3.2-.8.2,0,.4,4.9-.2,10.8.5,17.4.4,1.7,0,2.7-.4,4.7,0,0-.2,0-.4.7-.4,3.8,0,10.3,0,15.4,0,2.6-.5,6.5,0,9.4.3-.4-.4.3-.5,2-.4.3.2-1,.3,0,.4.6-.5,3.9-.2,4,0,3.5-1,9.4.3,13.4.5,3.2-.7,6.5-.5,10.7-.3,2.2,0,5,0,6.7,0,1.1,0,1.6.3,2.7.3s2.7-.3,3.3-.3c1,0,1.4.5,2,.5h3.4c2.8.2,4.5.5,6.7.5s2.9-.3,4.7-.4c5.7-.2,13.2.6,20.8,0,10.6.7,21.8,0,32.8,0,20.3,0,41.2,0,60.9-.4,5.4,0,10.7,0,14.7-.3,2.5-.2,3.8-.7,6.7-.8.8,0,2.6,0,3.4,0,6.9,0,14-.2,19.4-.7,8,.5,17.7.4,26.8.5,3.8,0,8.1.3,12.1,0,.9,0,1.7-.3,2.7-.3,19.4-.3,38.3,1,57.6.3,4.6.5,9.4,0,14.1,0s13.4.2,20.1.3c13.1,0,26.6.3,39.5.4,7.4,0,14.3,0,21.4,0,11,0,26.2.2,37.5,0,15,0,31.7,0,44.9,0s15.1.4,20.1.5c4.7,0,9.6-.2,14.1-.3,6.4,0,13.1,0,19.4,0s6.3-.2,8.7-.3c8.7-.2,17.8,0,23.4,0,1.6,0,3.3-.2,5.4-.3,1.4,0,3.2.2,3.4.5,6.3-.7,18.5.5,26.1-.3,5.3.5,10.2,0,16.1,0s16.5,0,24.8,0,15.9.5,22.1,0c1.5.5,3.8,0,6,0,8.2.2,17,1.1,22.8,1.4-1.6,0-1.4-.5-.7-.7,1.6,0,2.5.2,4.7,0,1.1,0,.4-.4,1.3-.4h13.7v-24h-.7V29.5h.7V9.1c-1.2,0-2.5,0-2.9.3-1.6-.2.8-.5,2-.5-1.4-.7-2.4.3-4.8,0-1,.2,1.1.4-.2.5,0,.3,1.9-.1,1.4.3,0,.2-2.3,0-2.5.3-.9,0-.2-.5-1.9-.3.3-.2.6-.4,2-.4-.2-.3-1.2-.4-2.8-.4.7.4-.5.5-2,.5-.3.3,1,.2,1.8.2,0,.3-1.6.2-1.5.5-1.3,0-.8-.5-2-.6-1.7,0-.1,0-.3.3-1.8-.2-3.5,0-4.2.3-.8,0-1-.1-1.8,0,.2-.3,1.1-.2,2.1-.2s-.1-.4.7-.4c-.5-.3-1.9-.3-3.1-.1v-.2c.4-.3,2.7-.1,3.8-.2-2.5-.6-6.6.6-9.6,0,.3.2-.2.3-.2.4-7.4-.3-17.2.2-26.2.2h-5.3c-3.9,0-8-.1-11.5.1-3.4-.2-6.4-.5-8.6-1.1-4.3-.2-9.4-.2-10.7.5-4.1-.5-8.1,0-12,0s-3.1-.2-4.7-.3c-6.6-.1-11.1-.5-16.7-.1-1.7,0-2.1-.2-3.3-.3-2,0-5.8-.2-6.7.1-3.5-.5-7.3-.3-12-.3s-7.9-.2-12.7-.1c-2.7,0-4.8.2-8.7.3-4.3,0-8.2.4-12,.5-5.5.1-10.1,0-13.4.8-1.2-.1-3.3,0-4-.3-4.8,1.1-11.7,0-18.7.3-1.5,0-1-.3-2-.3-2.2,0-1.1.3-.7.4-2.5,0-3.5-.3-5.4-.4-1.9,0-1.6.3-2,.3-.9,0-1.6-.2-2.7-.1-2.9,0-4.9.5-8.7.5-.8-.3-1.4-.6-2-1-8.4-1.3-23.7.2-32.1-.3-2.7.6-9.1.5-14.1.7.4.5,4.6-.1,6.7.3-1.5.7-12.6-.1-12,1.1-2.5.2-.1-.6-2.7-.4v1c-1.3.4-4.2,0-6.7.3-.1,0-.6.3-.7.3-7,.2-14.8-.2-22.1,0-2.7,0-4.8.1-8,.1s-5.5.3-8,.3-1.3-.2-2-.3c-2-.1-5.6,0-8,0s-6.1-.3-8.7-.3c.8-.4,4.5,0,7.4-.3,2.1-.3,3.2-.8,6-1-.9-.8-6.5-.6-8.7-1.1,1.8-.5,5.4,0,9.4-.3-2.7-.7-16.1-.3-20.1-.4-2,.6,6.6.5,8,.4-1.7.7-8.1.4-12,.1-1.8.8-4.9-.2-6.7.5.7.4,2.8,0,4,0-1.8.7-6.6.2-6.7-.5.9-.4,3.6-.4,3.3-1.1-6.5-.2-15-.1-21.4,0-1.8.4.9.5,1.3.8-3,0-5,0-4.7-.7-5.8.5-9.3-.1-13.4,0-1.4,0-1.8-.3-2.7-.4-3.3,0-4.2.5-7.4.3.7.1,1.3.3,2,.4-4.7.6-7.8,0-12.7,0s.1-.5-2-.5-3.7,0-3.3.4c-1.1,0-2.2-.2-3.3-.1-1.7,0-.6.3-2,.4-1.8.1-5.2-.3-5.4.3-23-1.5-46.6-.6-76.3-1-2,0-2.3.4-4,.4-11.3,0-23.1,0-34.1.4-3.7.1-8.1.1-14.1.3-3.8,0-7.1.5-11.4-.1-5,.1-10.2,0-13.4.4-2.2,0-3.5-.2-4.7-.4-.9.2-2.5.6-4,.3-2-.2,1.4-.7-.7-1-3.4-.2-3.3.2-7.4-.1,2.6-.4,2.6-.6,4.7-.4,1.4-.1,2-.4,2-.8,2.2,0,2.8-.2,5.4-.1-2-.5-5.6-.6-5.4-1.5-6.2,0-12.8.7-16.7-.1-2.6,0-5.5.2-8.2.3v15.1h0V5.5h-3c-4,.8-10.6,0-16.7.1.2.9-3.4,1-5.4,1.5,2.5-.1,3.2.2,5.4.1,0,.4.6.7,2,.8,2.1-.2,2.1,0,4.7.4-4,.3-4,0-7.4.1-2.1.2,1.3.8-.7,1-1.5.3-3.1,0-4-.3-1.1.2-2.4.4-4.7.4-3.2-.4-8.4-.3-13.4-.4-4.2.6-7.6.2-11.4.1-6-.1-10.3-.2-14.1-.3-11-.3-22.8-.5-34.2-.4-1.7,0-2-.4-4-.4-29.7.4-53.4-.5-76.4,1,0-.6-3.6-.1-5.4-.3-1.4-.1-.3-.4-2-.4s-2.2.1-3.4.1c.3-.4-1.4-.4-3.3-.4s-1.3.5-2,.5c-4.9,0-8,.6-12.7,0,.7-.1,1.4-.3,2-.4-3.2.2-4.1-.2-7.4-.3-.9.1-1.3.4-2.7.4-4.1-.1-7.6.5-13.4,0,.3.6-1.7.7-4.7.7.5-.3,3.1-.5,1.3-.8-6.4-.1-14.9-.2-21.4,0-.3.7,2.4.7,3.3,1.1,0,.7-4.9,1.3-6.7.5,1.2,0,3.3.4,4,0-1.8-.8-4.9.3-6.7-.5-3.9.3-10.4.5-12.1-.1,1.4,0,10,.2,8-.4-4,0-17.4-.3-20.1.4,4,.2,7.6-.3,9.4.3-2.2.5-7.8.3-8.7,1.1,2.8.2,3.9.7,6,1,2.9.2,6.5-.1,7.4.3-2.6,0-5.7.2-8.7.3-2.4,0-6.1-.1-8,0-.7,0-.6.3-2,.3-2.5,0-6.4-.3-8-.3-3.2,0-5.3,0-8-.1-7.2-.2-15.1.2-22.1,0,0,0-.5-.3-.7-.3-2.5-.3-5.4,0-6.7-.3v-1c-2.5-.2,0,.6-2.7.4.5-1.2-10.6-.4-12.1-1.1,2.1-.4,6.3.2,6.7-.3-5-.2-11.4,0-14.1-.7-8.4.5-23.8-1-32.2.3-.6.3-1.2.7-2,1-3.8,0-5.8-.5-8.7-.5s-1.8.2-2.7.1c-.4,0-.2-.3-2-.3s-2.8.3-5.4.4c.4-.1,1.6-.5-.7-.4-1.1,0-.5.3-2,.3-7.1-.3-13.9.8-18.8-.3-.7.2-2.8.1-4,.3-3.3-.8-7.9-.7-13.4-.8-3.9,0-7.7-.5-12.1-.5s-6-.2-8.7-.3c-4.8-.1-9.2.1-12.7.1s-8.6-.2-12.1.3c-.9-.3-4.7,0-6.7-.1-1.3,0-1.7.3-3.3.3-5.6-.3-10.2,0-16.7.1-1.6,0-3.6.3-4.7.3-3.9,0-8-.5-12.1,0-1.3-.8-6.4-.8-10.7-.5-2.2.5-5.2.9-8.6,1.1-3.5-.3-7.6-.1-11.5-.1h-5.3c-9,0-18.8-.5-26.2-.2,0-.1-.5-.2-.3-.4-3,.6-7.1-.6-9.6,0,1.1,0,3.5,0,3.9.2v.2c-1.3-.2-2.7-.2-3.2.1.8,0,0,.4.7.4,1,0,2-.2,2.1.2h-1.8c-.8-.3-2.5-.5-4.2-.3-.2-.2,1.4-.3-.3-.3s-.7.6-2,.6c0-.3-1.6-.2-1.6-.5.8,0,2.1.2,1.8-.2-1.5,0-2.7,0-2-.5-1.6,0-2.6,0-2.8.4,1.4,0,1.7.2,2,.4-1.6-.2-1,.3-1.9.3-.2-.2-2.4,0-2.5-.3-.5-.4,1.5,0,1.4-.3-1.3-.2.8-.4-.2-.5-2.4.3-3.4-.7-4.8,0,1.2,0,3.6.3,2,.5-.5-.5-3.3-.2-4.6-.4-.7.1-.4.6-2,.5,0-.3.8-.2.2-.4-1.2,0-2.5-.1-2.7.1.5,0,1,0,.8.2-2.3-.2-3.3.5-4.4,0,.7-.2,2.2-.1,3.2-.2.3-.2-.5-.3,0-.3,0,.2.7,0,.9,0-2.4-.2-3.3.1-4.9.2,0,.4-1,.6-2.9.7,1.5.1-1.3.5.2.6.2-.2.8-.2,1.8-.2.3.3,0,.2.2.6,1.6,0,1.3-.4,3.2-.2,0,.1.3.1.3.2-.3.2-1.7,0-1.5.4,3.2.1,1.8-1,.5-1.1,2.4.2,3.5,0,5.1.2-.4.5-1.8.7-3.4.8,1,.3-.7.4-.7.5,0,0,2,.1,1.6.3-3.3,0-6.5.1-9.8.1s-.2,0-.2-.1c1.6,0,1.9-.2,2.4-.5-.5,0-1,0-.8-.2h-2.2c0,.3-1.3.6-2.4.9h-3.3c.4-.4,2.3-.3,3.3-.4-.6,0-1-.2-1.2-.4,1.2,0,2.4,0,2.3-.3-1-.3-2.3,0-3.9-.1,2.4-.5.6-.5,2.2-1-1.5-.3-1.9-.9-5.4-.8-.9-.2-.7-.6-2.3-.7-.2.4.5.7,0,1.2-.4.2-2.6-.1-2.3.3,1.5,0,2.1.3,3.3.4.2,0,2.6-.3,2.5.2-1.4.2-2.8.2-1.6.6h-3.1c-.3-.1-.6-.2-1-.3-1.4,0-2.7-.1-3.9-.1-.8-.1-1.4-.3-1.8-.4,0-.1.8,0,1-.2-1.2,0-.2-.4-1.1-.5-1.7.4,0,.5-.8.8-1.3,0-1.1-.2-2.1-.2,0,.2.8.3,1.3.4-4.1.1-6.9.6-9.9,1.2-6.2,0-13.1-.4-19.9-.7-.2,0-.3-.2-.7,0h-.4c.2-.1.5-.2.9-.3,1.5,0,2.7.2,4.7.2-.2-.4,2.2-.6,1.2-.8-.8,0-.9.3-1.5.4-3.7-.3-2.3-.4-2.2-.9,1.3.1,1.6,0,2.6,0,0,.2-.7.5.7.4-.9-.5,1.4-.8,3.8-.7,0-.1,0-.3.2-.4-.6-.4-1.7,0-2.5-.3.5-.1,1.3-.2,1.1-.5-2.9-.3-5-.3-8.3,0,.2.3,1.6.3,2.4.5-.4.1-.8.3-1.9.3-.5-.7-5-.5-5.6-1.1,0,.5-2.9,0-3.7.3,1.2,0,.7.2,1.2.4-.4.2-3.6,0-2.7.3,1.9,0,3.1.2,3.3.5-1.2-.2-2.8-.2-3.6.1.5.2,2.3,0,1.6.5,1.5,0,1.8-.3,3.2-.3,1,.3,2.4.5,2.7.9-1.8,0-1.6-.3-3.4-.3-1.1.2-2,.3-3.6.3-7.6-.6-16.7-.3-24-.2-1.6,0-2.6-.3-3.9-.1-.7.3,1.4.1.7.4-.8-.2-2.9-.2-2.3-.7-2.8.6-8.6.9-12.4.2-.7,0-.8.3-1.9.3-.8-.4-2.6-.5-4.5-.7-.3.3.7.3.2.5-1.3-.1-4.3.3-3.5.9,2.1,0,5.3.3,5.8-.2.2.2,1.2.2,1.6.4,0,.3-.8.3-1.1.5,1.5,0,2-.2,2.8-.4.9.2,3.2.3,3.1.9,1.9,0,1.9-.4,3.3-.5.7.1,1.4.3,2.2.5-2,.5-4.8.8-6.5,1.3h-.6c.7-.2,1.1-.4,1.1-.8-1.8-.2-1.9-.7-4-.9,0,.4-1.3.4-1.6.7,1.2,0,2.4,0,2,.4-1.2.5-4.3.1-5.6-.1.7-.1.4-.5,1.5-.5-.3.5,1.7,0,1.8-.2-1.4,0,.4-1-1.9-.7,1.2,0,0,.3-1,.2-.7.2,1.1.5-.2.5-1.5-.1,0-.9-1.8-.9.3.3,1,.7-.6.4,0,.5,2.4,1,1.1,1.4-1.8,0-3.4-.4-3.6.2.8.2,1.6,0,2.1.3,0,0,.2,0,.4-.1,0,0,.7.1,1.6,0h0,.9c.4.1,0,.4,1.2.4.7-.3.8,0,1.9-.4h.6c-.5,0-.9,0-1.1.1,1.9.3,3.8-.2,5.4.3-.5.2-1,.4-1.6.5-.4,0-.6-.1-1.4-.1,0,.2-.2.3-.7.4-1.7.1-3.9,0-7,0s-.2,0-.4.1c-.3,0-.7-.1-.8-.2-.9.2-.4.3.2.3-1,.1-2.3,0-3.6.2-1,0-1.2.3-2,.4h-3.1c-1.8-.2-3.7,0-5.9,0,0-.2-1.2-.2-.6-.6.2,0,.5,0,0-.1-.7.1-.8.4-1.5.5-1.6-.2-1.3-1-4.1-.6-.9-.5-2.8-.9-5.2-1.1-.3.3,1.6.3,1.5.6-1.5-.2-.4.4-1.4.3-.3-.4-2.2-.5-3.7-.6-1.4.5.9.8-.9,1,0-.1-.7-.1-.8-.2.6-.1.7-.4.2-.5h-1.3c.4.4-.9.4-2.2.5v-.3c-.5,0-1-.1-1.6-.1-.7.2-1.8.3-3,.3s-2.3-.1-3-.3c-.6,0-1.1,0-1.6.1v.3c-1.3,0-2.5,0-2.2-.5h-1.3c-.5.2-.4.4.2.5,0,.1-.8,0-.8.2-1.8-.2.6-.5-.9-1-1.5.2-3.3.2-3.7.6-1,0,0-.5-1.4-.3,0-.3,1.8-.2,1.5-.6-2.4.2-4.3.6-5.2,1.1-2.8-.3-2.5.4-4.1.6-.7-.1-.8-.4-1.5-.5-.5,0-.2.1,0,.1.5.3-.5.3-.6.6-2.2,0-4.1-.2-5.9,0h-3.1c-.8,0-1-.3-2-.4-1.3-.1-2.7,0-3.6-.2.6,0,1.1-.2.2-.3,0,.1-.6.2-.8.2s-.3,0-.4-.1h-7c-.4,0-.7-.2-.7-.4-.8,0-1.1,0-1.4.1-.6-.1-1.1-.3-1.6-.5,1.5-.4,3.5,0,5.4-.3-.2,0-.6-.1-1.1-.1h.6c1.1.3,1.2.1,1.9.4,1.2,0,.7-.2,1.2-.4h.9,0c.9.2,1.4.2,1.6,0,.2,0,.3,0,.4.1.5-.3,1.3,0,2.1-.3-.2-.6-1.8-.3-3.6-.2-1.2-.4,1.1-.9,1.1-1.4-1.6.2-.9-.1-.6-.4-1.9,0-.3.8-1.8.9-1.3,0,.4-.3-.2-.5-.8.1-2.1-.1-1-.2-2.3-.3-.5.7-1.9.7,0,.2,2.1.6,1.8.2,1.1,0,.9.4,1.5.5-1.3.3-4.4.7-5.6.1-.3-.3.8-.4,2-.4-.3-.3-1.7-.3-1.6-.7-2.1.1-2.2.7-4,.9,0,.4.4.6,1.1.8h-.6c-1.7-.5-4.5-.8-6.5-1.3.7-.2,1.5-.4,2.2-.5,1.4,0,1.4.5,3.3.5,0-.7,2.2-.7,3.1-.9.8.2,1.3.4,2.8.4-.3-.2-1.1-.2-1.1-.5.4-.2,1.4-.2,1.6-.4.5.5,3.6.2,5.8.2.8-.6-2.1-1-3.4-.9-.5-.3.5-.3.2-.5-1.9.1-3.7.3-4.5.7-1.1,0-1.2-.2-1.9-.3-3.7.6-9.5.4-12.3-.2.6.5-1.5.5-2.3.7-.7-.3,1.4-.1.7-.4-1.3-.2-2.3.1-3.9.1-7.3,0-16.4-.4-24,.2-1.6,0-2.6-.2-3.6-.3-1.8,0-1.6.3-3.4.3.2-.4,1.6-.6,2.7-.9,1.4,0,1.7.4,3.2.3-.7-.4,1.1-.3,1.5-.5-.7-.3-2.4-.3-3.6-.1.2-.4,1.4-.5,3.3-.5.9-.2-2.4,0-2.7-.3.4-.1,0-.4,1.2-.4-.8-.2-3.7.2-3.6-.3-.6.6-5.2.5-5.6,1.1-1.1,0-1.4-.1-1.9-.3.8-.2,2.2-.2,2.4-.5-3.3-.3-5.4-.3-8.3,0-.2.3.6.4,1.1.5-.8.3-1.9,0-2.5.3,0,.1,0,.3.2.4,2.4-.1,4.7.1,3.8.7,1.3,0,.7-.3.7-.4,1,0,1.4.1,2.6,0,0,.6,1.5.6-2.2.9-.6,0-.7-.3-1.5-.4-.9.2,1.4.4,1.2.8,2,0,3.2-.1,4.7-.2.5,0,.7.1.9.3h-.4c-.4-.1-.5,0-.7,0-6.8.2-13.6.6-19.8.7-3.1-.6-5.9-1.1-9.9-1.2.5-.1,1.4-.2,1.3-.4-1.1,0-.9.2-2.1.2-.8-.4.9-.5-.8-.8-.9,0,0,.5-1.1.5.2.1.9,0,1,.2-.4.2-1,.3-1.8.4-1.2,0-2.5,0-3.9.1-.4,0-.7.2-1,.3h-3.1c1.2-.4-.2-.4-1.6-.6,0-.5,2.4-.2,2.5-.2,1.2,0,1.8-.5,3.3-.4.2-.4-1.9,0-2.3-.3-.5-.5.2-.7,0-1.2-1.6,0-1.4.5-2.3.7-3.5,0-3.8.5-5.3.8,1.6.5-.2.5,2.2,1-1.6.1-2.9-.2-3.9.1,0,.3,1.1.3,2.3.3-.2.2-.6.3-1.2.4,1,.2,2.9,0,3.3.4h-3.3c-1.1-.3-2.3-.6-2.4-.9h-2.2c.2.2-.3.2-.8.2.5.3.8.6,2.4.5,0,0,0,.1-.2.1-3.3,0-6.6,0-9.8-.1-.4-.2,1.5-.3,1.6-.3,0,0-1.6-.2-.7-.5-1.6-.1-3-.3-3.4-.8,1.6-.3,2.8,0,5.1-.2-1.3.1-2.8,1.2.5,1.1.2-.4-1.2-.2-1.5-.4,0,0,.4-.1.3-.2,1.8-.2,1.6.3,3.2.2,0-.4-.2-.4.2-.6,1,0,1.6,0,1.8.2,1.5-.1-1.3-.5.2-.6-1.9,0-2.9-.3-2.9-.7-1.6,0-2.5-.4-4.9-.2.2.1.9.2.9,0,.7,0,0,.1,0,.3,1,.1,2.5,0,3.2.2-1.1.5-2-.2-4.4,0-.2-.2.3-.2.8-.2-.2-.3-1.5-.2-2.7-.1-.6.2,0,.1.2.4-1.6.1-1.2-.3-2-.5-1.3.2-4.1,0-4.6.4-1.6-.2.8-.5,2-.5-1.4-.7-2.4.3-4.8,0-1,.2,1.1.4-.2.5,0,.3,1.9-.1,1.4.3,0,.2-2.3,0-2.5.3-.9,0-.2-.5-1.9-.3.3-.2.6-.4,2-.4-.2-.3-1.2-.4-2.8-.4.7.4-.5.5-2,.5-.3.3,1,.2,1.8.2,0,.3-1.6.2-1.5.5-1.3,0-.8-.5-2-.6-1.7,0,0,0-.3.3-1.8-.2-3.5,0-4.2.3-.8,0-1-.1-1.8,0,.2-.3,1.1-.2,2.1-.2s0-.4.7-.4c-.5-.3-1.9-.3-3.1-.1v-.2c.4-.3,2.7-.1,3.8-.2-2.5-.6-6.6.6-9.6,0,.3.2-.2.3-.2.4-7.4-.3-17.2.2-26.2.2h-5.3c-3.9,0-8-.1-11.5.1-3.4-.2-6.4-.5-8.6-1.1-4.3-.2-9.4-.2-10.7.5-4.1-.5-8.1,0-12,0s-3.1-.2-4.7-.3c-6.6-.1-11.1-.5-16.7-.1-1.7,0-2.1-.2-3.3-.3-2,0-5.8-.2-6.7.1-3.5-.5-7.3-.3-12-.3s-7.9-.2-12.7-.1c-2.7,0-4.8.2-8.7.3-4.3,0-8.2.4-12,.5-5.5.1-10.1,0-13.4.8-1.2-.1-3.3,0-4-.3-4.8,1.1-11.7,0-18.7.3-1.5,0-1-.3-2-.3-2.2,0-1.1.3-.7.4-2.5,0-3.5-.3-5.4-.4-1.9,0-1.6.3-2,.3-.9,0-1.6-.2-2.7-.1-2.9,0-4.9.5-8.7.5-.8-.3-1.4-.6-2-1-8.4-1.3-23.7.2-32.1-.3-2.7.6-9.1.5-14.1.7.4.5,4.6-.1,6.7.3-1.5.7-12.6-.1-12,1.1-2.5.2,0-.6-2.7-.4v1c-1.3.4-4.2,0-6.7.3,0,0-.6.3-.7.3-7,.2-14.8-.2-22.1,0-2.7,0-4.8.1-8,.1s-5.5.3-8,.3-1.3-.2-2-.3c-2-.1-5.6,0-8,0s-6.1-.3-8.7-.3c.8-.4,4.5,0,7.4-.3,2.1-.3,3.2-.8,6-1-.9-.8-6.5-.6-8.7-1.1,1.8-.5,5.4,0,9.4-.3-2.7-.7-16.1-.3-20.1-.4-2,.6,6.6.5,8,.4-1.7.7-8.1.4-12,.1-1.8.8-4.9-.2-6.7.5.7.4,2.8,0,4,0-1.8.7-6.6.2-6.7-.5.9-.4,3.6-.4,3.3-1.1-6.5-.2-15-.1-21.4,0-1.8.4.9.5,1.3.8-3,0-5,0-4.7-.7-5.8.5-9.3-.1-13.4,0-1.4,0-1.8-.3-2.7-.4-3.3,0-4.2.5-7.4.3.7.1,1.3.3,2,.4-4.7.6-7.8,0-12.7,0s0-.5-2-.5-3.7,0-3.3.4c-1.1,0-2.2-.2-3.3-.1-1.7,0-.6.3-2,.4-1.8.1-5.2-.3-5.4.3-23-1.5-46.6-.6-76.3-1-2,0-2.3.4-4,.4-11.3,0-23.1,0-34.1.4-3.7.1-8.1.1-14.1.3-3.8,0-7.1.5-11.4-.1-5,.1-10.2,0-13.4.4-2.2,0-3.5-.2-4.7-.4-.9.2-2.5.6-4,.3-2-.2,1.4-.7-.7-1-3.4-.2-3.3.2-7.4-.1,2.6-.4,2.6-.6,4.7-.4,1.4-.1,2-.4,2-.8,2.2,0,2.8-.2,5.4-.1-2-.5-5.6-.6-5.4-1.5-6.2,0-12.8.7-16.7-.1-2.4,0-5.1.1-7.5.2v-.5h-3c-4,.8-10.6,0-16.7.1.2.9-3.4,1-5.4,1.5,2.5-.1,3.2.2,5.4.1,0,.4.6.7,2,.8,2.1-.2,2.1,0,4.7.4-4,.3-4,0-7.4.1-2.1.2,1.3.8-.7,1-1.5.3-3.1,0-4-.3-1.1.2-2.4.4-4.7.4-3.2-.4-8.4-.3-13.4-.4-4.2.6-7.6.2-11.4.1-6-.1-10.3-.2-14.1-.3-11-.3-22.8-.5-34.2-.4-1.7,0-2-.4-4-.4-29.7.4-53.4-.5-76.4,1-.1-.6-3.6-.1-5.4-.3-1.4-.1-.3-.4-2-.4s-2.2.1-3.4.1c.3-.4-1.4-.4-3.3-.4s-1.3.5-2,.5c-4.9,0-8,.6-12.7,0,.7-.1,1.4-.3,2-.4-3.2.2-4.1-.2-7.4-.3-.9.1-1.3.4-2.7.4-4.1-.1-7.6.5-13.4,0,.3.6-1.7.7-4.7.7.5-.3,3.1-.5,1.3-.8-6.4-.1-14.9-.2-21.4,0-.3.7,2.4.7,3.3,1.1-.1.7-4.9,1.3-6.7.5,1.2,0,3.3.4,4,0-1.8-.8-4.9.3-6.7-.5-3.9.3-10.4.5-12.1-.1,1.4,0,10,.2,8-.4-4,0-17.4-.3-20.1.4,4,.2,7.6-.3,9.4.3-2.2.5-7.8.3-8.7,1.1,2.8.2,3.9.7,6,1,2.9.2,6.5-.1,7.4.3-2.6,0-5.7.2-8.7.3-2.4,0-6.1-.1-8,0-.7,0-.6.3-2,.3-2.5,0-6.4-.3-8-.3-3.2,0-5.3,0-8-.1-7.2-.2-15.1.2-22.1,0,0,0-.5-.3-.7-.3-2.5-.3-5.4,0-6.7-.3v-1c-2.5-.2-.1.6-2.7.4.5-1.2-10.6-.4-12.1-1.1,2.1-.4,6.3.2,6.7-.3-5-.2-11.4,0-14.1-.7-8.4.5-23.8-1-32.2.3-.6.3-1.2.7-2,1-3.8,0-5.8-.5-8.7-.5s-1.8.2-2.7.1c-.4,0-.2-.3-2-.3s-2.8.3-5.4.4c.4-.1,1.6-.5-.7-.4-1.1,0-.5.3-2,.3-7.1-.3-13.9.8-18.8-.3-.7.2-2.8.1-4,.3-3.3-.8-7.9-.7-13.4-.8-3.9,0-7.7-.5-12.1-.5s-6-.2-8.7-.3c-4.8-.1-9.2.1-12.7.1s-8.6-.2-12.1.3c-.9-.3-4.7,0-6.7-.1-1.3,0-1.7.3-3.3.3-5.6-.3-10.2,0-16.7.1-1.6,0-3.6.3-4.7.3-3.9,0-8-.5-12.1,0-1.3-.8-6.4-.8-10.7-.5-2.2.5-5.2.9-8.6,1.1-3.5-.3-7.6-.1-11.5-.1h-5.3c-9,0-18.8-.5-26.2-.2,0-.1-.5-.2-.3-.4-3,.6-7.1-.6-9.6,0,1.1,0,3.5,0,3.9.2v.2c-1.3-.2-2.7-.2-3.2.1.8,0,.1.4.7.4,1,0,2-.2,2.1.2h-1.8c-.8-.3-2.5-.5-4.2-.3-.2-.2,1.4-.3-.3-.3s-.7.6-2,.6c0-.3-1.6-.2-1.6-.5.8,0,2.1.2,1.8-.2-1.5,0-2.7,0-2-.5-1.6,0-2.6,0-2.8.4,1.4,0,1.7.2,2,.4-1.6-.2-1,.3-1.9.3-.2-.2-2.4,0-2.5-.3-.5-.4,1.5,0,1.4-.3-1.3-.2.8-.4-.2-.5-2.4.3-3.4-.7-4.8,0,1.2,0,3.6.3,2,.5-.5-.5-3.3-.2-4.6-.4-.7.1-.4.6-2,.5,0-.3.8-.2.2-.4-1.2,0-2.5-.1-2.7.1.5,0,1,0,.8.2-2.3-.2-3.3.5-4.4,0,.7-.2,2.2-.1,3.2-.2.3-.2-.5-.3.1-.3,0,.2.7,0,.9,0-2.4-.2-3.3.1-4.9.2,0,.4-1,.6-2.9.7,1.5.1-1.3.5.2.6.2-.2.8-.2,1.8-.2.3.3,0,.2.2.6,1.6,0,1.3-.4,3.2-.2,0,.1.3.1.3.2-.3.2-1.7,0-1.5.4,3.2.1,1.8-1,.5-1.1,2.4.2,3.5,0,5.1.2-.4.5-1.8.7-3.4.8,1,.3-.7.4-.7.5,0,0,2,.1,1.6.3-3.3,0-6.5.1-9.8.1s-.2,0-.2-.1c1.6,0,1.9-.2,2.4-.5-.5,0-1,0-.8-.2h-2.2c0,.3-1.3.6-2.4.9h-3.3c.4-.4,2.3-.3,3.3-.4-.6,0-1-.2-1.2-.4,1.2,0,2.4,0,2.3-.3-1-.3-2.3,0-3.9-.1,2.4-.5.6-.5,2.2-1-1.5-.3-1.9-.9-5.4-.8-.9-.2-.7-.6-2.3-.7-.2.4.5.7,0,1.2-.4.2-2.6-.1-2.3.3,1.5,0,2.1.3,3.3.4.2,0,2.6-.3,2.5.2-1.4.2-2.8.2-1.6.6h-3.1c-.3-.1-.6-.2-1-.3-1.4,0-2.7-.1-3.9-.1-.8-.1-1.4-.3-1.8-.4,0-.1.8,0,1-.2-1.2,0-.2-.4-1.1-.5-1.7.4,0,.5-.8.8-1.3,0-1.1-.2-2.1-.2-.1.2.8.3,1.3.4-4.1.1-6.9.6-9.9,1.2-6.2,0-13.1-.4-19.9-.7-.2,0-.3-.2-.7,0h-.4c.2-.1.5-.2.9-.3,1.5,0,2.7.2,4.7.2-.2-.4,2.2-.6,1.2-.8-.8,0-.9.3-1.5.4-3.7-.3-2.3-.4-2.2-.9,1.3.1,1.6,0,2.6,0,0,.2-.7.5.7.4-.9-.5,1.4-.8,3.8-.7,0-.1.1-.3.2-.4-.6-.4-1.7,0-2.5-.3.5-.1,1.3-.2,1.1-.5-2.9-.3-5-.3-8.3,0,.2.3,1.6.3,2.4.5-.4.1-.8.3-1.9.3-.5-.7-5-.5-5.6-1.1,0,.5-2.9,0-3.7.3,1.2,0,.7.2,1.2.4-.4.2-3.6,0-2.7.3,1.9,0,3.1.2,3.3.5-1.2-.2-2.8-.2-3.6.1.5.2,2.3,0,1.6.5,1.5,0,1.8-.3,3.2-.3,1,.3,2.4.5,2.7.9-1.8,0-1.6-.3-3.4-.3-1.1.2-2,.3-3.6.3-7.6-.6-16.7-.3-24-.2-1.6,0-2.6-.3-3.9-.1-.7.3,1.4.1.7.4-.8-.2-2.9-.2-2.3-.7-2.8.6-8.6.9-12.4.2-.7,0-.8.3-1.9.3-.8-.4-2.6-.5-4.5-.7-.3.3.7.3.2.5-1.3-.1-4.3.3-3.5.9,2.1,0,5.3.3,5.8-.2.2.2,1.2.2,1.6.4,0,.3-.8.3-1.1.5,1.5,0,2-.2,2.8-.4.9.2,3.2.3,3.1.9,1.9,0,1.9-.4,3.3-.5.7.1,1.4.3,2.2.5-2,.5-4.8.8-6.5,1.3h-.6c.7-.2,1.1-.4,1.1-.8-1.8-.2-1.9-.7-4-.9,0,.4-1.3.4-1.6.7,1.2,0,2.4,0,2,.4-1.2.5-4.3.1-5.6-.1.7-.1.4-.5,1.5-.5-.3.5,1.7,0,1.8-.2-1.4,0,.4-1-1.9-.7,1.2,0-.1.3-1,.2-.7.2,1.1.5-.2.5-1.5-.1,0-.9-1.8-.9.3.3,1,.7-.6.4,0,.5,2.4,1,1.1,1.4-1.8,0-3.4-.4-3.6.2.8.2,1.6,0,2.1.3,0,0,.2,0,.4-.1.1,0,.7.1,1.6,0h-.1.9c.4.1,0,.4,1.2.4.7-.3.8,0,1.9-.4h.6c-.5,0-.9,0-1.1.1,1.9.3,3.8-.2,5.4.3-.5.2-1,.4-1.6.5-.4,0-.6-.1-1.4-.1,0,.2-.2.3-.7.4-1.7.1-3.9,0-7,0s-.2,0-.4.1c-.3,0-.7-.1-.8-.2-.9.2-.4.3.2.3-1,.1-2.3,0-3.6.2-1,0-1.2.3-2,.4h-3.1c-1.8-.2-3.7,0-5.9,0,0-.2-1.2-.2-.6-.6.2,0,.5,0,0-.1-.7.1-.8.4-1.5.5-1.6-.2-1.3-1-4.1-.6-.9-.5-2.8-.9-5.2-1.1-.3.3,1.6.3,1.5.6-1.5-.2-.4.4-1.4.3-.3-.4-2.2-.5-3.7-.6-1.4.5.9.8-.9,1,0-.1-.7-.1-.8-.2.6-.1.7-.4.2-.5h-1.3c.4.4-.9.4-2.2.5v-.3c-.5,0-1-.1-1.6-.1-.7.2-1.8.3-3,.3s-2.3-.1-3-.3c-.6,0-1.1,0-1.6.1v.3c-1.3,0-2.5,0-2.2-.5h-1.3c-.5.2-.4.4.2.5,0,.1-.8,0-.8.2-1.8-.2.6-.5-.9-1-1.5.2-3.3.2-3.7.6-1,0,0-.5-1.4-.3,0-.3,1.8-.2,1.5-.6-2.4.2-4.3.6-5.2,1.1-2.8-.3-2.5.4-4.1.6-.7-.1-.8-.4-1.5-.5-.5,0-.2.1,0,.1.5.3-.5.3-.6.6-2.2,0-4.1-.2-5.9,0h-3.1c-.8,0-1-.3-2-.4-1.3-.1-2.7,0-3.6-.2.6,0,1.1-.2.2-.3-.1.1-.6.2-.8.2s-.3,0-.4-.1h-7c-.4,0-.7-.2-.7-.4-.8,0-1.1,0-1.4.1-.6-.1-1.1-.3-1.6-.5,1.5-.4,3.5,0,5.4-.3-.2,0-.6-.1-1.1-.1h.6c1.1.3,1.2.1,1.9.4,1.2,0,.7-.2,1.2-.4h.9-.1c.9.2,1.4.2,1.6,0,.2,0,.3,0,.4.1.5-.3,1.3,0,2.1-.3-.2-.6-1.8-.3-3.6-.2-1.2-.4,1.1-.9,1.1-1.4-1.6.2-.9-.1-.6-.4-1.9,0-.3.8-1.8.9-1.3,0,.4-.3-.2-.5-.8.1-2.1-.1-1-.2-2.3-.3-.5.7-1.9.7,0,.2,2.1.6,1.8.2,1.1,0,.9.4,1.5.5-1.3.3-4.4.7-5.6.1-.3-.3.8-.4,2-.4-.3-.3-1.7-.3-1.6-.7-2.1.1-2.2.7-4,.9,0,.4.4.6,1.1.8h-.6c-1.7-.5-4.5-.8-6.5-1.3.7-.2,1.5-.4,2.2-.5,1.4,0,1.4.5,3.3.5-.1-.7,2.2-.7,3.1-.9.8.2,1.3.4,2.8.4-.3-.2-1.1-.2-1.1-.5.4-.2,1.4-.2,1.6-.4.5.5,3.6.2,5.8.2.8-.6-2.1-1-3.4-.9-.5-.3.5-.3.2-.5-1.9.1-3.7.3-4.5.7-1.1,0-1.2-.2-1.9-.3-3.7.6-9.5.4-12.3-.2.6.5-1.5.5-2.3.7-.7-.3,1.4-.1.7-.4-1.3-.2-2.3.1-3.9.1-7.3,0-16.4-.4-24,.2-1.6,0-2.6-.2-3.6-.3-1.8,0-1.6.3-3.4.3.2-.4,1.6-.6,2.7-.9,1.4,0,1.7.4,3.2.3-.7-.4,1.1-.3,1.5-.5-.7-.3-2.4-.3-3.6-.1.2-.4,1.4-.5,3.3-.5.9-.2-2.4,0-2.7-.3.4-.1,0-.4,1.2-.4-.8-.2-3.7.2-3.6-.3-.6.6-5.2.5-5.6,1.1-1.1,0-1.4-.1-1.9-.3.8-.2,2.2-.2,2.4-.5-3.3-.3-5.4-.3-8.3,0-.2.3.6.4,1.1.5-.8.3-1.9,0-2.5.3,0,.1.1.3.2.4,2.4-.1,4.7.1,3.8.7,1.3,0,.7-.3.7-.4,1,0,1.4.1,2.6,0,0,.6,1.5.6-2.2.9-.6,0-.7-.3-1.5-.4-.9.2,1.4.4,1.2.8,2,0,3.2-.1,4.7-.2.5,0,.7.1.9.3h-.4c-.4-.1-.5,0-.7,0-6.8.2-13.6.6-19.8.7-3.1-.6-5.9-1.1-9.9-1.2.5-.1,1.4-.2,1.3-.4-1.1,0-.9.2-2.1.2-.8-.4.9-.5-.8-.8-.9,0,.1.5-1.1.5.2.1.9,0,1,.2-.4.2-1,.3-1.8.4-1.2,0-2.5,0-3.9.1-.4,0-.7.2-1,.3h-3.1c1.2-.4-.2-.4-1.6-.6,0-.5,2.4-.2,2.5-.2,1.2,0,1.8-.5,3.3-.4.2-.4-1.9,0-2.3-.3-.5-.5.2-.7,0-1.2-1.6,0-1.4.5-2.3.7-3.5,0-3.8.5-5.3.8,1.6.5-.2.5,2.2,1-1.6.1-2.9-.2-3.9.1,0,.3,1.1.3,2.3.3-.2.2-.6.3-1.2.4,1,.2,2.9,0,3.3.4h-3.3c-1.1-.3-2.3-.6-2.4-.9h-2.2c.2.2-.3.2-.8.2.5.3.8.6,2.4.5,0,0,0,.1-.2.1-3.3,0-6.6,0-9.8-.1-.4-.2,1.5-.3,1.6-.3,0,0-1.6-.2-.7-.5-1.6-.1-3-.3-3.4-.8,1.6-.3,2.8,0,5.1-.2-1.3.1-2.8,1.2.5,1.1.2-.4-1.2-.2-1.5-.4,0,0,.4-.1.3-.2,1.8-.2,1.6.3,3.2.2.1-.4-.2-.4.2-.6,1,0,1.6,0,1.8.2,1.5-.1-1.3-.5.2-.6-1.9,0-2.9-.3-2.9-.7-1.6,0-2.5-.4-4.9-.2.2.1.9.2.9,0,.7,0-.1.1.1.3,1,.1,2.5,0,3.2.2-1.1.5-2-.2-4.4,0-.2-.2.3-.2.8-.2-.2-.3-1.5-.2-2.7-.1-.6.2,0,.1.2.4-1.6.1-1.2-.3-2-.5-1.3.2-4.1,0-4.6.4-1.6-.2.8-.5,2-.5-1.4-.7-2.4.3-4.8,0-1,.2,1.1.4-.2.5,0,.3,1.9-.1,1.4.3,0,.2-2.3,0-2.5.3-.9,0-.2-.5-1.9-.3.3-.2.6-.4,2-.4-.2-.3-1.2-.4-2.8-.4.7.4-.5.5-2,.5-.3.3,1,.2,1.8.2,0,.3-1.6.2-1.5.5-1.3,0-.8-.5-2-.6-1.7,0-.1,0-.3.3-1.8-.2-3.5,0-4.2.3-.8,0-1-.1-1.8,0,.2-.3,1.1-.2,2.1-.2s-.1-.4.7-.4c-.5-.3-1.9-.3-3.1-.1v-.2c.4-.3,2.7-.1,3.8-.2-2.5-.6-6.6.6-9.6,0,.3.2-.2.3-.2.4-7.4-.3-17.2.2-26.2.2h-5.3c-3.9,0-8-.1-11.5.1-3.4-.2-6.4-.5-8.6-1.1-4.3-.2-9.4-.2-10.7.5-4.1-.5-8.1,0-12,0s-3.1-.2-4.7-.3c-6.6-.1-11.1-.5-16.7-.1-1.7,0-2.1-.2-3.3-.3-2,0-5.8-.2-6.7.1-3.5-.5-7.3-.3-12-.3s-7.9-.2-12.7-.1c-2.7,0-4.8.2-8.7.3-4.3,0-8.2.4-12,.5-5.5.1-10.1,0-13.4.8-1.2-.1-3.3,0-4-.3-4.8,1.1-11.7,0-18.7.3-1.5,0-1-.3-2-.3-2.2,0-1.1.3-.7.4-2.5,0-3.5-.3-5.4-.4-1.9,0-1.6.3-2,.3-.9,0-1.6-.2-2.7-.1-2.9,0-4.9.5-8.7.5-.8-.3-1.4-.6-2-1-8.4-1.3-23.7.2-32.1-.3-2.7.6-9.1.5-14.1.7.4.5,4.6-.1,6.7.3-1.5.7-12.6-.1-12,1.1-2.5.2-.1-.6-2.7-.4v1c-1.3.4-4.2,0-6.7.3-.1,0-.6.3-.7.3-7,.2-14.8-.2-22.1,0-2.7,0-4.8.1-8,.1s-5.5.3-8,.3-1.3-.2-2-.3c-2-.1-5.6,0-8,0s-6.1-.3-8.7-.3c.8-.4,4.5,0,7.4-.3,2.1-.3,3.2-.8,6-1-.9-.8-6.5-.6-8.7-1.1,1.8-.5,5.4,0,9.4-.3-2.7-.7-16.1-.3-20.1-.4-2,.6,6.6.5,8,.4-1.7.7-8.1.4-12,.1-1.8.8-4.9-.2-6.7.5.7.4,2.8,0,4,0-1.8.7-6.6.2-6.7-.5.9-.4,3.6-.4,3.3-1.1-6.5-.2-15-.1-21.4,0-1.8.4.9.5,1.3.8-3,0-5,0-4.7-.7-5.8.5-9.3-.1-13.4,0-1.4,0-1.8-.3-2.7-.4-3.3,0-4.2.5-7.4.3.7.1,1.3.3,2,.4-4.7.6-7.8,0-12.7,0s.1-.5-2-.5-3.7,0-3.3.4c-1.1,0-2.2-.2-3.3-.1-1.7,0-.6.3-2,.4-1.8.1-5.2-.3-5.4.3-23-1.5-46.6-.6-76.3-1-2,0-2.3.4-4,.4-11.3,0-23.1,0-34.1.4-3.7.1-8.1.1-14.1.3-3.8,0-7.1.5-11.4-.1-5,.1-10.2,0-13.4.4-2.2,0-3.5-.2-4.7-.4-.9.2-2.5.6-4,.3-2-.2,1.4-.7-.7-1-3.4-.2-3.3.2-7.4-.1,2.6-.4,2.6-.6,4.7-.4,1.4-.1,2-.4,2-.8,2.2,0,2.8-.2,5.4-.1-2-.5-5.6-.6-5.4-1.5-6.2,0-12.8.7-16.7-.1-2.6,0-5.5.2-8.2.3v15.3H-.5v163.1H.2h-.9ZM3206.3,193.5c-1.3-.3-1.2,0-3.3,0-1-.4,4.4-.4,3.3,0ZM2877.7,193.5c-2.1,0-2.1-.3-3.3,0-1-.4,4.4-.4,3.3,0ZM1603.1,193.6c-1.3-.3-1.2,0-3.3,0-1-.4,4.4-.4,3.3,0ZM1274.4,193.6c-2.1,0-2.1-.3-3.3,0-1-.4,4.4-.4,3.3,0ZM633.8,193.8c.7,0,1.3.3,1.5.4-.4,0-1,0-1.5,0v-.6h0Z"/>
</svg>