<?xml version="1.0" encoding="UTF-8"?>
<svg id="Layer_1" xmlns="http://www.w3.org/2000/svg" xmlns:xlink="http://www.w3.org/1999/xlink" version="1.1" viewBox="0 0 20 20">
  <!-- Generator: Adobe Illustrator 29.0.1, SVG Export Plug-In . SVG Version: 2.1.0 Build 192)  -->
  <defs>
    <style>
      .st0 {
        fill: none;
      }

      .st1 {
        fill: #8c4566;
      }

      .st2 {
        clip-path: url(#clippath);
      }
    </style>
    <clipPath id="clippath">
      <rect class="st0" width="20" height="20"/>
    </clipPath>
  </defs>
  <g class="st2">
    <g id="Group_100">
      <path id="Path_497" class="st1" d="M15.1,18.9l-3.4-2.1c-.6-.4-1.4-.3-2,.2l-3,2.6c-.7.6-1.8.5-2.4-.2-.3-.4-.5-1-.4-1.5l.9-3.9c.2-.7-.1-1.5-.8-1.9l-3.4-2.1C0,9.5-.2,8.5.2,7.7c.3-.5.8-.8,1.3-.8l3.9-.3c.7,0,1.3-.6,1.5-1.3l.9-3.9c.2-.9,1.1-1.5,2-1.3.5.1.9.5,1.2,1l1.5,3.7c.3.7,1,1.1,1.7,1l3.9-.3c.9,0,1.7.6,1.8,1.6,0,.5-.2,1.1-.6,1.4l-3,2.6c-.5.5-.7,1.3-.5,1.9l1.5,3.7c.4.9,0,1.9-.9,2.2-.5.2-1.1.2-1.5-.1"/>
    </g>
  </g>
</svg>