<?xml version="1.0" encoding="UTF-8"?>
<svg id="Layer_1" xmlns="http://www.w3.org/2000/svg" version="1.1" viewBox="0 0 3840 200">
  <!-- Generator: Adobe Illustrator 29.0.1, SVG Export Plug-In . SVG Version: 2.1.0 Build 192)  -->
  <defs>
    <style>
      .st0 {
        fill: #dab5c3;
      }
    </style>
  </defs>
  <path class="st0" d="M1391.9,10.1c0-.5-2.6,0-3.9-.4-.6.7,2.1.6,3.9.4Z"/>
  <path class="st0" d="M1315.5,8.2c-.4,0-.8,0-.6-.1h-1.3c-1,.4,2.2.4,1.9.1Z"/>
  <path class="st0" d="M1327.8,8.2c.2-.4-.2-.6-1.9-.6-.2.4.2.6,1.9.6Z"/>
  <path class="st0" d="M1323.3,7.3c-1.1,0-1.7.1-1.9.3,1,0,2.2,0,1.9-.3Z"/>
  <path class="st0" d="M1269.6,5.6c2.2.2,9.7.2,6.5-.3h-.1c5.7,0,9.3.3,11.7-.4-2.6-.2-11.1.2-16.2-.1-.5.5,1.8.3,1.3.7-.9,0-5.3,0-3.2,0Z"/>
  <path class="st0" d="M1219.1,4.5c3.2-.3,6.9.3,9-.4-1.4-.4-2.9.1-4.5.1s-1-.3-1.9-.3c0,0-.9.3-1.3.3-1,0-3.6-.2-1.3.3Z"/>
  <path class="st0" d="M1219.1,4.5s0,0,0,0c0,0,0,0,0,0h0Z"/>
  <path class="st0" d="M1217.1,4.3c-1.6.2-2.7-.4-3.2,0,.4,0,3.1.3,3.2,0Z"/>
  <path class="st0" d="M1285.7,3.8c-1,0-1.6-.2-2.6-.3-.7.4,2.2.6,2.6.3Z"/>
  <path class="st0" d="M1391.9,9.4c-.7,0-.8,0-1.3,0,0,0-.5-.2-.6,0,.4.3,3.5,0,1.9,0Z"/>
  <path class="st0" d="M1199.5,4.7h0c1.4-.2,2.6,0,4.5,0-1.2-.9-10.9-1.1-13-.6,3.3.3,8.9.2,8.4.6Z"/>
  <path class="st0" d="M1812.9.2h0c.4-.1.7-.2,0-.2-.2.2-1.1.2-1.3.4.8,0,1.8,0,1.9-.1-.4,0-.8,0-.6,0Z"/>
  <path class="st0" d="M839.7,13.6h0c.9,0,1-.3,1.9-.3h2v.2c1.3,0,2,0,1.9-.3h-1.9c-2.4-.4-5-.3-7.6-.2,1.1,0,2.1,0,3.1.2,0,.2.5.3.6.4Z"/>
  <path class="st0" d="M612.6,8.1h-1.3c0,.1-.3.1-.6.1-.3.3,2.9.2,1.9-.1Z"/>
  <path class="st0" d="M600.3,7.6c-1.7,0-2.1.2-1.9.6,1.7,0,2.1-.2,1.9-.6Z"/>
  <path class="st0" d="M602.8,7.3c-.3.3.9.3,1.9.3-.3-.2-.8-.3-1.9-.3Z"/>
  <path class="st0" d="M211.4,7.5c1,0,1.1,0,1.9,0,.3-.3-2.9-.2-1.9,0Z"/>
  <path class="st0" d="M650.1,5.3h0c-3.2.5,4.3.5,6.5.3,2.1-.2-2.3,0-3.2,0-.5-.5,1.8-.3,1.3-.7-5.1.4-13.5,0-16.2.1,2.4.8,5.9.3,11.6.4Z"/>
  <path class="st0" d="M707,4.5c2.3-.5-.3-.2-1.3-.3-.3,0-1.4-.3-1.3-.3-.9,0-1.8.3-1.9.3-1.6,0-3.1-.5-4.5-.1,2,.8,5.8.1,9,.4Z"/>
  <path class="st0" d="M707.1,4.5s0,0,0,0c0,0,0,0,0,0h0Z"/>
  <path class="st0" d="M712.2,4.3c-.6-.4-1.6.2-3.2,0,.2.3,2.8,0,3.2,0Z"/>
  <path class="st0" d="M643,3.5c-1,0-1.6.2-2.6.3.4.4,3.3,0,2.6-.3Z"/>
  <path class="st0" d="M219.2.6c-.6-.4-2.6-.4-4.5-.4.3.7,2.1.6,4.5.4Z"/>
  <path class="st0" d="M832,13.5s0,0,0,0c0,.1,0,.3.2.3,0,0-.1,0-.2,0h0c0,0,0,0,.1,0,.2,0,.6.1,1.2,0,0,0-.1,0-.2-.1,1.4,0,2.3-.1,3.9,0,0-.4-1.9-.3-1.9-.7-2.3.3-2.7,0-4.5,0,0,.3.8.3,1.3.5Z"/>
  <path class="st0" d="M726.4,4.7c-.4-.4,5.1-.3,8.4-.6-2.1-.5-11.8-.4-12.9.6,1.9,0,3.2-.2,4.5,0Z"/>
  <path class="st0" d="M113.1.2c0,.2,1,.1,1.7.1-.3-.1-.9-.1-1.1-.3-.7,0-.4,0,0,0,0,.1-.3.1-.6.1Z"/>
  <path class="st0" d="M115,.3c0,0-.1,0-.2,0,0,0,.2,0,.2,0h0Z"/>
  <path class="st0" d="M831.4,13c0,0-.2-.1-.3-.1,0,0,0,0,0,0,0,0,.2,0,.3,0Z"/>
  <path class="st0" d="M830.9,12.8c0,0,.1,0,.2,0,0,0,0-.2-.2-.3h-.5v.4h.7-.2Z"/>
  <path class="st0" d="M831.7,13c-.1,0-.2,0-.3,0,0,0,0,0,0,0h.3Z"/>
  <path class="st0" d="M3311.7,10.3c.1-.5-2.6,0-3.9-.4-.6.7,2.1.6,3.9.4Z"/>
  <path class="st0" d="M3303.3,10v-.6h-1.9c-.1.4,1,.5,1.9.6Z"/>
  <path class="st0" d="M3295.5,9.8c-.1-.2.2-.5-.6-.6-.5,0-1.6.7.6.6Z"/>
  <path class="st0" d="M3235.3,8.4h0c-.4,0-.8,0-.6-.1h-1.3c-1,.4,2.2.4,1.9.1Z"/>
  <path class="st0" d="M3247.6,8.4c.2-.4-.2-.6-1.9-.6-.2.4.2.6,1.9.6Z"/>
  <path class="st0" d="M3243,7.5c-1.1,0-1.7,0-1.9.3,1,0,2.2,0,1.9-.3Z"/>
  <path class="st0" d="M3634.9,7.6c1-.4-2.2-.4-1.9,0,.8,0,.9.2,1.9,0Z"/>
  <path class="st0" d="M425.5,186.4s0,0,0,0c0,0,0,0,0,0h-.1Z"/>
  <path class="st0" d="M2345.2,186.5s0,0,0,0c0,0,0,0,0,0h-.1Z"/>
  <path class="st0" d="M3420.4,186.5s0,0,0,0c0,0,0,0,0,0h-.1Z"/>
  <path class="st0" d="M1500.7,186.4s0,0,0,0c0,0,0,0,0,0h0Z"/>
  <path class="st0" d="M3828.4,8.7c-.2-.1-.7-.2-1.5-.3-.7.2-.2.3.1.4-.4,0-.8,0-1.2.1-1,0-1.7,0-3.7,0,0-.2-.1-.3-.5-.4-2,0-2.4.2-4.3.1-.1-.4,2.9-.1,2.9-.6-3.2.2-6.1,0-9-.1,1-.3,3.9-.2,4.8-.6-.7-.4-4-.2-4.8-.6,1-.2,1.4,0,2.9,0,.2-.3-.9-.2-.5-.6,1.1,0,1,.2,2.4.1-.6-.5-3.7-.4-5.7-.6-1.2.2,1.5.4,0,.7-1.1,0-1.8-.2-3.3-.1,0-.1.6-.2.5-.3-15.5.2-31.5.8-46.1.8-1.4,1.3-10.5.8-14.3,1.6,0,1-4.2,1-5.7,1.7-4.3-.3-9.3-.5-11.4-1.3,2.3-.4,4.4-.9,5.7-1.6-.8-.1-.9-.4-1.4-.6-5.1,0-10.4.2-8.6-1.3-7.1-.6-10.9-.7-19.5-.8-2-.3-3.8-.6-5.7-.7.6-.2,2.8,0,2.9-.3-3-.1-6.6-.3-9.5-.1.2.6,2,.4,3.3.6-.6.2-1.2.4-1.9.6.1-.2-.5-.2-.5-.4-6.5,0-8.8,0-15.2-.2-1.2.3.7.6-.9.8,0-.2-.4-.3-1-.3v.4c-.9-.4-2.4,0-2.8-.4-2.5,0,1.8.3,0,.6-5.8,0-10.1-.3-13.8.2-4.5-.3-9.8-.3-14.7,0-.9,0-1.7-.1-2.5-.2-.2,0-.9-.1-1.4,0-4.5-.1-8.2.2-12.8-.1.5,0,.6-.2,0-.2-1.6.4-5,.5-7.6.4-.6,0-.5-.2-1-.2,0,0-2.3,0-2.4,0-3.4,0-7.9,0-11.4,0-1.7,0-3.1.3-4.8.3-4.2,0-9.1-.5-12.4.2-1.9-.4-5.3.3-6.7-.3-6.2.1-12.5-.4-18.1,0-2.6-.2-5.6-.5-8.6-.3-.9,0-1.4.2-2.4.2-2.9,0-5.5-.3-8.6-.1-.6,0-1.1.2-1.9.2-5,0-10.2-.4-15.7-.2-1.2,0-2.1.2-3.3.2-9.6.3-16.9.2-25.2.1-5.7,0-10.2.2-13.8-.1,1.1-.3-1.1-.6-2.9-.7-.6.2-.6.5-1.4.6-1.4-.3-4,.5-5.2-.1,0,.1-.1.3-1,.2-.5-.1-1-.2-1.4-.3-8.4.4-21.2.4-30-.2.7,0,1.6,0,1.4-.2-1.7.2-1.3-.1-2.8-.2-.1.3,1.5.4.5.7-9.1-.7-16.8.6-23.3-.1v.9c-9.5.7-18.6,0-28-.2-.5-.2-1.2-.4-1.9-.6-1.7.2-2.3,0-3.8.1-.2.2.7.3,0,.3-3.6,0-5.7-.9-8.1-.3-4.2-.2-10.9-.3-13.3.3-.5-.1-.2-.4-1.4-.3,0,.2.2.4-.5.4-3.3-.1-6.7.2-9.5-.2-.5.2,1.4.4,0,.4-.9-.3-1.6-.6-3.3-.2.6,0,1.1.1,1.4.2-1.8,0-2.4.3-3.3.6-2.7-.2-6.3-.2-10.5-.3-.4.3-.6.6-1.9.7.6.5,1.9.2,3.3.6.1-.2-.5-.6,1-.4.5,0,.7.1.9.2-.8,0-.8.3-1.4.4-1.4,0-1.5-.3-2.9-.2-1.4.6-2.6,0-3.8.6-9.3-.3-16.9-.1-25.5.2-1.4,0-2.8-.2-4-.3,1,0,2.2,0,1.9-.3-2.3.3-1.8-.2-3.9-.3-.2.4,2.1.6.6.9-4.4-.4-8.5-.4-12.4-.3-.3,0-.6,0-.8-.2.6,0,1.3.1,2.4.1-.4-.3-1.8-.4-3.3-.4-1.6.2-2.9.4-3.8.7,1,0,1.7,0,2,0-1.9,0-3.7.2-5.4.2-.1,0-.2-.1-.4-.2-.5.1-2.3.1-2.9,0,1-.4,3-.5,3.8-.9,1.7.6,7.5.4,7.1-.4-2.8-.3-5.5-.7-8.6-.2-.7,0,0-.4-1-.4-2,.5-5.3.7-10,.7-.2.2.7.3,0,.3-1.7.3-2.6-.4-3.8-.1,2.6.2-.7.5-1.4.4-.4.3,1.3.2.9.6-3.4,0-6.5.4-8.6,0,1.9,0,4.1,0,3.8-.6-2.4.2-2.4,0-4.3-.2-5.3.8-15.5-1.1-19,.3.8,0,2.4-.1,1.9.2h-3.3c-.7-.2-.1-.6-1.9-.6.4.4.4.6,0,1-1.1-.4-4.6.4-5.7-.3-2.7.4-3.8-.1-6.7.2,0,.1.1.4-.3.4-1.9-.2-3.5-.5-5.1-.4-2.5-.2-6-.1-7.9,0,0,0,0,.1,0,.2-.9,0-1.9,0-2.8,0,.2,0,.4-.1.4-.3-1.2-.1-4.3.2-5.7.1,0,.1.2.2.4.3-.8,0-1.6,0-2.3.2-.1,0-.1-.2,0-.3-2.3-.1-2.7.2-2.8.3-.2-.1-.4-.2-1.4-.2,0,0,0,.1,0,.2-.5,0-1.1,0-1.6,0,0,0,0,0,0-.1-.6,0-1.1,0-2.3,0,.2,0,.4,0,.6,0-1.1,0-2.2,0-3.2-.1,0,0,.1-.1.2-.2-2.4,0-4.4-.1-6.3-.4-.3,0-1,0-1.1,0-1.2.3-2.2,0-3.2,0-1.2-.1-2.4-.2-3.7-.2-2.7,0-5.4,0-8-.2-1,0-2.3,0-3.8,0-.2,0-.8-.1-1.7-.3.8,0,1.3,0,1.6-.1.5,0,.9-.2,1.5-.3.8.1,1.4.3,2.1.4.7,0,1.4-.2,2-.3-.5-.2-.9-.3-1.2-.4-2.2,0-4.1,0-6.2,0,.8.5-1.2.6-1.7,1-1.6,0-3.2-.2-4.8-.3-1.7,0-3.6,0-4.9-.2-.3-.2-.5-.4-.7-.6-3.2,0-6.1,0-9.2-.1-1,.3-2.1.5-3.1.8-1-.1-1.1-.3-.6-.5.6,0,1.1,0,1.9,0-1.2-.1-2.2-.2-3.1-.3-.2,0-.4,0-.6,0-.1.2-.2.4-.3.5-.1,0-.3,0-.4,0-.4.1-.8.3-1.1.4-1.3,0-2.3,0-3.3,0-.3.3-1.5.3-2.6.4-.6-.2-1.2-.3-1.7-.5-.1,0-.3,0-.5.1-.5,0-1.2,0-1.9,0-.6,0-1.3-.1-2-.2,0-.2,0-.4,0-.6-1,.1-1.8.2-2.8.3.8.1,1.2.2,2,.3-.8.1-1.3.2-2.1.3,0-.2-.1-.3-.1-.3-.6-.2-1-.4-1.1-.4-2.4-.3-4.6.2-6.6-.1-.2,0-.3.2-.5.3-.9,0-1.6-.2-2.5-.2-.9,0-1.9,0-2.7,0-.9,0-1.6,0-2.5,0-.9,0-1.9,0-3.1,0,.1.3-.9.5-2,.7-.6,0-1.1-.1-2-.3-.3.1-.6.3-.9.3-1.2,0-2.3,0-2.6-.2.6-.4,2-.1,3-.3,0,0,0-.1,0-.2-1.8,0-3.5-.2-5.1-.3-1.3.3-2.4.5-3.6.8-1,.1-2.1-.1-3.4,0-1.3.2-2.3-.2-3.6-.2-.3,0-.7,0-.9,0-.6.2-1.3,0-2,0-1,0-1.8,0-2.8-.2-1.9-.2-3.8,0-5.6.2-.1,0-.2,0-.4.2.3,0,.6.2.9.3,1.4,0,3,.1,4.5,0,1.4.3,3,0,4.5,0,1.6,0,3.2,0,4.7,0,.2-.1.3-.2.5-.4.2.2.3.3.4.4.9,0,1.8,0,2.6,0,.2,0,.4-.2.5-.3.5,0,1,0,1.4,0,.1.1.2.2.2.2.8.1,1.4.2,2,.3,0,0,.1,0,.2,0,.1-.2.3-.4.4-.5.5,0,.7,0,.9,0,0,.2,0,.3.2.5.7-.2,1-.3,1.6-.4,1.6,0,3.6,0,5.3,0,.6.2.9.2,1.3.4.5-.2,1.1-.3,1.8-.5.2.2.4.3.5.4.9,0,1.8,0,3,0,.2,0,.5-.2.6-.2,1.4,0,2.3.2,3.2.1.5,0,.9,0,1.3,0,.5-.2,1.3-.1,2,0,.4,0,.9,0,1.2.1.2-.1.3-.2.4-.3,1.4,0,2.7.2,4,.2.8,0,1.6,0,2.2-.1.6.2,1.6.2,2.5.2,1.8,0,3.5,0,5.3,0,2.1-.2,4.2.3,6.5.1,2.2.3,4.6.1,6.9.2.4,0,.9,0,1.4-.1.9.3,2,.2,3,0,1.5.2,2.8.2,4.4.1,1.1,0,2.4-.1,3.1,0,.8,0,1.8-.1,2.1,0,.7.2,1.5.1,2.2.2,1.1,0,2.2,0,3.2,0,0,0,.1,0,.2,0-.1,0-.2,0-.3,0-1.5,0-2.1.4-3.3.6-1.4,0-2.8,0-4.2,0-1.4,0-2.9-.2-4.4-.1-.4-.2-.7-.3-1-.5-3.1,0-6.2,0-9.3-.1-.2,0-.3.2-.5.2-.6,0-1,0-1.5,0-.1-.1-.2-.2-.3-.3-1.2,0-2.3,0-3.4,0-.2.4-1.6.4-2.3.5-.6,0-1-.1-1.5-.1-2.1,0-4.3,0-6.4-.1-1.7,0-3.4,0-5,0-.3,0-.7,0-1.1-.1-1,0-2,0-2.9,0-.1,0-.3,0-.4,0-.5,0-1,0-1.5,0-.4,0-.7,0-1-.1-.2.1-.2.2-.3.3-.9,0-1.7,0-2.5,0-.7,0-1.2-.3-2,0-2.2,0-4.4-.1-6.6,0-.5,0-1.2,0-1.7,0-1.5,0-3,0-4.5,0-1.7,0-3.1,0-4.7.1-.8,0-1.3-.2-2.3,0-.7.1-2,0-3.3,0-.3,0-.7.2-.8.2-1.3,0-2.4,0-3.5.1-.4,0-1,0-1.9,0,.2.1.2.2,0,.3-.4-.2-.8-.3-1.2-.5-.8,0-1.6,0-2.5,0-.6,0-1.2,0-1.7,0-.4,0-1,0-1.5,0-.3,0-.5,0-.7,0,0,0,0,0,0,0-1.1.2-1.7,0-2.7-.1-.3,0-.6.1-.9.1-.3,0-.7,0-1.1,0-.8,0-1.6-.2-2.3-.1-1.6.2-3,0-4.4,0-1.6,0-3.3,0-4.9,0-.4,0-.7-.2-1-.3-1.1,0-2.2.2-3.2.2-1.2,0-2.6-.2-3.9.1-.4-.2-.7-.3-1.1-.5-.4.1-.6,0-1.1,0-.4,0-1.1,0-1.6,0,0,0,0-.1.2-.2-.7,0-1.1,0-1.2.1-.4,0-.8,0-1.3,0-.6,0-1.3,0-1.9-.1-1.5-.3-3.4-.3-5.6-.2-.3,0-.6,0-.9-.1-1.1-.1-2.2-.2-3.4-.2-.5,0-1-.1-1.5-.2,0,0-.1,0-.2,0,0,0,0,0-.2,0,0,0,0,0,0,0-.3,0-.7.2-1,.2-.6-.2-1-.3-1.4-.4-.7.2-2,.2-2.5,0-1.1-.2-2.3-.1-3.5-.2-.3,0-.9,0-.9,0-.5-.2-1.3-.1-1.9-.1-.7,0-1.4,0-2.1,0-.7,0-1.7.1-2.1,0-.7-.1-1.3,0-2-.1-.4,0-.9,0-1.1,0-1.1.2-2.4.1-3.2,0-2.2-.3-4.3-.1-6.5,0-.4,0-.7-.1-1.1-.2-.5,0-.5.2-.6.3-.1,0-.2,0-.3,0-.4,0-.7-.2-1-.3-2.3,0-4.7,0-7-.1-.5,0-1.4,0-1.5,0-.3-.2-2.2,0-1.3-.4,2.5,0,5,0,7.4.1.4,0,.7-.2,1.1-.2-.3,0-.6-.1-.7-.2-1.8,0-3.5.1-5.2.2-.7-.3-1.8-.2-2.8-.2-1.4,0-2.9,0-4.3,0-.2,0-.4,0-.6,0,0,0,0,.1,0,.2.8,0,1.6,0,2.3,0,0,.2,0,.3-.1.4-1.7,0-3.3,0-5,0,.4-.2.7-.5.9-.6-1.4,0-2.7-.2-3.9-.2-.5,0-1,.2-1.5.3.3.2.6.3.9.5-2.3,0-4.4,0-6.4,0-1-.2-1.2-.4-.5-.6.3,0,.6,0,1,0-.2,0-.5-.2-.6-.3-.8,0-1.6,0-2.3.1-.1,0-.3.2-.4.2-.9,0-1.7-.1-2.6-.2-.9,0-1.8,0-2.6,0,0-.1-.1-.2-.2-.3-.4,0-.7,0-.7,0-.6,0-1,0-1.4-.1-.2.1-.4.2-.6.3-1.1,0-2.2,0-3.4,0,0,.1,0,.3-.1.4,1.1,0,2.9,0,2.9.4-.7.3-1.7.2-2.7.2-1.4,0-3.6,0-4.8,0-.6,0-1.2-.1-1.8-.2-.7.1-1.4.2-2,.3-.4,0-.7-.1-1-.2q-2.2.2-4.8-.3c2.5.2,4.5-.3,6.1,0,1.6,0,2.9-.2,4.2-.2.3-.1.6-.3,1-.5-.8,0-1.4,0-1.9,0-.1,0-.2.2-.3.2-.7,0-1.4,0-2.1,0-.2-.1-.3-.2-.5-.3-1.7.3-2.5.5-3.1.4-1.6-.1-3.3.3-4.7,0-.1,0-.6,0-.9,0-1.1,0-2.2.2-3.3.2-.8,0-1.6,0-2.2,0-.7.2-1.4.3-2,.5-.6,0-1.3,0-1.6,0-.8-.1-1.5-.2-2.1-.2-1.4-.2-2.1,0-2.9.3-1.4,0,.5-.2,0-.4-2.8.4-6.2.1-9.5.2-.6,0-.4-.3-.5-.4-1.3,0-.9.2-1.4.3-2.4-.6-9.1-.5-13.3-.3-2.3-.5-4.5.3-8.1.3-.7,0,.2-.1,0-.3-1.5-.1-2.1,0-3.8-.1-.7.2-1.4.3-1.9.6-9.5.3-18.5,1-28,.2v-.9c-6.5.7-14.2-.6-23.3.1-1-.2.6-.3.5-.7-1.6,0-1.1.4-2.8.2-.2.2.7.2,1.4.2-2.9.2-6.2.4-9.7.4v-.2c-.6.1-1.4.2-2.2.3-6.4.1-13,0-18-.3-.5.1-.9.2-1.4.3-.8,0-.9,0-.9-.2-1.3.6-3.9-.2-5.2.1-.8-.1-.9-.4-1.4-.6-1.7,0-4,.3-2.8.7-3.6.3-8,0-13.8.1-8.3.1-15.5.2-25.2-.1-1.2,0-2.1-.2-3.3-.2-2.7,0-5.3,0-7.9,0-.3,0-.7,0-1.3,0,.1,0,.3,0,.4,0-1.2,0-2.5,0-3.7.1.4,0,.7-.2.8-.4-2.4,0-4.4-.1-6.3-.4-.3,0-1,0-1.1,0-1.2.3-2.2,0-3.2,0-1.2-.1-2.4-.2-3.7-.2-2.7,0-5.4,0-8-.2-1,0-2.3,0-3.8,0-.2,0-.8-.1-1.7-.3.8,0,1.3,0,1.6-.1.5,0,.9-.2,1.5-.3.8.1,1.4.3,2.1.4.7,0,1.4-.2,2-.3-.5-.2-.9-.3-1.2-.4-2.2,0-4.1,0-6.2,0,.8.5-1.2.6-1.7,1-1.6,0-3.2-.2-4.8-.3-1.7,0-3.6,0-4.9-.2-.3-.2-.5-.4-.7-.6-3.2,0-6.1,0-9.2-.1-.8.2-1.5.4-2.3.6-.6,0-1.1,0-1.7,0,0,0,0-.2.3-.3.6,0,1.1,0,1.9,0-1.2-.1-2.2-.2-3.1-.3-.2,0-.4,0-.6,0-.1.2-.2.4-.3.5-.1,0-.3,0-.4,0-.3.1-.5.2-.8.3-.7,0-1.4,0-2,0,0,0,0,0,0,0-.6,0-1.1,0-1.6,0-.3.3-1.5.3-2.6.4,0,0-.2,0-.2,0,0,0,.1,0,.2,0-.2,0-.5-.1-.8-.1-.3,0-.6-.2-.9-.2-.2,0-.6.1-1,.2-.7,0-1.4,0-1.6-.2,0,0,0,0-.1,0-.5,0-1.1,0-1.6-.1,0-.2,0-.4,0-.6-1,.1-1.8.2-2.8.3.8.1,1.2.2,2,.3-.8.1-1.3.2-2.1.3,0-.2-.1-.3-.1-.3-.6-.2-1-.4-1.1-.4-2.4-.3-4.6.2-6.6-.1-.2,0-.3.2-.5.3-.9,0-1.6-.2-2.5-.2-.9,0-1.9,0-2.7,0-.9,0-1.6,0-2.5,0-.9,0-1.9,0-3.1,0,.1.3-.9.5-2,.7-.6,0-1.1-.1-2-.3-.3.1-.6.3-.9.3-1.2,0-2.3,0-2.6-.2.6-.4,2-.1,3-.3,0,0,0-.1,0-.2-1.8,0-3.5-.2-5.1-.3-1.3.3-2.4.5-3.6.8-1,.1-2.1-.1-3.4,0-1.3.2-2.3-.2-3.6-.2-.3,0-.7,0-.9,0-.6.2-1.3,0-2,0-1,0-1.8,0-2.8-.2-1.9-.2-3.8,0-5.6.2-.1,0-.2,0-.4.2.3,0,.6.2.9.3,1.4,0,3,.1,4.5,0,1.4.3,3,0,4.5,0,1.6,0,3.2,0,4.7,0,.2-.1.3-.2.5-.4.2.2.3.3.4.4.9,0,1.8,0,2.6,0,.2,0,.4-.2.5-.3.5,0,1,0,1.4,0,.1.1.2.2.2.2.8.1,1.4.2,2,.3,0,0,.1,0,.2,0,.1-.2.3-.4.4-.5.5,0,.7,0,.9,0,0,.2,0,.3.2.5.7-.2,1-.3,1.6-.4,1.6,0,3.6,0,5.3,0,.6.2.9.2,1.3.4.5-.2,1.1-.3,1.8-.5.2.2.4.3.5.4.9,0,1.8,0,3,0,.2,0,.5-.2.6-.2,1.4,0,2.3.2,3.2.1.5,0,.9,0,1.3,0,.5-.2,1.3-.1,2,0,.4,0,.9,0,1.2.1.2-.1.3-.2.4-.3,1,0,2.1.1,3.1.2-.2.2.8.5-.6.6,0-.2-.4-.3-1-.3v.4c-.9-.4-2.4,0-2.8-.4-2,0,.3.2.4.4-.4,0-1.2,0-1.7,0-.3,0-.5,0-.8-.1-.2.1-.2.2-.3.3-.9,0-1.7,0-2.5,0-.7,0-1.2-.3-2,0-.6,0-1.2,0-1.8,0,0,0,0,0,0,0-.2,0-.3,0-.3,0-1.5,0-2.9,0-4.4,0-.5,0-1.2,0-1.7,0-1.5,0-3,0-4.5,0-1.7,0-3.1,0-4.7.1-.8,0-1.3-.2-2.3,0-.7.1-2,0-3.3,0-.2,0-.5.2-.7.2-3.9-.2-7.2,0-10.8,0-.5,0-1,0-1.6,0-.7,0-1.4,0-2.1,0,.5,0,.6-.2,0-.2-.7.2-1.8.3-3,.4-.6,0-1.2-.1-1.7-.2.3,0,.2-.1-.2-.3h-.9c-.1.1.2.2.4.3,0,0,0,0,0,0-.9.1-1.8,0-2.7,0,0,0-.2,0-.3,0,0,0-2.3,0-2.4,0-.1,0-.2,0-.4,0,0,0-.3,0-.8,0,0,0,0,0,0,0-.9,0-1.8,0-2.7,0,0,0,0,0,0,0h0s0,0,0,0c-.3,0-.6-.2-.9-.2-.2,0-.4,0-.6,0,0,0,0-.2-.4-.2-2.8.1-4.9.2-6.8.2-.1,0-.3-.1-.4-.2-.4.1-.6,0-1.1,0-.6,0-1.4,0-2.1,0-.7,0-1.2,0-2,0-.7,0-1.5,0-2.2-.1.2,0,.3-.2.3-.3-2-.1-4.3,0-6.5,0-1.1-.1-2.2-.1-3.4-.2-.5,0-1-.1-1.5-.2,0,0-.1,0-.2,0,0,0,0,0-.2,0,0,0,0,0,0,0-.3,0-.7.2-1,.2-.6-.2-1-.3-1.4-.4-.7.2-2,.2-2.5,0-1.1-.2-2.3-.1-3.5-.2-.3,0-.9,0-.9,0-.5-.2-1.3-.1-1.9-.1-.7,0-1.4,0-2.1,0-.7,0-1.7.1-2.1,0-.7-.1-1.3,0-2-.1-.4,0-.9,0-1.1,0-1.1.2-2.4.1-3.2,0-2.7-.4-5.4,0-8,0-.1,0-.3,0-.4,0-.4,0-.7-.2-1-.3-2.3,0-4.7,0-7-.1-.5,0-1.4,0-1.5,0-.3-.2-2.2,0-1.3-.4,2.5,0,5,0,7.4.1.4,0,.7-.2,1.1-.2-.3,0-.6-.1-.7-.2-1.8,0-3.5.1-5.2.2-.7-.3-1.8-.2-2.8-.2-1.4,0-2.9,0-4.3,0-.2,0-.4,0-.6,0,0,0,0,.1,0,.2.8,0,1.6,0,2.3,0,0,.2,0,.3-.1.4-1.7,0-3.3,0-5,0,.4-.2.7-.5.9-.6-1.4,0-2.7-.2-3.9-.2-.5,0-1,.2-1.5.3.3.2.6.3.9.5-2.3,0-4.4,0-6.4,0-1-.2-1.2-.4-.5-.6.3,0,.6,0,1,0-.2,0-.5-.2-.6-.3-.8,0-1.6,0-2.3.1-.1,0-.3.2-.4.2-.9,0-1.7-.1-2.6-.2-.9,0-1.8,0-2.6,0,0-.1-.1-.2-.2-.3-.4,0-.7,0-.7,0-.6,0-1,0-1.4-.1-.2.1-.4.2-.6.3-1.1,0-2.2,0-3.4,0,0,.1,0,.3-.1.4,1.1,0,2.9,0,2.9.4-.7.3-1.7.2-2.7.2-1.4,0-3.6,0-4.8,0-.6,0-1.2-.1-1.8-.2-.7.1-1.4.2-2,.3-.4,0-.7-.1-1-.2q-2.2.2-4.8-.3c2.5.2,4.5-.3,6.1,0,1.6,0,2.9-.2,4.2-.2.3-.1.6-.3,1-.5-.8,0-1.4,0-1.9,0-.1,0-.2.2-.3.2-.7,0-1.4,0-2.1,0-.2-.1-.3-.2-.5-.3-1.7.3-2.5.5-3.1.4-1.6-.1-3.3.3-4.7,0-.1,0-.6,0-.9,0-1.1,0-2.2.2-3.3.2-.8,0-1.6,0-2.2,0-.7.2-1.4.3-2,.5-.6,0-1.3,0-1.6,0-1.8-.3-3.3-.1-4.8.1-.1.1-.3.3-.4.4-.8,0-1.5,0-2.2,0,0-.2-.1-.3-.2-.4-2.8-.1-5.5.2-8.2,0-.2,0-.4,0-.6,0-2,.2-4,.2-6,.2-.8,0-1.5.1-2.4,0-.8,0-1.7,0-2.1-.1-1,.2-1.7.3-2.2.3,0,.2,0,.3-.2.4-.1.1-.5.2-.7.3.1,0,.3,0,.4,0,.9-.2,1.9-.4,2.9-.7,2.2,0,4.5-.2,6.9,0,.2,0,.5,0,.7-.1,2.1,0,4.2-.1,6.3-.2.7,0,1.4,0,1.8.2,0,0,.1,0,.2.1-.3,0-.5.1-.9.2-1.5,0-3.2-.1-4.6.1-.1,0-.2.1-.2.2-3.5,0-6.8.2-10.4.3-.2,0-.7,0-1.4.1.1.1.2.3.4.5-.5,0-.6.2-.6.3-2.3,0-4.6,0-6.9-.1.8-.2,1.1-.6.2-1-.9,0-1.9,0-2.6.1-.6,0-1.9,0-2.6-.2-.3.4.8.5,2,.4h0c.8.1,2,0,2.3.2,0,.3-1.4.2-2.3.3h0c-1.9,0-3.7-.2-5.3-.3.7,0,1.6,0,1.4-.2-1.7.2-1.3-.1-2.8-.2-.1.3,1.5.4.5.7-9.1-.7-16.8.6-23.3-.1v.9c-9.5.7-18.6,0-28-.2-.5-.2-1.2-.4-1.9-.6-1.7.2-2.3,0-3.8.1-.2.2.7.3,0,.3-3.6,0-5.7-.9-8.1-.3-4.2-.2-10.9-.3-13.3.3-.5-.1-.2-.4-1.4-.3,0,.2.2.4-.5.4-3.3-.1-6.7.2-9.5-.2-.5.2,1.4.4,0,.4-.9-.3-1.6-.6-3.3-.2.6,0,1.1.1,1.4.2-1.8,0-2.4.3-3.3.6-2.7-.2-6.3-.2-10.5-.3-.4.3-.6.6-1.9.7.6.5,1.9.2,3.3.6.1-.2-.5-.6,1-.4.5,0,.7.1.9.2-.8,0-.8.3-1.4.4-1.4,0-1.5-.3-2.9-.2,0,0-.1,0-.2,0-1.1,0-2.1,0-3.3-.2-3.6,0-7.4,0-10.9-.3-1.3-.1-3.1,0-5.2,0s-1.1-.2-2.4-.4c1.1,0,1.7-.1,2.2-.2.7,0,1.2-.2,2.1-.4,1.1.2,1.9.3,2.8.5,1-.1,1.9-.3,2.8-.4-.7-.2-1.2-.4-1.6-.5-3,0-5.6,0-8.4-.1,1.1.6-1.6.8-2.3,1.3-2.2-.1-4.4-.3-6.6-.3s-4.9,0-6.7-.3c-.4-.3-.7-.5-1-.7-4.3,0-8.3-.1-12.5-.2-1.3.4-2.6.7-3.9,1-.2,0-.4,0-.6,0-1-.2-1.2-.4-.5-.7h2.6c-1.7-.2-3-.3-4.2-.5-.3,0-.5,0-.8-.1-.2.3-.3.5-.4.7-.2,0-.4,0-.5-.1-.5.2-1.1.4-1.5.5h-4.5c-.4.4-2.1.4-3.6.6-.8-.2-1.6-.4-2.4-.6-.4,0-.9.2-1.6.3-1.4-.1-2.8-.2-4.3-.3,0-.2,0-.5-.1-.8-1.4.1-2.4.2-3.8.4,1,.2,1.7.3,2.7.4-1.1.2-1.8.3-2.9.4-.1-.3-.2-.4-.2-.4-.9-.3-1.4-.5-1.5-.6-3.3-.4-6.2.3-8.9-.2-.2.1-.4.2-.7.4-1.2,0-2.2-.2-3.3-.3-1.2,0-2.6.1-3.7,0-1.2,0-2.2-.1-3.4,0-1.3,0-2.6,0-4.2.1.2.5-1.2.7-2.7.9-.8,0-1.5-.2-2.7-.3-.4.2-.9.3-1.2.5-1.6,0-3.2,0-3.6-.3.8-.5,2.8-.2,4.1-.3v-.3c-2.4-.1-4.7-.3-7-.4-1.7.4-3.3.7-4.9,1.1-1.3.2-2.9-.2-4.6.1-1.7.3-3.2-.2-4.9-.2h-1.2c-.8.2-1.8.1-2.7.1-1.3,0-2.5,0-3.9-.2-2.5-.3-5.2,0-7.7.3-.2,0-.3,0-.6.2.3,0,.8.2,1.3.4.8,0,1.6,0,2.5,0-.2,0-.3,0-.5,0,0,0,0,0,0,0,.3,0,.7,0,1,0,0,0,0,0,0,0,.3,0,.6,0,1,0,0,0,0,0,0,.1,0,0,.1,0,.2,0,0,0,0,0,0-.1.6,0,1.3,0,1.9,0,2,.5,4.1,0,6.1,0h6.5c.3-.2.4-.3.7-.5.3.2.4.3.6.5h3.6c.3-.1.5-.2.7-.3h1.9c.2.1.3.2.3.3,1.1.1,1.9.2,2.7.3h.3c.2-.2.4-.5.6-.7h1.3c0,.2.1.4.3.7,1-.3,1.4-.4,2.1-.6,1.3,0,2.8,0,4.2,0-.3,0-.5,0-.5.2.7,0,.8.2,1.4.2-.1-.2.5-.2.5-.4.6,0,1.1,0,1.6,0,.4,0,.6.2.9.2-.4.1-1.1.1-1.1.4,1.5-.2,2.1,0,3.8,0-.6-.4.8-.4.9-.6.2.1.3.3.5.3h4.1c.3,0,.7-.3.9-.3,1.3,0,2.3,0,3.2.2-2,0-3.8.1-4.9.6.8,0,2.4-.1,1.9.2h-3.3c-.7-.2-.1-.6-1.9-.6.4.4.4.6,0,1h-.2c-.7-.2-2.1,0-3.4,0h-.4c-.2,0-.5,0-.7,0-.4,0-.8-.1-1.1-.3-2.6.4-3.7,0-6.3.2h-.4c-1.7,0-3.3,0-4.9,0-2.5-.2-6.3-.2-8.3,0,0,0,0,0,0,0-.3,0-.6,0-.8,0-.4.1-.9.3-1.1.3-.7,0-1.4,0-2.1,0,.7-.2,1.6-.3,1.7-.5-1.2-.1-4.3.2-5.7.1.2.3.9.4,1.8.5-.8,0-1.6,0-2.3,0,0,0,0,0-.1.1-1.1-.1-1.7-.3-1.3-.6-1.6,0-2.3,0-2.6.2-.9,0-2,0-3.1,0,0,0,0,0,0,0,0,0,0,0,0-.1-.3,0-.5,0-.8,0-.6,0-1.3,0-2.1,0-.7,0-1.4,0-2,0,0,0,.1-.1.2-.2-2.4,0-4.4-.1-6.3-.4-.3,0-1,0-1.1,0-1.2.3-2.2,0-3.2,0-1.2-.1-2.4-.2-3.7-.2-2.7,0-5.4,0-8-.2-1,0-2.3,0-3.8,0-.2,0-.6-.1-1.3-.2.2,0,.3-.1.6-.2.1,0,.3,0,.4,0,0,0,.1,0,.2,0,0,0,0,0,0,0,0,0,0,0,0,0,.3,0,.5,0,.8-.1.5,0,1,0,1.5,0,.5,0,.9.2,1.3.2.7,0,1.4-.2,2-.3-.5-.2-.9-.3-1.2-.4-2.2,0-4.1,0-6.2,0,0,0,.1,0,.1.1-1.1,0-2.2,0-3.4,0,1.2,0,2.2.1,3.3.2-.1,0-.3.1-.6.2-.6,0-1.2.1-1.7.1.1.1.6,0,.9.1-.2,0-.3.1-.4.2-1.1,0-2.1-.1-3.2-.2.8,0,1.5,0,2.1,0,.3-.3-.4-.4-.6-.6-.8.4-4.2,0-5.8.4h0c-.8,0-1.6,0-2.2-.2-.3-.2-.4-.4-.6-.5.7,0,1.3,0,2,.2,0-.2,0-.3.2-.6-1.2,0-2.3,0-3.4-.1,1.6,0,3.6,0,4.5-.1-.8-.7-5.1-.5-7.8-.7.4.3,1.4.4,2.7.4h-1.5v.2h1.6c-.6.1-1.7.3-1.6,0-.1,0-.2,0-.1.1-.7,0-1.5,0-2.3.2-.6,0-1.2-.1-1.9-.2,0,.2,0,.3-.1.5-.5,0-1,0-1.5,0-1,.3-2.1.5-3.1.8-1-.1-1.1-.3-.6-.5.6,0,1.1,0,1.9,0-1.2-.1-2.2-.2-3.1-.3-.2,0-.4,0-.6,0-.1.2-.2.4-.3.5-.1,0-.3,0-.4,0-.4.1-.8.3-1.1.4-1.3,0-2.3,0-3.3,0-.3.3-1.1.3-2,.4-.4,0-.7-.2-1-.3-.2,0-.3,0-.5.1-.3,0-.6-.2-.9-.2-.3,0-.7.1-1.2.2-.6,0-1.3-.1-1.9-.2,0,0,0,0-.1,0-.4,0-.8,0-1.1,0,0-.2,0-.4,0-.6-1,.1-1.8.2-2.8.3.8.1,1.2.2,2,.3,0,0-.1,0-.2,0-.4,0-.8,0-1.2,0-.2,0-.6,0-.8,0,0,0,0,0,0,0-.6-.2-1-.4-1.1-.4-2.4-.3-4.6.2-6.6-.1-.2,0-.3.2-.5.3-.9,0-1.6-.2-2.5-.2-.9,0-1.9,0-2.7,0-.9,0-1.6,0-2.5,0-.9,0-1.9,0-3.1,0,0,0,0,0,0,0-1.7-.1-3.3,0-4.9,0-1.6,0-3.1-.2-4.6-.3-.4,0-.7.2-1.1.2-.2,0-.5-.1-.7-.3-3.2,0-6.4,0-9.6-.1h-2c-.3-.1-1.5,0-1.9-.2,0,0,.2,0,.3,0-.1,0-.3,0-.4,0,0,0,0-.2.2-.3,3.4,0,6.8,0,10.1.1.6-.1,1-.2,1.5-.3-.4,0-.8-.2-1-.2-2.4,0-4.7.1-7,.2-.9-.4-2.5-.2-3.8-.2h-6.6v.3h3.1c0,.2,0,.3-.2.4-.5,0-1,0-1.4,0h-1.6c-.2,0-.4,0-.6,0,0,0,0,0,.1,0h-3.4c.5-.3.9-.6,1.3-.8-2-.1-3.6-.2-5.3-.3-.6.1-1.4.3-2.1.4.4.2.8.4,1.2.7-3.1,0-6,0-8.7-.1-1.4-.2-1.6-.5-.7-.8h1.3c-.3-.1-.7-.3-.9-.3-1.2,0-2.1.1-3.1.2l-.6.3c-1.3,0-2.4-.2-3.5-.2h-3.5c0-.2-.2-.3-.2-.4h-1c-.8,0-1.3-.1-1.9-.2-.3.2-.5.3-.8.4h-4.6c0,.2,0,.3-.2.5,1.5.1,4-.1,4,.5-.9.4-2.3.3-3.7.3h-6.2c0,0-.1,0-.2,0,0,0-.4,0-.8,0,0,0,0,0,0,0-.6,0-1.2-.2-1.7-.3-1,.2-1.9.3-2.7.4-.2,0-.3,0-.5,0,.3,0,.7,0,.9,0-.4-.2-.9-.3-1.2-.4-1.3,0-2.1,0-2.4.3,0,0,0,0,0,0-1,0-1.9,0-3-.1.4,0,1-.1,1.7-.2,1.8-.1,3.3-.3,4.7,0,2.2-.1,3.9-.2,5.8-.3.4-.2.8-.4,1.3-.6h-2.5c-.2.1-.3.2-.4.3h-2.9c-.2-.1-.4-.3-.6-.4-2.3.4-3.5.6-4.3.5-2.1-.1-4.4.5-6.5,0h-1.2c-1.5,0-3,.2-4.5.3-.4,0-.9,0-1.3,0-1.6-.2-3.2-.3-5.1-.1-.4.2.4.2.9.3.2,0,0,.2.2.3-.6,0-1-.2-1.1-.2-.5.1-.9.2-1.2.3h-.2c-1.4-.2-2.6-.3-3.8-.2-.2,0-.4-.1-.5-.1-1.8,0-3.5.1-5.2.2-.7-.3-1.8-.2-2.8-.2-1.4,0-2.9,0-4.3,0-.2,0-.4,0-.6,0,0,0,0,.1,0,.2.8,0,1.6,0,2.3,0,0,0,0,.1,0,.2-1.6,0-3.3,0-4.9,0,.3-.2.6-.4.8-.5-1.4,0-2.7-.2-3.9-.2-.5,0-1,.2-1.5.3.3.2.6.3.9.5,0,0-.2,0-.3,0-2.2,0-4.2,0-6,0-1-.2-1.2-.4-.5-.6.3,0,.6,0,1,0-.2,0-.5-.2-.6-.3-.8,0-1.6,0-2.3.1-.1,0-.3.2-.4.2-.9,0-1.7-.1-2.6-.2-.9,0-1.8,0-2.6,0,0-.1-.1-.2-.2-.3-.4,0-.7,0-.7,0-.6,0-1,0-1.4-.1-.2.1-.4.2-.6.3-1.1,0-2.2,0-3.4,0,0,.1,0,.3-.1.4,1.1,0,2.9,0,2.9.4-.7.3-1.7.2-2.7.2-1.4,0-3.6,0-4.8,0-.6,0-1.2-.1-1.8-.2-.7.1-1.4.2-2,.3-.4,0-.7-.1-1-.2q-2.2.2-4.8-.3c2.5.2,4.5-.3,6.1,0,1.6,0,2.9-.2,4.2-.2.3-.1.6-.3,1-.5-.8,0-1.4,0-1.9,0-.1,0-.2.2-.3.2-.7,0-1.4,0-2.1,0-.2-.1-.3-.2-.5-.3-1.7.3-2.5.5-3.1.4-1.6-.1-3.3.3-4.7,0-.1,0-.6,0-.9,0-1.1,0-2.2.2-3.3.2-.8,0-1.6,0-2.2,0-.7.2-1.4.3-2,.5-.6,0-1.3,0-1.6,0-.8-.1-1.5-.2-2.1-.2-1.4-.2-2.1,0-2.9.3-1.4,0,.5-.2,0-.4-2.8.4-6.2.1-9.5.2-.6,0-.4-.3-.5-.4-1.3,0-.9.2-1.4.3-2.4-.6-9.1-.5-13.3-.3-2.3-.5-4.5.3-8.1.3-.7,0,.2-.1,0-.3-1.5-.1-2.1,0-3.8-.1-.7.2-1.4.3-1.9.6-9.5.3-18.5,1-28,.2v-.9c-6.5.7-14.2-.6-23.3.1-1-.2.6-.3.5-.7-1.6,0-1.1.4-2.8.2-.2.2.7.2,1.4.2-8.7.7-21.5.7-29.9.2-.5.1-.9.2-1.4.3-.8,0-.9,0-.9-.2-1.3.6-3.9-.2-5.2.1-.8-.1-.9-.4-1.4-.6-1.7,0-4,.3-2.8.7-3.6.3-8,0-13.8.1-8.3.1-15.5.2-25.2-.1-.6,0-1.2,0-1.8-.1.2,0,.3,0,0-.1h0c.2.2-1.9-.1-1.9-.2,1.5,0,2.8-.2,3.2-.4-2.5.2-6.6,0-7.7.6-1.1,0-2.1,0-3.2,0-.3,0-.7,0-1.3,0,.1,0,.3,0,.4,0-1.2,0-2.5,0-3.7.1.4,0,.7-.2.8-.4-2.4,0-4.4-.1-6.3-.4-.3,0-1,0-1.1,0-1.2.3-2.2,0-3.2,0-1.2-.1-2.4-.2-3.7-.2-2.7,0-5.4,0-8-.2-1,0-2.3,0-3.8,0-.2,0-.8-.1-1.7-.3.8,0,1.3,0,1.6-.1.5,0,.9-.2,1.5-.3.8.1,1.4.3,2.1.4.7,0,1.4-.2,2-.3-.5-.2-.9-.3-1.2-.4-2.2,0-4.1,0-6.2,0,.8.5-1.2.6-1.7,1-1.6,0-3.2-.2-4.8-.3-1.7,0-3.6,0-4.9-.2-.3-.2-.5-.4-.7-.6-3.2,0-6.1,0-9.2-.1-1,.3-2.1.5-3.1.8-1-.1-1.1-.3-.6-.5.6,0,1.1,0,1.9,0-1.2-.1-2.2-.2-3.1-.3-.2,0-.4,0-.6,0-.1.2-.2.4-.3.5-.1,0-.3,0-.4,0-.4.1-.8.3-1.1.4-1.3,0-2.3,0-3.3,0-.3.3-1.5.3-2.6.4-.6-.2-1.2-.3-1.7-.5-.3,0-.7.1-1.2.2-1,0-2.1-.2-3.1-.3,0-.2,0-.4,0-.6-1,.1-1.8.2-2.8.3.8.1,1.2.2,2,.3-.8.1-1.3.2-2.1.3,0-.2-.1-.3-.1-.3-.6-.2-1-.4-1.1-.4-2.4-.3-4.6.2-6.6-.1-.2,0-.3.2-.5.3-.9,0-1.6-.2-2.5-.2-.9,0-1.9,0-2.7,0-.9,0-1.6,0-2.5,0-.9,0-1.9,0-3.1,0,.1.3-.9.5-2,.7-.6,0-1.1-.1-2-.3-.3.1-.6.3-.9.3-1.2,0-2.3,0-2.6-.2.6-.4,2-.1,3-.3,0,0,0-.1,0-.2-1.8,0-3.5-.2-5.1-.3-1.3.3-2.4.5-3.6.8-1,.1-2.1-.1-3.4,0-1.3.2-2.3-.2-3.6-.2-.3,0-.7,0-.9,0-.6.2-1.3,0-2,0-1,0-1.8,0-2.8-.2-1.9-.2-3.8,0-5.6.2-.1,0-.2,0-.4.2.3,0,.6.2.9.3,1.4,0,3,.1,4.5,0,1.4.3,3,0,4.5,0,1.6,0,3.2,0,4.7,0,.2-.1.3-.2.5-.4.2.2.3.3.4.4.9,0,1.8,0,2.6,0,.2,0,.4-.2.5-.3.5,0,1,0,1.4,0,.1.1.2.2.2.2.8.1,1.4.2,2,.3,0,0,.1,0,.2,0,.1-.2.3-.4.4-.5.5,0,.7,0,.9,0,0,.2,0,.3.2.5.7-.2,1-.3,1.6-.4,1.6,0,3.6,0,5.3,0,.6.2.9.2,1.3.4.5-.2,1.1-.3,1.8-.5.2.2.4.3.5.4.9,0,1.8,0,3,0,.2,0,.5-.2.6-.2,1.4,0,2.3.2,3.2.1.5,0,.9,0,1.3,0,.5-.2,1.3-.1,2,0,.4,0,.9,0,1.2.1.2-.1.3-.2.4-.3,1.4,0,2.7.2,4,.2.8,0,1.6,0,2.2-.1.6.2,1.6.2,2.5.2,1.8,0,3.5,0,5.3,0,2.1-.2,4.2.3,6.5.1,2.2.3,4.6.1,6.9.2.4,0,.9,0,1.4-.1.9.3,2,.2,3,0,1.5.2,2.8.2,4.4.1,1.1,0,2.4-.1,3.1,0,.8,0,1.8-.1,2.1,0,.7.2,1.5.1,2.2.2,1.1,0,2.2,0,3.2,0,.4,0,.6.2.7.2-.1.1-.3.2-.4.3-2.8,0-5.7,0-8.6.1-1.2,0-2.4-.1-3.6,0-.4-.2-.7-.3-1-.5-3.1,0-6.2,0-9.3-.1-.2,0-.3.2-.5.2-.6,0-1,0-1.5,0-.1-.1-.2-.2-.3-.3-1.2,0-2.3,0-3.4,0-.2.4-1.6.4-2.3.5-.6,0-1-.1-1.5-.1-2.1,0-4.3,0-6.4-.1-2.6,0-5.1-.1-7.6.2,0,0-.2,0-.5,0-.3,0-.7-.2-1-.2,0,0,0,0,0,0,0-.1-1.3-.2-2-.1-.3,0-.5,0-.8-.1-.2.1-.2.2-.3.3-.9,0-1.7,0-2.5,0-.7,0-1.2-.3-2,0-.6,0-1.2,0-1.8,0,0,0,0,0,0,0-.2,0-.3,0-.3,0-1.5,0-2.9,0-4.4,0-.5,0-1.2,0-1.7,0-1.5,0-3,0-4.5,0-1.7,0-3.1,0-4.7.1-.8,0-1.3-.2-2.3,0-.7.1-2,0-3.3,0-.3,0-.7.2-.8.2-1.9,0-3.4.1-4.8.2,0,0-.1,0-.2.1-.2,0-.4,0-.6,0-.3-.1-.6-.2-.9-.4-1.1,0-2.2,0-3.6,0-.6-.1-1.7-.2-2.7,0-1.2.2-1.8,0-2.7-.1-1.2.3-2.4,0-3.5,0,.3,0,.2-.1-.2-.3h-.9c-.1.1.2.2.4.3,0,0,0,0,0,0-1.6.2-3,0-4.4,0-.4,0-.9,0-1.3,0,.1,0,0,0-.8,0,0,0,0,0-.2,0-.9,0-1.7,0-2.6,0,0,0,0,0,0,0h0s0,0,0,0c-.3,0-.6-.2-.9-.2-.2,0-.4,0-.6,0,0,0,0-.2-.4-.2-2.8.1-4.9.2-6.8.2-.1,0-.3-.1-.4-.2-.4.1-.6,0-1.1,0-.6,0-1.4,0-2.1,0-.7,0-1.2,0-2,0-.7,0-1.5,0-2.2-.1.2,0,.3-.2.3-.3-2-.1-4.3,0-6.5,0-1.1-.1-2.2-.1-3.4-.2-.5,0-1-.1-1.5-.2,0,0-.1,0-.2,0,0,0,0,0-.2,0,0,0,0,0,0,0-.3,0-.7.2-1,.2-.6-.2-1-.3-1.4-.4-.7.2-2,.2-2.5,0-1.1-.2-2.3-.1-3.5-.2-.3,0-.9,0-.9,0-.5-.2-1.3-.1-1.9-.1-.7,0-1.4,0-2.1,0-.7,0-1.7.1-2.1,0-.7-.1-1.3,0-2-.1-.4,0-.9,0-1.1,0-1.1.2-2.4.1-3.2,0-2.7-.4-5.4,0-8,0-.1,0-.3,0-.4,0-.4,0-.7-.2-1-.3-2.3,0-4.7,0-7-.1-.5,0-1.4,0-1.5,0-.3-.2-2.2,0-1.3-.4,2.5,0,5,0,7.4.1.4,0,.7-.2,1.1-.2-.3,0-.6-.1-.7-.2-1.8,0-3.5.1-5.2.2-.7-.3-1.8-.2-2.8-.2-1.4,0-2.9,0-4.3,0-.2,0-.4,0-.6,0,0,0,0,.1,0,.2.8,0,1.6,0,2.3,0,0,.2,0,.3-.1.4-1.7,0-3.3,0-5,0,.4-.2.7-.5.9-.6-1.4,0-2.7-.2-3.9-.2-.5,0-1,.2-1.5.3.3.2.6.3.9.5-2.3,0-4.4,0-6.4,0-1-.2-1.2-.4-.5-.6.3,0,.6,0,1,0-.2,0-.5-.2-.6-.3-.8,0-1.6,0-2.3.1-.1,0-.3.2-.4.2-.9,0-1.7-.1-2.6-.2-.9,0-1.8,0-2.6,0,0-.1-.1-.2-.2-.3-.4,0-.7,0-.7,0-.6,0-1,0-1.4-.1-.2.1-.4.2-.6.3-1.1,0-2.2,0-3.4,0,0,.1,0,.3-.1.4,1.1,0,2.9,0,2.9.4-.7.3-1.7.2-2.7.2-1.4,0-3.6,0-4.8,0-.6,0-1.2-.1-1.8-.2-.7.1-1.4.2-2,.3-.4,0-.7-.1-1-.2q-2.2.2-4.8-.3c2.5.2,4.5-.3,6.1,0,1.6,0,2.9-.2,4.2-.2.3-.1.6-.3,1-.5-.8,0-1.4,0-1.9,0-.1,0-.2.2-.3.2-.7,0-1.4,0-2.1,0-.2-.1-.3-.2-.5-.3-1.7.3-2.5.5-3.1.4-1.6-.1-3.3.3-4.7,0-.1,0-.6,0-.9,0-1.1,0-2.2.2-3.3.2-.8,0-1.6,0-2.2,0-.7.2-1.4.3-2,.5-.6,0-1.3,0-1.6,0-1.8-.3-3.3-.1-4.8.1-.1.1-.3.3-.4.4-.8,0-1.5,0-2.2,0,0-.2-.1-.3-.2-.4-2.8-.1-5.5.2-8.2,0-.2,0-.4,0-.6,0-2,.2-4,.2-6,.2-.8,0-1.5.1-2.4,0-.8,0-1.7,0-2.1-.1-1,.2-1.7.3-2.2.3,0,.2,0,.3-.2.4-.1.1-.5.2-.7.3.1,0,.3,0,.4,0,.9-.2,1.9-.4,2.9-.7,2.2,0,4.5-.2,6.9,0,.2,0,.5,0,.7-.1,2.1,0,4.2-.1,6.3-.2.7,0,1.4,0,1.8.2,0,0,.1,0,.2.1-.3,0-.5.1-.9.2-1.5,0-3.2-.1-4.6.1-.1,0-.2.1-.2.2-3.5,0-6.8.2-10.4.3-.2,0-.7,0-1.4.1.1.1.2.3.4.5-.8.1-.5.3-.6.6.3,0,.8.2,1.1.2,0,.2,0,.3,0,.3.8,0,1.3.2,1.7.3-3.2-.2-7.2-.3-9-.9-1.4,0-1.4.2-2.7.1h0s0,0,0,0c0,0,0,0,0,0,0,0,0,0,0,0-3.3.6-9.7.5-11.6,1.2,2.8.3,4.5-.4,6.2.1-1.5-.1-2,.5-1.4.6,2,0,4.7-.2,7-.3h0c.1,0,.3,0,.4,0,0,.2-.6.2-.5.4.8,0,2.5.4,2.4-.1-.8,0-.8-.1-1.4-.1,1.8,0,5.4.1,8.2.3-.3.2-.3.3,0,.4.5,0,1,0,1.4,0,.3.2.6.4.9.6.3,0,.6,0,1.1-.1,0,0,0,0,0,0,0,0,.2,0,.3,0,.1,0,0,0-.1.2,0,0,0,0-.1,0-.8.3-1.3.4-1.8.5-.3,0-.5-.1-.7-.2-.8,0-1.7,0-2.6.1v-.3c-2.4,0-1.3,0-1.9-.3-1.9,0-1.6.4-3.8.2.3.5,2.7.4,4.6.5.2.1.4.3.6.4,0,0,0,0,0,0,.1,0,.2.2.3.2-3.4,0-7,.1-10.6.1h0c-.4,0-.7,0-.9,0-2.1,0-4.1,0-6.1,0,.9-.4.6-.5-1.1-.7-1.3.3,1.3.4,0,.7-1.8-.2-2.2-.1-4.8-.1,0-.2-.1-.3-.5-.4-2,0-2.4.2-4.3.1-.1-.4,2.9-.1,2.9-.6-2.8.1-5.3,0-7.9,0-.2,0-.5,0-.8-.1,1.2-.2,3.6-.2,4.4-.5-.7-.4-4-.2-4.8-.6,1-.2,1.4,0,2.9,0,.2-.3-.9-.2-.5-.6,1.1,0,1,.2,2.4.1-.4-.3-1.5-.4-2.8-.4h0c0,0-1.9,0-1.9,0,0,0,0,0,0,0-.4,0-.7,0-1,0-1.2.2,1.5.4,0,.7-1.1,0-1.8-.2-3.3-.1,0-.1.6-.2.5-.3-.6,0-1.3,0-2,0,0-.1-.1-.3-.6-.3-.2,0-.5.2-.7.3-14.5.2-29.3.7-42.9.7-1.4,1.3-10.5.8-14.3,1.6,0,.7-2.2.9-4,1.2-.4,0-.8,0-1.2,0-.7-.3-1.6-.5-2.6-.7-2.3.2-3.1,0-5.2.1-.3.3,1,.4,0,.4-.6,0-1.2,0-1.7,0-1-.1-1.9-.3-2.5-.6,2.3-.4,4.4-.9,5.7-1.6-.8-.1-.9-.4-1.4-.6-5.1,0-10.4.2-8.6-1.3-7.1-.6-10.9-.7-19.5-.8-2-.3-3.8-.6-5.7-.7.6-.2,2.8,0,2.9-.3-3-.1-6.6-.3-9.5-.1.2.6,2,.4,3.3.6-.6.2-1.2.4-1.9.6.1-.2-.5-.2-.5-.4-6.5,0-8.8,0-15.2-.2-1.2.3.7.6-.9.8,0-.2-.4-.3-1-.3v.4c-.9-.4-2.4,0-2.8-.4-2.5,0,1.8.3,0,.6-5.8,0-10.1-.3-13.8.2-4.5-.3-9.8-.3-14.7,0-6.3-.5-10.9,0-16.6-.3.5,0,.6-.2,0-.2-1.6.4-5,.5-7.6.4-.6,0-.5-.2-1-.2,0,0-2.3,0-2.4,0-3.4,0-7.9,0-11.4,0-1.7,0-3.1.3-4.8.3-4.2,0-9.1-.5-12.4.2-1.9-.4-5.3.3-6.7-.3-6.2.1-12.5-.4-18.1,0-2.6-.2-5.6-.5-8.6-.3-.9,0-1.4.2-2.4.2-2.9,0-5.5-.3-8.6-.1-.6,0-1.1.2-1.9.2-5,0-10.2-.4-15.7-.2-1.2,0-2.1.2-3.3.2-9.6.3-16.9.2-25.2.1-5.7,0-10.2.2-13.8-.1,1.1-.3-1.1-.6-2.9-.7-.6.2-.6.5-1.4.6-1.4-.3-4,.5-5.2-.1,0,.1-.1.3-1,.2-.5-.1-1-.2-1.4-.3-8.4.4-21.2.4-30-.2.7,0,1.6,0,1.4-.2-1.7.2-1.3-.1-2.8-.2-.1.3,1.5.4.5.7-9.1-.7-16.8.6-23.3-.1v.9c-9.5.7-18.6,0-28-.2-.5-.2-1.2-.4-1.9-.6-1.7.2-2.3,0-3.8.1-.2.2.7.3,0,.3-3.6,0-5.7-.9-8.1-.3-4.2-.2-10.9-.3-13.3.3-.5-.1-.2-.4-1.4-.3,0,.2.2.4-.5.4-3.3-.1-6.7.2-9.5-.2-.5.2,1.4.4,0,.4-.9-.3-1.6-.6-3.3-.2.6,0,1.1.1,1.4.2-1.8,0-2.4.3-3.3.6-2.7-.2-6.3-.2-10.5-.3-.4.3-.6.6-1.9.7.6.5,1.9.2,3.3.6.1-.2-.5-.6,1-.4.5,0,.7.1.9.2-.8,0-.8.3-1.4.4-1.4,0-1.5-.3-2.9-.2-1.4.6-2.6,0-3.8.6-11-.4-19.7,0-30.4.3-3.8-.6-10.2.3-13.8-.6.6,0,1.3.1,2.4.1-.4-.3-1.8-.4-3.3-.4-1.6.2-2.9.4-3.8.7,1.6,0,2.3-.3,2.4.2-2.2-.4-1.4.7-3.8.7-2-.3-1.3-.6-2.4-.9-.5.1-2.3.1-2.9,0,1-.4,3-.5,3.8-.9,1.7.6,7.5.4,7.1-.4-2.8-.3-5.5-.7-8.6-.2-.7,0,0-.4-1-.4-2,.5-5.3.7-10,.7-.2.2.7.3,0,.3-1.7.3-2.6-.4-3.8-.1,2.6.2-.7.5-1.4.4-.4.3,1.3.2.9.6-3.4,0-6.5.4-8.6,0,1.9,0,4.1,0,3.8-.6-2.4.2-2.4,0-4.3-.2-5.3.8-15.5-1.1-19,.3.8,0,2.4-.1,1.9.2h-3.3c-.7-.2-.1-.6-1.9-.6.4.4.4.6,0,1-1.1-.4-4.6.4-5.7-.3-2.7.4-3.8-.1-6.7.2,0,0,0,.2,0,.2-1.3,0-2.6,0-3.8,0-2.3-.4-6.7-.4-9.1-.2-2.4-.3-4.8-.5-7.8-.3-.2.2-.1.2.2.3-.3,0-.6,0-.8,0,0,.2.4.3.8.4-.1,0-.2,0-.2,0-.6.1-1,.2-1.5.3-.9-.1-1.4-.3-1-.6-2.7-.2-2.8.3-2.9.4-1,0-2-.1-2.9-.2,0,0,0,0,0-.1-.6,0-1.1,0-2.3,0,.2,0,.4,0,.6,0-1.1,0-2.2,0-3.2-.1,0,0,.1-.1.2-.2-2.4,0-4.4-.1-6.3-.4-.3,0-1,0-1.1,0-1.2.3-2.2,0-3.2,0-1.2-.1-2.4-.2-3.7-.2-2.7,0-5.4,0-8-.2-1,0-2.3,0-3.8,0-.2,0-.8-.1-1.7-.3.8,0,1.3,0,1.6-.1.5,0,.9-.2,1.5-.3.8.1,1.4.3,2.1.4.7,0,1.4-.2,2-.3-.5-.2-.9-.3-1.2-.4-2.2,0-4.1,0-6.2,0,.8.5-1.2.6-1.7,1-1.6,0-3.2-.2-4.8-.3-1.7,0-3.6,0-4.9-.2-.3-.2-.5-.4-.7-.6-3.2,0-6.1,0-9.2-.1-1,.3-2.1.5-3.1.8-1-.1-1.1-.3-.6-.5.6,0,1.1,0,1.9,0-1.2-.1-2.2-.2-3.1-.3-.2,0-.4,0-.6,0-.1.2-.2.4-.3.5-.1,0-.3,0-.4,0-.4.1-.8.3-1.1.4-1.3,0-2.3,0-3.3,0-.3.3-1.5.3-2.6.4-.6-.2-1.2-.3-1.7-.5-.3,0-.7.1-1.2.2-1,0-2.1-.2-3.1-.3,0-.2,0-.4,0-.6-1,.1-1.8.2-2.8.3.8.1,1.2.2,2,.3-.8.1-1.3.2-2.1.3,0-.2-.1-.3-.1-.3-.6-.2-1-.4-1.1-.4-2.4-.3-4.6.2-6.6-.1-.2,0-.3.2-.5.3-.9,0-1.6-.2-2.5-.2-.9,0-1.9,0-2.7,0-.9,0-1.6,0-2.5,0-.9,0-1.9,0-3.1,0,.1.3-.9.5-2,.7-.6,0-1.1-.1-2-.3-.3.1-.6.3-.9.3-1.2,0-2.3,0-2.6-.2.6-.4,2-.1,3-.3,0,0,0-.1,0-.2-1.8,0-3.5-.2-5.1-.3-1.3.3-2.4.5-3.6.8-1,.1-2.1-.1-3.4,0-1.3.2-2.3-.2-3.6-.2-.3,0-.7,0-.9,0-.6.2-1.3,0-2,0-1,0-1.8,0-2.8-.2-1.9-.2-3.8,0-5.6.2-.1,0-.2,0-.4.2.3,0,.6.2.9.3,1.4,0,3,.1,4.5,0,1.4.3,3,0,4.5,0,1.6,0,3.2,0,4.7,0,.2-.1.3-.2.5-.4.2.2.3.3.4.4.9,0,1.8,0,2.6,0,.2,0,.4-.2.5-.3.5,0,1,0,1.4,0,.1.1.2.2.2.2.8.1,1.4.2,2,.3,0,0,.1,0,.2,0,.1-.2.3-.4.4-.5.5,0,.7,0,.9,0,0,.2,0,.3.2.5.7-.2,1-.3,1.6-.4,1.6,0,3.6,0,5.3,0,.6.2.9.2,1.3.4.5-.2,1.1-.3,1.8-.5.2.2.4.3.5.4.9,0,1.8,0,3,0,.2,0,.5-.2.6-.2,1.4,0,2.3.2,3.2.1.5,0,.9,0,1.3,0,.5-.2,1.3-.1,2,0,.4,0,.9,0,1.2.1.2-.1.3-.2.4-.3,1.4,0,2.7.2,4,.2.8,0,1.6,0,2.2-.1.6.2,1.6.2,2.5.2,1.8,0,3.5,0,5.3,0,2.1-.2,4.2.3,6.5.1,2.2.3,4.6.1,6.9.2.4,0,.9,0,1.4-.1.9.3,2,.2,3,0,1.5.2,2.8.2,4.4.1,1.1,0,2.4-.1,3.1,0,.8,0,1.8-.1,2.1,0,.7.2,1.5.1,2.2.2,1.1,0,2.2,0,3.2,0,0,0,.1,0,.2,0-.1,0-.2,0-.3,0-1.5,0-2.1.4-3.3.6-1.4,0-2.8,0-4.2,0-1.4,0-2.9-.2-4.4-.1-.4-.2-.7-.3-1-.5-3.1,0-6.2,0-9.3-.1-.2,0-.3.2-.5.2-.6,0-1,0-1.5,0-.1-.1-.2-.2-.3-.3-1.2,0-2.3,0-3.4,0-.2.4-1.6.4-2.3.5-.6,0-1-.1-1.5-.1-2.1,0-4.3,0-6.4-.1-1.7,0-3.4,0-5,0-.3,0-.7,0-1.1-.1-1,0-2,0-2.9,0-.1,0-.3,0-.4,0-.5,0-1,0-1.5,0-.4,0-.7,0-1-.1-.2.1-.2.2-.3.3-.9,0-1.7,0-2.5,0-.7,0-1.2-.3-2,0-2.2,0-4.4-.1-6.6,0-.5,0-1.2,0-1.7,0-1.5,0-3,0-4.5,0-1.7,0-3.1,0-4.7.1-.8,0-1.3-.2-2.3,0-.7.1-2,0-3.3,0-.3,0-.7.2-.8.2-1.3,0-2.4,0-3.5.1-.4,0-1,0-1.9,0,.2.1.2.2,0,.3-.4-.2-.8-.3-1.2-.5-.8,0-1.6,0-2.5,0-.6,0-1.2,0-1.7,0-.4,0-1,0-1.5,0-.3,0-.5,0-.7,0,0,0,0,0,0,0-1.1.2-1.7,0-2.7-.1-.3,0-.6.1-.9.1-.3,0-.7,0-1.1,0-.8,0-1.6-.2-2.3-.1-1.6.2-3,0-4.4,0-1.6,0-3.3,0-4.9,0-.4,0-.7-.2-1-.3-1.1,0-2.2.2-3.2.2-1.2,0-2.6-.2-3.9.1-.4-.2-.7-.3-1.1-.5-.4.1-.6,0-1.1,0-.4,0-1.1,0-1.6,0,0,0,0-.1.2-.2-.7,0-1.1,0-1.2.1-.4,0-.8,0-1.3,0-.6,0-1.3,0-1.9-.1-1.5-.3-3.4-.3-5.6-.2-.3,0-.6,0-.9-.1-1.1-.1-2.2-.2-3.4-.2-.5,0-1-.1-1.5-.2,0,0-.1,0-.2,0,0,0,0,0-.2,0,0,0,0,0,0,0-.3,0-.7.2-1,.2-.6-.2-1-.3-1.4-.4-.7.2-2,.2-2.5,0-1.1-.2-2.3-.1-3.5-.2-.3,0-.9,0-.9,0-.5-.2-1.3-.1-1.9-.1-.7,0-1.4,0-2.1,0-.7,0-1.7.1-2.1,0-.7-.1-1.3,0-2-.1-.4,0-.9,0-1.1,0-1.1.2-2.4.1-3.2,0-2.2-.3-4.3-.1-6.5,0-.4,0-.7-.1-1.1-.2-.5,0-.5.2-.6.3-.1,0-.2,0-.3,0-.4,0-.7-.2-1-.3-2.3,0-4.7,0-7-.1-.5,0-1.4,0-1.5,0-.3-.2-2.2,0-1.3-.4,2.5,0,5,0,7.4.1.4,0,.7-.2,1.1-.2-.3,0-.6-.1-.7-.2-1.8,0-3.5.1-5.2.2-.7-.3-1.8-.2-2.8-.2-1.4,0-2.9,0-4.3,0-.2,0-.4,0-.6,0,0,0,0,.1,0,.2.8,0,1.6,0,2.3,0,0,.2,0,.3-.1.4-1.7,0-3.3,0-5,0,.4-.2.7-.5.9-.6-1.4,0-2.7-.2-3.9-.2-.5,0-1,.2-1.5.3.3.2.6.3.9.5-2.3,0-4.4,0-6.4,0-1-.2-1.2-.4-.5-.6.3,0,.6,0,1,0-.2,0-.5-.2-.6-.3-.8,0-1.6,0-2.3.1-.1,0-.3.2-.4.2-.9,0-1.7-.1-2.6-.2-.9,0-1.8,0-2.6,0,0-.1-.1-.2-.2-.3-.4,0-.7,0-.7,0-.6,0-1,0-1.4-.1-.2.1-.4.2-.6.3-1.1,0-2.2,0-3.4,0,0,.1,0,.3-.1.4,1.1,0,2.9,0,2.9.4-.7.3-1.7.2-2.7.2-1.4,0-3.6,0-4.8,0-.6,0-1.2-.1-1.8-.2-.7.1-1.4.2-2,.3-.4,0-.7-.1-1-.2q-2.2.2-4.8-.3c2.5.2,4.5-.3,6.1,0,1.6,0,2.9-.2,4.2-.2.3-.1.6-.3,1-.5-.8,0-1.4,0-1.9,0-.1,0-.2.2-.3.2-.7,0-1.4,0-2.1,0-.2-.1-.3-.2-.5-.3-1.7.3-2.5.5-3.1.4-1.6-.1-3.3.3-4.7,0-.1,0-.6,0-.9,0-1.1,0-2.2.2-3.3.2-.8,0-1.6,0-2.2,0-.7.2-1.4.3-2,.5-.6,0-1.3,0-1.6,0-.8-.1-1.5-.2-2.1-.2-1.4-.2-2.1,0-2.9.3-1.4,0,.5-.2,0-.4-2.8.4-6.2.1-9.5.2-.6,0-.4-.3-.5-.4-1.3,0-.9.2-1.4.3-2.4-.6-9.1-.5-13.3-.3-2.3-.5-4.5.3-8.1.3-.7,0,.2-.1,0-.3-1.5-.1-2.1,0-3.8-.1-.7.2-1.4.3-1.9.6-9.5.3-18.5,1-28,.2v-.9c-6.5.7-14.2-.6-23.3.1-1-.2.6-.3.5-.7-1.6,0-1.1.4-2.8.2-.2.2.7.2,1.4.2-8.7.7-21.5.7-29.9.2-.5.1-.9.2-1.4.3-.8,0-.9,0-.9-.2-1.3.6-3.9-.2-5.2.1-.8-.1-.9-.4-1.4-.6-1.7,0-4,.3-2.8.7-3.6.3-8,0-13.8.1-8.3.1-15.5.2-25.2-.1-1.2,0-2.1-.2-3.3-.2-2.7,0-5.3,0-7.9,0-.3,0-.7,0-1.3,0,.1,0,.3,0,.4,0-1.2,0-2.5,0-3.7.1.4,0,.7-.2.8-.4-2.4,0-4.4-.1-6.3-.4-.3,0-1,0-1.1,0-1.2.3-2.2,0-3.2,0-1.2-.1-2.4-.2-3.7-.2-2.7,0-5.4,0-8-.2-1,0-2.3,0-3.8,0-.2,0-.8-.1-1.7-.3.8,0,1.3,0,1.6-.1.5,0,.9-.2,1.5-.3.8.1,1.4.3,2.1.4.7,0,1.4-.2,2-.3-.5-.2-.9-.3-1.2-.4-2.2,0-4.1,0-6.2,0,.8.5-1.2.6-1.7,1-1.6,0-3.2-.2-4.8-.3-1.7,0-3.6,0-4.9-.2-.3-.2-.5-.4-.7-.6-3.2,0-6.1,0-9.2-.1-1,.3-2.1.5-3.1.8-1-.1-1.1-.3-.6-.5.6,0,1.1,0,1.9,0-1.2-.1-2.2-.2-3.1-.3-.2,0-.4,0-.6,0-.1.2-.2.4-.3.5-.1,0-.3,0-.4,0-.4.1-.8.3-1.1.4-1.3,0-2.3,0-3.3,0-.3.3-1.5.3-2.6.4-.6-.2-1.2-.3-1.7-.5-.3,0-.7.1-1.2.2-1,0-2.1-.2-3.1-.3,0-.2,0-.4,0-.6-1,.1-1.8.2-2.8.3.8.1,1.2.2,2,.3-.8.1-1.3.2-2.1.3,0-.2-.1-.3-.1-.3-.6-.2-1-.4-1.1-.4-2.4-.3-4.6.2-6.6-.1-.2,0-.3.2-.5.3-.9,0-1.6-.2-2.5-.2-.9,0-1.9,0-2.7,0-.9,0-1.6,0-2.5,0-.9,0-1.9,0-3.1,0,.1.3-.9.5-2,.7-.6,0-1.1-.1-2-.3-.3.1-.6.3-.9.3-1.2,0-2.3,0-2.6-.2.6-.4,2-.1,3-.3,0,0,0-.1,0-.2-1.8,0-3.5-.2-5.1-.3-1.3.3-2.4.5-3.6.8-1,.1-2.1-.1-3.4,0-1.3.2-2.3-.2-3.6-.2-.3,0-.7,0-.9,0-.6.2-1.3,0-2,0-1,0-1.8,0-2.8-.2-1.9-.2-3.8,0-5.6.2-.1,0-.2,0-.4.2.3,0,.6.2.9.3,1.4,0,3,.1,4.5,0,1.4.3,3,0,4.5,0,1.6,0,3.2,0,4.7,0,.2-.1.3-.2.5-.4.2.2.3.3.4.4.9,0,1.8,0,2.6,0,.2,0,.4-.2.5-.3.5,0,1,0,1.4,0,.1.1.2.2.2.2.8.1,1.4.2,2,.3,0,0,.1,0,.2,0,.1-.2.3-.4.4-.5.5,0,.7,0,.9,0,0,.2,0,.3.2.5.7-.2,1-.3,1.6-.4,1.6,0,3.6,0,5.3,0,.6.2.9.2,1.3.4.5-.2,1.1-.3,1.8-.5.2.2.4.3.5.4.9,0,1.8,0,3,0,.2,0,.5-.2.6-.2,1.4,0,2.3.2,3.2.1.5,0,.9,0,1.3,0,.5-.2,1.3-.1,2,0,.4,0,.9,0,1.2.1.2-.1.3-.2.4-.3,1.4,0,2.7.2,4,.2.8,0,1.6,0,2.2-.1.6.2,1.6.2,2.5.2,1.8,0,3.5,0,5.3,0,2.1-.2,4.2.3,6.5.1,2.2.3,4.6.1,6.9.2.4,0,.9,0,1.4-.1.9.3,2,.2,3,0,1.5.2,2.8.2,4.4.1,1.1,0,2.4-.1,3.1,0,.8,0,1.8-.1,2.1,0,.7.2,1.5.1,2.2.2,1.1,0,2.2,0,3.2,0,.4,0,.6.2.7.2-.1.1-.3.2-.4.3-2.8,0-5.7,0-8.6.1-1.2,0-2.4-.1-3.6,0-.4-.2-.7-.3-1-.5-3.1,0-6.2,0-9.3-.1-.2,0-.3.2-.5.2-.6,0-1,0-1.5,0-.1-.1-.2-.2-.3-.3-1.2,0-2.3,0-3.4,0-.2.4-1.6.4-2.3.5-.6,0-1-.1-1.5-.1-2.1,0-4.3,0-6.4-.1-2.6,0-5.1-.1-7.6.2,0,0-.2,0-.5,0-.3,0-.7-.2-1-.2,0,0,0,0,0,0,0-.1-1.3-.2-2-.1-.3,0-.5,0-.8-.1-.2.1-.2.2-.3.3-.9,0-1.7,0-2.5,0-.7,0-1.2-.3-2,0-.6,0-1.2,0-1.8,0,0,0,0,0,0,0-.2,0-.3,0-.3,0-1.5,0-2.9,0-4.4,0-.5,0-1.2,0-1.7,0-1.5,0-3,0-4.5,0-.5,0-.9,0-1.4,0-.5,0-.9,0-1.3,0,0,0,.1,0,.2.1-.8,0-1.5,0-2.3,0-.8,0-1.3-.2-2.3,0-.7.1-2,0-3.3,0-.3,0-.7.2-.8.2-1.9,0-3.4.1-4.8.2,0,0-.1,0-.2.1,0,0-.2,0-.3,0-.5-.2-.9-.4-1.4-.6h-1.1c0,.1-.1.2-.2.3-.6,0-1.3,0-2.1,0-.6-.1-1.7-.2-2.7,0-.6.1-1.1,0-1.6,0,.4,0,.7,0,1,0h0c-.6-.3-1.2-.5-1.6-.6-1.8,0-2.8,0-3.2.4.3,0,.7.2,1,.3-.7,0-1.3-.1-2-.2.3,0,.2-.1-.2-.3h-.9c-.1.1.2.2.4.3,0,0,0,0,0,0-1.6.2-3,0-4.4,0-.4,0-.9,0-1.3,0,0,0,0,0,0,0,1,0,2.1,0,3.1-.1h0c-.1-.1-.2-.1-.3-.1.8,0,1.7-.2,3.2-.4-3.8,0-6.8,0-10.1-.1.4.3.8.5,1.1.7-.1,0-.3,0-.4,0,0,0,0,0,0,0h0s0,0,0,0c-.3,0-.6-.2-.9-.2-.2,0-.4,0-.6,0,0,0,0-.2-.4-.2-.3,0-.6,0-.9,0-.6,0-1.1-.1-1.7-.2.1,0,.3,0,.7,0-.7-.1-1.4-.1-2.1,0-1.6-.2-3.2-.3-4.9-.4,0,0-.1,0-.2,0,0,0,0,0,0,0,0,0,0-.2-.1-.3-.1,0-.3,0-.4,0,0,0,0,.2,0,.3.2,0,.3,0,.5,0,0,0,0,0,0,0-.4,0-.8,0-1.3,0,0,0,0-.2,0-.3-.9,0-1.7,0-2.5,0,1.2,0,2.6,0,3.3,0-.6-.5-3.8-.4-5.7-.6.3.2,1.1.3,2,.3-.4,0-.7,0-1.1,0,0,0,0,0,0,.1.4,0,.8,0,1.2,0-.4,0-1.3.2-1.1,0,0,0-.1,0,0,0-.5,0-1.1,0-1.7.1-.5,0-.8-.1-1.4-.2,0,.2,0,.3-.1.4.9,0,1.9,0,2.9,0,0,0,.1,0,.4.1.3,0,.4,0,.8-.1.7,0,1.4,0,2.1,0-.4,0-.8,0-1.2,0-.5.3.6.3,1.2.4.1,0,.1,0,.1.2-.3,0-.7,0-1,0-.7,0-1.5,0-2.2-.1.2,0,.3-.2.3-.3-2-.1-4.3,0-6.5,0-1.1-.1-2.2-.1-3.4-.2-.5,0-1-.1-1.5-.2,0,0-.1,0-.2,0,0,0,0,0-.2,0,0,0,0,0,0,0-.3,0-.7.2-1,.2-.6-.2-1-.3-1.4-.4-.7.2-2,.2-2.5,0-1.1-.2-2.3-.1-3.5-.2-.3,0-.9,0-.9,0-.5-.2-1.3-.1-1.9-.1-.7,0-1.4,0-2.1,0-.7,0-1.7.1-2.1,0-.7-.1-1.3,0-2-.1-.4,0-.9,0-1.1,0-1.1.2-2.4.1-3.2,0-2.7-.4-5.4,0-8,0-.1,0-.3,0-.4,0-.4,0-.7-.2-1-.3-2.3,0-4.7,0-7-.1-.5,0-1.4,0-1.5,0-.3-.2-2.2,0-1.3-.4,2.5,0,5,0,7.4.1.4,0,.7-.2,1.1-.2-.3,0-.6-.1-.7-.2-1.8,0-3.5.1-5.2.2-.7-.3-1.8-.2-2.8-.2-1.4,0-2.9,0-4.3,0-.2,0-.4,0-.6,0,0,0,0,.1,0,.2.8,0,1.6,0,2.3,0,0,.2,0,.3-.1.4-1.7,0-3.3,0-5,0,.4-.2.7-.5.9-.6-1.4,0-2.7-.2-3.9-.2-.5,0-1,.2-1.5.3.3.2.6.3.9.5-2.3,0-4.4,0-6.4,0-1-.2-1.2-.4-.5-.6.3,0,.6,0,1,0-.2,0-.5-.2-.6-.3-.8,0-1.6,0-2.3.1-.1,0-.3.2-.4.2-.9,0-1.7-.1-2.6-.2-.9,0-1.8,0-2.6,0,0-.1-.1-.2-.2-.3-.4,0-.7,0-.7,0-.6,0-1,0-1.4-.1-.2.1-.4.2-.6.3-1.1,0-2.2,0-3.4,0,0,.1,0,.3-.1.4,1.1,0,2.9,0,2.9.4-.7.3-1.7.2-2.7.2-1.4,0-3.6,0-4.8,0-.6,0-1.2-.1-1.8-.2-.7.1-1.4.2-2,.3-.4,0-.7-.1-1-.2q-2.2.2-4.8-.3c2.5.2,4.5-.3,6.1,0,1.6,0,2.9-.2,4.2-.2.3-.1.6-.3,1-.5-.8,0-1.4,0-1.9,0-.1,0-.2.2-.3.2-.7,0-1.4,0-2.1,0-.2-.1-.3-.2-.5-.3-1.7.3-2.5.5-3.1.4-1.6-.1-3.3.3-4.7,0-.1,0-.6,0-.9,0-1.1,0-2.2.2-3.3.2-.8,0-1.6,0-2.2,0-.7.2-1.4.3-2,.5-.6,0-1.3,0-1.6,0-1.8-.3-3.3-.1-4.8.1-.1.1-.3.3-.4.4-.8,0-1.5,0-2.2,0,0-.2-.1-.3-.2-.4-2.8-.1-5.5.2-8.2,0-.2,0-.4,0-.6,0-2,.2-4,.2-6,.2-.8,0-1.5.1-2.4,0-.8,0-1.7,0-2.1-.1-1,.2-1.7.3-2.2.3,0,.2,0,.3-.2.4-.1.1-.5.2-.7.3.1,0,.3,0,.4,0,.9-.2,1.9-.4,2.9-.7,2.2,0,4.5-.2,6.9,0,.2,0,.5,0,.7-.1,2.1,0,4.2-.1,6.3-.2.7,0,1.4,0,1.8.2,0,0,.1,0,.2.1-.3,0-.5.1-.9.2-1.5,0-3.2-.1-4.6.1-.1,0-.2.1-.2.2-3.5,0-6.8.2-10.4.3-.2,0-.7,0-1.4.1.1.1.2.3.4.5-.8.1-.5.3-.6.6.3,0,.8.2,1.1.2,0,.2,0,.3,0,.3.8,0,1.3.2,1.7.3-3.2-.2-7.2-.3-9-.9-1.5,0-1.4.2-2.9.1,0,.5,1.3,0,1.9.2-.7.2-.4.6-.5.9,0,0,0,0,0,0-.2,0-.3,0-.5,0-.6,0-1.7,0-1.4,0,0,0-.2,0-.2,0,0,0,0,.1,0,.2.4,0,.8,0,1.1,0h0c-.2.2-.4.3-.4.4.8,0,2.5.4,2.4-.1-.8,0-.8-.1-1.4-.1,0,0,0,0,.1,0,.9,0,2.1,0,2.4.1,0,.4-2,.3-3.1.4v.4c1.8.2,3.7,0,4.6-.4.7,0,1.3,0,2.2,0,0-.1-.8-.3-1.7-.4,0,0,.1-.1.1-.2,1.2,0,2.5.1,3.6.2-.3.2-.3.3,0,.4.5,0,1,0,1.4,0,.3.2.6.4.9.6.3,0,.6,0,1.1-.1,0,0,0,0,0,0,0,0,.2,0,.3,0,.1,0,0,0-.1.2,0,0,0,0-.1,0-.8.3-1.3.4-1.8.5-.3,0-.5-.1-.7-.2-.8,0-1.7,0-2.6.1v-.3c-2.4,0-1.3,0-1.9-.3-1.9,0-1.6.4-3.8.2.3.5,2.7.4,4.6.5.2.1.4.3.6.4,0,0,0,0,0,0,.3.2.5.3.8.5-.2,0-.5,0-.9,0v.2c-.3,0-.7,0-1.1,0,.3,0,.7.1,1.1.2v.2c-.5,0-1-.1-1.5-.1-.2,0-.3-.2-.3-.3.2,0,.4,0,.6,0-.5,0-.9-.2-1.2-.3-2-.1-1.9.3-3.9.1,0,.6,1.8,0,2.6.3,0,0,0,0-.1,0-1.3,0-2.6,0-3.9,0v14.7s0,0,.1,0c.1,0,.2,0,.3,0v154.4H-.2v10H0c7.1.2,14.2.2,21.3.3,5.8,0,11.6-.2,17.5-.1,2.2,0,4.3.3,6.5.3,4.7,0,8.7-.2,13.6-.1,11.7.1,24.6,0,39.5.3,1.7,0-1.7.6,1.3.4.3-.2.8,0,1.9,0,.5-.4-1.3-.3-1.3-.6,2.1-.1,6.5-.3,7.8-.1-.2.4-1.6.5-3.9.4.1.5,3.2.2,5.2.3,0,.6-2.6.6-3.2,1,.8,1.3,10.1,1.1,6.5,3,15.1.5,30.3,0,44-.1,9.2,0,19.3.3,27.2-.6,3.6.5,11.2,0,15.5-.3,2.6.2,2,.2,4.5.3,3.7-.6,9.1,0,12.3-.6,0,.3-1.1.4-.6.9,6.9-.3,11.2.5,16.8-.1,3.2.5,11.5-.3,14.2.6,2,.1,1.2-.4,3.2-.3.7,0,.4.3,1.3.3,12.5-.2,22.8.3,36,.3,0,.3,2.9.3,2.8,0,.3,0,.5,0,.8,0,.4-.5-3.1-.2-3.2-.6,18.5.2,33.9.4,49.8.3.6.2-1.4.7,0,1,.2-.2,2.5-.7,1.3-.3,1.5.3,1.1-.4,0-.6,1.2-.4,2.9,0,4.5,0,4.7,0,11.3-.6,14.2.3-.2.4-1.2.2-2.1.1.2-.4-2.2-.1-3.3-.2v.3h1.7c.7.5,3.2.3,4.3.3s.9-.2,1.2-.3c.1,0,.2,0,.3,0,.6,0,2,.2,3,0,.5,0,.4-.3,1.3-.3,1.8,0,4.4.5,8.4.1,3.5.5,5.8.3,10.4.6.3-.5-2-.3-1.3-.9-2.9.3-6.2,0-9.1-.1,6.3-.8,13.4.5,20.1,0,1.4,0,.9.3,1.9.3,11.2-1,24.9-.4,38.2-.6-.3-.2-2-.1-1.3-.6,8.7.2,18-.6,24.6-.1.8.5-2.1.1-1.3.6,4.9,0,9.8.2,16.2.3.4-.5-1.3-.6-3.2-.6,0-.3,2.3,0,3.2-.1,2.6,0-.8.6,1.9.7,2,0,1.3-.6,2.6-.7,2,.1,3.2.4,1.9.9,3.6.3,10.4,1,14.2.3,2,.2,7,.4,11,.3,1.5,0,4.4,0,4.5-.4,5.1.4,8.6.2,14.2.3.9,0,.2.4,1.3.4,2.5,0,.2-.1.6-.4,10.9-.5,15.5.8,24.6.1,3,.3,7.2.3,11.6.3,1.9-.6,7.1-.5,8.4.1,8.4,0,19.4.3,29.1-.3,1.1.1,1.6.4,3.9.3-1.3-.6-4.1-.3-7.1-.7,5.9-.5,13.9-.3,20.7-.1.5.4.5,1.1,3.2.7,0-.2-1.2-.1-1.9-.1-.3-.6,3.7-.8,5.2-.6.6.6-2.8.2-1.9.9,3.9,0,6.9.3,10.4,0-1.1-.4-6.9.2-7.1-.4,2.7-.7,12.2-.3,17.5-.1,2.9.2,1.9,1.4,1.3,2.2,5.2,1,13.8,1.3,20.7,2,10.1-.5,19.5.6,29.1.7,2.3,0,4.3-.2,6.5-.1,2.5,0,5.9.4,9.7.3.6,0,1.1-.3,1.9-.3,5.2,0,10.6.4,15.5.4s7.9-.4,11,.1c10.6-.5,21.8-.4,33-.7,3.7-.1,7.2-.5,11-.6h9.7c1.8,0,3.4-.3,5.2-.3,6.9-.1,14.7.2,20.1-.3,5.3,0,14,0,20.1-.1,1.5,0,2.4-.3,3.9-.3s3.1.2,5.8.1c7-.2,13,.6,20.1.7,8.7.2,18-.2,27.2-.1,3.3,0,6.3.2,9.7.1,3.6,0,8.7-.2,14.2-.1,6.1.1,14.5-.5,21.4.4,5.9.1,11.2-.4,16.8-.1,1,0,2.2.3,3.2.3h12.2c1.1,0,2.3-.3,3.2-.3,5.6-.2,10.9.3,16.8.1,6.8-1,15.2-.3,21.4-.4,5.6,0,10.6.1,14.2.1s6.4-.1,9.7-.1c9.2,0,18.5.4,27.2.1,7.1-.2,13.1-.9,20.1-.7,2.7,0,3.7,0,5.8-.1,1.4,0,2.4.3,3.9.3,6.1.2,14.8.2,20.1.1,5.3.5,13.1.2,20.1.3,1.8,0,3.3.2,5.2.3h9.7c3.8,0,7.3.5,11,.6,11.2.3,22.4.2,33,.7,3.1-.5,6.8-.1,11-.1s10.3-.4,15.5-.4,1.4.3,1.9.3c3.9.1,7.2-.3,9.7-.3s4.2.2,6.5.1c9.6-.1,19-1.2,29.1-.7,6.9-.6,15.5-.9,20.7-2-.6-.6-1.6-1.9,1.3-2.2,5.3-.2,14.8-.6,17.5.1-.2.6-6,0-7.1.4,3.5.3,6.4,0,10.4,0,.9-.6-2.5-.3-1.9-.9,1.5-.2,5.5,0,5.2.6-.8,0-1.8,0-1.9.1,2.7.3,2.7-.4,3.2-.7,6.8-.2,14.8-.3,20.7.1-3,.4-5.8.1-7.1.7,2.2.1,2.7-.2,3.9-.3,9.7.6,20.8.3,29.1.3,1.3-.7,6.5-.8,8.4-.1,4.5,0,8.7,0,11.7-.3,9.1.7,13.7-.6,24.6-.1.4.3-1.8.5.6.4,1.1,0,.4-.4,1.3-.4,5.7,0,9.1.1,14.2-.3,0,.4,3,.4,4.5.4,4,.1,9,0,11-.3,3.8.7,10.6,0,14.2-.3-1.2-.5,0-.7,1.9-.9,1.3.1.5.8,2.6.7,2.7-.1-.6-.7,1.9-.7s3.3-.2,3.2.1c-1.9,0-3.7,0-3.2.6,6.4,0,11.3-.2,16.2-.3.8-.5-2.1-.1-1.3-.6,6.6-.4,15.9.4,24.6.1.7.5-1,.4-1.3.6,13.3.2,27-.4,38.2.6,1,0,.5-.4,1.9-.3,6.7.5,13.8-.8,20.1,0-2.9.1-6.2.5-9.1.1.7.5-1.6.4-1.3.9,4.6-.3,6.8-.1,10.4-.6,4,.3,6.6-.1,8.4-.1s.8.3,1.3.3c1.1,0,2.8-.2,3.2-.1.6,0-.2.3,1.3.3s3.8.2,4.4-.3h3v-.3c-1,0-3-.1-3.3,0-.9-.1-2.4.4-3.2.2.6,0,1,0,.7-.3-.3,0-.5,0-.7,0,3.1-.8,9.3-.2,13.8-.2s3.3-.4,4.5,0c-1.1.2-1.5.9,0,.6-1.2-.4,1.1.1,1.3.3,1.4-.3-.6-.8,0-1,16,0,31.3-.1,49.9-.3-.2.4-3.7,0-3.2.6.8,0,1.5,0,2.2,0-.2.3,2.9.3,2.7,0-.2,0-.3,0-.4,0,5.2,0,10-.1,14.7-.2.4,0,.7,0,.9,0,6.3-.1,12.5-.2,19.3,0,.9,0,.6-.3,1.3-.3,2-.1,1.2.4,3.2.3,2.7-.9,11.1,0,14.2-.6,5.6.7,10-.1,16.8.1.5-.4-.7-.5-.6-.9,3.2.5,8.6,0,12.3.6,2.6,0,2-.1,4.5-.3,4.3.2,12,.8,15.5.3,7.9.9,18,.5,27.2.6,13.7,0,28.9.7,44,.1-3.6-2,5.7-1.7,6.5-3-.6-.4-3.2-.5-3.2-1,2,0,5,.2,5.2-.3-2.3,0-3.7,0-3.9-.4,1.2-.1,5.7,0,7.8.1,0,.3-1.8.2-1.3.6,1.1,0,1.7-.2,1.9,0,3,.1-.4-.5,1.3-.4,14.9-.2,27.8-.2,39.5-.3,4.9,0,8.9.2,13.6.1,2.2,0,4.2-.3,6.5-.3,5.8,0,11.7.2,17.5.1,5.1,0,10.1,0,15.2-.2h.2c7.1.2,14.2.2,21.3.3,5.8,0,11.6-.2,17.5-.1,2.2,0,4.3.3,6.5.3,4.7,0,8.7-.2,13.6-.1,11.7.1,24.6,0,39.5.3,1.7,0-1.7.6,1.3.4.3-.2.8,0,1.9,0,.5-.4-1.3-.3-1.3-.6,2.1-.1,6.5-.3,7.8-.1-.2.4-1.6.5-3.9.4,0,.5,3.2.2,5.2.3,0,.6-2.6.6-3.2,1,.8,1.3,10.1,1.1,6.5,3,15.1.5,30.3,0,44-.1,9.2,0,19.3.3,27.2-.6,3.6.5,11.2,0,15.5-.3,2.6.2,2,.2,4.5.3,3.7-.6,9.1,0,12.3-.6,0,.3-1.1.4-.6.9,6.9-.3,11.2.5,16.8-.1,3.2.5,11.5-.3,14.2.6,2,.1,1.2-.4,3.2-.3.7,0,.4.3,1.3.3,7.5-.1,14.2,0,21.3.2.2,0,.6,0,1.2,0,4.4,0,9,.1,14.1.1,0,.3,2.9.3,2.7,0,0,0,.1,0,.2,0,.4-.5-3.1-.2-3.2-.6,18.5.2,33.9.4,49.8.3.6.2-1.4.7,0,1,.2-.2,2.5-.7,1.3-.3,1.5.3,1.1-.4,0-.6,1.2-.4,2.9,0,4.5,0,4.7,0,11.3-.6,14.2.3-.2.3-.7.3-1.4.2.1-.2-.8-.2-1.8-.2,0,0-.2,0-.3,0-.4,0-.9,0-1.2,0v.3h1.1c.9.4,3.1.2,4.2.2s1-.1,1-.2c.5,0,1.3,0,1.9,0,.5,0,1.1,0,1.6,0,.5,0,.4-.3,1.3-.3,1.8,0,4.4.5,8.4.1,3.5.5,5.8.3,10.4.6.3-.5-2-.3-1.3-.9-2.9.3-6.2,0-9.1-.1,6.3-.8,13.4.5,20.1,0,1.4,0,.9.3,1.9.3,11.2-1,24.9-.4,38.2-.6-.3-.2-2-.1-1.3-.6,8.7.2,18-.6,24.6-.1.8.5-2.1.1-1.3.6,4.9,0,9.8.2,16.2.3.4-.5-1.3-.6-3.2-.6-.1-.3,2.3,0,3.2-.1,2.6,0-.8.6,1.9.7,2,0,1.3-.6,2.6-.7,2,.1,3.2.4,1.9.9,3.6.3,10.4,1,14.2.3,2,.2,7,.4,11,.3,1.5,0,4.4,0,4.5-.4,5.1.4,8.6.2,14.2.3.9,0,.2.4,1.3.4,2.5,0,.2-.1.6-.4,10.9-.5,15.5.8,24.6.1,3,.3,7.2.3,11.6.3,1.9-.6,7.1-.5,8.4.1,8.4,0,19.4.3,29.1-.3,1.1.1,1.6.4,3.9.3-1.3-.6-4.1-.3-7.1-.7,5.9-.5,13.9-.3,20.7-.1.5.4.5,1.1,3.2.7-.1-.2-1.2-.1-1.9-.1-.3-.6,3.7-.8,5.2-.6.6.6-2.8.2-1.9.9,3.9,0,6.9.3,10.4,0-1.1-.4-6.9.2-7.1-.4,2.7-.7,12.2-.3,17.5-.1,2.9.2,1.9,1.4,1.3,2.2,5.2,1,13.8,1.3,20.7,2,10.1-.5,19.5.6,29.1.7,2.3,0,4.3-.2,6.5-.1,2.5,0,5.9.4,9.7.3.6,0,1.1-.3,1.9-.3,5.2,0,10.6.4,15.5.4s7.9-.4,11,.1c10.6-.5,21.8-.4,33-.7,3.7-.1,7.2-.5,11-.6h9.7c1.8,0,3.4-.3,5.2-.3,6.9-.1,14.7.2,20.1-.3,5.3,0,14,0,20.1-.1,1.5,0,2.4-.3,3.9-.3s3.1.2,5.8.1c7-.2,13,.6,20.1.7,8.7.2,18-.2,27.2-.1,3.3,0,6.3.2,9.7.1,3.6,0,8.7-.2,14.2-.1,6.1.1,14.5-.5,21.4.4,5.9.1,11.2-.4,16.8-.1,1,0,2.2.3,3.2.3h12.2c1.1,0,2.3-.3,3.2-.3,5.6-.2,10.9.3,16.8.1,6.8-1,15.2-.3,21.4-.4,5.6,0,10.6.1,14.2.1s6.4-.1,9.7-.1c9.2,0,18.5.4,27.2.1,7.1-.2,13.1-.9,20.1-.7,2.7,0,3.7,0,5.8-.1,1.4,0,2.4.3,3.9.3,6.1.2,14.8.2,20.1.1,5.3.5,13.1.2,20.1.3,1.8,0,3.3.2,5.2.3h9.7c3.8,0,7.3.5,11,.6,11.2.3,22.4.2,33,.7,3.1-.5,6.8-.1,11-.1s10.3-.4,15.5-.4,1.4.3,1.9.3c3.9.1,7.2-.3,9.7-.3s4.2.2,6.5.1c9.6-.1,19-1.2,29.1-.7,6.9-.6,15.5-.9,20.7-2-.6-.6-1.6-1.9,1.3-2.2,5.3-.2,14.8-.6,17.5.1-.2.6-6,0-7.1.4,3.5.3,6.4,0,10.4,0,.9-.6-2.5-.3-1.9-.9,1.5-.2,5.5,0,5.2.6-.8,0-1.8,0-1.9.1,2.7.3,2.7-.4,3.2-.7,6.8-.2,14.8-.3,20.7.1-3,.4-5.8.1-7.1.7,2.2.1,2.7-.2,3.9-.3,9.7.6,20.8.3,29.1.3,1.3-.7,6.5-.8,8.4-.1,4.5,0,8.7,0,11.7-.3,9.1.7,13.7-.6,24.6-.1.4.3-1.8.5.6.4,1.1,0,.4-.4,1.3-.4,5.7,0,9.1.1,14.2-.3.1.4,3,.4,4.5.4,4,.1,9,0,11-.3,3.8.7,10.6,0,14.2-.3-1.2-.5,0-.7,1.9-.9,1.3.1.5.8,2.6.7,2.7-.1-.6-.7,1.9-.7s3.3-.2,3.2.1c-1.9,0-3.7,0-3.2.6,6.4,0,11.3-.2,16.2-.3.8-.5-2.1-.1-1.3-.6,6.6-.4,15.9.4,24.6.1.7.5-1,.4-1.3.6,13.3.2,27-.4,38.2.6,1,0,.5-.4,1.9-.3,6.7.5,13.8-.8,20.1,0-2.9.1-6.2.5-9.1.1.7.5-1.6.4-1.3.9,4.6-.3,6.8-.1,10.4-.6,4,.3,6.6-.1,8.4-.1s.8.3,1.3.3c1.1,0,2.8-.2,3.2-.1.6,0-.2.3,1.3.3s4.1.2,4.5-.4c-.4-.3-1.3-.1-2.1,0,0,0,0,0-.1-.1-.7,0-1.2,0-1.7,0,0,0,0,0,0,0,2.9-.9,9.5-.3,14.2-.3s3.3-.4,4.5,0c-1.1.2-1.5.9,0,.6-1.2-.4,1.1.1,1.3.3,1.4-.3-.6-.8,0-1,16,0,31.3-.1,49.9-.3-.2.4-3.7,0-3.2.6,1,0,1.9,0,2.9,0-.2.3,2.9.3,2.7,0-.2,0-.3,0-.5,0,5,0,9.6-.1,14.1-.2,0,0,0,0,0,0,1.3.2,2,0,2,0,6,0,11.8-.2,18.3,0,.9,0,.6-.3,1.3-.3,2-.1,1.2.4,3.2.3,2.7-.9,11.1,0,14.2-.6,5.6.7,10-.1,16.8.1.5-.4-.7-.5-.6-.9,3.2.5,8.6,0,12.3.6,2.6,0,2-.1,4.5-.3,4.3.2,12,.8,15.5.3,7.9.9,18,.5,27.2.6,13.7,0,28.9.7,44,.1-3.6-2,5.7-1.7,6.5-3-.6-.4-3.2-.5-3.2-1,2,0,5,.2,5.2-.3-2.3,0-3.7,0-3.9-.4,1.2-.1,5.7,0,7.8.1,0,.3-1.8.2-1.3.6,1.1,0,1.7-.2,1.9,0,3,.1-.4-.5,1.3-.4,14.9-.2,27.8-.2,39.5-.3,4.9,0,8.9.2,13.6.1,2.2,0,4.2-.3,6.5-.3,5.8,0,11.7.2,17.5.1,5.1,0,10.3,0,15.4-.2V24.2s0,0,0,0v-14.3c.6,0,1.2,0,1.8,0v-.4h-1.8c0-.3.8-.4,1.8-.5v-1.1c-3,.5-7.9.7-11.6,1ZM3113.1,6.4c-.5-.2-.8-.3-1.4-.5.9,0,1.2,0,1.5,0,0,.1,0,.3-.2.5ZM3144,6.4c-1,0-1.9,0-3,0,0,0-.3,0-.6-.2,1.2-.1,2.3-.3,3.6-.1,0,0,0,.1,0,.2ZM2210.4,5.9c.3,0,.6-.2,1-.3,0,0,.1,0,.2.1-.5,0-.8.1-1.2.1ZM1636.3,3c-.5-.2-.8-.3-1.4-.5.9,0,1.2,0,1.5,0,0,.1,0,.3-.2.5ZM1667.2,3.1c-1,0-1.9,0-3,0,0,0-.3,0-.6-.2,1.2-.1,2.3-.3,3.6-.1,0,0,0,.1,0,.2ZM1404.4,6.1c-1-.1.8-.5,1.9-.6.2.4-1.4.3-1.9.6ZM1409.8,5.6c.3.3-1.9,0-1.9.2-.2,0-.4,0-.7,0,0-.2.6-.3,1.3-.4v-.7c.3.1,1.3-.2,1.8,0-.7.2-.4.6-.5.9ZM1411.2,5.5c1.2,0,2.4,0,2.4.4-1.6,0-2.3-.1-2.4-.4ZM1416.5,6.2c-.5-.2-2.1-.2-1.9-.6,1.1,0,2.9.4,1.9.6ZM683.3,5.8c-.5-.2-.8-.3-1.4-.5.9,0,1.2,0,1.5,0,0,.1,0,.3-.2.5ZM714.2,5.9c-1,0-1.9,0-3,0,0,0-.3,0-.6-.2,1.2-.1,2.3-.3,3.6-.1,0,0,0,.1,0,.2ZM227.5,2.9c-.5-.2-.8-.3-1.4-.5.9,0,1.2,0,1.5,0,0,.1,0,.3-.2.5ZM258.4,2.9c-1,0-1.9,0-3,0,0,0-.3,0-.6-.2,1.2-.1,2.3-.3,3.6-.1,0,0,0,.1,0,.2ZM2.5,5.3c.3,0,.6,0,.9,0-.3,0-.6,0-.9,0,0,0,0,0,0,0ZM7.7,6.1c-.5-.2-2.1-.2-1.9-.6,1.1,0,2.9.4,1.9.6ZM3835,9.7v-.4c.6-.1,1.3-.2,1.9-.2.2.4-1,.4-1.9.6ZM3832.4,9.5c-.4,0-.8,0-1.1,0-.7,0-1.3-.1-2-.2,1.1,0,2.2-.1,3.2.2ZM3824.6,9.1h.6c-.2,0-.5,0-.7.1,0,0,0,0,0-.1ZM3256.9,8.6c-.2.7,5.4.7,4.3-.1.6,0,1,.1.9.3,3.2-.2,5.7-.2,8.2-.1h0c-5.9.5-11.6.5-17.3.4.7-.1,1.4-.2.5-.5h3.3ZM3253.6,7.3v.2c-1,0-1.5,0-1.4-.2h1.4ZM3224.5,8.2c0,0-.1,0-.2,0-.5,0-1,0-1.5,0,.6,0,1.2,0,1.7,0ZM3072.5,8.2s0,0,0,0c0,0,0,0,0,0,0,0,0,0,0,0ZM3065.1,8.1c.4,0,.8.1,1.3.2.3,0,.6,0,1.3-.2-.2.1-.4.2-.5.3-1.2,0-2.3,0-3.3,0,.2-.1.6-.2,1.2-.3ZM3058.8,8.1c.2,0,.5,0,.8.1,0,0,0,.1,0,.2-.4,0-.7-.2-1.2-.3.2,0,.3,0,.5,0ZM3057.2,8.6c-.3,0-.5-.1-.8-.2.3,0,.5,0,.8.2ZM2675.4,3.8c-.4.1-.7.2-1.1.3,0-.1-.2-.2-.4-.3.5,0,1,0,1.5,0ZM2661.4,3.6s0,0,0,0c0,0,0,0,0,0,0,0,0,0,0,0ZM2930.5,5.4c-1.1.1-1.6.2-2.2.2,0,0,0-.1-.1-.3.7,0,1.2,0,2.3,0ZM2718.7,4.8c-.7,0-1.3,0-2,0-.8,0-1.3-.1-2-.2,1.3,0,2.7.1,4,.2ZM2708.3,4.6c.5,0,1.1,0,1.6.1-.6,0-1.2,0-1.8.1-.1,0-.3-.1-.4-.2.2,0,.4,0,.6,0ZM2691.2,4.1c1.1,0,2.4-.1,3.1,0,.8,0,1.8-.1,2.1,0,.7.2,1.5.1,2.2.2,1.1,0,2.2,0,3.2,0,.4,0,.6.2.7.2,0,0-.2.2-.3.2-5.6-.4-9.5-.5-17-.6-.2,0-.4,0-.6,0,.7,0,1.5,0,2.2-.1,1.5.2,2.8.2,4.4.1ZM2688.2,3.3c0,0,0,.1,0,.2-1,0-1.9,0-3,0,0,0-.3,0-.6-.2,1.2-.1,2.3-.3,3.6-.1ZM2684.5,4c-.2,0-.5,0-.7-.1,0,0,0,0,0,0,.2,0,.4,0,.6.1ZM2669.2,3.7c.8,0,1.6,0,2.3,0-1.1,0-2.1,0-3,0,.2,0,.4,0,.7,0ZM2657.3,3.4c-.5-.2-.8-.3-1.4-.5.9,0,1.2,0,1.5,0,0,.1,0,.3-.2.5ZM2474.7,2.5c-1.1.1-1.6.2-2.2.2,0,0,0-.1-.1-.3.7,0,1.2,0,2.3,0ZM2231.2,6.9h1.4v.2c-1,0-1.5,0-1.4-.2ZM2265.1,6.7c-.5,0-1,.2-1.4.3-.7,0-1.4,0-2.2,0-.3.1-.5.2-.6.3h-1.5c0,0-.1,0-.2,0,0,0-.2,0-.4,0-.2-.1-.3-.3-.4-.3h-1.2c.6-.1,1.3-.2,1.8-.3,2,0,4,0,6,.1ZM2277.5,6.7c1.6-.1,3.2-.2,4.2,0,1.1,0,2.5-.1,2.8,0,.9.2,2,.2,3,.2h4.4c.2,0,.3,0,.5.1-3.5,0-7,.2-10.8.4-2-.3-4.6-.2-7.2-.2,0,0-.1,0-.2,0-1.7,0-3.3,0-5,0-.5,0-1-.1-1.5-.3.6,0,1.3.1,2.4.1,0,0-.2-.1-.4-.2.6,0,1.3-.1,1.9-.3,2,.3,3.9.3,5.9.2ZM2273.5,5.3v.3h0c-1.3,0-2.6,0-4.1.1,0,0-.4-.1-.8-.2,1.6-.1,3.1-.4,5-.2ZM2267.6,6.5s0,0-.1,0c0,0,0,0,0,0,0,0,0,0,0,0ZM2247.5,6.2c-.4,0-.7,0-1,0,.3,0,.7,0,1,0ZM2231.5,4.8c0,.2-.1.4-.2.7h0c-.7-.3-1.1-.4-1.9-.7h2.1ZM2223.3,6.1c.7-.2,1.7-.2,2.7-.1.6,0,1.2.1,1.7.2.3-.2.4-.2.6-.4,1.9.1,3.7.2,5.5.3,1,0,2.2.1,3-.1.8.3,2.2.2,3.4.2s1.2,0,1.8,0c.2,0,.4,0,.5,0,.8,0,1.6,0,2.4,0,0,.2-1.9.3-2.4.2-.4.3,1.3.2.9.6-1.8,0-3.5.1-5.1.2-.6,0-1.1,0-1.7,0-.7,0-1.2,0-1.8-.2,1.9,0,4.1,0,3.8-.6-2.4.2-2.4,0-4.3-.2-3.2.5-8.3,0-12.6-.2.5,0,.9,0,1.4,0ZM2129.1,6.7c.8,0,1.8-.1,2.1,0,.7.2,1.5.1,2.2.2,1.1,0,2.2,0,3.2,0,0,0,.1,0,.2,0-.1,0-.2,0-.3,0-.5,0-1,0-1.3.2-.9,0-1.7,0-2.5,0s-.4-.2-.6-.2c-.5.2-.9,0-1.5,0h-5.5c-.9,0-2-.1-3-.2,0,0,.2,0,.2-.1,1.2.1,2.4.1,3.6,0,1.1,0,2.4-.1,3.1,0ZM2120,6.1c0,0-.3,0-.6-.2,1.2-.1,2.3-.3,3.6-.1,0,0,0,.1,0,.2-1,0-1.9,0-3,0ZM1982.6,4.3c-.5,0-.9,0-1.3.1-.4,0-.7,0-1.1-.1h2.4ZM1959.4,4.6c2,0,4.1,0,6,0-.1,0-.3,0-.4,0-.1.1-.2.3-.3.4-.8,0-1.7,0-2.5,0-.2,0-.5,0-.7,0,0-.1-.1-.3-.2-.3-.7,0-1.4,0-2.1,0,0,0,0,0,.2-.1ZM1909.5,5c-1.1.1-1.6.2-2.2.2,0,0,0-.1-.1-.3.7,0,1.2,0,2.3,0ZM1697.7,4.4c-.7,0-1.3,0-2,0-.8,0-1.3-.1-2-.2,1.3,0,2.7.1,4,.2ZM1687.3,4.2c.5,0,1.1,0,1.6.1-.6,0-1.2,0-1.8.1-.1,0-.3-.1-.4-.2.2,0,.4,0,.6,0ZM1453.7,2.1c-1.1.1-1.6.2-2.2.2,0,0,0-.1-.1-.3.7,0,1.2,0,2.3,0ZM1424.7,7.6c-.6,0-1.1,0-1.4,0-.4,0-.8-.1-1.3-.2,0-.1.2-.2.2-.4.8,0,1.4,0,2,0,.2.1.5.3.7.4-.1,0-.2,0-.3,0ZM1419.3,6.1c-.3-.1-.7-.2-1.4-.2,1.7-.5,3.4.2,6.2-.1,0,0-.2,0-.3,0,1,0,2.1,0,3.1.2-1,0-2,.2-3,.2-.1,0-.3,0-.3,0-.4,0-.8,0-1.2,0-.4,0-.7,0-.8,0-.8,0-1.5,0-2.2,0ZM1396.3,8.5c-.2,0-.4,0-.6,0h.6s0,0,0,0ZM861.4,9.2c-.8,0-1.7.1-2.8.1,0-.1,0-.2,0-.3.6,0,1,0,1.5,0,.3,0,.7.2,1.2.2ZM917.2,9.4c-.8,0-1.6,0-2.3,0,0,0-.1-.2-.2-.2,1.8.2,2.1.3,2.4-.1.8,0,1.3.2,1.7.4-.5,0-1,0-1.5,0ZM916.1,8.9c-.8-.1-1.4-.3-2.4-.3,0-.3,2.2-.3,2.9-.1.2.2-.3.3-.5.4ZM874.3,10.2s0,0,0,0c0,0,0,0,0-.1.5,0,1.1.1,1.3.2-.4,0-.8,0-1.2-.1ZM911.8,7.5c3.1,0,5.4,0,7.1.3-.9.5-3,.2-4.3,0-1.5.1-2.5.5-3.8.1.2-.2,1.5,0,1-.4ZM907.5,9.4c.2.2,1.2.3,2,.4-.2.1-.5.3-1,.3-1.1,0-2.2,0-2.4-.3-1,.2-3.6,0-3.3.6-.6,0-.9-.2-.9-.4.6,0,1.2,0,1.7,0v-.3c-.3,0-.6,0-1,0,.3,0,.7,0,1.2,0,.1-.3-.7-.4-1.9-.3,0,.2.2.3.7.3-1.3,0-2.6-.1-3.9-.2.6,0,.9-.3.8-.5,3,0,4,.1,6.7,0-.4.1-.6.3-.5.6-.9,0-1-.1-1.9-.1.5.5,2.1,0,3.8.1ZM900.1,10.1c.4,0,.9,0,1.4,0-.4,0-.9,0-1.4,0ZM906.1,7.9v.2c-.4,0-.4,0-.5.1-.9,0-.7-.5.5-.3ZM903.2,8.2c1,0,1.4.3,2.9.2-.4.2-3.5.2-2.9-.2ZM899.4,8h1.9c0,.2-1.3.1-1,.4-1.4.1-.8-.2-1-.4ZM897.5,7.6c.5,0,.3.2.9.2-.9.2-2.1.2-3.3.1.2-.3,2.1-.1,2.4-.3ZM889.9,9.6c1.6-.3,4.1-.4,6.4-.3-.6.1-1.2.3-1.8.4-.3,0-.6-.1-.8-.2-1.3.5-3.9.3-5.7,0-.2-.4,1.3-.6,2.4-.3-.1.1-.9,0-1,.2,0,0,.5.1.5.2ZM881.8,8c2.2-.1,1.5.4,2.9.4,1.4,0-.6-.3,0-.6,1.2.3,4.5,0,5.2.1.2.5-2,.3-2.4.7-2.2-.5-3.2.4-5.7,0-1.6.1,0,.2-1,.4-1.2-.2.7-.6,1-1.1ZM865.2,7.9c.4,0,.5.1,1,.1,0,0-.5.1-.5.2-.4,0-.5-.1-1-.1,0,0,.5-.1.5-.2ZM823.8,6.7v.2c-1,0-1.5,0-1.4-.2h1.4ZM821.9,9.2c1.3,0,1,.4,2.4.3.6,0,0-.3-.7-.5,1.9,0,3.8,0,5.5.2,0-.2,0-.3.2-.6-1.8.1-3.4-.2-5.1-.3,0,0,0,0,0-.2h2.7v-.2h.3c-.2.7,5.4.7,4.3-.1.6,0,1,.1,1,.3,5-.4,8.5,0,12.4,0-.3.4-3.5-.1-3.8.4,1.9.1,5.4.2,5.2-.7,2.2.2,2.4.2,4.8,0,.2.2-.3.3-.5.4h4.3c.5-.3-1.1-.2-1.9-.2.6-.4,3.9-.3,3.8-.9,2,.1,4.7,0,4.8.7,1.3,0,1.2-.2,2.4-.1,0,.2-.6.2-.5.4,1.4-.1,3.6-.1,5.7-.1.2.3.9.5,1.4.7,1.6.1.7-.3.9-.6-.2-.3-2.1-.1-2.4-.3-.6,0,2.3-.2,4.3-.2-2.4.5,1.5.6,4.3.6-.6.3-2.4.3-2.4.7,0,.3,2,.2,3.3.2-.5-.1-.9-.2-1.4-.3.3-.1,1-.2,1.9-.2-.1.3-.2.6,1.4.4-.4.4-2.1.5-2.9.9-2.5-.2-3.9-.2-6.7-.1-1-.3-2-.7-1.9-1.2-2.8-.5-5.7.2-8.7,0h0c-.1,0-.2,0-.3,0-.3,0-.7,0-1-.1.1,0,.3,0,.4.1-.7,0-1.4,0-2.1,0-.4,0-.9-.2-1.6-.2,0,0,.1.2.4.3-.5,0-1,0-1.4,0,.1,0,.3.2.4.3-.3,0-.5,0-.8,0,.8.2,1.6.4,2.4.6-.3.3-.7-.2-1.4-.1-1.1.2.6.6.9.8.6,0,.4-.3.5-.4,1.9,0-.1.8,1.9.7-1.2.3-3.4-.2-5.7,0-.3-.4.1-.6.9-.7-.4-.2-1.5-.2-2.9-.2-1.6.2.5.6-2.4.4-.1-.3,1.5-.4.5-.7-1.3.2-4.4,1-6.2.3-.4,0-.9,0-1,.2-.1.4,2.1.3,2.9.4-1.3.5.5.4,1.9.4v.6c-.5,0-1.2.1-2,.2,0,0,0,0-.1,0-.6,0-1.2,0-1.8,0-1.1,0-2.2,0-2.8.2-1.3,0-2.6-.1-3.9,0-.6,0-1.1,0-1.7,0-.3-.1-.7-.3-1-.4-.5.2-.9,0-1.5,0h-1.3c0-.2-.3-.4,0-.7-.8-.2-1.4.1-2.4-.1-.8.1-1.7.2-1.4.6-.5,0-1.3,0-1.8.1-.4,0-.8,0-1.1-.2-.3,0-.7-.1-1-.2,0,0,.1,0,.2,0,0-.3-2-.2-3.3-.2-.1,0-.2,0-.3,0-.8,0-1.6,0-2.5,0-2.8-.3-4.7-1-2-1.4-.3,0,3.8.4,4.3.2-.3-.4,1.3-.2,2.9-.4ZM827.6,11.2c.3-.2.6-.2.9-.1-.2,0-.3,0-.4.2h0c-.1,0-.3,0-.4,0ZM785.4,7.8s0,0,.1,0c1.4,0,2.8,0,4.1-.1,2,0,4.5-.6,5.7,0,.4.4-1.6.2-1.9.3.2.2,1,.3,1,.6,1.7-.6,4.8,0,6.2-.7,1.8.2,3,.6,5.2.7,1.3,0,.9-.2,1.4-.3,0,0,.1,0,.2,0,0,.2.2.3.3.6h.2c.6-.2,1-.3,1.3-.4h0c2.2,0,5,0,7,.2-.3.9-3.5,0-5.2.2.1.2,1.8.1,1.9.3.6.4-1.5,0-.9.4-9.2-.6-18.2-1-28.1-1.8.4-.2,1-.3,1.5-.3ZM780.1,8.1v-.4c1.5,0,1.9-.2,2.9,0-1,.1-1.4.4-2.9.4ZM778.6,7.6s0,0,0,.1c-1.9,0-5.6.2-8.2,0,2.7,0,5.4,0,8.2-.1ZM642.8,7.6s0,0,0,0c0,0,0,0,0,0,0,0,0,0,0,0ZM635.4,7.5c.4,0,.8.1,1.3.2.3,0,.6,0,1.3-.2-.2.1-.4.2-.5.3-1.2,0-2.3,0-3.3,0,.2-.1.6-.2,1.2-.3ZM629,7.6c.2,0,.5,0,.8.1,0,0,0,.1,0,.2-.4,0-.7-.2-1.2-.3.2,0,.3,0,.5,0ZM627.5,8c-.3,0-.5-.1-.8-.2.3,0,.5,0,.8.2ZM500.8,4.9c-1.1.1-1.6.2-2.2.2,0,0,0-.1-.1-.3.7,0,1.2,0,2.3,0ZM289,4.3c-.7,0-1.3,0-2,0-.8,0-1.3-.1-2-.2,1.3,0,2.7.1,4,.2ZM278.5,4c.5,0,1.1,0,1.6.1-.6,0-1.2,0-1.8.1-.1,0-.3-.1-.4-.2.2,0,.4,0,.6,0ZM45,1.9c-1.1.1-1.6.2-2.2.2,0,0,0-.1-.1-.3.7,0,1.2,0,2.3,0ZM13.3,7.2s0,0,0,.1c0,0-.1,0-.2,0,0,0,0,0,0,0ZM9.1,5.7c1.3-.4,2.5-.1,4.2,0-.5,0-.9.1-1.3.2,0,0,0,0,0,0-.5,0-1,0-1.5,0-.3-.1-.7-.2-1.4-.2ZM10.2,9c-.2,0-.3,0-.5,0,0,0,0,0,0,0,0,0,0,0,0,0,.2,0,.3,0,.4,0ZM127.3,186.6c-1.2.5-3.2-.4,0-.3v.3ZM231.5,190.4c-.4-.6,2.7-.3,3.9-.1-1.7.2-2,.3-3.9.1ZM240.5,190.4c1.1,0,1.7.1,1.9.3-1,0-2.2,0-1.9-.3ZM244.4,190.7c0-.2,0-.4.6-.4,0,0,0,.2.6.1,0,.2-.2.3-1.2.3ZM251.5,190.7c1.8-.3,5-.7,5.8.1-3.7-.2-3.4,0-5.8-.1ZM264.5,191.3c0-.4,4.3-.8,4.5-.3-1.2.2-3.1.2-4.5.3ZM296.8,188.9c3,0,3.7.2,6.5,0-.8.5-6.2.6-6.5,0ZM305.9,189c0-.3,2.7,0,3.9-.1,1,.5-4.3.7-3.9.1ZM400.3,188.4v-.7c2.9.5,3.4,0,5.8-.3,1.8.7-2.8,1-5.8,1ZM414.5,188.4c-.9,0-7.4-.1-6.5-.1h0c.4-.1.8-.1.6-.2-.8,0-1.5,0-1.3-.3.9,0,8.1-.3,7.1.6ZM425.6,188.2c-2.6.5-7.4.4-11,.3.8,0,.7-.2.6-.4,4.3,0,6.6-.3,8.4.3,0-.4-1.1-.3,0-.6,3,.4,4-.2,7.8.3,1.9-.1,3.3-.3,4.5-.6,3.5.5,6.8.3,9.7.7-3.3,0-15.2.4-20,0ZM459.9,191.3h0c0-.3-2.1-.1-1.9-.4,2,0,2.6-.3,3.2.1-.9,0-.6.3-1.3.3ZM467,189.8v-.3h1.9c0,.3-.6.3-1.9.3ZM477.3,190.5c-.4-.4-3.5-.3-3.9-.7,2.3-.3,5.8,0,7.1,0-.3.4-1.8.6-3.2.7ZM509.7,191.8c1.8-.3,6.2-1,6.5,0-3.1-.2-4.9.8-6.5,0ZM573.7,192.7c-.9-.8,3-.3,3.9-.1-2-.1-2.4.2-3.9.1ZM591.8,192.5c-1.5,0-2.5,0-3.2-.1,0-.3.4-.5,1.3-.6.2.3,2.2.3,1.9.7ZM1334.3,192.5h0c-.3-.5,1.7-.4,1.9-.7.9,0,1.2.3,1.3.6-.8.1-1.7.2-3.2.1ZM1352.4,192.7c-1.5,0-1.9-.3-3.9-.1.9-.1,4.8-.6,3.9.1ZM1410.1,191.8c.3-1,4.7-.3,6.5,0-1.6.8-3.4-.2-6.5,0ZM1448.9,190.5c-1.4-.2-2.9-.3-3.2-.7,1.3,0,4.8-.3,7.1,0-.4.4-3.5.3-3.9.7ZM1459.3,189.8c-1.3,0-2,0-1.9-.3h1.9v.3ZM1466.4,191.3c-.7,0-.4-.3-1.3-.3.6-.5,1.2,0,3.2-.1.2.3-1.9.2-1.9.4ZM1500.7,188.2c-4.8.4-16.7,0-20,0,2.9-.5,6.2-.2,9.7-.7,1.2.3,2.7.5,4.5.6,3.8-.5,4.8,0,7.8-.3,1.1.3,0,.2,0,.6,1.8-.6,4.2-.2,8.4-.3,0,.2,0,.4.6.4-3.6.1-8.4.2-11-.3ZM1517.5,187.9h.1c0,.2.3.2.6.2.9,0-5.5.2-6.5.1-1-.9,6.2-.6,7.1-.6.2.2-.5.3-1.3.3ZM1526,188.4c-3,0-7.6-.4-5.8-1,2.4.3,2.9.8,5.8.3v.7ZM1616.7,188.9c1.1,0,3.8-.2,3.9.1.5.5-4.9.4-3.9-.1ZM1623.2,188.9c2.7.2,3.5,0,6.5,0-.3.6-5.7.5-6.5,0ZM1657.5,190.9c.2-.5,4.5-.1,4.5.3-1.5-.1-3.3-.1-4.5-.3ZM1669.1,190.8c.8-.8,4-.5,5.8-.1-2.4.1-2.1,0-5.8.1ZM1680.7,190.4h.1c.5,0,.6,0,.6-.1.8,0,.5.3.6.4-1.1,0-1.2-.1-1.3-.3ZM1684,190.7c.3-.2.8-.3,1.9-.3.3.3-.9.3-1.9.3ZM1695,190.4c-1.9.2-2.2,0-3.9-.1,1.2-.2,4.3-.5,3.9.1ZM1799.3,186.6v-.3c3.2-.1,1.2.8,0,.3ZM2047,186.7c-1.2.5-3.2-.4,0-.3v.3ZM2151.2,190.5c-.4-.6,2.7-.3,3.9-.1-1.7.2-2,.3-3.9.1ZM2160.3,190.5c1.1,0,1.7.1,1.9.3-1,0-2.2,0-1.9-.3ZM2164.2,190.8c0-.2,0-.4.6-.4,0,0,0,.2.6.1,0,.2-.2.3-1.2.3ZM2171.3,190.8c1.8-.3,5-.7,5.8.1-3.7-.2-3.4,0-5.8-.1ZM2184.2,191.5c0-.4,4.3-.8,4.5-.3-1.2.2-3.1.2-4.5.3ZM2216.6,189c3,0,3.7.2,6.5,0-.8.5-6.2.6-6.5,0ZM2225.6,189.2c0-.3,2.7,0,3.9-.1,1,.5-4.3.7-3.9.1ZM2320.1,188.6v-.7c2.9.5,3.4,0,5.8-.3,1.8.7-2.8,1-5.8,1ZM2334.2,188.5c-.9,0-7.4-.1-6.5-.1h0c.4-.1.8-.1.6-.2-.8,0-1.5,0-1.3-.3.9,0,8.1-.3,7.1.6ZM2345.3,188.3c-2.6.5-7.4.4-11,.3.8,0,.7-.2.6-.4,4.3,0,6.6-.3,8.4.3,0-.4-1.1-.3,0-.6,3,.4,4-.2,7.8.3,1.9-.1,3.3-.3,4.5-.6,3.5.5,6.8.3,9.7.7-3.3,0-15.2.4-20,0ZM2379.6,191.5h0c0-.3-2.1-.1-1.9-.4,2,0,2.6-.3,3.2.1-.9,0-.6.3-1.3.3ZM2386.7,189.9v-.3h1.9c0,.3-.6.3-1.9.3ZM2397.1,190.6h0c-.4-.4-3.5-.3-3.9-.7,2.3-.3,5.8,0,7.1,0-.3.4-1.8.6-3.2.7ZM2429.4,191.9c1.8-.3,6.2-1,6.5,0-3.1-.2-4.9.8-6.5,0ZM2493.5,192.8c-.9-.8,3-.3,3.9-.1-2-.1-2.4.2-3.9.1ZM2511.6,192.6h0c-1.5,0-2.5,0-3.2-.1,0-.3.4-.5,1.3-.6.2.3,2.2.3,1.9.7ZM3254.1,192.6c-.3-.5,1.7-.4,1.9-.7.9,0,1.2.3,1.3.6-.8.1-1.7.2-3.2.1ZM3272.2,192.8c-1.5,0-1.9-.3-3.9-.1.9-.1,4.8-.6,3.9.1ZM3329.8,191.9c.3-1,4.7-.3,6.5,0-1.6.8-3.4-.2-6.5,0ZM3368.7,190.6h0c-1.4-.2-2.9-.3-3.2-.7,1.3,0,4.8-.3,7.1,0-.4.4-3.5.3-3.9.7ZM3379.1,189.9c-1.3,0-2,0-1.9-.3h1.9v.3ZM3386.2,191.5c-.7,0-.4-.3-1.3-.3.6-.5,1.2,0,3.2-.1.2.3-1.9.2-1.9.4ZM3420.4,188.3c-4.8.4-16.7,0-20,0,2.9-.5,6.2-.2,9.7-.7,1.2.3,2.7.5,4.5.6,3.8-.5,4.8,0,7.8-.3,1.1.3,0,.2,0,.6,1.8-.6,4.2-.2,8.4-.3,0,.2-.1.4.6.4-3.6.1-8.4.2-11-.3ZM3437.2,188h0c-.1.2.3.2.6.2.9,0-5.5.2-6.5.1-1-.9,6.2-.6,7.1-.6.2.2-.5.3-1.3.3ZM3445.8,188.6c-3,0-7.6-.4-5.8-1,2.4.3,2.9.8,5.8.3v.7ZM3536.4,189c1.1,0,3.8-.2,3.9.1.5.5-4.9.4-3.9-.1ZM3542.9,189c2.7.2,3.5,0,6.5,0-.3.6-5.7.5-6.5,0ZM3577.2,191.2c.2-.5,4.5-.1,4.5.3-1.5-.1-3.3-.1-4.5-.3ZM3588.9,190.9c.8-.8,4-.5,5.8-.1-2.4.1-2.1,0-5.8.1ZM3600.4,190.5h0c.5,0,.6,0,.6-.1.8,0,.5.3.6.4-1.1,0-1.2-.1-1.3-.3ZM3603.8,190.8c.3-.2.8-.3,1.9-.3.3.3-.9.3-1.9.3ZM3614.8,190.5c-1.9.2-2.2,0-3.9-.1,1.2-.2,4.3-.5,3.9.1ZM3719.1,186.7v-.3c3.2-.1,1.2.8,0,.3Z"/>
  <polygon class="st0" points="3311.7 9.5 3311.7 9.5 3311.7 9.5 3311.7 9.5"/>
  <path class="st0" d="M3311.7,9.5c-.7,0-.8,0-1.3,0,0,0-.5-.2-.6,0,.4.3,3.5,0,1.9,0Z"/>
  <path class="st0" d="M3641.2,8.5c0,0,.2.1.8.1,0,0,0,0,0-.1,1,0,1.7,0,1.2-.2h0c.2.2-1.9,0-1.9-.2,1.5,0,2.8-.2,3.2-.4-2.6.2-7,0-7.8.7.8,0,2.8.1,4.4,0Z"/>
  <path class="st0" d="M2133.1,7.5c.3-.3-2.9-.2-1.9,0,1,0,1.1,0,1.9,0Z"/>
  <path class="st0" d="M2569.8,5.4h0c-3.2.5,4.3.5,6.5.3,2.1-.2-2.3-.1-3.2-.1-.5-.5,1.8-.3,1.3-.7-5.1.4-13.5,0-16.2,0,2.4.8,5.9.3,11.6.4Z"/>
  <path class="st0" d="M2562.7,3.7c-1,0-1.6.2-2.6.3.4.4,3.3,0,2.6-.3Z"/>
  <path class="st0" d="M2032.9.4c0,.2,1,.1,1.7.1-.3-.1-.9-.1-1.1-.3-.7,0-.4,0,0,0,0,.1-.3.1-.6.1Z"/>
  <path class="st0" d="M2034.8.5c0,0-.1,0-.2,0,0,0,.2,0,.2,0h0Z"/>
  <path class="st0" d="M2106.5,9.1h.2c.6-.2,1-.3,1.3-.4h0c-.7-.4-1.2-.6-1.9-.9h-1.1c-.1.2-.2.3-.4.5.6,0,1.1.1,1.5.2,0,.2.2.3.3.6Z"/>
  <path class="st0" d="M2028.7,7c.9,0,1.6.2,2.3.2-.2,0-.5-.1-.7-.2h2.2c-1.3-.2-1.9-.2-2.6-.3-.4,0-.8.2-1.5.3h-1.4c.2,0,.4,0,.6.2.4,0,.7,0,1.1-.2Z"/>
  <path class="st0" d="M2130.6,9.2c-.1,0-.2,0-.3,0,0,0,0,0,0,0h.3Z"/>
  <path class="st0" d="M2129.8,9c0,0,.1,0,.2,0,0,0,0-.2-.2-.3h-.5v.3h.5Z"/>
  <path class="st0" d="M2129.3,9.1h0c0,0-.1,0-.2,0h.2Z"/>
  <path class="st0" d="M2130.3,9.2c0,0-.2-.1-.3-.1,0,0,0,0,0,0,0,0,.2,0,.3,0Z"/>
  <path class="st0" d="M2066.8,7.7h-.1c.1,0,.3,0,.5,0-.1,0-.2,0-.4,0Z"/>
  <path class="st0" d="M2081.4,7.4c-4-.3-7.5-1-12.3-.7-.5.3.6.3,1.2.4.2,0,.1.2.2.4-.8,0-1.4-.2-1.5-.2-.8.2-1.3.3-1.8.4,4.6.2,9.4,0,14.2-.3Z"/>
  <path class="st0" d="M2090.5,7.8h0c-.1,0-.2,0-.3,0,.8,0,1.7-.2,3.2-.4-3.8,0-6.8,0-10.1,0,.5.3.9.5,1.2.8,2.1,0,4.1,0,6.1-.2Z"/>
  <path class="st0" d="M2155.8,9.8h3.8c-1.1,0-1.6-.2-2.1-.3,0-.2,0-.3.1-.4.6,0,1.1,0,1.6,0v-.3c-2,0-3.9,0-5.7.2.3.2.6.5,1,.5,1.2,0,1.3.2,1.3.4Z"/>
  <path class="st0" d="M2099.7,7.9h0c-.6-.3-1.2-.5-1.6-.6-1.8,0-2.8,0-3.2.4.5,0,1,.2,1.5.4,1.3,0,2.4-.2,3.3-.2Z"/>
  <path class="st0" d="M1693.7,199.9c1.6,0,3.1,0,3.2-.3-1-.2-3.7-.2-3.2.3Z"/>
  <path class="st0" d="M1692.4,199.6c-1.1,0-1.7.1-1.9.3,1.1,0,1.7-.1,1.9-.3Z"/>
  <path class="st0" d="M1741.7,198.8c.8.2,3.2.2,3.2,0-.9,0-3.3-.2-3.2,0Z"/>
  <path class="st0" d="M1631.6,198.2c1.1,0,3.2.4,3.9,0-1.7.2-3.1-.4-3.9,0Z"/>
  <path class="st0" d="M1623.8,196.3c1.9.2,6.2.3,7.1,0-2.8,0-4.7-.2-7.1,0Z"/>
  <path class="st0" d="M1358.3,194.3c1.1,0,3.8.2,3.9,0-1-.2-3,0-3.9,0Z"/>
  <path class="st0" d="M1369.3,194.1c1,0,2.4,0,2.6,0-.9-.2-2.4-.2-2.6,0Z"/>
  <path class="st0" d="M1313.6,193.8c.8,0,.9.2,1.9.1,1-.4-2.2-.4-1.9-.1Z"/>
  <path class="st0" d="M1335.6,193.4c3.3-.4-2.2-.4,0,0h0Z"/>
  <path class="st0" d="M1575.2,191.8c1.7.2,6.8.2,8.4,0,1.1-.2-7.4-.3-8.4,0Z"/>
  <path class="st0" d="M1579.7,196.3h.1s0-.2.6,0c0,0,.5.2.6,0-.6-.3-3.3,0-1.3,0Z"/>
  <path class="st0" d="M229.5,199.6c0,.3,1.6.3,3.2.3.5-.5-2.3-.5-3.2-.3Z"/>
  <path class="st0" d="M236,199.9c-.3-.2-.8-.3-1.9-.3.3.2.8.3,1.9.3Z"/>
  <path class="st0" d="M181.6,198.7c0,.4,2.4.3,3.2,0,.1-.3-2.3,0-3.2,0Z"/>
  <path class="st0" d="M291,198.2c.7.4,2.7,0,3.9,0-.8-.4-2.2.2-3.9,0Z"/>
  <path class="st0" d="M295.5,196.2c1,.5,5.2.3,7.1,0-2.4-.3-4.3-.2-7.1,0Z"/>
  <path class="st0" d="M564,194.1c0,.3,2.7,0,3.9.1-.9-.2-2.9-.4-3.9-.1Z"/>
  <path class="st0" d="M554.3,194c.2.2,1.6,0,2.6,0-.2-.3-1.7-.3-2.6,0Z"/>
  <path class="st0" d="M610.6,194c1,0,1.1-.1,1.9-.1.3-.3-2.9-.2-1.9.1Z"/>
  <path class="st0" d="M590.6,193.4c2.2-.4-3.3-.4,0,0h0Z"/>
  <path class="st0" d="M342.8,191.8c1.7.2,6.8.2,8.4,0-1-.3-9.5-.2-8.4,0Z"/>
  <path class="st0" d="M345.2,196.2h0c.1.2.6,0,.6,0q.6,0,.6,0c2-.2-.7-.4-1.3,0Z"/>
  <path class="st0" d="M3613.5,200c1.6,0,3.1,0,3.2-.3-1-.2-3.7-.2-3.2.3Z"/>
  <path class="st0" d="M3612.2,199.7c-1.1,0-1.7,0-1.9.3,1.1,0,1.7-.1,1.9-.3Z"/>
  <path class="st0" d="M3661.4,199c.8.2,3.2.2,3.2-.1-.9,0-3.3-.2-3.2.1Z"/>
  <path class="st0" d="M3551.3,198.4c1.1,0,3.2.4,3.9,0-1.7.2-3.1-.4-3.9,0Z"/>
  <path class="st0" d="M3543.5,196.5c1.9.2,6.2.3,7.1-.1-2.8,0-4.7-.2-7.1.1Z"/>
  <path class="st0" d="M3278,194.4c1.1,0,3.8.2,3.9,0-1-.2-3,0-3.9,0Z"/>
  <path class="st0" d="M3289,194.3c1,0,2.4,0,2.6,0-.9-.2-2.4-.2-2.6,0Z"/>
  <path class="st0" d="M3233.3,194c.8,0,.9.2,1.9,0,1-.4-2.2-.4-1.9,0Z"/>
  <path class="st0" d="M3255.4,193.5c3.3-.4-2.2-.4,0,0h0Z"/>
  <path class="st0" d="M3495,191.9c1.7.2,6.8.2,8.4,0,1.1-.2-7.4-.3-8.4,0Z"/>
  <path class="st0" d="M3491.1,192.1h3.2v-.3c-1.2,0-3.9-.2-3.2.3Z"/>
  <path class="st0" d="M3499.4,196.5h0s0-.2.6-.1c0,0,.5.2.6,0-.6-.3-3.3,0-1.3.1Z"/>
  <path class="st0" d="M2149.3,199.7c0,.3,1.6.3,3.2.3.5-.5-2.3-.5-3.2-.3Z"/>
  <path class="st0" d="M2155.7,200c-.3-.2-.8-.3-1.9-.3.3.2.8.3,1.9.3Z"/>
  <path class="st0" d="M2101.4,198.8c0,.4,2.4.3,3.2.1.1-.3-2.3,0-3.2-.1Z"/>
  <path class="st0" d="M2210.7,198.4c.7.4,2.7,0,3.9,0-.8-.4-2.2.2-3.9,0Z"/>
  <path class="st0" d="M2215.3,196.3c1,.5,5.2.3,7.1.1-2.4-.3-4.3-.2-7.1-.1Z"/>
  <path class="st0" d="M2483.8,194.3c0,.3,2.7,0,3.9.1-.9-.2-2.9-.4-3.9-.1Z"/>
  <path class="st0" d="M2474.1,194.1c.2.2,1.6.1,2.6.1-.2-.3-1.7-.3-2.6-.1Z"/>
  <path class="st0" d="M2530.4,194.1c1,0,1.1,0,1.9,0,.3-.3-2.9-.2-1.9,0Z"/>
  <path class="st0" d="M2510.3,193.5c2.2-.4-3.3-.4,0,0h0Z"/>
  <path class="st0" d="M2262.5,191.9c1.7.2,6.8.2,8.4,0-1-.3-9.5-.2-8.4,0Z"/>
  <path class="st0" d="M2265,196.3h0c.1.2.6,0,.6,0q.6,0,.6.1c2-.2-.7-.4-1.3-.1Z"/>
  <path class="st0" d="M838.6,14.7c1.8,0,3,0,3.3-.3-1.7,0-1.8.2-3.3.2.4-.3-1.6-.1-1.4-.4-.8,0-2,0-2.4.2,1.8,0,2.5.4,1.4.6,1.1.2,2.3.3,3.3,0-.4,0-2.1-.3-.9-.3Z"/>
  <path class="st0" d="M854.3,14.1c1.4-.4-1.8-.3,0,0h0Z"/>
  <path class="st0" d="M821.9,14.1v-.2h-1.4c0,.2.5.3,1.4.2Z"/>
  <path class="st0" d="M828.6,13.7c-1.1,0-1.8,0-1.9.2,1.2,0,1.8.2,1.9-.2Z"/>
  <path class="st0" d="M839.1,13.6c-.3.3.2.4,1.4.3.2-.2-.3-.2-.8-.3,0,0,0,0,0,0h0c-.3,0-.5,0-.6,0Z"/>
  <path class="st0" d="M823.8,13.7h-.9v.2h.9v-.2Z"/>
  <path class="st0" d="M1403.9,11.7c-.7.3,1.6.3,1.4.1-.3,0-.6,0-.5-.1h-.9Z"/>
  <path class="st0" d="M796.7,9.6c-1.1,0-1.8,0-1.9.2.7,0,.8.2,1.4.2-.1-.2.5-.2.5-.4Z"/>
  <path class="st0" d="M1398.2,9.8c1.6.3,1.4-.4,0,0h0Z"/>
  <path class="st0" d="M834.3,9.7c-1.4,0-1.8-.4-2.4,0,.9,0,2,.4,2.4,0Z"/>
  <path class="st0" d="M793.4,9.9v-.2h-1.4c0,.2.5.3,1.4.2Z"/>
  <path class="st0" d="M779.1,9.9c.4-.4-1.8-.4-1.9-.1.9,0,1.1.1,1.9.1Z"/>
  <path class="st0" d="M866.6,9.7c.1-.2-.1-.4-.9-.4,0,.1-.2.2-.5.3.6,0,.7.1,1.4.1Z"/>
  <path class="st0" d="M777.2,8.3c-2,.3-5.3-.4-7.6,0,1.9.2,6.6.5,7.6,0Z"/>
  <path class="st0" d="M918.9,8.4c.1-.1.5,0,1,0v-.2c-.5,0-.6,0-1-.1,0,0,0,.1-.5.1.1,0,0,.2.5.2Z"/>
  <path class="st0" d="M1212.3,8.1c.5-.6-2.1,0,0,0h0Z"/>
  <path class="st0" d="M1196.6,8c0-.1.8-.2,0-.3,0,.1-.8.2,0,.3Z"/>
  <path class="st0" d="M1189.4,7.9c.7-.3-2.5-.3-2.4-.1,1,.2,1.5,0,2.4.1Z"/>
  <path class="st0" d="M1238.4,7.8c0-.1.6-.1.5-.3h-.9c-.5.2-.5.3.5.3Z"/>
  <path class="st0" d="M1020.7,7.4c0-.4-1.9,0-2.9-.3-.4.5,1.6.4,2.9.3Z"/>
  <path class="st0" d="M879.5,7.3c.6,0,1.3.1,2.4.1.2-.4-1.7-.3-2.4-.1Z"/>
  <path class="st0" d="M1255.5,6.8c-.2.1-.7.2-.5.4,1.3-.3,3.4.2,4.8-.1-1.2-.4-3.7,0-4.3-.3Z"/>
  <path class="st0" d="M1253.6,7.2c0-.1.8,0,.9-.2-.8,0-1.9-.2-2.9,0,.9,0,.6.3,1.9.2Z"/>
  <path class="st0" d="M1014.5,7.2v-.4h-1.4c0,.3.7.3,1.4.4Z"/>
  <path class="st0" d="M1008.8,7.1c0-.2.2-.4-.5-.4-.3,0-1.2.5.5.4Z"/>
  <path class="st0" d="M1263.1,6.5c.5,0,.6,0,.9.1,1.3-.2-.7-.4-.9-.1Z"/>
  <path class="st0" d="M964.6,6c-.3,0-.6,0-.5-.1h-1c-.7.3,1.6.3,1.4.1Z"/>
  <path class="st0" d="M973.6,6c.1-.3-.2-.5-1.4-.4-.1.3.2.5,1.4.4Z"/>
  <path class="st0" d="M970.3,5.4c-.8,0-1.2,0-1.4.2.7,0,1.6,0,1.4-.2Z"/>
  <path class="st0" d="M1257.9,5.5c.7-.3-1.6-.3-1.4-.1.6,0,.7.1,1.4.1Z"/>
  <path class="st0" d="M935.6,3.9c4.2,0,6.8.2,8.6-.3-1.9-.2-8.1.2-11.9-.1-.4.3,1.3.2,1,.5-.7,0-3.9,0-2.4.1,1.6.2,7.1.1,4.8-.2Z"/>
  <path class="st0" d="M893.7,3.3c2.4-.2,5.2.2,6.7-.3-1-.3-2.2,0-3.3.1,0,0-.7-.2-1.4-.2,0,0-.7.2-.9.2-.7,0-2.6-.2-1,.2Z"/>
  <path class="st0" d="M892.3,3.1c-1.2.1-2-.3-2.4,0,.3,0,2.3.3,2.4,0Z"/>
  <path class="st0" d="M942.7,2.8c-.7,0-1.2-.2-1.9-.2-.5.3,1.6.5,1.9.2Z"/>
  <path class="st0" d="M1255.5.1c-1.4,0-2.9,0-3.3.3,1.8,0,3.1.2,3.3-.3Z"/>
  <path class="st0" d="M1392.5,11.6c2.2-.3,4.5,0,5.2-.3-1-.2-4.7,0-5.2.3Z"/>
  <path class="st0" d="M802,10.1c-.7-.4,1-.3,1-.6-1.3.1-1.7.3-3.3.1,0,.3-1.5.2-1.4.5,1.5-.2,2.1,0,3.8,0Z"/>
  <path class="st0" d="M1020.7,6.9c-.5,0-.6,0-.9.1,0,0-.4-.1-.5,0,.3.2,2.6,0,1.4-.1Z"/>
  <path class="st0" d="M1264.1,5.9c.1.2-1.4,0-1.4-.1,1.1,0,2-.1,2.4-.3-1.9.2-5.1,0-5.7.5,1.2.1,5.6.2,4.8-.1Z"/>
  <path class="st0" d="M879.5,3.4c1-.2,1.9,0,3.3,0-.9-.7-8-.8-9.5-.4,2.4.2,6.5.2,6.2.4Z"/>
  <path class="st0" d="M1329.7.1c.3,0,.5,0,0-.1-.1.2-.8.2-1,.3.6,0,1.4,0,1.4-.1-.3,0-.6,0-.5-.1Z"/>
  <path class="st0" d="M2,11.7c0-.3-1.2-.4-2.4-.4-.3.4.8.5,2.4.4Z"/>
  <path class="st0" d="M614.8,9.6c0,.1.5.2.4.4.6,0,.7-.2,1.4-.2,0,0,0,0,0,0,.5,0,.9,0,1.5,0h0c1,.2,1.5.1,1.4,0h-1.4c-1.8-.3-3.7-.2-5.6-.2.8,0,1.5,0,2.3.1Z"/>
  <path class="st0" d="M634.2,9.8c0-.3-2.3-.3-1.9.1.9,0,1-.1,1.9-.1Z"/>
  <path class="st0" d="M641.8,8.3c-2.3-.4-5.6.3-7.6,0,1,.5,5.7.2,7.6,0Z"/>
  <path class="st0" d="M492.7,8.4c.5,0,.4-.1.5-.2-.4,0-.4,0-.5-.1-.4,0-.5.1-.9.1v.2c.4,0,.8-.1.9,0Z"/>
  <path class="st0" d="M2,6.8c-1.2,0-2.4,0-3.2.2v.2c.8,0,2,0,2.3.1,0,.3-1.4.2-2.3.3v.3c2.3.2,5-.3,3.2-1.1Z"/>
  <path class="st0" d="M391,7.4c1.3.1,3.3.2,2.8-.3-.9.3-2.9,0-2.8.3Z"/>
  <path class="st0" d="M529.7,7.4c1.1,0,1.8,0,2.4-.1-.7-.2-2.6-.3-2.4.1Z"/>
  <path class="st0" d="M398.6,6.8h-1.4v.4c.7,0,1.5-.2,1.4-.4Z"/>
  <path class="st0" d="M403.4,6.7c-.6,0-.4.3-.5.4,1.7,0,.8-.4.5-.4Z"/>
  <path class="st0" d="M448.5,5.9h-.9c0,0-.2.1-.5.1-.2.2,2.2.2,1.4-.1Z"/>
  <path class="st0" d="M439.5,5.6c-1.3,0-1.6.1-1.4.4,1.2,0,1.6-.1,1.4-.4Z"/>
  <path class="st0" d="M441.4,5.4c-.2.2.7.2,1.4.2-.2-.1-.6-.2-1.4-.2Z"/>
  <path class="st0" d="M154,5.5c.8,0,.8-.1,1.4-.1.2-.2-2.2-.2-1.4.1Z"/>
  <path class="st0" d="M476,3.9c-2.3.4,3.2.4,4.7.2,1.5-.1-1.7-.1-2.4-.1-.4-.3,1.3-.2.9-.5-3.7.3-9.9,0-11.9.1,1.8.6,4.3.2,8.5.3Z"/>
  <path class="st0" d="M517.8,3.3c1.7-.4-.2-.2-.9-.2-.3,0-1-.2-1-.2-.7,0-1.3.2-1.4.2-1.2,0-2.3-.4-3.3-.1,1.5.6,4.3,0,6.6.3Z"/>
  <path class="st0" d="M521.6,3.1c-.4-.3-1.2.1-2.4,0,.1.3,2.1,0,2.4,0Z"/>
  <path class="st0" d="M470.8,2.6c-.7,0-1.2.2-1.9.2.3.3,2.4,0,1.9-.2Z"/>
  <path class="st0" d="M159.7.4c-.4-.3-1.9-.3-3.3-.3.2.5,1.5.4,3.3.3Z"/>
  <path class="st0" d="M609.5,10.1c1.7,0,2.3-.2,3.8,0,0-.3-1.4-.3-1.4-.5-1.7.2-2,0-3.3-.1,0,.3,1.6.2,1,.6Z"/>
  <path class="st0" d="M392.4,7c0-.1-.5,0-.5,0-.4,0-.5-.1-.9-.1-1.1,0,1.1.3,1.4.1Z"/>
  <path class="st0" d="M532.1,3.4c-.3-.3,3.7-.2,6.2-.4-1.5-.4-8.6-.3-9.5.4,1.4,0,2.3-.2,3.3,0Z"/>
  <path class="st0" d="M83.2.3c-.2-.1-.8-.2-.9-.3-.5,0-.3.1,0,.1,0,0-.2.1-.5.1,0,.1.9,0,1.4.1Z"/>
  <path class="st0" d="M760.4,10.1s0,0,0-.1c-.3,0-.7,0-1,0,0,0,0,0,0,0,.3,0,.7,0,1,0Z"/>
  <path class="st0" d="M586.7,8.5c-.4-.1-.9-.3-1.2-.4-1.3,0-2.1,0-2.4.3.3,0,.7.2,1.1.3,1,0,1.8-.1,2.4-.2Z"/>
  <path class="st0" d="M607.5,9.5c0-.1,0-.2.1-.4-2,.1-3.7-.5-5.7,0-.4,0-.8-.1-1.4-.2,0,.2,0,.3-.1.4,2.2.2,4.8,0,7.1.2Z"/>
  <path class="st0" d="M608.8,9.4s0,0,0,0c.1,0,.3,0,.4.1,0,0,.1,0,.2,0-.2,0-.3,0-.5-.1,0,0,0,0,0,0,0,0,0-.2-.1-.3-.1,0-.3,0-.4,0,0,0,0,.2,0,.3.2,0,.3,0,.5,0Z"/>
  <path class="st0" d="M579.9,8.4c0,0-.2,0-.3,0,.6,0,1.2-.1,2.3-.3-2.8,0-5,0-7.4-.1.3.2.6.4.9.6,1.6,0,3,0,4.5-.1Z"/>
  <path class="st0" d="M761.5,10c0,0-.1,0-.2,0,0,0,0,0,0,.1,0,0,.1,0,.2,0,0,0,0,0,0-.1Z"/>
  <path class="st0" d="M535.5,7.7c-.3,0-.6.1-1.1.2.8,0,1.3.1,1.9.2-.2,0-.3-.1-.5-.2.5,0,.9,0,1.6,0-1-.1-1.4-.2-1.9-.2Z"/>
  <path class="st0" d="M603.6,8.8c.7,0,1.5,0,2.2,0,0,0,0,0,0,0-.7,0-1.5,0-2.2,0,0,0,0,0,0,.1Z"/>
  <path class="st0" d="M592.9,9c-.5-.2-.9-.4-1.4-.6,0,0-.4,0-.8,0,0,.1-.2.2-.3.4.4,0,.8,0,1.1.1,0,.1.1.3.2.5,0,0,.1,0,.2,0,.5-.2.7-.2,1-.3Z"/>
  <path class="st0" d="M627.9,9.9c.9,0,1.6,0,2.8,0-.8-.1-1.2-.1-1.5-.2,0-.1,0-.2.1-.3.4,0,.8,0,1.2,0,0,0,0-.1,0-.2-1.5,0-2.9,0-4.2.1.3.1.4.3.7.4.9,0,.9.1,1,.3Z"/>
  <path class="st0" d="M534.6,7.9c-.4,0-.8,0-1.2,0,.1,0,.3,0,.4.1.3,0,.5,0,.8-.1Z"/>
  <path class="st0" d="M562.6,8.4c3.4.1,7,0,10.7-.2-2.9-.2-5.5-.7-9-.5-.4.2.4.2.9.3.2,0,0,.1.2.3-.6,0-1-.2-1.1-.2-.7.2-1.2.3-1.7.4Z"/>
  <path class="st0" d="M137.1,6.2c-.5-.2-.9-.4-1.4-.6,0,0-.4,0-.8,0,0,.1-.2.2-.3.4.4,0,.8,0,1.1.1,0,.1.1.3.2.5,0,0,.1,0,.2,0,.5-.2.7-.2,1-.3Z"/>
  <path class="st0" d="M12.2,10.9s0,0,0,0c0,0,.2,0,.2,0-.1,0-.2,0-.3,0Z"/>
  <path class="st0" d="M78.8,5.1c-.4,0-.8,0-1.2,0,.1,0,.3,0,.4.1.3,0,.5,0,.8-.1Z"/>
  <path class="st0" d="M106.8,5.6c3.4.1,7,0,10.7-.2-2.9-.2-5.5-.7-9-.5-.4.2.4.2.9.3.2,0,0,.1.2.3-.6,0-1-.2-1.1-.2-.7.2-1.2.3-1.7.4Z"/>
  <path class="st0" d="M80,5c.5,0,.9,0,1.6,0-1-.1-1.4-.2-1.9-.2-.3,0-.6.1-1.1.2.8,0,1.3.1,1.9.2-.2,0-.3-.1-.5-.2Z"/>
  <path class="st0" d="M305.7,7.1c0,0-.1,0-.2,0,0,0,0,0,0,.1,0,0,.1,0,.2,0,0,0,0,0,0-.1Z"/>
  <path class="st0" d="M124.1,5.5c0,0-.2,0-.3,0,.6,0,1.2-.1,2.3-.3-2.8,0-5,0-7.4-.1.3.2.6.4.9.6,1.6,0,3,0,4.5-.1Z"/>
  <path class="st0" d="M304.5,7.2s0,0,0-.1c-.3,0-.7,0-1,0,0,0,0,0,0,0,.3,0,.7,0,1,0Z"/>
  <path class="st0" d="M172.1,7.1c.9,0,1.6,0,2.8,0-.8-.1-1.2-.1-1.5-.2,0-.1,0-.2.1-.3.4,0,.8,0,1.2,0,0,0,0-.1,0-.2-1.5,0-2.9,0-4.2.1.3.1.4.3.7.4.9,0,.9.1,1,.3Z"/>
  <path class="st0" d="M156.7,6.7c1.9,0,3.5.4,5.6.2-1.8-.3-3.7-.3-5.6-.2Z"/>
  <path class="st0" d="M130.9,5.6c-.4-.1-.9-.3-1.2-.4-1.3,0-2.1,0-2.4.3.3,0,.7.2,1.1.3,1,0,1.8-.1,2.4-.2Z"/>
  <path class="st0" d="M2202.2,10.1v-.2h-1.4c0,.2.5.3,1.4.2Z"/>
  <path class="st0" d="M2186,8.5c-2,.3-5.3-.4-7.6,0,1.9.2,6.6.5,7.6,0Z"/>
  <path class="st0" d="M2327.7,8.6c.1-.1.5,0,1,0v-.2c-.5,0-.6,0-1-.1,0,0,0,.1-.5.1.1,0,0,.2.5.2Z"/>
  <path class="st0" d="M2621,8.2c.5-.6-2.1,0,0,0h0Z"/>
  <path class="st0" d="M2605.3,8.1c0-.1.8-.2,0-.3,0,.1-.8.2,0,.3Z"/>
  <path class="st0" d="M2598.2,8c.7-.3-2.5-.3-2.4-.1,1,.2,1.5,0,2.4.1Z"/>
  <path class="st0" d="M2647.6,7.6h-.9c-.5.2-.5.3.5.3,0-.1.6-.1.5-.3Z"/>
  <path class="st0" d="M2288.2,7.5c.6,0,1.3.1,2.4.1.2-.4-1.7-.3-2.4-.1Z"/>
  <path class="st0" d="M2423.2,7.4v-.4h-1.4c0,.3.7.3,1.4.4Z"/>
  <path class="st0" d="M2417.5,7.3c0-.2.2-.4-.5-.4-.3,0-1.2.5.5.4Z"/>
  <path class="st0" d="M2671.9,6.6c.5,0,.6,0,.9.1,1.3-.2-.7-.4-.9-.1Z"/>
  <path class="st0" d="M2373.3,6.2c-.3,0-.6,0-.5-.1h-1c-.7.3,1.6.3,1.4.1Z"/>
  <path class="st0" d="M2382.3,6.2c.1-.3-.2-.5-1.4-.4-.1.3.2.5,1.4.4Z"/>
  <path class="st0" d="M2379,5.5c-.8,0-1.2,0-1.4.2.7,0,1.6,0,1.4-.2Z"/>
  <path class="st0" d="M2429.4,7.1c-.5,0-.6,0-.9.1,0,0-.4-.1-.5,0,.3.2,2.6,0,1.4-.1Z"/>
  <path class="st0" d="M1410.8,11.9c0-.3-1.2-.4-2.4-.4-.3.4.8.5,2.4.4Z"/>
  <path class="st0" d="M1411.2,10.5c1.9,0,2.7.1,4.3.1-.1-.3-4.5-.7-4.3-.1Z"/>
  <path class="st0" d="M1901.4,8.6c.5,0,.4-.1.5-.2-.4,0-.4,0-.5-.1-.4,0-.5.1-.9.1v.2c.4,0,.8-.1.9,0Z"/>
  <path class="st0" d="M1410.8,6.9c-1.2,0-2.4,0-3.2.2v.2c.8,0,2,0,2.3.1,0,.3-1.4.2-2.3.3v.3c2.3.2,5-.3,3.2-1.1Z"/>
  <path class="st0" d="M1799.8,7.6c1.3.1,3.3.2,2.8-.3-.9.3-2.9,0-2.8.3Z"/>
  <path class="st0" d="M1938.5,7.6c1.1,0,1.8,0,2.4-.1-.7-.2-2.6-.3-2.4.1Z"/>
  <path class="st0" d="M1560.9,7.3c1.3.3,3.4-.1,4.8.1.2-.2-.3-.3-.5-.4-.6.3-3.1,0-4.3.3Z"/>
  <path class="st0" d="M1567,7.4c1.3,0,1-.2,1.9-.2-1-.2-2,0-2.8,0,.1.1.9,0,.9.2Z"/>
  <path class="st0" d="M1807.4,6.9h-1.4v.4c.7,0,1.5-.2,1.4-.4Z"/>
  <path class="st0" d="M1812.1,6.8c-.6,0-.4.3-.5.4,1.7,0,.8-.4.5-.4Z"/>
  <path class="st0" d="M1556.6,6.7c.3,0,.4,0,.8,0,1,0,2.1,0,3.1.2,0-.1,0-.2.1-.4-.9,0-1.7,0-2.5,0,1.2,0,2.6,0,3.3,0-.6-.5-3.8-.4-5.7-.5.3.2,1.1.3,2,.3-.4,0-.7,0-1.1,0,0,0,0,0,0,.1.4,0,.8,0,1.2,0-.4,0-1.3.2-1.1,0,0,0-.1,0,0,0-.5,0-1.1,0-1.7.1-.5,0-.8-.1-1.4-.2,0,.2,0,.3-.1.4.9,0,1.9,0,2.9,0,0,0,.1,0,.4.1Z"/>
  <path class="st0" d="M1857.2,6.1h-.9c0,0-.2.1-.5.1-.2.2,2.2.2,1.4-.1Z"/>
  <path class="st0" d="M1848.2,5.8c-1.3,0-1.6.1-1.4.4,1.2,0,1.6-.1,1.4-.4Z"/>
  <path class="st0" d="M1850.1,5.5c-.2.2.7.2,1.4.2-.2-.1-.6-.2-1.4-.2Z"/>
  <path class="st0" d="M1562.8,5.6c.8,0,.8-.1,1.4-.1.2-.2-2.2-.2-1.4.1Z"/>
  <path class="st0" d="M1926.6,3.5c1.7-.4-.2-.2-.9-.2-.3,0-1-.2-1-.2-.7,0-1.3.2-1.4.2-1.2,0-2.3-.4-3.3-.1,1.5.6,4.3,0,6.6.3Z"/>
  <path class="st0" d="M1930.4,3.3c-.4-.3-1.2.1-2.4,0,.1.3,2.1,0,2.4,0Z"/>
  <path class="st0" d="M1879.6,2.7c-.7,0-1.2.2-1.9.2.3.3,2.4,0,1.9-.2Z"/>
  <path class="st0" d="M1568.5.6c-.4-.3-1.9-.3-3.3-.3.2.5,1.5.4,3.3.3Z"/>
  <path class="st0" d="M1801.2,7.2c0-.1-.5,0-.5,0-.4,0-.5-.1-.9-.1-1.1,0,1.1.3,1.4.1Z"/>
  <path class="st0" d="M1940.8,3.6c-.3-.3,3.7-.2,6.2-.4-1.5-.4-8.6-.3-9.5.4,1.4,0,2.3-.2,3.3,0Z"/>
  <path class="st0" d="M1492,.5c-.2-.1-.8-.2-.9-.3-.5,0-.3.1,0,.1,0,0-.2.1-.5.1,0,.1.9,0,1.4.1Z"/>
  <path class="st0" d="M1944.2,7.8c-.3,0-.6.1-1.1.2.8,0,1.3.1,1.9.2-.2,0-.3-.1-.5-.2.5,0,.9,0,1.6,0-1-.1-1.4-.2-1.9-.2Z"/>
  <path class="st0" d="M1943.3,8.1c-.4,0-.8,0-1.2,0,.1,0,.3,0,.4.1.3,0,.5,0,.8-.1Z"/>
  <path class="st0" d="M1545.8,6.3c-.5-.2-.9-.4-1.4-.6,0,0-.4,0-.8,0,0,.1-.2.2-.3.4.4,0,.8,0,1.1.1,0,.1.1.3.2.5,0,0,.1,0,.2,0,.5-.2.7-.2,1-.3Z"/>
  <path class="st0" d="M1420.9,11.1s0,0,0,0c0,0,.2,0,.2,0-.1,0-.2,0-.3,0Z"/>
  <path class="st0" d="M1487.5,5.2c-.4,0-.8,0-1.2,0,.1,0,.3,0,.4.1.3,0,.5,0,.8-.1Z"/>
  <path class="st0" d="M1561.3,6.7c.2,0,.3,0,.5,0,0,0,0,0,0,0,.1,0,.3,0,.4.1,0,0,.1,0,.2,0-.2,0-.3,0-.5-.1,0,0,0,0,0,0,0,0,0-.2-.1-.3-.1,0-.3,0-.4,0,0,0,0,.2,0,.3Z"/>
  <path class="st0" d="M1515.5,5.7c3.4.1,7,0,10.7-.2-2.9-.2-5.5-.7-9-.5-.4.2.4.2.9.3.2,0,0,.1.1.3-.6,0-1-.2-1.1-.2-.7.2-1.2.3-1.7.4Z"/>
  <path class="st0" d="M1488.7,5.2c.5,0,.9,0,1.6,0-1-.1-1.4-.2-1.9-.2-.3,0-.6.1-1.1.2.8,0,1.3.1,1.9.2-.2,0-.3-.1-.5-.2Z"/>
  <path class="st0" d="M1532.8,5.7c0,0-.2,0-.3,0,.6,0,1.2-.1,2.3-.3-2.8,0-5,0-7.4-.1.3.2.6.4.9.6,1.6,0,3,0,4.5-.1Z"/>
  <path class="st0" d="M1713.2,7.4s0,0,0,0c.8,0,.9.2,1.9,0,.8-.3-1.3-.4-1.8-.2h0c-.3,0-.7,0-1,0,0,0,0,0,0,0,.3,0,.6,0,.9,0Z"/>
  <path class="st0" d="M1580.8,7.2c.9,0,1.6,0,2.8,0-.8-.1-1.2-.1-1.5-.2,0-.1,0-.2.1-.3.4,0,.8,0,1.2,0,0,0,0-.1,0-.2-1.5,0-2.9,0-4.2.1.3.1.4.3.7.4.9,0,.9.1,1,.3Z"/>
  <path class="st0" d="M1571,7.1c-1.8-.3-3.7-.3-5.6-.2,1.9,0,3.5.4,5.6.2Z"/>
  <path class="st0" d="M1539.6,5.8c-.4-.1-.9-.3-1.2-.4-1.3,0-2.1,0-2.4.3.3,0,.7.2,1.1.3,1,0,1.8-.1,2.4-.2Z"/>
  <path class="st0" d="M3226.5,10.1c-1.1,0-1.8,0-1.9.2.7,0,.8.2,1.4.2-.1-.2.5-.2.5-.4Z"/>
  <path class="st0" d="M3827.9,10.3c1.6.3,1.4-.4,0,0h0Z"/>
  <path class="st0" d="M3264,10.2c-1.4,0-1.8-.4-2.4,0,.9,0,2,.4,2.4,0Z"/>
  <path class="st0" d="M3223.1,10.4v-.2h-1.4c0,.2.5.3,1.4.2Z"/>
  <path class="st0" d="M3207,10.3c.9,0,1.1.1,1.9.1.4-.4-1.8-.4-1.9-.1Z"/>
  <path class="st0" d="M3294.9,10.1c.6,0,.7.1,1.4.1.1-.2-.1-.4-.9-.4,0,.1-.2.2-.5.3Z"/>
  <path class="st0" d="M3199.4,8.8c1.9.2,6.6.5,7.6,0-2,.3-5.3-.4-7.6,0Z"/>
  <path class="st0" d="M3348.7,8.9c.1-.1.5,0,1,0v-.2c-.5,0-.6,0-1-.1,0,0,0,.1-.5.1.1,0,0,.2.5.2Z"/>
  <path class="st0" d="M3626.3,8.5c0-.1.8-.2,0-.3,0,.1-.8.2,0,.3Z"/>
  <path class="st0" d="M3619.2,8.4c.7-.3-2.5-.3-2.4-.1,1,.2,1.5,0,2.4.1Z"/>
  <path class="st0" d="M3668.2,8.3c0-.1.6-.1.5-.3h-.9c-.5.2-.5.3.5.3Z"/>
  <path class="st0" d="M3450.4,8c0-.4-1.9,0-2.9-.3-.4.5,1.6.4,2.9.3Z"/>
  <path class="st0" d="M3311.6,8c.2-.4-1.7-.3-2.4-.1.6,0,1.3.1,2.4.1Z"/>
  <path class="st0" d="M3685.3,7.3c-.2.1-.7.2-.5.4,1.3-.3,3.4.2,4.8-.1-1.2-.4-3.7,0-4.3-.3Z"/>
  <path class="st0" d="M3683.4,7.8c0-.1.8,0,.9-.2-.8,0-1.9-.2-2.9,0,.9,0,.6.3,1.9.2Z"/>
  <path class="st0" d="M3444.2,7.8v-.4h-1.4c0,.3.7.3,1.4.4Z"/>
  <path class="st0" d="M3438.5,7.6c0-.2.2-.4-.5-.4-.3,0-1.2.5.5.4Z"/>
  <path class="st0" d="M3692.9,7c.5,0,.6,0,.9.1,1.3-.2-.7-.4-.9-.1Z"/>
  <path class="st0" d="M3394.3,6.6c-.3,0-.6,0-.5-.1h-1c-.7.3,1.6.3,1.4.1Z"/>
  <path class="st0" d="M3403.3,6.6c.1-.3-.2-.5-1.4-.4-.1.3.2.5,1.4.4Z"/>
  <path class="st0" d="M3400,5.9c-.8,0-1.2,0-1.4.2.7,0,1.6,0,1.4-.2Z"/>
  <path class="st0" d="M3687.7,6c.7-.3-1.6-.3-1.4-.1.6,0,.7.1,1.4.1Z"/>
  <path class="st0" d="M3822.2,12.2c2.2-.3,4.5,0,5.2-.3-1-.2-4.7,0-5.2.3Z"/>
  <path class="st0" d="M3832.7,10.1c-1.5-.1-2,.5-1.4.5,2,0,4.7-.2,7-.3v-.3c-.3,0-.8,0-1.3,0,0-.2.6-.3,1.3-.4v-.9c-3.3.6-9.8.5-11.8,1.1,2.8.3,4.5-.4,6.2.1ZM3836,9.9c.2.4-1.4.3-1.9.5-1-.1.8-.5,1.9-.5Z"/>
  <path class="st0" d="M3231.7,10.7c-.7-.4,1-.3,1-.6-1.3.1-1.7.3-3.3.1,0,.3-1.5.2-1.4.5,1.5-.2,2.1,0,3.8,0Z"/>
  <path class="st0" d="M3450.4,7.4c-.5,0-.6,0-.9.1,0,0-.4-.1-.5,0,.3.2,2.6,0,1.4-.1Z"/>
  <path class="st0" d="M3693.8,6.5c.1.2-1.4,0-1.4-.1,1.1,0,2-.1,2.4-.3-1.9.2-5.1,0-5.7.5,1.2.1,5.6.2,4.8-.1Z"/>
  <path class="st0" d="M3045,10.6c.6,0,.7-.2,1.4-.2,0,0,0,0,0,0,.5,0,.9,0,1.5,0h0c1,.2,1.5.1,1.4,0h-1.4c-1.8-.3-3.7-.2-5.6-.2.8,0,1.5,0,2.3.1,0,.1.5.2.4.4Z"/>
  <path class="st0" d="M3064,10.3c0-.3-2.3-.3-1.9.1.9,0,1-.1,1.9-.1Z"/>
  <path class="st0" d="M3071.6,8.8c-2.3-.4-5.6.3-7.6,0,1,.5,5.7.2,7.6,0Z"/>
  <path class="st0" d="M2922.4,8.9c.5,0,.4-.1.5-.2-.4,0-.4,0-.5-.1-.4,0-.5.1-.9.1v.2c.4,0,.8-.1.9,0Z"/>
  <path class="st0" d="M2820.8,8c1.3.1,3.3.2,2.8-.3-.9.3-2.9,0-2.8.3Z"/>
  <path class="st0" d="M2959.5,8c1.1,0,1.8,0,2.4-.1-.7-.2-2.6-.3-2.4.1Z"/>
  <path class="st0" d="M2581.8,7.6c1.3.3,3.4-.1,4.8.1.2-.2-.3-.3-.5-.4-.6.3-3.1,0-4.3.3Z"/>
  <path class="st0" d="M2588,7.8c1.3,0,1-.2,1.9-.2-1-.2-2,0-2.8,0,.1.1.9,0,.9.2Z"/>
  <path class="st0" d="M2828.4,7.3h-1.4v.4c.7,0,1.5-.2,1.4-.4Z"/>
  <path class="st0" d="M2833.1,7.2c-.6,0-.4.3-.5.4,1.7,0,.8-.4.5-.4Z"/>
  <path class="st0" d="M2578.6,6.3c-.4,0-.7,0-1.1,0,0,0,0,0,0,.1.4,0,.8,0,1.2,0-.4,0-1.3.2-1.1,0,0,0-.1,0,0,0-.5,0-1.1,0-1.7.1-.5,0-.8-.1-1.4-.2,0,.2,0,.3-.1.4.9,0,1.9,0,2.9,0,0,0,.1,0,.4.1.3,0,.4,0,.8,0,1,0,2.1,0,3.1.2,0-.1,0-.2.1-.4-.9,0-1.7,0-2.5,0,1.2,0,2.6,0,3.3,0-.6-.5-3.8-.4-5.7-.5.3.2,1.1.3,2,.3Z"/>
  <path class="st0" d="M2878.2,6.5h-.9c0,0-.2.1-.5.1-.2.2,2.2.2,1.4-.1Z"/>
  <path class="st0" d="M2869.2,6.1c-1.3,0-1.6.1-1.4.4,1.2,0,1.6-.1,1.4-.4Z"/>
  <path class="st0" d="M2871.1,5.9c-.2.2.7.2,1.4.2-.2-.1-.6-.2-1.4-.2Z"/>
  <path class="st0" d="M2583.7,6c.8,0,.8-.1,1.4-.1.2-.2-2.2-.2-1.4.1Z"/>
  <path class="st0" d="M2589.4,1c-.4-.3-1.9-.3-3.3-.3.2.5,1.5.4,3.3.3Z"/>
  <path class="st0" d="M3039.3,10.7c1.7,0,2.3-.2,3.8,0,0-.3-1.4-.3-1.4-.5-1.7.2-2,0-3.3-.1,0,.3,1.6.2.9.6Z"/>
  <path class="st0" d="M2822.2,7.5c0-.1-.5,0-.5,0-.4,0-.5-.1-.9-.1-1.1,0,1.1.3,1.4.1Z"/>
  <path class="st0" d="M2513,.9c-.2-.1-.8-.2-.9-.3-.5,0-.3.1,0,.1,0,0-.2.1-.5.1,0,.1.9,0,1.4.1Z"/>
  <path class="st0" d="M3189.1,10.6c.3,0,.7,0,1,0,0,0,0,0,0-.1-.3,0-.7,0-1,0,0,0,0,0,0,0Z"/>
  <path class="st0" d="M3016.5,9c-.4-.1-.9-.3-1.2-.4-1.3,0-2.1,0-2.4.3.3,0,.7.2,1.1.3,1,0,1.8-.1,2.4-.2Z"/>
  <path class="st0" d="M3037.3,9.6c-2,.1-3.7-.5-5.7,0-.4,0-.8-.1-1.4-.2,0,.2,0,.3-.1.4,2.2.2,4.8,0,7.1.2,0-.1,0-.2.1-.4Z"/>
  <path class="st0" d="M3038.6,9.9s0,0,0,0c.1,0,.3,0,.4.1,0,0,.1,0,.2,0-.2,0-.3,0-.5-.1,0,0,0,0,0,0,0,0,0-.2-.1-.3-.1,0-.3,0-.4,0,0,0,0,.2,0,.3.2,0,.3,0,.5,0Z"/>
  <path class="st0" d="M3009.6,8.9c0,0-.2,0-.3,0,.6,0,1.2-.1,2.3-.3-2.8,0-5,0-7.4-.1.3.2.6.4.9.6,1.6,0,3,0,4.5-.1Z"/>
  <path class="st0" d="M3191.2,10.7s0,0,0-.1c0,0-.1,0-.2,0,0,0,0,0,0,.1,0,0,.1,0,.2,0Z"/>
  <path class="st0" d="M2965.2,8.2c-.3,0-.6.1-1.1.2.8,0,1.3.1,1.9.2-.2,0-.3-.1-.5-.2.5,0,.9,0,1.6,0-1-.1-1.4-.2-1.9-.2Z"/>
  <path class="st0" d="M3035.6,9.3s0,0,0,0c-.7,0-1.5,0-2.2,0,0,0,0,0,0,.1.7,0,1.5,0,2.2,0Z"/>
  <path class="st0" d="M3022.7,9.6c-.5-.2-.9-.4-1.4-.6,0,0-.4,0-.8,0,0,.1-.2.2-.3.4.4,0,.8,0,1.1.1,0,.1.1.3.2.5,0,0,.1,0,.2,0,.5-.2.7-.2,1-.3Z"/>
  <path class="st0" d="M3057.6,10.5c.9,0,1.6,0,2.8,0-.8-.1-1.2-.1-1.5-.2,0-.1,0-.2.1-.3.4,0,.8,0,1.2,0,0,0,0-.1,0-.2-1.5,0-2.9,0-4.2.1.3.1.4.3.7.4.9,0,.9.1,1,.3Z"/>
  <path class="st0" d="M2964.3,8.5c-.4,0-.8,0-1.2,0,.1,0,.3,0,.4.1.3,0,.5,0,.8-.1Z"/>
  <path class="st0" d="M2992.3,9c3.4.1,7,0,10.7-.2-2.9-.2-5.5-.7-9-.5-.4.2.4.2.9.3.2,0,0,.1.2.3-.6,0-1-.2-1.1-.2-.7.2-1.2.3-1.7.4Z"/>
  <path class="st0" d="M2566.8,6.7c-.5-.2-.9-.4-1.4-.6,0,0-.4,0-.8,0,0,.1-.2.2-.3.4.4,0,.8,0,1.1.1,0,.1.1.3.2.5,0,0,.1,0,.2,0,.5-.2.7-.2,1-.3Z"/>
  <path class="st0" d="M2508.5,5.6c-.4,0-.8,0-1.2,0,.1,0,.3,0,.4.1.3,0,.5,0,.8-.1Z"/>
  <path class="st0" d="M2582.3,7.1c.2,0,.3,0,.5,0,0,0,0,0,0,0,.1,0,.3,0,.4.1,0,0,.1,0,.2,0-.2,0-.3,0-.5-.1,0,0,0,0,0,0,0,0,0-.2-.1-.3-.1,0-.3,0-.4,0,0,0,0,.2,0,.3Z"/>
  <path class="st0" d="M2536.5,6.1c3.4.1,7,0,10.7-.2-2.9-.2-5.5-.7-9-.5-.4.2.4.2.9.3.2,0,0,.1.1.3-.6,0-1-.2-1.1-.2-.7.2-1.2.3-1.7.4Z"/>
  <path class="st0" d="M2509.7,5.6c.5,0,.9,0,1.6,0-1-.1-1.4-.2-1.9-.2-.3,0-.6.1-1.1.2.8,0,1.3.1,1.9.2-.2,0-.3-.1-.5-.2Z"/>
  <path class="st0" d="M2735.5,7.7c0,0-.1,0-.2,0,0,0,0,0,0,.1,0,0,.1,0,.2,0,0,0,0,0,0-.1Z"/>
  <path class="st0" d="M2553.8,6.1c0,0-.2,0-.3,0,.6,0,1.2-.1,2.3-.3-2.8,0-5,0-7.4-.1.3.2.6.4.9.6,1.6,0,3,0,4.5-.1Z"/>
  <path class="st0" d="M2734.3,7.8s0,0,0-.1c-.3,0-.7,0-1,0,0,0,0,0,0,0,.3,0,.7,0,1,0Z"/>
  <path class="st0" d="M2601.8,7.6c.9,0,1.6,0,2.8,0-.8-.1-1.2-.1-1.5-.2,0-.1,0-.2.1-.3.4,0,.8,0,1.2,0,0,0,0-.1,0-.2-1.5,0-2.9,0-4.2.1.3.1.4.3.7.4.9,0,.9.1,1,.3Z"/>
  <path class="st0" d="M2592,7.4c-1.8-.3-3.7-.3-5.6-.2,1.9,0,3.5.4,5.6.2Z"/>
  <path class="st0" d="M2560.6,6.2c-.4-.1-.9-.3-1.2-.4-1.3,0-2.1,0-2.4.3.3,0,.7.2,1.1.3,1,0,1.8-.1,2.4-.2Z"/>
</svg>