<?xml version="1.0" encoding="UTF-8"?>
<svg id="Layer_1" xmlns="http://www.w3.org/2000/svg" version="1.1" viewBox="0 0 3840 200">
  <!-- Generator: Adobe Illustrator 29.0.1, SVG Export Plug-In . SVG Version: 2.1.0 Build 192)  -->
  <defs>
    <style>
      .st0 {
        fill: #c9aaca;
      }
    </style>
  </defs>
  <path class="st0" d="M2852.8,191.3c1.3,0,2.1.3,2.6,0-.8,0-2.5-.2-2.6,0Z"/>
  <path class="st0" d="M2879.2,191.1c0,.4-1.9.1-2,.5,1.8,0,1.7,0,3,0,.5-.3-.7-.4-1.1-.6Z"/>
  <path class="st0" d="M2930.2,192.5c.9.3,1.9,0,2.7-.1-1.1,0-2.5-.1-2.7.1Z"/>
  <path class="st0" d="M2884.7,191.3c.6,0,.5.2,1.3.1.8-.2-1.3-.4-1.3-.1Z"/>
  <path class="st0" d="M2943.5,192.2c-.4.2-2.5,0-2.3.4,1.6,0,2,.2,2.9.3.1-.3.5-.6-.6-.7Z"/>
  <path class="st0" d="M2889.1,191.4c.7,0,1.6,0,1.8,0-.5-.2-1.6-.2-1.8,0Z"/>
  <path class="st0" d="M2946.5,192.3c.2.3-1,.2-1.1.4.6,0,.8.2,1.7.2.2-.3.3-.5-.6-.6Z"/>
  <path class="st0" d="M2904.7,191.7c1.1,0,3,0,3.2-.3-1.2-.3-2.9,0-3.2.3Z"/>
  <path class="st0" d="M2914.1,191.2c-.8,0-1,0-1.8,0,0,.2-.3.4.3.4.1-.2,1.1,0,1.8,0,.2-.2-.4-.2-.2-.4Z"/>
  <path class="st0" d="M2910.4,191.7c0,0,0-.1,0-.2-.4,0-.9,0-1.3,0-.1.2.3.3,1.2.2Z"/>
  <path class="st0" d="M2960.1,191.2c-3.6.2-10.3-.5-13.7.3.2.2,0,.6,1,.7.7-.1.8-.5,1.6-.6,1.7.5,5,0,7.3.4.3-.4,1.2-.6,3.3-.5-.1.2,0,.3.2.4,1.3,0,1.8,0,2.3-.3-2.9,0-.4-.4-2-.5Z"/>
  <path class="st0" d="M2920.6,190.3c-1.7,0-1.3.2-1.1.5-1.2-.2-3.7,0-4.9,0,1,.4,7,.2,6.6-.1-.9.3-1.9-.3-.7-.4Z"/>
  <path class="st0" d="M2923.9,190c-.2.2-1,.5.2.6.7-.1,1-.6-.2-.6Z"/>
  <path class="st0" d="M2921,189.6c1.3,0,1.5-.2,1.5-.5-2.9,0-3.7.8-5,1.4,1.2-.3,4.2,0,5.4-.4-1.9,0-1.6-.3-2-.5Z"/>
  <path class="st0" d="M2906.4,189.8c1.1-.4.8.3,2.1.3.6-.5-3.2-.8-2.1-.3Z"/>
  <path class="st0" d="M2948,190.8c1,0,1.4-.1,2.6,0,.8-1,2.5,0,1-.2.8.1,1.3,0,2.6,0-.4-.3.8-.2,1-.4-.8,0-5.7-.3-6.6,0,1,0,1.6,0,1.6.3-1.3,0-1.8,0-2.3.3Z"/>
  <path class="st0" d="M2917.9,189.7c-1,0-1.8-.2-2-.4.5-.1,1.6,0,1.4-.3-1.3-.2-1,0-2.6,0-.6.5,2.2,1.1,3.2.7Z"/>
  <path class="st0" d="M2944.5,190c0,0,0-.1,0-.2-.4,0-.9,0-1.3,0-.1.2.3.3,1.2.2Z"/>
  <path class="st0" d="M2961.9,190.2c1.3.4,1.5-.4,0,0h0Z"/>
  <path class="st0" d="M3025.2,191.7c2.8-.1,5.1.3,7.1-.1-2.3,0-6.6-.5-7.1.1Z"/>
  <path class="st0" d="M2916.1,188.8c0-.3-1-.4-2-.5,0,.3.6.5,2,.5Z"/>
  <path class="st0" d="M3023.5,191.5c.4,0,.9,0,1.3,0,0-.1,0-.2.1-.3-.3,0-.6,0-.9,0,0,.1-.6.1-.6.3Z"/>
  <path class="st0" d="M3029.4,191c.6,0,.8.2,1.7.2.4-.4-1.2-.4-1.7-.2Z"/>
  <path class="st0" d="M3028.6,190.9c.2-.3,0-.7.8-.8-1.2,0-1.6.2-2,.5,1.6-.1.1.4,1.2.4Z"/>
  <path class="st0" d="M3024.9,190.3c1.4,0,.9,0,2.2,0,.3-.3-.4-.4-1.6-.4,0,.1-.3.2-.6.3Z"/>
  <path class="st0" d="M3022,189.9c1.2,0,1.2-.3,1.9-.4-1.4-.1-1.7.1-1.9.4Z"/>
  <path class="st0" d="M3018.3,189.4c.3,0,1.6.3,1.7,0-.3,0-1.6-.3-1.7,0Z"/>
  <path class="st0" d="M3033.4,189.8c0-.1,0-.2.1-.3-1.2-.2-1.5.4-.1.3Z"/>
  <path class="st0" d="M3019.2,188.4c-2.5-.2-3.3.1-4.1.4.5.2,2,.2,2.9.4,0-.4,1.3-.4,1.2-.8Z"/>
  <path class="st0" d="M3028.8,189.4c1.4.1,1.9-.4.6-.4-.2.1-.7.2-.6.4Z"/>
  <path class="st0" d="M3010.4,188.5c-.7,0-1.1,0-1.4.2.7,0,1.5,0,1.4-.2Z"/>
  <path class="st0" d="M3003,188.4c1.4,0,1.5.1,2.6.2.2-.3-.6-.2.2-.4-1.3,0-2.8-.1-2.7.3Z"/>
  <path class="st0" d="M3033,188.9c-.1.2.2.3.7.3.1-.2,1.1,0,1.8,0-.2-.3.3-.3.8-.4.5,0,1,0,.8.4.7,0,1.6,0,1.8,0,.5,0,.8-.2.7-.3-1.2,0-1.8-.1-2.6-.2,0,0,0,0,0,0-.3,0-.6,0-.8,0-.2,0-.5,0-.8,0,0,0,0,0,0,0-.8.1-1.3.3-2.6.2Z"/>
  <path class="st0" d="M2999.8,187.7c-1.7.1-1.7.2-3,0-1.5.3,3.2.7,3,0Z"/>
  <path class="st0" d="M3007.9,188.2c1.6,0,3,0,3.2-.3-1.1-.1-3.1-.1-3.2.3Z"/>
  <path class="st0" d="M3030.2,188.1c.7,0,2.2.2,2.2,0-.6-.2-1.9-.4-2.2,0Z"/>
  <path class="st0" d="M3018.5,187c-.3,0-.6,0-.9,0,0,0,0,.1,0,.2.3,0,.6,0,.9,0,0,0,0-.1,0-.2Z"/>
  <path class="st0" d="M2993.5,185.9c2.7.2,1.1-.3,0,0h0Z"/>
  <path class="st0" d="M3029.8,186.1c1,.1,2.1-.3,1-.4,0,.2-1.2.1-1,.4Z"/>
  <path class="st0" d="M3007.6,184.8c.3,0,.6,0,.9,0,0-.1.4-.1.5-.2-.7,0-1.5,0-1.4.2Z"/>
  <path class="st0" d="M3004.1,184.7c.8,0,1.5,0,1.8-.2-1,0-1.6,0-1.8.2Z"/>
  <path class="st0" d="M3017.7,189.6c0,0-.1.1-.5,0-1.4-.1,0-.2-.7-.4-2.4,0-2.9.4-4.3.4.7,0-2.7-.4-4.1-.3,1-.2,0-.1-.3-.3-1.6-.1-.7.5-2.4.4-.8,0-.9-.2-.7-.4-2.3,0-5.4-.2-5.5.5.8.4,2.8-.2,3,0-.5.4-1.8.6-2.6.9,1.6.5,3.1,0,5.6.1-.5.3,1.1.2.6.6,4-.2,6.2.2,10.9.2,0-.6-2.1-1.3-1.5-1.6,1.1,0,3.1.2,2.2,0Z"/>
  <path class="st0" d="M2999.9,188.3c1.3,0,2.7-.2,3.3-.5-1.3,0-1.1-.2-2.1-.2-1.4.5-2.4,1-4.5,1.3.9,0,1.3.3,2,.4-1-.7,1.6-.3,1.3-1Z"/>
  <path class="st0" d="M3023.6,189.3c1.7-.2,3.2-.4,4.3-.7-2-.1-1.5.5-3.3.5,0-.3,1.1-.3,1.1-.6-1.4-.1-.9.4-1.9.4-.3-.3-1.6-.4-2.8-.5-.2.3.5.3.6.6,1.3-.1,2.5,0,2,.5Z"/>
  <path class="st0" d="M3010.2,187c1.4.1.8-.3,1.1-.5-.8,0-1-.2-1.3,0,.9,0,0,.4.2.5Z"/>
  <path class="st0" d="M3031.1,187.2c1.2,0-2.3,0,0,0h0Z"/>
  <path class="st0" d="M3038.4,186.5c.9,0,.7.3,1.6.4.1-.1.4-.2.8-.2v-.5s0,0-.1,0c0-.1,0-.2.1-.3h0c-1.8-.2-1.2.5-2.4.6Z"/>
  <path class="st0" d="M2572.2,189.2c.1.2-.1.4.7.4,0-.2,1.7-.1,1.3-.4h-2Z"/>
  <path class="st0" d="M2495.1,190.6c1-.3-2.3-.4-2-.1.4,0,.8,0,.7.1h1.3Z"/>
  <path class="st0" d="M2497.8,190.9c-.2.6,3.8.2,3.3-.1-1.6,0-2.6,0-3.3.1Z"/>
  <path class="st0" d="M2362.5,192.2c0,.2-.3.3-.7.4h2c0-.2,0-.5-1.3-.4Z"/>
  <path class="st0" d="M2639.1,192.6c-1,.3,2.3.4,2,.1-.9,0-.9-.2-2-.1Z"/>
  <path class="st0" d="M2250.7,195.2c-1.6-.7-8.4-.3-12.1-.3,3.3,0,3.5.5,2.7,1.1,2.7.5,5.2,0,8-.3.5.3,2,.6,3.4.3-.5-.5-4.2-.4-6-.7,2,0,2-.2,4-.1Z"/>
  <path class="st0" d="M2256.7,194.8c-2,0-5.2-.2-5.4.3,1.7-.1,5.8.3,5.4-.3Z"/>
  <path class="st0" d="M2319.7,198.5c-2.8-.6-7.8-.2-8.7-1-1.6.3-6.4-.1-6,.5.4.3,4.3,0,4,.4-2.2,0-1.6.6-4,.5-2.7-.9-8.5.2-11.4-.5h6.7c.6-.6-4.8-.5-6-.3-3.5-.3-9.9-.5-13.4-.5-1.8,0-4.2,0-6,0-3.1,0-6.2-.5-9.4-.5-8.4-.2-16,.2-22.1.3-1.4.2-1.7.6-3.4.7-1,0-2.1,0-3,0v1.1c3,0,6.6,0,6.4.5,20.6,0,32.8,0,54.3.3.8-.6-2.8-.2-3.4-.5,3.4,0,5.9,0,6.7.5,0-.2.2-.3,1.3-.3,5.3,0,11.9.2,17.4-.3-.1-.5-.9-.5,0-1Z"/>
  <path class="st0" d="M3217,191.3c.6.4,1.3,0,2.6,0-.2-.2-1.9,0-2.6,0Z"/>
  <path class="st0" d="M3193.2,191.1c-.3.2-1.5.2-1.1.6,1.3-.2,1.2,0,3,0,0-.3-2-.1-2-.5Z"/>
  <path class="st0" d="M3139.5,192.4c.8.1,1.8.4,2.7.1-.2-.3-1.5-.2-2.7-.1Z"/>
  <path class="st0" d="M3186.4,191.4c.7,0,.7-.1,1.3-.1,0-.2-2-.1-1.3.1Z"/>
  <path class="st0" d="M3129,192.2c-1.1,0-.7.4-.6.7.9-.1,1.4-.3,2.9-.3.1-.4-1.9-.1-2.3-.4Z"/>
  <path class="st0" d="M3181.6,191.4c.2.1,1.1,0,1.8,0-.2-.2-1.3-.2-1.8,0Z"/>
  <path class="st0" d="M3125.9,192.3c-.9,0-.8.3-.6.6.9,0,1.1-.1,1.7-.2,0-.2-1.2-.1-1.1-.4Z"/>
  <path class="st0" d="M3164.5,191.4c.2.4,2.1.3,3.2.3-.3-.4-2-.6-3.2-.3Z"/>
  <path class="st0" d="M3158.3,191.2c.1.2-.4.2-.2.4.7,0,1.6,0,1.8,0,.6,0,.2-.3.2-.4-.8,0-1-.1-1.8,0Z"/>
  <path class="st0" d="M3162,191.7c.9,0,1.3,0,1.2-.2-.4,0-.9,0-1.3,0,0,0,0,.1,0,.2Z"/>
  <path class="st0" d="M3126.1,191.5c-3.4-.8-10.1-.1-13.7-.3-1.6.1.9.5-2,.5.5.2,1,.3,2.3.3.3-.1.4-.3.2-.4,2.1-.1,3,0,3.3.5,2.2-.3,5.6,0,7.3-.4.8.1.9.5,1.6.6,1,0,.8-.4,1-.7Z"/>
  <path class="st0" d="M3152.9,190.8c.2-.3.6-.6-1.1-.5,1.2.1.2.8-.7.4-.3.4,5.6.5,6.6.1-1.2-.1-3.7-.3-4.9,0Z"/>
  <path class="st0" d="M3148.6,190c-1.2,0-.8.5-.2.6,1.2-.1.4-.4.2-.6Z"/>
  <path class="st0" d="M3149.5,190.1c1.3.3,4.2,0,5.4.4-1.2-.6-2.1-1.3-5-1.4,0,.3.2.6,1.5.5-.4.2,0,.6-2,.5Z"/>
  <path class="st0" d="M3166,189.8c1.1-.5-2.6-.2-2.1.3,1.2,0,1-.6,2.1-.3Z"/>
  <path class="st0" d="M3117.2,190.3c.3.2,1.4,0,1.1.4,1.3,0,1.8,0,2.6,0-1.5.2.1-.8,1,.2,1.3-.1,1.6,0,2.6,0-.5-.2-1-.3-2.3-.3,0-.2.6-.3,1.6-.3-.9-.4-5.8,0-6.6,0Z"/>
  <path class="st0" d="M3155.2,189c-.2.3,1,.2,1.4.3-.2.2-1,.3-2,.4,1,.4,3.8-.2,3.2-.7-1.6,0-1.3,0-2.6,0Z"/>
  <path class="st0" d="M3129.2,189.7c-.4,0-.9,0-1.3,0,0,0,0,.1,0,.2.9,0,1.3,0,1.2-.2Z"/>
  <path class="st0" d="M3110.6,190.2c-1.5-.4-1.3.4,0,0h0Z"/>
  <path class="st0" d="M3040.3,191.5c1.9.4,4.2,0,7.1.1-.5-.6-4.8,0-7.1-.1Z"/>
  <path class="st0" d="M3158.4,188.3c-1,0-2,.2-2,.5,1.4,0,2-.2,2-.5Z"/>
  <path class="st0" d="M3036.3,191.4c-.3,0-.6,0-.9,0-1.6.3-2.2.3-3.6.4v.2c1,.1,3.1,0,4.5,0,1.5.1,3.5.2,4.5,0v-.2c-1.5,0-2.1-.1-3.7-.4-.3,0-.6,0-.9,0Z"/>
  <path class="st0" d="M3048.5,191.2c-.3,0-.6,0-.9,0,0,.1,0,.2.1.3.4,0,.9,0,1.3,0,0-.2-.5-.2-.6-.3Z"/>
  <path class="st0" d="M3041.4,191.2c.9,0,1.1-.1,1.7-.2-.5-.2-2-.2-1.7.2Z"/>
  <path class="st0" d="M3045.1,190.5c-.4-.2-.8-.5-2-.5.7.1.6.5.8.8,1.1,0-.5-.5,1.2-.4Z"/>
  <path class="st0" d="M3047.6,190.3c-.3,0-.5-.2-.6-.3-1.1,0-1.8,0-1.6.4,1.3-.1.8,0,2.2,0Z"/>
  <path class="st0" d="M3048.6,189.5c.7.1.7.4,1.9.4-.3-.2-.5-.5-1.9-.4Z"/>
  <path class="st0" d="M3052.5,189.5c.2.3,1.5,0,1.7,0-.2-.3-1.5,0-1.7,0Z"/>
  <path class="st0" d="M3039,189.5c0,.1,0,.2.1.3,1.3.1,1.1-.5-.1-.3Z"/>
  <path class="st0" d="M3057.5,188.8c-.9-.3-1.6-.6-4.1-.4,0,.4,1.3.4,1.2.8.9-.2,2.4-.2,2.9-.4Z"/>
  <path class="st0" d="M3043.1,189c-1.2,0-.8.5.6.4,0-.2-.4-.3-.6-.4Z"/>
  <path class="st0" d="M3062.1,188.5c-.1.2.7.2,1.4.2-.2-.1-.6-.2-1.4-.2Z"/>
  <path class="st0" d="M3067,188.6c1,0,1.2-.2,2.6-.2,0-.4-1.4-.3-2.7-.3.8.2,0,.1.2.4Z"/>
  <path class="st0" d="M3072.7,187.7c-.2.7,4.5.2,3,0-1.3.3-1.3.2-3,0Z"/>
  <path class="st0" d="M3061.4,187.9c.2.4,1.6.4,3.2.3-.2-.5-2.1-.5-3.2-.3Z"/>
  <path class="st0" d="M3042.3,188.1c-.4-.4-1.6-.2-2.2,0,0,.2,1.6,0,2.2,0Z"/>
  <path class="st0" d="M3054.9,187c-.3,0-.6,0-.9,0,0,0,0,.1,0,.2.3,0,.6,0,.9,0,0,0,0-.1,0-.2Z"/>
  <path class="st0" d="M3079,185.9c-1.1-.3-2.7.2,0,0h0Z"/>
  <path class="st0" d="M3042.7,186.1c.2-.3-1-.2-1-.4-1,0,0,.5,1,.4Z"/>
  <path class="st0" d="M3063.5,184.6c.1,0,.5,0,.5.2.3,0,.6,0,.9,0,.1-.2-.7-.2-1.4-.2Z"/>
  <path class="st0" d="M3066.5,184.5c.3.1,1,.2,1.8.2-.2-.2-.8-.2-1.8-.2Z"/>
  <path class="st0" d="M3073.1,189.5c-.1-.7-3.2-.5-5.5-.5.2.2,0,.4-.7.4-1.6.1-.7-.5-2.3-.4-.2.2-1.3.1-.3.3-1.4-.1-4.8.2-4.1.3-1.3,0-1.9-.4-4.3-.4-.7.2.7.3-.7.4-.4,0-.4,0-.5,0-.9.3,1.1.1,2.2,0,.7.4-1.6,1-1.5,1.6,4.7,0,6.8-.4,10.9-.2-.5-.3,1.1-.2.6-.6,2.6-.1,4,.3,5.6-.1-.7-.3-2.1-.5-2.6-.9.2-.2,2.2.3,3,0Z"/>
  <path class="st0" d="M3069.3,187.9c.6.3,1.9.4,3.3.5-.2.7,2.3.4,1.3,1,.7-.1,1.2-.3,2-.4-2.1-.2-3.1-.8-4.5-1.3-1.1,0-.9.2-2.1.2Z"/>
  <path class="st0" d="M3048.7,188.7c-1,0-.5-.5-1.9-.4,0,.3,1.1.3,1.1.6-1.8,0-1.2-.6-3.3-.5,1,.4,2.6.6,4.3.7-.5-.5.7-.6,2-.5,0-.2.8-.3.6-.6-1.3.1-2.6.2-2.8.5Z"/>
  <path class="st0" d="M3062.6,186.4c-.3-.2-.5,0-1.3,0,.3.2-.3.7,1.1.5.2-.2-.7-.5.2-.5Z"/>
  <path class="st0" d="M3041.5,187.2c2.3,0-1.2,0,0,0h0Z"/>
  <path class="st0" d="M3031.7,186.7c.4,0,.7,0,.8.2.9,0,.7-.3,1.6-.4-1.3,0-.6-.8-2.4-.7h0c0,.2,0,.3.1.4,0,0,0,0-.1,0v.5Z"/>
  <path class="st0" d="M3499.3,189.6c.8,0,.6-.2.7-.4h-2c-.4.3,1.3.2,1.3.4Z"/>
  <path class="st0" d="M3576.9,190.6h1.3c-.1-.1.3-.1.7-.1.3-.3-3-.2-2,.1Z"/>
  <path class="st0" d="M3570.9,190.7c-.4.3,3.5.7,3.3.1-.8-.1-1.8-.2-3.3-.1Z"/>
  <path class="st0" d="M3709.4,192.2c-1.4,0-1.3.2-1.3.4h2c-.4-.1-.7-.2-.7-.4Z"/>
  <path class="st0" d="M3431,192.8c-.3.3,3,.2,2-.1-1.1,0-1.2.1-2,.1Z"/>
  <path class="st0" d="M3837.2,195.1c-.6-.2-1.7-.3-3.3-.3,0,.3,1.7.3,3.3.3Z"/>
  <path class="st0" d="M3833.2,195c-3.7,0-10.5-.4-12,.3,2,0,2,.2,4,.1-1.8.3-5.5.1-6,.7,1.3.3,2.9,0,3.3-.3,2.8.2,5.4.8,8,.3-.9-.6-.6-1,2.7-1.1Z"/>
  <path class="st0" d="M3820.5,195.1c-.1-.4-3.3-.2-5.4-.3-.4.5,3.7.2,5.4.3Z"/>
  <path class="st0" d="M1250.3,191c1.3,0,2.1.3,2.6,0-.8,0-2.5-.2-2.6,0Z"/>
  <path class="st0" d="M1276.7,190.7c0,.4-1.9.1-2,.5,1.8,0,1.7,0,3,0,.5-.3-.7-.4-1.1-.6Z"/>
  <path class="st0" d="M1327.8,192.2c.9.3,1.9,0,2.7-.1-1.1,0-2.5-.1-2.7.1Z"/>
  <path class="st0" d="M1282.3,191c.6,0,.5.2,1.3.1.8-.2-1.3-.4-1.3-.1Z"/>
  <path class="st0" d="M1341,191.9c-.4.2-2.5,0-2.3.4,1.6,0,2,.2,2.9.3.1-.3.5-.6-.6-.7Z"/>
  <path class="st0" d="M1286.6,191.1c.7,0,1.6,0,1.8,0-.5-.2-1.6-.2-1.8,0Z"/>
  <path class="st0" d="M1344.1,192c.2.3-1,.2-1.1.4.6,0,.8.2,1.7.2.2-.3.3-.5-.6-.6Z"/>
  <path class="st0" d="M1302.3,191.4c1.1,0,3,0,3.2-.3-1.2-.3-2.9,0-3.2.3Z"/>
  <path class="st0" d="M1311.7,190.9c-.8,0-1,0-1.8,0,0,.2-.3.4.3.4.1-.2,1.1,0,1.8,0,.2-.2-.4-.2-.2-.4Z"/>
  <path class="st0" d="M1308,191.3c0,0,0-.1,0-.2-.4,0-.9,0-1.3,0-.1.2.3.3,1.2.2Z"/>
  <path class="st0" d="M1357.7,190.9c-3.6.2-10.3-.5-13.7.3.2.2,0,.6,1,.7.7-.1.8-.5,1.6-.6,1.7.5,5,0,7.3.4.3-.4,1.2-.6,3.3-.5-.1.2,0,.3.2.4,1.3,0,1.8,0,2.3-.3-2.9,0-.4-.4-2-.5Z"/>
  <path class="st0" d="M1318.2,190c-1.7,0-1.3.2-1.1.5-1.2-.2-3.7,0-4.9,0,1,.4,7,.2,6.6-.1-.9.3-1.9-.3-.7-.4Z"/>
  <path class="st0" d="M1321.4,189.7c-.2.2-1,.5.2.6.7-.1,1-.6-.2-.6Z"/>
  <path class="st0" d="M1318.5,189.3c1.3,0,1.5-.2,1.5-.5-2.9,0-3.7.8-5,1.4,1.2-.3,4.2,0,5.4-.4-1.9,0-1.6-.3-2-.5Z"/>
  <path class="st0" d="M1304,189.5c1.1-.4.8.3,2.1.3.6-.5-3.2-.8-2.1-.3Z"/>
  <path class="st0" d="M1345.6,190.5c1,0,1.4-.1,2.6,0,.8-1,2.5,0,1-.2.8.1,1.3,0,2.6,0-.4-.3.8-.2,1-.4-.8,0-5.7-.3-6.6,0,1,0,1.6,0,1.6.3-1.3,0-1.8,0-2.3.3Z"/>
  <path class="st0" d="M1315.4,189.4c-1,0-1.8-.2-2-.4.5-.1,1.6,0,1.4-.3-1.3-.2-1,0-2.6,0-.6.5,2.2,1.1,3.2.7Z"/>
  <path class="st0" d="M1342,189.7c0,0,0-.1,0-.2-.4,0-.9,0-1.3,0-.1.2.3.3,1.2.2Z"/>
  <path class="st0" d="M1359.4,189.9c1.3.4,1.5-.4,0,0h0Z"/>
  <path class="st0" d="M1422.7,191.3c2.8-.1,5.1.3,7.1-.1-2.3,0-6.6-.5-7.1.1Z"/>
  <path class="st0" d="M1313.6,188.5c0-.3-1-.4-2-.5,0,.3.6.5,2,.5Z"/>
  <path class="st0" d="M1421.1,191.2c.4,0,.9,0,1.3,0,0-.1,0-.2.1-.3-.3,0-.6,0-.9,0,0,.1-.6.1-.6.3Z"/>
  <path class="st0" d="M1427,190.7c.6,0,.8.2,1.7.2.4-.4-1.2-.4-1.7-.2Z"/>
  <path class="st0" d="M1426.1,190.6c.2-.3,0-.7.8-.8-1.2,0-1.6.2-2,.5,1.6-.1.1.4,1.2.4Z"/>
  <path class="st0" d="M1422.5,189.9c1.4,0,.9,0,2.2,0,.3-.3-.4-.4-1.6-.4,0,.1-.3.2-.6.3Z"/>
  <path class="st0" d="M1419.6,189.5c1.2,0,1.2-.3,1.9-.4-1.4-.1-1.7.1-1.9.4Z"/>
  <path class="st0" d="M1415.8,189.1c.3,0,1.6.3,1.7,0-.3,0-1.6-.3-1.7,0Z"/>
  <path class="st0" d="M1431,189.5c0-.1,0-.2.1-.3-1.2-.2-1.5.4-.1.3Z"/>
  <path class="st0" d="M1416.7,188.1c-2.5-.2-3.3.1-4.1.4.5.2,2,.2,2.9.4,0-.4,1.3-.4,1.2-.8Z"/>
  <path class="st0" d="M1426.4,189.1c1.4.1,1.9-.4.6-.4-.2.1-.7.2-.6.4Z"/>
  <path class="st0" d="M1407.9,188.2c-.7,0-1.1,0-1.4.2.7,0,1.5,0,1.4-.2Z"/>
  <path class="st0" d="M1400.5,188.1c1.4,0,1.5.1,2.6.2.2-.3-.6-.2.2-.4-1.3,0-2.8-.1-2.7.3Z"/>
  <path class="st0" d="M1430.5,188.5c-.1.2.2.3.7.3.1-.2,1.1,0,1.8,0-.2-.3.3-.3.8-.4.5,0,1,0,.8.4.7,0,1.6,0,1.8,0,.5,0,.8-.2.7-.3-1.2,0-1.8-.1-2.6-.2,0,0,0,0,0,0-.3,0-.6,0-.8,0-.2,0-.5,0-.8,0,0,0,0,0,0,0-.8.1-1.3.3-2.6.2Z"/>
  <path class="st0" d="M1397.3,187.4c-1.7.1-1.7.2-3,0-1.5.3,3.2.7,3,0Z"/>
  <path class="st0" d="M1405.4,187.9c1.6,0,3,0,3.2-.3-1.1-.1-3.1-.1-3.2.3Z"/>
  <path class="st0" d="M1427.8,187.8c.7,0,2.2.2,2.2,0-.6-.2-1.9-.4-2.2,0Z"/>
  <path class="st0" d="M1416,186.7c-.3,0-.6,0-.9,0,0,0,0,.1,0,.2.3,0,.6,0,.9,0,0,0,0-.1,0-.2Z"/>
  <path class="st0" d="M1391.1,185.6c2.7.2,1.1-.3,0,0h0Z"/>
  <path class="st0" d="M1427.4,185.8c1,.1,2.1-.3,1-.4,0,.2-1.2.1-1,.4Z"/>
  <path class="st0" d="M1405.2,184.4c.3,0,.6,0,.9,0,0-.1.4-.1.5-.2-.7,0-1.5,0-1.4.2Z"/>
  <path class="st0" d="M1401.7,184.4c.8,0,1.5,0,1.8-.2-1,0-1.6,0-1.8.2Z"/>
  <path class="st0" d="M1415.3,189.3c0,0-.1.1-.5,0-1.4-.1,0-.2-.7-.4-2.4,0-2.9.4-4.3.4.7,0-2.7-.4-4.1-.3,1-.2,0-.1-.3-.3-1.6-.1-.7.5-2.4.4-.8,0-.9-.2-.7-.4-2.3,0-5.4-.2-5.5.5.8.4,2.8-.2,3,0-.5.4-1.8.6-2.6.9,1.6.5,3.1,0,5.6.1-.5.3,1.1.2.6.6,4-.2,6.2.2,10.9.2,0-.6-2.1-1.3-1.5-1.6,1.1,0,3.1.2,2.2,0Z"/>
  <path class="st0" d="M1397.5,188c1.3,0,2.7-.2,3.3-.5-1.3,0-1.1-.2-2.1-.2-1.4.5-2.4,1-4.5,1.3.9,0,1.3.3,2,.4-1-.7,1.6-.3,1.3-1Z"/>
  <path class="st0" d="M1421.2,188.9c1.7-.2,3.2-.4,4.3-.7-2-.1-1.5.5-3.3.5,0-.3,1.1-.3,1.1-.6-1.4-.1-.9.4-1.9.4-.3-.3-1.6-.4-2.8-.5-.2.3.5.3.6.6,1.3-.1,2.5,0,2,.5Z"/>
  <path class="st0" d="M1407.7,186.7c1.4.1.8-.3,1.1-.5-.8,0-1-.2-1.3,0,.9,0,0,.4.2.5Z"/>
  <path class="st0" d="M1428.6,186.9c1.2,0-2.3,0,0,0h0Z"/>
  <path class="st0" d="M1435.9,186.2c.9,0,.7.3,1.6.4.1-.1.4-.2.8-.2v-.5s0,0-.1,0c0-.1,0-.2.1-.3h0c-1.8-.2-1.2.5-2.4.6Z"/>
  <path class="st0" d="M969.7,188.9c.1.2-.1.4.7.4,0-.2,1.7-.1,1.3-.4h-2Z"/>
  <path class="st0" d="M892.7,190.3c1-.3-2.3-.4-2-.1.4,0,.8,0,.7.1h1.3Z"/>
  <path class="st0" d="M895.4,190.6c-.2.6,3.8.2,3.3-.1-1.6,0-2.6,0-3.3.1Z"/>
  <path class="st0" d="M760.1,191.9c0,.2-.3.3-.7.4h2c0-.2,0-.5-1.3-.4Z"/>
  <path class="st0" d="M1036.7,192.3c-1,.3,2.3.4,2,.1-.9,0-.9-.2-2-.1Z"/>
  <path class="st0" d="M648.2,194.9c-1.6-.7-8.4-.3-12.1-.3,3.3,0,3.5.5,2.7,1.1,2.7.5,5.2,0,8-.3.5.3,2,.6,3.4.3-.5-.5-4.2-.4-6-.7,2,0,2-.2,4-.1Z"/>
  <path class="st0" d="M654.2,194.5c-2,0-5.2-.2-5.4.3,1.7-.1,5.8.3,5.4-.3Z"/>
  <path class="st0" d="M717.2,198.2c-2.8-.6-7.8-.2-8.7-1-1.6.3-6.4-.1-6,.5.4.3,4.3,0,4,.4-2.2,0-1.6.6-4,.5-2.7-.9-8.5.2-11.4-.5h6.7c.6-.6-4.8-.5-6-.3-3.5-.3-9.9-.5-13.4-.5-1.8,0-4.2,0-6,0-3.1,0-6.2-.5-9.4-.5-8.4-.2-16,.2-22.1.3-1.4.2-1.7.6-3.4.7-1,0-2.1,0-3,0v1.1c3,0,6.6,0,6.4.5,20.6,0,32.8,0,54.3.3.8-.6-2.8-.2-3.4-.5,3.4,0,5.9,0,6.7.5,0-.2.2-.3,1.3-.3,5.3,0,11.9.2,17.4-.3-.1-.5-.9-.5,0-1Z"/>
  <path class="st0" d="M1614.5,191c.6.4,1.3,0,2.6,0-.2-.2-1.9,0-2.6,0Z"/>
  <path class="st0" d="M1590.8,190.7c-.3.2-1.5.2-1.1.6,1.3-.2,1.2,0,3,0,0-.3-2-.1-2-.5Z"/>
  <path class="st0" d="M1537.1,192c.8.1,1.8.4,2.7.1-.2-.3-1.5-.2-2.7-.1Z"/>
  <path class="st0" d="M1584,191.1c.7,0,.7-.1,1.3-.1,0-.2-2-.1-1.3.1Z"/>
  <path class="st0" d="M1526.5,191.9c-1.1,0-.7.4-.6.7.9-.1,1.4-.3,2.9-.3.1-.4-1.9-.1-2.3-.4Z"/>
  <path class="st0" d="M1579.1,191c.2.1,1.1,0,1.8,0-.2-.2-1.3-.2-1.8,0Z"/>
  <path class="st0" d="M1523.5,192c-.9,0-.8.3-.6.6.9,0,1.1-.1,1.7-.2,0-.2-1.2-.1-1.1-.4Z"/>
  <path class="st0" d="M1562,191.1c.2.4,2.1.3,3.2.3-.3-.4-2-.6-3.2-.3Z"/>
  <path class="st0" d="M1555.9,190.9c.1.2-.4.2-.2.4.7,0,1.6,0,1.8,0,.6,0,.2-.3.2-.4-.8,0-1-.1-1.8,0Z"/>
  <path class="st0" d="M1559.5,191.3c.9,0,1.3,0,1.2-.2-.4,0-.9,0-1.3,0,0,0,0,.1,0,.2Z"/>
  <path class="st0" d="M1523.6,191.2c-3.4-.8-10.1-.1-13.7-.3-1.6.1.9.5-2,.5.5.2,1,.3,2.3.3.3-.1.4-.3.2-.4,2.1-.1,3,0,3.3.5,2.2-.3,5.6,0,7.3-.4.8.1.9.5,1.6.6,1,0,.8-.4,1-.7Z"/>
  <path class="st0" d="M1550.4,190.5c.2-.3.6-.6-1.1-.5,1.2.1.2.8-.7.4-.3.4,5.6.5,6.6.1-1.2-.1-3.7-.3-4.9,0Z"/>
  <path class="st0" d="M1546.1,189.7c-1.2,0-.8.5-.2.6,1.2-.1.4-.4.2-.6Z"/>
  <path class="st0" d="M1547,189.7c1.3.3,4.2,0,5.4.4-1.2-.6-2.1-1.3-5-1.4,0,.3.2.6,1.5.5-.4.2,0,.6-2,.5Z"/>
  <path class="st0" d="M1563.6,189.5c1.1-.5-2.6-.2-2.1.3,1.2,0,1-.6,2.1-.3Z"/>
  <path class="st0" d="M1514.7,189.9c.3.2,1.4,0,1.1.4,1.3,0,1.8,0,2.6,0-1.5.2.1-.8,1,.2,1.3-.1,1.6,0,2.6,0-.5-.2-1-.3-2.3-.3,0-.2.6-.3,1.6-.3-.9-.4-5.8,0-6.6,0Z"/>
  <path class="st0" d="M1552.7,188.7c-.2.3,1,.2,1.4.3-.2.2-1,.3-2,.4,1,.4,3.8-.2,3.2-.7-1.6,0-1.3,0-2.6,0Z"/>
  <path class="st0" d="M1526.8,189.4c-.4,0-.9,0-1.3,0,0,0,0,.1,0,.2.9,0,1.3,0,1.2-.2Z"/>
  <path class="st0" d="M1508.2,189.9c-1.5-.4-1.3.4,0,0h0Z"/>
  <path class="st0" d="M1437.8,191.2c1.9.4,4.2,0,7.1.1-.5-.6-4.8,0-7.1-.1Z"/>
  <path class="st0" d="M1555.9,188c-1,0-2,.2-2,.5,1.4,0,2-.2,2-.5Z"/>
  <path class="st0" d="M1433.8,191.1c-.3,0-.6,0-.9,0-1.6.3-2.2.3-3.6.4v.2c1,.1,3.1,0,4.5,0,1.5.1,3.5.2,4.5,0v-.2c-1.5,0-2.1-.1-3.7-.4-.3,0-.6,0-.9,0Z"/>
  <path class="st0" d="M1446,190.9c-.3,0-.6,0-.9,0,0,.1,0,.2.1.3.4,0,.9,0,1.3,0,0-.2-.5-.2-.6-.3Z"/>
  <path class="st0" d="M1439,190.9c.9,0,1.1-.1,1.7-.2-.5-.2-2-.2-1.7.2Z"/>
  <path class="st0" d="M1442.7,190.2c-.4-.2-.8-.5-2-.5.7.1.6.5.8.8,1.1,0-.5-.5,1.2-.4Z"/>
  <path class="st0" d="M1445.2,189.9c-.3,0-.5-.2-.6-.3-1.1,0-1.8,0-1.6.4,1.3-.1.8,0,2.2,0Z"/>
  <path class="st0" d="M1446.1,189.2c.7.1.7.4,1.9.4-.3-.2-.5-.5-1.9-.4Z"/>
  <path class="st0" d="M1450.1,189.2c.2.3,1.5,0,1.7,0-.2-.3-1.5,0-1.7,0Z"/>
  <path class="st0" d="M1436.5,189.2c0,.1,0,.2.1.3,1.3.1,1.1-.5-.1-.3Z"/>
  <path class="st0" d="M1455,188.5c-.9-.3-1.6-.6-4.1-.4,0,.4,1.3.4,1.2.8.9-.2,2.4-.2,2.9-.4Z"/>
  <path class="st0" d="M1440.7,188.7c-1.2,0-.8.5.6.4,0-.2-.4-.3-.6-.4Z"/>
  <path class="st0" d="M1459.7,188.2c-.1.2.7.2,1.4.2-.2-.1-.6-.2-1.4-.2Z"/>
  <path class="st0" d="M1464.6,188.3c1,0,1.2-.2,2.6-.2,0-.4-1.4-.3-2.7-.3.8.2,0,.1.2.4Z"/>
  <path class="st0" d="M1470.3,187.4c-.2.7,4.5.2,3,0-1.3.3-1.3.2-3,0Z"/>
  <path class="st0" d="M1459,187.5c.2.4,1.6.4,3.2.3-.2-.5-2.1-.5-3.2-.3Z"/>
  <path class="st0" d="M1439.9,187.8c-.4-.4-1.6-.2-2.2,0,0,.2,1.6,0,2.2,0Z"/>
  <path class="st0" d="M1452.5,186.6c-.3,0-.6,0-.9,0,0,0,0,.1,0,.2.3,0,.6,0,.9,0,0,0,0-.1,0-.2Z"/>
  <path class="st0" d="M1476.5,185.6c-1.1-.3-2.7.2,0,0h0Z"/>
  <path class="st0" d="M1440.3,185.8c.2-.3-1-.2-1-.4-1,0,0,.5,1,.4Z"/>
  <path class="st0" d="M1461.1,184.3c.1,0,.5,0,.5.2.3,0,.6,0,.9,0,.1-.2-.7-.2-1.4-.2Z"/>
  <path class="st0" d="M1464.1,184.2c.3.1,1,.2,1.8.2-.2-.2-.8-.2-1.8-.2Z"/>
  <path class="st0" d="M1470.6,189.2c-.1-.7-3.2-.5-5.5-.5.2.2,0,.4-.7.4-1.6.1-.7-.5-2.3-.4-.2.2-1.3.1-.3.3-1.4-.1-4.8.2-4.1.3-1.3,0-1.9-.4-4.3-.4-.7.2.7.3-.7.4-.4,0-.4,0-.5,0-.9.3,1.1.1,2.2,0,.7.4-1.6,1-1.5,1.6,4.7,0,6.8-.4,10.9-.2-.5-.3,1.1-.2.6-.6,2.6-.1,4,.3,5.6-.1-.7-.3-2.1-.5-2.6-.9.2-.2,2.2.3,3,0Z"/>
  <path class="st0" d="M1466.9,187.6c.6.3,1.9.4,3.3.5-.2.7,2.3.4,1.3,1,.7-.1,1.2-.3,2-.4-2.1-.2-3.1-.8-4.5-1.3-1.1,0-.9.2-2.1.2Z"/>
  <path class="st0" d="M1446.2,188.4c-1,0-.5-.5-1.9-.4,0,.3,1.1.3,1.1.6-1.8,0-1.2-.6-3.3-.5,1,.4,2.6.6,4.3.7-.5-.5.7-.6,2-.5,0-.2.8-.3.6-.6-1.3.1-2.6.2-2.8.5Z"/>
  <path class="st0" d="M1460.1,186.1c-.3-.2-.5,0-1.3,0,.3.2-.3.7,1.1.5.2-.2-.7-.5.2-.5Z"/>
  <path class="st0" d="M1439,186.9c2.3,0-1.2,0,0,0h0Z"/>
  <path class="st0" d="M1429.3,186.4c.4,0,.7,0,.8.2.9,0,.7-.3,1.6-.4-1.3,0-.6-.8-2.4-.7h0c0,.2,0,.3.1.4,0,0,0,0-.1,0v.5Z"/>
  <path class="st0" d="M1896.8,189.3c.8,0,.6-.2.7-.4h-2c-.4.3,1.3.2,1.3.4Z"/>
  <path class="st0" d="M1974.4,190.3h1.3c-.1-.1.3-.1.7-.1.3-.3-3-.2-2,.1Z"/>
  <path class="st0" d="M1968.4,190.4c-.4.3,3.5.7,3.3.1-.8-.1-1.8-.2-3.3-.1Z"/>
  <path class="st0" d="M2106.9,191.9c-1.4,0-1.3.2-1.3.4h2c-.4-.1-.7-.2-.7-.4Z"/>
  <path class="st0" d="M1828.6,192.5c-.3.3,3,.2,2-.1-1.1,0-1.2.1-2,.1Z"/>
  <path class="st0" d="M2234.7,194.8c-.6-.2-1.7-.3-3.3-.3,0,.3,1.7.3,3.3.3Z"/>
  <path class="st0" d="M2230.7,194.6c-3.7,0-10.5-.4-12,.3,2,0,2,.2,4,.1-1.8.3-5.5.1-6,.7,1.3.3,2.9,0,3.3-.3,2.8.2,5.4.8,8,.3-.9-.6-.6-1,2.7-1.1Z"/>
  <path class="st0" d="M2218,194.8c-.1-.4-3.3-.2-5.4-.3-.4.5,3.7.2,5.4.3Z"/>
  <path class="st0" d="M11.4,191.1c.6.4,1.3,0,2.6,0-.2-.2-1.9,0-2.6,0Z"/>
  <path class="st0" d="M293.7,189.5c.8,0,.6-.2.7-.4h-2c-.4.3,1.3.2,1.3.4Z"/>
  <path class="st0" d="M371.3,190.4h1.3c-.1-.1.3-.1.7-.1.3-.3-3-.2-2,.1Z"/>
  <path class="st0" d="M365.3,190.5c-.4.3,3.5.7,3.3.1-.8-.1-1.8-.2-3.3-.1Z"/>
  <path class="st0" d="M503.8,192c-1.4,0-1.3.2-1.3.4h2c-.4-.1-.7-.2-.7-.4Z"/>
  <path class="st0" d="M225.5,192.6c-.3.3,3,.2,2-.1-1.1,0-1.2.1-2,.1Z"/>
  <path class="st0" d="M631.6,194.9c-.6-.2-1.7-.3-3.3-.3,0,.3,1.7.3,3.3.3Z"/>
  <path class="st0" d="M627.6,194.8c-3.7,0-10.5-.4-12,.3,2,0,2,.2,4,.1-1.8.3-5.5.1-6,.7,1.3.3,2.9,0,3.3-.3,2.8.2,5.4.8,8,.3-.9-.6-.6-1,2.7-1.1Z"/>
  <path class="st0" d="M614.9,194.9c-.1-.4-3.3-.2-5.4-.3-.4.5,3.7.2,5.4.3Z"/>
  <path class="st0" d="M3840,16V6.9c-.9,0-1.6-.1-1.2-.3.5.1.8.1,1.2,0v-2c-7,0-14.2.3-21.3.3-20.3,0-41.2.1-60.9.4-5.4,0-10.7,0-14.7.3-2.5.2-3.8.7-6.7.8-.8,0-2.6-.1-3.4-.1-6.9,0-14,.2-19.4.7-8-.5-17.7-.4-26.8-.5-3.8,0-8.1-.3-12.1-.1-.9,0-1.7.3-2.7.3-19.4.3-38.3-1-57.6-.3-4.6-.5-9.4,0-14.1,0-6.6,0-13.4-.2-20.1-.3-13.1-.1-26.6-.3-39.5-.4-7.4,0-14.3,0-21.4.1-11,.1-26.2-.2-37.5-.1-15,.1-31.7.1-44.9.1-7.8,0-15.1-.4-20.1-.5-4.7-.1-9.6.2-14.1.3-6.4.1-13.1-.1-19.4-.1-3.4,0-6.3.2-8.7.3-8.7.2-17.8,0-23.4-.1-1.6.1-3.3.2-5.4.3-1.4-.1-3.2-.2-3.4-.5-6.3.7-18.5-.5-26.1.3-5.3-.5-10.2-.1-16.1-.1-7.9,0-16.5-.1-24.8-.1-7.9,0-15.9-.5-22.1,0-1.5-.5-3.8,0-6-.1-8.2-.2-17-1.1-22.8-1.4,1.6.1,1.4.5.7.7-1.6,0-2.5-.2-4.7-.1-1.1,0-.4.4-1.3.4-3.9,0-8.4,0-13.1,0v-.3c-6.6,0-13.3,0-18.9,0-1,0-.2-.4-1.3-.4-2.2,0-3.1,0-4.7.1-.8-.2-.9-.6.7-.7-5.8.3-14.6,1.1-22.7,1.4-2.2,0-4.5-.4-6,.1-6.2-.5-14.2,0-22.1,0-8.2,0-16.9.1-24.8.1-5.9,0-10.8-.4-16.1.1-7.7-.7-19.8.4-26.1-.3-.2.4-2,.4-3.3.5-2.1,0-3.8-.1-5.4-.3-5.6.2-14.7.4-23.4.1-2.4,0-5.3-.3-8.7-.3-6.4,0-13,.2-19.4.1-4.4,0-9.3-.4-14.1-.3-5,.1-12.2.5-20.1.5-13.2,0-29.8,0-44.8-.1-11.3,0-26.5.3-37.5.1-7.2,0-14-.2-21.4-.1-13,.1-26.4.3-39.5.4-6.7,0-13.5.3-20.1.3-4.7,0-9.4-.5-14.1,0-19.3-.7-38.2.5-57.5.3-1,0-1.8-.2-2.7-.3-3.9-.2-8.2,0-12,.1-9.1.1-18.7,0-26.8.5-5.4-.5-12.5-.6-19.4-.7-.8,0-2.5.2-3.3.1-2.9-.1-4.2-.6-6.7-.8-4-.3-9.3-.2-14.7-.3-19.7-.3-40.6-.3-60.9-.4-11,0-22.2-.7-32.8,0-7.6-.7-15,0-20.7-.1-1.8,0-2.8-.4-4.7-.4-2.2,0-3.9.4-6.7.5-.9,0-2.7,0-3.3,0-.6,0-1,.5-2,.5-.7,0-2.9-.3-3.3-.3-1.1,0-1.6.2-2.7.3-1.7,0-4.5,0-6.7.1-4.2.3-7.5.4-10.7-.3-4,.2-9.9,1.5-13.4.5,0,.4-3.4.7-4,.1-1,0,.3.2,0,.4-1.7,0-2.4,0-2-.4-2.8.4-6.7.8-9.4.3-5.1,0-11.6.3-15.4.1-.8,0-.6-.2-.7-.4-1.9.3-3-.1-4.7-.1-6.6-.1-12.5.6-17.4.4-.8.2-.3.2,0,.4-2,0-6.3.3-5.4-.4-1,.5-3.1.2-5.4.1-1.9-.2,2.7-.6.7-.8-6,.2-9.3.3-14.7.4.3.4,5.1-.1,5.4.3-1.8.1-3.9.2-6,.3-2.1,0-4.2-.2-6-.3.3-.4,5.1.1,5.4-.3-5.4,0-8.7-.2-14.7-.4-2,.3,2.5.6.7.8-2.2,0-4.4.3-5.4-.1,1,.7-3.4.3-5.4.4.3-.2.8-.2,0-.4-4.9.2-10.8-.5-17.4-.4-1.7,0-2.7.4-4.7.1-.1.2.1.4-.7.4-3.8.1-10.3-.1-15.4-.1-2.6.5-6.5.1-9.4-.3.4.4-.3.5-2,.4-.3-.2,1-.3,0-.4-.6.5-3.9.2-4-.1-3.5,1-9.4-.3-13.4-.5-3.2.7-6.5.5-10.7.3-2.2-.1-5,0-6.7-.1-1.1,0-1.6-.3-2.7-.3-.5,0-2.7.3-3.3.3-1,0-1.4-.5-2-.5-.7,0-2.4,0-3.4,0-2.8-.2-4.5-.5-6.7-.5-1.9,0-2.9.3-4.7.4-5.7.2-13.2-.6-20.8.1-10.6-.7-21.8,0-32.8,0-20.3,0-41.2.1-60.9.4-5.4,0-10.7,0-14.7.3-2.5.2-3.8.7-6.7.8-.8,0-2.6-.1-3.4-.1-6.9,0-14,.2-19.4.7-8-.5-17.7-.4-26.8-.5-3.8,0-8.1-.3-12.1-.1-.9,0-1.7.3-2.7.3-19.4.3-38.3-1-57.6-.3-4.6-.5-9.4,0-14.1,0-6.6,0-13.4-.2-20.1-.3-13.1-.1-26.6-.3-39.5-.4-7.4,0-14.3,0-21.4.1-11,.1-26.2-.2-37.5-.1-15,.1-31.7.1-44.9.1-7.8,0-15.1-.4-20.1-.5-4.7-.1-9.6.2-14.1.3-6.4.1-13.1-.1-19.4-.1-3.4,0-6.3.2-8.7.3-8.7.2-17.8,0-23.4-.1-1.6.1-3.3.2-5.4.3-1.4-.1-3.2-.2-3.4-.5-6.3.7-18.5-.5-26.1.3-5.3-.5-10.2-.1-16.1-.1-7.9,0-16.5-.1-24.8-.1-7.9,0-15.9-.5-22.1,0-1.5-.5-3.8,0-6-.1-8.2-.2-17-1.1-22.8-1.4,1.6.1,1.4.5.7.7-1.6,0-2.5-.2-4.7-.1-1.1,0-.4.4-1.3.4-4.1,0-8.9,0-13.7,0v11.7h0V6.3c-1-.1-1.9-.4-2.2-.6.6,0,1.4-.1,2.2-.1v-1.2c-6.6,0-13.3,0-18.9,0-1,0-.2-.4-1.3-.4-2.2,0-3.1,0-4.7.1-.8-.2-.9-.6.7-.7-5.8.3-14.6,1.1-22.7,1.4-2.2,0-4.5-.4-6,.1-6.2-.5-14.2,0-22.1,0-8.2,0-16.9.1-24.8.1-5.9,0-10.8-.4-16.1.1-7.7-.7-19.8.4-26.1-.3-.2.4-2,.4-3.3.5-2.1,0-3.8-.1-5.4-.3-5.6.2-14.7.4-23.4.1-2.4,0-5.3-.3-8.7-.3-6.4,0-13,.2-19.4.1-4.4,0-9.3-.4-14.1-.3-5,.1-12.2.5-20.1.5-13.2,0-29.8,0-44.8-.1-11.3,0-26.5.3-37.5.1-7.2,0-14-.2-21.4-.1-13,.1-26.4.3-39.5.4-6.7,0-13.5.3-20.1.3-4.7,0-9.4-.5-14.1,0-19.3-.7-38.2.5-57.5.3-1,0-1.8-.2-2.7-.3-3.9-.2-8.2,0-12,.1-9.1.1-18.7,0-26.8.5-5.4-.5-12.5-.6-19.4-.7-.8,0-2.5.2-3.3.1-2.9-.1-4.2-.6-6.7-.8-4-.3-9.3-.2-14.7-.3-19.7-.3-40.6-.3-60.9-.4-11,0-22.2-.7-32.8,0-7.6-.7-15,0-20.7-.1-1.8,0-2.8-.4-4.7-.4-2.2,0-3.9.4-6.7.5-.9,0-2.7,0-3.3,0-.6,0-1,.5-2,.5-.7,0-2.9-.3-3.3-.3-1.1,0-1.6.2-2.7.3-1.7,0-4.5,0-6.7.1-4.2.3-7.5.4-10.7-.3-4,.2-9.9,1.5-13.4.5,0,.4-3.4.7-4,.1-1,0,.3.2,0,.4-1.7,0-2.4,0-2-.4-2.8.4-6.7.8-9.4.3-5.1,0-11.6.3-15.4.1-.8,0-.6-.2-.7-.4-1.9.3-3-.1-4.7-.1-6.6-.1-12.5.6-17.4.4-.8.2-.3.2,0,.4-2,0-6.3.3-5.4-.4-1,.5-3.1.2-5.4.1-1.9-.2,2.7-.6.7-.8-6,.2-9.3.3-14.7.4.3.4,5.1-.1,5.4.3-1.8.1-3.9.2-6,.3-2.1,0-4.2-.2-6-.3.3-.4,5.1.1,5.4-.3-5.4,0-8.7-.2-14.7-.4-2,.3,2.5.6.7.8-2.2,0-4.4.3-5.4-.1,1,.7-3.4.3-5.4.4.3-.2.8-.2,0-.4-4.9.2-10.8-.5-17.4-.4-1.7,0-2.7.4-4.7.1-.1.2.1.4-.7.4-3.8.1-10.3-.1-15.4-.1-2.6.5-6.5.1-9.4-.3.4.4-.3.5-2,.4-.3-.2,1-.3,0-.4-.6.5-3.9.2-4-.1-3.5,1-9.4-.3-13.4-.5-3.2.7-6.5.5-10.7.3-2.2-.1-5,0-6.7-.1-1.1,0-1.6-.3-2.7-.3-.5,0-2.7.3-3.3.3-1,0-1.4-.5-2-.5-.7,0-2.4,0-3.4,0-2.8-.2-4.5-.5-6.7-.5-1.9,0-2.9.3-4.7.4-5.7.2-13.2-.6-20.8.1-10.6-.7-21.8,0-32.8,0-20.3,0-41.2.1-60.9.4-5.4,0-10.7,0-14.7.3-2.5.2-3.8.7-6.7.8-.8,0-2.6-.1-3.4-.1-6.9,0-14,.2-19.4.7-8-.5-17.7-.4-26.8-.5-3.8,0-8.1-.3-12.1-.1-.9,0-1.7.3-2.7.3-19.4.3-38.3-1-57.6-.3-4.6-.5-9.4,0-14.1,0-6.6,0-13.4-.2-20.1-.3-13.1-.1-26.6-.3-39.5-.4-7.4,0-14.3,0-21.4.1-11,.1-26.2-.2-37.5-.1-15,.1-31.7.1-44.9.1-7.8,0-15.1-.4-20.1-.5-4.7-.1-9.6.2-14.1.3-6.4.1-13.1-.1-19.4-.1-3.4,0-6.3.2-8.7.3-8.7.2-17.8,0-23.4-.1-1.6.1-3.3.2-5.4.3-1.4-.1-3.2-.2-3.4-.5-6.3.7-18.5-.5-26.1.3-5.3-.5-10.2-.1-16.1-.1-7.9,0-16.5-.1-24.8-.1-7.9,0-15.9-.5-22.1,0-1.5-.5-3.8,0-6-.1-8.2-.2-17-1.1-22.8-1.4,1.6.1,1.4.5.7.7-1.6,0-2.5-.2-4.7-.1-1.1,0-.4.4-1.3.4-4.1,0-8.9,0-13.7,0v24c.2,0,.5,0,.7,0v142c-.2,0-.5,0-.7,0v20.4c1.2,0,2.5,0,2.9-.3,1.6.2-.8.5-2,.5,1.4.7,2.4-.3,4.8,0,1-.2-1.1-.4.2-.5,0-.3-1.9.1-1.4-.3,0-.2,2.3,0,2.5-.3.9,0,.2.5,1.9.3-.3.2-.6.4-2,.4.2.3,1.2.4,2.8.4-.7-.4.5-.5,2-.5.3-.3-1-.2-1.8-.2,0-.3,1.6-.2,1.5-.5,1.3,0,.8.5,2,.6,1.7,0,.1,0,.3-.3,1.8.2,3.5,0,4.2-.3.8,0,1,.1,1.8,0-.2.3-1.1.2-2.1.2-.6,0,.1.4-.7.4.5.3,1.9.3,3.1.1,0,0,0,.1,0,.2-.4.3-2.7.1-3.8.2,2.5.6,6.6-.6,9.6,0-.3-.2.2-.3.2-.4,7.4.3,17.2-.2,26.2-.2,1,0,3,0,5.3,0,3.9,0,8,.1,11.5-.1,3.4.2,6.4.5,8.6,1.1,4.3.2,9.4.2,10.7-.5,4.1.5,8.1,0,12,0,1.1,0,3.1.2,4.7.3,6.6.1,11.1.5,16.7.1,1.7,0,2.1.2,3.3.3,2,0,5.8.2,6.7-.1,3.5.5,7.3.3,12,.3,3.6,0,7.9.2,12.7.1,2.7,0,4.8-.2,8.7-.3,4.3,0,8.2-.4,12-.5,5.5-.1,10.1,0,13.4-.8,1.2.1,3.3,0,4,.3,4.8-1.1,11.7,0,18.7-.3,1.5,0,1,.3,2,.3,2.2,0,1.1-.3.7-.4,2.5,0,3.5.3,5.4.4,1.9,0,1.6-.3,2-.3.9,0,1.6.2,2.7.1,2.9,0,4.9-.5,8.7-.5.8.3,1.4.6,2,1,8.4,1.3,23.7-.2,32.1.3,2.7-.6,9.1-.5,14.1-.7-.4-.5-4.6.1-6.7-.3,1.5-.7,12.6.1,12-1.1,2.5-.2.1.6,2.7.4v-1c1.3-.4,4.2,0,6.7-.3.1,0,.6-.3.7-.3,7-.2,14.8.2,22.1,0,2.7,0,4.8-.1,8-.1,1.6,0,5.5-.3,8-.3,1.4,0,1.3.2,2,.3,2,.1,5.6,0,8,0,3,0,6.1.3,8.7.3-.8.4-4.5,0-7.4.3-2.1.3-3.2.8-6,1,.9.8,6.5.6,8.7,1.1-1.8.5-5.4,0-9.4.3,2.7.7,16.1.3,20.1.4,2-.6-6.6-.5-8-.4,1.7-.7,8.1-.4,12-.1,1.8-.8,4.9.2,6.7-.5-.7-.4-2.8,0-4,0,1.8-.7,6.6-.2,6.7.5-.9.4-3.6.4-3.3,1.1,6.5.2,15,.1,21.4,0,1.8-.4-.9-.5-1.3-.8,3,0,5,0,4.7.7,5.8-.5,9.3.1,13.4,0,1.4,0,1.8.3,2.7.4,3.3,0,4.2-.5,7.4-.3-.7-.1-1.3-.3-2-.4,4.7-.6,7.8,0,12.7,0,.7,0-.1.5,2,.5,1.9,0,3.7,0,3.3-.4,1.1,0,2.2.2,3.3.1,1.7,0,.6-.3,2-.4,1.8-.1,5.2.3,5.4-.3,23,1.5,46.6.6,76.3,1,2,0,2.3-.4,4-.4,11.3,0,23.1,0,34.1-.4,3.7-.1,8.1-.1,14.1-.3,3.8,0,7.1-.5,11.4.1,5-.1,10.2,0,13.4-.4,2.2,0,3.5.2,4.7.4.9-.2,2.5-.6,4-.3,2,.2-1.4.7.7,1,3.4.2,3.3-.2,7.4.1-2.6.4-2.6.6-4.7.4-1.4.1-2,.4-2,.8-2.2,0-2.8.2-5.4.1,2,.5,5.6.6,5.4,1.5,6.2,0,12.8-.7,16.7.1,2.6,0,5.5-.2,8.2-.3v-15.1h0v15.3c1,0,2.1,0,3,0,4-.8,10.6,0,16.7-.1-.2-.9,3.4-1,5.4-1.5-2.5.1-3.2-.2-5.4-.1,0-.4-.6-.7-2-.8-2.1.2-2.1,0-4.7-.4,4-.3,4,0,7.4-.1,2.1-.2-1.3-.8.7-1,1.5-.3,3.1,0,4,.3,1.1-.2,2.4-.4,4.7-.4,3.2.4,8.4.3,13.4.4,4.2-.6,7.6-.2,11.4-.1,6,.1,10.3.2,14.1.3,11,.3,22.8.5,34.2.4,1.7,0,2,.4,4,.4,29.7-.4,53.4.5,76.4-1,.1.6,3.6.1,5.4.3,1.4.1.3.4,2,.4,1.2,0,2.2-.1,3.4-.1-.3.4,1.4.4,3.3.4,2.1,0,1.3-.5,2-.5,4.9,0,8-.6,12.7,0-.7.1-1.4.3-2,.4,3.2-.2,4.1.2,7.4.3.9-.1,1.3-.4,2.7-.4,4.1.1,7.6-.5,13.4,0-.3-.6,1.7-.7,4.7-.7-.5.3-3.1.5-1.3.8,6.4.1,14.9.2,21.4,0,.3-.7-2.4-.7-3.3-1.1.1-.7,4.9-1.3,6.7-.5-1.2,0-3.3-.4-4,0,1.8.8,4.9-.3,6.7.5,3.9-.3,10.4-.5,12.1.1-1.4,0-10-.2-8,.4,4,0,17.4.3,20.1-.4-4-.2-7.6.3-9.4-.3,2.2-.5,7.8-.3,8.7-1.1-2.8-.2-3.9-.7-6-1-2.9-.2-6.5.1-7.4-.3,2.6,0,5.7-.2,8.7-.3,2.4,0,6.1.1,8,0,.7,0,.6-.3,2-.3,2.5,0,6.4.3,8,.3,3.2,0,5.3,0,8,.1,7.2.2,15.1-.2,22.1,0,0,0,.5.3.7.3,2.5.3,5.4,0,6.7.3v1c2.5.2.1-.6,2.7-.4-.5,1.2,10.6.4,12.1,1.1-2.1.4-6.3-.2-6.7.3,5,.2,11.4,0,14.1.7,8.4-.5,23.8,1,32.2-.3.6-.3,1.2-.7,2-1,3.8,0,5.8.5,8.7.5,1,0,1.8-.2,2.7-.1.4,0,.2.3,2,.3,1.9,0,2.8-.3,5.4-.4-.4.1-1.6.5.7.4,1.1,0,.5-.3,2-.3,7.1.3,13.9-.8,18.8.3.7-.2,2.8-.1,4-.3,3.3.8,7.9.7,13.4.8,3.9,0,7.7.5,12.1.5,3.9,0,6,.2,8.7.3,4.8.1,9.2-.1,12.7-.1,4.7,0,8.6.2,12.1-.3.9.3,4.7,0,6.7.1,1.3,0,1.7-.3,3.3-.3,5.6.3,10.2,0,16.7-.1,1.6,0,3.6-.3,4.7-.3,3.9,0,8,.5,12.1,0,1.3.8,6.4.8,10.7.5,2.2-.5,5.2-.9,8.6-1.1,3.5.3,7.6.1,11.5.1,2.3,0,4.3,0,5.3,0,9,0,18.8.5,26.2.2,0,.1.5.2.3.4,3-.6,7.1.6,9.6,0-1.1,0-3.5,0-3.9-.2v-.2c1.3.2,2.7.2,3.2-.1-.8,0-.1-.4-.7-.4-1,0-2,.2-2.1-.2.8,0,1,0,1.8,0,.8.3,2.5.5,4.2.3.2.2-1.4.3.3.3,1.2,0,.7-.6,2-.6,0,.3,1.6.2,1.6.5-.8,0-2.1-.2-1.8.2,1.5,0,2.7,0,2,.5,1.6,0,2.6,0,2.8-.4-1.4,0-1.7-.2-2-.4,1.6.2,1-.3,1.9-.3.2.2,2.4,0,2.5.3.5.4-1.5,0-1.4.3,1.3.2-.8.4.2.5,2.4-.3,3.4.7,4.8,0-1.2,0-3.6-.3-2-.5.5.5,3.3.2,4.6.4.7-.1.4-.6,2-.5,0,.3-.8.2-.2.4,1.2,0,2.5.1,2.7-.1-.5,0-1,0-.8-.2,2.3.2,3.3-.5,4.4,0-.7.2-2.2.1-3.2.2-.3.2.5.3-.1.3,0-.2-.7,0-.9,0,2.4.2,3.3-.1,4.9-.2,0-.4,1-.6,2.9-.7-1.5-.1,1.3-.5-.2-.6-.2.2-.8.2-1.8.2-.3-.3,0-.2-.2-.6-1.6,0-1.3.4-3.2.2,0-.1-.3-.1-.3-.2.3-.2,1.7,0,1.5-.4-3.2-.1-1.8,1-.5,1.1-2.4-.2-3.5,0-5.1-.2.4-.5,1.8-.7,3.4-.8-1-.3.7-.4.7-.5,0,0-2-.1-1.6-.3,3.3,0,6.5-.1,9.8-.1.1,0,.2,0,.2.1-1.6,0-1.9.2-2.4.5.5,0,1,0,.8.2.7,0,1.4,0,2.2,0,0-.3,1.3-.6,2.4-.9,1.1,0,2.2,0,3.3,0-.4.4-2.3.3-3.3.4.6,0,1,.2,1.2.4-1.2,0-2.4,0-2.3.3,1,.3,2.3,0,3.9.1-2.4.5-.6.5-2.2,1,1.5.3,1.9.9,5.4.8.9.2.7.6,2.3.7.2-.4-.5-.7,0-1.2.4-.2,2.6.1,2.3-.3-1.5,0-2.1-.3-3.3-.4-.2,0-2.6.3-2.5-.2,1.4-.2,2.8-.2,1.6-.6.9,0,2,0,3.1,0,.3.1.6.2,1,.3,1.4,0,2.7.1,3.9.1.8.1,1.4.3,1.8.4,0,.1-.8,0-1,.2,1.2,0,.2.4,1.1.5,1.7-.4,0-.5.8-.8,1.3,0,1.1.2,2.1.2.1-.2-.8-.3-1.3-.4,4.1-.1,6.9-.6,9.9-1.2,6.2,0,13.1.4,19.9.7.2,0,.3.2.7,0,.1,0,.3,0,.4,0-.2.1-.5.2-.9.3-1.5,0-2.7-.2-4.7-.2.2.4-2.2.6-1.2.8.8,0,.9-.3,1.5-.4,3.7.3,2.3.4,2.2.9-1.3-.1-1.6,0-2.6,0,0-.2.7-.5-.7-.4.9.5-1.4.8-3.8.7,0,.1-.1.3-.2.4.6.4,1.7,0,2.5.3-.5.1-1.3.2-1.1.5,2.9.3,5,.3,8.3,0-.2-.3-1.6-.3-2.4-.5.4-.1.8-.3,1.9-.3.5.7,5,.5,5.6,1.1,0-.5,2.9,0,3.7-.3-1.2,0-.7-.2-1.2-.4.4-.2,3.6,0,2.7-.3-1.9,0-3.1-.2-3.3-.5,1.2.2,2.8.2,3.6-.1-.5-.2-2.3,0-1.6-.5-1.5,0-1.8.3-3.2.3-1-.3-2.4-.5-2.7-.9,1.8,0,1.6.3,3.4.3,1.1-.2,2-.3,3.6-.3,7.6.6,16.7.3,24,.2,1.6,0,2.6.3,3.9.1.7-.3-1.4-.1-.7-.4.8.2,2.9.2,2.3.7,2.8-.6,8.6-.9,12.4-.2.7,0,.8-.3,1.9-.3.8.4,2.6.5,4.5.7.3-.3-.7-.3-.2-.5,1.3.1,4.3-.3,3.5-.9-2.1,0-5.3-.3-5.8.2-.2-.2-1.2-.2-1.6-.4,0-.3.8-.3,1.1-.5-1.5,0-2,.2-2.8.4-.9-.2-3.2-.3-3.1-.9-1.9,0-1.9.4-3.3.5-.7-.1-1.4-.3-2.2-.5,2-.5,4.8-.8,6.5-1.3.2,0,.4,0,.6,0-.7.2-1.1.4-1.1.8,1.8.2,1.9.7,4,.9,0-.4,1.3-.4,1.6-.7-1.2,0-2.4,0-2-.4,1.2-.5,4.3-.1,5.6.1-.7.1-.4.5-1.5.5.3-.5-1.7,0-1.8.2,1.4,0-.4,1,1.9.7-1.2,0,.1-.3,1-.2.7-.2-1.1-.5.2-.5,1.5.1,0,.9,1.8.9-.3-.3-1-.7.6-.4,0-.5-2.4-1-1.1-1.4,1.8,0,3.4.4,3.6-.2-.8-.2-1.6,0-2.1-.3,0,0-.2,0-.4.1-.1,0-.7-.1-1.6,0,0,0,0,0,.1,0-.3,0-.6,0-.9,0-.4-.1,0-.4-1.2-.4-.7.3-.8,0-1.9.4-.2,0-.4,0-.6,0,.5,0,.9,0,1.1-.1-1.9-.3-3.8.2-5.4-.3.5-.2,1-.4,1.6-.5.4,0,.6.1,1.4.1,0-.2.2-.3.7-.4,1.7-.1,3.9,0,7,0,.1,0,.2,0,.4-.1.3,0,.7.1.8.2.9-.2.4-.3-.2-.3,1-.1,2.3,0,3.6-.2,1,0,1.2-.3,2-.4.8,0,1.9,0,2.7,0,.1,0,.3,0,.4,0,1.8.2,3.7,0,5.9,0,0,.2,1.2.2.6.6-.2,0-.5,0,0,.1.7-.1.8-.4,1.5-.5,1.6.2,1.3,1,4.1.6.9.5,2.8.9,5.2,1.1.3-.3-1.6-.3-1.5-.6,1.5.2.4-.4,1.4-.3.3.4,2.2.5,3.7.6,1.4-.5-.9-.8.9-1,0,.1.7.1.8.2-.6.1-.7.4-.2.5.4,0,.9,0,1.3,0-.4-.4.9-.4,2.2-.5v.3c.5,0,1,.1,1.6.1.7-.2,1.8-.3,3-.3,1.1,0,2.3.1,3,.3.6,0,1.1,0,1.6-.1v-.3c1.3,0,2.5,0,2.2.5.4,0,.9,0,1.3,0,.5-.2.4-.4-.2-.5,0-.1.8,0,.8-.2,1.8.2-.6.5.9,1,1.5-.2,3.3-.2,3.7-.6,1,0,0,.5,1.4.3,0,.3-1.8.2-1.5.6,2.4-.2,4.3-.6,5.2-1.1,2.8.3,2.5-.4,4.1-.6.7.1.8.4,1.5.5.5,0,.2-.1,0-.1-.5-.3.5-.3.6-.6,2.2,0,4.1.2,5.9,0,.1,0,.3,0,.4,0,.8,0,1.9,0,2.7,0,.8,0,1,.3,2,.4,1.3.1,2.7,0,3.6.2-.6,0-1.1.2-.2.3.1-.1.6-.2.8-.2.1,0,.3,0,.4.1,3.1,0,5.3,0,7,0,.4,0,.7.2.7.4.8,0,1.1,0,1.4-.1.6.1,1.1.3,1.6.5-1.5.4-3.5,0-5.4.3.2,0,.6.1,1.1.1-.2,0-.4,0-.6,0-1.1-.3-1.2-.1-1.9-.4-1.2,0-.7.2-1.2.4-.3,0-.6,0-.9,0,0,0,0,0,.1,0-.9-.2-1.4-.2-1.6,0-.2,0-.3,0-.4-.1-.5.3-1.3,0-2.1.3.2.6,1.8.3,3.6.2,1.2.4-1.1.9-1.1,1.4,1.6-.2.9.1.6.4,1.9,0,.3-.8,1.8-.9,1.3,0-.4.3.2.5.8-.1,2.1.1,1,.2,2.3.3.5-.7,1.9-.7,0-.2-2.1-.6-1.8-.2-1.1,0-.9-.4-1.5-.5,1.3-.3,4.4-.7,5.6-.1.3.3-.8.4-2,.4.3.3,1.7.3,1.6.7,2.1-.1,2.2-.7,4-.9,0-.4-.4-.6-1.1-.8.2,0,.4,0,.6,0,1.7.5,4.5.8,6.5,1.3-.7.2-1.5.4-2.2.5-1.4,0-1.4-.5-3.3-.5.1.7-2.2.7-3.1.9-.8-.2-1.3-.4-2.8-.4.3.2,1.1.2,1.1.5-.4.2-1.4.2-1.6.4-.5-.5-3.6-.2-5.8-.2-.8.6,2.1,1,3.4.9.5.3-.5.3-.2.5,1.9-.1,3.7-.3,4.5-.7,1.1,0,1.2.2,1.9.3,3.7-.6,9.5-.4,12.3.2-.6-.5,1.5-.5,2.3-.7.7.3-1.4.1-.7.4,1.3.2,2.3-.1,3.9-.1,7.3,0,16.4.4,24-.2,1.6,0,2.6.2,3.6.3,1.8,0,1.6-.3,3.4-.3-.2.4-1.6.6-2.7.9-1.4,0-1.7-.4-3.2-.3.7.4-1.1.3-1.5.5.7.3,2.4.3,3.6.1-.2.4-1.4.5-3.3.5-.9.2,2.4,0,2.7.3-.4.1,0,.4-1.2.4.8.2,3.7-.2,3.6.3.6-.6,5.2-.5,5.6-1.1,1.1,0,1.4.1,1.9.3-.8.2-2.2.2-2.4.5,3.3.3,5.4.3,8.3,0,.2-.3-.6-.4-1.1-.5.8-.3,1.9,0,2.5-.3,0-.1-.1-.3-.2-.4-2.4.1-4.7-.1-3.8-.7-1.3,0-.7.3-.7.4-1,0-1.4-.1-2.6,0,0-.6-1.5-.6,2.2-.9.6,0,.7.3,1.5.4.9-.2-1.4-.4-1.2-.8-2,0-3.2.1-4.7.2-.5,0-.7-.1-.9-.3.1,0,.3,0,.4,0,.4.1.5,0,.7,0,6.8-.2,13.6-.6,19.8-.7,3.1.6,5.9,1.1,9.9,1.2-.5.1-1.4.2-1.3.4,1.1,0,.9-.2,2.1-.2.8.4-.9.5.8.8.9,0-.1-.5,1.1-.5-.2-.1-.9,0-1-.2.4-.2,1-.3,1.8-.4,1.2,0,2.5,0,3.9-.1.4,0,.7-.2,1-.3,1.1,0,2.1,0,3.1,0-1.2.4.2.4,1.6.6,0,.5-2.4.2-2.5.2-1.2,0-1.8.5-3.3.4-.2.4,1.9,0,2.3.3.5.5-.2.7,0,1.2,1.6,0,1.4-.5,2.3-.7,3.5,0,3.8-.5,5.3-.8-1.6-.5.2-.5-2.2-1,1.6-.1,2.9.2,3.9-.1,0-.3-1.1-.3-2.3-.3.2-.2.6-.3,1.2-.4-1-.2-2.9,0-3.3-.4,1.1,0,2.2,0,3.3,0,1.1.3,2.3.6,2.4.9.7,0,1.4,0,2.2,0-.2-.2.3-.2.8-.2-.5-.3-.8-.6-2.4-.5,0,0,0-.1.2-.1,3.3,0,6.6,0,9.8.1.4.2-1.5.3-1.6.3,0,0,1.6.2.7.5,1.6.1,3,.3,3.4.8-1.6.3-2.8,0-5.1.2,1.3-.1,2.8-1.2-.5-1.1-.2.4,1.2.2,1.5.4,0,0-.4.1-.3.2-1.8.2-1.6-.3-3.2-.2-.1.4.2.4-.2.6-1,0-1.6,0-1.8-.2-1.5.1,1.3.5-.2.6,1.9,0,2.9.3,2.9.7,1.6,0,2.5.4,4.9.2-.2-.1-.9-.2-.9,0-.7,0,.1-.1-.1-.3-1-.1-2.5,0-3.2-.2,1.1-.5,2,.2,4.4,0,.2.2-.3.2-.8.2.2.3,1.5.2,2.7.1.6-.2,0-.1-.2-.4,1.6-.1,1.2.3,2,.5,1.3-.2,4.1,0,4.6-.4,1.6.2-.8.5-2,.5,1.4.7,2.4-.3,4.8,0,1-.2-1.1-.4.2-.5,0-.3-1.9.1-1.4-.3,0-.2,2.3,0,2.5-.3.9,0,.2.5,1.9.3-.3.2-.6.4-2,.4.2.3,1.2.4,2.8.4-.7-.4.5-.5,2-.5.3-.3-1-.2-1.8-.2,0-.3,1.6-.2,1.5-.5,1.3,0,.8.5,2,.6,1.7,0,.1,0,.3-.3,1.8.2,3.5,0,4.2-.3.8,0,1,.1,1.8,0-.2.3-1.1.2-2.1.2-.6,0,.1.4-.7.4.5.3,1.9.3,3.1.1,0,0,0,.1,0,.2-.4.3-2.7.1-3.8.2,2.5.6,6.6-.6,9.6,0-.3-.2.2-.3.2-.4,7.4.3,17.2-.2,26.2-.2,1,0,3,0,5.3,0,3.9,0,8,.1,11.5-.1,3.4.2,6.4.5,8.6,1.1,4.3.2,9.4.2,10.7-.5,4.1.5,8.1,0,12,0,1.1,0,3.1.2,4.7.3,6.6.1,11.1.5,16.7.1,1.7,0,2.1.2,3.3.3,2,0,5.8.2,6.7-.1,3.5.5,7.3.3,12,.3,3.6,0,7.9.2,12.7.1,2.7,0,4.8-.2,8.7-.3,4.3,0,8.2-.4,12-.5,5.5-.1,10.1,0,13.4-.8,1.2.1,3.3,0,4,.3,4.8-1.1,11.7,0,18.7-.3,1.5,0,1,.3,2,.3,2.2,0,1.1-.3.7-.4,2.5,0,3.5.3,5.4.4,1.9,0,1.6-.3,2-.3.9,0,1.6.2,2.7.1,2.9,0,4.9-.5,8.7-.5.8.3,1.4.6,2,1,8.4,1.3,23.7-.2,32.1.3,2.7-.6,9.1-.5,14.1-.7-.4-.5-4.6.1-6.7-.3,1.5-.7,12.6.1,12-1.1,2.5-.2.1.6,2.7.4v-1c1.3-.4,4.2,0,6.7-.3.1,0,.6-.3.7-.3,7-.2,14.8.2,22.1,0,2.7,0,4.8-.1,8-.1,1.6,0,5.5-.3,8-.3,1.4,0,1.3.2,2,.3,2,.1,5.6,0,8,0,3,0,6.1.3,8.7.3-.8.4-4.5,0-7.4.3-2.1.3-3.2.8-6,1,.9.8,6.5.6,8.7,1.1-1.8.5-5.4,0-9.4.3,2.7.7,16.1.3,20.1.4,2-.6-6.6-.5-8-.4,1.7-.7,8.1-.4,12-.1,1.8-.8,4.9.2,6.7-.5-.7-.4-2.8,0-4,0,1.8-.7,6.6-.2,6.7.5-.9.4-3.6.4-3.3,1.1,6.5.2,15,.1,21.4,0,1.8-.4-.9-.5-1.3-.8,3,0,5,0,4.7.7,5.8-.5,9.3.1,13.4,0,1.4,0,1.8.3,2.7.4,3.3,0,4.2-.5,7.4-.3-.7-.1-1.3-.3-2-.4,4.7-.6,7.8,0,12.7,0,.7,0-.1.5,2,.5,1.9,0,3.7,0,3.3-.4,1.1,0,2.2.2,3.3.1,1.7,0,.6-.3,2-.4,1.8-.1,5.2.3,5.4-.3,23,1.5,46.6.6,76.3,1,2,0,2.3-.4,4-.4,11.3,0,23.1,0,34.1-.4,3.7-.1,8.1-.1,14.1-.3,3.8,0,7.1-.5,11.4.1,5-.1,10.2,0,13.4-.4,2.2,0,3.5.2,4.7.4.9-.2,2.5-.6,4-.3,2,.2-1.4.7.7,1,3.4.2,3.3-.2,7.4.1-2.6.4-2.6.6-4.7.4-1.4.1-2,.4-2,.8-2.2,0-2.8.2-5.4.1,2,.5,5.6.6,5.4,1.5,6.2,0,12.8-.7,16.7.1,2.4,0,5.1-.1,7.5-.2v.5c1,0,2.1,0,3,0,4-.8,10.6,0,16.7-.1-.2-.9,3.4-1,5.4-1.5-2.5.1-3.2-.2-5.4-.1,0-.4-.6-.7-2-.8-2.1.2-2.1,0-4.7-.4,4-.3,4,0,7.4-.1,2.1-.2-1.3-.8.7-1,1.5-.3,3.1,0,4,.3,1.1-.2,2.4-.4,4.7-.4,3.2.4,8.4.3,13.4.4,4.2-.6,7.6-.2,11.4-.1,6,.1,10.3.2,14.1.3,11,.3,22.8.5,34.2.4,1.7,0,2,.4,4,.4,29.7-.4,53.4.5,76.4-1,.1.6,3.6.1,5.4.3,1.4.1.3.4,2,.4,1.2,0,2.2-.1,3.4-.1-.3.4,1.4.4,3.3.4,2.1,0,1.3-.5,2-.5,4.9,0,8-.6,12.7,0-.7.1-1.4.3-2,.4,3.2-.2,4.1.2,7.4.3.9-.1,1.3-.4,2.7-.4,4.1.1,7.6-.5,13.4,0-.3-.6,1.7-.7,4.7-.7-.5.3-3.1.5-1.3.8,6.4.1,14.9.2,21.4,0,.3-.7-2.4-.7-3.3-1.1.1-.7,4.9-1.3,6.7-.5-1.2,0-3.3-.4-4,0,1.8.8,4.9-.3,6.7.5,3.9-.3,10.4-.5,12.1.1-1.4,0-10-.2-8,.4,4,0,17.4.3,20.1-.4-4-.2-7.6.3-9.4-.3,2.2-.5,7.8-.3,8.7-1.1-2.8-.2-3.9-.7-6-1-2.9-.2-6.5.1-7.4-.3,2.6,0,5.7-.2,8.7-.3,2.4,0,6.1.1,8,0,.7,0,.6-.3,2-.3,2.5,0,6.4.3,8,.3,3.2,0,5.3,0,8,.1,7.2.2,15.1-.2,22.1,0,0,0,.5.3.7.3,2.5.3,5.4,0,6.7.3v1c2.5.2.1-.6,2.7-.4-.5,1.2,10.6.4,12.1,1.1-2.1.4-6.3-.2-6.7.3,5,.2,11.4,0,14.1.7,8.4-.5,23.8,1,32.2-.3.6-.3,1.2-.7,2-1,3.8,0,5.8.5,8.7.5,1,0,1.8-.2,2.7-.1.4,0,.2.3,2,.3,1.9,0,2.8-.3,5.4-.4-.4.1-1.6.5.7.4,1.1,0,.5-.3,2-.3,7.1.3,13.9-.8,18.8.3.7-.2,2.8-.1,4-.3,3.3.8,7.9.7,13.4.8,3.9,0,7.7.5,12.1.5,3.9,0,6,.2,8.7.3,4.8.1,9.2-.1,12.7-.1,4.7,0,8.6.2,12.1-.3.9.3,4.7,0,6.7.1,1.3,0,1.7-.3,3.3-.3,5.6.3,10.2,0,16.7-.1,1.6,0,3.6-.3,4.7-.3,3.9,0,8,.5,12.1,0,1.3.8,6.4.8,10.7.5,2.2-.5,5.2-.9,8.6-1.1,3.5.3,7.6.1,11.5.1,2.3,0,4.3,0,5.3,0,9,0,18.8.5,26.2.2,0,.1.5.2.3.4,3-.6,7.1.6,9.6,0-1.1,0-3.5,0-3.9-.2v-.2c1.3.2,2.7.2,3.2-.1-.8,0-.1-.4-.7-.4-1,0-2,.2-2.1-.2.8,0,1,0,1.8,0,.8.3,2.5.5,4.2.3.2.2-1.4.3.3.3,1.2,0,.7-.6,2-.6,0,.3,1.6.2,1.6.5-.8,0-2.1-.2-1.8.2,1.5,0,2.7,0,2,.5,1.6,0,2.6,0,2.8-.4-1.4,0-1.7-.2-2-.4,1.6.2,1-.3,1.9-.3.2.2,2.4,0,2.5.3.5.4-1.5,0-1.4.3,1.3.2-.8.4.2.5,2.4-.3,3.4.7,4.8,0-1.2,0-3.6-.3-2-.5.5.5,3.3.2,4.6.4.7-.1.4-.6,2-.5,0,.3-.8.2-.2.4,1.2,0,2.5.1,2.7-.1-.5,0-1,0-.8-.2,2.3.2,3.3-.5,4.4,0-.7.2-2.2.1-3.2.2-.3.2.5.3-.1.3,0-.2-.7,0-.9,0,2.4.2,3.3-.1,4.9-.2,0-.4,1-.6,2.9-.7-1.5-.1,1.3-.5-.2-.6-.2.2-.8.2-1.8.2-.3-.3,0-.2-.2-.6-1.6,0-1.3.4-3.2.2,0-.1-.3-.1-.3-.2.3-.2,1.7,0,1.5-.4-3.2-.1-1.8,1-.5,1.1-2.4-.2-3.5,0-5.1-.2.4-.5,1.8-.7,3.4-.8-1-.3.7-.4.7-.5,0,0-2-.1-1.6-.3,3.3,0,6.5-.1,9.8-.1.1,0,.2,0,.2.1-1.6,0-1.9.2-2.4.5.5,0,1,0,.8.2.7,0,1.4,0,2.2,0,0-.3,1.3-.6,2.4-.9,1.1,0,2.2,0,3.3,0-.4.4-2.3.3-3.3.4.6,0,1,.2,1.2.4-1.2,0-2.4,0-2.3.3,1,.3,2.3,0,3.9.1-2.4.5-.6.5-2.2,1,1.5.3,1.9.9,5.4.8.9.2.7.6,2.3.7.2-.4-.5-.7,0-1.2.4-.2,2.6.1,2.3-.3-1.5,0-2.1-.3-3.3-.4-.2,0-2.6.3-2.5-.2,1.4-.2,2.8-.2,1.6-.6.9,0,2,0,3.1,0,.3.1.6.2,1,.3,1.4,0,2.7.1,3.9.1.8.1,1.4.3,1.8.4,0,.1-.8,0-1,.2,1.2,0,.2.4,1.1.5,1.7-.4,0-.5.8-.8,1.3,0,1.1.2,2.1.2.1-.2-.8-.3-1.3-.4,4.1-.1,6.9-.6,9.9-1.2,6.2,0,13.1.4,19.9.7.2,0,.3.2.7,0,.1,0,.3,0,.4,0-.2.1-.5.2-.9.3-1.5,0-2.7-.2-4.7-.2.2.4-2.2.6-1.2.8.8,0,.9-.3,1.5-.4,3.7.3,2.3.4,2.2.9-1.3-.1-1.6,0-2.6,0,0-.2.7-.5-.7-.4.9.5-1.4.8-3.8.7,0,.1-.1.3-.2.4.6.4,1.7,0,2.5.3-.5.1-1.3.2-1.1.5,2.9.3,5,.3,8.3,0-.2-.3-1.6-.3-2.4-.5.4-.1.8-.3,1.9-.3.5.7,5,.5,5.6,1.1,0-.5,2.9,0,3.7-.3-1.2,0-.7-.2-1.2-.4.4-.2,3.6,0,2.7-.3-1.9,0-3.1-.2-3.3-.5,1.2.2,2.8.2,3.6-.1-.5-.2-2.3,0-1.6-.5-1.5,0-1.8.3-3.2.3-1-.3-2.4-.5-2.7-.9,1.8,0,1.6.3,3.4.3,1.1-.2,2-.3,3.6-.3,7.6.6,16.7.3,24,.2,1.6,0,2.6.3,3.9.1.7-.3-1.4-.1-.7-.4.8.2,2.9.2,2.3.7,2.8-.6,8.6-.9,12.4-.2.7,0,.8-.3,1.9-.3.8.4,2.6.5,4.5.7.3-.3-.7-.3-.2-.5,1.3.1,4.3-.3,3.5-.9-2.1,0-5.3-.3-5.8.2-.2-.2-1.2-.2-1.6-.4,0-.3.8-.3,1.1-.5-1.5,0-2,.2-2.8.4-.9-.2-3.2-.3-3.1-.9-1.9,0-1.9.4-3.3.5-.7-.1-1.4-.3-2.2-.5,2-.5,4.8-.8,6.5-1.3.2,0,.4,0,.6,0-.7.2-1.1.4-1.1.8,1.8.2,1.9.7,4,.9,0-.4,1.3-.4,1.6-.7-1.2,0-2.4,0-2-.4,1.2-.5,4.3-.1,5.6.1-.7.1-.4.5-1.5.5.3-.5-1.7,0-1.8.2,1.4,0-.4,1,1.9.7-1.2,0,.1-.3,1-.2.7-.2-1.1-.5.2-.5,1.5.1,0,.9,1.8.9-.3-.3-1-.7.6-.4,0-.5-2.4-1-1.1-1.4,1.8,0,3.4.4,3.6-.2-.8-.2-1.6,0-2.1-.3,0,0-.2,0-.4.1-.1,0-.7-.1-1.6,0,0,0,0,0,.1,0-.3,0-.6,0-.9,0-.4-.1,0-.4-1.2-.4-.7.3-.8,0-1.9.4-.2,0-.4,0-.6,0,.5,0,.9,0,1.1-.1-1.9-.3-3.8.2-5.4-.3.5-.2,1-.4,1.6-.5.4,0,.6.1,1.4.1,0-.2.2-.3.7-.4,1.7-.1,3.9,0,7,0,.1,0,.2,0,.4-.1.3,0,.7.1.8.2.9-.2.4-.3-.2-.3,1-.1,2.3,0,3.6-.2,1,0,1.2-.3,2-.4.8,0,1.9,0,2.7,0,.1,0,.3,0,.4,0,1.8.2,3.7,0,5.9,0,0,.2,1.2.2.6.6-.2,0-.5,0,0,.1.7-.1.8-.4,1.5-.5,1.6.2,1.3,1,4.1.6.9.5,2.8.9,5.2,1.1.3-.3-1.6-.3-1.5-.6,1.5.2.4-.4,1.4-.3.3.4,2.2.5,3.7.6,1.4-.5-.9-.8.9-1,0,.1.7.1.8.2-.6.1-.7.4-.2.5.4,0,.9,0,1.3,0-.4-.4.9-.4,2.2-.5v.3c.5,0,1,.1,1.6.1.7-.2,1.8-.3,3-.3,1.1,0,2.3.1,3,.3.6,0,1.1,0,1.6-.1v-.3c1.3,0,2.5,0,2.2.5.4,0,.9,0,1.3,0,.5-.2.4-.4-.2-.5,0-.1.8,0,.8-.2,1.8.2-.6.5.9,1,1.5-.2,3.3-.2,3.7-.6,1,0,0,.5,1.4.3,0,.3-1.8.2-1.5.6,2.4-.2,4.3-.6,5.2-1.1,2.8.3,2.5-.4,4.1-.6.7.1.8.4,1.5.5.5,0,.2-.1,0-.1-.5-.3.5-.3.6-.6,2.2,0,4.1.2,5.9,0,.1,0,.3,0,.4,0,.8,0,1.9,0,2.7,0,.8,0,1,.3,2,.4,1.3.1,2.7,0,3.6.2-.6,0-1.1.2-.2.3.1-.1.6-.2.8-.2.1,0,.3,0,.4.1,3.1,0,5.3,0,7,0,.4,0,.7.2.7.4.8,0,1.1,0,1.4-.1.6.1,1.1.3,1.6.5-1.5.4-3.5,0-5.4.3.2,0,.6.1,1.1.1-.2,0-.4,0-.6,0-1.1-.3-1.2-.1-1.9-.4-1.2,0-.7.2-1.2.4-.3,0-.6,0-.9,0,0,0,0,0,.1,0-.9-.2-1.4-.2-1.6,0-.2,0-.3,0-.4-.1-.5.3-1.3,0-2.1.3.2.6,1.8.3,3.6.2,1.2.4-1.1.9-1.1,1.4,1.6-.2.9.1.6.4,1.9,0,.3-.8,1.8-.9,1.3,0-.4.3.2.5.8-.1,2.1.1,1,.2,2.3.3.5-.7,1.9-.7,0-.2-2.1-.6-1.8-.2-1.1,0-.9-.4-1.5-.5,1.3-.3,4.4-.7,5.6-.1.3.3-.8.4-2,.4.3.3,1.7.3,1.6.7,2.1-.1,2.2-.7,4-.9,0-.4-.4-.6-1.1-.8.2,0,.4,0,.6,0,1.7.5,4.5.8,6.5,1.3-.7.2-1.5.4-2.2.5-1.4,0-1.4-.5-3.3-.5.1.7-2.2.7-3.1.9-.8-.2-1.3-.4-2.8-.4.3.2,1.1.2,1.1.5-.4.2-1.4.2-1.6.4-.5-.5-3.6-.2-5.8-.2-.8.6,2.1,1,3.4.9.5.3-.5.3-.2.5,1.9-.1,3.7-.3,4.5-.7,1.1,0,1.2.2,1.9.3,3.7-.6,9.5-.4,12.3.2-.6-.5,1.5-.5,2.3-.7.7.3-1.4.1-.7.4,1.3.2,2.3-.1,3.9-.1,7.3,0,16.4.4,24-.2,1.6,0,2.6.2,3.6.3,1.8,0,1.6-.3,3.4-.3-.2.4-1.6.6-2.7.9-1.4,0-1.7-.4-3.2-.3.7.4-1.1.3-1.5.5.7.3,2.4.3,3.6.1-.2.4-1.4.5-3.3.5-.9.2,2.4,0,2.7.3-.4.1,0,.4-1.2.4.8.2,3.7-.2,3.6.3.6-.6,5.2-.5,5.6-1.1,1.1,0,1.4.1,1.9.3-.8.2-2.2.2-2.4.5,3.3.3,5.4.3,8.3,0,.2-.3-.6-.4-1.1-.5.8-.3,1.9,0,2.5-.3,0-.1-.1-.3-.2-.4-2.4.1-4.7-.1-3.8-.7-1.3,0-.7.3-.7.4-1,0-1.4-.1-2.6,0,0-.6-1.5-.6,2.2-.9.6,0,.7.3,1.5.4.9-.2-1.4-.4-1.2-.8-2,0-3.2.1-4.7.2-.5,0-.7-.1-.9-.3.1,0,.3,0,.4,0,.4.1.5,0,.7,0,6.8-.2,13.6-.6,19.8-.7,3.1.6,5.9,1.1,9.9,1.2-.5.1-1.4.2-1.3.4,1.1,0,.9-.2,2.1-.2.8.4-.9.5.8.8.9,0-.1-.5,1.1-.5-.2-.1-.9,0-1-.2.4-.2,1-.3,1.8-.4,1.2,0,2.5,0,3.9-.1.4,0,.7-.2,1-.3,1.1,0,2.1,0,3.1,0-1.2.4.2.4,1.6.6,0,.5-2.4.2-2.5.2-1.2,0-1.8.5-3.3.4-.2.4,1.9,0,2.3.3.5.5-.2.7,0,1.2,1.6,0,1.4-.5,2.3-.7,3.5,0,3.8-.5,5.3-.8-1.6-.5.2-.5-2.2-1,1.6-.1,2.9.2,3.9-.1,0-.3-1.1-.3-2.3-.3.2-.2.6-.3,1.2-.4-1-.2-2.9,0-3.3-.4,1.1,0,2.2,0,3.3,0,1.1.3,2.3.6,2.4.9.7,0,1.4,0,2.2,0-.2-.2.3-.2.8-.2-.5-.3-.8-.6-2.4-.5,0,0,0-.1.2-.1,3.3,0,6.6,0,9.8.1.4.2-1.5.3-1.6.3,0,0,1.6.2.7.5,1.6.1,3,.3,3.4.8-1.6.3-2.8,0-5.1.2,1.3-.1,2.8-1.2-.5-1.1-.2.4,1.2.2,1.5.4,0,0-.4.1-.3.2-1.8.2-1.6-.3-3.2-.2-.1.4.2.4-.2.6-1,0-1.6,0-1.8-.2-1.5.1,1.3.5-.2.6,1.9,0,2.9.3,2.9.7,1.6,0,2.5.4,4.9.2-.2-.1-.9-.2-.9,0-.7,0,.1-.1-.1-.3-1-.1-2.5,0-3.2-.2,1.1-.5,2,.2,4.4,0,.2.2-.3.2-.8.2.2.3,1.5.2,2.7.1.6-.2,0-.1-.2-.4,1.6-.1,1.2.3,2,.5,1.3-.2,4.1,0,4.6-.4,1.6.2-.8.5-2,.5,1.4.7,2.4-.3,4.8,0,1-.2-1.1-.4.2-.5,0-.3-1.9.1-1.4-.3,0-.2,2.3,0,2.5-.3.9,0,.2.5,1.9.3-.3.2-.6.4-2,.4.2.3,1.2.4,2.8.4-.7-.4.5-.5,2-.5.3-.3-1-.2-1.8-.2,0-.3,1.6-.2,1.5-.5,1.3,0,.8.5,2,.6,1.7,0,.1,0,.3-.3,1.8.2,3.5,0,4.2-.3.8,0,1,.1,1.8,0-.2.3-1.1.2-2.1.2-.6,0,.1.4-.7.4.5.3,1.9.3,3.1.1,0,0,0,.1,0,.2-.4.3-2.7.1-3.8.2,2.5.6,6.6-.6,9.6,0-.3-.2.2-.3.2-.4,7.4.3,17.2-.2,26.2-.2,1,0,3,0,5.3,0,3.9,0,8,.1,11.5-.1,3.4.2,6.4.5,8.6,1.1,4.3.2,9.4.2,10.7-.5,4.1.5,8.1,0,12,0,1.1,0,3.1.2,4.7.3,6.6.1,11.1.5,16.7.1,1.7,0,2.1.2,3.3.3,2,0,5.8.2,6.7-.1,3.5.5,7.3.3,12,.3,3.6,0,7.9.2,12.7.1,2.7,0,4.8-.2,8.7-.3,4.3,0,8.2-.4,12-.5,5.5-.1,10.1,0,13.4-.8,1.2.1,3.3,0,4,.3,4.8-1.1,11.7,0,18.7-.3,1.5,0,1,.3,2,.3,2.2,0,1.1-.3.7-.4,2.5,0,3.5.3,5.4.4,1.9,0,1.6-.3,2-.3.9,0,1.6.2,2.7.1,2.9,0,4.9-.5,8.7-.5.8.3,1.4.6,2,1,8.4,1.3,23.7-.2,32.1.3,2.7-.6,9.1-.5,14.1-.7-.4-.5-4.6.1-6.7-.3,1.5-.7,12.6.1,12-1.1,2.5-.2.1.6,2.7.4v-1c1.3-.4,4.2,0,6.7-.3.1,0,.6-.3.7-.3,7-.2,14.8.2,22.1,0,2.7,0,4.8-.1,8-.1,1.6,0,5.5-.3,8-.3,1.4,0,1.3.2,2,.3,2,.1,5.6,0,8,0,3,0,6.1.3,8.7.3-.8.4-4.5,0-7.4.3-2.1.3-3.2.8-6,1,.9.8,6.5.6,8.7,1.1-1.8.5-5.4,0-9.4.3,2.7.7,16.1.3,20.1.4,2-.6-6.6-.5-8-.4,1.7-.7,8.1-.4,12-.1,1.8-.8,4.9.2,6.7-.5-.7-.4-2.8,0-4,0,1.8-.7,6.6-.2,6.7.5-.9.4-3.6.4-3.3,1.1,6.5.2,15,.1,21.4,0,1.8-.4-.9-.5-1.3-.8,3,0,5,0,4.7.7,5.8-.5,9.3.1,13.4,0,1.4,0,1.8.3,2.7.4,3.3,0,4.2-.5,7.4-.3-.7-.1-1.3-.3-2-.4,4.7-.6,7.8,0,12.7,0,.7,0-.1.5,2,.5,1.9,0,3.7,0,3.3-.4,1.1,0,2.2.2,3.3.1,1.7,0,.6-.3,2-.4,1.8-.1,5.2.3,5.4-.3,23,1.5,46.6.6,76.3,1,2,0,2.3-.4,4-.4,11.3,0,23.1,0,34.1-.4,3.7-.1,8.1-.1,14.1-.3,3.8,0,7.1-.5,11.4.1,5-.1,10.2,0,13.4-.4,2.2,0,3.5.2,4.7.4.9-.2,2.5-.6,4-.3,2,.2-1.4.7.7,1,3.4.2,3.3-.2,7.4.1-2.6.4-2.6.6-4.7.4-1.4.1-2,.4-2,.8-2.2,0-2.8.2-5.4.1,2,.5,5.6.6,5.4,1.5,6.2,0,12.8-.7,16.7.1,2.6,0,5.5-.2,8.2-.3v-15.3h.7V16h-.7ZM633.3,6.4c1.3.3,1.2,0,3.3,0,1,.4-4.4.4-3.3,0ZM961.9,6.4c2.1,0,2.1.3,3.3,0,1,.4-4.4.4-3.3,0ZM2236.4,6.3c1.3.3,1.2,0,3.3,0,1,.4-4.4.4-3.3,0ZM2565,6.3c2.1,0,2.1.3,3.3,0,1,.4-4.4.4-3.3,0ZM3205.6,6.1c-.7-.1-1.3-.3-1.5-.4.4,0,1-.1,1.5-.1v.6Z"/>
</svg>