<?xml version="1.0" encoding="UTF-8"?>
<svg id="Layer_1" xmlns="http://www.w3.org/2000/svg" version="1.1" viewBox="0 0 84 74">
  <!-- Generator: Adobe Illustrator 29.0.1, SVG Export Plug-In . SVG Version: 2.1.0 Build 192)  -->
  <defs>
    <style>
      .st0 {
        fill: #eedae3;
      }
    </style>
  </defs>
  <path class="st0" d="M82.8.4h-.9C56.3,1.9,30.5-.4,4.8.9c-1,0-2.2,0-3.2.1-.5,0-.9.3-1.1.8v.5c11.8,19.7,21.8,37.2,30.7,53,3.4,6,6.7,12,10.1,18,.1.2.3.2.4.3h.5c.2,0,.4-.2.5-.4,11.1-19.1,23.8-40.9,37.7-66,.9-1.7,1.9-3.4,2.8-5,0-.2.2-.3.2-.5v-.5c0-.3-.3-.6-.7-.7Z"/>
</svg>