<?xml version="1.0" encoding="UTF-8"?>
<svg id="Layer_1" xmlns="http://www.w3.org/2000/svg" xmlns:xlink="http://www.w3.org/1999/xlink" version="1.1" viewBox="0 0 600 5.4">
  <!-- Generator: Adobe Illustrator 29.0.1, SVG Export Plug-In . SVG Version: 2.1.0 Build 192)  -->
  <defs>
    <style>
      .st0 {
        fill: none;
      }

      .st1 {
        fill: #414120;
      }

      .st2 {
        clip-path: url(#clippath);
      }
    </style>
    <clipPath id="clippath">
      <rect class="st0" x="-.1" y=".6" width="599.6" height="4.2"/>
    </clipPath>
  </defs>
  <g class="st2">
    <g id="Group_277">
      <path id="Path_2343" class="st1" d="M369.2,1.8c-.3,0-.7,0-1,0,.3,0,.9,0,1,0"/>
      <path id="Path_2344" class="st1" d="M360,1.7c-.7,0-.7,0-1.1,0-.2,0,.3,0,.4,0,0,0,.7,0,.7,0"/>
      <path id="Path_2345" class="st1" d="M340.2,1.6c-.3,0-.7,0-1,0,.3,0,.7,0,1,0"/>
      <path id="Path_2346" class="st1" d="M357.2,1.8c-.2,0-.2,0-.5,0-.3,0,.5,0,.5,0"/>
      <path id="Path_2347" class="st1" d="M336.1,1.6c-.6,0-.8,0-1.1,0,0,0-.2,0,.2,0,.3,0,.6,0,.9,0"/>
      <path id="Path_2348" class="st1" d="M355.6,1.8c-.2,0-.4,0-.7,0,.2,0,.4,0,.7,0"/>
      <path id="Path_2349" class="st1" d="M334.5,1.6c-.2,0-.3,0-.6,0,0,0-.1,0,.2,0,0,0,.4,0,.4,0"/>
      <path id="Path_2350" class="st1" d="M349.7,1.7c-.4,0-.8,0-1.2,0,.4,0,.8,0,1.2,0"/>
      <path id="Path_2351" class="st1" d="M346.9,1.8s.1,0,0,0c-.2,0-.4,0-.7,0,0,0,.1,0,0,0,.3,0,.4,0,.7,0"/>
      <path id="Path_2352" class="st1" d="M347.6,1.7h0s.5,0,.5,0c0,0-.1,0-.5,0"/>
      <path id="Path_2353" class="st1" d="M329.1,1.7c-.3,0-.6,0-.9,0,1.1,0,.1,0,.7,0,1.3,0,3.8,0,5.1,0,0,0,0,0-.4,0-.3,0-.3,0-.6,0-.6,0-1.9,0-2.7,0-.4,0-.8.1-1.2,0,0,0,0,0,0,0M331.7,1.7c0,0-.1,0-.2,0h-1c.4,0,.8,0,1.2,0"/>
      <path id="Path_2354" class="st1" d="M343.5,1.9c.3,0,.7,0,.3,0,.6,0,.5,0,.4,0,.4,0,1.4,0,1.8,0-.8,0-1.7,0-2.5,0"/>
      <path id="Path_2355" class="st1" d="M342.6,2c0,0,.4,0,0,0-.2,0-.4,0,0,0"/>
      <path id="Path_2356" class="st1" d="M343.6,2c-.5,0-.6,0-.6,0,.6,0,1.3,0,1.9-.2-.5,0-1.6,0-2,0,.7,0,.6,0,.7,0"/>
      <path id="Path_2357" class="st1" d="M348.3,1.9c-.2,0,1.2.1.8,0-.4,0-.3,0-.8,0"/>
      <path id="Path_2358" class="st1" d="M333.5,1.8c-.4,0-.5,0-1,0-.3.1-.9,0-.4,0-.3,0-.5,0-1,0,.1,0-.3,0-.4,0,.3,0,2.1,0,2.5,0-.2,0-.4,0-.6,0,.3,0,.6,0,.9,0"/>
      <path id="Path_2359" class="st1" d="M344.8,2c.3,0,.5,0,.8,0-.2,0-.6,0-.5,0,.5,0,.4,0,1,0,.2,0-.8-.2-1.2-.1"/>
      <path id="Path_2360" class="st1" d="M334.9,2h0s.5,0,.5,0c0,0-.1,0-.5,0"/>
      <path id="Path_2361" class="st1" d="M328.3,1.9c-.5,0-.6,0,0,0"/>
      <path id="Path_2362" class="st1" d="M302,1.7c.9,0,2.5,0,2.6,0-1.1,0-1.9,0-2.6,0"/>
      <path id="Path_2363" class="st1" d="M345.5,2.1c.2,0,.5,0,.7,0,0,0-.2,0-.7,0"/>
      <path id="Path_2364" class="st1" d="M304.8,1.8h.3s.2,0,.2,0h-.5s0,0,0,0"/>
      <path id="Path_2365" class="st1" d="M303.1,1.8c-.2,0-.3,0-.6,0-.1,0,.4,0,.6,0"/>
      <path id="Path_2366" class="st1" d="M303.8,1.9c-.6,0,0,0-.4,0,0,0,0,0-.3.1.2,0,.5,0,.7,0"/>
      <path id="Path_2367" class="st1" d="M303.9,1.9c0,0,.2,0,.6,0,0,0,.1,0,.2,0-.5,0-.3,0-.8,0"/>
      <path id="Path_2368" class="st1" d="M305.1,2c.2,0,.5,0,.7,0-.2,0-.5,0-.7,0"/>
      <path id="Path_2369" class="st1" d="M306.6,2c.2,0,.4,0,.6,0-.2,0-.4,0-.6,0"/>
      <path id="Path_2370" class="st1" d="M301.6,2h0c.4,0,.6,0,0,0"/>
      <path id="Path_2371" class="st1" d="M308.5,2.1c-.2,0-.8,0-1.1,0,0,0-.5,0-.5.1.5,0,1,0,1.5,0"/>
      <path id="Path_2372" class="st1" d="M303.3,2c-.5,0-.7,0-.2,0,0,0,.3,0,.2,0"/>
      <path id="Path_2373" class="st1" d="M310.7,2.1c-.3,0-.6,0-.5,0,.2,0,.3,0,.5,0"/>
      <path id="Path_2374" class="st1" d="M313,2.2c-.5,0-.6,0-1,0,0,0,.2,0,0,0,.3,0,.7,0,1,0"/>
      <path id="Path_2375" class="st1" d="M301.5,2.1c-.2,0-.4,0-.7,0,0,0-.1,0-.3,0-.2,0-.4,0-.3,0-.2,0-.4,0-.7,0-.2,0-.3,0-.3,0,.5,0,.7,0,1,0,0,0,0,0,0,0h.6s0,0,0,0c.3,0,.5,0,1,0,0,0,0,0-.3,0"/>
      <path id="Path_2376" class="st1" d="M314.2,2.3c.4,0,.8,0,1.1,0,.6,0-1.2-.1-1.1,0"/>
      <path id="Path_2377" class="st1" d="M311.1,2.2c-.4,0-.8,0-1.2,0,.4,0,.8,0,1.2,0"/>
      <path id="Path_2378" class="st1" d="M302.8,2.2c-.3,0-.5,0-.8,0,.3,0,.6,0,.8,0"/>
      <path id="Path_2379" class="st1" d="M307.2,2.4h.4s-.3,0-.3,0h0"/>
      <path id="Path_2380" class="st1" d="M316.5,2.5c-1,0-.4,0,0,0"/>
      <path id="Path_2381" class="st1" d="M302.5,2.6s.5,0,.4,0c-.4,0-.8,0-.4,0"/>
      <path id="Path_2382" class="st1" d="M311.2,2.7h-.3c0,0-.1,0-.2,0,.3,0,.6,0,.5,0"/>
      <path id="Path_2383" class="st1" d="M311.8,2.7c.2,0,.5,0,.7,0-.2,0-.5,0-.7,0"/>
      <path id="Path_2384" class="st1" d="M598.4,1.3c-1.5.1-4,0-6.3,0-.7.2-1.3.2-2,.2.9,0,1.2,0,2,0,0,0,.2,0,.8.1.6,0,1.2,0,1.8,0-1.5,0-1.5,0-2.8,0-.8,0,.5.1-.2.1-.5,0-1,0-1.5,0-.4,0-.9,0-1.8,0-1.2,0-3.1,0-5,0-1.6,0-2.8,0-4.3,0-2.2,0-3.9,0-5.3,0-4.1,0-8.5,0-12.8,0-.7,0-.8,0-1.5,0-11.1,0-20,0-28.6.1-.7,0-1.3,0-2,0-.5,0-.1,0-.8,0-.4,0-.8,0-1.3,0,.1,0-.5,0-1.3,0-.3,0-.5,0-.8,0-1.8,0-3,0-4.8,0,.3,0,.5,0,.8,0-1.2,0-1.5,0-2.8,0-.3,0-.5,0-1,0-1.5,0-2.9,0-5,0,.1,0-.6.1-1.8,0,.2,0,1.2,0,.5-.1-2.4,0-5.6,0-8,0-.1,0,.9,0,1.3.2-.8.1-1.7.2-2.5,0,.4,0,1.2,0,1.5,0-.7-.1-1.8,0-2.5,0-1.5,0-3.9,0-4.5,0,1,0,2,0,3,0-1.5,0-6.5,0-7.5,0,1.5,0,2.8,0,3.5,0-.8,0-2.9,0-3.3.2,1,0,1.5,0,2.3.1,1.1,0,2.4,0,2.8,0-1,0-2.1,0-3.3,0-.9,0-2.3,0-3,0-.3,0-.2,0-.8,0-.9,0-2.4,0-3,0-1.2,0-2,0-3,0-2.7,0-5.7,0-8.3,0,0,0-.2,0-.2,0-.9,0-2,0-2.5,0h0c-1-.2,0,0-1,0,.2-.2-3.9,0-4.5-.2.8,0,2.4,0,2.5,0-1.9,0-4.3,0-5.3,0-3.2,0-8.9-.1-12,0-.2,0-.5,0-.8.1-1.4,0-2.2,0-3.3,0-.4,0-.7,0-1,0-.2,0-.5,0-.8,0-.7,0-1.1,0-2,0,.2,0,.6,0-.2,0-.4,0-.2,0-.8,0-2.6,0-5.2.1-7,0-.3,0-1.1,0-1.5,0-1.2-.1-2.9,0-5-.1-1.4,0-2.9,0-4.5,0-1.5,0-2.2,0-3.3,0-1.8,0-3.4,0-4.8,0-1.8,0-3.2,0-4.5,0-.3,0-1.7,0-2.5,0-.5,0-.6,0-1.3,0-2.1,0-3.8,0-6.3,0-.6,0-1.3,0-1.8,0-1.5,0-3,0-4.5,0-1.3-.1-2.7-.1-4,0-.8,0-1.9.1-3.2.2-1.3,0-2.8,0-4.3,0-.9,0-1.6,0-2,0-3.4,0-7,0-9.8,0,0,0-.2,0,0,0-1.1,0-2.7,0-3.6,0,.4,0,1.3,0,1.4,0h0c-.4,0-.8,0-1.2,0,.3,0,0,0,.3,0,.3,0,.5,0,.8,0-.3,0-.4,0-.7,0-.5,0-1.1,0-1.6,0,0,0,.5,0-.1,0-.4,0-.3,0-.8,0,0,0-.6,0-.6,0,.3,0,.8,0,.7,0-.6,0-1,0-.7,0-.3,0-.7,0-1,0,.3,0,.5,0,.8,0-.2,0-.5,0-.7,0,0,0-.9,0-.9,0-.2,0,.6,0,.5,0-.5,0,.3,0,0,0-.9,0-1.3-.1-1.8,0,.4,0,1.3,0,.7,0-.2,0-1.2,0-1.7,0-.2,0-.5,0-.7,0,0,0,.3,0,0,0-.3,0-.7,0-1,0,.2,0,.4,0,.3,0-.9,0-1.2,0-1.6,0,.3,0,.8,0,1.2,0,0,0-.2,0,0,0,.1,0,.2,0,.3,0-.9,0-1.2,0-1.8,0,0,0-.4,0-1.1,0,.6,0-.5,0,0,0,.2,0,.5,0,.7,0,.1,0,0,0,0,0,.6,0,.5,0,1.2,0,0,0,.1,0,.1,0,0,0-.6,0-.6,0,1.2,0,.7-.1.2-.1.9,0,1.3,0,1.9,0-.4,0-.8.1-1.3.1.4,0-.3,0-.2,0s.7,0,.6,0c-1.2,0-2.4,0-3.7,0,0,0,0,0,0,0,.3,0,.6,0,.9,0-.2,0-.4,0-.3,0h-.8c-.3,0-.6.1-.9.1h-1.2c.1,0,.8,0,1.2,0-.1,0-.3,0-.4,0,.3,0,.6,0,.9,0-.4,0-.9,0-1.5,0,.9,0,.2,0,.8-.1-.7,0-1.3-.1-2-.1-.3,0-.6,0-.9,0,0,0,.2,0,0,.2-.1,0-1,0-.9,0,.6,0,.8,0,1.2,0,.3,0,.6,0,1,0-.5,0-1.1,0-.6,0-.4,0-.7,0-1.1,0-.1,0-.2,0-.4,0-.5,0-1,0-1.4,0-.3,0-.5,0-.7,0,0,0,.3,0,.4,0-.5,0,0,0-.4,0-.6,0,0,0-.3.1-.5,0-.4,0-.8,0,0,0,.3,0,.5,0-1.5,0-2.6,0-3.7.2-2.3,0-4.9,0-7.4,0,0,0-.2,0-.3,0h-.2c.1,0,.2,0,.3,0,.6,0,1,0,1.8,0,0,0,.8,0,.5-.1-.3,0-.3,0-.6,0-1.4,0-.9,0-.8-.1.5,0,.6,0,1,0,0,0-.2,0,.3,0-.3,0,.5-.1,1.4,0h0c-.2-.1-.6,0-.9,0,.2,0,.5,0,.4,0-1.1,0-1.9,0-3.1,0,.3,0,.6,0,.9,0-.2,0-.5,0-.7,0-.2,0-1.9,0-2.1-.2-.5,0-.9,0-1.4,0,.1,0,.3,0,.4,0-.1,0-1.4,0-1,0,.4,0,.8,0,1.2,0-.4,0-.9,0-1.3,0,.2,0,.9,0,.6,0,.6,0,.7,0,1.2,0,.3,0,.7,0,1,.1-.7,0-.6,0-1.3,0-.4,0-.8,0-1.4,0-2.8,0-6.2,0-9,0-.6,0-1,0-1.5,0-.3,0,.5,0,.3,0-.3,0-1.1,0-.9,0-1.5,0-3.1.1-4.6,0-.3,0-.3,0-.7,0-.3,0-1,0-1.7,0-.1,0,.3,0,0,0-.5,0-1.6,0-1.3.1.7,0,1.4,0,2.2,0,0,0,.5,0,.6,0,0,0-.3,0-.4,0,.3,0,.7,0,1,0,.4,0,1.2,0,1.2.1.7,0,.7,0,1.2,0,.3,0,.5,0,.8,0-.7,0-1.8.1-2.4.2h-.2c.3,0,.4,0,.4-.1-.7,0-.7-.1-1.5-.1,0,0-.5,0-.6,0,.5,0,.9,0,.8,0-.7,0-1.4,0-2.1,0,.2,0,.4,0,.6,0-.1,0,.6,0,.7,0-.5,0,.1-.1-.7,0,.4,0,0,0-.4,0-.3,0,.4,0,0,0-.6,0,0-.1-.7-.1.1,0,.4,0-.2,0,0,0,.9.1.4.2-.4,0-.9,0-1.3,0,.3,0,.5,0,.8,0,0,0,0,0,.1,0,.2,0,.4,0,.6,0h0c.1,0,.2,0,.3,0,.1,0,.3,0,.4,0,.3,0,.3,0,.7,0,0,0,.2,0,.2,0-.2,0-.3,0-.4,0,.7,0,1.4,0,2,0-.2,0-.4,0-.6,0-.1,0-.2,0-.5,0,0,0,0,0-.2,0-.6,0-1.5,0-2.6,0,0,0,0,0-.1,0-.1,0-.3,0-.3,0-.3,0-.2,0,0,0-.4,0-.9,0-1.4,0-.4,0-.4,0-.8,0-.3,0-.7,0-1,0h-.2c-.7,0-1.4,0-2.2,0,0,0-.4,0-.2,0,0,0,.2,0,0,0-.3,0-.3,0-.6,0-.5,0-1-.1-1.5,0-.6,0-1.3-.1-1.9-.2,0,0,.6,0,.6,0-.5,0-.2,0-.5,0-.5,0-.9,0-1.4,0-.5,0,.3.1-.3.1,0,0-.3,0-.3,0,.2,0,.3,0,0,0h-.5c.1,0-.3,0-.8,0h0c-.2,0-.4,0-.6,0-.3,0-.7,0-1.1,0-.4,0-.9,0-1.1,0-.2,0-.4,0-.6,0h0c-.5,0-.9,0-.8,0h-.5c-.2,0-.1,0,0,0,0,0-.3,0-.3,0-.7,0,.2,0-.3-.1-.5,0-.9,0-1.4,0-.4,0,0,0-.5,0,0,0,.7,0,.6,0-.7,0-1.3,0-1.9.2-.5,0-1,0-1.5,0-.3,0-.3,0-.6,0-.2,0,0,0,0,0,.2,0-.2,0-.2,0-.8,0-1.5,0-2.2,0h-.2c-.3,0-.7,0-1,0-.3,0-.4,0-.8,0-.5,0-1,0-1.4,0,.2,0,.4,0,0,0,0,0-.2,0-.3,0,0,0,0,0-.1,0-1.2,0-2,0-2.6,0-.2,0-.3,0-.2,0-.3,0-.4,0-.5,0-.2,0-.4,0-.6,0,.6,0,1.3,0,2,0,0,0-.2,0-.4,0,0,0,.1,0,.2,0,.4,0,.4,0,.7,0,.1,0,.3,0,.4,0,.1,0,.2,0,.3,0h0c.2,0,.4,0,.6,0,0,0,0,0,.1,0,.3,0,.5,0,.8,0-.4,0-.9,0-1.3,0-.5,0,.4-.1.4-.2-.6,0-.4,0-.2,0-.7,0-.1.1-.7.1-.5,0,.2,0,0,0-.3,0-.8,0-.4,0-.8,0-.2,0-.7,0,0,0,.8,0,.7,0,.2,0,.4,0,.6,0-.7,0-1.4,0-2.1,0-.1,0,.3,0,.8,0-.1,0-.6,0-.6,0-.8,0-.8,0-1.5.1,0,0,.1,0,.4.1h-.2c-.7,0-1.7-.1-2.4-.2.3,0,.6,0,.8,0,.5,0,.5,0,1.2,0,0,0,.8,0,1.2-.1.3,0,.7,0,1,0-.1,0-.4,0-.4,0,.1,0,.5,0,.6,0,.7,0,1.4,0,2.2,0,.3,0-.8-.1-1.3-.1-.2,0,.2,0,0,0-.7,0-1.4,0-1.7,0-.4,0-.4,0-.7,0-1.5,0-3.1,0-4.6,0,.2,0-.6,0-.9,0-.3,0,.5,0,.3,0-.5,0-.8,0-1.5,0-2.7,0-6.1,0-9,0-.6,0-1,0-1.4,0-.7,0-.6,0-1.3,0,.3,0,.7-.1,1-.1.5,0,.6,0,1.2,0-.3,0,.4,0,.6,0-.4,0-.9,0-1.3,0,.4,0,.8,0,1.2,0,.3,0-.9,0-1,0,.1,0,.3,0,.4,0-.5,0-.9,0-1.4,0-.2,0-1.9,0-2.1.2-.2,0-.5,0-.7,0,.3,0,.6,0,.9,0-1.2,0-2,0-3.1,0,0,0,.2,0,.4,0-.3,0-.7,0-.9,0h0c.9,0,1.7,0,1.4.2.5,0,.2,0,.3,0,.4,0,.5,0,1,0,0,0,.5,0-.8.1-.2,0-.3,0-.6,0-.3,0,.5,0,.5.1.7,0,1.2,0,1.8,0,.1,0,.2,0,.3,0h-.2c0,0-.2,0-.3,0-2.5,0-5.1,0-7.4,0-1.2,0-2.2-.2-3.7-.2.2,0,.5,0,.5,0-.4,0-.3,0-.8,0-.3,0,.3,0-.3-.1-.3,0,0,0-.4,0,0,0,.3,0,.4,0-.2,0-.4,0-.7,0-.4,0-.9,0-1.4,0-.1,0-.3,0-.4,0-.4,0-.8,0-1.1,0,.5,0,0,0-.6,0,.3,0,.6,0,1,0,.4,0,.7,0,1.2,0,0,0-.7,0-.9,0-.2,0,0-.1,0-.2-.3,0-.6,0-.9,0-.7,0-1.3,0-2,.1.6,0,0,0,.8.1-.6,0-1.1,0-1.5,0,.3,0,.6,0,.9,0-.1,0-.3,0-.4,0,.4,0,1.1,0,1.2,0h-1.2c-.3,0-.6,0-.9-.1h-.8c0,0,0,0-.3,0,.3,0,.6,0,.9,0,0,0,0,0,0,0-1.2,0-2.5,0-3.7,0-.1,0,.6,0,.6,0s-.6,0-.2,0c-.4,0-.9,0-1.3-.1.6,0,1,0,1.9,0-.5,0-1,.2.2.1,0,0-.5,0-.6,0,0,0,.1,0,.1,0,.7,0,.6,0,1.2,0,0,0,0,0,0,0,.2,0,.5,0,.7,0,.6,0-.5,0,0,0-.7,0-1.1,0-1.1,0-.6,0-.9,0-1.8,0,.1,0,.2,0,.3,0,.2,0,0,0,0,0,.4,0,.9,0,1.2,0-.4,0-.8,0-1.6,0,0,0,0,0,.3,0-.3,0-.7,0-1,0-.2,0,0,0,0,0-.2,0-.5,0-.7,0-.5,0-1.5,0-1.7,0-.6,0,.3,0,.7,0-.5,0-.9,0-1.8,0-.4,0,.4,0,0,0,0,0,.7,0,.5,0,0,0-.9,0-.9,0-.2,0-.5,0-.7,0,.2,0,.5,0,.8,0-.3,0-.7,0-1,0,.3,0-.2,0-.7,0-.1,0,.4,0,.7,0,0,0-.6,0-.6,0-.5,0-.3,0-.8,0-.6,0,0,0-.1,0-.5,0-1.1,0-1.6,0-.3,0-.4,0-.7,0,.3,0,.5,0,.8,0,.2,0,0,0,.3,0-.4,0-.8,0-1.2,0h0c.1,0,1,0,1.4,0-.9,0-2.5,0-3.6,0,.1,0,0,0,0,0-2.8,0-6.4,0-9.8,0-.4,0-1.1,0-2,0-1.5,0-3,0-4.3,0-1.3,0-2.4,0-3.2-.2-1.3,0-2.7,0-4,0-1.5,0-3,0-4.5,0-.4,0-1.2,0-1.8,0-2.4,0-4.2,0-6.3,0-.6,0-.8,0-1.3,0-.8,0-2.2,0-2.5,0-1.3,0-2.7,0-4.5,0-1.3,0-3,0-4.8,0-1,0-1.8,0-3.3,0-1.6,0-3.1,0-4.5,0-2.1,0-3.8,0-5,.1-.4,0-1.2,0-1.5,0-1.8.2-4.4,0-7,0-.6,0-.4,0-.8,0-.8,0-.4,0-.2,0-.9,0-1.3,0-2,0-.3,0-.5,0-.8,0-.3,0-.6,0-1,0-1.1,0-1.8,0-3.3,0-.3,0-.5,0-.8-.1-3.1-.2-8.9,0-12,0-1,0-3.4,0-5.3,0,.2,0,1.7,0,2.5,0-.6,0-4.7,0-4.5.2-1,0,0,0-1,0h0c-.5.2-1.6.1-2.5.2,0,0-.2,0-.2,0-2.6,0-5.6,0-8.3,0-1,0-1.8,0-3,0-.6,0-2.1,0-3,0-.5,0-.5,0-.8,0-.7,0-2.1,0-3,0-1.1,0-2.3,0-3.3,0,.3,0,1.7,0,2.8,0,.8,0,1.2-.1,2.3-.1-.4-.1-2.4,0-3.3-.2.7,0,2,0,3.5,0-1,0-6,0-7.5,0,1,0,2,.1,3,0-.6,0-3,0-4.5,0-.7.1-1.8,0-2.5,0,.3,0,1.1,0,1.5,0-.8,0-1.7,0-2.5,0,.3,0,1.4,0,1.3-.2-2.4,0-5.6,0-8,0-.7,0,.3,0,.5.1-1.1,0-1.9,0-1.8,0-2.2,0-3.5,0-5,0-.5,0-.7,0-1,0-1.2,0-1.6,0-2.8,0,.2,0,.5,0,.8,0-1.8,0-2.9,0-4.8,0-.2,0-.5,0-.8,0-.4,0-.8,0-1.3,0-.4,0-.8,0-1.3,0-.6,0-.2,0-.8,0-.7,0-1.3,0-2,0-8.6-.2-17.4,0-28.5-.1-.7,0-.9,0-1.5,0-4.2,0-8.7,0-12.8,0-1.4,0-3,0-5.3,0-1.4,0-2.7,0-4.3,0-1.9,0-3.8,0-5,0-.8,0-1.3,0-1.8,0-.5,0-1,0-1.5,0-.8,0,.5,0-.2-.1-1.3,0-1.2,0-2.8,0,.6,0,1.2,0,1.8,0,.5,0,.8,0,.8-.1.8,0,1.1,0,2,0-.7,0-1.3,0-2-.2-2.3,0-4.8,0-6.3,0-1,0-2.1,0-3.1,0v3.1c.3,0,.5,0,.8,0-.2,0-.5,0-.8,0v.2c2.5,0,5,0,7.1,0,.4,0,0,0,.5,0,.8,0,1.2,0,1.8,0,.3,0,.3,0-.2,0,2.2,0,5.5-.2,8.5-.2.8,0,1.7,0,2.3,0,2.3,0,5.3,0,8.3,0s6.3,0,9.3,0c2.2,0,4,0,6,0,2.9.1,7.4,0,9.8,0,.4,0,.8,0,1.3,0,.8,0,1.4,0,2,0,2.1,0,5.5,0,8.8,0,.9,0,2,0,3.3,0,2.4,0,4.9,0,7.3,0,1.7,0,3.5,0,5.3,0,1.9,0,4.6,0,7.5,0,4.9,0,11.1,0,16.8,0,4.2,0,9.9,0,14,0,2.7,0,5.2,0,8,0,4.8,0,9.9,0,14.8,0,2.5,0,5,0,7.5,0,1.8,0,3.5,0,5.3,0,7.2,0,14.3,0,21.5,0,.4,0,.7,0,1,0,1.5,0,3.1,0,4.5,0,3.4,0,7,0,10,0,2,0,4.7,0,7.3,0,.3,0,.9,0,1.3,0,1.1,0,1.6,0,2.5.1,1.5,0,3.5,0,5.5,0,7.4,0,15.2,0,22.8,0,4.1,0,8.3,0,12.3,0,2.8,0,5.6,0,7.8,0,.7,0,1,0,1.8,0,.8,0,1.5,0,2.5,0,.4,0,1,0,1.3,0,.2,0,.4,0,.8,0,.3,0,1.1,0,1.3,0,.4,0,.6,0,1,0,.6,0,1.7,0,2.5,0,1.6,0,2.8,0,4,0,1.5,0,3.7-.2,5,0,.5,0,1,0,1.5,0,.4,0,0,0,0,0,.6,0,.9,0,.8,0,1.2,0,2.3,0,3.5,0,1.9,0,4.3,0,5.8,0,.3,0,.2,0,.2,0,.7,0,1.1,0,1.8,0,2.5,0,4.7,0,6.5,0,.3,0,0,0,0,0,.7,0,2.4,0,2,0,.7,0,1.3,0,2,0,.7,0-1,0-.2.1,2.2,0,3.5,0,5.5,0-.1,0-1.9,0-2,0,.7,0,1.4,0,2.2,0,.8,0,1.6,0,2.2,0-.1,0-1.9,0-2,0,2,0,3.3,0,5.5,0,.8,0-1,0-.2-.1.7,0,1.3,0,2,0-.4,0,1.3,0,2,0,0,0-.3,0,0,0,1.8,0,4.1,0,6.5,0,.6,0,1,0,1.8,0,0,0,0,0,.3,0,1.4,0,3.9,0,5.8,0,1.2,0,2.3,0,3.5,0-.2,0,.1,0,.8,0,0,0-.4,0,0,0,.5,0,1,0,1.5,0,1.3-.1,3.5,0,5,0,1.2,0,2.4,0,4,0,.8,0,1.9,0,2.5,0,.4,0,.6,0,1,0s1,0,1.3,0c.4,0,.5,0,.8,0,.3,0,.9,0,1.3,0,1,0,1.7,0,2.5,0,.7,0,1.1,0,1.8,0,2.1,0,4.9,0,7.8,0,3.9,0,8.2,0,12.3,0,7.6,0,15.4,0,22.8,0,2,0,4,0,5.5,0,.9,0,1.4,0,2.5-.1.3,0,1,0,1.3,0,2.6,0,5.2,0,7.3,0,3,0,6.6,0,10,0,1.4,0,3,0,4.5,0,.3,0,.6,0,1,0,7.2,0,14.3.1,21.5,0,1.7,0,3.5,0,5.3,0s5,0,7.5,0c4.9,0,9.9,0,14.8,0,2.8,0,5.3,0,8,0,4.1,0,9.8,0,14,0,5.6,0,11.8,0,16.8,0s5.6,0,7.5,0c1.8,0,3.6,0,5.3,0,2.4,0,4.9,0,7.3,0,1.3,0,2.3,0,3.3,0,3.3,0,6.7,0,8.8,0,.6,0,1.2,0,2,0,.4,0,.8,0,1.3,0,2.3,0,6.9,0,9.8,0,2,0,3.8,0,6,0,2.9,0,6.2,0,9.3,0s5.9,0,8.3,0c.6,0,1.4,0,2.3,0,3.1,0,6.3.2,8.5.2-.6,0-.5,0-.2,0,.6,0,.9,0,1.8,0,.4,0,.1,0,.5,0,1.5,0,3.3,0,5.1,0V1.3c-.4,0-.8,0-1.1,0M503.9,1.8h-.5s.5,0,.5,0h0ZM355.9,2.1c.7,0,0,0,0,0-.4,0-.2,0,0,0M340.7,1.7c.3,0,.3,0,.5,0,0,0-.8,0-.5,0M340.2,1.7c.2,0,.1,0,.1,0h-.5c0,0,.3,0,.4,0M318.7,2.5c.2,0,.4,0,.7,0-.2,0-.4,0-.7,0M282.3,2.5c-.2,0-.5,0-.7,0,.2,0,.4,0,.7,0M259.9,1.8c.2,0,.2,0,.5,0,.3,0-.5,0-.5,0M260.7,1.8s0,0,.1,0c0,0,.4,0,.4,0h-.5M245.1,2.2s-.6,0,0,0c.1,0,.3,0,0,0M97.3,1.8h.5s-.5,0-.5,0h0ZM87.5,2.2c-.9,0-1.8,0-2.8,0,.4,0,.2,0,0,0,.9,0,1.5,0,2.3,0,.4,0,.6,0,.5.2M103,1.9c.6,0,.9,0,1.3,0-.4,0-.8,0-1.3,0M234.9,2.1c.8,0,.2,0,0,0,.4,0,1.2,0,1.6,0-.6.1-1.1.1-1.7,0M239.3,1.9c-.3,0-.5,0-.8,0,.3,0,.5,0,.8,0M239.7,4.4c-.8,0-.8,0-1.3,0,.4,0,.8,0,1.3,0M245.7,2c-.2,0-.3,0-.5,0,.2,0,.6,0,.5,0M247.3,2.2c-.4,0-.8,0-.9,0,.4,0,.9,0,1.2,0h-.3M262,2c.6,0-.1,0,.4-.1-.2,0-.5,0-.7,0,.2,0,.4,0,.7,0-.6,0,.1,0,.6,0,0,0-.2,0-.9,0M278.2,2.3c-.2,0-.3,0-.5,0h0c-.1,0-.2,0-.2,0-.2,0-.2,0-.1,0-.7,0-1.4,0-1.9,0h-.4s0,0,.1,0c0,0-.1,0-.2,0-.2,0-.4,0-.7,0,.2,0,.3,0,.5,0,1,0,1.4,0,2.1,0,.4,0,.8,0,1.2,0,0,0,0,0,0,0M290.6,2.8h.3c0,0,.1,0,.2,0-.3,0-.6,0-.5,0M291.7,2.9h-.4c0,0-.2,0-.2,0,.3,0,.4,0,.7,0,0,0,0,0,0,0M293.8,2.9c-.3,0-.6,0-.9,0-.2,0-.5,0-.7,0,.3,0,1.1,0,1.3,0,.2,0,.5,0,.8,0h-.5M297,2.9h-.4c0,0,.2,0,.2,0-.2,0-.3,0-.5,0-.1,0-.2,0-.4,0-.2,0-.5,0-.7,0-.7,0-1.2,0-1.1-.2.2,0,.4,0,.6,0-.2,0-.6,0-.5,0,.3,0,.5,0,1,0-.2,0,0,0,.4,0-.3,0-.8,0-.4,0,.5,0,1.2,0,1.8,0,.1,0,.3,0,.4,0,0,0,0,0,0,0-.5,0-.8,0-.6,0M302.2,2.6h0c-.3,0-.5,0-.7,0,.3,0,.5,0,.7,0,0,0,0,0-.1,0-.2,0-.3,0-.4,0-.1,0-.2,0-.3,0,.2,0,.5,0,.9,0M298.8,2.6h0c.4,0,.6,0,.9,0-.1,0-.2,0-.3,0-.1,0-.3,0-.4,0,0,0,0,0-.1,0h.7c-.2,0-.5,0-.7,0M302.8,2.9c-.2,0-.5,0-.7,0,0,0,.1,0,.2,0-.5,0-.1,0-.5,0-.2,0-.4,0-.7,0,0,0,0,0-.2,0,.5,0,.2,0,.5,0,.2,0,.5,0,.8,0-.2,0-.4,0-.6,0-.3,0-.7,0-1,0s-.6,0-1,0c-.2,0-.4,0-.6,0,.3,0,.5,0,.8,0,.4,0,0,0,.5,0-.2,0-.3,0-.2,0-.2,0-.4,0-.7,0-.4,0,0,0-.5,0,0,0,.1,0,.2,0-.2,0-.4,0-.7,0,.2,0,.5,0,.6,0-.2,0-.5-.1-.7-.2.2,0,.4,0,.7,0h0s0,0,0,0c0,0,0,0,0,0h0c0,0,.2,0,.2,0,.1,0,.2,0,.2,0,.3,0,.8,0,1.2,0s.9,0,1.2,0c0,0,.1,0,.2,0h.2c0,0,0,0,0,0h0c.2,0,.5,0,.7,0-.2,0-.5.1-.7.2.2,0,.4,0,.6,0M305.7,2.8c-.3,0-.5,0-.7,0-.1,0-.2,0-.4,0-.2,0-.3,0-.5,0,0,0,.2,0,.2,0h-.4c.2,0,0,0-.6,0,.2,0,.1,0,0,0,.1,0,.3,0,.4,0,.6,0,1.3,0,1.8,0,.4,0-.2,0-.4,0,.3,0,.6,0,.4,0,.5,0,.7,0,1,0,0,0-.4,0-.5,0,.2,0,.4,0,.6,0,.2,0-.4.1-1.1.2M308.2,2.9c-.3,0-.5,0-.9,0h-.5c.3,0,.6,0,.8,0,.1,0,1,0,1.3,0-.2,0-.4,0-.7,0M309.7,2.9h-.4c0,0-.1,0,0,0,.3,0,.4,0,.7,0,0,0-.2,0-.2,0M310,2.8c0,0,.1,0,.2,0h.3s-.3,0-.5,0M326.1,2.3c0,0-.1,0-.2,0,0,0,0,0,.1,0h-.4c-.6,0-1.2,0-1.9,0,0,0,0,0-.1,0,0,0,0,0-.2,0h0c-.2,0-.3,0-.5,0,0,0,0,0,0,0,.4,0,.8,0,1.2,0,.7,0,1.1,0,2.1,0,.2,0,.3,0,.5,0-.2,0-.5,0-.7,0M338.2,1.9c.5,0,1.2,0,.6,0,.2,0,.4,0,.7,0-.2,0-.5,0-.7,0,.5,0-.2,0,.4.1-.7,0-.8,0-.9,0M353.7,2.2h-.3c.3,0,.8,0,1.2,0,0,0-.5,0-.9,0M355.9,1.9c-.2,0-.3,0-.5,0,0,0,.3,0,.5,0M361.8,1.9c.3,0,.5,0,.8,0-.3,0-.5,0-.8,0M362.6,4.4c-.5,0-.5,0-1.3,0-.4,0,1.6,0,1.3,0M364.5,2c.5,0,1.3,0,1.6,0,0,0-.7,0,0,0-.6,0-1.1,0-1.7,0M496.9,2c.4,0,.6,0,1.3,0-.4,0-.8,0-1.3,0M516.5,2.1c-.9,0-1.8,0-2.8,0-.1,0,0-.1.5-.2.8,0,1.3,0,2.3,0-.2,0-.4,0,0,0"/>
      <path id="Path_2385" class="st1" d="M307.4,2s0,0,.2,0c.5,0,0,0,.3,0,.9,0,1.1,0,1.6,0,.5,0,1,0,1.5,0-.4,0,0,0,.1,0,.6,0,.3,0,.9,0,.3,0,.3,0,.3,0,.7,0,1.4,0,2,0-.3,0-1,0-1.1,0,.2,0,.7,0,1-.1-.6,0-1.1,0-2.1,0,.2,0-.4,0-.2,0-1.5,0-2.3,0-4.1,0,0,0,.8.2.5.2-.4,0-1.1,0-.8,0M313,2c-.2,0-.5,0-.7,0-.1,0,.4,0,.7,0M311.6,1.8s0,0-.2,0c0,0-.2,0-.2,0h.5M310.5,1.9c-.5,0,.6,0,0,0M309.3,1.8c.3,0,.9,0,1.3,0,0,0-1.2,0-1.5,0-.6,0,.9,0,.2,0"/>
      <path id="Path_2386" class="st1" d="M314.1,2.2c-.4,0-.8,0-1.2,0,.5,0,.4,0,.8,0,.6,0,1.1-.1,1.7-.2-.3,0-.5,0-.8,0,.4,0-.6,0-.5.1"/>
      <path id="Path_2387" class="st1" d="M305.2,2.1c.4,0,.7,0,1.1,0,0,0-.2,0-.2,0-.5,0-.9,0-.7,0-.6,0-1.2,0-1.6.1.8,0,.6,0,1.2,0,0,0-.4,0-.4,0,.2,0,.5,0,.7,0"/>
      <path id="Path_2388" class="st1" d="M310.3,2.4c-.5,0-.3,0-.4,0,.2,0,.3,0,.5,0-.4,0,0,0,0,0"/>
      <path id="Path_2389" class="st1" d="M302.5,2.3h0"/>
      <path id="Path_2390" class="st1" d="M299.7,2.4c-.3,0-.3,0-.6,0-.1,0-.2,0-.3,0h0c0,0,0,0,0,0h0c.7,0,.4,0,.9,0"/>
      <path id="Path_2391" class="st1" d="M473.9,2s-.6,0-.5,0h.8s0,0-.2,0"/>
      <path id="Path_2392" class="st1" d="M502.9,1.9c-.4,0,.9,0,.8,0-.2,0-.3,0-.3,0h-.5Z"/>
      <path id="Path_2393" class="st1" d="M500.7,1.9c.6,0,1,0,1.3,0-.4,0-.8,0-1.3,0"/>
      <path id="Path_2394" class="st1" d="M552.5,1.6s.1,0,.2,0h-.8s0,0,.5,0"/>
      <path id="Path_2395" class="st1" d="M449.1,1.6c.4,0-.9,0-.8,0,.3,0,.3,0,.8,0"/>
      <path id="Path_2396" class="st1" d="M594.9,1.2c-.4,0-.8,0-1.3,0,.2,0,1.6,0,2.3,0-.8,0-.7,0-1.5,0,.6,0,3.1,0,4.5,0-1.2,0-1.3,0-1-.2-1,0-1.9,0-3,0"/>
      <path id="Path_2397" class="st1" d="M592.1,1.3c.7,0,1.3,0,2,0-.7,0-1.3,0-2,0"/>
      <path id="Path_2398" class="st1" d="M597.1.6c-7.7,0-12.3,0-20.3,0-.3,0,1.1,0,1.3,0-.8,0-1.7,0-2.5,0,0,0,0,0-.5,0-2,0-4.5,0-6.5,0,0,0,.3,0,0,.1,1.1,0,2.9,0,3.3.1.8,0,1.5,0,2.3,0-.1,0-1.6,0-1.5,0,.8,0,.6,0,1.5,0,1,.1,3.2,0,4.3,0h-2.5c.7,0,1.5,0,2.3,0,1.3,0,3.7,0,5,0,.7,0,1.6,0,2.3,0,1.2,0,2.3,0,3.5,0,3.1,0,6,0,8.3,0,.5,0,.6,0,1.3,0h1.1v-.2c-.8,0-1.6,0-2.4,0M579.8.7c-.5,0-.7,0-1,0,0,0,1.4,0,1,0"/>
      <path id="Path_2399" class="st1" d="M232.9,1.8c-.3,0-.7,0-1,0,0,0,.7,0,1,0"/>
      <path id="Path_2400" class="st1" d="M241.8,1.8c.1,0,.6,0,.4,0-.5,0-.5,0-1.1,0,0,0,.7,0,.7,0"/>
      <path id="Path_2401" class="st1" d="M261.9,1.6c-.3,0-.7,0-1,0,.3,0,.7,0,1,0"/>
      <path id="Path_2402" class="st1" d="M244.4,1.8c-.3,0-.3,0-.5,0,0,0,.8,0,.5,0"/>
      <path id="Path_2403" class="st1" d="M265.8,1.6c.4,0,.3,0,.2,0-.3,0-.5,0-1.1,0,.3,0,.6,0,.9,0"/>
      <path id="Path_2404" class="st1" d="M246.2,1.8c-.2,0-.4,0-.7,0,.2,0,.4,0,.7,0"/>
      <path id="Path_2405" class="st1" d="M266.6,1.6s.5,0,.4,0c.4,0,.3,0,.2,0-.3,0-.4,0-.6,0"/>
      <path id="Path_2406" class="st1" d="M251.3,1.7c.4,0,.8,0,1.2,0-.4,0-.8,0-1.2,0"/>
      <path id="Path_2407" class="st1" d="M254.3,1.7c-.2,0,0,0,0,0,.3,0,.4,0,.7,0,0,0,.2,0,0,0-.2,0-.4,0-.7,0"/>
      <path id="Path_2408" class="st1" d="M253,1.8h.5s0,0,0,0c-.3,0-.5,0-.5,0"/>
      <path id="Path_2409" class="st1" d="M270.6,1.7c-.8,0-2.1,0-2.7,0-.3,0-.3,0-.6,0-.4,0-.3,0-.4,0,1.3.1,3.8,0,5.1,0,.6,0-.3,0,.7,0-.3,0-.6,0-.9,0-.1,0-.1,0,0,0-.4,0-.8,0-1.2,0M269.6,1.8c0,0-.1,0-.2,0,.4,0,.8,0,1.2,0h-1"/>
      <path id="Path_2410" class="st1" d="M255.1,1.8c.4,0,1.4,0,1.8,0,0,0-.2,0,.4,0-.4,0,0-.1.3,0-.8,0-1.7,0-2.5,0"/>
      <path id="Path_2411" class="st1" d="M258.6,1.9c-.4,0-.1,0,0,0,.4,0,.3,0,0,0"/>
      <path id="Path_2412" class="st1" d="M258.2,1.9c-.5,0-1.6,0-2,0,.6.1,1.2.2,1.9.2,0,0,0,0-.6,0,.1,0,0,0,.7,0"/>
      <path id="Path_2413" class="st1" d="M252,2c-.4,0,1,0,.8,0-.5,0-.4,0-.8,0"/>
      <path id="Path_2414" class="st1" d="M267.8,1.9c.3,0,2.2,0,2.5,0,0,0-.5,0-.4,0-.5,0-.7,0-1,0,.6,0,0,.1-.4,0-.5,0-.6,0-1,0,.3,0,.6,0,.9,0-.2,0-.4,0-.6,0"/>
      <path id="Path_2415" class="st1" d="M255.1,2.1c.6,0,.5,0,1,0,0,0-.4,0-.5,0,.3,0,.5,0,.8,0-.4,0-1.4,0-1.2.1"/>
      <path id="Path_2416" class="st1" d="M265.8,2h.5s0,0,0,0c-.3,0-.5,0-.5,0"/>
      <path id="Path_2417" class="st1" d="M272.7,1.9c.6,0,.5,0,0,0"/>
      <path id="Path_2418" class="st1" d="M296.4,1.7c.2,0,1.8,0,2.6,0-.7,0-1.6,0-2.6,0"/>
      <path id="Path_2419" class="st1" d="M254.8,2.2c.2,0,.5,0,.7,0-.5,0-.8,0-.7,0"/>
      <path id="Path_2420" class="st1" d="M300.5,1.7c-.6,0-1.3,0-1.7,0h0c.6,0,.8,0,1.4,0h.3s.3,0,.3,0c.6,0,.8,0,1.4,0h0c-.4,0-1.1,0-1.7,0"/>
      <path id="Path_2421" class="st1" d="M295.7,1.7s.2,0,.2,0h.3,0s-.5,0-.5,0"/>
      <path id="Path_2422" class="st1" d="M298.6,1.8c-.3,0-.4,0-.6,0,.2,0,.8,0,.6,0"/>
      <path id="Path_2423" class="st1" d="M297.2,1.9c.2,0,.5,0,.7,0-.3,0-.2,0-.3-.1-.4,0,.2,0-.4,0"/>
      <path id="Path_2424" class="st1" d="M296.5,2c.4,0,.7,0,.6,0-.5,0-.3,0-.8,0,0,0,.1,0,.2,0"/>
      <path id="Path_2425" class="st1" d="M295.2,2c.2,0,.5,0,.7,0-.2,0-.5,0-.7,0"/>
      <path id="Path_2426" class="st1" d="M294.4,2c-.2,0-.4,0-.6,0,.2,0,.4,0,.6,0"/>
      <path id="Path_2427" class="st1" d="M299.5,2h0c-.5,0-.4,0,0,0"/>
      <path id="Path_2428" class="st1" d="M292.6,2.1c.5,0,1,0,1.5,0,0,0-.5,0-.5-.1-.3,0-.9,0-1.1,0"/>
      <path id="Path_2429" class="st1" d="M297.7,2s.2,0,.2,0c.5,0,.3,0-.2,0"/>
      <path id="Path_2430" class="st1" d="M290.8,2.2s-.3,0-.5,0c.2,0,.3,0,.5,0"/>
      <path id="Path_2431" class="st1" d="M289,2.2c-.4,0-.4,0-1,0,.3,0,.7,0,1,0-.3,0,0,0,0,0"/>
      <path id="Path_2432" class="st1" d="M285.7,2.3c.4,0,.8,0,1.1,0,0,0-1.7,0-1.1,0"/>
      <path id="Path_2433" class="st1" d="M291.1,2.3c-.4,0-.8,0-1.2,0,.4,0,.8,0,1.2,0"/>
      <path id="Path_2434" class="st1" d="M299.1,2.2c-.3,0-.5,0-.8,0,.3,0,.6,0,.8,0"/>
      <path id="Path_2435" class="st1" d="M293.5,2.4h.3,0s-.3,0-.3,0h0"/>
      <path id="Path_2436" class="st1" d="M284.5,2.5c.4,0,1,0,0,0"/>
      <path id="Path_2437" class="st1" d="M298.5,2.6c.4,0,0,0-.4,0,0,0,.4,0,.4,0"/>
      <path id="Path_2438" class="st1" d="M289.8,2.7s.3,0,.5,0c0,0-.1,0-.2,0h-.3"/>
      <path id="Path_2439" class="st1" d="M289.2,2.7c-.2,0-.5,0-.7,0,.2,0,.5,0,.7,0"/>
      <path id="Path_2440" class="st1" d="M286.7,2c.7,0,1.4.1,2,0,0,0,0,0,.3,0,.6,0,.3,0,.9,0,0,0,.5,0,.1,0,.5,0,1,0,1.5,0,.5,0,.7,0,1.6,0,.3,0-.3,0,.3,0,.1,0,.2,0,.2,0,.3,0-.4,0-.8,0-.2,0,.6-.1.5-.2-1.8,0-2.6,0-4.1,0,.2,0-.4,0-.2,0-1,0-1.5,0-2.1,0,.3,0,.8,0,1,.1,0,0-.8,0-1.1,0M291.8,1.8c-.7,0,.9,0,.2,0-.4,0-1.5,0-1.5,0,.4,0,1,0,1.3,0M290.5,1.9c-.6,0,.5,0,0,0M290,1.8c0,0-.2,0-.2,0-.2,0-.3,0-.2,0h.5M288.7,2c-.2,0-.5,0-.7,0,.3,0,.8,0,.7,0"/>
      <path id="Path_2441" class="st1" d="M285.7,2.1c.6,0,1.1,0,1.7.2.4,0,.3,0,.8,0-.4,0-.8,0-1.2,0,0,0-.9,0-.5-.1-.3,0-.4,0-.8,0"/>
      <path id="Path_2442" class="st1" d="M294.8,2.2c.4,0,.7,0,1.1,0,.2,0,.5,0,.7,0,0,0-.4,0-.4,0,.7,0,.5,0,1.2,0-.4,0-1,0-1.6-.1.2,0-.3,0-.7,0,0,0-.3,0-.2,0"/>
      <path id="Path_2443" class="st1" d="M290.7,2.5c.2,0,.3,0,.5,0-.1,0,.1,0-.4,0,0,0,.3,0,0,0"/>
      <path id="Path_2444" class="st1" d="M298.6,2.3h0"/>
      <path id="Path_2445" class="st1" d="M302.2,2.4c-.1,0-.2,0-.3,0-.3,0-.3,0-.6,0,.5,0,.2.1.9,0h0s0,0,0,0h0Z"/>
      <path id="Path_2446" class="st1" d="M127.3,2c-.3,0-.2,0-.2,0h.8c.1,0-.5,0-.5,0"/>
      <path id="Path_2447" class="st1" d="M97.5,1.9c0,0,1.1,0,.8,0h-.5s0,0-.2,0"/>
      <path id="Path_2448" class="st1" d="M99.3,1.8c.3,0,.7,0,1.3,0-.4,0-.8,0-1.3,0"/>
      <path id="Path_2449" class="st1" d="M49.2,1.6h-.8c.1,0,.3,0,.2,0,.5,0,.5,0,.5,0"/>
      <path id="Path_2450" class="st1" d="M152.9,1.6c0,0-1.1,0-.8,0,.4,0,.4,0,.8,0"/>
      <path id="Path_2451" class="st1" d="M.9,1.2c.4,0,.8,0,1.3,0-.4,0-.8,0-1.3,0"/>
      <path id="Path_2452" class="st1" d="M2.4,1.3c1.4,0,3.9,0,4.5,0-.8,0-.7,0-1.5,0,.7,0,2.1,0,2.3,0-.4,0-.8,0-1.3,0-1.1,0-2-.1-3,0,.3,0,.2.1-1,.2"/>
      <path id="Path_2453" class="st1" d="M7.2,1.2c.7,0,1.3,0,2,0-.7,0-1.3,0-2,0"/>
    </g>
  </g>
</svg>