<?xml version="1.0" encoding="UTF-8"?>
<svg id="Layer_1" xmlns="http://www.w3.org/2000/svg" xmlns:xlink="http://www.w3.org/1999/xlink" version="1.1" viewBox="0 0 600 5.4">
  <!-- Generator: Adobe Illustrator 29.0.1, SVG Export Plug-In . SVG Version: 2.1.0 Build 192)  -->
  <defs>
    <style>
      .st0 {
        fill: none;
      }

      .st1 {
        fill: #fffbf5;
      }

      .st2 {
        clip-path: url(#clippath);
      }
    </style>
    <clipPath id="clippath">
      <rect class="st0" x="0" y=".6" width="599.9" height="4.2"/>
    </clipPath>
  </defs>
  <g class="st2">
    <g id="Group_277">
      <path id="Path_2343" class="st1" d="M369.8.8h-1,1"/>
      <path id="Path_2344" class="st1" d="M360.6.7h-1.1c-.2,0,.3,0,.4,0h.7"/>
      <path id="Path_2345" class="st1" d="M340.8.7h-1,1"/>
      <path id="Path_2346" class="st1" d="M357.8.8h-.5c-.3,0,.5,0,.5,0"/>
      <path id="Path_2347" class="st1" d="M336.7.7h-1.1s-.2,0,.2,0h.9"/>
      <path id="Path_2348" class="st1" d="M356.2.8h-.7.7"/>
      <path id="Path_2349" class="st1" d="M335.1.7h-.6s-.1,0,.2,0h.4"/>
      <path id="Path_2350" class="st1" d="M350.3.7h-1.2,1.2"/>
      <path id="Path_2351" class="st1" d="M347.5.8s.1,0,0,0h-.7s.1,0,0,0h.7"/>
      <path id="Path_2352" class="st1" d="M348.2.7h.5-.5"/>
      <path id="Path_2353" class="st1" d="M329.7.7h-.9c1.1,0,.1,0,.7,0h5.1-3.7c-.4,0-.8,0-1.2,0h0M332.3.7h-1.2,1.2"/>
      <path id="Path_2354" class="st1" d="M344.1.9c.3,0,.7,0,.3,0,.6,0,.5,0,.4,0h1.8-2.5"/>
      <path id="Path_2355" class="st1" d="M343.2.9s.4,0,0,0-.4,0,0,0"/>
      <path id="Path_2356" class="st1" d="M344.2.9h-.6c.6,0,1.3,0,1.9-.1h-2,.7"/>
      <path id="Path_2357" class="st1" d="M348.9.9c-.2,0,1.2,0,.8,0h-.8"/>
      <path id="Path_2358" class="st1" d="M334.1.8h-1c-.3,0-.9,0-.4,0h-1c.1,0-.3,0-.4,0h2.5-.6.9"/>
      <path id="Path_2359" class="st1" d="M345.4.9h.8c-.2,0-.6,0-.5,0h1c.2,0-.8-.1-1.2,0"/>
      <path id="Path_2360" class="st1" d="M335.5.9h.5-.5"/>
      <path id="Path_2361" class="st1" d="M328.9.9c-.5,0-.6,0,0,0"/>
      <path id="Path_2362" class="st1" d="M302.6.7h2.6-2.6"/>
      <path id="Path_2363" class="st1" d="M346.1,1h.7-.7"/>
      <path id="Path_2364" class="st1" d="M305.4.8h.5-.5"/>
      <path id="Path_2365" class="st1" d="M303.7.8h-.6c-.1,0,.4,0,.6,0"/>
      <path id="Path_2366" class="st1" d="M304.4.9c-.6,0,0,0-.4,0h-.3c.2,0,.5,0,.7,0"/>
      <path id="Path_2367" class="st1" d="M304.5.9h.8-.8"/>
      <path id="Path_2368" class="st1" d="M305.7.9h.7-.7"/>
      <path id="Path_2369" class="st1" d="M307.2.9h.6-.6"/>
      <path id="Path_2370" class="st1" d="M302.2.9h0c.4,0,.6,0,0,0"/>
      <path id="Path_2371" class="st1" d="M309.1,1h-1.1s-.5,0-.5,0h1.5"/>
      <path id="Path_2372" class="st1" d="M303.9.9c-.5,0-.7,0-.2,0,0,0,.3,0,.2,0"/>
      <path id="Path_2373" class="st1" d="M311.3,1c-.3,0-.6,0-.5,0h.5"/>
      <path id="Path_2374" class="st1" d="M313.6,1.1h-1s.2,0,0,0h1"/>
      <path id="Path_2375" class="st1" d="M302.1,1h-1c-.2,0-.4,0-.3,0h-1,2.6-.3"/>
      <path id="Path_2376" class="st1" d="M314.8,1.1h1.1c.6,0-1.2,0-1.1,0"/>
      <path id="Path_2377" class="st1" d="M311.7,1.1h-1.2,1.2"/>
      <path id="Path_2378" class="st1" d="M303.4,1.1h-.8.8"/>
      <path id="Path_2379" class="st1" d="M307.8,1.2h.4-.3"/>
      <path id="Path_2380" class="st1" d="M317.1,1.3c-1,0-.4,0,0,0"/>
      <path id="Path_2381" class="st1" d="M303.1,1.3s.5,0,.4,0c-.4,0-.8,0-.4,0"/>
      <path id="Path_2382" class="st1" d="M311.8,1.4h-.5c.3,0,.6,0,.5,0"/>
      <path id="Path_2383" class="st1" d="M312.4,1.4h.7-.7"/>
      <path id="Path_2384" class="st1" d="M599.2.5c-1.5,0-4,0-6.3,0-.7.1-1.3.1-2,.1h2s.2,0,.8,0h1.8-2.8c-.8,0,.5,0-.2,0h-32.2c-11.1,0-20,0-28.6,0h-4.1c.1,0-.5,0-1.3,0h-5.6.8-8.8c.1,0-.6,0-1.8,0,.2,0,1.2,0,.5,0h-8c-.1,0,.9,0,1.3.1-.8,0-1.7.1-2.5,0h1.5c-.7,0-1.8,0-2.5,0h-4.5,3-7.5,3.5c-.8,0-2.9,0-3.3.1,1,0,1.5,0,2.3,0h2.8-24.1c-1-.1,0,0-1,0,.2-.1-3.9,0-4.5-.1h2.5-5.3c-3.2,0-8.9,0-12,0-.2,0-.5,0-.8,0h-7.1c.2,0,.6,0-.2,0h-.8c-2.6,0-5.2,0-7,0h-1.5c-1.2,0-2.9,0-5,0h-33.5c-1.3,0-2.7,0-4,0-.8,0-1.9,0-3.2.1h-16.1s-.2,0,0,0h-3.6,1.4-1.2,1.1-2.3s.5,0-.1,0h-1.4c.3,0,.8,0,.7,0-.6,0-1,0-.7,0h-1,.8-1.6c-.2,0,.6,0,.5,0-.5,0,.3,0,0,0-.9,0-1.3,0-1.8,0,.4,0,1.3,0,.7,0h-2.4s.3,0,0,0h-1c.2,0,.4,0,.3,0h-1.6,1.2s-.2,0,0,0h.3-2.9c.6,0-.5,0,0,0h.7c.1,0,0,0,0,0h1.3-.6c1.2,0,.7,0,.2,0h1.9c-.4,0-.8,0-1.3,0,.4,0-.3,0-.2,0s.7,0,.6,0h-3.7.9c-.2,0-.4,0-.3,0h-.8c-.3,0-.6,0-.9,0h-1.2,1.2-.4.9-1.5c.9,0,.2,0,.8,0-.7,0-1.3,0-2,0h-.9s.2,0,0,.1c-.1,0-1,0-.9,0h2.2c-.5,0-1.1,0-.6,0h-3.6.4c-.5,0,0,0-.4,0-.6,0,0,0-.3,0h-.8.5c-1.5,0-2.6,0-3.7.1h-7.9,2.1s.8,0,.5,0h-.6c-1.4,0-.9,0-.8,0h1s-.2,0,.3,0c-.3,0,.5,0,1.4,0h0c-.2,0-.6,0-.9,0,.2,0,.5,0,.4,0h-3.1.9-.7c-.2,0-1.9,0-2.1-.1h-1.4.4c-.1,0-1.4,0-1,0h1.2-1.3c.2,0,.9,0,.6,0h1.2c.3,0,.7,0,1,0h-13.2c-.3,0,.5,0,.3,0-.3,0-1.1,0-.9,0-1.5,0-3.1,0-4.6,0h-2.4c-.1,0,.3,0,0,0-.5,0-1.6,0-1.3,0h2.8-.4,1c.4,0,1.2,0,1.2,0h2c-.7,0-1.8,0-2.4.1h-.2c.3,0,.4,0,.4,0-.7,0-.7,0-1.5,0h-.6c.5,0,.9,0,.8,0h-2.1.6c-.1,0,.6,0,.7,0-.5,0,.1,0-.7,0,.4,0,0,0-.4,0s.4,0,0,0c-.6,0,0,0-.7,0,.1,0,.4,0-.2,0,0,0,.9,0,.4.1h-1.3,3.1-.4,2-4.3c-.3,0-.2,0,0,0h-5.6s-.4,0-.2,0c0,0,.2,0,0,0h-.6c-.5,0-1,0-1.5,0-.6,0-1.3,0-1.9-.1h.6-1.9c-.5,0,.3,0-.3,0h-.3c.2,0,.3,0,0,0h-.5c.1,0-.3,0-.8,0h-3.4c-.5,0-.9,0-.8,0h-.5c-.2,0-.1,0,0,0h-.3c-.7,0,.2,0-.3,0h-1.9s.7,0,.6,0c-.7,0-1.3,0-1.9.1h-2.1c-.2,0,0,0,0,0,.2,0-.2,0-.2,0h-5.6c.2,0,.4,0,0,0h-3c-.2,0-.3,0-.2,0h-1.1,2-.4,3.1-1.3c-.5,0,.4,0,.4-.1-.6,0-.4,0-.2,0-.7,0-.1,0-.7,0s.2,0,0,0c-.3,0-.8,0-.4,0-.8,0-.2,0-.7,0,0,0,.8,0,.7,0h.6-2.1c-.1,0,.3,0,.8,0h-.6q-.8,0-1.5,0s.1,0,.4,0h-.2c-.7,0-1.7,0-2.4-.1h2s.8,0,1.2,0h1-.4,2.8c.3,0-.8,0-1.3,0s.2,0,0,0h-7c.2,0-.6,0-.9,0s.5,0,.3,0h-13.2c.3,0,.7,0,1,0h1.2c-.3,0,.4,0,.6,0h-1.3,1.2c.3,0-.9,0-1,0h.4-1.4c-.2,0-1.9,0-2.1.1h-.7.9-3.1.4-.9c.9,0,1.7,0,1.4.1.5,0,.2,0,.3,0h1s.5,0-.8,0h-.6c-.3,0,.5,0,.5,0h2.1-7.9c-1.2,0-2.2-.1-3.7-.1h.5-.8c-.3,0,.3,0-.3,0h-.4.4-3.6c.5,0,0,0-.6,0h2.2-.9c-.2,0,0,0,0-.1h-.9c-.7,0-1.3,0-2,0,.6,0,0,0,.8,0h-1.5.9-.4,1.2-1.2c-.3,0-.6,0-.9,0h-1.1.9-3.7c-.1,0,.6,0,.6,0,0,0-.6,0-.2,0-.4,0-.9,0-1.3,0h1.9c-.5,0-1,.1.2,0h-.6,2c.6,0-.5,0,0,0h-2.9.3c.2,0,0,0,0,0h1.2-1.6.3-1c-.2,0,0,0,0,0h-2.4c-.6,0,.3,0,.7,0h-1.8c-.4,0,.4,0,0,0,0,0,.7,0,.5,0h-1.6.8-1c.3,0-.2,0-.7,0s.4,0,.7,0h-1.4c-.6,0,0,0-.1,0h-2.3,1.1-1.2,1.4-3.6c.1,0,0,0,0,0h-16.1c-1.3,0-2.4,0-3.2-.1h-37.5c-2.1,0-3.8,0-5,0h-1.5c-1.8.1-4.4,0-7,0h-.8c-.8,0-.4,0-.2,0h-7.1c-.3,0-.5,0-.8,0-3.1-.1-8.9,0-12,0h-5.3,2.5c-.6,0-4.7,0-4.5.1h-1c-.5.1-1.6,0-2.5.1h-21.6,2.8c.8,0,1.2,0,2.3,0-.4,0-2.4,0-3.3-.1h3.5-7.5c1,0,2,0,3,0h-4.5c-.7,0-1.8,0-2.5,0h1.5-2.5c.3,0,1.4,0,1.3-.1h-8c-.7,0,.3,0,.5,0-1.1,0-1.9,0-1.8,0h-8.8.8-11c-8.6-.1-17.4,0-28.5,0H9.3c-.8,0,.5,0-.2,0h-2.8,1.8c.5,0,.8,0,.8,0h2c-.7,0-1.3,0-2-.1H-.5v2H.3h-.8c2.5.1,5,.1,7.1.1h2.3q.3,0-.2,0c2.2,0,5.5-.1,8.5-.1h25.9c2.9,0,7.4,0,9.8,0h147.6c1.1,0,1.6,0,2.5,0h63.6c1.5,0,3.7-.1,5,0h1.5c.4,0,0,0,0,0,.6,0,.9,0,.8,0h9.3c.3,0,.2,0,.2,0h8.3c.3,0,0,0,0,0,.7,0,2.4,0,2,0h2c.7,0-1,0-.2,0h5.5-2,4.4-2,5.5c.8,0-1,0-.2,0h2c-.4,0,1.3,0,2,0,0,0-.3,0,0,0h17.9c-.2,0,.1,0,.8,0,0,0-.4,0,0,0h1.5c1.3,0,3.5,0,5,0h63.6c.9,0,1.4,0,2.5,0h24.1c7.2,0,14.3,0,21.5,0h137.7c3.1,0,6.3.1,8.5.1-.6,0-.5,0-.2,0h7.4V.5h-1.1M504.6.8h-.5.5ZM356.5,1c.7,0,0,0,0,0-.4,0-.2,0,0,0M341.3.7h.5s-.8,0-.5,0M340.8.7c.2,0,.1,0,.1,0h-.5.4M319.3,1.3h.7-.7M282.9,1.3h-.7.7M260.5.8h.5c.3,0-.5,0-.5,0M261.3.8h.5-.5M245.7,1.1s-.6,0,0,0,.3,0,0,0M97.8.8h.5-.5ZM88,1.1h-2.8c.4,0,.2,0,0,0h2.3c.4,0,.6,0,.5.1M103.5.9h1.3-1.3M235.5,1c.8,0,.2,0,0,0h1.6c-.6,0-1.1,0-1.7,0M239.9.9h-.8.8M240.3,2.5h-1.3,1.3M246.3.9h-.5c.2,0,.6,0,.5,0M247.9,1.1h-.9,1.2-.3M262.6.9c.6,0-.1,0,.4,0h-.7.7c-.6,0,.1,0,.6,0h-.9M278.8,1.1h-.7q-.2,0-.1,0h-2.3.1-.9,3.8M291.2,1.5h.5c-.3,0-.6,0-.5,0M292.3,1.5h-.6.7M294.4,1.5h-1.6,2.1-.5M297.6,1.5h-.4.2-1.6c-.7,0-1.2,0-1.1-.1h.6c-.2,0-.6,0-.5,0h1c-.2,0,0,0,.4,0-.3,0-.8,0-.4,0h2.2c-.5,0-.8,0-.6,0M302.8,1.3h-.7.7-.8.9M299.4,1.3h.9-.8.7-.7M303.4,1.5h-.7.2-1.4,1.3-3.2,1.3c-.2,0-.3,0-.2,0h-1.2.2-.7.6c-.2,0-.5,0-.7-.1h4.6c-.2,0-.5,0-.7.1h.6M306.3,1.5h-1.6.2-.4c.2,0,0,0-.6,0,.2,0,.1,0,0,0h2.2c.4,0-.2,0-.4,0,.3,0,.6,0,.4,0h1-.5.6c.2,0-.4,0-1.1.1M308.8,1.5h-1.4,2.1-.7M310.3,1.5h-.4s-.1,0,0,0h.7-.2M310.6,1.5h.5-.5M326.7,1.1h-.2.1-3.1,3.8-.7M338.8.9c.5,0,1.2,0,.6,0h.7-.7c.5,0-.2,0,.4,0h-.9M354.3,1.1h-.3,1.2-.9M356.5.9h-.5.5M362.4.9h.8-.8M363.2,2.5h-1.3c-.4,0,1.6,0,1.3,0M365.1.9h1.6s-.7,0,0,0h-1.7M497.6.9h1.3-1.3M517.2,1h-2.8c-.1,0,0,0,.5-.1h2.3c-.2,0-.4,0,0,0"/>
      <path id="Path_2385" class="st1" d="M308,.9h.2c.5,0,0,0,.3,0h3.1c-.4,0,0,0,.1,0h3.2-1.1c.2,0,.7,0,1,0h-2.1c.2,0-.4,0-.2,0h-4.1s.8.1.5.1-1.1,0-.8,0M313.6.9h-.7c-.1,0,.4,0,.7,0M312.2.8h-.4.5M311.1.9c-.5,0,.6,0,0,0M309.9.8h1.3-1.5c-.6,0,.9,0,.2,0"/>
      <path id="Path_2386" class="st1" d="M314.7,1.1h-1.2.8c.6,0,1.1,0,1.7-.1h-.8c.4,0-.6,0-.5,0"/>
      <path id="Path_2387" class="st1" d="M305.8,1h1.1-.2c-.5,0-.9,0-.7,0-.6,0-1.2,0-1.6,0h1.2-.4.7"/>
      <path id="Path_2388" class="st1" d="M310.9,1.2c-.5,0-.3,0-.4,0h.5c-.4,0,0,0,0,0"/>
      <path id="Path_2389" class="st1" d="M303.1,1.1h0"/>
      <path id="Path_2390" class="st1" d="M300.3,1.2h-.9.9"/>
      <path id="Path_2391" class="st1" d="M474.6.9s-.6,0-.5,0h.8-.2"/>
      <path id="Path_2392" class="st1" d="M503.6.9c-.4,0,.9,0,.8,0h-.8Z"/>
      <path id="Path_2393" class="st1" d="M501.4.9h1.3-1.3"/>
      <path id="Path_2394" class="st1" d="M553.2.7h.2-.8.5"/>
      <path id="Path_2395" class="st1" d="M449.8.7c.4,0-.9,0-.8,0h.8"/>
      <path id="Path_2396" class="st1" d="M595.7.4h-1.3,2.3-1.5,4.5c-1.2,0-1.3,0-1-.1h-3"/>
      <path id="Path_2397" class="st1" d="M592.9.5h2-2"/>
      <path id="Path_2398" class="st1" d="M597.9,0h-20.3c-.3,0,1.1,0,1.3,0h-9.5s.3,0,0,0c1.1,0,2.9,0,3.3,0h2.3c-.1,0-1.6,0-1.5,0h1.5c1,0,3.2,0,4.3,0h-2.5,23.8c-.8-.1-1.6-.1-2.4-.1M580.6,0h-1s1.4,0,1,0"/>
      <path id="Path_2399" class="st1" d="M233.5.8h-1,1"/>
      <path id="Path_2400" class="st1" d="M242.4.8c.1,0,.6,0,.4,0h-1.1.7"/>
      <path id="Path_2401" class="st1" d="M262.5.7h-1,1"/>
      <path id="Path_2402" class="st1" d="M245,.8h-.5s.8,0,.5,0"/>
      <path id="Path_2403" class="st1" d="M266.4.7c.4,0,.3,0,.2,0h-1.1.9"/>
      <path id="Path_2404" class="st1" d="M246.8.8h-.7.7"/>
      <path id="Path_2405" class="st1" d="M267.2.7s.5,0,.4,0c.4,0,.3,0,.2,0h-.6"/>
      <path id="Path_2406" class="st1" d="M251.9.7h1.2-1.2"/>
      <path id="Path_2407" class="st1" d="M254.9.7c-.2,0,0,0,0,0h.7s.2,0,0,0h-.7"/>
      <path id="Path_2408" class="st1" d="M253.6.8h.5-.5"/>
      <path id="Path_2409" class="st1" d="M271.2.7h-3.7c1.3,0,3.8,0,5.1,0s-.3,0,.7,0h-.9q-.1,0,0,0h-1.2M270.2.8h-.2,1.2-1"/>
      <path id="Path_2410" class="st1" d="M255.7.8h1.8s-.2,0,.4,0c-.4,0,0,0,.3,0h-2.5"/>
      <path id="Path_2411" class="st1" d="M259.2.9c-.4,0-.1,0,0,0,.4,0,.3,0,0,0"/>
      <path id="Path_2412" class="st1" d="M258.8.9h-2c.6,0,1.2.1,1.9.1h-.6.7"/>
      <path id="Path_2413" class="st1" d="M252.6.9c-.4,0,1,0,.8,0h-.8"/>
      <path id="Path_2414" class="st1" d="M268.4.9h2.5s-.5,0-.4,0h-1c.6,0,0,0-.4,0h-1,.9-.6"/>
      <path id="Path_2415" class="st1" d="M255.7,1h1-.5.8c-.4,0-1.4,0-1.2,0"/>
      <path id="Path_2416" class="st1" d="M266.4.9h.5-.5"/>
      <path id="Path_2417" class="st1" d="M273.3.9c.6,0,.5,0,0,0"/>
      <path id="Path_2418" class="st1" d="M297,.7h2.6-2.6"/>
      <path id="Path_2419" class="st1" d="M255.4,1.1h.7c-.5,0-.8,0-.7,0"/>
      <path id="Path_2420" class="st1" d="M301.1.7h-1.7,3.4-1.7"/>
      <path id="Path_2421" class="st1" d="M296.3.7h.5-.5"/>
      <path id="Path_2422" class="st1" d="M299.2.8h-.6c.2,0,.8,0,.6,0"/>
      <path id="Path_2423" class="st1" d="M297.8.9h.7c-.3,0-.2,0-.3,0-.4,0,.2,0-.4,0"/>
      <path id="Path_2424" class="st1" d="M297.1.9c.4,0,.7,0,.6,0h-.8.2"/>
      <path id="Path_2425" class="st1" d="M295.8.9h.7-.7"/>
      <path id="Path_2426" class="st1" d="M295,.9h-.6.6"/>
      <path id="Path_2427" class="st1" d="M300.1.9h0c-.5,0-.4,0,0,0"/>
      <path id="Path_2428" class="st1" d="M293.2,1h1.5s-.5,0-.5,0h-1.1"/>
      <path id="Path_2429" class="st1" d="M298.3.9h.2c.5,0,.3,0-.2,0"/>
      <path id="Path_2430" class="st1" d="M291.4,1.1h-.5.5"/>
      <path id="Path_2431" class="st1" d="M289.6,1.1h-1,1c-.3,0,0,0,0,0"/>
      <path id="Path_2432" class="st1" d="M286.3,1.1h1.1s-1.7,0-1.1,0"/>
      <path id="Path_2433" class="st1" d="M291.7,1.1h-1.2,1.2"/>
      <path id="Path_2434" class="st1" d="M299.7,1.1h-.8.8"/>
      <path id="Path_2435" class="st1" d="M294.1,1.2h.3-.3"/>
      <path id="Path_2436" class="st1" d="M285.1,1.3c.4,0,1,0,0,0"/>
      <path id="Path_2437" class="st1" d="M299.1,1.3c.4,0,0,0-.4,0h.4"/>
      <path id="Path_2438" class="st1" d="M290.4,1.4h.5-.5"/>
      <path id="Path_2439" class="st1" d="M289.8,1.4h-.7.7"/>
      <path id="Path_2440" class="st1" d="M287.3.9c.7,0,1.4,0,2,0h1.2s.5,0,.1,0h3.1c.3,0-.3,0,.3,0h.2c.3,0-.4,0-.8,0s.6,0,.5-.1h-4.1c.2,0-.4,0-.2,0h-2.1c.3,0,.8,0,1,0h-1.1M292.4.8c-.7,0,.9,0,.2,0h-1.5,1.3M291.1.9c-.6,0,.5,0,0,0M290.6.8h-.2c-.2,0-.3,0-.2,0h.5M289.3.9h-.7c.3,0,.8,0,.7,0"/>
      <path id="Path_2441" class="st1" d="M286.3,1c.6,0,1.1,0,1.7.1h.8-1.2s-.9,0-.5,0h-.8"/>
      <path id="Path_2442" class="st1" d="M295.4,1.1h1.8-.4,1.2c-.4,0-1,0-1.6,0,.2,0-.3,0-.7,0,0,0-.3,0-.2,0"/>
      <path id="Path_2443" class="st1" d="M291.3,1.3h.5c-.1,0,.1,0-.4,0,0,0,.3,0,0,0"/>
      <path id="Path_2444" class="st1" d="M299.2,1.1h0"/>
      <path id="Path_2445" class="st1" d="M302.8,1.2h-.9c.5,0,.2,0,.9,0h0Z"/>
      <path id="Path_2446" class="st1" d="M127.8.9c-.3,0-.2,0-.2,0h.8c.1,0-.5,0-.5,0"/>
      <path id="Path_2447" class="st1" d="M98,.9s1.1,0,.8,0h-.7"/>
      <path id="Path_2448" class="st1" d="M99.8.8h1.3-1.3"/>
      <path id="Path_2449" class="st1" d="M49.7.7h-.8c.1,0,.3,0,.2,0h.5"/>
      <path id="Path_2450" class="st1" d="M153.4.7s-1.1,0-.8,0h.8"/>
      <path id="Path_2451" class="st1" d="M1.4.4h1.3-1.3"/>
      <path id="Path_2452" class="st1" d="M2.9.5h4.5-1.5,2.3-1.3c-1.1,0-2,0-3,0,.3,0,.2,0-1,.1"/>
      <path id="Path_2453" class="st1" d="M7.7.4h2-2"/>
    </g>
    <g id="Group_2771" data-name="Group_277">
      <path id="Path_23431" data-name="Path_2343" class="st1" d="M230.7,4.1h1-1"/>
      <path id="Path_23441" data-name="Path_2344" class="st1" d="M239.9,4.1h1.1c.2,0-.3,0-.4,0h-.7"/>
      <path id="Path_23451" data-name="Path_2345" class="st1" d="M259.7,4.2h1-1"/>
      <path id="Path_23461" data-name="Path_2346" class="st1" d="M242.7,4.1h.5c.3,0-.5,0-.5,0"/>
      <path id="Path_23471" data-name="Path_2347" class="st1" d="M263.8,4.2h1.1s.2,0-.2,0h-.9"/>
      <path id="Path_23481" data-name="Path_2348" class="st1" d="M244.3,4.1h.7-.7"/>
      <path id="Path_23491" data-name="Path_2349" class="st1" d="M265.4,4.2h.6s.1,0-.2,0h-.4"/>
      <path id="Path_23501" data-name="Path_2350" class="st1" d="M250.2,4.1h1.2-1.2"/>
      <path id="Path_23511" data-name="Path_2351" class="st1" d="M253,4.1s-.1,0,0,0h.7s-.1,0,0,0h-.7"/>
      <path id="Path_23521" data-name="Path_2352" class="st1" d="M252.3,4.1h-.5.5"/>
      <path id="Path_23531" data-name="Path_2353" class="st1" d="M270.8,4.1h.9c-1.1,0-.1,0-.7,0h-5.1,3.7c.4,0,.8,0,1.2,0h0M268.2,4.1h1.2-1.2"/>
      <path id="Path_23541" data-name="Path_2354" class="st1" d="M256.4,4c-.3,0-.7,0-.3,0-.6,0-.5,0-.4,0h-1.8,2.5"/>
      <path id="Path_23551" data-name="Path_2355" class="st1" d="M257.3,3.9s-.4,0,0,0,.4,0,0,0"/>
      <path id="Path_23561" data-name="Path_2356" class="st1" d="M256.3,3.9h.6c-.6,0-1.3,0-1.9.1h2-.7"/>
      <path id="Path_23571" data-name="Path_2357" class="st1" d="M251.6,4c.2,0-1.2,0-.8,0h.8"/>
      <path id="Path_23581" data-name="Path_2358" class="st1" d="M266.4,4.1h1c.3,0,.9,0,.4,0h1c-.1,0,.3,0,.4,0h-2.5.6-.9"/>
      <path id="Path_23591" data-name="Path_2359" class="st1" d="M255.1,3.9h-.8c.2,0,.6,0,.5,0h-1c-.2,0,.8.1,1.2,0"/>
      <path id="Path_23601" data-name="Path_2360" class="st1" d="M265,3.9h-.5.5"/>
      <path id="Path_23611" data-name="Path_2361" class="st1" d="M271.6,4c.5,0,.6,0,0,0"/>
      <path id="Path_23621" data-name="Path_2362" class="st1" d="M297.9,4.1h-2.6,2.6"/>
      <path id="Path_23631" data-name="Path_2363" class="st1" d="M254.4,3.9h-.7s.2,0,.7,0"/>
      <path id="Path_23641" data-name="Path_2364" class="st1" d="M295.1,4.1h-.5.5"/>
      <path id="Path_23651" data-name="Path_2365" class="st1" d="M296.8,4.1h.6c.1,0-.4,0-.6,0"/>
      <path id="Path_23661" data-name="Path_2366" class="st1" d="M296.1,4c.6,0,0,0,.4,0h.3c-.2,0-.5,0-.7,0"/>
      <path id="Path_23671" data-name="Path_2367" class="st1" d="M296,4h-.8.8"/>
      <path id="Path_23681" data-name="Path_2368" class="st1" d="M294.8,3.9h-.7.7"/>
      <path id="Path_23691" data-name="Path_2369" class="st1" d="M293.3,3.9h-.6.6"/>
      <path id="Path_23701" data-name="Path_2370" class="st1" d="M298.3,3.9h0c-.4,0-.6,0,0,0"/>
      <path id="Path_23711" data-name="Path_2371" class="st1" d="M291.4,3.9h1.1s.5,0,.5,0h-1.5"/>
      <path id="Path_23721" data-name="Path_2372" class="st1" d="M296.6,3.9c.5,0,.7,0,.2,0,0,0-.3,0-.2,0"/>
      <path id="Path_23731" data-name="Path_2373" class="st1" d="M289.2,3.9c.3,0,.6,0,.5,0h-.5"/>
      <path id="Path_23741" data-name="Path_2374" class="st1" d="M286.9,3.8h1s-.2,0,0,0h-1"/>
      <path id="Path_23751" data-name="Path_2375" class="st1" d="M298.4,3.9h1c.2,0,.4,0,.3,0h1-2.6.3"/>
      <path id="Path_23761" data-name="Path_2376" class="st1" d="M285.7,3.7h-1.1c-.6,0,1.2,0,1.1,0"/>
      <path id="Path_23771" data-name="Path_2377" class="st1" d="M288.8,3.8h1.2-1.2"/>
      <path id="Path_23781" data-name="Path_2378" class="st1" d="M297.1,3.8h.8-.8"/>
      <path id="Path_23791" data-name="Path_2379" class="st1" d="M292.7,3.7h-.4s.3,0,.3,0h0"/>
      <path id="Path_23801" data-name="Path_2380" class="st1" d="M283.4,3.6c1,0,.4,0,0,0"/>
      <path id="Path_23811" data-name="Path_2381" class="st1" d="M297.4,3.6s-.5,0-.4,0c.4,0,.8,0,.4,0"/>
      <path id="Path_23821" data-name="Path_2382" class="st1" d="M288.7,3.5h.3s.1,0,.2,0c-.3,0-.6,0-.5,0"/>
      <path id="Path_23831" data-name="Path_2383" class="st1" d="M288.1,3.5h-.7.7"/>
      <path id="Path_23841" data-name="Path_2384" class="st1" d="M1.4,4.4c1.5,0,4,0,6.3,0,.7-.1,1.3-.1,2-.1h-2s-.2,0-.8,0h-1.8,2.8c.8,0-.5,0,.2,0h32.2c11.1,0,20,0,28.6,0h4.1c-.1,0,.5,0,1.3,0h5.6-.8,8.8c-.1,0,.6,0,1.8,0-.2,0-1.2,0-.5,0,2.4,0,5.6,0,8,0s-.9,0-1.3-.1c.8,0,1.7-.1,2.5,0h-1.5c.7,0,1.8,0,2.5,0h4.5-3,7.5-3.5c.8,0,2.9,0,3.3-.1-1,0-1.5,0-2.3,0h-2.8,24.1c1,.1,0,0,1,0-.2.1,3.9,0,4.5.1h-2.5,5.3c3.2,0,8.9,0,12,0,.2,0,.5,0,.8,0h7.1c-.2,0-.6,0,.2,0h.8c2.6,0,5.2,0,7,0h1.5c1.2,0,2.9,0,5,0h33.5c1.3,0,2.7,0,4,0,.8,0,1.9,0,3.2-.1h16.1s.2,0,0,0h3.6-1.4,1.2-1.1,2.3s-.5,0,.1,0h1.4c-.3,0-.8,0-.7,0,.6,0,1,0,.7,0h1-.8,1.6c.2,0-.6,0-.5,0,.5,0-.3,0,0,0,.9,0,1.3,0,1.8,0-.4,0-1.3,0-.7,0h2.4s-.3,0,0,0h1c-.2,0-.4,0-.3,0h1.6-1.2s.2,0,0,0h-.3,2.9c-.6,0,.5,0,0,0h-.7c-.1,0,0,0,0,0h-1.2s-.1,0-.1,0h.6c-1.2,0-.7,0-.2,0h-1.9c.4,0,.8,0,1.3,0-.4,0,.3,0,.2,0s-.7,0-.6,0h3.7-.9c.2,0,.4,0,.3,0h.8c.3,0,.6,0,.9,0h1.2-1.2.4-.9,1.5c-.9,0-.2,0-.8,0,.7,0,1.3,0,2,0h.9s-.2,0,0-.1c.1,0,1,0,.9,0h-2.2c.5,0,1.1,0,.6,0h3.6-.4c.5,0,0,0,.4,0,.6,0,0,0,.3,0h.8s-.3,0-.5,0c1.5,0,2.6,0,3.7-.1h7.9-2.1s-.8,0-.5,0h.6c1.4,0,.9,0,.8,0h-1s.2,0-.3,0c.3,0-.5,0-1.4,0h0c.2,0,.6,0,.9,0-.2,0-.5,0-.4,0h3.1-.9.7c.2,0,1.9,0,2.1.1h1.4-.4c.1,0,1.4,0,1,0h-1.2,1.3c-.2,0-.9,0-.6,0h-1.2c-.3,0-.7,0-1,0h13.2c.3,0-.5,0-.3,0,.3,0,1.1,0,.9,0,1.5,0,3.1,0,4.6,0h2.4c.1,0-.3,0,0,0,.5,0,1.6,0,1.3,0h-2.8.4-1c-.4,0-1.2,0-1.2,0h-2c.7,0,1.8,0,2.4-.1h.2c-.3,0-.4,0-.4,0,.7,0,.7,0,1.5,0h.6c-.5,0-.9,0-.8,0h2.1-.6c.1,0-.6,0-.7,0,.5,0-.1,0,.7,0-.4,0,0,0,.4,0s-.4,0,0,0c.6,0,0,0,.7,0-.1,0-.4,0,.2,0,0,0-.9,0-.4-.1h1.3-.8s0,0-.1,0h-2s-.2,0-.2,0h.4-2,3.9s0,0,.1,0h.3c.3,0,.2,0,0,0h5.6s.4,0,.2,0c0,0-.2,0,0,0h.6c.5,0,1,0,1.5,0,.6,0,1.3,0,1.9.1h-.6,1.9c.5,0-.3,0,.3,0h.3c-.2,0-.3,0,0,0h.5c-.1,0,.3,0,.8,0h3.4c.5,0,.9,0,.8,0h.5c.2,0,.1,0,0,0h.3c.7,0-.2,0,.3,0h1.9s-.7,0-.6,0c.7,0,1.3,0,1.9-.1h2.1c.2,0,0,0,0,0-.2,0,.2,0,.2,0h2.2s.2,0,.2,0h3.2c-.2,0-.4,0,0,0h.3s0,0,.1,0h2.6c.2,0,.3,0,.2,0h1.1-2s.2,0,.4,0h-3.1,1.3c.5,0-.4,0-.4.1.6,0,.4,0,.2,0,.7,0,.1,0,.7,0s-.2,0,0,0c.3,0,.8,0,.4,0,.8,0,.2,0,.7,0,0,0-.8,0-.7,0h-.6,2.1c.1,0-.3,0-.8,0h.6q.8,0,1.5,0s-.1,0-.4,0h.2c.7,0,1.7,0,2.4.1h-2s-.8,0-1.2,0h-1,.4-2.8c-.3,0,.8,0,1.3,0s-.2,0,0,0h7c-.2,0,.6,0,.9,0s-.5,0-.3,0h13.2c-.3,0-.7,0-1,0h-1.2c.3,0-.4,0-.6,0h1.3-1.2c-.3,0,.9,0,1,0h-.4,1.4c.2,0,1.9,0,2.1-.1h.7-.9,3.1-.4.9c-.9,0-1.7,0-1.4-.1-.5,0-.2,0-.3,0h-1s-.5,0,.8,0h.6c.3,0-.5,0-.5,0h-2.1s.2,0,.2,0h7.7c1.2,0,2.2.1,3.7.1h-.5.8c.3,0-.3,0,.3,0h.4-.4,3.6c-.5,0,0,0,.6,0h-2.2.9c.2,0,0,0,0,.1h.9c.7,0,1.3,0,2,0-.6,0,0,0-.8,0h1.5-.9.4-1.2,1.2c.3,0,.6,0,.9,0h.8s0,0,.3,0h-.9,3.7c.1,0-.6,0-.6,0,0,0,.6,0,.2,0,.4,0,.9,0,1.3,0h-1.9c.5,0,1-.1-.2,0h.6s-.1,0-.1,0h-1.9c-.6,0,.5,0,0,0h2.9-.3c-.2,0,0,0,0,0h-1.2,1.6-.3,1c.2,0,0,0,0,0h2.4c.6,0-.3,0-.7,0h1.8c.4,0-.4,0,0,0,0,0-.7,0-.5,0h1.6-.8,1c-.3,0,.2,0,.7,0s-.4,0-.7,0h1.4c.6,0,0,0,.1,0h2.3-1.1,1.2-1.4,3.6c-.1,0,0,0,0,0h16.1c1.3,0,2.4,0,3.2.1h37.5c2.1,0,3.8,0,5,0h1.5c1.8-.1,4.4,0,7,0h.8c.8,0,.4,0,.2,0h7.1c.3,0,.5,0,.8,0,3.1.1,8.9,0,12,0h5.3-2.5c.6,0,4.7,0,4.5-.1h1c.5-.1,1.6,0,2.5-.1h21.6-2.8c-.8,0-1.2,0-2.3,0,.4,0,2.4,0,3.3.1h-3.5,7.5c-1,0-2,0-3,0h4.5c.7,0,1.8,0,2.5,0h-1.5,2.5c-.3,0-1.4,0-1.3.1h8c.7,0-.3,0-.5,0,1.1,0,1.9,0,1.8,0h8.8-.8,11c8.6.1,17.4,0,28.5,0h1.5c4.2,0,8.7,0,12.8,0h17.9c.8,0-.5,0,.2,0h2.8-1.8c-.5,0-.8,0-.8,0h-2c.7,0,1.3,0,2,.1,2.3,0,4.8,0,6.3,0h3.1v-2h-.8.8c-2.5-.1-5-.1-7.1-.1h-2.3q-.3,0,.2,0c-2.2,0-5.5.1-8.5.1h-25.9c-2.9,0-7.4,0-9.8,0h-147.6c-1.1,0-1.6,0-2.5,0h-63.6c-1.5,0-3.7.1-5,0h-1.5c-.4,0,0,0,0,0-.6,0-.9,0-.8,0h-9.3c-.3,0-.2,0-.2,0h-8.3c-.3,0,0,0,0,0-.7,0-2.4,0-2,0h-2c-.7,0,1,0,.2,0h-5.5,2-4.4,2-5.5c-.8,0,1,0,.2,0h-2c.4,0-1.3,0-2,0,0,0,.3,0,0,0h-17.9c.2,0-.1,0-.8,0,0,0,.4,0,0,0h-1.5c-1.3,0-3.5,0-5,0h-63.6c-.9,0-1.4,0-2.5,0h-24.1c-7.2,0-14.3,0-21.5,0H15.2c-3.1,0-6.3-.1-8.5-.1.6,0,.5,0,.2,0H-.5v2.4H.6M95.9,4.1h.5s-.5,0-.5,0h0ZM244,3.9c-.7,0,0,0,0,0,.4,0,.2,0,0,0M259.2,4.1h-.5s.8,0,.5,0M259.7,4.1c-.2,0-.1,0-.1,0h.5s-.3,0-.4,0M281.2,3.6h-.7.7M317.6,3.6h.7-.7M340,4.1h-.5c-.3,0,.5,0,.5,0M339.2,4.1h-.5.5M354.8,3.8s.6,0,0,0-.3,0,0,0M502.7,4.1h-.5.5ZM512.5,3.8h2.8c-.4,0-.2,0,0,0h-2.3c-.4,0-.6,0-.5-.1M497,4h-1.3,1.3M365,3.9c-.8,0-.2,0,0,0h-1.6c.6,0,1.1,0,1.7,0M360.6,4h.8-.8M360.2,2.4h1.3-1.3M354.2,3.9h.5c-.2,0-.6,0-.5,0M352.6,3.8h.9-1.2s.3,0,.3,0M337.9,3.9c-.6,0,.1,0-.4,0h.7-.7c.6,0-.1,0-.6,0h.9M321.7,3.7h.7q.2,0,.1,0h1.9s.4,0,.4,0h-.1.9-3.8M309.3,3.4h-.5c.3,0,.6,0,.5,0M308.2,3.4h.4s.2,0,.2,0h-.7M306.1,3.4h1.6-2.1.5M302.9,3.4h.4s-.2,0-.2,0h1.6c.7,0,1.2,0,1.1.1h-.6c.2,0,.6,0,.5,0h-1c.2,0,0,0-.4,0,.3,0,.8,0,.4,0h-2.2c.5,0,.8,0,.6,0M297.7,3.6h.7-.7.8-.9M301.1,3.6h-.9.8-.7.7M297.1,3.4h.7s-.1,0-.2,0h1.2s0,0,.2,0h-1.3,3.2-.8c-.4,0,0,0-.5,0,.2,0,.3,0,.2,0h.7c.4,0,0,0,.5,0h-.2.7-.6c.2,0,.5,0,.7.1h-.7s-.2,0-.2,0h-3.7c.2,0,.5,0,.7-.1h-.6M294.2,3.4h1.6s-.2,0-.2,0h.4c-.2,0,0,0,.6,0-.2,0-.1,0,0,0h-2.2c-.4,0,.2,0,.4,0-.3,0-.6,0-.4,0h-1,.5-.6c-.2,0,.4,0,1.1-.1M291.7,3.4h.9s.5,0,.5,0h-2.1.7M290.2,3.4h.4s.1,0,0,0h-.7s.2,0,.2,0M289.9,3.4h-.5s.3,0,.5,0M273.8,3.7h.2-.1,3.1-3.8.7M261.7,4c-.5,0-1.2,0-.6,0h-.7.7c-.5,0,.2,0-.4,0h.9M246.2,3.8h.3-1.2s.5,0,.9,0M244,4h.5-.5M238.1,4h-.8.8M237.3,2.4h1.3c.4,0-1.6,0-1.3,0M235.4,3.9h-1.6s.7,0,0,0h1.7M102.9,3.9h-1.3,1.3M83.3,3.9h2.8c.1,0,0,0-.5.1h-2.3c.2,0,.4,0,0,0"/>
      <path id="Path_23851" data-name="Path_2385" class="st1" d="M292.5,3.9h-.2c-.5,0,0,0-.3,0h-3.1c.4,0,0,0-.1,0h-3.2,1.1c-.2,0-.7,0-1,0h2.1c-.2,0,.4,0,.2,0h4.1s-.8-.1-.5-.1,1.1,0,.8,0M286.9,3.9h.7c.1,0-.4,0-.7,0M288.3,4.1h.4-.5M289.4,4c.5,0-.6,0,0,0M290.6,4.1h-1.3,1.5c.6,0-.9,0-.2,0"/>
      <path id="Path_23861" data-name="Path_2386" class="st1" d="M285.8,3.8h1.2-.8c-.6,0-1.1,0-1.7.1h.8c-.4,0,.6,0,.5,0"/>
      <path id="Path_23871" data-name="Path_2387" class="st1" d="M294.7,3.9h-1.1.2c.5,0,.9,0,.7,0,.6,0,1.2,0,1.6,0h-1.2.4-.7"/>
      <path id="Path_23881" data-name="Path_2388" class="st1" d="M289.6,3.7c.5,0,.3,0,.4,0h-.5c.4,0,0,0,0,0"/>
      <path id="Path_23891" data-name="Path_2389" class="st1" d="M297.4,3.7h0"/>
      <path id="Path_23901" data-name="Path_2390" class="st1" d="M300.2,3.7h.9-.9"/>
      <path id="Path_23911" data-name="Path_2391" class="st1" d="M125.9,3.9s.6,0,.5,0h-.8s0,0,.2,0"/>
      <path id="Path_23921" data-name="Path_2392" class="st1" d="M96.9,4c.4,0-.9,0-.8,0h.8Z"/>
      <path id="Path_23931" data-name="Path_2393" class="st1" d="M99.1,4h-1.3,1.3"/>
      <path id="Path_23941" data-name="Path_2394" class="st1" d="M47.3,4.2h-.2s.8,0,.8,0h-.5"/>
      <path id="Path_23951" data-name="Path_2395" class="st1" d="M150.7,4.2c-.4,0,.9,0,.8,0h-.8"/>
      <path id="Path_23961" data-name="Path_2396" class="st1" d="M4.9,4.5h1.3-2.3,1.5H.9c1.2,0,1.3,0,1,.1h3"/>
      <path id="Path_23971" data-name="Path_2397" class="st1" d="M7.7,4.4h-2,2"/>
      <path id="Path_23981" data-name="Path_2398" class="st1" d="M2.7,4.9c7.7,0,12.3,0,20.3,0,.3,0-1.1,0-1.3,0h2.5s0,0,.5,0c2,0,4.5,0,6.5,0,0,0-.3,0,0,0-1.1,0-2.9,0-3.3,0h-2.3c.1,0,1.6,0,1.5,0h-1.5c-1,0-3.2,0-4.3,0h2.5-13.1c-3.1,0-6,0-8.3,0h-1.3S0,4.7,0,4.7h0c.8.1,1.6.1,2.4.1M20,4.8h1s-1.4,0-1,0"/>
      <path id="Path_23991" data-name="Path_2399" class="st1" d="M367,4.1h1s-.7,0-1,0"/>
      <path id="Path_24001" data-name="Path_2400" class="st1" d="M358.1,4.1c-.1,0-.6,0-.4,0h1.1-.7"/>
      <path id="Path_24011" data-name="Path_2401" class="st1" d="M338,4.2h1-1"/>
      <path id="Path_24021" data-name="Path_2402" class="st1" d="M355.5,4.1h.5s-.8,0-.5,0"/>
      <path id="Path_24031" data-name="Path_2403" class="st1" d="M334.1,4.2c-.4,0-.3,0-.2,0h1.1-.9"/>
      <path id="Path_24041" data-name="Path_2404" class="st1" d="M353.7,4.1h.7-.7"/>
      <path id="Path_24051" data-name="Path_2405" class="st1" d="M333.3,4.2s-.5,0-.4,0c-.4,0-.3,0-.2,0h.6"/>
      <path id="Path_24061" data-name="Path_2406" class="st1" d="M348.6,4.1h-1.2,1.2"/>
      <path id="Path_24071" data-name="Path_2407" class="st1" d="M345.6,4.1c.2,0,0,0,0,0h-.7s-.2,0,0,0h.7"/>
      <path id="Path_24081" data-name="Path_2408" class="st1" d="M346.9,4.1h-.5.5"/>
      <path id="Path_24091" data-name="Path_2409" class="st1" d="M329.3,4.1h3.7c-1.3,0-3.8,0-5.1,0s.3,0-.7,0h.9q.1,0,0,0h1.2M330.3,4.1h.2-1.2s1,0,1,0"/>
      <path id="Path_24101" data-name="Path_2410" class="st1" d="M344.8,4.1h-1.8s.2,0-.4,0c.4,0,0,0-.3,0h2.5"/>
      <path id="Path_24111" data-name="Path_2411" class="st1" d="M341.3,4c.4,0,.1,0,0,0-.4,0-.3,0,0,0"/>
      <path id="Path_24121" data-name="Path_2412" class="st1" d="M341.7,4h2c-.6,0-1.2-.1-1.9-.1h.6-.7"/>
      <path id="Path_24131" data-name="Path_2413" class="st1" d="M347.9,3.9c.4,0-1,0-.8,0h.8"/>
      <path id="Path_24141" data-name="Path_2414" class="st1" d="M332.1,4h-2.5s.5,0,.4,0h1c-.6,0,0,0,.4,0h1-.9.6"/>
      <path id="Path_24151" data-name="Path_2415" class="st1" d="M344.8,3.9h-1,.5-.8c.4,0,1.4,0,1.2,0"/>
      <path id="Path_24161" data-name="Path_2416" class="st1" d="M334.1,3.9h-.5.5"/>
      <path id="Path_24171" data-name="Path_2417" class="st1" d="M327.2,4c-.6,0-.5,0,0,0"/>
      <path id="Path_24181" data-name="Path_2418" class="st1" d="M303.5,4.1h-2.6,2.6"/>
      <path id="Path_24191" data-name="Path_2419" class="st1" d="M345.1,3.8h-.7c.5,0,.8,0,.7,0"/>
      <path id="Path_24201" data-name="Path_2420" class="st1" d="M299.4,4.1h1.7-3.4,1.7"/>
      <path id="Path_24211" data-name="Path_2421" class="st1" d="M304.2,4.1h-.5.5"/>
      <path id="Path_24221" data-name="Path_2422" class="st1" d="M301.3,4.1h.6c-.2,0-.8,0-.6,0"/>
      <path id="Path_24231" data-name="Path_2423" class="st1" d="M302.7,4h-.7c.3,0,.2,0,.3,0,.4,0-.2,0,.4,0"/>
      <path id="Path_24241" data-name="Path_2424" class="st1" d="M303.4,3.9c-.4,0-.7,0-.6,0h.8s-.1,0-.2,0"/>
      <path id="Path_24251" data-name="Path_2425" class="st1" d="M304.7,3.9h-.7.7"/>
      <path id="Path_24261" data-name="Path_2426" class="st1" d="M305.5,3.9h.6-.6"/>
      <path id="Path_24271" data-name="Path_2427" class="st1" d="M300.4,3.9h0c.5,0,.4,0,0,0"/>
      <path id="Path_24281" data-name="Path_2428" class="st1" d="M307.3,3.9h-1.5s.5,0,.5,0h1.1"/>
      <path id="Path_24291" data-name="Path_2429" class="st1" d="M302.2,3.9h-.2c-.5,0-.3,0,.2,0"/>
      <path id="Path_24301" data-name="Path_2430" class="st1" d="M309.1,3.8h.5-.5"/>
      <path id="Path_24311" data-name="Path_2431" class="st1" d="M310.9,3.8h1-1c.3,0,0,0,0,0"/>
      <path id="Path_24321" data-name="Path_2432" class="st1" d="M314.2,3.7h-1.1s1.7,0,1.1,0"/>
      <path id="Path_24331" data-name="Path_2433" class="st1" d="M308.8,3.7h1.2-1.2"/>
      <path id="Path_24341" data-name="Path_2434" class="st1" d="M300.8,3.8h.8-.8"/>
      <path id="Path_24351" data-name="Path_2435" class="st1" d="M306.4,3.7h-.3s.3,0,.3,0h0"/>
      <path id="Path_24361" data-name="Path_2436" class="st1" d="M315.4,3.6c-.4,0-1,0,0,0"/>
      <path id="Path_24371" data-name="Path_2437" class="st1" d="M301.4,3.6c-.4,0,0,0,.4,0h-.4"/>
      <path id="Path_24381" data-name="Path_2438" class="st1" d="M310.1,3.5h-.5s.1,0,.2,0h.3"/>
      <path id="Path_24391" data-name="Path_2439" class="st1" d="M310.7,3.5h.7-.7"/>
      <path id="Path_24401" data-name="Path_2440" class="st1" d="M313.2,3.9c-.7,0-1.4,0-2,0h-1.2s-.5,0-.1,0h-3.1c-.3,0,.3,0-.3,0h-.2c-.3,0,.4,0,.8,0s-.6,0-.5.1h4.1c-.2,0,.4,0,.2,0h2.1c-.3,0-.8,0-1,0h1.1M308.1,4.1c.7,0-.9,0-.2,0h1.5-1.3M309.4,4c.6,0-.5,0,0,0M309.9,4.1h.2c.2,0,.3,0,.2,0h-.5M311.2,3.9h.7c-.3,0-.8,0-.7,0"/>
      <path id="Path_24411" data-name="Path_2441" class="st1" d="M314.2,3.9c-.6,0-1.1,0-1.7-.1h-.8,1.2s.9,0,.5,0h.8"/>
      <path id="Path_24421" data-name="Path_2442" class="st1" d="M305.1,3.8h-1.8.4-1.2c.4,0,1,0,1.6,0-.2,0,.3,0,.7,0,0,0,.3,0,.2,0"/>
      <path id="Path_24431" data-name="Path_2443" class="st1" d="M309.2,3.6h-.5c.1,0-.1,0,.4,0,0,0-.3,0,0,0"/>
      <path id="Path_24441" data-name="Path_2444" class="st1" d="M301.3,3.7h0"/>
      <path id="Path_24451" data-name="Path_2445" class="st1" d="M297.7,3.7h.9c-.5,0-.2,0-.9,0h0Z"/>
      <path id="Path_24461" data-name="Path_2446" class="st1" d="M472.7,3.9c.3,0,.2,0,.2,0h-.8c-.1,0,.5,0,.5,0"/>
      <path id="Path_24471" data-name="Path_2447" class="st1" d="M502.5,4s-1.1,0-.8,0h.7"/>
      <path id="Path_24481" data-name="Path_2448" class="st1" d="M500.7,4.1h-1.3,1.3"/>
      <path id="Path_24491" data-name="Path_2449" class="st1" d="M550.8,4.2h.8c-.1,0-.3,0-.2,0h-.5"/>
      <path id="Path_24501" data-name="Path_2450" class="st1" d="M447.1,4.2s1.1,0,.8,0h-.8"/>
      <path id="Path_24511" data-name="Path_2451" class="st1" d="M599.2,4.5h-1.3,1.3"/>
      <path id="Path_24521" data-name="Path_2452" class="st1" d="M597.7,4.4h-4.5,1.5-2.3,1.3c1.1,0,2,0,3,0-.3,0-.2,0,1-.1"/>
      <path id="Path_24531" data-name="Path_2453" class="st1" d="M592.9,4.5h-2,2"/>
    </g>
  </g>
</svg>