<svg xmlns="http://www.w3.org/2000/svg" xmlns:xlink="http://www.w3.org/1999/xlink" width="24px" height="24px" viewBox="0 0 24 24"><title>icons / calendar</title><desc>Created with Sketch.</desc><g id="icons-/-calendar" stroke="none" stroke-width="1" fill="none" fill-rule="evenodd"><rect id="Rectangle" stroke="#984C28" fill-rule="nonzero" x="3.5" y="6.5" width="17" height="14" rx="2"></rect><path d="M8,8 L8,5" id="Line-3" stroke="#984C28" stroke-linecap="square" stroke-linejoin="round" fill-rule="nonzero"></path><path d="M16,8 L16,5" id="Line-3" stroke="#984C28" stroke-linecap="square" stroke-linejoin="round" fill-rule="nonzero"></path><path d="M5,6 L19,6 C20.1045695,6 21,6.8954305 21,8 L21,11 L3,11 L3,8 C3,6.8954305 3.8954305,6 5,6 Z" id="Rectangle" fill="#984C28" fill-rule="nonzero"></path><path d="M7,14.5 L17,14.5" id="Line-9" stroke="#984C28" stroke-linecap="square" stroke-linejoin="round" fill-rule="nonzero"></path><path d="M7,15.5 L12,15.5" id="Line-9" stroke="#984C28" stroke-linecap="square" stroke-linejoin="round" fill-rule="nonzero" transform="translate(9.500000, 15.500000) rotate(-270.000000) translate(-9.500000, -15.500000) "></path><path d="M12,15.5 L17,15.5" id="Line-9" stroke="#984C28" stroke-linecap="square" stroke-linejoin="round" fill-rule="nonzero" transform="translate(14.500000, 15.500000) rotate(-270.000000) translate(-14.500000, -15.500000) "></path><path d="M7,16.5 L17,16.5" id="Line-9" stroke="#984C28" stroke-linecap="square" stroke-linejoin="round" fill-rule="nonzero"></path></g></svg>