<?xml version="1.0" encoding="UTF-8"?>
<svg id="Layer_1" xmlns="http://www.w3.org/2000/svg" version="1.1" viewBox="0 0 94 94">
  <!-- Generator: Adobe Illustrator 29.4.0, SVG Export Plug-In . SVG Version: 2.1.0 Build 152)  -->
  <defs>
    <style>
      .st0 {
        fill: #903c14;
      }

      .st1 {
        fill: #f2bba9;
      }
    </style>
  </defs>
  <path class="st1" d="M86.5,36.7c-2.9-1.7-6.2-1.6-9.3-.7,0-1.5.4-2.6-.6-3.9-.8-1.1-2-1.5-3.2-2-4.7-1.7-11.7-2.5-18.6-2.5.2-1.1.4-2.7.4-3.1.2-3.8-1.8-8.4-4.4-11.1-5.3-5.8-15.4-6.7-21.6-1.8-8.5,6.8-8.6,18.4-.3,25.4.8.7,3.3,2.4,4.5,2.4.3,5.2.4,10.4,1.6,15.4,0,.2.3,2.5.5,3.7-4.1-1.3-10.6-1-13.5,1.2-.6.5-1.1,1.3-1.6,1.7-1.1.8-1.9.9-3,2.1-.5.6-1.2,1.9-1.7,2.3-.7.6-2.7,1.1-3.6,1.6-3,1.6-5.5,4.3-3.6,7.8.9,1.6,2.8,2.6,4.4,3.4.3.1,1.8.6,1.8.7.1.1.4,1.1.7,1.5,3.3,4.4,13.6,5,18.7,4.7,3.6-.2,12.2-1.3,14-4.9.1-.2.3-1,.3-1.1,0,0,1.2-.5,1.9-.7,5.2,1.7,13.7,1.4,17.6,0,3.9-1.4,12.8-2.6,15.4-5.8,3.8-4.8-2.8-7.6-6.5-8.7-1.1-.3-2.9-.4-3.8-.8-.1,0-.3,0-.3-.3,0-.4.8-1.4.8-1.9,4.5-.6,8.7-2.7,12.1-5.6,5.4-4.5,7.8-15.1.8-19.2ZM76.9,43.6c2.7-3,8.3-3.1,7.7,2.2-.5,4.6-4.8,7.8-9,8.9.6-3.7,1-7.4,1.3-11.1Z"/>
  <path class="st0" d="M17,16.4c.6.3,1.3,0,1.2-.7,0-.7-3.3-3.5-4-4.2-.4-.4-1.9-2.3-2.3-2.3-.1,0-.3,0-.4,0-.3,0-.7.5-.6.8,0,.8,5.4,5.4,6.1,6.4Z"/>
  <path class="st0" d="M11.7,30.3c1.2-.1,1.2-1.4-.2-1.6-1.4-.1-2.8.1-4.2.1-1,0-2.7-.3-3.6,0-1.1.2-1.1,1.4.3,1.6,2.4.2,5.2-.2,7.7,0Z"/>
  <path class="st0" d="M21.4,42.1c.8.7,3.6,2.6,4.7,2.4.4,0,.8-.9.5-1.2,0,0-1.7-.6-2-.8-13.9-7.5-7.8-29,8.5-27.4,8.3.8,13.9,7.9,13,16.2,0,.6-.6,2.3-.5,2.7,0,.2.1.3.2.4,0,0,1.3-.7,1.4-.8.2-.2.6-3.5.6-4,.2-3.8-1.8-8.4-4.4-11.1-5.3-5.8-15.4-6.7-21.6-1.8-8.5,6.8-8.6,18.4-.3,25.4Z"/>
  <path class="st0" d="M55.9,33.4c.4.2.5.3.9,0,1-.8-.2-1.3-.8-1.9-1.8-2-2.1-4.3-.1-6.3,2.2-2.3,5.9-3.6,4.3-7.8-.3-.7-1.5-3-2.4-2.4-.9.6.4,1.5.7,2.1,2.9,5.4-6.7,6-5.4,11.8.3,1.4,1.5,3.9,2.8,4.5Z"/>
  <path class="st0" d="M16.8,43.1c-1.5,1.8-4.1,3.6-5.4,5.5-.8,1.1-.1,1.9,1,1.3,1.4-1.9,3.9-3.6,5.3-5.5.8-1.1.4-1.9-.9-1.3Z"/>
  <path class="st0" d="M46.3,16.2c1.9-1.3,3.6-4.2,5.5-5.6.5-.5.2-1.5-.6-1.4-.2,0-.5.2-.7.4-1.4,1.8-3.7,3.5-5.1,5.2-.3.4-.7,1-.2,1.5.4.3.7.2,1.1,0Z"/>
  <path class="st0" d="M30.7,9.8c0,.7.7,1.3,1.3.8.6-.5.3-1.9.3-2.5,0-1.6.3-3.9.1-5.4-.2-1.6-1.5-1.6-1.7-.2-.1,1.2.1,2.6.1,3.7,0,1.1-.3,2.5-.1,3.6Z"/>
  <path class="st0" d="M81.9,44.5c-2.9-1.7-6.2-1.6-9.3-.7,0-1.5.4-2.6-.6-3.9-.8-1.1-2-1.5-3.2-2-8.6-3.2-24.8-3.1-33.7-.8-2,.5-6.7,1.9-6.6,4.5,0,1.4.3,2.9.3,4.3.3,5.6.4,11.3,1.6,16.8,0,.3.5,2.3.7,2.3.2,0,.7-.2,1.1,0,0-.3.1-.5.1-.9,0-1.3-.7-3.3-.9-4.7-.7-4.8-1-9.9-1.1-14.8,0-.2,0-.3-.1-.4.5.3,1,.6,1.6.8,8.2,3.7,24.2,3.5,32.9,1.5,2.3-.5,4.7-1.2,6.5-2.6,0,1.2,0,2.4-.1,3.6-.3,4.7-.8,9.9-1.6,14.4-1.7,9.2-5,14.8-15,15.7-1.2.1-4.7.3-5.6-.3-.3-.2-.6-.6-.9-.8-.5-.4-1.2-.9-1.7-1.2-1.1-.6-3.5-2-3.4.3,3.8.8,9.4,5,4.4,8.5-5.9,4.1-19.4,4.2-26.4,3.6-3.8-.3-12.8-1.8-15.3-4.7-3-3.6,1.5-6.7,4.7-7.5-.8,3.8,1.5,6.3,5.4,5.9.6,0,2.5-.9,2.7-.9.2,0,1,.8,1.4,1,2,1.3,4.2,1.8,6.6,1.4.9-.1,2.2-.7,3-.8.8,0,2.2.3,3.3.2.3,0,.8-.2,1-.2.1,0,.9.7,1.2.9,4.8,2.9,10.8-1.2,7.7-6.6-.7-1.2-.7-1.3-1.1-2.5-.7-2-3-3.9-4.9-4.6-.4-.1-1.5-.3-1.7-.4-.4-.3-1-1.4-1.8-1.9-3.7-2.3-12-2.4-15.6.3-.6.5-1.1,1.3-1.6,1.7-1.1.8-1.9.9-3,2.1-.5.6-1.2,1.9-1.7,2.3-.7.6-2.7,1.1-3.6,1.6-3,1.6-5.5,4.3-3.6,7.8.9,1.6,2.8,2.6,4.4,3.4.3.1,1.8.6,1.8.7.1.1.4,1.1.7,1.5,3.3,4.4,13.6,5,18.7,4.7,3.6-.2,12.2-1.3,14-4.9.1-.2.3-1,.3-1.1,0,0,2-.8,2.4-.9,1.7-.8,3.3-1.8,4.2-3.5,2.8.3,6,0,8.7-.9,2.6-.8,5-2.3,4-5.4,1.8-.9,3-2.5,4.1-4.1,3.2.7,7.3,1.3,9.8,3.5,1.6,1.3,1.3,3.2-.2,4.5-4.1,3.7-16.9,5.3-22.3,5.5-1.3,0-3.1-.2-4.3,0,0,0-.3,0-.3.2,0,.5.3.9.2,1.4,4.4,0,8.7-.2,13-.9,4.1-.7,12.8-2.6,15.4-5.8,3.8-4.8-2.8-7.6-6.5-8.7-1.1-.3-2.9-.4-3.8-.8-.1,0-.3,0-.3-.3,0-.4.8-1.4.8-1.9,4.5-.6,8.7-2.7,12.1-5.6,5.4-4.5,7.8-15.1.8-19.2ZM65.7,45c-6.9,1.7-14.4,2-21.5,1.4-3.7-.3-7.3-1-10.8-2.2,3.3-1.9,7.4-2.5,11.2-2.9,5.7-.6,12.2-.5,17.8.7,2.1.5,4.2,1.1,6.2,1.9l-2.8,1.1ZM69.6,43.4c-.9-1.4-3.3-2-4.8-2.5-7.4-2-16.7-1.9-24.3-.7-2.2.3-5.1.8-7.1,2-.3.2-1.5,1.3-1.6,1.3-.3,0-1.3-.7-1.5-1-1.2-1.7.8-2.6,2.1-3.1,6-2.5,16-2.6,22.5-2.4,4,.1,11.5.8,15,2.8,1.9,1.1,1.7,2.8-.2,3.6ZM41.6,78.4c.3,1.6.1,3.2-1.5,3.9-2.3,1.1-3.7,0-5.7-.9-.1,0-.4,0-.4,0-.1-.2.8-2.4,1-2.8.8-1.2,3.3-2.6,4.8-2.3.7.1,1.6,1.5,1.7,2.2ZM20.9,67.6c2.9-.9,6.5-.5,9.4.2,1.1.3,2,.6,2.7,1.5-4.2,1.1-7.1,5.4-7.5,9.6,0,.6-.1,1,.5,1.1.4,0,.7-.3.9-.6.3-.7.5-2.2.8-3.1,1.1-3.1,3.8-5.7,7.3-5.5,2,.1,4.4,1.8,4.9,3.9-.5,0-1.2,0-1.6,0-2.1.3-5,3.1-5.5,5.2,0,.3,0,1.2-.2,1.3-.4.1-2,0-2.4-.2-.2,0-.3-.4-.5-.4,0,0-1.3.6-1.7.8-5,1.3-9.4-.8-10.7-5.8-1.1-4.2-.7-6.6,3.7-7.9ZM15.2,71.2c.3,0,0,.1,0,.2,0,.8,0,1.7,0,2.5.2,1.9,1.4,4,2.1,5.7-1.9,1-5.7.8-5.7-2,0-2.6,1.6-4.9,3.5-6.4ZM41.3,88.9c-3.9,3.2-14.6,3.3-19.4,2.8-3.4-.4-7.9-1-10.1-3.8,3.1.9,6.3,1.4,9.6,1.7,5.5.4,11.5.4,16.9-.6,1.3-.2,2.6-.5,3.8-1,.1.1-.7.9-.8,1ZM57.7,80.9c-2.2.5-4.5.7-6.8.6l-.6-2.1c4,.2,7.9-.3,11.4-2,.3,2.6-2.1,3.1-4.1,3.6ZM72.3,51.4c2.7-3,8.3-3.1,7.7,2.2-.5,4.6-4.8,7.8-9,8.9.6-3.7,1-7.4,1.3-11.1ZM69.6,67.7c.2-.5.8-3.4,1-3.6,0,0,.5,0,.7,0,1-.2,3-1.2,3.9-1.7,3.9-2.2,7.7-7,5.8-11.7-1.4-3.5-5.8-3.2-8.5-1.6v-3.6c2.5-.5,4.3-1,6.7-.3,4.6,1.4,6,5.2,5.3,9.7-1.1,7.2-8.3,11.5-14.9,12.9Z"/>
</svg>