<?xml version="1.0" encoding="UTF-8"?>
<svg width="24px" height="24px" viewBox="0 0 24 24" version="1.1" xmlns="http://www.w3.org/2000/svg" xmlns:xlink="http://www.w3.org/1999/xlink">
    <!-- Generator: Sketch 52.5 (67469) - http://www.bohemiancoding.com/sketch -->
    <title>icons / boat / filled</title>
    <desc>Created with Sketch.</desc>
    <g id="icons-/-boat-/-filled" stroke="none" stroke-width="1" fill="none" fill-rule="evenodd">
        <g id="Group" transform="translate(4.000000, 3.000000)" fill-rule="nonzero" stroke="#984C28">
            <g id="boat" transform="translate(0.000000, 14.500000)" stroke-linecap="round" stroke-linejoin="round">
                <path d="M1.47368421,0.0526315789 L9.68421053,0.0526315789 L11.3684211,0.0526315789 L15.6372253,0.0526315789 C15.7534958,0.0526315789 15.8477516,0.146887421 15.8477516,0.263157895 C15.8477516,0.299795145 15.8381905,0.335798156 15.8200134,0.367608198 L14.7400935,2.25746791 C14.4777146,2.71663106 13.989419,3 13.4605773,3 L5.07884537,3 C3.16188493,3 1.35684699,2.04894999 0.27,0.5 C0.166575451,0.35260165 0.148971558,0.0526315789 0.434855999,0.0526315789 C0.625445627,0.0526315789 0.971721697,0.0526315789 1.47368421,0.0526315789 Z" id="base"></path>
            </g>
            <path d="M8.5,2.15138782 L1.93425855,12 L8.5,12 L8.5,2.15138782 Z" id="Rectangle"></path>
            <path d="M14.3213151,5.47902043 C12.7823182,6.72399452 11.5024173,8.89421284 10.5000078,11.9999829 C10.4999634,11.9999359 10.4999468,11.9999274 10.4999307,11.9999274 L14.3213177,12.0000253 C14.3213156,7.92691849 14.3213155,7.60971374 14.3213151,5.47901788 Z" id="Rectangle" transform="translate(12.410657, 8.600115) scale(-1, 1) translate(-12.410657, -8.600115) "></path>
        </g>
    </g>
</svg>