<?xml version="1.0" encoding="UTF-8"?>
<svg id="Layer_1" xmlns="http://www.w3.org/2000/svg" version="1.1" viewBox="0 0 94 94">
  <!-- Generator: Adobe Illustrator 29.4.0, SVG Export Plug-In . SVG Version: 2.1.0 Build 152)  -->
  <defs>
    <style>
      .st0 {
        fill: #903c14;
      }

      .st1 {
        fill: #f2bba9;
      }
    </style>
  </defs>
  <path class="st1" d="M55.6,15.7c2.9,1.5,3.3,5.5.9,7.6s-1,.7-1,.8c.5,0,1,.2,1.5.3,18.5,1.5,33.7,16.9,34.8,35.4,0,.8.2,2.4-.7,2.6-15.4,0-30.9.1-46.2.1-5.3,0-10.6,0-15.9,0-3.4,0-7,.1-10.5,0s-2.9.5-2.9-1.6.3-3.4.4-4.4c2.3-16.5,16.2-29.8,32.7-32.1.6,0,2.5,0,2.8-.2s.2-.2.1-.2c-2.9-1.3-3.5-4.5-1.6-7.1s4-2,5.7-1.1Z"/>
  <g>
    <path class="st0" d="M76.7,76.4c-.6,5-5.8,3.7-9.3,3.7-7.3,0-14.7.3-22,0-.5,0-1.2.4-1.4-.3v.4c-1.8,0-3.5-.1-5.1-.1-5.4,0-10.8.1-16.2,0-2.3,0-6.1.6-7.3-2s-.1-1.4-.5-1.6l-5.5-1.2c-2.9-1-7.5-2.8-8.4-6.1s.2-1.9,1.6-2c29.1,0,58.1-.1,87.1,0,1.1.3.8,1.7.5,2.5-1.6,4.3-9.7,6.1-13.7,6.7ZM63.5,68.4h-11.4c-14,0-27.9,0-41.9,0-2.2,0-4.9-.2-7,0s-.7,0-.9.4c.5,1.6,2.3,3.1,3.8,3.8,5.5,2.7,15.2,3.6,21.4,4,10.6.6,21.2.4,31.8,0s13.4-.4,19.9-1.9c2.9-.7,7.3-1.9,9.2-4.3s1.2-1.4.8-1.7c-1-.2-2.2,0-3.3,0-6,0-12.1,0-18,0s-2.9-.2-3.9-.1-.3.1-.4.3c-.1,0,0-.2,0-.2ZM75.3,76.8c-1.3.1-2.6.1-3.9.3-14.5,1.5-29.1,1.4-43.5.7-.7,0-1.4,0-2.1,0-3.1-.2-6.2-.8-9.3-1,.4,1.1,1.1,1.8,2.3,2.1,15.8.3,31.5,0,47.2,0s3.8.2,5.7.1,3-.4,3.6-2.2Z"/>
    <path class="st0" d="M47.9,19c2.9,1.5,3.3,5.5.9,7.6s-1,.7-1,.8c.5,0,1,.2,1.5.3,18.5,1.5,33.7,16.9,34.8,35.4,0,.8.2,2.4-.7,2.6-15.4,0-30.9.1-46.2.1-5.3,0-10.6,0-15.9,0-3.4,0-7,.1-10.5,0s-2.9.5-2.9-1.6.3-3.4.4-4.4c2.3-16.5,16.2-29.8,32.7-32.1.6,0,2.5,0,2.8-.2s.2-.2.1-.2c-2.9-1.3-3.5-4.5-1.6-7.1s4-2,5.7-1.1ZM49,23.1c0-1.8-1.5-3.2-3.2-3.2s-3.2,1.5-3.2,3.2,1.5,3.2,3.2,3.2,3.2-1.5,3.2-3.2ZM69.8,37.6c-17.2-14.7-43.7-10.5-55.4,8.8s-5.2,11.5-5.4,17.2,0,.6.2.9h73.3c0-.2.1-.4.1-.6-.1-9.7-5.7-20.1-12.9-26.3Z"/>
  </g>
</svg>