<?xml version="1.0" encoding="UTF-8"?>
<svg id="Layer_1" xmlns="http://www.w3.org/2000/svg" version="1.1" viewBox="0 0 80 80">
  <!-- Generator: Adobe Illustrator 29.5.0, SVG Export Plug-In . SVG Version: 2.1.0 Build 137)  -->
  <defs>
    <style>
      .st0 {
        fill: #874120;
      }

      .st1 {
        fill: #ebbead;
      }
    </style>
  </defs>
  <path class="st1" d="M72.1,37.9s-1-.4-1.1-.5c-1.2-.6-3.2-2.5-4.4-1.2-1.2,1.2,0,3.6,0,5,.3,3.5-2.3,5-3.4,8-1.3,3.7-1.8,6.1-5,8.7-.9.8-2.6,1.8-3.6.6-2-2.2-.2-9.8-.5-12.8-.4-3.9-4.1-3.1-6.9-3.6-7.5-1.4-5.6-11,.9-12.8,3.7-1.1,5.3,1.7,8.6,2.4,1.8.4,7,.5,6.1-2.6-.4-1.2-2.9-2.3-4-3-2.3-1.4-3.1-2.5-6.2-1.9-1.7.3-4.9,2.5-6.4,1.5-1.4-.9,1.1-2.6,1.8-3.1,1.7-1.1,3.8-1.5,3.6-4-.1-1.1-1-2.3-.9-3.4,0-.5,1.3-1.7,1.8-2,.5-.4,1.8-1.3,2.3-1.4.1,0,.9-.3,1.1-.5-3.9-2.1-8.5-3.4-13.5-3.6-1.5,0-2.9,0-4.3,0,.1.3.7.8.9.8.4,0,.5.2.6.6.5,1.4,0,3-1.2,3.9-2.2,1.8-5.9.2-8.5,2.2-1.2.9-.9,2.1-1.4,3.4-1,2.7-3.5,3.1-5.7,4.3-2.5,1.4-6.2,4.9-6,8,.1,2.6,2.9,2.1,3.9,3.7.6.9.3,2.4,1.1,3.2.6.7,2.4.8,3.4,1.1,3.9,1,5.7,3.8,9.2,5,2.2.7,4.1.5,2.9,3.6-1.4,3.7-4.9,5.4-6.4,8.9-.9,2.1-.9,3.7-1,5.9,0,.2,0,1.2-.1,1.2-.2.4-1.1.2-1.5,0-1-.4-2.3-2.3-2.7-3.3-1.4-3.1-.3-6.9-2-9.9-1.4-2.4-4.4-3-4.1-6.3.1-1.5.9-3.2,1-4.7,0-.6-.2-.9-.5-1.4-1.9-2.7-6.7-4.8-7-8.3-.1-1.4-.5-3.7-.8-3.8-4.7,9.8-4.5,22,3.1,32.3,11.5,15.6,33.7,17.7,47.9,4.2,7.2-6.9,10.2-15.7,9.8-24.2-.3-.2-.8-.5-.8-.4Z"/>
  <path class="st0" d="M60.2,66c-14.1,13.5-36.4,11.4-48-4.2-15.9-21.5.7-51.7,27.2-50.6,27.9,1.2,41,35.4,20.7,54.8ZM9.3,33.6c0-.7,0-1.6,0-2.4l-.9,2.3c-4.7,14.6,1.6,29.7,14.9,36.9,20.4,11.1,45-3.4,46-26.4,0-.4,0-1.1,0-1.6s0-.2-.1-.3c-.3-.3-1.1-.5-1.6-.8s-2.4-1.6-2.9-1.6-.8.8-.8,1.2c0,.9.6,2.3.7,3.4.3,3.1-1.4,4.6-2.8,7s-1.3,4.2-2.5,6.2c-1.2,2.2-6.2,8.3-8.5,4.4s-.5-7.7-.3-10.8c.1-2.9-.2-4.4-3.2-4.7s-5.9-.1-7.7-3.2c-2.9-5,1.6-11.3,7-11.7s3.7,1.3,5.8,2.1,4.7,1.2,6.2.2.7-.9.5-1.4-2.3-1.5-3-1.9c-2.5-1.5-3.3-3-6.7-2.2s-5.2,2.7-6.9,1.1.3-3.1,1.5-3.9,3.4-1.6,3.8-2.6-.7-2.6-.8-3.8c-.2-2.1,2.4-3.5,3.9-4.6s.2,0,.1-.2c-4.3-1.8-8.9-2.8-13.6-2.7,1,2.4-.4,5.3-2.9,6.1s-4.7,0-6.6,1.1-1,2-1.6,3.4c-1.5,3.6-5.6,3.8-8.3,6.2s-4.7,5.2-3,6.9,2.3.8,3.3,2.1.4,1.7.8,2.7,2.5,1.2,3.5,1.5c3.8,1,5.3,3.6,8.5,4.8s4.1.5,4.3,2.6c.4,4.2-5.1,7.4-6.6,10.8s-1,3.3-1.2,4.9.4,3.5-1.7,3.2c-1.9-.3-3.7-3.1-4.3-4.7-1.1-3.4,0-7.2-2.5-10.1-2.4-2.6-4-3.1-3.2-7.2s1.4-3.1,0-4.7c-2-2.4-6.4-4.5-6.8-8ZM18.9,41.5c-.8-.9-.5-2.4-1.1-3.2-1-1.6-3.8-1.1-3.9-3.7s3.5-6.7,6.1-8.1,4.7-1.6,5.7-4.4.2-2.5,1.4-3.4c2.6-2,6.3-.4,8.6-2.2s1.7-2.6,1.2-3.9-.2-.6-.6-.6c-1,0-2.6.3-3.7.5-8.6,1.5-15.7,6.2-20.5,13.4s-2.3,4.1-2,7.3,5.1,5.6,7,8.3.6.8.5,1.4c-.1,1.5-.9,3.2-1,4.7-.2,3.4,2.8,4,4.1,6.4s.7,6.8,2,9.9,1.7,2.9,2.7,3.3,1.3.4,1.5,0,.1-1,.1-1.2c.1-2.2.1-3.9,1-6,1.5-3.5,5-5.2,6.4-8.9s-.8-2.9-3-3.6c-3.5-1.2-5.3-4-9.2-5s-2.7-.3-3.4-1.1ZM69.2,41.4c-.4-10.6-6.8-20.4-16-25.5-.3-.2-1-.6-1.3-.6-.5,0-1.9,1-2.3,1.4s-1.7,1.5-1.8,2c-.2,1.1.7,2.3.9,3.4.2,2.5-1.9,3-3.6,4.1s-3.2,2.2-1.8,3.1,4.7-1.1,6.4-1.5c3.1-.6,3.9.5,6.2,1.9,1.1.7,3.7,1.8,4,3,.9,3.1-4.3,2.9-6.1,2.6-3.3-.7-4.8-3.4-8.6-2.4-6.5,1.8-8.5,11.4-.9,12.8s6.5-.3,6.9,3.6c.3,3-1.5,10.6.5,12.8s2.7.1,3.7-.6c3.2-2.6,3.7-5.1,5-8.8s3.7-4.5,3.4-8-1.2-3.8,0-5.1c1.2-1.3,3.3.6,4.4,1.2s1,.6,1.1.5Z"/>
</svg>