<svg xmlns="http://www.w3.org/2000/svg" width="80" height="80" viewBox="0 0 80 80" fill="none"><path d="M49.0094 4C42.6923 23.7409 42.6923 39.9285 49.0094 52.5627C45.8508 52.5627 34.2391 52.5627 14.1742 52.5627L49.0094 4Z" fill="#EBBEAD"></path><path d="M45.087 6.3689L45.5632 6.52128C45.6382 6.28689 45.5315 6.03278 45.3117 5.92221C45.0918 5.81163 44.8242 5.87749 44.6807 6.07746L45.087 6.3689ZM45.087 54.9316V55.4316H45.896L45.5342 54.708L45.087 54.9316ZM10.2518 54.9316L9.84555 54.6402L9.27783 55.4316H10.2518V54.9316ZM44.6108 6.21651C38.2724 26.0241 38.2419 42.3595 44.6398 55.1552L45.5342 54.708C39.2979 42.2354 39.2674 26.1956 45.5632 6.52128L44.6108 6.21651ZM45.087 54.4316C45.0808 54.4316 45.0746 54.4316 45.0684 54.4316C45.0622 54.4316 45.0559 54.4316 45.0496 54.4316C45.0433 54.4316 45.037 54.4316 45.0306 54.4316C45.0243 54.4316 45.0179 54.4316 45.0114 54.4316C45.005 54.4316 44.9985 54.4316 44.9921 54.4316C44.9856 54.4316 44.979 54.4316 44.9725 54.4316C44.9659 54.4316 44.9593 54.4316 44.9527 54.4316C44.9461 54.4316 44.9394 54.4316 44.9328 54.4316C44.9261 54.4316 44.9194 54.4316 44.9126 54.4316C44.9059 54.4316 44.8991 54.4316 44.8923 54.4316C44.8854 54.4316 44.8786 54.4316 44.8717 54.4316C44.8648 54.4316 44.8579 54.4316 44.851 54.4316C44.8441 54.4316 44.8371 54.4316 44.8301 54.4316C44.8231 54.4316 44.816 54.4316 44.8089 54.4316C44.8019 54.4316 44.7948 54.4316 44.7876 54.4316C44.7805 54.4316 44.7733 54.4316 44.7661 54.4316C44.7589 54.4316 44.7517 54.4316 44.7444 54.4316C44.7372 54.4316 44.7299 54.4316 44.7225 54.4316C44.7152 54.4316 44.7078 54.4316 44.7005 54.4316C44.6931 54.4316 44.6856 54.4316 44.6782 54.4316C44.6707 54.4316 44.6632 54.4316 44.6557 54.4316C44.6482 54.4316 44.6406 54.4316 44.633 54.4316C44.6254 54.4316 44.6178 54.4316 44.6102 54.4316C44.6025 54.4316 44.5948 54.4316 44.5871 54.4316C44.5794 54.4316 44.5717 54.4316 44.5639 54.4316C44.5561 54.4316 44.5483 54.4316 44.5404 54.4316C44.5326 54.4316 44.5247 54.4316 44.5168 54.4316C44.5089 54.4316 44.5009 54.4316 44.493 54.4316C44.485 54.4316 44.477 54.4316 44.4689 54.4316C44.4609 54.4316 44.4528 54.4316 44.4447 54.4316C44.4366 54.4316 44.4285 54.4316 44.4203 54.4316C44.4122 54.4316 44.404 54.4316 44.3957 54.4316C44.3875 54.4316 44.3792 54.4316 44.3709 54.4316C44.3626 54.4316 44.3543 54.4316 44.3459 54.4316C44.3376 54.4316 44.3292 54.4316 44.3208 54.4316C44.3123 54.4316 44.3039 54.4316 44.2954 54.4316C44.2869 54.4316 44.2784 54.4316 44.2698 54.4316C44.2613 54.4316 44.2527 54.4316 44.244 54.4316C44.2354 54.4316 44.2268 54.4316 44.2181 54.4316C44.2094 54.4316 44.2007 54.4316 44.1919 54.4316C44.1832 54.4316 44.1744 54.4316 44.1656 54.4316C44.1568 54.4316 44.1479 54.4316 44.1391 54.4316C44.1302 54.4316 44.1213 54.4316 44.1123 54.4316C44.1034 54.4316 44.0944 54.4316 44.0854 54.4316C44.0764 54.4316 44.0674 54.4316 44.0583 54.4316C44.0492 54.4316 44.0401 54.4316 44.031 54.4316C44.0218 54.4316 44.0127 54.4316 44.0035 54.4316C43.9943 54.4316 43.985 54.4316 43.9758 54.4316C43.9665 54.4316 43.9572 54.4316 43.9479 54.4316C43.9386 54.4316 43.9292 54.4316 43.9198 54.4316C43.9104 54.4316 43.901 54.4316 43.8915 54.4316C43.8821 54.4316 43.8726 54.4316 43.8631 54.4316C43.8535 54.4316 43.844 54.4316 43.8344 54.4316C43.8248 54.4316 43.8152 54.4316 43.8055 54.4316C43.7959 54.4316 43.7862 54.4316 43.7765 54.4316C43.7668 54.4316 43.757 54.4316 43.7472 54.4316C43.7375 54.4316 43.7276 54.4316 43.7178 54.4316C43.708 54.4316 43.6981 54.4316 43.6882 54.4316C43.6783 54.4316 43.6683 54.4316 43.6583 54.4316C43.6484 54.4316 43.6384 54.4316 43.6283 54.4316C43.6183 54.4316 43.6082 54.4316 43.5981 54.4316C43.588 54.4316 43.5779 54.4316 43.5677 54.4316C43.5575 54.4316 43.5473 54.4316 43.5371 54.4316C43.5269 54.4316 43.5166 54.4316 43.5063 54.4316C43.496 54.4316 43.4857 54.4316 43.4753 54.4316C43.465 54.4316 43.4546 54.4316 43.4441 54.4316C43.4337 54.4316 43.4233 54.4316 43.4128 54.4316C43.4023 54.4316 43.3918 54.4316 43.3812 54.4316C43.3706 54.4316 43.3601 54.4316 43.3494 54.4316C43.3388 54.4316 43.3282 54.4316 43.3175 54.4316C43.3068 54.4316 43.2961 54.4316 43.2853 54.4316C43.2746 54.4316 43.2638 54.4316 43.253 54.4316C43.2422 54.4316 43.2313 54.4316 43.2205 54.4316C43.2096 54.4316 43.1987 54.4316 43.1877 54.4316C43.1768 54.4316 43.1658 54.4316 43.1548 54.4316C43.1438 54.4316 43.1328 54.4316 43.1217 54.4316C43.1106 54.4316 43.0995 54.4316 43.0884 54.4316C43.0773 54.4316 43.0661 54.4316 43.0549 54.4316C43.0437 54.4316 43.0325 54.4316 43.0212 54.4316C43.0099 54.4316 42.9986 54.4316 42.9873 54.4316C42.976 54.4316 42.9646 54.4316 42.9532 54.4316C42.9418 54.4316 42.9304 54.4316 42.919 54.4316C42.9075 54.4316 42.896 54.4316 42.8845 54.4316C42.873 54.4316 42.8614 54.4316 42.8498 54.4316C42.8382 54.4316 42.8266 54.4316 42.815 54.4316C42.8033 54.4316 42.7916 54.4316 42.7799 54.4316C42.7682 54.4316 42.7565 54.4316 42.7447 54.4316C42.7329 54.4316 42.7211 54.4316 42.7092 54.4316C42.6974 54.4316 42.6855 54.4316 42.6736 54.4316C42.6617 54.4316 42.6498 54.4316 42.6378 54.4316C42.6258 54.4316 42.6138 54.4316 42.6018 54.4316C42.5897 54.4316 42.5777 54.4316 42.5656 54.4316C42.5535 54.4316 42.5413 54.4316 42.5292 54.4316C42.517 54.4316 42.5048 54.4316 42.4926 54.4316C42.4803 54.4316 42.4681 54.4316 42.4558 54.4316C42.4435 54.4316 42.4311 54.4316 42.4188 54.4316C42.4064 54.4316 42.394 54.4316 42.3816 54.4316C42.3692 54.4316 42.3567 54.4316 42.3442 54.4316C42.3317 54.4316 42.3192 54.4316 42.3067 54.4316C42.2941 54.4316 42.2815 54.4316 42.2689 54.4316C42.2563 54.4316 42.2436 54.4316 42.231 54.4316C42.2183 54.4316 42.2056 54.4316 42.1928 54.4316C42.1801 54.4316 42.1673 54.4316 42.1545 54.4316C42.1417 54.4316 42.1288 54.4316 42.1159 54.4316C42.1031 54.4316 42.0902 54.4316 42.0772 54.4316C42.0643 54.4316 42.0513 54.4316 42.0383 54.4316C42.0253 54.4316 42.0123 54.4316 41.9992 54.4316C41.9861 54.4316 41.973 54.4316 41.9599 54.4316C41.9467 54.4316 41.9336 54.4316 41.9204 54.4316C41.9072 54.4316 41.8939 54.4316 41.8807 54.4316C41.8674 54.4316 41.8541 54.4316 41.8408 54.4316C41.8275 54.4316 41.8141 54.4316 41.8007 54.4316C41.7873 54.4316 41.7739 54.4316 41.7604 54.4316C41.747 54.4316 41.7335 54.4316 41.72 54.4316C41.7065 54.4316 41.6929 54.4316 41.6793 54.4316C41.6657 54.4316 41.6521 54.4316 41.6385 54.4316C41.6248 54.4316 41.6111 54.4316 41.5974 54.4316C41.5837 54.4316 41.57 54.4316 41.5562 54.4316C41.5424 54.4316 41.5286 54.4316 41.5147 54.4316C41.5009 54.4316 41.487 54.4316 41.4731 54.4316C41.4592 54.4316 41.4453 54.4316 41.4313 54.4316C41.4173 54.4316 41.4033 54.4316 41.3893 54.4316C41.3752 54.4316 41.3612 54.4316 41.3471 54.4316C41.333 54.4316 41.3188 54.4316 41.3047 54.4316C41.2905 54.4316 41.2763 54.4316 41.2621 54.4316C41.2478 54.4316 41.2336 54.4316 41.2193 54.4316C41.205 54.4316 41.1907 54.4316 41.1763 54.4316C41.1619 54.4316 41.1475 54.4316 41.1331 54.4316C41.1187 54.4316 41.1042 54.4316 41.0898 54.4316C41.0753 54.4316 41.0607 54.4316 41.0462 54.4316C41.0316 54.4316 41.0171 54.4316 41.0024 54.4316C40.9878 54.4316 40.9732 54.4316 40.9585 54.4316C40.9438 54.4316 40.9291 54.4316 40.9143 54.4316C40.8996 54.4316 40.8848 54.4316 40.87 54.4316C40.8552 54.4316 40.8404 54.4316 40.8255 54.4316C40.8106 54.4316 40.7957 54.4316 40.7808 54.4316C40.7658 54.4316 40.7508 54.4316 40.7358 54.4316C40.7208 54.4316 40.7058 54.4316 40.6907 54.4316C40.6757 54.4316 40.6606 54.4316 40.6454 54.4316C40.6303 54.4316 40.6151 54.4316 40.5999 54.4316C40.5847 54.4316 40.5695 54.4316 40.5542 54.4316C40.539 54.4316 40.5237 54.4316 40.5084 54.4316C40.493 54.4316 40.4777 54.4316 40.4623 54.4316C40.4469 54.4316 40.4315 54.4316 40.416 54.4316C40.4005 54.4316 40.3851 54.4316 40.3695 54.4316C40.354 54.4316 40.3385 54.4316 40.3229 54.4316C40.3073 54.4316 40.2917 54.4316 40.276 54.4316C40.2604 54.4316 40.2447 54.4316 40.229 54.4316C40.2133 54.4316 40.1975 54.4316 40.1817 54.4316C40.166 54.4316 40.1502 54.4316 40.1343 54.4316C40.1185 54.4316 40.1026 54.4316 40.0867 54.4316C40.0708 54.4316 40.0548 54.4316 40.0389 54.4316C40.0229 54.4316 40.0069 54.4316 39.9909 54.4316C39.9748 54.4316 39.9587 54.4316 39.9426 54.4316C39.9265 54.4316 39.9104 54.4316 39.8943 54.4316C39.8781 54.4316 39.8619 54.4316 39.8457 54.4316C39.8294 54.4316 39.8132 54.4316 39.7969 54.4316C39.7806 54.4316 39.7642 54.4316 39.7479 54.4316C39.7315 54.4316 39.7151 54.4316 39.6987 54.4316C39.6823 54.4316 39.6658 54.4316 39.6494 54.4316C39.6329 54.4316 39.6163 54.4316 39.5998 54.4316C39.5832 54.4316 39.5667 54.4316 39.55 54.4316C39.5334 54.4316 39.5168 54.4316 39.5001 54.4316C39.4834 54.4316 39.4667 54.4316 39.4499 54.4316C39.4332 54.4316 39.4164 54.4316 39.3996 54.4316C39.3828 54.4316 39.366 54.4316 39.3491 54.4316C39.3322 54.4316 39.3153 54.4316 39.2984 54.4316C39.2814 54.4316 39.2645 54.4316 39.2474 54.4316C39.2304 54.4316 39.2134 54.4316 39.1963 54.4316C39.1793 54.4316 39.1622 54.4316 39.145 54.4316C39.1279 54.4316 39.1107 54.4316 39.0935 54.4316C39.0763 54.4316 39.0591 54.4316 39.0419 54.4316C39.0246 54.4316 39.0073 54.4316 38.99 54.4316C38.9726 54.4316 38.9553 54.4316 38.9379 54.4316C38.9205 54.4316 38.9031 54.4316 38.8856 54.4316C38.8682 54.4316 38.8507 54.4316 38.8332 54.4316C38.8156 54.4316 38.7981 54.4316 38.7805 54.4316C38.7629 54.4316 38.7453 54.4316 38.7277 54.4316C38.71 54.4316 38.6923 54.4316 38.6746 54.4316C38.6569 54.4316 38.6392 54.4316 38.6214 54.4316C38.6036 54.4316 38.5858 54.4316 38.568 54.4316C38.5501 54.4316 38.5322 54.4316 38.5143 54.4316C38.4964 54.4316 38.4785 54.4316 38.4605 54.4316C38.4425 54.4316 38.4245 54.4316 38.4065 54.4316C38.3885 54.4316 38.3704 54.4316 38.3523 54.4316C38.3342 54.4316 38.3161 54.4316 38.2979 54.4316C38.2797 54.4316 38.2615 54.4316 38.2433 54.4316C38.2251 54.4316 38.2068 54.4316 38.1885 54.4316C38.1702 54.4316 38.1519 54.4316 38.1335 54.4316C38.1152 54.4316 38.0968 54.4316 38.0784 54.4316C38.06 54.4316 38.0415 54.4316 38.023 54.4316C38.0045 54.4316 37.986 54.4316 37.9675 54.4316C37.9489 54.4316 37.9303 54.4316 37.9117 54.4316C37.8931 54.4316 37.8744 54.4316 37.8558 54.4316C37.8371 54.4316 37.8184 54.4316 37.7996 54.4316C37.7809 54.4316 37.7621 54.4316 37.7433 54.4316C37.7245 54.4316 37.7056 54.4316 37.6868 54.4316C37.6679 54.4316 37.649 54.4316 37.63 54.4316C37.6111 54.4316 37.5921 54.4316 37.5731 54.4316C37.5541 54.4316 37.5351 54.4316 37.516 54.4316C37.497 54.4316 37.4779 54.4316 37.4587 54.4316C37.4396 54.4316 37.4204 54.4316 37.4012 54.4316C37.382 54.4316 37.3628 54.4316 37.3435 54.4316C37.3243 54.4316 37.305 54.4316 37.2857 54.4316C37.2663 54.4316 37.247 54.4316 37.2276 54.4316C37.2082 54.4316 37.1888 54.4316 37.1693 54.4316C37.1499 54.4316 37.1304 54.4316 37.1109 54.4316C37.0913 54.4316 37.0718 54.4316 37.0522 54.4316C37.0326 54.4316 37.013 54.4316 36.9934 54.4316C36.9737 54.4316 36.954 54.4316 36.9343 54.4316C36.9146 54.4316 36.8949 54.4316 36.8751 54.4316C36.8553 54.4316 36.8355 54.4316 36.8157 54.4316C36.7958 54.4316 36.7759 54.4316 36.756 54.4316C36.7361 54.4316 36.7162 54.4316 36.6962 54.4316C36.6763 54.4316 36.6563 54.4316 36.6362 54.4316C36.6162 54.4316 36.5961 54.4316 36.576 54.4316C36.5559 54.4316 36.5358 54.4316 36.5156 54.4316C36.4955 54.4316 36.4753 54.4316 36.455 54.4316C36.4348 54.4316 36.4145 54.4316 36.3943 54.4316C36.374 54.4316 36.3536 54.4316 36.3333 54.4316C36.3129 54.4316 36.2925 54.4316 36.2721 54.4316C36.2517 54.4316 36.2312 54.4316 36.2107 54.4316C36.1903 54.4316 36.1697 54.4316 36.1492 54.4316C36.1286 54.4316 36.1081 54.4316 36.0874 54.4316C36.0668 54.4316 36.0462 54.4316 36.0255 54.4316C36.0048 54.4316 35.9841 54.4316 35.9634 54.4316C35.9426 54.4316 35.9218 54.4316 35.901 54.4316C35.8802 54.4316 35.8594 54.4316 35.8385 54.4316C35.8176 54.4316 35.7967 54.4316 35.7758 54.4316C35.7549 54.4316 35.7339 54.4316 35.7129 54.4316C35.6919 54.4316 35.6708 54.4316 35.6498 54.4316C35.6287 54.4316 35.6076 54.4316 35.5865 54.4316C35.5653 54.4316 35.5442 54.4316 35.523 54.4316C35.5018 54.4316 35.4806 54.4316 35.4593 54.4316C35.438 54.4316 35.4167 54.4316 35.3954 54.4316C35.3741 54.4316 35.3527 54.4316 35.3314 54.4316C35.31 54.4316 35.2885 54.4316 35.2671 54.4316C35.2456 54.4316 35.2241 54.4316 35.2026 54.4316C35.1811 54.4316 35.1596 54.4316 35.138 54.4316C35.1164 54.4316 35.0948 54.4316 35.0731 54.4316C35.0515 54.4316 35.0298 54.4316 35.0081 54.4316C34.9864 54.4316 34.9646 54.4316 34.9429 54.4316C34.9211 54.4316 34.8993 54.4316 34.8774 54.4316C34.8556 54.4316 34.8337 54.4316 34.8118 54.4316C34.7899 54.4316 34.768 54.4316 34.746 54.4316C34.724 54.4316 34.702 54.4316 34.68 54.4316C34.658 54.4316 34.6359 54.4316 34.6138 54.4316C34.5917 54.4316 34.5696 54.4316 34.5474 54.4316C34.5252 54.4316 34.503 54.4316 34.4808 54.4316C34.4586 54.4316 34.4363 54.4316 34.414 54.4316C34.3918 54.4316 34.3694 54.4316 34.3471 54.4316C34.3247 54.4316 34.3023 54.4316 34.2799 54.4316C34.2575 54.4316 34.235 54.4316 34.2125 54.4316C34.1901 54.4316 34.1675 54.4316 34.145 54.4316C34.1224 54.4316 34.0999 54.4316 34.0772 54.4316C34.0546 54.4316 34.032 54.4316 34.0093 54.4316C33.9866 54.4316 33.9639 54.4316 33.9412 54.4316C33.9184 54.4316 33.8956 54.4316 33.8728 54.4316C33.85 54.4316 33.8272 54.4316 33.8043 54.4316C33.7814 54.4316 33.7585 54.4316 33.7356 54.4316C33.7127 54.4316 33.6897 54.4316 33.6667 54.4316C33.6437 54.4316 33.6207 54.4316 33.5976 54.4316C33.5745 54.4316 33.5514 54.4316 33.5283 54.4316C33.5052 54.4316 33.482 54.4316 33.4588 54.4316C33.4356 54.4316 33.4124 54.4316 33.3891 54.4316C33.3659 54.4316 33.3426 54.4316 33.3193 54.4316C33.2959 54.4316 33.2726 54.4316 33.2492 54.4316C33.2258 54.4316 33.2024 54.4316 33.1789 54.4316C33.1555 54.4316 33.132 54.4316 33.1085 54.4316C33.0849 54.4316 33.0614 54.4316 33.0378 54.4316C33.0142 54.4316 32.9906 54.4316 32.967 54.4316C32.9433 54.4316 32.9196 54.4316 32.8959 54.4316C32.8722 54.4316 32.8485 54.4316 32.8247 54.4316C32.8009 54.4316 32.7771 54.4316 32.7533 54.4316C32.7294 54.4316 32.7056 54.4316 32.6817 54.4316C32.6578 54.4316 32.6338 54.4316 32.6099 54.4316C32.5859 54.4316 32.5619 54.4316 32.5379 54.4316C32.5138 54.4316 32.4898 54.4316 32.4657 54.4316C32.4416 54.4316 32.4174 54.4316 32.3933 54.4316C32.3691 54.4316 32.3449 54.4316 32.3207 54.4316C32.2965 54.4316 32.2722 54.4316 32.2479 54.4316C32.2236 54.4316 32.1993 54.4316 32.1749 54.4316C32.1506 54.4316 32.1262 54.4316 32.1018 54.4316C32.0773 54.4316 32.0529 54.4316 32.0284 54.4316C32.0039 54.4316 31.9794 54.4316 31.9549 54.4316C31.9303 54.4316 31.9057 54.4316 31.8811 54.4316C31.8565 54.4316 31.8319 54.4316 31.8072 54.4316C31.7825 54.4316 31.7578 54.4316 31.733 54.4316C31.7083 54.4316 31.6835 54.4316 31.6587 54.4316C31.6339 54.4316 31.6091 54.4316 31.5842 54.4316C31.5593 54.4316 31.5344 54.4316 31.5095 54.4316C31.4845 54.4316 31.4596 54.4316 31.4346 54.4316C31.4096 54.4316 31.3845 54.4316 31.3595 54.4316C31.3344 54.4316 31.3093 54.4316 31.2842 54.4316C31.2591 54.4316 31.2339 54.4316 31.2087 54.4316C31.1835 54.4316 31.1583 54.4316 31.133 54.4316C31.1078 54.4316 31.0825 54.4316 31.0571 54.4316C31.0318 54.4316 31.0065 54.4316 30.9811 54.4316C30.9557 54.4316 30.9303 54.4316 30.9048 54.4316C30.8794 54.4316 30.8539 54.4316 30.8284 54.4316C30.8028 54.4316 30.7773 54.4316 30.7517 54.4316C30.7261 54.4316 30.7005 54.4316 30.6749 54.4316C30.6492 54.4316 30.6236 54.4316 30.5978 54.4316C30.5721 54.4316 30.5464 54.4316 30.5206 54.4316C30.4948 54.4316 30.469 54.4316 30.4432 54.4316C30.4174 54.4316 30.3915 54.4316 30.3656 54.4316C30.3397 54.4316 30.3137 54.4316 30.2878 54.4316C30.2618 54.4316 30.2358 54.4316 30.2098 54.4316C30.1837 54.4316 30.1577 54.4316 30.1316 54.4316C30.1055 54.4316 30.0793 54.4316 30.0532 54.4316C30.027 54.4316 30.0008 54.4316 29.9746 54.4316C29.9484 54.4316 29.9221 54.4316 29.8958 54.4316C29.8695 54.4316 29.8432 54.4316 29.8169 54.4316C29.7905 54.4316 29.7641 54.4316 29.7377 54.4316C29.7113 54.4316 29.6848 54.4316 29.6583 54.4316C29.6319 54.4316 29.6053 54.4316 29.5788 54.4316C29.5522 54.4316 29.5257 54.4316 29.4991 54.4316C29.4724 54.4316 29.4458 54.4316 29.4191 54.4316C29.3924 54.4316 29.3657 54.4316 29.339 54.4316C29.3122 54.4316 29.2855 54.4316 29.2587 54.4316C29.2319 54.4316 29.205 54.4316 29.1781 54.4316C29.1513 54.4316 29.1244 54.4316 29.0974 54.4316C29.0705 54.4316 29.0435 54.4316 29.0165 54.4316C28.9895 54.4316 28.9625 54.4316 28.9354 54.4316C28.9084 54.4316 28.8813 54.4316 28.8541 54.4316C28.827 54.4316 28.7999 54.4316 28.7727 54.4316C28.7455 54.4316 28.7182 54.4316 28.691 54.4316C28.6637 54.4316 28.6364 54.4316 28.6091 54.4316C28.5818 54.4316 28.5544 54.4316 28.527 54.4316C28.4997 54.4316 28.4722 54.4316 28.4448 54.4316C28.4173 54.4316 28.3899 54.4316 28.3623 54.4316C28.3348 54.4316 28.3073 54.4316 28.2797 54.4316C28.2521 54.4316 28.2245 54.4316 28.1969 54.4316C28.1692 54.4316 28.1415 54.4316 28.1138 54.4316C28.0861 54.4316 28.0584 54.4316 28.0306 54.4316C28.0028 54.4316 27.975 54.4316 27.9472 54.4316C27.9193 54.4316 27.8915 54.4316 27.8636 54.4316C27.8357 54.4316 27.8077 54.4316 27.7798 54.4316C27.7518 54.4316 27.7238 54.4316 27.6958 54.4316C27.6677 54.4316 27.6397 54.4316 27.6116 54.4316C27.5835 54.4316 27.5553 54.4316 27.5272 54.4316C27.499 54.4316 27.4708 54.4316 27.4426 54.4316C27.4144 54.4316 27.3861 54.4316 27.3578 54.4316C27.3295 54.4316 27.3012 54.4316 27.2729 54.4316C27.2445 54.4316 27.2161 54.4316 27.1877 54.4316C27.1593 54.4316 27.1308 54.4316 27.1023 54.4316C27.0739 54.4316 27.0453 54.4316 27.0168 54.4316C26.9882 54.4316 26.9597 54.4316 26.9311 54.4316C26.9024 54.4316 26.8738 54.4316 26.8451 54.4316C26.8164 54.4316 26.7877 54.4316 26.759 54.4316C26.7303 54.4316 26.7015 54.4316 26.6727 54.4316C26.6439 54.4316 26.615 54.4316 26.5862 54.4316C26.5573 54.4316 26.5284 54.4316 26.4995 54.4316C26.4705 54.4316 26.4415 54.4316 26.4125 54.4316C26.3836 54.4316 26.3545 54.4316 26.3255 54.4316C26.2964 54.4316 26.2673 54.4316 26.2382 54.4316C26.209 54.4316 26.1799 54.4316 26.1507 54.4316C26.1215 54.4316 26.0923 54.4316 26.063 54.4316C26.0338 54.4316 26.0045 54.4316 25.9751 54.4316C25.9458 54.4316 25.9165 54.4316 25.8871 54.4316C25.8577 54.4316 25.8283 54.4316 25.7988 54.4316C25.7694 54.4316 25.7399 54.4316 25.7104 54.4316C25.6809 54.4316 25.6513 54.4316 25.6217 54.4316C25.5921 54.4316 25.5625 54.4316 25.5329 54.4316C25.5032 54.4316 25.4736 54.4316 25.4439 54.4316C25.4142 54.4316 25.3844 54.4316 25.3546 54.4316C25.3249 54.4316 25.2951 54.4316 25.2652 54.4316C25.2354 54.4316 25.2055 54.4316 25.1756 54.4316C25.1457 54.4316 25.1158 54.4316 25.0858 54.4316C25.0558 54.4316 25.0258 54.4316 24.9958 54.4316C24.9658 54.4316 24.9357 54.4316 24.9056 54.4316C24.8755 54.4316 24.8454 54.4316 24.8152 54.4316C24.7851 54.4316 24.7549 54.4316 24.7247 54.4316C24.6944 54.4316 24.6642 54.4316 24.6339 54.4316C24.6036 54.4316 24.5733 54.4316 24.5429 54.4316C24.5126 54.4316 24.4822 54.4316 24.4518 54.4316C24.4213 54.4316 24.3909 54.4316 24.3604 54.4316C24.3299 54.4316 24.2994 54.4316 24.2689 54.4316C24.2383 54.4316 24.2077 54.4316 24.1771 54.4316C24.1465 54.4316 24.1159 54.4316 24.0852 54.4316C24.0545 54.4316 24.0238 54.4316 23.9931 54.4316C23.9623 54.4316 23.9316 54.4316 23.9008 54.4316C23.8699 54.4316 23.8391 54.4316 23.8082 54.4316C23.7774 54.4316 23.7465 54.4316 23.7155 54.4316C23.6846 54.4316 23.6536 54.4316 23.6226 54.4316C23.5916 54.4316 23.5606 54.4316 23.5295 54.4316C23.4985 54.4316 23.4674 54.4316 23.4363 54.4316C23.4051 54.4316 23.374 54.4316 23.3428 54.4316C23.3116 54.4316 23.2804 54.4316 23.2491 54.4316C23.2178 54.4316 23.1866 54.4316 23.1552 54.4316C23.1239 54.4316 23.0926 54.4316 23.0612 54.4316C23.0298 54.4316 22.9984 54.4316 22.9669 54.4316C22.9355 54.4316 22.904 54.4316 22.8725 54.4316C22.841 54.4316 22.8094 54.4316 22.7778 54.4316C22.7463 54.4316 22.7146 54.4316 22.683 54.4316C22.6514 54.4316 22.6197 54.4316 22.588 54.4316C22.5563 54.4316 22.5245 54.4316 22.4928 54.4316C22.461 54.4316 22.4292 54.4316 22.3973 54.4316C22.3655 54.4316 22.3336 54.4316 22.3017 54.4316C22.2698 54.4316 22.2379 54.4316 22.2059 54.4316C22.174 54.4316 22.142 54.4316 22.1099 54.4316C22.0779 54.4316 22.0458 54.4316 22.0137 54.4316C21.9817 54.4316 21.9495 54.4316 21.9174 54.4316C21.8852 54.4316 21.853 54.4316 21.8208 54.4316C21.7886 54.4316 21.7563 54.4316 21.724 54.4316C21.6917 54.4316 21.6594 54.4316 21.6271 54.4316C21.5947 54.4316 21.5623 54.4316 21.5299 54.4316C21.4975 54.4316 21.465 54.4316 21.4326 54.4316C21.4001 54.4316 21.3676 54.4316 21.335 54.4316C21.3025 54.4316 21.2699 54.4316 21.2373 54.4316C21.2047 54.4316 21.172 54.4316 21.1393 54.4316C21.1067 54.4316 21.074 54.4316 21.0412 54.4316C21.0085 54.4316 20.9757 54.4316 20.9429 54.4316C20.9101 54.4316 20.8773 54.4316 20.8444 54.4316C20.8115 54.4316 20.7786 54.4316 20.7457 54.4316C20.7128 54.4316 20.6798 54.4316 20.6468 54.4316C20.6138 54.4316 20.5808 54.4316 20.5477 54.4316C20.5146 54.4316 20.4815 54.4316 20.4484 54.4316C20.4153 54.4316 20.3821 54.4316 20.3489 54.4316C20.3157 54.4316 20.2825 54.4316 20.2493 54.4316C20.216 54.4316 20.1827 54.4316 20.1494 54.4316C20.1161 54.4316 20.0827 54.4316 20.0493 54.4316C20.016 54.4316 19.9825 54.4316 19.9491 54.4316C19.9156 54.4316 19.8822 54.4316 19.8486 54.4316C19.8151 54.4316 19.7816 54.4316 19.748 54.4316C19.7144 54.4316 19.6808 54.4316 19.6472 54.4316C19.6135 54.4316 19.5799 54.4316 19.5462 54.4316C19.5124 54.4316 19.4787 54.4316 19.4449 54.4316C19.4112 54.4316 19.3774 54.4316 19.3435 54.4316C19.3097 54.4316 19.2758 54.4316 19.2419 54.4316C19.208 54.4316 19.1741 54.4316 19.1401 54.4316C19.1062 54.4316 19.0722 54.4316 19.0381 54.4316C19.0041 54.4316 18.97 54.4316 18.9359 54.4316C18.9018 54.4316 18.8677 54.4316 18.8336 54.4316C18.7994 54.4316 18.7652 54.4316 18.731 54.4316C18.6968 54.4316 18.6625 54.4316 18.6282 54.4316C18.5939 54.4316 18.5596 54.4316 18.5253 54.4316C18.4909 54.4316 18.4565 54.4316 18.4221 54.4316C18.3877 54.4316 18.3532 54.4316 18.3188 54.4316C18.2843 54.4316 18.2498 54.4316 18.2152 54.4316C18.1807 54.4316 18.1461 54.4316 18.1115 54.4316C18.0769 54.4316 18.0422 54.4316 18.0076 54.4316C17.9729 54.4316 17.9382 54.4316 17.9034 54.4316C17.8687 54.4316 17.8339 54.4316 17.7991 54.4316C17.7643 54.4316 17.7295 54.4316 17.6946 54.4316C17.6597 54.4316 17.6248 54.4316 17.5899 54.4316C17.555 54.4316 17.52 54.4316 17.485 54.4316C17.45 54.4316 17.415 54.4316 17.3799 54.4316C17.3449 54.4316 17.3098 54.4316 17.2746 54.4316C17.2395 54.4316 17.2044 54.4316 17.1692 54.4316C17.134 54.4316 17.0988 54.4316 17.0635 54.4316C17.0282 54.4316 16.993 54.4316 16.9576 54.4316C16.9223 54.4316 16.887 54.4316 16.8516 54.4316C16.8162 54.4316 16.7808 54.4316 16.7453 54.4316C16.7099 54.4316 16.6744 54.4316 16.6389 54.4316C16.6034 54.4316 16.5678 54.4316 16.5323 54.4316C16.4967 54.4316 16.4611 54.4316 16.4254 54.4316C16.3898 54.4316 16.3541 54.4316 16.3184 54.4316C16.2827 54.4316 16.247 54.4316 16.2112 54.4316C16.1754 54.4316 16.1396 54.4316 16.1038 54.4316C16.0679 54.4316 16.0321 54.4316 15.9962 54.4316C15.9603 54.4316 15.9243 54.4316 15.8884 54.4316C15.8524 54.4316 15.8164 54.4316 15.7804 54.4316C15.7444 54.4316 15.7083 54.4316 15.6722 54.4316C15.6361 54.4316 15.6 54.4316 15.5638 54.4316C15.5277 54.4316 15.4915 54.4316 15.4552 54.4316C15.419 54.4316 15.3828 54.4316 15.3465 54.4316C15.3102 54.4316 15.2739 54.4316 15.2375 54.4316C15.2012 54.4316 15.1648 54.4316 15.1284 54.4316C15.092 54.4316 15.0555 54.4316 15.019 54.4316C14.9825 54.4316 14.946 54.4316 14.9095 54.4316C14.8729 54.4316 14.8364 54.4316 14.7998 54.4316C14.7632 54.4316 14.7265 54.4316 14.6898 54.4316C14.6532 54.4316 14.6165 54.4316 14.5797 54.4316C14.543 54.4316 14.5062 54.4316 14.4694 54.4316C14.4326 54.4316 14.3958 54.4316 14.3589 54.4316C14.322 54.4316 14.2851 54.4316 14.2482 54.4316C14.2113 54.4316 14.1743 54.4316 14.1373 54.4316C14.1003 54.4316 14.0633 54.4316 14.0262 54.4316C13.9892 54.4316 13.9521 54.4316 13.9149 54.4316C13.8778 54.4316 13.8407 54.4316 13.8035 54.4316C13.7663 54.4316 13.7291 54.4316 13.6918 54.4316C13.6545 54.4316 13.6173 54.4316 13.5799 54.4316C13.5426 54.4316 13.5053 54.4316 13.4679 54.4316C13.4305 54.4316 13.3931 54.4316 13.3556 54.4316C13.3182 54.4316 13.2807 54.4316 13.2432 54.4316C13.2057 54.4316 13.1681 54.4316 13.1306 54.4316C13.093 54.4316 13.0554 54.4316 13.0177 54.4316C12.9801 54.4316 12.9424 54.4316 12.9047 54.4316C12.867 54.4316 12.8293 54.4316 12.7915 54.4316C12.7537 54.4316 12.7159 54.4316 12.6781 54.4316C12.6403 54.4316 12.6024 54.4316 12.5645 54.4316C12.5266 54.4316 12.4887 54.4316 12.4507 54.4316C12.4127 54.4316 12.3747 54.4316 12.3367 54.4316C12.2987 54.4316 12.2606 54.4316 12.2225 54.4316C12.1844 54.4316 12.1463 54.4316 12.1082 54.4316C12.07 54.4316 12.0318 54.4316 11.9936 54.4316C11.9554 54.4316 11.9171 54.4316 11.8788 54.4316C11.8405 54.4316 11.8022 54.4316 11.7639 54.4316C11.7255 54.4316 11.6871 54.4316 11.6487 54.4316C11.6103 54.4316 11.5719 54.4316 11.5334 54.4316C11.4949 54.4316 11.4564 54.4316 11.4178 54.4316C11.3793 54.4316 11.3407 54.4316 11.3021 54.4316C11.2635 54.4316 11.2249 54.4316 11.1862 54.4316C11.1475 54.4316 11.1088 54.4316 11.0701 54.4316C11.0313 54.4316 10.9926 54.4316 10.9538 54.4316C10.915 54.4316 10.8761 54.4316 10.8373 54.4316C10.7984 54.4316 10.7595 54.4316 10.7206 54.4316C10.6816 54.4316 10.6427 54.4316 10.6037 54.4316C10.5647 54.4316 10.5256 54.4316 10.4866 54.4316C10.4475 54.4316 10.4084 54.4316 10.3693 54.4316C10.3302 54.4316 10.291 54.4316 10.2518 54.4316V55.4316C10.291 55.4316 10.3302 55.4316 10.3693 55.4316C10.4084 55.4316 10.4475 55.4316 10.4866 55.4316C10.5256 55.4316 10.5647 55.4316 10.6037 55.4316C10.6427 55.4316 10.6816 55.4316 10.7206 55.4316C10.7595 55.4316 10.7984 55.4316 10.8373 55.4316C10.8761 55.4316 10.915 55.4316 10.9538 55.4316C10.9926 55.4316 11.0313 55.4316 11.0701 55.4316C11.1088 55.4316 11.1475 55.4316 11.1862 55.4316C11.2249 55.4316 11.2635 55.4316 11.3021 55.4316C11.3407 55.4316 11.3793 55.4316 11.4178 55.4316C11.4564 55.4316 11.4949 55.4316 11.5334 55.4316C11.5719 55.4316 11.6103 55.4316 11.6487 55.4316C11.6871 55.4316 11.7255 55.4316 11.7639 55.4316C11.8022 55.4316 11.8405 55.4316 11.8788 55.4316C11.9171 55.4316 11.9554 55.4316 11.9936 55.4316C12.0318 55.4316 12.07 55.4316 12.1082 55.4316C12.1463 55.4316 12.1844 55.4316 12.2225 55.4316C12.2606 55.4316 12.2987 55.4316 12.3367 55.4316C12.3747 55.4316 12.4127 55.4316 12.4507 55.4316C12.4887 55.4316 12.5266 55.4316 12.5645 55.4316C12.6024 55.4316 12.6403 55.4316 12.6781 55.4316C12.7159 55.4316 12.7537 55.4316 12.7915 55.4316C12.8293 55.4316 12.867 55.4316 12.9047 55.4316C12.9424 55.4316 12.9801 55.4316 13.0177 55.4316C13.0554 55.4316 13.093 55.4316 13.1306 55.4316C13.1681 55.4316 13.2057 55.4316 13.2432 55.4316C13.2807 55.4316 13.3182 55.4316 13.3556 55.4316C13.3931 55.4316 13.4305 55.4316 13.4679 55.4316C13.5053 55.4316 13.5426 55.4316 13.5799 55.4316C13.6173 55.4316 13.6545 55.4316 13.6918 55.4316C13.7291 55.4316 13.7663 55.4316 13.8035 55.4316C13.8407 55.4316 13.8778 55.4316 13.9149 55.4316C13.9521 55.4316 13.9892 55.4316 14.0262 55.4316C14.0633 55.4316 14.1003 55.4316 14.1373 55.4316C14.1743 55.4316 14.2113 55.4316 14.2482 55.4316C14.2851 55.4316 14.322 55.4316 14.3589 55.4316C14.3958 55.4316 14.4326 55.4316 14.4694 55.4316C14.5062 55.4316 14.543 55.4316 14.5797 55.4316C14.6165 55.4316 14.6532 55.4316 14.6898 55.4316C14.7265 55.4316 14.7632 55.4316 14.7998 55.4316C14.8364 55.4316 14.8729 55.4316 14.9095 55.4316C14.946 55.4316 14.9825 55.4316 15.019 55.4316C15.0555 55.4316 15.092 55.4316 15.1284 55.4316C15.1648 55.4316 15.2012 55.4316 15.2375 55.4316C15.2739 55.4316 15.3102 55.4316 15.3465 55.4316C15.3828 55.4316 15.419 55.4316 15.4552 55.4316C15.4915 55.4316 15.5277 55.4316 15.5638 55.4316C15.6 55.4316 15.6361 55.4316 15.6722 55.4316C15.7083 55.4316 15.7444 55.4316 15.7804 55.4316C15.8164 55.4316 15.8524 55.4316 15.8884 55.4316C15.9243 55.4316 15.9603 55.4316 15.9962 55.4316C16.0321 55.4316 16.0679 55.4316 16.1038 55.4316C16.1396 55.4316 16.1754 55.4316 16.2112 55.4316C16.247 55.4316 16.2827 55.4316 16.3184 55.4316C16.3541 55.4316 16.3898 55.4316 16.4254 55.4316C16.4611 55.4316 16.4967 55.4316 16.5323 55.4316C16.5678 55.4316 16.6034 55.4316 16.6389 55.4316C16.6744 55.4316 16.7099 55.4316 16.7453 55.4316C16.7808 55.4316 16.8162 55.4316 16.8516 55.4316C16.887 55.4316 16.9223 55.4316 16.9576 55.4316C16.993 55.4316 17.0282 55.4316 17.0635 55.4316C17.0988 55.4316 17.134 55.4316 17.1692 55.4316C17.2044 55.4316 17.2395 55.4316 17.2746 55.4316C17.3098 55.4316 17.3449 55.4316 17.3799 55.4316C17.415 55.4316 17.45 55.4316 17.485 55.4316C17.52 55.4316 17.555 55.4316 17.5899 55.4316C17.6248 55.4316 17.6597 55.4316 17.6946 55.4316C17.7295 55.4316 17.7643 55.4316 17.7991 55.4316C17.8339 55.4316 17.8687 55.4316 17.9034 55.4316C17.9382 55.4316 17.9729 55.4316 18.0076 55.4316C18.0422 55.4316 18.0769 55.4316 18.1115 55.4316C18.1461 55.4316 18.1807 55.4316 18.2152 55.4316C18.2498 55.4316 18.2843 55.4316 18.3188 55.4316C18.3532 55.4316 18.3877 55.4316 18.4221 55.4316C18.4565 55.4316 18.4909 55.4316 18.5253 55.4316C18.5596 55.4316 18.5939 55.4316 18.6282 55.4316C18.6625 55.4316 18.6968 55.4316 18.731 55.4316C18.7652 55.4316 18.7994 55.4316 18.8336 55.4316C18.8677 55.4316 18.9018 55.4316 18.9359 55.4316C18.97 55.4316 19.0041 55.4316 19.0381 55.4316C19.0722 55.4316 19.1062 55.4316 19.1401 55.4316C19.1741 55.4316 19.208 55.4316 19.2419 55.4316C19.2758 55.4316 19.3097 55.4316 19.3435 55.4316C19.3774 55.4316 19.4112 55.4316 19.4449 55.4316C19.4787 55.4316 19.5124 55.4316 19.5462 55.4316C19.5799 55.4316 19.6135 55.4316 19.6472 55.4316C19.6808 55.4316 19.7144 55.4316 19.748 55.4316C19.7816 55.4316 19.8151 55.4316 19.8486 55.4316C19.8822 55.4316 19.9156 55.4316 19.9491 55.4316C19.9825 55.4316 20.016 55.4316 20.0493 55.4316C20.0827 55.4316 20.1161 55.4316 20.1494 55.4316C20.1827 55.4316 20.216 55.4316 20.2493 55.4316C20.2825 55.4316 20.3157 55.4316 20.3489 55.4316C20.3821 55.4316 20.4153 55.4316 20.4484 55.4316C20.4815 55.4316 20.5146 55.4316 20.5477 55.4316C20.5808 55.4316 20.6138 55.4316 20.6468 55.4316C20.6798 55.4316 20.7128 55.4316 20.7457 55.4316C20.7786 55.4316 20.8115 55.4316 20.8444 55.4316C20.8773 55.4316 20.9101 55.4316 20.9429 55.4316C20.9757 55.4316 21.0085 55.4316 21.0412 55.4316C21.074 55.4316 21.1067 55.4316 21.1393 55.4316C21.172 55.4316 21.2047 55.4316 21.2373 55.4316C21.2699 55.4316 21.3025 55.4316 21.335 55.4316C21.3676 55.4316 21.4001 55.4316 21.4326 55.4316C21.465 55.4316 21.4975 55.4316 21.5299 55.4316C21.5623 55.4316 21.5947 55.4316 21.6271 55.4316C21.6594 55.4316 21.6917 55.4316 21.724 55.4316C21.7563 55.4316 21.7886 55.4316 21.8208 55.4316C21.853 55.4316 21.8852 55.4316 21.9174 55.4316C21.9495 55.4316 21.9817 55.4316 22.0137 55.4316C22.0458 55.4316 22.0779 55.4316 22.1099 55.4316C22.142 55.4316 22.174 55.4316 22.2059 55.4316C22.2379 55.4316 22.2698 55.4316 22.3017 55.4316C22.3336 55.4316 22.3655 55.4316 22.3973 55.4316C22.4292 55.4316 22.461 55.4316 22.4928 55.4316C22.5245 55.4316 22.5563 55.4316 22.588 55.4316C22.6197 55.4316 22.6514 55.4316 22.683 55.4316C22.7146 55.4316 22.7463 55.4316 22.7778 55.4316C22.8094 55.4316 22.841 55.4316 22.8725 55.4316C22.904 55.4316 22.9355 55.4316 22.9669 55.4316C22.9984 55.4316 23.0298 55.4316 23.0612 55.4316C23.0926 55.4316 23.1239 55.4316 23.1552 55.4316C23.1866 55.4316 23.2178 55.4316 23.2491 55.4316C23.2804 55.4316 23.3116 55.4316 23.3428 55.4316C23.374 55.4316 23.4051 55.4316 23.4363 55.4316C23.4674 55.4316 23.4985 55.4316 23.5295 55.4316C23.5606 55.4316 23.5916 55.4316 23.6226 55.4316C23.6536 55.4316 23.6846 55.4316 23.7155 55.4316C23.7465 55.4316 23.7774 55.4316 23.8082 55.4316C23.8391 55.4316 23.8699 55.4316 23.9008 55.4316C23.9316 55.4316 23.9623 55.4316 23.9931 55.4316C24.0238 55.4316 24.0545 55.4316 24.0852 55.4316C24.1159 55.4316 24.1465 55.4316 24.1771 55.4316C24.2077 55.4316 24.2383 55.4316 24.2689 55.4316C24.2994 55.4316 24.3299 55.4316 24.3604 55.4316C24.3909 55.4316 24.4213 55.4316 24.4518 55.4316C24.4822 55.4316 24.5126 55.4316 24.5429 55.4316C24.5733 55.4316 24.6036 55.4316 24.6339 55.4316C24.6642 55.4316 24.6944 55.4316 24.7247 55.4316C24.7549 55.4316 24.7851 55.4316 24.8152 55.4316C24.8454 55.4316 24.8755 55.4316 24.9056 55.4316C24.9357 55.4316 24.9658 55.4316 24.9958 55.4316C25.0258 55.4316 25.0558 55.4316 25.0858 55.4316C25.1158 55.4316 25.1457 55.4316 25.1756 55.4316C25.2055 55.4316 25.2354 55.4316 25.2652 55.4316C25.2951 55.4316 25.3249 55.4316 25.3546 55.4316C25.3844 55.4316 25.4142 55.4316 25.4439 55.4316C25.4736 55.4316 25.5032 55.4316 25.5329 55.4316C25.5625 55.4316 25.5921 55.4316 25.6217 55.4316C25.6513 55.4316 25.6809 55.4316 25.7104 55.4316C25.7399 55.4316 25.7694 55.4316 25.7988 55.4316C25.8283 55.4316 25.8577 55.4316 25.8871 55.4316C25.9165 55.4316 25.9458 55.4316 25.9751 55.4316C26.0045 55.4316 26.0338 55.4316 26.063 55.4316C26.0923 55.4316 26.1215 55.4316 26.1507 55.4316C26.1799 55.4316 26.209 55.4316 26.2382 55.4316C26.2673 55.4316 26.2964 55.4316 26.3255 55.4316C26.3545 55.4316 26.3836 55.4316 26.4125 55.4316C26.4415 55.4316 26.4705 55.4316 26.4995 55.4316C26.5284 55.4316 26.5573 55.4316 26.5862 55.4316C26.615 55.4316 26.6439 55.4316 26.6727 55.4316C26.7015 55.4316 26.7303 55.4316 26.759 55.4316C26.7877 55.4316 26.8164 55.4316 26.8451 55.4316C26.8738 55.4316 26.9024 55.4316 26.9311 55.4316C26.9597 55.4316 26.9882 55.4316 27.0168 55.4316C27.0453 55.4316 27.0739 55.4316 27.1023 55.4316C27.1308 55.4316 27.1593 55.4316 27.1877 55.4316C27.2161 55.4316 27.2445 55.4316 27.2729 55.4316C27.3012 55.4316 27.3295 55.4316 27.3578 55.4316C27.3861 55.4316 27.4144 55.4316 27.4426 55.4316C27.4708 55.4316 27.499 55.4316 27.5272 55.4316C27.5553 55.4316 27.5835 55.4316 27.6116 55.4316C27.6397 55.4316 27.6677 55.4316 27.6958 55.4316C27.7238 55.4316 27.7518 55.4316 27.7798 55.4316C27.8077 55.4316 27.8357 55.4316 27.8636 55.4316C27.8915 55.4316 27.9193 55.4316 27.9472 55.4316C27.975 55.4316 28.0028 55.4316 28.0306 55.4316C28.0584 55.4316 28.0861 55.4316 28.1138 55.4316C28.1415 55.4316 28.1692 55.4316 28.1969 55.4316C28.2245 55.4316 28.2521 55.4316 28.2797 55.4316C28.3073 55.4316 28.3348 55.4316 28.3623 55.4316C28.3899 55.4316 28.4173 55.4316 28.4448 55.4316C28.4722 55.4316 28.4997 55.4316 28.527 55.4316C28.5544 55.4316 28.5818 55.4316 28.6091 55.4316C28.6364 55.4316 28.6637 55.4316 28.691 55.4316C28.7182 55.4316 28.7455 55.4316 28.7727 55.4316C28.7999 55.4316 28.827 55.4316 28.8541 55.4316C28.8813 55.4316 28.9084 55.4316 28.9354 55.4316C28.9625 55.4316 28.9895 55.4316 29.0165 55.4316C29.0435 55.4316 29.0705 55.4316 29.0974 55.4316C29.1244 55.4316 29.1513 55.4316 29.1781 55.4316C29.205 55.4316 29.2319 55.4316 29.2587 55.4316C29.2855 55.4316 29.3122 55.4316 29.339 55.4316C29.3657 55.4316 29.3924 55.4316 29.4191 55.4316C29.4458 55.4316 29.4724 55.4316 29.4991 55.4316C29.5257 55.4316 29.5522 55.4316 29.5788 55.4316C29.6053 55.4316 29.6319 55.4316 29.6583 55.4316C29.6848 55.4316 29.7113 55.4316 29.7377 55.4316C29.7641 55.4316 29.7905 55.4316 29.8169 55.4316C29.8432 55.4316 29.8695 55.4316 29.8958 55.4316C29.9221 55.4316 29.9484 55.4316 29.9746 55.4316C30.0008 55.4316 30.027 55.4316 30.0532 55.4316C30.0793 55.4316 30.1055 55.4316 30.1316 55.4316C30.1577 55.4316 30.1837 55.4316 30.2098 55.4316C30.2358 55.4316 30.2618 55.4316 30.2878 55.4316C30.3137 55.4316 30.3397 55.4316 30.3656 55.4316C30.3915 55.4316 30.4174 55.4316 30.4432 55.4316C30.469 55.4316 30.4948 55.4316 30.5206 55.4316C30.5464 55.4316 30.5721 55.4316 30.5978 55.4316C30.6236 55.4316 30.6492 55.4316 30.6749 55.4316C30.7005 55.4316 30.7261 55.4316 30.7517 55.4316C30.7773 55.4316 30.8028 55.4316 30.8284 55.4316C30.8539 55.4316 30.8794 55.4316 30.9048 55.4316C30.9303 55.4316 30.9557 55.4316 30.9811 55.4316C31.0065 55.4316 31.0318 55.4316 31.0571 55.4316C31.0825 55.4316 31.1078 55.4316 31.133 55.4316C31.1583 55.4316 31.1835 55.4316 31.2087 55.4316C31.2339 55.4316 31.2591 55.4316 31.2842 55.4316C31.3093 55.4316 31.3344 55.4316 31.3595 55.4316C31.3845 55.4316 31.4096 55.4316 31.4346 55.4316C31.4596 55.4316 31.4845 55.4316 31.5095 55.4316C31.5344 55.4316 31.5593 55.4316 31.5842 55.4316C31.6091 55.4316 31.6339 55.4316 31.6587 55.4316C31.6835 55.4316 31.7083 55.4316 31.733 55.4316C31.7578 55.4316 31.7825 55.4316 31.8072 55.4316C31.8319 55.4316 31.8565 55.4316 31.8811 55.4316C31.9057 55.4316 31.9303 55.4316 31.9549 55.4316C31.9794 55.4316 32.0039 55.4316 32.0284 55.4316C32.0529 55.4316 32.0773 55.4316 32.1018 55.4316C32.1262 55.4316 32.1506 55.4316 32.1749 55.4316C32.1993 55.4316 32.2236 55.4316 32.2479 55.4316C32.2722 55.4316 32.2965 55.4316 32.3207 55.4316C32.3449 55.4316 32.3691 55.4316 32.3933 55.4316C32.4174 55.4316 32.4416 55.4316 32.4657 55.4316C32.4898 55.4316 32.5138 55.4316 32.5379 55.4316C32.5619 55.4316 32.5859 55.4316 32.6099 55.4316C32.6338 55.4316 32.6578 55.4316 32.6817 55.4316C32.7056 55.4316 32.7294 55.4316 32.7533 55.4316C32.7771 55.4316 32.8009 55.4316 32.8247 55.4316C32.8485 55.4316 32.8722 55.4316 32.8959 55.4316C32.9196 55.4316 32.9433 55.4316 32.967 55.4316C32.9906 55.4316 33.0142 55.4316 33.0378 55.4316C33.0614 55.4316 33.0849 55.4316 33.1085 55.4316C33.132 55.4316 33.1555 55.4316 33.1789 55.4316C33.2024 55.4316 33.2258 55.4316 33.2492 55.4316C33.2726 55.4316 33.2959 55.4316 33.3193 55.4316C33.3426 55.4316 33.3659 55.4316 33.3891 55.4316C33.4124 55.4316 33.4356 55.4316 33.4588 55.4316C33.482 55.4316 33.5052 55.4316 33.5283 55.4316C33.5514 55.4316 33.5745 55.4316 33.5976 55.4316C33.6207 55.4316 33.6437 55.4316 33.6667 55.4316C33.6897 55.4316 33.7127 55.4316 33.7356 55.4316C33.7585 55.4316 33.7814 55.4316 33.8043 55.4316C33.8272 55.4316 33.85 55.4316 33.8728 55.4316C33.8956 55.4316 33.9184 55.4316 33.9412 55.4316C33.9639 55.4316 33.9866 55.4316 34.0093 55.4316C34.032 55.4316 34.0546 55.4316 34.0772 55.4316C34.0999 55.4316 34.1224 55.4316 34.145 55.4316C34.1675 55.4316 34.1901 55.4316 34.2125 55.4316C34.235 55.4316 34.2575 55.4316 34.2799 55.4316C34.3023 55.4316 34.3247 55.4316 34.3471 55.4316C34.3694 55.4316 34.3918 55.4316 34.414 55.4316C34.4363 55.4316 34.4586 55.4316 34.4808 55.4316C34.503 55.4316 34.5252 55.4316 34.5474 55.4316C34.5696 55.4316 34.5917 55.4316 34.6138 55.4316C34.6359 55.4316 34.658 55.4316 34.68 55.4316C34.702 55.4316 34.724 55.4316 34.746 55.4316C34.768 55.4316 34.7899 55.4316 34.8118 55.4316C34.8337 55.4316 34.8556 55.4316 34.8774 55.4316C34.8993 55.4316 34.9211 55.4316 34.9429 55.4316C34.9646 55.4316 34.9864 55.4316 35.0081 55.4316C35.0298 55.4316 35.0515 55.4316 35.0731 55.4316C35.0948 55.4316 35.1164 55.4316 35.138 55.4316C35.1596 55.4316 35.1811 55.4316 35.2026 55.4316C35.2241 55.4316 35.2456 55.4316 35.2671 55.4316C35.2885 55.4316 35.31 55.4316 35.3314 55.4316C35.3527 55.4316 35.3741 55.4316 35.3954 55.4316C35.4167 55.4316 35.438 55.4316 35.4593 55.4316C35.4806 55.4316 35.5018 55.4316 35.523 55.4316C35.5442 55.4316 35.5653 55.4316 35.5865 55.4316C35.6076 55.4316 35.6287 55.4316 35.6498 55.4316C35.6708 55.4316 35.6919 55.4316 35.7129 55.4316C35.7339 55.4316 35.7549 55.4316 35.7758 55.4316C35.7967 55.4316 35.8176 55.4316 35.8385 55.4316C35.8594 55.4316 35.8802 55.4316 35.901 55.4316C35.9218 55.4316 35.9426 55.4316 35.9634 55.4316C35.9841 55.4316 36.0048 55.4316 36.0255 55.4316C36.0462 55.4316 36.0668 55.4316 36.0874 55.4316C36.1081 55.4316 36.1286 55.4316 36.1492 55.4316C36.1697 55.4316 36.1903 55.4316 36.2107 55.4316C36.2312 55.4316 36.2517 55.4316 36.2721 55.4316C36.2925 55.4316 36.3129 55.4316 36.3333 55.4316C36.3536 55.4316 36.374 55.4316 36.3943 55.4316C36.4145 55.4316 36.4348 55.4316 36.455 55.4316C36.4753 55.4316 36.4955 55.4316 36.5156 55.4316C36.5358 55.4316 36.5559 55.4316 36.576 55.4316C36.5961 55.4316 36.6162 55.4316 36.6362 55.4316C36.6563 55.4316 36.6763 55.4316 36.6962 55.4316C36.7162 55.4316 36.7361 55.4316 36.756 55.4316C36.7759 55.4316 36.7958 55.4316 36.8157 55.4316C36.8355 55.4316 36.8553 55.4316 36.8751 55.4316C36.8949 55.4316 36.9146 55.4316 36.9343 55.4316C36.954 55.4316 36.9737 55.4316 36.9934 55.4316C37.013 55.4316 37.0326 55.4316 37.0522 55.4316C37.0718 55.4316 37.0913 55.4316 37.1109 55.4316C37.1304 55.4316 37.1499 55.4316 37.1693 55.4316C37.1888 55.4316 37.2082 55.4316 37.2276 55.4316C37.247 55.4316 37.2663 55.4316 37.2857 55.4316C37.305 55.4316 37.3243 55.4316 37.3435 55.4316C37.3628 55.4316 37.382 55.4316 37.4012 55.4316C37.4204 55.4316 37.4396 55.4316 37.4587 55.4316C37.4779 55.4316 37.497 55.4316 37.516 55.4316C37.5351 55.4316 37.5541 55.4316 37.5731 55.4316C37.5921 55.4316 37.6111 55.4316 37.63 55.4316C37.649 55.4316 37.6679 55.4316 37.6868 55.4316C37.7056 55.4316 37.7245 55.4316 37.7433 55.4316C37.7621 55.4316 37.7809 55.4316 37.7996 55.4316C37.8184 55.4316 37.8371 55.4316 37.8558 55.4316C37.8744 55.4316 37.8931 55.4316 37.9117 55.4316C37.9303 55.4316 37.9489 55.4316 37.9675 55.4316C37.986 55.4316 38.0045 55.4316 38.023 55.4316C38.0415 55.4316 38.06 55.4316 38.0784 55.4316C38.0968 55.4316 38.1152 55.4316 38.1335 55.4316C38.1519 55.4316 38.1702 55.4316 38.1885 55.4316C38.2068 55.4316 38.2251 55.4316 38.2433 55.4316C38.2615 55.4316 38.2797 55.4316 38.2979 55.4316C38.3161 55.4316 38.3342 55.4316 38.3523 55.4316C38.3704 55.4316 38.3885 55.4316 38.4065 55.4316C38.4245 55.4316 38.4425 55.4316 38.4605 55.4316C38.4785 55.4316 38.4964 55.4316 38.5143 55.4316C38.5322 55.4316 38.5501 55.4316 38.568 55.4316C38.5858 55.4316 38.6036 55.4316 38.6214 55.4316C38.6392 55.4316 38.6569 55.4316 38.6746 55.4316C38.6923 55.4316 38.71 55.4316 38.7277 55.4316C38.7453 55.4316 38.7629 55.4316 38.7805 55.4316C38.7981 55.4316 38.8156 55.4316 38.8332 55.4316C38.8507 55.4316 38.8682 55.4316 38.8856 55.4316C38.9031 55.4316 38.9205 55.4316 38.9379 55.4316C38.9553 55.4316 38.9726 55.4316 38.99 55.4316C39.0073 55.4316 39.0246 55.4316 39.0419 55.4316C39.0591 55.4316 39.0763 55.4316 39.0935 55.4316C39.1107 55.4316 39.1279 55.4316 39.145 55.4316C39.1622 55.4316 39.1793 55.4316 39.1963 55.4316C39.2134 55.4316 39.2304 55.4316 39.2474 55.4316C39.2645 55.4316 39.2814 55.4316 39.2984 55.4316C39.3153 55.4316 39.3322 55.4316 39.3491 55.4316C39.366 55.4316 39.3828 55.4316 39.3996 55.4316C39.4164 55.4316 39.4332 55.4316 39.4499 55.4316C39.4667 55.4316 39.4834 55.4316 39.5001 55.4316C39.5168 55.4316 39.5334 55.4316 39.55 55.4316C39.5667 55.4316 39.5832 55.4316 39.5998 55.4316C39.6163 55.4316 39.6329 55.4316 39.6494 55.4316C39.6658 55.4316 39.6823 55.4316 39.6987 55.4316C39.7151 55.4316 39.7315 55.4316 39.7479 55.4316C39.7642 55.4316 39.7806 55.4316 39.7969 55.4316C39.8132 55.4316 39.8294 55.4316 39.8457 55.4316C39.8619 55.4316 39.8781 55.4316 39.8943 55.4316C39.9104 55.4316 39.9265 55.4316 39.9426 55.4316C39.9587 55.4316 39.9748 55.4316 39.9909 55.4316C40.0069 55.4316 40.0229 55.4316 40.0389 55.4316C40.0548 55.4316 40.0708 55.4316 40.0867 55.4316C40.1026 55.4316 40.1185 55.4316 40.1343 55.4316C40.1502 55.4316 40.166 55.4316 40.1817 55.4316C40.1975 55.4316 40.2133 55.4316 40.229 55.4316C40.2447 55.4316 40.2604 55.4316 40.276 55.4316C40.2917 55.4316 40.3073 55.4316 40.3229 55.4316C40.3385 55.4316 40.354 55.4316 40.3695 55.4316C40.3851 55.4316 40.4005 55.4316 40.416 55.4316C40.4315 55.4316 40.4469 55.4316 40.4623 55.4316C40.4777 55.4316 40.493 55.4316 40.5084 55.4316C40.5237 55.4316 40.539 55.4316 40.5542 55.4316C40.5695 55.4316 40.5847 55.4316 40.5999 55.4316C40.6151 55.4316 40.6303 55.4316 40.6454 55.4316C40.6606 55.4316 40.6757 55.4316 40.6907 55.4316C40.7058 55.4316 40.7208 55.4316 40.7358 55.4316C40.7508 55.4316 40.7658 55.4316 40.7808 55.4316C40.7957 55.4316 40.8106 55.4316 40.8255 55.4316C40.8404 55.4316 40.8552 55.4316 40.87 55.4316C40.8848 55.4316 40.8996 55.4316 40.9143 55.4316C40.9291 55.4316 40.9438 55.4316 40.9585 55.4316C40.9732 55.4316 40.9878 55.4316 41.0024 55.4316C41.0171 55.4316 41.0316 55.4316 41.0462 55.4316C41.0607 55.4316 41.0753 55.4316 41.0898 55.4316C41.1042 55.4316 41.1187 55.4316 41.1331 55.4316C41.1475 55.4316 41.1619 55.4316 41.1763 55.4316C41.1907 55.4316 41.205 55.4316 41.2193 55.4316C41.2336 55.4316 41.2478 55.4316 41.2621 55.4316C41.2763 55.4316 41.2905 55.4316 41.3047 55.4316C41.3188 55.4316 41.333 55.4316 41.3471 55.4316C41.3612 55.4316 41.3752 55.4316 41.3893 55.4316C41.4033 55.4316 41.4173 55.4316 41.4313 55.4316C41.4453 55.4316 41.4592 55.4316 41.4731 55.4316C41.487 55.4316 41.5009 55.4316 41.5147 55.4316C41.5286 55.4316 41.5424 55.4316 41.5562 55.4316C41.57 55.4316 41.5837 55.4316 41.5974 55.4316C41.6111 55.4316 41.6248 55.4316 41.6385 55.4316C41.6521 55.4316 41.6657 55.4316 41.6793 55.4316C41.6929 55.4316 41.7065 55.4316 41.72 55.4316C41.7335 55.4316 41.747 55.4316 41.7604 55.4316C41.7739 55.4316 41.7873 55.4316 41.8007 55.4316C41.8141 55.4316 41.8275 55.4316 41.8408 55.4316C41.8541 55.4316 41.8674 55.4316 41.8807 55.4316C41.8939 55.4316 41.9072 55.4316 41.9204 55.4316C41.9336 55.4316 41.9467 55.4316 41.9599 55.4316C41.973 55.4316 41.9861 55.4316 41.9992 55.4316C42.0123 55.4316 42.0253 55.4316 42.0383 55.4316C42.0513 55.4316 42.0643 55.4316 42.0772 55.4316C42.0902 55.4316 42.1031 55.4316 42.1159 55.4316C42.1288 55.4316 42.1417 55.4316 42.1545 55.4316C42.1673 55.4316 42.1801 55.4316 42.1928 55.4316C42.2056 55.4316 42.2183 55.4316 42.231 55.4316C42.2436 55.4316 42.2563 55.4316 42.2689 55.4316C42.2815 55.4316 42.2941 55.4316 42.3067 55.4316C42.3192 55.4316 42.3317 55.4316 42.3442 55.4316C42.3567 55.4316 42.3692 55.4316 42.3816 55.4316C42.394 55.4316 42.4064 55.4316 42.4188 55.4316C42.4311 55.4316 42.4435 55.4316 42.4558 55.4316C42.4681 55.4316 42.4803 55.4316 42.4926 55.4316C42.5048 55.4316 42.517 55.4316 42.5292 55.4316C42.5413 55.4316 42.5535 55.4316 42.5656 55.4316C42.5777 55.4316 42.5897 55.4316 42.6018 55.4316C42.6138 55.4316 42.6258 55.4316 42.6378 55.4316C42.6498 55.4316 42.6617 55.4316 42.6736 55.4316C42.6855 55.4316 42.6974 55.4316 42.7092 55.4316C42.7211 55.4316 42.7329 55.4316 42.7447 55.4316C42.7565 55.4316 42.7682 55.4316 42.7799 55.4316C42.7916 55.4316 42.8033 55.4316 42.815 55.4316C42.8266 55.4316 42.8382 55.4316 42.8498 55.4316C42.8614 55.4316 42.873 55.4316 42.8845 55.4316C42.896 55.4316 42.9075 55.4316 42.919 55.4316C42.9304 55.4316 42.9418 55.4316 42.9532 55.4316C42.9646 55.4316 42.976 55.4316 42.9873 55.4316C42.9986 55.4316 43.0099 55.4316 43.0212 55.4316C43.0325 55.4316 43.0437 55.4316 43.0549 55.4316C43.0661 55.4316 43.0773 55.4316 43.0884 55.4316C43.0995 55.4316 43.1106 55.4316 43.1217 55.4316C43.1328 55.4316 43.1438 55.4316 43.1548 55.4316C43.1658 55.4316 43.1768 55.4316 43.1877 55.4316C43.1987 55.4316 43.2096 55.4316 43.2205 55.4316C43.2313 55.4316 43.2422 55.4316 43.253 55.4316C43.2638 55.4316 43.2746 55.4316 43.2853 55.4316C43.2961 55.4316 43.3068 55.4316 43.3175 55.4316C43.3282 55.4316 43.3388 55.4316 43.3494 55.4316C43.3601 55.4316 43.3706 55.4316 43.3812 55.4316C43.3918 55.4316 43.4023 55.4316 43.4128 55.4316C43.4233 55.4316 43.4337 55.4316 43.4441 55.4316C43.4546 55.4316 43.465 55.4316 43.4753 55.4316C43.4857 55.4316 43.496 55.4316 43.5063 55.4316C43.5166 55.4316 43.5269 55.4316 43.5371 55.4316C43.5473 55.4316 43.5575 55.4316 43.5677 55.4316C43.5779 55.4316 43.588 55.4316 43.5981 55.4316C43.6082 55.4316 43.6183 55.4316 43.6283 55.4316C43.6384 55.4316 43.6484 55.4316 43.6583 55.4316C43.6683 55.4316 43.6783 55.4316 43.6882 55.4316C43.6981 55.4316 43.708 55.4316 43.7178 55.4316C43.7276 55.4316 43.7375 55.4316 43.7472 55.4316C43.757 55.4316 43.7668 55.4316 43.7765 55.4316C43.7862 55.4316 43.7959 55.4316 43.8055 55.4316C43.8152 55.4316 43.8248 55.4316 43.8344 55.4316C43.844 55.4316 43.8535 55.4316 43.8631 55.4316C43.8726 55.4316 43.8821 55.4316 43.8915 55.4316C43.901 55.4316 43.9104 55.4316 43.9198 55.4316C43.9292 55.4316 43.9386 55.4316 43.9479 55.4316C43.9572 55.4316 43.9665 55.4316 43.9758 55.4316C43.985 55.4316 43.9943 55.4316 44.0035 55.4316C44.0127 55.4316 44.0218 55.4316 44.031 55.4316C44.0401 55.4316 44.0492 55.4316 44.0583 55.4316C44.0674 55.4316 44.0764 55.4316 44.0854 55.4316C44.0944 55.4316 44.1034 55.4316 44.1123 55.4316C44.1213 55.4316 44.1302 55.4316 44.1391 55.4316C44.1479 55.4316 44.1568 55.4316 44.1656 55.4316C44.1744 55.4316 44.1832 55.4316 44.1919 55.4316C44.2007 55.4316 44.2094 55.4316 44.2181 55.4316C44.2268 55.4316 44.2354 55.4316 44.244 55.4316C44.2527 55.4316 44.2613 55.4316 44.2698 55.4316C44.2784 55.4316 44.2869 55.4316 44.2954 55.4316C44.3039 55.4316 44.3123 55.4316 44.3208 55.4316C44.3292 55.4316 44.3376 55.4316 44.3459 55.4316C44.3543 55.4316 44.3626 55.4316 44.3709 55.4316C44.3792 55.4316 44.3875 55.4316 44.3957 55.4316C44.404 55.4316 44.4122 55.4316 44.4203 55.4316C44.4285 55.4316 44.4366 55.4316 44.4447 55.4316C44.4528 55.4316 44.4609 55.4316 44.4689 55.4316C44.477 55.4316 44.485 55.4316 44.493 55.4316C44.5009 55.4316 44.5089 55.4316 44.5168 55.4316C44.5247 55.4316 44.5326 55.4316 44.5404 55.4316C44.5483 55.4316 44.5561 55.4316 44.5639 55.4316C44.5717 55.4316 44.5794 55.4316 44.5871 55.4316C44.5948 55.4316 44.6025 55.4316 44.6102 55.4316C44.6178 55.4316 44.6254 55.4316 44.633 55.4316C44.6406 55.4316 44.6482 55.4316 44.6557 55.4316C44.6632 55.4316 44.6707 55.4316 44.6782 55.4316C44.6856 55.4316 44.6931 55.4316 44.7005 55.4316C44.7078 55.4316 44.7152 55.4316 44.7225 55.4316C44.7299 55.4316 44.7372 55.4316 44.7444 55.4316C44.7517 55.4316 44.7589 55.4316 44.7661 55.4316C44.7733 55.4316 44.7805 55.4316 44.7876 55.4316C44.7948 55.4316 44.8019 55.4316 44.8089 55.4316C44.816 55.4316 44.8231 55.4316 44.8301 55.4316C44.8371 55.4316 44.8441 55.4316 44.851 55.4316C44.8579 55.4316 44.8648 55.4316 44.8717 55.4316C44.8786 55.4316 44.8854 55.4316 44.8923 55.4316C44.8991 55.4316 44.9059 55.4316 44.9126 55.4316C44.9194 55.4316 44.9261 55.4316 44.9328 55.4316C44.9394 55.4316 44.9461 55.4316 44.9527 55.4316C44.9593 55.4316 44.9659 55.4316 44.9725 55.4316C44.979 55.4316 44.9856 55.4316 44.9921 55.4316C44.9985 55.4316 45.005 55.4316 45.0114 55.4316C45.0179 55.4316 45.0243 55.4316 45.0306 55.4316C45.037 55.4316 45.0433 55.4316 45.0496 55.4316C45.0559 55.4316 45.0622 55.4316 45.0684 55.4316C45.0746 55.4316 45.0808 55.4316 45.087 55.4316V54.4316ZM10.6581 55.2231L45.4933 6.66033L44.6807 6.07746L9.84555 54.6402L10.6581 55.2231Z" fill="#874120"></path><path d="M52.5628 15.8445V52.5627H72L52.5628 15.8445Z" fill="#EBBEAD"></path><path d="M49.825 18.2135H49.325C49.325 17.9838 49.4815 17.7836 49.7044 17.7282C49.9274 17.6729 50.1594 17.7765 50.2669 17.9796L49.825 18.2135ZM49.825 54.9317V55.4317H49.325V54.9317H49.825ZM69.2622 54.9317L69.7041 54.6977L70.0926 55.4317H69.2622V54.9317ZM50.325 18.2135V54.9317H49.325V18.2135H50.325ZM49.825 54.4317H69.2622V55.4317H49.825V54.4317ZM68.8203 55.1656L49.3831 18.4474L50.2669 17.9796L69.7041 54.6977L68.8203 55.1656Z" fill="#874120"></path><path d="M66.4088 67.0985C65.0427 66.4579 63.9274 65.3391 63.2589 63.9467C62.1929 66.1669 59.9911 67.6912 57.4479 67.6912C54.9048 67.6912 52.703 66.1669 51.637 63.9467C50.571 66.1669 48.3693 67.6912 45.8261 67.6912C43.2829 67.6912 41.0812 66.1669 40.0152 63.9467C38.9492 66.1669 36.7474 67.6912 34.2042 67.6912C31.6611 67.6912 29.4593 66.1669 28.3933 63.9467C27.3273 66.1669 25.1256 67.6912 22.5824 67.6912C20.0392 67.6912 17.8375 66.1669 16.7715 63.9467C16.0007 65.5521 14.636 66.7936 12.9779 67.3581C10.1617 65.3782 7.76282 62.7728 6 59.6695H11.9527H45.1174H51.9205H69.1635C69.6331 59.6695 70.0138 60.0525 70.0138 60.5249C70.0138 60.6738 69.9752 60.8201 69.9018 60.9494L66.4088 67.0985Z" stroke="#874120" stroke-linecap="round" stroke-linejoin="round"></path><path d="M17.2223 64.1618C17.3418 63.9128 17.2369 63.6142 16.988 63.4946C16.739 63.3751 16.4403 63.48 16.3208 63.729L17.2223 64.1618ZM7.82188 66.2623L7.4016 65.9915L6.85989 66.832L7.28017 67.1029L7.82188 66.2623ZM16.3208 63.729C15.3311 65.7903 13.296 67.1899 10.9606 67.1899V68.1899C13.7116 68.1899 16.08 66.5408 17.2223 64.1618L16.3208 63.729ZM10.9606 67.1899C9.81007 67.1899 8.73552 66.8511 7.82188 66.2623L7.28017 67.1029C8.34855 67.7914 9.61004 68.1899 10.9606 68.1899V67.1899Z" fill="#874120"></path><path d="M71.7161 67.6513L72.1763 67.4556L71.785 66.5354L71.3248 66.731L71.7161 67.6513ZM63.7097 63.729C63.5901 63.48 63.2914 63.3751 63.0425 63.4946C62.7936 63.6142 62.6887 63.9128 62.8082 64.1618L63.7097 63.729ZM71.3248 66.731C70.629 67.0269 69.8681 67.1899 69.0698 67.1899V68.1899C70.0057 68.1899 70.8995 67.9985 71.7161 67.6513L71.3248 66.731ZM69.0698 67.1899C66.7345 67.1899 64.6994 65.7903 63.7097 63.729L62.8082 64.1618C63.9504 66.5408 66.3188 68.1899 69.0698 68.1899V67.1899Z" fill="#874120"></path></svg>