<svg xmlns="http://www.w3.org/2000/svg" width="94" height="94" viewBox="0 0 94 94" fill="none"><path d="M51.7004 69.8437C36.2668 58.1318 28.55 48.5248 28.55 41.0224C28.55 33.2919 34.6327 27.025 42.136 27.025C46.0466 27.025 49.5712 28.7273 52.05 31.4518C54.5289 28.7273 58.0535 27.025 61.9641 27.025C69.4674 27.025 75.55 33.2919 75.55 41.0224C75.55 48.5248 67.8333 58.1318 52.3997 69.8437L52.05 70.1084L51.7004 69.8437Z" fill="#EBBEAD"></path><path d="M64.3226 53.933C60.5 58.692 54.7479 63.9935 47.0474 69.837L47 69.8729L46.9526 69.837C39.2521 63.9935 33.5 58.692 29.6774 53.933C25.848 49.1656 24 44.9984 24 41.4141C24 33.9455 29.8727 27.9167 37.0859 27.9167C40.8474 27.9167 44.2404 29.5532 46.6302 32.18L47 32.5865L47.3698 32.18C49.7596 29.5532 53.1526 27.9167 56.9141 27.9167C64.1273 27.9167 70 33.9455 70 41.4141C70 44.9984 68.152 49.1656 64.3226 53.933Z" stroke="#874120" stroke-linecap="round"></path><path d="M55.225 34.075C61.1 32.9 65.2125 37.6 63.45 43.475" stroke="#874120" stroke-linecap="square"></path><path d="M47 22.325V14.1" stroke="#874120" stroke-linecap="square" stroke-linejoin="round"></path><path d="M47 82.8375V75.2" stroke="#874120" stroke-linecap="square" stroke-linejoin="round"></path><path d="M73.4375 48.7625L81.6625 48.7625" stroke="#874120" stroke-linecap="square" stroke-linejoin="round"></path><path d="M69.3026 26.4598L75.1776 20.5848" stroke="#874120" stroke-linecap="square" stroke-linejoin="round"></path><path d="M12.3375 48.7625L20.5625 48.7625" stroke="#874120" stroke-linecap="square" stroke-linejoin="round"></path><path d="M22.3474 73.4152L28.2224 67.5402" stroke="#874120" stroke-linecap="square" stroke-linejoin="round"></path><path d="M65.7776 67.5401L71.6526 73.4151" stroke="#874120" stroke-linecap="square" stroke-linejoin="round"></path><path d="M18.8224 20.5848L24.6974 26.4598" stroke="#874120" stroke-linecap="square" stroke-linejoin="round"></path></svg>