<svg xmlns="http://www.w3.org/2000/svg" width="80" height="80" viewBox="0 0 80 80" fill="none"><path d="M48.1966 48.1303C47.6039 47.2568 47.7682 46.0765 48.5768 45.3979L55.6608 39.4538C56.4694 38.7752 57.6604 38.8184 58.4177 39.5538L78.2866 58.8458C79.1616 59.6955 79.1101 61.1154 78.1758 61.8993L66.7717 71.4685C65.8374 72.2524 64.4302 72.0566 63.7454 71.0473L48.1966 48.1303Z" fill="#EBBEAD"></path><path d="M29.0822 39.5537C29.8396 38.8184 31.0305 38.7751 31.8392 39.4537L38.9231 45.3978C39.7318 46.0764 39.896 47.2567 39.3033 48.1303L23.7546 71.0473C23.0698 72.0566 21.6625 72.2524 20.7282 71.4684L9.32418 61.8993C8.38986 61.1153 8.33834 59.6954 9.21338 58.8458L29.0822 39.5537Z" fill="#EBBEAD"></path><path d="M20.1088 18.6L29.812 10.458" stroke="#984C28" stroke-linecap="square" stroke-linejoin="round"></path><path d="M44.4466 48.1303C43.8539 47.2568 44.0182 46.0765 44.8268 45.3979L51.9108 39.4538C52.7194 38.7752 53.9104 38.8184 54.6677 39.5538L74.5366 58.8458C75.4116 59.6955 75.3601 61.1154 74.4258 61.8993L63.0217 71.4685C62.0874 72.2524 60.6802 72.0566 59.9954 71.0473L44.4466 48.1303Z" stroke="#984C28" stroke-linecap="round" stroke-linejoin="round"></path><path d="M24.9608 14.529L53.4577 48.4903" stroke="#984C28" stroke-linecap="square" stroke-linejoin="round"></path><path d="M50.1879 10.458L59.8912 18.6" stroke="#984C28" stroke-linecap="square" stroke-linejoin="round"></path><path d="M25.3322 39.5537C26.0896 38.8184 27.2805 38.7751 28.0892 39.4537L35.1731 45.3978C35.9818 46.0764 36.146 47.2567 35.5533 48.1303L20.0046 71.0473C19.3198 72.0566 17.9125 72.2524 16.9782 71.4684L5.57418 61.8993C4.63986 61.1153 4.58834 59.6954 5.46338 58.8458L25.3322 39.5537Z" stroke="#984C28" stroke-linecap="round" stroke-linejoin="round"></path><path d="M55.0398 14.529L26.5428 48.4903" stroke="#984C28" stroke-linecap="square" stroke-linejoin="round"></path></svg>