<?xml version="1.0" encoding="UTF-8"?>
<svg id="Layer_1" xmlns="http://www.w3.org/2000/svg" version="1.1" viewBox="0 0 800 800">
  <!-- Generator: Adobe Illustrator 29.5.0, SVG Export Plug-In . SVG Version: 2.1.0 Build 137)  -->
  <defs>
    <style>
      .st0 {
        fill: #874120;
      }
    </style>
  </defs>
  <path class="st0" d="M712.8,43c23.6,9.9,45.5,29.9,54.2,54.2,2,5.4-.9,8.2,5.8,10.3.5,2.8-3.3.7-2.3,4.6s2.8.5,2.4,2.2l-.4,592c-5.9,6.7-4.6,14.9-9.3,23.1-12.7,22.2-35.1,39-59,47.2-197.6,3.4-395.8.4-593.6,1.5-39.3-7.7-71.9-37.5-77.6-78.5V117.7c2.5-7.3,1.3-13.3,4.4-20.9s18.1-29.5,27.4-36.8,21-14.3,34.1-17.4.7-2.3,1.4-2.3c3.1-.1,4.2,3.2,7.9-1.2h584.8c5,2.6,15.8,2.3,19.7,3.9ZM264.8,186.3c-24.6-31.2-75-30.7-97.3,2.6-5.2,7.8-9.1,20.6-10.4,29.7s3.9,27.6,9.9,37.3,2.5,1.4,3.3,2.5c3.2,4.7,3.2,8,9.3,12.5,14.8,11,27.9,13.7,45.9,11.5,20.4-2.6,35.2-14.9,44.9-32.1.7-1.3,3.7-6.3,3.9-6.6.4-1.1,3.6-22.5,3.5-23.7-1.4-10.1-6.4-25.3-13-33.6ZM430.6,363.3c-2.1-8.5,1.6-25.5,0-35h-97.6v325.8s97.6,0,97.6,0v-181.8c1.9-21,7.4-38.7,24.1-52.9,18.8-16,54.5-14.7,73.6,1.2,9.4,7.7,19.5,35.2,19.5,47.1v185.3h99.9c0-11,1.3-21.7,1.2-32.7-.2-33.6-1-67.3-1.3-100.9-.2-39.9,4.6-86.6-6.1-124.7-11.7-41.6-46.2-69.3-86.4-75.5-37.4-5.7-79.6,2.5-107.8,28.7-4.2,3.9-9.2,14.3-14.4,16.6s-2.2-.6-2.3-1.2ZM267.5,328.3h-99.9v325.8c14.6-2.7,29.5.1,44.3,0,3,0,5.6-1.2,8-1.2,5.3,0,47.1,2.7,47.7-.7v-324Z"/>
</svg>