<?xml version="1.0" encoding="UTF-8"?>
<svg id="Layer_1" xmlns="http://www.w3.org/2000/svg" version="1.1" viewBox="0 0 94 94">
  <!-- Generator: Adobe Illustrator 29.4.0, SVG Export Plug-In . SVG Version: 2.1.0 Build 152)  -->
  <defs>
    <style>
      .st0 {
        fill: #99542a;
      }

      .st1 {
        fill: #efc9ba;
      }
    </style>
  </defs>
  <g id="j0JgEs">
    <polygon class="st1" points="32.5 28.7 28.8 70.9 72.2 71.5 67 28.7 32.5 28.7"/>
  </g>
  <g id="j0JgEs1" data-name="j0JgEs">
    <g>
      <rect class="st0" x="4.8" y="53.2" width="11.2" height="1.4"/>
      <path class="st0" d="M70.9,53.3h9.5c1.3-.2,1.7,1.2.5,1.4-3,.4-6.8-.3-9.9,0-.8-.2-.8-.9-.1-1.4Z"/>
      <path class="st0" d="M14.3,39.3c.6.5,1.3.9,1.8,1.4s1.3,1.4,1.3,1.5c.3.6-.4,1.1-.9.8-1.9-1.7-4.1-3.2-5.9-4.9s-1-.8-.9-1.2.6-.8,1-.7,3,2.6,3.6,3.1Z"/>
      <path class="st0" d="M70.5,42.5c-1.6,1.2-2.2.5-1-.9l6-5.2c.9-.4,1.5.5.9,1.2-2,1.6-3.8,3.4-5.8,4.9Z"/>
      <path class="st0" d="M15.9,66.5c-.2.2-.8.4-1.1.7-1.7,1.4-3.2,2.9-5,4.3-1.4,0-1.2-.8-.4-1.6s4.5-4,5.4-4.5c1.4-.8,2,.3,1.1,1.2Z"/>
      <path class="st0" d="M74.1,67.8c1,.9,2.2,1.7,3.2,2.5.4,1.4-.6,1.4-1.6.7s-4.9-4.1-5.5-4.9,0-1.3.6-1.1,2.2,1.7,2.8,2.1.3.5.4.6Z"/>
      <path class="st0" d="M47.5,18.7c-.1.2,0,.9-.2,1.2,1.8.2,4,.2,5.8.8s3.5,2.4,4.3,3.8c1.3,2.1,1.9,4.6,2.6,6.9.2.2,3.2-.2,3.6,0s.8,3.7.8,4.3,0,.5-.1.8c-.5.7-3.6.4-4.5.5s-.3,0-.2.2l3.8,37c.2.9,2.3,0,3,.6s-.2,2.1-.4,2.7c-.3,1.1-.3,2.2-.8,3.2.8.2,1.9.6,2.7,1,2.4,1.4,4.3,6.8,3.5,9.5H14.7c-.3-.3-.5-.6-.5-1,0-2,1.7-7.1,3.5-8.1s2.1-1,3.1-1.2c0-.1-.2-1.4-.3-1.7-.2-.7-1.2-3.8-.9-4.3s2.4-.3,3-.2l.2-.4c.5-4.9.7-9.9,1.2-14.9.5-5.1,1.3-10.3,1.8-15.4s.3-4.7.8-7.1c-.7-.4-1.4,0-2.1,0s-.8-.2-1.1-.2c-.6,0-1.3.5-1.5-.6s.2-4.1.4-4.5c.4-.6,3.1-.1,3.9-.4.4-2,.9-3.9,1.9-5.6s2.8-3.8,4-4.5c2-1.2,4.8-.9,7.1-1.3-.3-.3-.1-1.2-.2-1.3s-.5,0-.8,0c-3.8-1.4-4.6-7.1-3.5-10.6,2.6-7.9,14.7-7.4,17,.4s.2,7.8-2.7,9.5-1.6.6-1.6.7ZM39.2,17.1c.3-1.4,2.1-3.4,3.5-3.5s2.6.6,3.1,1.1,1.2,1.7,1.6,2.5c3.4-1.4,3.8-6.2,2.5-9.3s-1.8-2.5-3.3-3.3-2.4-.9-4.2-.9c-5.4,0-8,6.3-6.1,10.8s1.6,2.4,2.9,2.6ZM45.9,20c0-1.5.3-2.7-.9-3.8s-1.8-1.1-2.2-.9-.2.5-.3.5-.3-.1-.5,0c-1.4.8-1.5,2.8-1.3,4.2,1.8.1,3.5,0,5.3,0ZM58.3,31.6c0-1.5-.6-3.2-1.3-4.6-1.1-2.2-2.9-4.5-5.4-5.1s-8.7-.7-12.2-.5-5.9.1-8,2.4-3.6,5.1-3.7,7.9h30.6ZM23.4,32.8v3h39.5v-3H23.4ZM57.1,37.1h-27.6s13.7,15.7,13.7,15.7l13.9-15.7ZM32.4,42.6c-.3-.4-1-.8-1.4-1.3-1-1.1-1.8-2.4-2.9-3.5-.5,4.2-1.1,8.3-1.6,12.5-.6,5.9-1.3,11.8-1.7,17.7s-.2,3.7-.3,5.6l17.6-19.4c.2-.7-.6-.9-.8-1.6-3.1-3.2-5.9-6.7-8.8-10ZM62,73.9l-3.8-36.1-13.9,16.1,17.7,20ZM43.7,55.6l-.6-.4-17.7,19.7,35.3-.2c-.6-.8-1.5-1.5-2.2-2.3-4.9-5.5-10.2-11.1-14.8-16.8ZM64.9,76.1H21.2c.7,1.4.9,2.9,1.1,4.4,7.5,0,14.9,0,22.4,0s3,0,4.5,0h14.7c-.2-.7.3-1,.4-1.6.2-.9.3-1.9.7-2.8ZM70.3,90c-.5-4.1-2.2-7.8-6.8-8H21.6c-.9.2-3.2,1.4-3.7,2.1-1.1,1.4-2,4.3-2,6l54.4-.2Z"/>
    </g>
  </g>
</svg>