<?xml version="1.0" encoding="UTF-8"?>
<svg id="Layer_1" xmlns="http://www.w3.org/2000/svg" version="1.1" viewBox="0 0 94 94">
  <!-- Generator: Adobe Illustrator 29.4.0, SVG Export Plug-In . SVG Version: 2.1.0 Build 152)  -->
  <defs>
    <style>
      .st0 {
        fill: #f2bba9;
      }

      .st1 {
        fill: none;
        stroke: #a2471c;
        stroke-linecap: round;
        stroke-linejoin: round;
        stroke-width: 1px;
      }
    </style>
  </defs>
  <g id="Website-_x26A1__xFE0F_">
    <g id="Desktop---book-dates">
      <g id="Group-34">
        <g id="Group-25">
          <g id="icons-_x2F_-Night-_x2F_-rust">
            <path id="Combined-Shape" class="st0" d="M49.2,12.9c-9.5,9.8-11.8,25-4.7,37.4,7.1,12.3,21.5,18,34.7,14.7-2,2.1-4.3,3.9-7,5.4-15,8.7-34.2,3.6-42.9-11.3-8.6-15-3.4-34.1,11.6-42.8,2.6-1.5,5.4-2.6,8.2-3.3Z"/>
          </g>
        </g>
      </g>
    </g>
  </g>
  <g id="Website-_x26A1__xFE0F_1" data-name="Website-_x26A1__xFE0F_">
    <g id="Desktop---book-dates1" data-name="Desktop---book-dates">
      <g id="Group-341" data-name="Group-34">
        <g id="Group-251" data-name="Group-25">
          <g id="icons-_x2F_-Night-_x2F_-rust1" data-name="icons-_x2F_-Night-_x2F_-rust">
            <path id="Combined-Shape1" data-name="Combined-Shape" class="st1" d="M44.1,15.1c-9.5,9.8-11.8,25-4.7,37.4s21.5,18,34.7,14.7c-2,2.1-4.3,3.9-7,5.4-15,8.7-34.2,3.6-42.9-11.3-8.6-15-3.4-34.1,11.6-42.8,2.6-1.5,5.4-2.6,8.2-3.3Z"/>
          </g>
        </g>
      </g>
    </g>
  </g>
</svg>