<?xml version="1.0" encoding="UTF-8"?>
<svg width="24px" height="24px" viewBox="0 0 24 24" version="1.1" xmlns="http://www.w3.org/2000/svg" xmlns:xlink="http://www.w3.org/1999/xlink">
    <!-- Generator: Sketch 52.5 (67469) - http://www.bohemiancoding.com/sketch -->
    <title>icons / food / rust</title>
    <desc>Created with Sketch.</desc>
    <g id="icons-/-food-/-rust" stroke="none" stroke-width="1" fill="none" fill-rule="evenodd">
        <g id="Group-2" transform="translate(12.500000, 12.500000) rotate(-315.000000) translate(-12.500000, -12.500000) translate(10.000000, 4.000000)" fill="#984C28" fill-rule="nonzero">
            <path d="M2,5 L3,5 L3,16.5 C3,16.7761424 2.77614237,17 2.5,17 L2.5,17 C2.22385763,17 2,16.7761424 2,16.5 L2,5 Z" id="Rectangle"></path>
            <path d="M0,4 L5,4 L5,4 C5,4.55228475 4.55228475,5 4,5 L1,5 C0.44771525,5 6.76353751e-17,4.55228475 0,4 Z" id="Rectangle"></path>
            <rect id="Rectangle" x="0" y="0" width="1" height="4"></rect>
            <rect id="Rectangle" x="4" y="0" width="1" height="4"></rect>
            <rect id="Rectangle" x="2" y="0" width="1" height="4"></rect>
        </g>
        <g id="Group" transform="translate(12.000000, 12.000000) scale(-1, 1) rotate(-315.000000) translate(-12.000000, -12.000000) translate(11.000000, 3.000000)" fill="#984C28" fill-rule="nonzero">
            <path d="M1,9 L2,9 L2,17.5 C2,17.7761424 1.77614237,18 1.5,18 L1.5,18 C1.22385763,18 1,17.7761424 1,17.5 L1,9 Z" id="Rectangle"></path>
            <path d="M0.5,4 C0.5,1.33333333 1,7.10542736e-15 2,7.10542736e-15 L2,11 C1.33333333,12.3333333 1,12.3333333 1,11 C1,9 0.5,6 0.5,4 Z" id="Rectangle"></path>
        </g>
    </g>
</svg>