<?xml version="1.0" encoding="UTF-8"?>
<svg id="Layer_1" xmlns="http://www.w3.org/2000/svg" version="1.1" viewBox="0 0 80 80">
  <!-- Generator: Adobe Illustrator 29.5.0, SVG Export Plug-In . SVG Version: 2.1.0 Build 137)  -->
  <defs>
    <style>
      .st0 {
        fill: #874120;
      }

      .st1 {
        fill: #ebbead;
      }
    </style>
  </defs>
  <path class="st1" d="M65.2,21.3c-.2-.3-.5-.4-.8-.3s-.2,0-.3,0,0,0-.1,0c0,0,0,0,0,0-.8.1-1.5.5-2.2.8-3,.9-7.4-.2-10.5-.8-1.9-.3-4.4-1.2-6.3-.7-.5.1-1.3.6-1.6.7-.4,0-1.6-.3-2.1-.4-4.2-.3-9.1,1.5-13.4,1.7s0,0,0,0c-1.5,0-4.1-1.5-4-1.5,0,0-.1,0-.2,0-.3-.1-.7,0-.9.3l-8.8,16.3c-.1.3,0,.6,0,.8s.2.2.2.3c0,0,0,0,.1,0l4.9,4.9c.2.2.3.6,0,.9-.9,1.3-1.3,2.9-.2,4.3.7.9,1.8,1.4,2.9,1.4s.8.4.7.8c-.3,2.1,1.4,4,3.5,3.8s.8.3.7.8c-.2,2.1,1.5,3.7,3.7,3.5s.8.3.8.8c-.2,2.6,2.6,4.5,5.1,3,1.3-.8,2.3-2.3,3.5-3.3s.6-.3.9,0c1.2.9,4.1,3.4,4.8,3.8,1.9,1.2,4,1,5.3-.9.2-.3.6-1.1.7-1.4,0,0,0-.2,0-.2,0-.5.5-.8,1-.6s0,0,0,0c2.5,1.1,4.7-.6,4.7-3s.4-.8.8-.7c2.3.5,4.4-1.3,4.2-3.7s.3-.8.7-.8c2.2.1,4.3-1.6,3.9-4,0-.5-.3-.9-.5-1.4s0-.6.2-.8c0,0,7.1-6.6,7.2-6.5,0-.1.1-.2.2-.3.2-.2.3-.6.1-.9l-9-16.4Z"/>
  <path class="st0" d="M47.2,66.1c0,.4-.4,1.1-.7,1.5-1.3,1.9-3.4,2.1-5.3.9s-5-4.2-5.3-4.1c-1.3,1.1-2.5,2.8-3.9,3.7-2.8,1.7-6-1-4.9-4-2.9,1-5.5-1.3-4.5-4.3-2.9,1.1-5.5-1.8-4.2-4.6-1.5.5-3,0-3.9-1.2s-.5-3.4.6-4.8l-5.3-5.4c0,0-.1,0-.2.1-.5.7-.7,1.9-1.9,1.6l-6.6-3.7c-.9-.7-.6-1.1-.2-2,2.7-5.3,6-10.9,8.9-16.1s1.4-2.6,2.1-3.7.5-.7,1.2-.5l6.7,3.7c1.1.8-.2,2-.5,2.9,1.4.5,2.7,1.3,4.2,1.4,4.3-.2,9.3-2.1,13.5-1.8s1.7.4,2.1.4,1.2-.6,1.6-.7c1.9-.5,4.4.4,6.3.7,3.1.6,7.6,1.7,10.6.8s1.5-.6,2.2-.8c-.3-1-1.6-2.1-.5-3l6.7-3.7c.8-.3,1,.2,1.4.8,3.8,6.4,7,13.2,10.8,19.5.5,1,.6,1.4-.4,2-1.7,1.1-4,2.3-5.8,3.2s-.8.5-1.2.4c-.8-.2-.8-1.1-1.3-1.6l-7.4,7.2c.1.6.5,1.2.7,1.8.4,2.8-2.4,4.7-4.9,3.9,1.1,3.2-2,5.8-5,4.4.7,3-1.8,5.3-4.7,4.1s-.7-.4-1-.6c0,.4,0,1,0,1.4ZM12.6,20.3L1.3,40.7c0,.3.5.5.8.7,1.9,1.1,3.9,2.1,5.8,3.2.3,0,.4-.5.6-.7l10.8-19.8c0-.1,0-.2-.2-.3-.8-.2-6.3-3.6-6.6-3.4ZM77.7,41v-.3c0,0-11.1-20.3-11.1-20.3h-.3s-6.4,3.5-6.4,3.5v.3c0,0,11.1,20.4,11.1,20.4h.3s6.4-3.5,6.4-3.5ZM61.7,50.2c2.1-1.9,4.1-4,6.1-5.9s1.3-1,1.2-1.3l-8.8-16.1c-1.1.3-2.1.8-3.2,1.1-2.3.5-4.8,0-7.1-.4s-5.3-1.2-7.5-1.4-4.1,1.4-5.7,2.7c-2.3,1.8-5.1,4-7.2,5.9s-2.4,2.3-1.3,3.9,2.9.8,4.2,0c1.8-1,6.7-4.7,8.4-4.8s2.2,1,3.2,1.8c5.9,4.9,11.7,9.9,17.6,14.8h.1s0-.1,0-.1ZM38,26.7c-1.2-.2-2.4-.2-3.5,0-3.7.3-7.3,1.3-11,1.7-1.7,0-3.1-.8-4.6-1.5l-8.8,16.1,5.6,5.6,3.3-3.2c2.8-1.9,6.5,1,5.1,4.1,2.7-1.8,6.1.9,4.9,4,2.9-1.1,5.4,1.6,4.4,4.4,1.4-.3,2.6-.2,3.5,1s.9,3.3-.3,4.9c1.4,1,2.6,2.2,4,3.2s1.3,1,2,1.3c3,1.1,5.3-2.8,2.9-5s-4.9-3.7-7.1-5.6c-.4-.3-.2-.9.3-.8s2.5,1.9,3,2.2c1.9,1.5,3.8,3.3,5.8,4.7,3.3,2.4,6.3-.3,4.1-3.6l-10-8.3c-.3-.4,0-.8.5-.7s.5.4.7.5c3,2.3,5.7,5,8.7,7.3s1.7,1.3,2.6,1.6c3,.8,4.6-2.6,2.5-4.6-3.4-2.9-7.4-5.5-10.7-8.5s-.8-.6-.3-1,.4,0,.6,0c3.5,2.6,6.7,5.6,10.2,8.2s1.6,1.3,2.4,1.4c3.2.4,4.6-3,2.3-5.1-4-3.3-8-6.7-11.9-10s-4.5-4.1-6.7-5.8-1.5-.7-2.5-.1c-2.2,1.1-7.1,5-9.2,5.2s-3.8-1.2-3.6-3.5,4.6-4.6,6.1-6.2l4.8-3.9ZM20.5,45.5c-.4,0-1,.3-1.3.6-.9,1.3-4.3,3.8-4.5,5.3s1.7,3.8,3.6,2.8,4.6-4.2,4.9-5c.9-2-.6-4-2.7-3.7ZM27.7,50.3c-1.2-1.2-2.8-.7-3.9.2s-4.2,4-4.6,4.8c-1.1,2.3,1.4,4.7,3.5,3.4s4.8-4.5,5.3-5.3.5-2.4-.3-3.2ZM30,53.9c-.6,0-1.3.4-1.7.8-1,.8-3.9,3.7-4.5,4.7-1.7,2.7,1.2,5.2,3.7,3.6s4.3-4.1,4.9-5c1.2-1.9,0-4.3-2.3-4.1ZM32.3,59.4c-1.1,1-3,2.9-3.9,4.1-2,2.6.9,5.6,3.4,3.7s4.1-3.9,4.5-4.5c1.7-2.8-1.4-5.6-4-3.2Z"/>
</svg>