<?xml version="1.0" encoding="UTF-8"?>
<svg id="Layer_1" xmlns="http://www.w3.org/2000/svg" version="1.1" viewBox="0 0 94 94">
  <!-- Generator: Adobe Illustrator 29.4.0, SVG Export Plug-In . SVG Version: 2.1.0 Build 152)  -->
  <defs>
    <style>
      .st0 {
        fill: #903c14;
      }

      .st1 {
        fill: #f2bba9;
      }
    </style>
  </defs>
  <path class="st1" d="M91.4,53.6c-.2-.7-.7-1.4-1-2.1-2.4-5.8-4.9-11.7-7.5-17.4-.4-1-.7-2.1-1.6-2.8-.6-.5-1.9-1-2.7-1.1-19.8,0-39.5,0-59.3,0-3.4.3-3.9,2.6-5,5.2-2.1,4.8-4.2,9.6-6.2,14.5-.5,1.3-2,3.9-2.2,5.2-.2,1.6-.2,5.1,0,6.7.2,2.1,1.6,3,3.6,3v19.2c0,1.2,1.3,2.4,2.4,2.7.7.2,1.5,0,2.2.2,19,0,38,0,56.9,0,4.3,0,8.6.1,12.9-.1,1.3,0,1.9.2,3.1-.7.7-.5,1.1-1.3,1.2-2.1v-19.1c2.1,0,3.4-1,3.6-3.1.2-2,.2-6.2-.5-8ZM81.9,54.3H16.3c-1.1,0-2-.9-2-2v-1.8c0-.3,0-.6.2-.9,1.7-3.6,2.9-7.9,4.8-11.2.8-1.5,1.5-2.3,3.2-3h52.6c2.7.7,3.5,2.8,4.6,5.1,1,2.1,3.4,7.3,3.9,9.3.4,1.7.3,3.9-1.6,4.6Z"/>
  <g>
    <path class="st0" d="M44.5,15.8c0,2.5-2,4.6-4.6,4.6s-4.6-2-4.6-4.6,2-4.6,4.6-4.6,4.6,2,4.6,4.6ZM43,15.8c0-1.7-1.4-3.1-3.1-3.1s-3.1,1.4-3.1,3.1,1.4,3.1,3.1,3.1,3.1-1.4,3.1-3.1Z"/>
    <path class="st0" d="M50.1,32.1c-.5.6-1.8,1.4-2.6,1.5-5.5.8-6.2-8.7.2-8.1s4.1,4.4,2.3,6.6ZM46.4,27c-.5,0-1.2.7-1.4,1.2-.5.8-.4,1.9,0,2.7,1.4,2.4,4.6.9,4.4-1.6s-.3-1.2-.8-1.7-1.4-.7-2.1-.6Z"/>
    <path class="st0" d="M36.7,27.1c0,1.9-1.6,3.5-3.5,3.5s-3.5-1.6-3.5-3.5,1.6-3.5,3.5-3.5,3.5,1.6,3.5,3.5ZM35.3,27.1c0-1.1-.9-2-2-2s-2,.9-2,2,.9,2,2,2,2-.9,2-2Z"/>
    <g>
      <path class="st0" d="M77.2,36c.9.8,1.1,1.8,1.6,2.8,2.6,5.8,5,11.6,7.5,17.4.3.7.8,1.4,1,2.1.7,1.8.7,6,.5,8s-1.6,3.1-3.6,3.1v19.1c-.1.9-.5,1.6-1.2,2.1-1.2.9-1.8.6-3.1.7-4.3.2-8.6.1-12.9.1-19,0-38,0-56.9,0-.7-.2-1.5,0-2.2-.2-1.1-.3-2.4-1.4-2.5-2.7v-19.2c-2,0-3.4-.9-3.6-3s-.2-5.1,0-6.7,1.6-3.9,2.2-5.2c2.1-4.9,4.1-9.7,6.2-14.5,1.1-2.6,1.6-4.9,5-5.2,19.8,0,39.5,0,59.3,0,.8,0,2.1.6,2.7,1.1ZM86,61.6c.9-1.2-.3-3-.8-4.2-2.2-5.3-4.6-10.5-6.8-15.8-1.2-2.8-1.1-5.1-4.7-5.3-6.2-.3-12.5.1-18.6.1-13.3,0-26.8-.3-40.2,0-2.3.5-2.3,2-3.1,3.7-2.5,6-5.4,11.9-7.8,17.9-.6,1.4-1.8,3.6.5,4h80.6c.4,0,.7-.2,1-.5ZM3.2,63.1v3.5c0,.7,1.2,1.7,2,1.5h79.2c.7.1,2-.8,2-1.4v-3.7c-.6.4-1.3.5-2,.5H5.2c-.7,0-1.4-.3-2.1-.4ZM82.8,69.5H6.8c0,0,.1.1.1.2v19s.3.5.4.6c.5.5,1,.7,1.7.7h71.6c.9,0,2.2-.7,2.2-1.8v-18.8Z"/>
      <g>
        <path class="st0" d="M73.3,41.5c.3.4.5.6.8,1.1,1.9,3.8,3.3,8.1,5.2,12,.3,1.4.4,3.6-1.4,4.1-21.7.3-43.5,0-65.3.1-2.3-.2-2.8-2.2-2.3-4.2.6-1.9,1.7-4.3,2.5-6.1s2.4-6.4,3.9-7.6,1.3-.8,2-.9c3.7-.4,8.1.3,11.9,0,.9,0,1.3,1.1.3,1.4h-12.2c-.7,0-1.7.7-2,1.3s0,.4-.2.6c-1.4,3-2.9,6.3-4.1,9.3s-.9,2.1-1.1,2.9.1,1.4.9,1.7h64.7c1.2-.3,1-1.3.7-2.3-.7-2.3-2.1-5-3.1-7.2s-1.2-3.3-1.9-4.8-.7-1.1-1.3-1.3c-1.5-.6-6,0-8-.2s-1-1.2,0-1.4c3.2.4,7.6-1.2,10,1.4Z"/>
        <path class="st0" d="M18.4,51.9c3.6-1.7,7.3-1.7,11.1-.8s4.6,1.4,6.8,1.2,5-2,7.9-1.8,1.6.2,1.9.3c.4.2.5.9.2,1.2s-1.6,0-2.1-.1c-2.8-.2-5.1,1.6-7.7,1.7-5.3.2-9.3-2.8-15-1.3-1.1.3-4,2.1-3.3-.5Z"/>
        <path class="st0" d="M65.5,45.7c1.7,0,3.9.3,5.4.9s2.2.9,1.5,1.7-1,0-1.5-.2c-2-.8-4.2-1.3-6.4-1-3.6.4-6.1,3.1-10.1,2.5-2.6-.4-5.2-1.7-7.9-2.1s-1.6.2-1.7-.8,1-.8,1.6-.7c2.5.3,4.9,1.5,7.3,2.1s2.8.3,4.8-.4c2.6-1,3.9-1.9,6.9-2Z"/>
        <path class="st0" d="M37.4,38.9c1.6-.2,3.1.1,4,1.4s.9,2.3.7,3.7-2,2.8-3.4,2.9c-5.6.5-6.2-7.3-1.4-8ZM40.8,42.8c0-1.4-1.2-2.6-2.6-2.6s-2.6,1.2-2.6,2.6,1.2,2.6,2.6,2.6,2.6-1.2,2.6-2.6Z"/>
        <path class="st0" d="M52.4,54.9c0-.1,0-.7,0-.9.2-.7,1.3,0,1.7,0,5,.8,9.6-3.1,14.2-1.9s2.5.9,1.5,1.7-1,0-1.5-.2c-4.1-.9-8.1,1.9-12.3,1.9s-3.2,0-3.5-.7Z"/>
        <path class="st0" d="M60.5,41.6c0,1.8-1.5,3.3-3.3,3.3s-3.3-1.5-3.3-3.3,1.5-3.3,3.3-3.3,3.3,1.5,3.3,3.3ZM57.2,39.8c-1.5,0-2.2,1.9-1.2,2.9,1.4,1.5,3.8-.4,2.7-2.1-.3-.4-1-.8-1.5-.8Z"/>
        <path class="st0" d="M17.5,47.7c.5-.6,3.4-1.5,4.3-1.8,2.2-.5,4.9-.6,7.1,0s2.1.7,1.2,1.4-2.7-.5-3.6-.5c-2.3-.2-4.9.5-7,1.4s-1,.6-1.4.7c-.7,0-1-.6-.5-1.1Z"/>
        <path class="st0" d="M52,40.4c.4.5-.1,1.1-.7,1.1-2-.2-4.7.3-6.6,0s-.8-1.4.2-1.5,5.8-.1,6.6.1.4.2.5.2Z"/>
      </g>
    </g>
    <path class="st0" d="M58.6,20.3c0,1.9-1.6,3.5-3.5,3.5s-3.5-1.6-3.5-3.5,1.6-3.5,3.5-3.5,3.5,1.6,3.5,3.5ZM57.2,20.3c0-1.1-.9-2.1-2.1-2.1s-2.1.9-2.1,2.1.9,2.1,2.1,2.1,2.1-.9,2.1-2.1Z"/>
  </g>
</svg>