<?xml version="1.0" encoding="UTF-8"?>
<svg id="Layer_1" xmlns="http://www.w3.org/2000/svg" version="1.1" viewBox="0 0 80 80">
  <!-- Generator: Adobe Illustrator 29.5.0, SVG Export Plug-In . SVG Version: 2.1.0 Build 137)  -->
  <defs>
    <style>
      .st0 {
        fill: #874120;
      }

      .st1 {
        fill: #ebbead;
      }
    </style>
  </defs>
  <path class="st1" d="M44.1,8.7c-14.5,0-26.2,11.7-26.2,26.2s11.7,26.2,26.2,26.2,26.2-11.7,26.2-26.2-11.7-26.2-26.2-26.2ZM44.1,44.8c-5.5,0-9.9-4.4-9.9-9.9s4.4-9.9,9.9-9.9,9.9,4.4,9.9,9.9-4.4,9.9-9.9,9.9Z"/>
  <path class="st0" d="M41.3,11.2s.5,0,.7.4,0,1.6,0,1.7c5.6.5,10.9,2.7,15.1,6.4.8-.4,1.2-1.9,2.2-1.1.6-.7,1.2-1.4,1.8-2.1.8-1,2.5-3.5,3.7-3.9,1.7-.5,3,.8,2.5,2.5-.5,1.7-4.2,3.9-5.7,5.2s0,0-.2,0c0,.2.3.3.3.6,0,.7-1.1,1.4-1.4,1.8,3.6,4.2,5.7,9.4,6.2,14.8h1.9c.5.2.3.8.4.9s1.3,0,1.5,0c1.6-.2,4.1-.9,5.6-.5s2.5,3.1.5,4c-1.3.6-4.1-.2-5.6-.4s-1.2,0-1.9-.2c0,1.5-1.2,1-2.3,1-.5,5.5-2.7,10.7-6.2,14.9,0,.2,1.3,1.2,1.4,1.5s-.3.7-.3.8c.8.6,1.5,1.3,2.2,1.9s2.9,2,3.5,3.1c1.1,2.2-1.3,4-3.2,2.5-1.6-1.7-3-3.6-4.5-5.4-.3-.2-.4.2-.6.2-.6,0-1.4-1.4-1.8-1.3s-1.6,1.3-1.9,1.5c-3.9,2.7-8.4,4.3-13.1,4.7,0,.9.4,2-.7,2.3l.8,5.7c0,1.1-.4,2.7-1.7,3-2.3.4-2.7-1.6-2.6-3.4s.6-3.6.7-5.4c-1.2.2-.6-1.4-.7-2.1-5.1-.4-10.1-2.4-14.1-5.4s-.9-.8-1-.8c-.3,0-1,.9-1.3,1.1-.8.6-.9-.2-1.2,0-.8,1-1.7,2-2.5,3-.8,1-1.9,3-3.6,2.9s-2.2-3.1-.7-4.2l4.8-3.8c0,0-.5-.4-.2-.9s1.4-1.2,1.4-1.4c-3.6-4.1-5.8-9.5-6.3-15-1,0-2.4.6-2.2-1-.9,0-1.9.2-2.8.3-1.6.2-4,1.1-5.4,0s-1-2.5.2-3.3,4-.2,5.7,0,1.6,0,2.3.3c.2,0,0-.8.4-.9s1.8,0,1.9,0c.6-5.4,2.7-10.7,6.2-14.8-.6-.7-2.1-1.4-1.1-2.4h-.2c-1.2-1-4.7-3.4-5.4-4.6-1.1-1.8.2-3.9,2.3-3.1,2.1.8,2.3,2.3,3,3.2.7.9,1.5,1.8,2.3,2.7,1-.7,1.4.7,2.2,1.1,3.4-2.8,7.3-4.9,11.7-5.8s2.4-.4,3.6-.6c.2-.7-.4-2,.8-2.1-.2-1.7-.6-3.4-.7-5.1s0-1,0-1.4c.3-3.3,4.5-3,4.4.7s-1,5.6-.8,5.8h-.4ZM40.6,11.2c0-1.8.5-3.6.6-5.4s0-2.8-1.6-2.6-1.1,1.8-1,2.6c0,1.3.3,2.9.5,4.3s0,.7.2,1.1c0,0,1.3,0,1.3,0ZM41.3,11.9h-2.8v1.3h2.8v-1.3ZM13.9,13.3c-.9.1-.9,1.1-.6,1.7s3.3,3.2,4.2,3.9,1,.9,1.3,1,0,0,.2,0,.9-.8.9-.9c-1.3-1.3-2.4-3-3.7-4.4s-1.3-1.4-2.2-1.3h0ZM65.4,13.3c-.6,0-1.3.9-1.7,1.3-1.3,1.4-2.4,3-3.7,4.4,0,.2.6.9.8.9h.3c1.7-1.6,3.8-2.9,5.3-4.7.6-.9.3-2.2-1-2h0ZM38.2,14.1c-19.3,1.1-30.8,22.9-20.7,39.6,10.3,17,34.7,16.7,44.8-.4,10.6-18-3.4-40.4-24.1-39.2ZM20.8,19.2c-.4.1-1.4,1.7-1.9,1.9l1,1.2,2-2.1c0-.1-.9-1.1-1.1-1ZM58.8,19.2c-.2.2-1,.9-.9,1,.3.2,1.9,2,2.1,2,.2-.2,1-.9.9-1-.3-.2-1.9-2-2.1-2ZM13,38.5h-1.3c-.1,1.1,0,2.1,0,3.2h1.3v-3.2ZM68.1,38.5h-1.4c0,1.1,0,2.1,0,3.2h1.4v-3.2ZM10.9,39.3h-1.6c-1.3,0-2.7-.4-4-.4s-2.5,0-2.5,1.4,2.9,1,3.9.9,2.8-.2,4.2-.4v-1.4h0ZM69,40.8c2.2.2,4.4.5,6.6.6,1.2,0,1.7-1.2.9-2.1s-3.9-.2-5.1,0-1.6,0-2.5.2v1.4h0ZM59.2,60.8c.6-.6,1.2-1.1,1.7-1.7,0,0-1-1.1-1.1-1.1-.6.6-1.2,1.3-1.8,1.9s-.4,0-.2.3.7.6,1,.9c.2,0,.2-.3.3-.4h0ZM18.8,59v.2c.4.6,1.5,1.3,2,2l1-1c0-.2-1.8-1.8-2-2.1-.2,0-.8.9-1.1.9h.1ZM18.8,60.3c-.1,0-.5.3-.6.4-1.2.9-3.3,2.6-4.3,3.6-1,1-1.2,1.8-.4,2.4s2-.3,2.6-1c1.1-1.2,2.3-2.6,3.3-3.9s.5-.5.4-.7-.8-.8-.9-.8h0ZM60.9,60.3s-1,.7-.9,1l3.9,4.7c.7.5,1.1,1,2.1.9s.7-1.3.4-1.8-2.9-2.7-3.6-3.3-1.7-1.4-1.9-1.4h0ZM41.3,67.1h-2.8v1.3h2.8v-1.3ZM40.6,69.2h-1.3c0,.7-.2,1.4-.3,2.1,0,1.1-.6,4.1-.2,5s1.3,1.1,2,.5.5-1.4.5-2.2l-.6-5.5h-.1Z"/>
  <path class="st0" d="M37.8,17.4c9.9-.7,18.7,4.2,22.8,13.2,8.6,18.7-10.1,38.3-29.2,30.8-14-5.5-19-22.9-9.9-35,3.8-4.9,9.9-8.7,16.2-9.1h.1ZM38.3,18c-4.7.5-9.2,2.3-12.8,5.4l9.3,9.6c1-.7,2.2-1.4,3.4-1.4v-13.5h0ZM40.7,18h-1.7v13.3h1.6v-13.4h.1ZM41.5,18.3v13.3c1.2,0,2.3.7,3.4,1.3l9.5-9.5c-3.5-3.1-8.2-5.1-12.9-5.3h0v.2ZM54.9,23.9l-9.4,9.4,1.1,1.2,9.5-9.4s-1.2-1.2-1.2-1.2ZM24.8,24s-1.1,1-1.1,1.1v.2l9.3,9.4,1.1-1.2-9.3-9.4h0ZM62,38.4c-.6-4.7-2.3-9.2-5.4-12.7l-9.5,9.4c.5,1.1,1.2,2.1,1.3,3.3,0,0,13.6,0,13.6,0ZM17.8,38.4h13.3c.2-.6.4-1.3.7-1.9.3-.6.8-1.2.7-1.4l-9.4-9.4c-3.1,3.5-4.9,8-5.3,12.7ZM39.3,32.1c-6.4.5-9.9,8.1-5.6,13.1,3.6,4.3,10.5,3.7,13.2-1.2,3-5.5-1.3-12.3-7.6-11.8h0ZM31.1,39.2h-13.1c-.1,0-.3,0-.3.2v1.4h.1c0,0,13.2,0,13.2,0-.2-.6,0-1.2,0-1.8h.1ZM48.7,40.9h13.3c.3,0,0-1.5,0-1.7h-2.4c-3.5,0-7-.2-10.5,0s-.5-.2-.6,0,0,.4,0,.5v1q0,0,0,0h.1ZM31.2,41.7h-13.5c.4,4.1,1.8,7.9,4.2,11.3s.9,1,1.2,1.6l9.4-9.4h0c-.7-1.1-1.2-2.3-1.3-3.5ZM62,41.7h-13.6c0,1.2-.6,2.4-1.3,3.4h0c0,0,9.5,9.6,9.5,9.6,3-3.7,4.9-8.2,5.4-12.9h0ZM33,45.7l-9.2,9.5,1.2,1.2,9.3-9.5-1.3-1.2ZM46.6,45.8s-1.1,1-1.1,1.1v.2l9.1,9.2h.2s1.1-.8,1.2-.9,0,0,0-.2c0,0-9.4-9.4-9.4-9.4ZM38.3,62.2v-13.3c-1.1-.4-2.4-.7-3.4-1.5h0l-9.4,9.5c1,.7,1.9,1.5,3,2.1,3,1.8,6.4,2.8,9.9,3.2ZM41.5,48.7v13.5c3.8-.3,7.4-1.6,10.6-3.7s1.6-1.1,2-1.5.2,0,0-.2l-9.4-9.4c-1,.6-2.2,1.2-3.4,1.3h.1ZM40.7,48.9h-1.6v13.4h1.7v-13.4h-.1Z"/>
  <path class="st0" d="M35.7,44c-4.8-4.9,2.3-12.6,7.7-8.3,5.4,4.3-2.1,14-7.7,8.3ZM39.4,35.4c-6.4.6-5.6,10.3,1.1,9.6,6-.7,5.5-10.2-1.1-9.6Z"/>
</svg>