<?xml version="1.0" encoding="UTF-8"?>
<svg id="Layer_1" xmlns="http://www.w3.org/2000/svg" version="1.1" viewBox="0 0 94 94">
  <!-- Generator: Adobe Illustrator 29.4.0, SVG Export Plug-In . SVG Version: 2.1.0 Build 152)  -->
  <defs>
    <style>
      .st0 {
        fill: #903c14;
      }

      .st1 {
        fill: #f2bba9;
      }
    </style>
  </defs>
  <g>
    <path class="st1" d="M72.3,56.2c-.1.1-.2.3-.5.4s-.3,0-.3,0,0,.2-.1.4c-.6.9-2.2,1.3-2.9,2s-1.1,1.6-1.2,1.9c-1.6,3.3-1,10-1,13.7,0,4.3-.8,7.6,4.1,9.3s4.2.9,4.9,1.7.6,2.3-.8,2.4-2.4,0-3.5-.1c-4.8,0-9.6,0-14.3,0-1-.3-2.5.4-3-.8s0-1.5.5-1.9c1.2-.8,3.6-.9,5.1-1.5,3.2-1.3,3.5-3.1,3.6-6.2.1-4,0-8.1-.2-12.1s0-3.5-1.2-5.3-1.7-1.6-2.9-2.6c-6.5-4.8-7.9-9.6-6.7-17.6s1.4-6.9,2.4-10,.4-1.8,1.5-1.9.5.1.8.1c5.6,0,11.2-.1,16.8-.1s1.3,1.4,1.6,2.3c1,3.6,2,7.7,2.5,11.4.8,5.8-.7,10.6-5.2,14.4ZM76.5,42.4c-.4-4.4-1.7-8.6-2.8-12.9l-.2-.3h-17.7c-.3,1.2-.7,2.3-1.1,3.5-.6,2.3-1.2,4.8-1.6,7.1s-.2,1.4-.3,2.1c2.4-.4,5.1-.4,7.5-.3,2.2,0,4,.8,6.1,1.2,2.7.5,5.7.5,8.3,0,.3,0,1.8-.4,1.8-.5Z"/>
    <g>
      <path class="st1" d="M41,2c.1.1.3.8.3,1.1,0,1,.1,3.2,0,4.2s-.2.7-.3.9c-.2.2-.4.2-.4.2-.2.2,0,5,0,5.7,0,2.9-.1,5.9,0,8.8s2.6,4.3,4.8,6.6c2,2.2,2.8,5,3,8,.3,6.2,0,13,0,19.2,0,8.5.1,17,0,25.4,0,3.2,0,5.7-4,5.9-1.6,0-3.4,0-5,0-3.9,0-8.4.3-12.2,0-3.2-.2-3.7-2.5-3.8-5.2-.1-2.4,0-4.9,0-7.4,0-12.5,0-25.1,0-37.6.3-2.4.5-4.8,1.8-6.9s2.7-2.7,4-3.9c1.9-1.8,1.9-3.6,2-6s.1-5.6.1-8.4,0-4,0-4.2-.5-.3-.6-.5-.1-.5-.2-.7c0-1,0-2.6,0-3.6s.2-1.6,1.1-1.7c1.4-.2,3.5,0,5,0s1.9-.1,2.9,0,1.2,0,1.4.2Z"/>
      <path class="st1" d="M27.6,70.3c-.1-.1-.2-.4-.3-.6,0-1.5-.1-3-.1-4.4,0-5.6,0-11.3,0-17s-.2-3.4,0-5.1.5-1.2,1.2-1.4h15.2c1.7.2,1.3,1.4,1.4,2.5s0,1.8,0,2.7c0,6.9.3,14.2-.1,21.1s.3,2.4-1.3,2.6c-4.8-.1-9.6.2-14.4,0-.5,0-1.2,0-1.6-.3ZM28.1,42.8v26.9s15.9,0,15.9,0v-26.9s-15.9,0-15.9,0Z"/>
    </g>
  </g>
  <g>
    <path class="st0" d="M67.4,60.5c-.1.1-.2.3-.5.4s-.3,0-.3,0,0,.2-.1.4c-.6.9-2.2,1.3-2.9,2s-1.1,1.6-1.2,1.9c-1.6,3.3-1,10-1,13.7s-.8,7.6,4.1,9.3,4.2.9,4.9,1.7.6,2.3-.8,2.4-2.4,0-3.5-.1c-4.8,0-9.6,0-14.3,0-1-.3-2.5.4-3-.8s0-1.5.5-1.9c1.2-.8,3.6-.9,5.1-1.5,3.2-1.3,3.5-3.1,3.6-6.2s0-8.1-.2-12.1c-.1-2.1,0-3.5-1.2-5.3s-1.7-1.6-2.9-2.6c-6.5-4.8-7.9-9.6-6.7-17.6s1.4-6.9,2.4-10,.4-1.8,1.5-1.9.5.1.8.1c5.6,0,11.2-.1,16.8-.1s1.3,1.4,1.6,2.3c1,3.6,2,7.7,2.5,11.4.8,5.8-.7,10.6-5.2,14.4ZM71.6,46.7c-.4-4.4-1.7-8.6-2.8-12.9l-.2-.3h-17.7c-.3,1.2-.7,2.3-1.1,3.5-.6,2.3-1.2,4.8-1.6,7.1s-.2,1.4-.3,2.1c2.4-.4,5.1-.4,7.5-.3,2.2,0,4,.8,6.1,1.2,2.7.5,5.7.5,8.3,0s1.8-.4,1.8-.5ZM71.8,47.9c-1,.1-2,.4-3.1.5s-2.9.3-4.2.2c-3-.1-5.9-1.3-8.9-1.5s-4.3-.3-6.1,0-1.8.4-1.8.6c0,.3,0,1.9,0,2.3.2,4.5,2,7.2,5.3,10,1.7,1.4,5,3.7,7.2,3.4,3.5-.5,8.2-4.6,9.9-7.5,1.4-2.4,1.8-5.2,1.7-7.9ZM62,63.9c-1.5.6-3.1.6-4.6,0,1,1.5,1.4,3.5,1.6,5.2.2,3,0,6.1,0,9,0,3.8,1.1,7.9-2.8,10.3-1.7,1.1-3.3,1.1-5.1,1.6s-1.7.5-1.4,1.2h20.2c.1-.7-.9-1-1.4-1.2-2.6-.8-5.2-1-6.9-3.4-1.6-2.1-1.2-3.9-1.2-6.4s0-2.6,0-3.9c0-3.1-.3-7.7.7-10.6s.6-1.3.9-1.9Z"/>
    <g>
      <path class="st0" d="M36.1,6.3c.1.1.3.8.3,1.1,0,1,.1,3.2,0,4.2s-.2.7-.3.9c-.2.2-.4.2-.4.2-.2.2,0,5,0,5.7,0,2.9-.1,5.9,0,8.8s2.6,4.3,4.8,6.6c2,2.2,2.8,5,3,8,.3,6.2,0,13,0,19.2,0,8.5.1,17,0,25.4,0,3.2,0,5.7-4,5.9-1.6,0-3.4,0-5,0-3.9,0-8.4.3-12.2,0-3.2-.2-3.7-2.5-3.8-5.2s0-4.9,0-7.4c0-12.5,0-25.1,0-37.6.3-2.4.5-4.8,1.8-6.9s2.7-2.7,4-3.9c1.9-1.8,1.9-3.6,2-6s.1-5.6.1-8.4,0-4,0-4.2-.5-.3-.6-.5-.1-.5-.2-.7c0-1,0-2.6,0-3.6s.2-1.6,1.1-1.7c1.4-.2,3.5,0,5,0s1.9-.1,2.9,0,1.2,0,1.4.2ZM34.5,7.1c-2.4-.2-5,.1-7.5,0-.5.7-.1,1.8-.1,2.5s-.2,1.4,0,2c2.8,0,5.6.2,8.3-.1.4-.1.1-.8.2-1.1,0-.9.3-2.1,0-3s-.4-.3-.6-.3-.2,0-.2,0ZM34.6,12.7c-1,0-2,0-3,0s-2.6-.2-3.8,0-.2,0-.3.1v10.3c2.4.3,4.9.4,7.2,0v-10.5ZM34.8,24.3c-1.7,0-3.4,0-5,.1l-2.2-.2c0,1.6.1,3.4-.3,4.9-.9,3.1-4.8,4.5-6.2,7.5s-1.2,8.3-1.2,12.1c0,12.5-.2,25,.1,37.5s-.2,2.4.2,3.6c.5,1.8,2.9,1.6,4.4,1.6,4,0,8,0,12,0s5,.4,5.8-1.2.4-4.1.4-5.9c0-14.5.2-29-.1-43.4-.6-5.3-2.5-5.7-5.7-9.2s-1.8-4.2-2-7.1,0-.2,0-.2Z"/>
      <path class="st0" d="M22.6,74.6c-.1-.1-.2-.4-.3-.6,0-1.5-.1-3-.1-4.4,0-5.6,0-11.3,0-17,0-1.6-.2-3.4,0-5.1s.5-1.2,1.2-1.4h15.2c1.7.2,1.3,1.4,1.4,2.5s0,1.8,0,2.7c0,6.9.3,14.2-.1,21.1s.3,2.4-1.3,2.6c-4.8-.1-9.6.2-14.4,0-.5,0-1.2,0-1.6-.3ZM23.2,47.1v26.9s15.9,0,15.9,0v-26.9s-15.9,0-15.9,0Z"/>
    </g>
  </g>
</svg>