<?xml version="1.0" encoding="UTF-8"?>
<svg id="Layer_1" xmlns="http://www.w3.org/2000/svg" version="1.1" viewBox="0 0 800 800">
  <!-- Generator: Adobe Illustrator 29.5.0, SVG Export Plug-In . SVG Version: 2.1.0 Build 137)  -->
  <defs>
    <style>
      .st0 {
        fill: #874120;
      }
    </style>
  </defs>
  <path class="st0" d="M158.4,40.4c156.4,5.9,322-10.3,477.4-.7,64.1,4,111,38.6,123.5,103.1-4.5,162.8,5.3,327,1.8,489.4-1.7,79.8-52.4,123.9-129.7,128.1-160.2,8.6-330.5-4.4-491.2-2.9-48.7-9.2-87.9-49.7-96.6-98.2,1.6-159.8-10.6-327.8-2.6-487,3.7-73.8,41-124.6,117.5-131.8ZM316.3,189.3h-119l158.6,234.6-158.6,186.9h32.9c48.1-54.9,93.8-112.4,143.9-165.4l112.2,165.4h119l-165.4-243.6,149.6-177.8c-10.8,1.3-25.3-3.3-34.1,3.2l-130.1,153.1-108.8-156.3Z"/>
  <path class="st0" d="M557.6,585.8h-55.5L244.9,214.2h55.5c80.3,116.5,163.7,231.1,243.2,348.2,4.9,7.2,11.3,15.1,14,23.4Z"/>
</svg>