<?xml version="1.0" encoding="UTF-8"?>
<svg id="Layer_1" xmlns="http://www.w3.org/2000/svg" version="1.1" viewBox="0 0 94 94">
  <!-- Generator: Adobe Illustrator 29.4.0, SVG Export Plug-In . SVG Version: 2.1.0 Build 152)  -->
  <defs>
    <style>
      .st0 {
        fill: #903c14;
      }

      .st1 {
        fill: #f2bba9;
      }
    </style>
  </defs>
  <g>
    <path class="st1" d="M38.2,17.9c.4.6,2,.7,2.2.7,1.2-.3,2.3-.7,3.4-1.2,2.3-1,4.4-2.3,5.9-4.3,0,.6.4,1,.7,1.5.4.7,1.3,1.6,1.9,2.1.7.6,2.4,1.8,3.2,2.1.3.1.9.3,1.2.3.8,0,1.1-.9,1.1-1,0,0,.2-.4.2-.6.2-3.9-.8-7-3.8-9.5-.3-.2-1-.5-1.2-.8,0-.1.2-.9.2-1.2,0-1.3-.8-2.8-1.9-3.6-3-2.3-8.2-.8-8.4,3.3,0,.4-.1,1.1.3,1.2-.5.7-1.3,1-2,1.5-.2.1-.7.5-.8.6-1.5,1.5-2.6,5.2-2.6,7.2,0,.4.2,1.7.2,1.7Z"/>
    <path class="st1" d="M88.6,64.6c-.4-1.3-2.4-.7-3.3-.3,1.2-2.5-2-3.9-4.1-3.3-.7.2-1.5.9-2.1,1.2-1.4.6-2.1.4-3.4-.2-6.9-3.1-6.6-8.6-8.3-15-1-3.9-2.6-8.1-6.4-10.1-1.9-1-3.9-1.4-5.8-2.1,0,0,0,0-.1,0,0,.5-.1,1-.3,1.4,0,0,0,0,0,0,0,0-.2,1.6-.3,1.8-.7,2.4-3.2,4.5-5.7,4.8-.4,0-2.8,0-3,0-.2,0-1.2-.5-1.4-.6-2.2-1.1-4-3.6-4-6.1,0,0,0,0,.1,0,0-.6,0-1.2.3-1.7-1.3.8-3,1-4.5,1.6-4.3,1.6-6.2,4.3-7.8,8.4-2.5,6.5-.9,13.1-8,17.1-1.1.6-2.6,1.5-3.8,1.1-2-.7-2.1-2-4.8-1.5-1.5.3-2.8,1.6-2.3,3.2-1.4-.3-3.1-.9-3.3,1.1-.1,1.6,1.4,3.4,2.6,4.3,2,1.3,4.5,1.6,6.8,1.3,0,.3-.3.4-.5.7-3.1,5.7,2.1,10.9,7.1,12.8,1.1.4,3.3.6,4.1,1.4.8.9.9,1.5,2.3,1.9,4.2,1.4,7.7,0,11.7-.8,4.6-1,8.2-1.6,12.9-.5,3.2.8,7,2.3,10.2,1.9,1.6-.2,3.3-.5,4.4-1.7,0,0,.5-.7.6-.7,0-.2-.1-.4-.1-.4,0,0,1.5-.3,1.7-.3,5.3-1.3,11.3-5.2,10.3-11.4-.2-.9-.7-2.2-1.3-2.9,2.2.4,4.5,0,6.4-1.1,1.7-.9,3.5-3.1,2.9-5.1ZM35.2,67.2s-.2,0-.3.2c-.1.3-.7,1.8-.8,1.8l-5.8-1.3c-.3,0-3.9-.3-3.9-.5.4-.3,1.5-.5,1.8-.7,3.1-1.9,6-3.7,7.8-7.1.5-1,.8-2.2,1.4-3.1,0,.5.3.9.4,1.4.8,3.3.5,5.7-.8,8.9,0,.1,0,.3,0,.3ZM63.2,63c1.7,1.5,3.6,2.7,5.5,3.8l1.8.8c-1,.1-2,.1-3,.3-1.1.2-2.5.4-3.7.7-.6.1-2.6.9-3,.7-.3-.2-.5-.9-.6-1.3-1.5-3.3-2.1-7.1-1-10.9,0-.1.2-.4.3-.4l1.6,3.5c.2.6.7,1,1,1.4.2.3.6.7.4.9.4,0,.5.3.8.6Z"/>
  </g>
  <g>
    <path class="st1" d="M44.3-107.5c0,0-.2.3-.5.4s-.3,0-.3,0c0,0,0,.2,0,.4-.6.9-2.2,1.3-2.9,2s-1.1,1.6-1.2,1.9c-1.6,3.3-1,10-1,13.7s-.8,7.6,4.1,9.3,4.2.9,4.9,1.7.6,2.3-.8,2.4-2.4,0-3.5,0h-14.3c-1-.3-2.5.4-3-.8s0-1.5.5-1.9c1.2-.8,3.6-.9,5.1-1.5,3.2-1.3,3.5-3.1,3.6-6.2,0-4,0-8.1-.2-12.1s0-3.5-1.2-5.3-1.7-1.6-2.9-2.6c-6.5-4.8-7.9-9.6-6.7-17.6s1.4-6.9,2.4-10,.4-1.8,1.5-1.9.5.1.8.1c5.6,0,11.2-.1,16.8-.1s1.3,1.4,1.6,2.3c1,3.6,2,7.7,2.5,11.4.8,5.8-.7,10.6-5.2,14.4h0ZM48.5-121.3c-.4-4.4-1.7-8.6-2.8-12.9l-.2-.3h-17.7c-.3,1.2-.7,2.3-1.1,3.5-.6,2.3-1.2,4.8-1.6,7.1s-.2,1.4-.3,2.1c2.4-.4,5.1-.4,7.5-.3,2.2,0,4,.8,6.1,1.2,2.7.5,5.7.5,8.3,0,.3,0,1.8-.4,1.8-.5h0Z"/>
    <g>
      <path class="st1" d="M13-161.7c0,0,.3.8.3,1.1,0,1,0,3.2,0,4.2s-.2.7-.3.9c-.2.2-.4.2-.4.2-.2.2,0,5,0,5.7,0,2.9,0,5.9,0,8.8s2.6,4.3,4.8,6.6c2,2.2,2.8,5,3,8,.3,6.2,0,13,0,19.2s0,17,0,25.4c0,3.2,0,5.7-4,5.9h-5c-3.9,0-8.4.3-12.2,0-3.2-.2-3.7-2.5-3.8-5.2-.1-2.4,0-4.9,0-7.4v-37.6c.3-2.4.5-4.8,1.8-6.9s2.7-2.7,4-3.9c1.9-1.8,1.9-3.6,2-6s.1-5.6.1-8.4v-4.2c0-.2-.5-.3-.6-.5s-.1-.5-.2-.7v-3.6c0-1,.2-1.6,1.1-1.7,1.4-.2,3.5,0,5,0s1.9-.1,2.9,0c1,.1,1.2,0,1.4.2h0Z"/>
      <path class="st1" d="M-.4-93.4c-.1,0-.2-.4-.3-.6,0-1.5-.1-3-.1-4.4v-17c0-5.7-.2-3.4,0-5.1s.5-1.2,1.2-1.4h15.2c1.7.2,1.3,1.4,1.4,2.5s0,1.8,0,2.7c0,6.9.3,14.2,0,21.1s.3,2.4-1.3,2.6c-4.8,0-9.6.2-14.4,0-.5,0-1.2,0-1.6-.3h0ZM.1-120.9v26.9h15.9v-26.9s-15.9,0-15.9,0Z"/>
    </g>
  </g>
  <g>
    <path class="st0" d="M39.4-103.2c0,0-.2.3-.5.4s-.3,0-.3,0c0,0,0,.2,0,.4-.6.9-2.2,1.3-2.9,2-.7.7-1.1,1.6-1.2,1.9-1.6,3.3-1,10-1,13.7s-.8,7.6,4.1,9.3,4.2.9,4.9,1.7.6,2.3-.8,2.4-2.4,0-3.5,0h-14.3c-1-.3-2.5.4-3-.8s0-1.5.5-1.9c1.2-.8,3.6-.9,5.1-1.5,3.2-1.3,3.5-3.1,3.6-6.2s0-8.1-.2-12.1c0-2.1,0-3.5-1.2-5.3s-1.7-1.6-2.9-2.6c-6.5-4.8-7.9-9.6-6.7-17.6s1.4-6.9,2.4-10,.4-1.8,1.5-1.9.5,0,.8,0c5.6,0,11.2,0,16.8,0s1.3,1.4,1.6,2.3c1,3.6,2,7.7,2.5,11.4.8,5.8-.7,10.6-5.2,14.4h0ZM43.6-117c-.4-4.4-1.7-8.6-2.8-12.9l-.2-.3h-17.7c-.3,1.2-.7,2.3-1.1,3.5-.6,2.3-1.2,4.8-1.6,7.1s-.2,1.4-.3,2.1c2.4-.4,5.1-.4,7.5-.3,2.2,0,4,.8,6.1,1.2,2.7.5,5.7.5,8.3,0s1.8-.4,1.8-.5h0ZM43.8-115.8c-1,0-2,.4-3.1.5s-2.9.3-4.2.2c-3,0-5.9-1.3-8.9-1.5s-4.3-.3-6.1,0-1.8.4-1.8.6v2.3c.2,4.5,2,7.2,5.3,10,1.7,1.4,5,3.7,7.2,3.4,3.5-.5,8.2-4.6,9.9-7.5,1.4-2.4,1.8-5.2,1.7-7.9h0ZM34-99.8c-1.5.6-3.1.6-4.6,0,1,1.5,1.4,3.5,1.6,5.2.2,3,0,6.1,0,9s1.1,7.9-2.8,10.3c-1.7,1.1-3.3,1.1-5.1,1.6s-1.7.5-1.4,1.2h20.2c0-.7-.9-1-1.4-1.2-2.6-.8-5.2-1-6.9-3.4-1.6-2.1-1.2-3.9-1.2-6.4v-3.9c0-3.1-.3-7.7.7-10.6s.6-1.3.9-1.9h0Z"/>
    <g>
      <path class="st0" d="M8.1-157.4c0,0,.3.8.3,1.1,0,1,0,3.2,0,4.2s-.2.7-.3.9c-.2.2-.4.2-.4.2-.2.2,0,5,0,5.7,0,2.9,0,5.9,0,8.8s2.6,4.3,4.8,6.6c2,2.2,2.8,5,3,8,.3,6.2,0,13,0,19.2s0,17,0,25.4c0,3.2,0,5.7-4,5.9h-5c-3.9,0-8.4.3-12.2,0-3.2-.2-3.7-2.5-3.8-5.2s0-4.9,0-7.4v-37.6c.3-2.4.5-4.8,1.8-6.9s2.7-2.7,4-3.9c1.9-1.8,1.9-3.6,2-6s.1-5.6.1-8.4v-4.2c0-.2-.5-.3-.6-.5s-.1-.5-.2-.7v-3.6c0-1,.2-1.6,1.1-1.7,1.4-.2,3.5,0,5,0s1.9,0,2.9,0,1.2,0,1.4.2h.1ZM6.5-156.6c-2.4-.2-5,0-7.5,0-.5.7-.1,1.8-.1,2.5s-.2,1.4,0,2c2.8,0,5.6.2,8.3-.1.4-.1,0-.8.2-1.1,0-.9.3-2.1,0-3s-.4-.3-.6-.3h-.3ZM6.6-151h-3c-1,0-2.6-.2-3.8,0s-.2,0-.3.1v10.3c2.4.3,4.9.4,7.2,0v-10.5h-.1ZM6.8-139.4c-1.7,0-3.4,0-5,.1l-2.2-.2c0,1.6.1,3.4-.3,4.9-.9,3.1-4.8,4.5-6.2,7.5s-1.2,8.3-1.2,12.1c0,12.5-.2,25,.1,37.5s-.2,2.4.2,3.6c.5,1.8,2.9,1.6,4.4,1.6h12c4,0,5,.4,5.8-1.2s.4-4.1.4-5.9c0-14.5.2-29,0-43.4-.6-5.3-2.5-5.7-5.7-9.2s-1.8-4.2-2-7.1,0-.2,0-.2h-.2Z"/>
      <path class="st0" d="M-5.4-89.1c-.1,0-.2-.4-.3-.6,0-1.5-.1-3-.1-4.4v-17c0-1.6-.2-3.4,0-5.1s.5-1.2,1.2-1.4h15.2c1.7.2,1.3,1.4,1.4,2.5s0,1.8,0,2.7c0,6.9.3,14.2,0,21.1s.3,2.4-1.3,2.6c-4.8,0-9.6.2-14.4,0-.5,0-1.2,0-1.6-.3h0ZM-4.8-116.6v26.9h15.9v-26.9s-15.9,0-15.9,0Z"/>
    </g>
  </g>
  <path class="st0" d="M46.6,5.9c1.1,1,2,2.7,1.7,4.1,0,.3,0,.5,0,.7,3.3,2.2,5,5.7,4.8,9.6,0,.5-.3,1,0,1.5,1,1.4,1.1,3.4,0,4.8-.3.5-1,.7-1.5,1-.8.9-1.2,2.7-2.2,3.7-.4.5-1,1.1-1.4,1.6-.4.6,0,2,.2,2.7,1.5,3.2,5.9,2.6,8.5,4.5,9.3,5.8,3.7,20.5,14.4,24.9,1.7,1,3.4.4,4.9-.6,1.8-1.1,5.4,0,5,2.3-.1.9.9.1,1.6.2,1.7-.2,2,1.7,1.4,2.9-1.3,3.2-5.4,4.5-8.6,4.2-.2,0-.3,0-.3,0,.2.8.9,1.7,1,2.8,1.1,6.5-5.9,10.7-11.5,11.6-.5.1-.4.4-.6.8-5.4,5.5-13.8-.9-20.2-.4-6.6-.3-13.6,4.6-20.3,1.6-.5-.3-.8-.7-1.1-1.1-1-1.3-2.7-1.3-4.1-1.8-4.9-1.7-10.2-6.7-7.8-12.3.6-1.2,1-1.4-.6-1.2-2.3,0-4.8-.6-6.4-2.2-1.8-1.5-2.7-5.6.9-4.7.8.2.6-.4.7-1,.2-.9,1-1.6,1.9-1.9.6-.2,2-.3,2.6,0,1.1.4,2,1.5,3.3,1.4,3.6-.5,7-3.7,8.2-7,2.2-6.8,2-16.3,10.2-19.5,1.6-.7,3.5-.9,5-1.8.9-.5,1.6-1.6,1.8-2.7.1-.6.2-1.2-.2-1.7-.9-1-1.9-1.8-2.4-3.2-.3-.7-.4-1.5-1.1-2-.4-.4-1.2-.5-1.4-1.1-.1-.5-.6-1-.8-1.7-.3-1.2.3-2.5.8-3.5-.5-2.9.4-7.4,2.9-9.3.6-.5,1.4-.9,1.9-1.4.3-.4,0-.9,0-1.4.2-4,5.3-5.6,8.3-3.4h.1ZM45.7,7c-1.4-1.2-3.9-1.2-5.2.2-.3.4-.6,1-1,1.3-.2.4,0,1,0,1.4,0,.1.3,0,.5,0,.9-.5,1.8-.6,2.9-.7,1.2-.2,2.7.4,3.8.8.7-.7-.5-2.5-1-3h0ZM34.5,18.2c0,.6-.2,1.8.1,2.4.3.2,1,0,1.4,0,2.8-.8,5.7-2.6,7.6-4.8.5-.5.9-2.2,1.8-1.4.8,2.9,2.8,5.1,5.5,6.4.2,0,.5.3.6,0,1.1-5-3.4-10.3-8.5-10.1-4.1.1-8,3.2-8.5,7.4v.2ZM47.3,20c-.9-.7-2-2.2-2.5-3.4,0,0-.2,0-.3,0-1,1.2-2.3,2.3-3.7,3.1-1.9,1.1-4.1,1.9-6.2,2.4-1.3,1-.9,3.6.8,4.1.8.3.8,1.1,1.1,1.8.6,1.4,1.6,2.9,2.8,3.9,4.1,3.3,9.2.3,10.7-4.2.2-.4.3-.8.6-1.1.5-.3,1.5-.6,1.7-1.3.3-.8.3-2.6-.8-2.9-1.2-.2-2.9-1.5-3.9-2.3h-.1ZM50.2,39.1c-2.3-.6-3.4-2.9-3.7-5.2-.2,0-.6.2-.8.3-1.9.8-3.9.4-5.9-.2.1,1.6-.9,3.3-2.2,4.2-.4.4-1,.7-1.4.8-.1,0-.2.2-.2.4.1,2.5,2.1,5,4.3,5.9,1.1.6,2.2.5,3.5.5,3.4,0,6.7-3.3,6.6-6.7h0ZM34.3,39.7c-14.7,2.9-6,20.1-17.8,26-.9.5-2.2,1.2-3.3,1.4-1.2.2-2.5-.9-3.6-1.3-.8-.3-1.4-.6-2.3-.2-1.4.7-.4,2.5.8,2.7.6.2,1.3.2,1.8.3.3.1.5.4.6.7-.5,2.1-5.4-.9-6.9-.9-.6,0-.1.7,0,1.1.1.3.3.6.6.9,4.2,4.3,11,1,15.4-1.2,5.2-2.6,8.6-4.6,10.6-11,.7-1.9-.2-4,0-6,.2-.8,0-2.5.9-2.7.4,0,.7.2.7.7-1.3,5.9,3,11.5,1.4,17.4-.4,1.4-.8,2.9-1.5,4.2-.2.3-.4.6-.2.8,6.2,1.9,11.9,2.3,18.4,1.3,1.5-.3,3.4-.7,4.9-1.1.2-.1.2-.3,0-.6-.4-.8-.7-1.6-1-2.4-.8-2.1-1.2-4.3-1-6.6.3-2.3,1.2-4.4,1.5-6.7.3-1.9.5-3.8.3-5.8-.1-.5,0-1.1.7-1.1.8,0,.7.7.8,1.8.2,1.9.2,3.2,0,4.8-.3,2.5,1.3,4.9,2.4,7,1.9,3.4,6.5,5.4,10,7,2.7,1.2,5.4,2.6,8.4,2.6,2.4,0,5.5-1.2,6.1-3.8,0-.2,0-.5-.2-.5-1,0-7.6,3.3-6.9.6.2-.2.5-.4.8-.4.9,0,2.2-.3,2.8-.9.4-.5.5-1.6,0-1.9-.4-.2-1.1-.4-1.6-.3-1.7.5-3.4,2-5.3,1.7-4.5-2.2-7.8-4.2-9.2-9.8-1.3-4.5-1.6-9.6-4.4-13.5-1-1.4-2.5-2.5-4.1-3.2-.7-.2-2-.7-2.7-.8-.1,0-.2.1-.3.4-.2,1.3-.8,2.7-1.6,3.7-4.7,6.2-14.5,3.7-15.7-4h0ZM30.9,70.2c1.2-3.5,1.9-7,.3-10.5-.4.2-.6,1.2-.8,1.6-1.4,4-4.9,6.3-8.3,8.4-.6.4-1.3.4-1.9.8,0,0,0,.1.3.2.6.1,3,.4,3.5.4,1.6.3,4,.9,5.6,1.2.1,0,.2,0,.3,0,.3-.4.5-1.5.9-1.9h0ZM57.6,64.4c-1.2-1.2-1.7-3.6-2.6-4.8-1.7,3.5-.8,7.8.6,11.1.3.6.4,1.7,1.3,1.4,1.4-.3,2.8-.8,4.3-1,1.7-.4,3.2-.4,4.9-.6-.2-.2-1.9-.8-2.4-1.2-2.2-1.3-4.6-2.7-6-4.8h0ZM24.5,72.4c-14.4-3.5-18.7,9.8-4.4,14.2.6,0,1.3.5,1.7,0,2.2-3.9,7.9-2.9,11.6-4.4,2.7-.6,1-.8-.5-1.3-1.8-.6-3.6-1.1-5.6-1.4-.7,0-1.2-.8-.5-1.2.9-.4,2.1.1,2.9.2,2.2,0,4.8,1.7,6.6,2.1.6.1,1,.2,1.5,0,3.3-1.3,6.8-3.1,9.9-4.7.4-.2.3-.3-.1-.3-7.7,1.3-15.5-1.6-23-3h-.1ZM70.3,72.4c-3.7-1.3-8.2,0-11.9.7-5.8,1.4-10.7,4.2-16,6.8-1.1.6-3,.8-3.7,2-.1.3,0,.9,0,1.4.1,1.3.8,2.4,1.5,3.4.9,1.1,2.8.7,4,.7,7.1,0,17.2,1.2,23.9-1.6,2.9-1.2,5.9-3.2,6.6-6.5.7-3.4-1.1-5.7-4.3-6.8h0ZM38,85.7c-.5-1-.6-2.3-.9-3.4-.4,0-1.1.4-1.5.5-3.3,1.6-8.4,1.4-11.3,2.9-1.6.9-1,3,.6,3.6,3.8,1.6,10-.5,13.8-1.5.2,0,.4,0,.5,0,.1,0-.4-.8-.6-1.1-.2-.3-.3-.6-.4-.9h0ZM62.5,88.6c-.8,0-1.7.2-2.5.3-2.5.2-5.1-.2-7.5,0,3,.8,7.3,2,10-.2h0Z"/>
</svg>