<?xml version="1.0" encoding="UTF-8"?>
<svg id="Layer_1" xmlns="http://www.w3.org/2000/svg" version="1.1" viewBox="0 0 1000 1000">
  <!-- Generator: Adobe Illustrator 29.0.1, SVG Export Plug-In . SVG Version: 2.1.0 Build 192)  -->
  <defs>
    <style>
      .st0 {
        fill: #eedae3;
      }

      .st1 {
        fill: #944063;
      }
    </style>
  </defs>
  <g>
    <path class="st1" d="M642.9,349.1c23.3,14.8,41,6.5,62.7,8.3,11.9,1,47.6-8.1,56.5-16.2,10.4-9.5,9-23.7,5.2-35-3.4-9.8-35.2,6.9-65.5,13.1-22,4.5-48.2,12.2-76.8.7-10.7-4.3-30.2-14.4-30-8.6.1,4.2,23.1,21.9,47.9,37.7Z"/>
    <path class="st1" d="M541.8,223c-30.5-41.6-51.7-52.1-64.8-58-14.1-6.4-28.9-8.2-34.3-7.2-10.7,1.8-17.2,5.9-17.2,9.6,0,4.1,10.9,17.1,35.2,31.1,9.5,5.5,27.2,11.8,38.8,17.2,10.2,4.8,25.1,14.7,34,22.4,11,9.6,46.7,61.3,48.9,57.4-3.4-9.6-31.9-60.9-40.6-72.6Z"/>
    <path class="st1" d="M582.3,295.6c6.6.7-10-55.5-12-63.2-4.7-17.9-13.4-45.6-19.3-63.1-3.5-10.3-14.5-29.5-32-34.7-13.4-4-38.7,2.3-37.8,11.3.7,7.9,18.5,16.8,31.1,28.6,12.8,12,25.5,23.6,37.7,49.6,11.7,24.8,25.6,70.8,32.4,71.6Z"/>
    <path class="st1" d="M593,174.7c-1.4-11.9-7.7-30-13.9-40.5-4.3-7.4-24.5-11.6-27.5-7.3-2.9,4.1,3.1,17.3,5.9,26.5,3.5,11.2,8.4,29.7,10.4,41.1,2.3,13.3,3.4,24.8,4.4,34.9.9,9.8,2.9,52.3,8.9,52.9,3.8.4,6.2-19.7,9.8-42.3,3.5-21.6,4.8-42.4,2.1-65.2Z"/>
    <path class="st1" d="M585.7,304.3c3.7,1.3,18.8-29.9,24.1-42.2,7.8-17.9,15.9-46.5,16.8-57.4,1.1-12.6,1.6-22.4-.4-33.9-1.5-8.9-10.8-29.4-28.1-30-7.4-.3,7,34.1,2.8,64.3-5.1,36.1-15.3,64.2-18.4,76.2-2.9,11.4-1,20.6,3.1,23.1Z"/>
    <path class="st1" d="M723.2,230.2c-10-18.1-30.7-35.6-38.2-34-7.9,1.7-9.5,22.2-25.6,44.1-10.4,14.2-22.7,28.6-34.8,38.3-11.3,9-35.5,24.3-34.7,27,.8,1.4,30.5-1.3,44.3-5.4,17.9-5.4,40.8-15.1,62.8-29.4,14.8-9.6,31.5-30.8,26.1-40.6Z"/>
    <path class="st1" d="M740.3,249.2c-10,4.7-29.7,24.5-55,36.7-10.8,5.2-33.7,16.4-58,18-26.3,1.8-43.7-1.4-41.8,3.4,1.9,4.6,33.4,15.1,65.3,12.3,9.3-.8,58.4-5.9,99.2-36.9,15-11.5.7-38.3-9.7-33.5Z"/>
    <path class="st1" d="M409.2,225.7c13.4,4.5,36.5,30.3,56.9,31.5,48,2.7,82.1,19.7,87.7,30.3,1.4,2.7-34-11.6-51.5-9.8-26.8,2.7-88.4-2.3-92.1-3.9-3.9-1.7-33.1-14.9-31.8-24.7,1-7.5,13.4-29.2,30.9-23.4Z"/>
    <path class="st1" d="M647.4,247.1c7.8-8.9,23.4-34.4,20.9-51.7-2-13.7-21.4-24.6-26.3-25.8-5.5-1.3-6.1,3.7-6,7.8.6,15.9-1.7,33.8-12.4,61.5-2.3,5.9-10,21-13.1,26.4-2.9,5-24.3,37.3-20.7,40.1,2,1.5,24.9-23.3,25.2-23.5,3.6-2.9,21.8-23,32.3-34.9Z"/>
    <path class="st1" d="M414.9,180c-9.5-1.5-6.2,12.5,1.4,22.2,8.7,11,24.6,31.2,35.9,35.6,11.9,4.7,24.4,7.1,36.7,10.1,7.4,1.8,14.7,3.9,21.8,6.9,7.7,3.3,14.7,7.9,21.6,12.7,11,7.6,46.7,30.8,50,28.1,3-2.5-34.8-37.6-40.9-42.7-27.5-23-48.7-31.4-63.6-36.1-25.3-7.8-50-34.8-62.9-36.9Z"/>
    <path class="st1" d="M565,281.6c-21.4-12.6-57.6-10.9-48.3,18.1,100.7,313.1,58.9,651.5,58.9,651.5l15.4-.5s18.4-237.1-2.8-413.1c-11.1-92.5-72.7-239.8-55.5-248.4,13.7-6.9,31.6,7.8,62.7,29.2,33.6,23.1,50.6,30.9,50.6,30.9,0,0-2-6-27.8-29.7-21.3-19.5-36.8-28.3-53.2-37.9Z"/>
    <path class="st0" d="M425.8,165.8c1.5-3.2,7.6-6.5,16.8-8,5.4-.9,20.2.9,34.3,7.2,2,.9,4.2,1.9,6.5,3.1,11.2,7,21.2,16.5,30.2,26.4,8.2,9.1,28.4,34.7,34.9,45.1-8-8.4-23.9-25.4-45.3-39.6-16.2-10.7-27.4-17.5-54.4-27.2-13.5-4.9-23.7-4.7-22.9-7Z"/>
    <path class="st0" d="M416.3,202.2c-7.6-9.7-10.9-23.7-1.4-22.2,2,.3,4.2,1.2,6.7,2.5,0,0-.5,8.4,6,17.8,8.5,12.3,23,24.9,50.1,34.5,35.9,12.8,50.6,29.9,50.6,29.9,0,0,0,0,0,0-5.6-3.8-11.3-7.3-17.5-9.9-7.1-3-14.4-5.1-21.8-6.9-12.3-3.1-24.8-5.4-36.7-10.1-11.3-4.5-27.2-24.6-35.9-35.6Z"/>
    <path class="st0" d="M549.9,224.1c-12.3-26-24.9-37.7-37.7-49.6-12.5-11.8-30.3-20.7-31.1-28.6-.8-9,24.4-15.3,37.8-11.3,4.3,1.3,8.2,3.4,11.7,6,0,0-9.7-2.5-21.1,1.3-5.7,1.9-7.4,9.3,1.1,18.1,15.5,15.9,23.8,23,33.7,41.2,12,22.1,16.1,48.6,16.1,48.6-3.6-9.2-7.2-18.3-10.6-25.6Z"/>
    <path class="st0" d="M567.7,138.3c-2,10.8,5.1,34,6.1,46.3,1.1,14.8-2.5,35.4-2.5,35.4h0c-.8-7.7-1.8-16.2-3.5-25.6-2-11.4-6.9-29.8-10.4-41.1-2.8-9.2-8.8-22.4-5.9-26.5,3.1-4.3,23.2,0,27.5,7.3,0,0-10.1-2.7-11.4,4.1Z"/>
    <path class="st0" d="M614.4,155.7c-4-1.8-4.4,7.5-5.3,21.8-.9,14.4-.7,29.2-3.8,43.7-6.5,30.1-17.5,41.9-17.5,41.9,0,0,0,0,0,0,4.3-14.5,9.8-34.6,13.1-58.1,4.3-30.2-10.1-64.6-2.8-64.3,17.2.6,26.5,21.1,28.1,30,0,0-7.8-13.3-11.8-15.1Z"/>
    <path class="st0" d="M623.6,238.9c10.7-27.7,12.9-45.5,12.4-61.5-.1-4.1.4-9.1,6-7.8,4.5,1.1,21.2,10.4,25.4,22.5-.3-.2-9.4-5.8-13.8,4.7-5.4,13-8,30.1-25,52.5-10.6,13.9-19.3,17.9-19.3,17.9h0c.5-.8.9-1.5,1.2-1.9,3.1-5.4,10.8-20.5,13.1-26.4Z"/>
    <path class="st0" d="M697.4,228.1c-11.9,7.6-24.6,20.2-45.1,38.9-20.4,18.7-34.7,17-34.7,17,2.6-1.9,5-3.7,7.1-5.3,12.1-9.6,24.4-24,34.8-38.3,16.1-21.9,17.7-42.4,25.6-44.1,7.5-1.6,28.3,15.9,38.2,34,0,0-14-9.7-25.9-2.1Z"/>
    <path class="st0" d="M740.3,249.2c7.9-3.7,18,10.8,15.9,23.1,0,0-6.1-11.5-20-6.7-13.9,4.8-32.7,21.7-55.3,29.6-22.6,7.9-29.4,4.3-29.4,4.3h0c14.4-4.2,26.7-10.1,33.8-13.6,25.3-12.2,44.9-32,55-36.7Z"/>
  </g>
  <path class="st1" d="M836,802.1c13.2,1.1,38.8-2.4,40.1-10.7,2.3-15.3-5.3-19.4-11.1-19.5-13-.2-23,11.8-42.8,12.8-20,.9-32.7-3-42.9-6.7,15.9-1.6,38.1-4.6,47.5-9.1,8-3.8,30.8-12.7,37.2-24.1,5-9.1-2.3-20.8-4.7-23.7-2.7-3.3-14.9.8-16.7,3.3-6.9,9.7-18.1,22.8-37.2,34.2-12.7,7.5-27.6,8.4-37,8.8,8.3-4.3,18.1-9.4,19.6-10.3,12.8-7.1,30.7-20.5,36.2-26.5,6.4-7,11.1-12.6,15.2-20.4,3.1-6,6.9-22.4-3-30.6-4.3-3.5-11.3,23.5-27.7,39.6-14.3,14.1-28.4,24.4-37.7,31.1,4.4-3.9,9.9-9.3,15.8-14.9,11.9-11.3,22.2-23,31-37.9,4.6-7.7,9.1-21.4,10.2-30.5.8-6.4-9.3-18.1-13.1-16.9-3.6,1.1-6.1,11.7-8.6,18.5-3,8.3-8.5,21.5-12.5,29.2-4.7,9-9.3,16.3-13.3,22.8-1.1,1.7-3.2,4.9-5.6,8.6,1.5-3.7,2.6-6.5,3.1-7.7,5.3-12.8,12.8-33.3,17.2-46.4,2.6-7.7,4.8-24.2-3.2-35.3-6.2-8.5-24.1-16.3-27.7-10.5-3.2,5,3.4,18.5,5.5,31.2,2.2,13,4.4,25.7-.1,46.8-1.9,8.9-5.5,20.5-8.5,31,2.1-14.1,4-29.4,4.1-35.3.8-38.7-7.1-54.6-12.2-64.1-5.5-10.2-13.5-18-17.1-19.9-7.2-3.8-13-4.3-14.6-2.1-1.9,2.4-1.3,15.2,6.8,34.6,3.2,7.6,10.8,19.4,15.3,28,3.9,7.5,8.3,20.2,10,28.8,1.3,6.5,1,26.1,1.2,40.5-1.2-13.2-2.6-25.5-3.2-28-5.9-26.2-14.7-40.9-21.5-50.5-11.5-16.2-13.9-43.5-20.7-50.6-5-5.2-9.4,4.6-9.3,13.8.1,10.5,5.7,30.7,14.2,43.4,4.1,6.1,23,27.5,31.7,59.6-17.6-36.7-47.3-67.7-57.9-76-15.1-11.8-27.2-17-42.3,3-28.7,37.9-62.6,311.7-62.6,311.7h15.4s24.4-195.8,34-236.6c10.6-44.8,22.5-76.9,34.8-77.8,11.3-.9,24,12.7,44.2,35.9,14.5,16.6,27.1,38.3,33.1,54.7,1.7,4.6,3.1,8.8,3.1,11.5-.1,11.9-25.8,18.2-31.9,19.4-11.9,2.4-42.6,5.6-44.1,9.8-2.3,6.1-8.1,23.6,1.6,26.1,4.5,1.2,22.8-9.2,44.3-22.1,12.1-7.2,15.1-9.7,24.2-17,1.7-1.7,4.8-5,6.5-6.6-.2,5.8-2.4,10.1-6.6,14.1-6.2,5.8-35.9,29.3-43.2,36.9-11.5,11.8-21.4,20.1-19.5,30.3,2,11.1,15.6,4.3,20.5,1.2,6.3-4,17-15.3,24.5-26.8,5.4-8.3,10.7-13.3,18.8-30.5,1.9-4.1,3.8-7.6,5.3-10.9-.8,7.1-2.5,14.8-5.8,23.2-7.4,18.8-19.1,36.1-25.2,43.8-6.7,8.4-14.8,22.7-14.8,25.8,0,3.2-2.3,18.1,10.8,23.8,5.2,2.3,21.5-21.8,24.9-30.2,4-9.8,6.7-25.5,9.3-40.6,1.8-10.6,4.1-22.9,5.1-35.2.8,15.9-.9,40.7-1.3,50.7-1.3,31.4,2.6,49.1,6.6,54.5,8.8,11.9,28.5,13.5,34.1,12.5,4.5-.8,29.6-14.7,21.5-20.1-13.8-9.4-39.5-37.4-44.9-53.8-2.8-8.4-5.3-23.9-7.5-37.4,1.9,6.4,4.3,13.6,6.9,20.7,7.1,19.4,16.5,29.2,28.7,40.2,6.6,6,25.9,19.4,34.9,18.7,10.5-.9,15.8-4.2,18.6-12.7,2.4-7.3-17.7-13.6-36.6-26.9-17-12-31.2-24.8-43-44.7-.3-.5-.6-1.1-1-1.7,4.8,4.6,25.1,23.4,31.3,27.3,5.9,3.8,19.5,18.3,58,18.3,14.2,0,21.4-22.5,13-24.3-8.1-1.8-30-4.7-50.7-9-8.8-1.8-26.7-9.1-41.9-19.2-3.7-2.5-7.1-4.9-10-7.1,5.4,3.2,11.5,6.4,15.8,8,13.1,4.9,31.2,9.6,50.8,11.1Z"/>
  <g>
    <path class="st1" d="M774.1,570.4c18.3,13.7,33,17,50.9,19.9,9.8,1.6,34.5.1,42.4-6.1,9.2-7.2,14.8-32.1,12.3-41.7-2.2-8.3-29.6,3.6-55,6.9-18.4,2.4-40.7,7.2-63.5-4.1-8.6-4.2-24.1-13.7-24.3-9-.2,3.5,17.8,19.5,37.3,34.1Z"/>
    <path class="st1" d="M698.1,459.9c-22.7-36.3-39.6-46.2-50.1-51.9-11.3-6.1-23.4-8.5-27.9-8.1-8.9.9-14.6,3.8-14.8,6.9-.2,3.4-.8,10,18.4,23.1,7.5,5.1,30.6,16.2,39.9,21.4,8.1,4.6,19.9,13.7,26.7,20.6,8.5,8.6,34.9,53.6,36.9,50.5-2.2-8.1-22.7-52.3-29.1-62.6Z"/>
    <path class="st1" d="M727.2,522.5c5.4,1-4.9-46.5-6.1-53-2.8-15.1-8.3-38.5-12.2-53.4-2.3-8.7-10.2-25.3-24.4-30.7-10.9-4.1-32.1-.5-32,7,.1,6.6,14.3,15.1,24,25.5,9.8,10.7,19.6,21.1,28.2,43.4,8.2,21.2,16.9,60.1,22.4,61.2Z"/>
    <path class="st1" d="M743.4,423.1c-.5-9.9-4.5-25.3-9.1-34.4-3.1-6.3-19.5-11.1-22.3-7.7-2.7,3.3,1.5,14.5,3.3,22.3,2.2,9.5,5.1,25.1,6.1,34.6,1.1,11.2,1.3,20.7,1.5,29.1.2,8.2-.7,43.4,4.1,44.3,3.1.6,6.3-15.9,10.7-34.4,4.2-17.6,6.6-34.8,5.7-53.8Z"/>
    <path class="st0" d="M734.3,426.1c-1.1-9.3-4.3-22.9-9.3-35.1-3-7.4-15.7-6.8-13-10,2.8-3.4,19.2,1.3,22.3,7.7,4.5,9.1,8.6,24.4,9.1,34.4.9,19.1-1.5,36.2-5.7,53.8-1,4.2-1.8,9.7-3.1,13.6-2.3-2.2.6-17.1.5-28.9,0-8.4,1-21.3-.7-35.5Z"/>
    <path class="st1" d="M729.5,529.9c3,1.3,17.3-23.6,22.5-33.5,7.5-14.3,16-37.5,17.4-46.5,1.6-10.3,2.7-18.4,1.7-28.1-.7-7.4-7.2-24.9-21.4-26.5-6.1-.7,3.7,28.6-1.6,53.4-6.4,29.6-16.6,52.2-19.8,61.9-3.1,9.3-2,17,1.2,19.3Z"/>
    <path class="st1" d="M847.8,477c-7.1-15.6-23.2-31.3-29.6-30.4-6.6,1-9.2,17.8-23.8,35-9.5,11.1-20.5,22.3-31.1,29.5-9.9,6.8-30.9,18-30.3,20.2.6,1.2,25.3.8,36.9-1.8,15.1-3.4,34.7-10.1,53.8-20.5,12.9-7,28-23.5,24.1-32Z"/>
    <path class="st1" d="M784.8,585.5c-9.6-7.6-25.4-25.7-36.9-37.9-7.3-7.7-25.5-26.9-28.8-24.5-1.2.9,14.4,18.4,23.1,29.9,10.7,14.1,23.5,36.3,29,46.4,15.9,29.3,42.6,35.8,48,40.6,10.5,9.3,27.5,4.1,32-.3,3.6-3.5,18.4-31.5,7.7-31.7-18.5-.3-59.2-10.7-74.1-22.5Z"/>
    <path class="st1" d="M860.8,493.7c-8.6,3.2-26,18.5-47.7,27-9.3,3.7-28.9,11.5-49.1,11.4-21.8,0-36.1-3.8-34.8.3,1.3,4,26.7,14.5,53.3,14.2,7.8-.1,48.7-1.3,84.3-24.5,13.1-8.6,2.9-31.7-6-28.3Z"/>
    <path class="st0" d="M862.9,501.4c-1.6-3.8-11.9,5.2-28.7,14.3-9.9,5.3-29.6,14.8-44.6,17.2-18.4,3-28.2,2.1-32.9-1,2.3,0,4.8.2,7.3.2,20.2,0,39.8-7.7,49.1-11.4,21.7-8.6,39.1-23.8,47.7-27,8.9-3.4,19.1,19.7,6,28.3-2,1.3-4,2.6-6.1,3.7,0-.6,8.3-9.5,2.2-24.3Z"/>
    <path class="st1" d="M784,486.3c7-6.8,21.5-27,20.4-41.5-.8-11.5-16.2-21.7-20.2-22.9-4.5-1.4-5.3,2.7-5.4,6.1-.5,13.2-3.4,27.9-14,50.1-2.2,4.7-9.6,16.7-12.4,21-2.7,4-22.4,29.4-19.5,31.9,1.5,1.4,22-17.7,22.2-17.9,3.2-2.2,19.4-17.7,28.9-26.9Z"/>
    <path class="st1" d="M595.7,416.7c-7.8-1.8-5.9,10-.2,18.4,6.5,9.7,18.5,27.3,27.6,31.7,9.6,4.6,19.8,7.3,29.8,10.6,6,2,11.9,4.1,17.6,7,6.2,3.2,11.7,7.4,17.1,11.8,8.6,7,36.8,28.3,39.6,26.3,2.6-1.9-26.5-33.2-31.2-37.8-21.4-20.7-38.4-29-50.4-33.7-20.4-8-39.3-31.8-49.8-34.3Z"/>
    <path class="st0" d="M595.7,416.7c.8.2.5,6.8,4,12.5,7.3,11.7,15,19.4,21.9,24.9,9.4,7.5,19.4,10.7,28.2,14,8.4,3.2,18.4,7.3,24.9,13.8,2.1,2.1,4.5,5.3,5.4,8.5-3.1-2.2-6.2-4.3-9.6-6-5.7-2.9-11.6-5.1-17.6-7-10-3.3-20.2-6-29.8-10.6-9.1-4.4-21-22-27.6-31.7-5.7-8.5-7.6-20.3.2-18.4Z"/>
    <path class="st1" d="M733.9,522.5c-12.4-18.4-39.1-29.5-53.8-32.1-13.9-2.5-27.4-4.7-37,16.8-15.2,33.8-74.1,474-74.1,474l20.1-3.7s36.1-290.7,43.6-346.3c6.2-46.5,13.6-123,28.6-128.6,13.5-5.1,25.5-1.7,43.2,12.8,24.5,20.1,44.6,47.1,44.6,47.1,0,0,0-17.6-15.1-40Z"/>
    <path class="st0" d="M824.9,625.2c24.2,4,36.4-5,36.4-5-2.6,8.1-8.1,17.6-10.1,19.5-4.6,4.4-21.5,9.6-32,.3-5.4-4.8-18.6-1.7-23.7-4.9-5.4-3.3-8.4-6.4-24.3-35.7-2.8-5.1-7.5-13.5-12.9-22.3,0,0,0,0,0,0,0,0,4.2,1.7,28.2,27.8,9.6,10.4,22.7,17.6,38.5,20.2Z"/>
    <path class="st0" d="M812.7,564.1c22.1-3,52-17.3,46.6-22.1,0,0,0,0,0,0,11.1-2.6,19.2-3.8,20.3.5,2.5,9.6-3.1,34.5-12.3,41.7-7.9,6.2-32.6,7.6-42.4,6.1-13.9-2.2-25.9-4.7-39.1-12.2-1.4-.8-2.5-1.5-3.2-1.9-4.7-2.7,7.9-9.2,30-12.2Z"/>
    <path class="st0" d="M631.9,426.3c-16.3-4.9-25.8-21.1-25.9-21.3,1.9-2.3,6.9-4.4,14-5,4.5-.4,16.6,2,27.9,8.1,10.5,5.7,27.4,15.7,50.1,51.9,1.9,3.1,5.1,9.3,8.7,16.6,0,0-14.3-20.2-29.4-31.7-15.1-11.5-27.1-12.9-45.5-18.5Z"/>
    <path class="st0" d="M652.6,392.4c-.1-7.5,21.1-11.2,32-7,12.4,4.7,20.1,18.1,23.3,27.2,0,0-7.7-14.6-12.7-5.6-5,9,5.5,23.3,12.7,46.8,3.7,12.1-.5,14.8-.5,14.8-.9-2.6-1.7-5-2.6-7.2-8.6-22.3-18.4-32.7-28.2-43.4-9.7-10.5-23.9-19-24-25.5Z"/>
    <path class="st0" d="M745.4,472.8c-4.6,13.3-9.8,18.3-9.8,18.3,0,0,0,0,0,0,4.1-11.2,8.9-25.7,12.6-42.4,5.4-24.8-4.5-54.1,1.6-53.4,9,1,14.9,8.4,18.2,15.6h0s-8.9-9.8-11.1-6.5c-2.2,3.3.8,18-2.1,33.9-2.6,13.7-6.2,25.7-9.3,34.5Z"/>
    <path class="st0" d="M748.4,504.6h0c1.9-2.6,3.4-4.6,4-5.5,2.9-4.3,10.2-16.3,12.4-21,10.5-22.2,13.5-36.9,14-50.1.1-3.4.9-7.5,5.4-6.1,4,1.3,19.3,11.5,20.2,22.9,0,.7,0,1.5,0,2.3-.2-.3-7.3-12.6-14.7-12.2-7.4.5-5.5,13.9-10.2,27.3-5.4,15.1-10.3,20.6-16.2,28.1-7.8,9.9-14.9,14.4-14.9,14.4Z"/>
    <path class="st0" d="M756.5,515.4c2.5-1.5,4.8-3,6.8-4.3,10.6-7.2,21.6-18.4,31.1-29.5,14.6-17.2,17.2-34,23.8-35,5.2-.8,17.3,10,25.3,22.7,0,0-7.5-6.2-14.7-6.6-7.2-.3-10.9,8.5-17.8,17.6-5.9,7.8-19.7,18.9-28.5,24.5-16.5,10.4-26,10.6-26,10.6,0,0,0,0,0,0Z"/>
  </g>
  <g>
    <path class="st1" d="M369.4,479.4c5.7-8.5,7.7-14.4,12.3-19.7,10.2-.8,17.5-5.5,21.6-9,7.1-6.2,14.8-12.6,23.8-15.2,7.2-2,11.5-2.8,18.8-4.9,9.6-2.8,14.9-7.1,22.3-12.2,6.4-4.4,15.4-8.1,23-9.1,8.1-1.1,18.9-2.8,27.1-5.9,14.7-5.7,27.8-10.6,36.4-11.9,5.5-.8,22.4-1.5,27,1.8,2.8,2,6.2,12.7,0,24.6-7.7,15-13.1,26.9-26.8,37.9-5.6,4.5-24.2,5.1-41.8,6.4-8.3.6-22.6,1.4-30,.7-6.9-.7-12.9-2.4-20.1-1.7-31.9,3.1-44.6,6.5-72.3,22.7-2.9,1.7-11.6,6.4-17.7,9-2.8,1.2-8.6,3.7-10.3,1.9-3.6-3.8,2.8-9.9,6.4-15.4Z"/>
    <path class="st1" d="M411.1,411.1c8.2-10.1,13.3-19.4,24-27.1,5-3.6,13-8.8,19-10.1,5.4-1.1,10.9-1.6,16.6-3.2,5.7-1.6,8.4-5.2,14.2-7.2,5.2-1.7,18.4-2,23.9-.5,10.7,2.9,16.9,3.5,28.1,8.4,3,2.9-27.6,20.8-53.4,29.5-10.2,3.4-27,13.7-38.9,17.9-10.4,3.7-20.9,7.6-30.2,14.4-3.9,2.9-8.2,6.3-12.2,9.3-7.5,5.7-20.6,21.9-22,19.2,2.4-5.7,14.4-26.9,20.3-35.9,3.6-5.4,7.3-10.6,10.6-14.7Z"/>
    <path class="st1" d="M366.1,486.4c-.5.3,9.1-44.6,11.3-52.8,2-7.8,5-16.2,6.1-19.8,5.3-17.1,14.2-32.5,20.8-49.2,3.9-9.8,11.9-34,21.6-36.9,6.6-2,22.8,10.8,21.7,19.6-1,7.7-8.3,18.4-13.1,24.1-10.8,12.9-21.4,22.8-36.4,46.1-3.1,4.8-6.4,12.5-9.8,19.1-3.6,6.9-19.9,48.3-22.2,49.8Z"/>
    <path class="st1" d="M356.2,364.5c1.8-11.6,8.8-28.8,15.5-38.6,4.6-6.8,25.1-9,28.1-4.4,2.8,4.4-3.7,16.8-6.8,25.5-3.9,10.7-9.5,28.4-11.9,39.4-2.8,12.9-4.3,24.1-5.6,33.9-1.3,9.6-7.5,66-13.5,66s-.5-39.8-3.2-52.3c-4.6-21.4-6-47.4-2.5-69.7Z"/>
    <path class="st0" d="M392.4,327.5c1.8-11.6-27.4,8.3-20.8-1.5,4.6-6.8,25.1-9,28.1-4.4,2.8,4.4-3.7,16.8-6.8,25.5-3.9,10.7-9.5,28.4-11.9,39.4-2.8,12.9-4.3,24.1-5.6,33.9-1.3,9.6-7.5,66-13.5,66s9.7-78.2,11.6-90.9c4.4-28.6,15.4-45.8,18.9-68.1Z"/>
    <path class="st1" d="M352.3,494.2c-3.7.9-9.2-15.8-10.4-28.7-1.4-14.8-9.3-27-14.2-39.8-3.9-10-6-24.2-6.5-35.1-.7-12.5-.4-24.2,3.8-34.7,2.8-6.9,5.3-26,22.8-23.2,7.4,1.2-4.6,41-2.8,57.3,1.3,11.2,3.9,27.1,6.1,38.1,2,10.3,2.5,18.8,3.2,31.2.7,13.2,2.3,32.7-1.9,34.7Z"/>
    <path class="st0" d="M351.1,428.2c-2.2-11-4.9-26.9-6.1-38.1-1.8-16.4,10.2-56.2,2.8-57.3-11.7-1.9-16.7,6-19.6,13.5,6.8-8.9,9.5-10.1,15.6-10.4,3.7-.1.4,16.7-.2,23.6-.6,7.4-3.5,24.7-1.9,32.4,3.1,15.1,6.5,43.1,9.5,60.5,1.1,6.2,3.2,9.8,3.2,9.8,0-.2-.1-2.6-.2-2.8-.6-12.4-1.1-20.9-3.2-31.2Z"/>
    <path class="st1" d="M211.1,398.1c.6-7.2,14.6-7.6,17.7-8.9,4.8-2,15.7-6.4,19.9-1.8,1.8,2,9.4,17.2,12,22.3,5.5,10.9,44.6,51,49.2,54.8,4.5,3.7,24,21.4,26,23.9,1.9,2.3,12.5,13.1,8.2,12.1-.6-.1-25.2-10.7-30.6-12.9-5.3-2.1-25.9-13.7-31-16.6-5.5-3.3-27.8-17.4-33-21.7-5.2-4.4-21.5-24.2-24.4-28.9-2-3.2-14.9-13.5-14.2-22.2Z"/>
    <path class="st1" d="M281.3,379.3c.7-4.9-1.8-11.7,1.2-15.8,3.8-5.2,19.4-16.3,22-18,1.6-1,5.7-4,7.4-3,3.7,3,.6,11.6,0,13.3-1.3,4.1-1.2,8.8-.7,13.1,1,9.7,3.9,42.1,6.1,51.8,2.3,10.4,13.6,26.3,16.8,36.4,1.5,4.9,15.6,38.4,13.3,39.9-1.4.6-27.4-35.6-32.2-40.3-4.9-4.8-19.9-25.8-23.3-31-3-4.6-5.9-9.7-8.1-14.7-2.3-5-2.6-10.1-3.3-15.4-.7-5.5-.1-11,.7-16.3Z"/>
    <path class="st1" d="M325.5,513.5c-.9,2.9-11.3,7.2-13.4,8.2-5.7,2.7-12.7,2.9-18.9,2.4-6.3-.5-25.5-.9-37.4-3.2-11-2.1-31.6-9-38-11.2-7.1-2.4-13.3-6.6-20.2-9.5-13.2-5.6-27.9-11.8-37.1-23-5.1-6.1-3.1-12.2,2.8-16.6,6-4.5,6.1-9.6,4.7-16.5-2.8-13.7,17.5-22.4,27.8-16.6,10,5.6,15.4,14.6,23.3,20.9,11.7,9.4,31.6,20.2,39.9,24.3,6.6,3.3,23.9,13.8,41.4,19.6,13.7,4.5,41.6,7.6,39.4,12.1-2.1,4.4-22.7,5.6-54.8-.4-9.4-1.7-28.5-8.6-43.7-16.1-13.8-6.8-24-12.6-26.1-12.9,7.4,5.8,29.3,18.5,38.7,23.5,8.2,4.4,17.1,9.2,26.2,10.9,24.5,4.8,45.8,2.1,45.3,3.9Z"/>
    <path class="st0" d="M325.5,513.5c-.9,2.9-20.3,2.1-26.5,1.8-22.7-1.1-43.5-9.6-54.7-14.7-17.1-7.9-25.7-11.8-44.9-25.5-10.4-7.4-17.8-19.6-27.4-15.6-11,4.6-11.5,17.8-11.5,17.8-5.1-6.1-3.1-12.2,2.8-16.6,6-4.5,6.1-9.6,4.7-16.5-2.8-13.7,17.5-22.4,27.8-16.6,10,5.6,15.4,14.6,23.3,20.9,11.7,9.4,31.6,20.2,39.9,24.3,6.6,3.3,23.9,13.8,41.4,19.6,13.7,4.5,41.6,7.6,39.4,12.1-2.1,4.4-28.5-3.9-49-10.3-34.3-10.8-64.6-31.6-82.9-48.7-3.7-3.4-12.4-13.8-18.7-13.3-6.6.5-8.2,8.9-2.7,17.1,3.9,5.7,12.5,14,28.7,25.8,7.4,5.8,29.3,18.5,38.7,23.5,8.2,4.4,17.1,9.2,26.2,10.9,24.5,4.8,45.8,2.1,45.3,3.9Z"/>
    <path class="st1" d="M128,545.9c10.1-.3,59.1-6,79.6-6.6,35.3-1.2,87,3.7,86.1-3.5-.4-3-23.5-8.8-34.6-10.5-8.5-1.3-25-.9-33.2-2.6-8.8-1.8-18.1-1.9-26.1-5.9-7.8-3.9-14.4-10.4-26.7-16.3-13.4-6.4-26.2-10.1-30.2-9.3-4.2.9-15.3,16.1-16.7,19.9-1.3,3.5-3.1,6.9-4.1,10.5-2.1,7.1-6.4,24.4,5.8,24.4Z"/>
    <path class="st0" d="M131.1,511c2.4-5.1,7.6-10,11.6-10.4,5.4-.5,25.7,9.2,32.5,11.6,14.3,5.3,28.5,9.5,43.6,12.2,7.6,1.4,41.1,3.4,44.5,3.9,17.4,2.5,30.6,8.4,30.5,7.4-.4-3-23.5-8.8-34.6-10.5-8.5-1.3-25-.9-33.2-2.6-8.8-1.8-18.1-1.9-26.1-5.9-7.8-3.9-14.4-10.4-26.7-16.3-13.4-6.4-26.2-10.1-30.2-9.3-4.2.9-15.3,16.1-16.7,19.9-1.3,3.5-3.1,6.9-4.1,10.5-2,6.9-6.1,23.4,4.8,24.4-7.2-9.8-1-24,4.1-34.9Z"/>
    <path class="st1" d="M278.1,546.8c0-2.4-14.1.8-16.9,1-5.8.5-28.7-.2-34.2.4-5.3.7-10.6,2.2-15.9,3-5.4.8-44.5.9-50.1.6-5.4-.2-30.3,1.7-32.2,2.6-3.4,1.6-4.6,9.3-4.5,12.5.3,5,.2,9,3.3,13.4,3,4.3,6.4,9.2,11.4,12,4.6,2.5,10.9,2.6,16.1,1.9,5.5-.7,27.7-8.2,33.7-9.7,5.3-1.4,10.8-.4,16-1.6,5.8-1.3,28.7-9.1,49.6-21.2,5.2-3,23.7-12.7,23.7-14.9Z"/>
    <path class="st0" d="M147.5,558.1c14-1.3,27.7,4.8,41.6,4.5,27.7-.7,56.2-8.3,62.8-9.1,6.3-.8,20-4.9,17.2-6.9-3.3.5-6.6,1.1-7.8,1.2-5.8.5-28.7-.2-34.2.4-5.3.7-10.6,2.2-15.9,3-5.4.8-44.5.9-50.1.6-5.4-.2-30.3,1.7-32.2,2.6-3.4,1.6-4.6,9.3-4.5,12.5,0,.9,11-7.7,23.2-8.9Z"/>
    <path class="st0" d="M407.7,456.7c12.2-6.2,86-34.7,97.6-38.3,53-16.6,78.4-7.3,79.3-8.1,1.9-8.6-.7-15.5-2.8-17.1-4.7-3.4-21.5-2.7-27-1.8-8.6,1.3-21.7,6.2-36.4,11.9-8.1,3.2-19,4.9-27.1,5.9-7.6,1-16.7,4.7-23,9.1-7.4,5.1-12.7,9.4-22.3,12.2-7.3,2.1-11.7,2.9-18.8,4.9-9,2.5-16.6,9-23.8,15.2-4.1,3.5-11.4,8.3-21.6,9-2.6,3.4,17.5,1.4,26-2.9Z"/>
    <path class="st0" d="M425.8,327.7c-8,2.4-14.8,19.2-19.1,30.5-.2.5-2.1,5.5-2.5,6.4-6.6,16.7-15.4,32-20.8,49.2-.7,2.1-1.9,5.9-3.3,10.2h0s12.2-17.5,18.7-30.4c6.5-12.9,21.7-49.9,29.4-55.9,3.3-2.6,8.7-2.1,12.2,2.2,2.9,3.4,7.8,8,3.1,18,1.9-3.7,3.5-7.4,3.9-10.6,1.1-8.8-15-21.6-21.7-19.6Z"/>
    <path class="st0" d="M508.7,363c-5.4-1.4-18.6-1.2-23.9.5-5.8,1.9-8.5,5.5-14.2,7.2-5.7,1.6-11.1,2.1-16.6,3.2-6.1,1.3-14,6.5-19,10.1-10.7,7.7-15.8,16.9-24,27.1-3,3.7-6.4,8.4-9.6,13.2,12.7-14.3,28.6-27,44.2-35.9,14.1-8,32-16.4,52.4-12.6,28.1,5.2,39.1-4.1,38.8-4.4-11.2-4.9-17.4-5.5-28.1-8.4Z"/>
    <path class="st0" d="M309.9,464.5c-4.6-3.7-43.7-43.9-49.2-54.8-2.6-5.1-10.3-20.3-12-22.3-4.2-4.6-15.1-.2-19.9,1.8-3,1.3-17,1.7-17.7,8.9-.2,2.7.8,5.5,2.5,8.2h0s-1.1-7.9,1.5-9.7c2.6-1.9,9.8-1.8,15.7-3.5,5.8-1.7,8.2-4.5,11.9-1.4,3.7,3,13.2,24.4,21.1,33.8,7.9,9.4,19.4,22.5,30.7,32.7,10.7,9.6,31.6,20.8,31.6,20.8-6.3-5.8-13.6-12.4-16.2-14.4Z"/>
    <path class="st0" d="M317.3,420.7c-2.2-9.7-5.1-42.2-6.1-51.8-.4-4.3-.6-8.9.7-13.1.6-1.7,3.7-10.3,0-13.3-1.7-1-5.8,2.1-7.4,3-2.7,1.6-18.2,12.8-22,18-.1.2,9.8-3.2,22.1-14.3,5,1-.9,15.8,5,59.4,3.8,27.8,27.1,56.8,27.1,56.8-.1-.8-.3-1.6-.4-2.4-1.1-2.8-1.9-4.9-2.2-5.9-3.1-10.1-14.4-26-16.8-36.4Z"/>
  </g>
  <g>
    <path class="st1" d="M369.4,479.4s50.4-29.5,77.5-7.7c35.4,28.6,129.2,528.3,129.2,528.3h-15.4s-86.4-433.5-99.6-475.6c-12.5-40-18.3-49.3-34.1-50.6-23.6-2-55.5,16.4-55.5,16.4l-2.2-10.9Z"/>
    <path class="st0" d="M396,797.9c-4.8,1.2-15.2,20.7-19.3,23.4-3.2,2.1-5.2,3-8.5,5.3-4.3,3-44.2,38.3-48.2,39.9-2.6,1-10.6,2.6-13.1,0-1.5-1.6-8.9-8.8-7.2-19.3,2.2-13.4-13.2-6.2-7.7-16.5,2.2-4.2,28.2-15.9,46.7-26.7,15.1-8.8,24.6-13.7,39.9-25.6,7.4-5.8,19.9-16.2,22.8-18.5,9-7.1,21.4-16.3,22.3-14.9,2.1,3.1-25.9,48.2-27.6,53Z"/>
    <path class="st1" d="M314.1,835.8c5.9-1.8,11.8-3.9,17.7-5.9,5.8-2,29.6-19.7,46.5-29,11.5-6.3,17.7-2.9,17.7-2.9,1.7-4.8,29.7-49.8,27.6-53-1-1.4-13.3,7.8-22.3,14.8-2.9,2.3-15.4,12.7-22.8,18.5-15.3,11.9-24.8,16.8-39.9,25.6-18.5,10.7-44.4,22.4-46.7,26.7-4,7.6,17.1,6.8,22.1,5.3Z"/>
    <path class="st1" d="M471.2,562.6c2.3-12.9,2.2-23.4,7.9-35.3,2.6-5.6,7-14,11.7-18.1,4.2-3.6,8.7-6.7,12.9-10.9,4.2-4.2,4.8-8.6,8.9-13.2,3.7-4.1,15.2-10.7,20.6-12,10.8-2.7,16.4-5.1,28.6-6.3,4.1,1.1-14,31.6-32.4,51.7-7.3,8-17,25.1-25.3,34.6-7.3,8.3-14.6,16.8-19.4,27.3-5.9,12.9-12,37.1-16.4,39.7-2.2-9.2.4-43.6,2.8-57.4Z"/>
    <path class="st0" d="M561.8,466.8c-12.2,1.2-17.9,3.6-28.6,6.3-5.4,1.4-16.9,8-20.6,12-4.1,4.5-4.7,9-8.9,13.2-4.2,4.2-8.7,7.3-12.9,10.9-4.7,4-9.1,12.5-11.7,18.1-5.7,12-5.6,22.5-7.9,35.3-1.1,6.2-2.2,16.4-2.9,26.7,3.4-17.4,8.4-42,12.7-52.4,4.4-10.6,11.8-23.9,25.7-34.4,10.1-7.6,16.1-17.4,36.5-24.7,12.2-4.4,22.7-10,18.7-11Z"/>
    <path class="st1" d="M468.5,633.8c-.4,6.7-18.5-47.7-20.1-55.3-3.7-17.6-8.7-33.7-11-51.5-1.4-10.4-5.3-36,1.8-43.3,4.8-5,29.6-2.7,32.9,5.5,2.9,7.2,1.7,20.1.3,27.4-3.2,16.6-7.6,30.3-9.3,58-.7,11.6,5.8,55.7,5.6,59.2Z"/>
    <path class="st0" d="M465.5,616l1.3,1.4c-1.8-14.9-4.3-35.4-3.8-42.7,1.7-27.7,6.2-41.4,9.3-58,1.4-7.3,2.6-20.2-.3-27.4-3.3-8.2-28.1-10.5-32.9-5.5-2.4,2.5-3.5,7.1-3.9,12.5,3.9-9.8,6.8-11.5,10.6-11.5,10.2,0,16.4,2.9,20.5,4.9,2,1-.6,14.1-2.7,25.8-1.3,7.1-.9,25.6-1.9,32.6-2.6,18.1-1.6,40.5-.4,46.6,1.5,7.8,4.3,21.4,4.3,21.4Z"/>
    <path class="st1" d="M400.6,548.6c-4-11-6.3-29.4-5.2-41.2.7-8.2,17.6-20.1,22.4-17.5,4.6,2.5,5,16.4,6.4,25.6,1.8,11.2,5.5,29.4,8.8,40.2,3.8,12.6,8,23.2,11.6,32.4,3.5,9,22.2,58.9,20.7,61-2.3,3.1-20.2-31.3-28.6-40.9-14.4-16.5-28.3-38.5-36-59.7Z"/>
    <path class="st0" d="M461.7,635.4c-5.3-16.1-14.7-41.1-17.1-47.2-3.6-9.2-7.8-19.7-11.6-32.4-3.3-10.8-7-29-8.8-40.2-1.5-9.2-1.9-23.2-6.4-25.6-4.8-2.6-21.7,9.3-22.4,17.5-1.1,11.8,19.2-20.3,19.8-8.6,1.4,26.1,12.6,59.2,21.7,83.7,14,37.5,24.7,52.8,24.7,52.8Z"/>
    <path class="st1" d="M460.3,663.8c-2.8,2.6-15.7-9.4-23-20-8.4-12.2-21.3-19.1-31.8-27.8-8.2-6.8-17-18.3-22.7-27.5-6.7-10.6-12.1-20.9-13.6-32.2-1-7.4-8-25.2,8.7-31.3,7.1-2.6,15.9,38.1,25.4,51.5,6.6,9.2,16.6,21.7,23.9,30.3,6.8,8,11.3,15.2,17.9,25.7,7,11.2,17.9,27.5,15.2,31.3Z"/>
    <path class="st0" d="M451.9,643.4c-2.3-3.8-4.7-7.5-6.8-10.9-6.6-10.5-11.2-17.8-17.9-25.7-7.3-8.5-17.3-21.1-23.9-30.3-9.5-13.4-18.4-54-25.4-51.5-6.3,2.3-9.2,6.3-10.4,10.8,2.4-2.9,10.1-7.6,10.3-6.7,1.4,6,19,43.5,21.7,48.5,2.7,5.1,22.6,27.8,26,32.2,4.5,5.7,25.5,34,26.4,33.6Z"/>
    <path class="st1" d="M296.3,670.3c-3-5.7-2.5-13.8-2.5-20.8s63.4,9.8,65,8.7c4.4-2-65-18-65-19.8,0-8.9,10.5-19.6,14.6-18.1,9.1,3.3,72.6,25.8,82.3,28.1,10.3,2.4,8.9,9,19.4,10.7,5,.8,44.1,7,44.4,9.7,0,1.6-29.1,10.8-43.7,13.1-6.8,1.1-32.7,2.6-43.9,2.3-5.5-.2-14.7.1-20.2,0-5.5-.2-47.9-9.2-50.3-13.7Z"/>
    <path class="st0" d="M308.4,620.2c-4.1-1.5-14.6,9.2-14.6,18.1s1.7.9,4.6,1.8c0,0,3.6-17.1,15.1-14.1,11.6,3.1,58.8,21.7,64.1,23.3,17.4,5.6-18.2,8.4-18.8,8.7-1.6,1.1-65-13.6-65-8.7s-.5,15.1,2.5,20.8c2.4,4.5,4.7-17.3,10.2-16.7,19.5,2.1,55,9.5,60.3,10.6,14.2,2.8,45.3,4.4,53,2.8,2.6-.5-14-2.4-19.8-4.2-5.4-1.8,6.6-2,10-3.8-10.5-1.6-9-8.2-19.4-10.7-9.7-2.3-73.2-24.7-82.3-28.1Z"/>
    <g>
      <path class="st0" d="M363.2,718.3c9.2-1,32.7-3.1,41.5-6,23.8-7.7,41.1-20.4,41.5-18.6.6,3-6.3,11.8-7.7,13.7-3.7,5.2-9.7,8.7-15.4,11.3-5.8,2.6-22.7,11.6-34.2,15.4-10.7,3.5-32,7.5-38.6,8.7-7.3,1.4-14.8.7-22.2,1.5-14.2,1.6-33.4,5.5-42.5,5.2-8-.2-6.4-16-8.2-23.2-1.4-5.7,1.2-7.8,14.5-8.1,20.5-.4,57.4,1.3,71.3-.1Z"/>
      <path class="st1" d="M446.3,693.8c-.4-1.8-17.7,10.9-41.5,18.6-8.8,2.8-32.3,5-41.5,6-13.9,1.5-50.8-.2-71.3.1-12.4.2-15.5,2.1-14.7,7,2.8,3.3,7.5,4,12.9,4.4,6.3.4,37.4,3.6,52.2,3.3,3.9,0,35.8-.7,43.7-1.5,8.5-.9,18.6-3.8,18.6-3.8,7.8-3.6,15.2-7.4,18.6-9,5.7-2.6,11.7-6.1,15.4-11.3,1.3-1.9,8.3-10.7,7.7-13.7Z"/>
      <path class="st0" d="M291.2,681.8c11.5,0,20.6,5.2,30.5,6.9,14.8,2.5,37.4,2.3,46.7,1.8,7.3-.4,27.6.5,45.7-3,14.2-2.7,40-13.6,40.3-8.6.3,4.8-17.1,15.9-48,26.3-9.1,3-29.1,6.3-46,7.1-10.6.5-48.5-.4-63.4-1.2-6-.3-20.1.9-22-1.3-9.1-10.6,4.3-28.1,16.2-28.1Z"/>
      <path class="st1" d="M414.1,687.5c-18,3.5-38.3,2.6-45.7,3-9.3.4-31.9.7-46.7-1.8-10-1.7-19.1-6.9-30.5-6.9-2.7,0-5.5.9-8,2.4.5.7,1,1.4,1.5,2,3.3,4.2,7,6,12.2,7.1,10.4,2.3,21.2,3.5,31.7,5.3,9.6,1.6,19.1,3.2,28.7,4.4,2.3.3,5.5.5,6.9,2.7,1.1,1.8,1.2,4.1,1.3,6.3,15.7-1.2,32.6-4.1,40.8-6.8,30.9-10.4,48.4-21.5,48-26.3-.3-5-26.1,5.9-40.3,8.6Z"/>
    </g>
    <path class="st0" d="M292,814.1c11.2-3.5,49-22.8,66.6-33.4,30.3-18.2,63.1-37.7,73.7-55.7,1.5-2.6-27.8,7.4-38.2,11.3-8,2.9-22.2,11.4-30.3,13.9-8.6,2.7-16.1,4.2-25.2,4.7-8.7.4-18.3.8-31.8,1.6-14.8.9-21.1,2.8-24.1,5.4-3.2,2.8-12.3,22.6-11.7,26.6.6,3.7.7,7.6,1.5,11.2,1.6,7.2,8.8,20.4,19.5,14.5Z"/>
    <path class="st1" d="M394.1,736.2c-8,2.9-22.2,11.4-30.3,13.9-8.6,2.7-16.1,4.2-25.2,4.7-7.2.3-15.1.7-25.5,1.3-31.8-.3-30.6,17.8-30.3,22.5.1,2.3,14.3,6.2,26.7,4,6.1-1.1,34.1-10.1,40.1-11.9,5.9-1.8,27.6-10,33.4-12.4,10-4.2,24.2-10,35.6-17.8,6-5.3,10.7-10.5,13.7-15.5,1.5-2.6-27.8,7.4-38.2,11.3Z"/>
    <path class="st1" d="M389.5,640.4c-12-3.9-24-7.6-36-11.5-11.6-3.7-23.4-7.2-35-11.2-3.4-1.2-6.9-2.8-8.6-6.1-2.1-4-1.5-9.6-1.2-14,.3-4,1.2-8,3.8-11.1,3-3.7,7.3-4.2,11.6-5.4,5-1.3,8.8-4.9,13.6-6.7,4-1.5,8.4-1.3,12.4,0,9.4,3.1,15.3,11.2,20.4,19.2,5.9,9.2,12.3,17.9,20.4,25.5,4.6,4.4,9.6,8.4,14.9,11.9,4.9,3.3,49.8,31.7,47.8,35.6-1.1,2.1-35-13.1-35.3-13.2-4.7-1.1-8.5-3.8-12.6-6.2-5.1-3.1-10.7-5.1-16.4-7Z"/>
    <path class="st0" d="M437.1,651.9c-12.7-9-28.3-18.9-31.1-20.8-5.3-3.5-10.3-7.5-14.9-11.9-8-7.6-14.4-16.2-20.4-25.5-5.1-8-11-16.1-20.4-19.2-4-1.3-8.4-1.5-12.4,0-4.8,1.8-8.6,5.3-13.6,6.7-4.3,1.2-8.6,1.7-11.6,5.4-2.6,3.1-3.5,7.2-3.8,11.1-.4,4.3-.9,10,1.2,14,1.7,3.3,5.2,4.9,8.6,6.1,0,0-7.8-11-.9-23.3,3.3-5.8,10.6-8.2,22.1-13.4,12.8-5.8,35.8,27,39.1,31.9,7.4,11,28.1,26.3,39.5,32.1,4.3,2.2,17,7,18.8,6.7Z"/>
    <path class="st1" d="M577.1,481.4c1.7,4.4,2.2,10.8,1.7,14.9-.8,5.8-8,14.2-6.7,19.8,2.9,12.3-3.3,22.7-11.8,31.2-9,9-19.6,16.1-29.7,23.7-6,4.6-11.9,9.4-17.2,14.8-5.7,6-10.1,12.8-14.4,19.9-6.8,11.1-29.7,45.8-33.9,44.8-3.9-1,4.4-16.2,2.5-28.4-1-6.9,10-10.5,14-16.2,4.4-6.3,8.4-18.5,11.2-25.6,5.3-13.2,30.1-36,34.2-41,5.1-6.1,11-15.6,15.1-20.9,4.3-5.6,24.1-41.3,28.7-45.8,2.5-2.4,4.8,5,6.3,8.9Z"/>
    <path class="st0" d="M577.1,481.4c-1.5-3.9-3.8-11.3-6.3-8.9-4.6,4.4-6.9,39.3-8.1,46.3-2.4,14.2-13.4,29.1-18.5,35.3-4.1,5-27.4,19.3-38.4,34.4-4.6,6.2-18.9,21.7-13,26.9,2.6-3.9,4.7-7.3,6.2-9.7,4.3-7,8.7-13.9,14.4-19.9,5.2-5.5,11.1-10.3,17.2-14.8,10.1-7.6,20.7-14.7,29.7-23.7,8.5-8.5,14.7-18.9,11.8-31.2-1.3-5.6,5.9-14,6.7-19.8.5-4.1,0-10.5-1.7-14.9Z"/>
    <path class="st1" d="M474.9,631.2c14.3-19.6,38.9-40.8,56.4-22.5,33.4,34.9,58.2,391.3,58.2,391.3h-15.4s-26.6-287.2-34.2-330.7c-5.7-32.6-12.2-52.9-24.5-53.8-11.3-.9-33,28.9-52.4,60.2-21,33.8-44,80.9-44,80.9,0,0,1.1-24.3,23.3-70.7,12.1-25.3,21.6-39.6,32.5-54.7Z"/>
    <path class="st1" d="M371.5,490.2c-20.1,10.8-34.3,20.2-52.3,34.2-15.2,11.8-34.9,24.1-47,31-12,6.9-22.8,10.6-29.9,12.8,0,0,21.3-12.1,28.6-17.1,9.7-6.6,12.8-9.2,20-14.8,15.8-12.6,31.5-25.3,48.1-36.8,10.6-7.4,19.1-14.1,30.5-20.2,5.1-2.7,8.1-2.2,8.3,1.8.2,5.5-6.1,9.1-6.1,9.1Z"/>
  </g>
</svg>