<?xml version="1.0" encoding="UTF-8"?>
<svg id="Layer_1" xmlns="http://www.w3.org/2000/svg" xmlns:xlink="http://www.w3.org/1999/xlink" version="1.1" viewBox="0 0 1000 1000">
  <!-- Generator: Adobe Illustrator 29.0.1, SVG Export Plug-In . SVG Version: 2.1.0 Build 192)  -->
  <defs>
    <style>
      .st0 {
        fill: none;
      }

      .st1 {
        fill: #f7fbe8;
      }

      .st2 {
        fill: #d5e8b3;
      }

      .st3 {
        fill: #53522b;
      }

      .st4 {
        clip-path: url(#clippath);
      }
    </style>
    <clipPath id="clippath">
      <rect class="st0" x="348.5" width="303" height="988.4"/>
    </clipPath>
  </defs>
  <g class="st4">
    <g id="Group_312">
      <path id="Path_2806" class="st1" d="M525.7,323.8c-5.7-19.9-28.9-24.7-44.7-32.3-2.5-1.1-.9-5.2,1.6-4.1,17.3,8,42.3,13.8,47.3,36.2,0,1.2-.8,2.1-2,2.2-1.2,0-2.1-.8-2.2-2,0,0,0,0,0-.1h0"/>
      <path id="Path_2807" class="st1" d="M556,322.4c.8-12.4,7.3-23.7,14.2-33.6,2.8-4.2,5.8-8.3,8.9-12.2.7-1,2.1-1.1,3-.4,0,0,0,0,0,0,.9.8,1.1,2.2.4,3.1-6.3,8.4-12.7,16.8-17.3,26.4-2.6,5.2-4.2,10.9-4.8,16.8,0,1.2-1,2.1-2.2,2.1-1.2,0-2.1-1-2.1-2.1"/>
      <path id="Path_2808" class="st3" d="M528.2,77.8c.2.3.2.7.2,1,0,.3,0,.6-.2.9-.4.9-.7,1.8-1,2.6,0,.2-.1.3-.2.5-.8,2.1-1.5,4.2-2.3,6.3-21.8,55.3-38.2,112.5-58.2,168.5-7.8,23-14.6,46.2-23.4,68.8-.7,1.8-1.5,4.8-3.9,3.7-1.5-.8-1.2-2.5-.5-3.8,15-40.3,27.3-81.5,41.8-122,12.9-41.1,26.7-81.8,42.3-121.9.5-1.3,1-2.5,1.5-3.8.4.1.9.2,1.3.3h.6c.6-.2,1.3-.6,1.9-.9h.2Z"/>
      <path id="Path_2809" class="st3" d="M524.9,42c-22.8,1.9-22.9,34.1-2.5,40.4,0,0,.2,0,.3,0,1.3.3,2.7.3,4.1,0,.1,0,.2,0,.3,0,.9-.2,1.7-.5,2.5-.9.4-.2.8-.4,1.2-.6,17.9-9,16-38.2-5.9-38.9M528.2,77.8c0,0-.1,0-.2.1-.6.4-1.2.7-1.9,1h-.6c-.4-.1-.9-.2-1.3-.4-15.4-3.7-18.2-28.6-1-32.4,8.1-1.5,15.8,5.6,15.8,13.8.9,7.8-4.4,14-10.8,17.8"/>
      <path id="Path_2810" class="st3" d="M525,46c-2.4-.5-2.1-3.9-2.9-5.8-2.3-11.2-5.4-23.2-2.1-34.5,5.2-11.9,14.3-2.8,14.5,6.4.3,11.2-2.1,22.2-7.1,32.2-.2,1.1-1.2,1.9-2.3,1.7,0,0,0,0,0,0M524.1,30.4c.5,2.6,1,5.2,1.6,7.8,1.6-3.9,2.7-8,3.4-12.2,0,0,0,0,0,0s0,0,0,0c1-7,3.2-15.6-1.8-21.6h0c-.4-.4-.9-.5-1.4-.5-5.9,5-2.7,19.4-1.8,26.3"/>
      <path id="Path_2811" class="st3" d="M636.1,326.5c-4.7-9-8.8-18.3-13.1-27.5-4.3-9.1-8.5-18.2-12.8-27.3-15.1-32.5-29.9-65.2-44.3-98.1-7.2-16.4-14.4-32.8-21.4-49.2-3.5-8.2-7-16.5-10.5-24.8-1.8-4.2-3.5-8.4-5.3-12.7-.6-1.4-1.2-2.8-1.7-4.2l-.2-.4c-.5-1.2-.9-2.4-1.3-3.6h.6c.6-.2,1.3-.6,1.9-.9.1.3.3.6.4.9.4.9.8,1.8,1.2,2.7.9,2.1,1.8,4.1,2.7,6.2,1.9,4.5,3.9,9,5.9,13.5,4,9.2,8.1,18.4,12.1,27.6,14.4,32.8,29,65.6,43.9,98.2,7.4,16.2,14.9,32.5,22.5,48.7,3.8,8.2,7.7,16.4,11.5,24.6,3.8,8.1,7.9,16.1,11.4,24.3,1,2.4-2.3,4.5-3.6,2.1"/>
      <path id="Path_2812" class="st3" d="M636.2,318.1c4.3.7,6,1.6,2.6,11.2-3.1,8.9-6.8,17.5-11,26-8.9,17.7-21.1,34.8-38,45.7-17.5,11-38.2,15.7-58.8,13.5-20.2-2.1-38.1-11.2-53.4-24.4-15.9-13.7-27.9-32-37.7-50.4-1.5-2.9-4.1-6-3.2-9.4.5-2.2,2.6-3.8,4.8-3.7,2.2-.3,194.1-8.9,194.8-8.4"/>
      <path id="Path_2813" class="st1" d="M528.7,900c-9.2-26-18.5-52.3-20.7-80.1-3.3-46.3-1.1-92.7,0-139,.3-35.5-4.9-71-11.8-105.8-8.4-42.2-18.8-84.3-20.3-127.4,0-35.6,2.4-72.5,16.9-105.4,5-10.9,11-21.5,20.1-29.6,1.7-1.7,3.7-3,5.9-3.9,1.1-.3,2.2.3,2.5,1.4.3,1.1-.4,2.2-1.5,2.5,0,0,0,0-.1,0-11,7.3-17.5,19.4-23,31.1-13.9,31.4-16.4,66.6-16.6,100.6.9,43.9,11.7,86.7,20.2,129.6,7.5,37,12.7,74.7,11.9,112.6-1,32.2-2.4,64.5-1.4,96.7.2,19.5.6,39,4.5,58,3.4,16.7,8.9,32.9,14.5,49,.9,2.7,1.8,5.3,2.8,8,.4,1,0,2.2-1.1,2.6-1,.4-2.2,0-2.6-1.1"/>
      <path id="Path_2814" class="st1" d="M380.5,938.4c-.9-.7-1-1.9-.4-2.8,4.5-5.8,8.6-11.9,12.7-17.9,10.6-16.4,19.8-33.8,27.3-51.9,10.7-25,17-51.3,21.9-77.9,7.4-36.5,7.6-73.9,4.7-110.9-2.1-30.7-6.4-61.3-9.1-92-2.7-33.4-3.7-67-2.9-100.5.7-38.5,3.3-77.6,17.4-113.8,8.2-21.2,19.5-41.7,37-56.6-.1.2-.2.3-.3.5.4-1,1.6-1.6,2.6-1.2,1,.4,1.5,1.4,1.2,2.4-.8,1.9-2.8,3-4.2,4.5-17.6,15.7-27.5,37.8-35.4,59.5-12.6,36.9-14,76.3-14.5,115-.4,29.8.7,59.7,3,89.4,3.4,37.3,8.8,74.4,10.3,111.8,2.1,36-.9,72-8.8,107.2-5.8,30.6-16.1,60.2-30.4,87.9-6,12.4-13,24.2-21,35.4-2.7,3.9-5.4,7.8-8.3,11.5-.7.9-1.9,1-2.8.4"/>
      <path id="Path_2815" class="st1" d="M596.1,694.9c-4.3-32.8-11.2-65.2-20.7-96.9-6.4-21.8-15-43-21.4-64.9-8.9-32.3-17-64.9-21.1-98.1-3.6-35.3-2.3-71.4,6.8-105.9.7-2.7,1.5-5.3,2.2-8,.1-1,1-1.8,2-1.7,1.1,0,2,.8,2,1.9-.8,3.9-2.1,7.7-3,11.6-11,44.9-9.8,92.2,0,137.2,6.1,28.4,12.6,56.8,22.3,84.3,13.8,38.3,25.3,77.4,31.6,117.4,1.3,7.5,2.4,15,3.4,22.5.1,1.1-.7,2.1-1.7,2.2,0,0-.2,0-.3,0-1,0-1.8-.7-2-1.7"/>
      <path id="Path_2816" class="st1" d="M579.2,538.9c-11.7-28.8-23.4-57.9-30.6-88.2-8.1-39.8-6.2-81-.7-121.1.5-3,.9-5.9,1.6-8.8.3-1.1,1.4-1.7,2.5-1.4,2.1.7,1.4,2.8,1,4.4-7.3,47.4-9.6,96.8,4.1,143.2,4.9,16,10.8,31.7,16.7,47.3,3,7.5,5.6,15.2,9,22.5,1.3,2.2-2.2,4.3-3.5,2"/>
      <path id="Path_2817" class="st1" d="M616.5,458.6c-6.8-23-14-45.8-24.6-67.4-13-25.6-19.6-54-19.2-82.7,0-1.1,1-2,2.1-1.9,1,0,1.9.9,1.9,1.9-1.2,53.8,21,76.7,35.8,123.8,2.7,8.4,5.4,16.8,7.9,25.3.3,1.1-.4,2.2-1.5,2.4-1,.2-2.1-.3-2.4-1.4"/>
      <path id="Path_2818" class="st1" d="M461.3,368.5c4.1,15.7.8,32.3-2.3,47.9-1.5,3.9-2,19.2-8.2,16.6-7.4-4.9-14.7-9.9-22.2-14.6-10.5-6.7-22.1-13-28.7-24-9.2-12.9-2-31.9,15.4-29.1.1-9.5,9.2-17,17.8-19.5,14.3-4.6,25.4,10.3,28.3,22.6"/>
      <path id="Path_2819" class="st1" d="M485.2,421.6c-2.1-37.2,40.5-38.9,39.4-.1,0,12.3-1.1,24.9-1.8,37.1-.5,7-.5,14.1-.5,21.2.2,3.5-2,5.1-5.3,3.7-17.4-5.6-37.3-9.1-51-21.9-14.4-15.3-4.7-38.6,15.3-38.3,0-.1-.2-.2-.3-.3-.5-.6-1.2-1.2-1.9-1.7-.9-.6-1.2-1.8-.6-2.8.6-.9,1.7-1.2,2.7-.7,1.5,1,2.9,2.3,4,3.8"/>
      <path id="Path_2820" class="st1" d="M596.1,351.5c11.5-3,17.6,8.5,15.8,18.5-1.3,14-8.2,26.9-15.5,38.8-1.9,2.4-3.2,7.3-6.8,7.1-1.7-.4-2.3-2.2-3.2-3.5-3.9-6.6-8.3-12.9-13.1-18.8-4.4-5-10.3-9.6-11.3-16.5-1.5-10.6,9.9-17.2,19.3-14.6,3.9-4.9,9-8.6,14.8-10.8"/>
      <path id="Path_2821" class="st1" d="M649.7,442.8c3.3,7.3,1.5,15.6,0,23.1-1.7,7.7-2.6,15.5-2.7,23.4,0,3.8.7,10.1-5.1,8.8-7.2-2.1-12.8-7.8-18.4-12.6-5.4-5-10.8-10.3-14.2-16.9-2.5-5.8-6.9-12.3-5.8-18.7.8-8.4,10.8-6.4,15.6-2.6,5.3-13.3,23.4-19.9,30.5-4.4"/>
      <path id="Path_2822" class="st1" d="M620.3,576.4c0,2.7,1.3,8.1-2.9,7.8-7.9-4.9-14.8-11.9-22.4-17.4-9.4-7.3-19.8-14-25.8-24.6-7.5-10.3-3.9-30.2,11.9-21.7,6.8-17.8,18.7-17.4,28.8-2.3,5.8,9.6,7.5,21,8.8,32,.7,8.7,1,17.5,1.6,26.2"/>
      <path id="Path_2823" class="st1" d="M535,506.9c5,15.2,3,31.7,1.7,47.2-1,4.8-.5,21.2-6.7,21.1-2.9-.7-5.4-3.4-7.9-4.8-14.8-10.9-34.8-17.2-42.9-35-6.7-15.9,2.9-40.2,23.2-31.1,2.7-6.8,6.4-12.3,14.5-12,9.2-1.4,16,6.3,18.2,14.5"/>
      <path id="Path_2824" class="st1" d="M460.1,543.7c1.4,2.9,6,10.9-.5,10.3-15.1-8-30.2-16.1-45.1-24.5-8.5-5.2-18.4-9-25-16.6-5.3-7.5-3.5-17.9,4-23.2,0,0,0,0,0,0,7.4-5.1,17.5-2.9,24.4,2,6.3-14.1,18.5-5.8,25.4,2.9,7.8,10.4,8.8,23.9,11.9,36.1,1.2,4.5,2.9,8.8,4.9,13"/>
      <path id="Path_2825" class="st1" d="M454.5,478.8c-.5,1.3-.9,3.2-2.8,2.8-1.8.6-3.8-.4-5.6-.7-7.7-1.8-15.5-2.6-23.2-3.9-6.2-1-13.1-1.6-18.3-5.6-8-7.2,4.7-15.8,14.1-17.7,1.3-.3,2.4-1,3.1-2,5.6-8,12-9.5,21.9-8.6,9.3.8,14.2,10.6,15.3,18.9.8,6-2,11.5-4.5,16.7"/>
      <path id="Path_2826" class="st1" d="M442,602.2c-.2,2.6-3,2.4-4.4.7-1.8-1.6-3.9-2.9-6.1-4-.6,7.5-3.6,14.6-8.5,20.3-11.9,16.3-31.6,25.4-42.5,42.7-3.1,4.8-5.8,10-8.3,15-1,2-2.3,5.9-5.1,3.8-4.7-8.7-5.7-19.3-9-28.6-4.4-13.7-7.6-28.7-1.5-42.5,2.3-6.2,5.7-12.3,11.5-15.9,5.8-4.5,13.8-7.8,19.8-1.7,9.8-8.8,27.7-17.4,38.9-6.8,2.3,2.6,3.8,5.8,4.3,9.1,2.6.6,5.9,3.3,7.4,4.2,1.1,1.1,3.2,1.8,3.3,3.6"/>
      <path id="Path_2827" class="st1" d="M557,616c2.3,2.8,12.5,18.2,4.5,18.3-17.5-1.3-34.9,1.9-52.4,1.9-18.2.2-39.7-18.8-21.5-34.6-15.5-12.7-4.5-32.4,14.3-28.2,20,5.1,42.3,26.5,54.9,42.6"/>
      <path id="Path_2828" class="st1" d="M554.2,673c3.5,15.2-4.3,30.2-8.9,44.2-2.7,7.3-4.5,15-5.3,22.8,0,1.1-.8,2-1.9,2,0,0,0,0,0,0-.5.5-1.2.7-2.5.3-1.7-1.3-1-4.8-1.8-6.8-1.2-5.8-2.5-11.7-3.8-17.5-1.7-11.9-9.6-25.4-9.9-37.9-1.3.4-2.6.9-3.8,1.6-2,.9-3.6,3.9-6,3.2-1.1-.4-1.6-1.6-1.2-2.7.2-.6.8-1.1,1.4-1.2.9-.8,1.9-1.6,3-2.2,2.1-1.3,4.4-2.3,6.8-2.9.4-3.1,1.4-6,3-8.7,4-5.9,11.6-4.4,16.3,0,3.6-8.2,12.8-4.5,14.6,5.9"/>
      <path id="Path_2829" class="st1" d="M632.3,728.6c0,1.9,1.8,6.1-1.3,5.9-15.3-3.7-36-8.2-46.1-21.2-3-4.3-5.8-9.4-4.8-14.8,1.6-8.3,9.8-16,18.6-13.2,3.6-5.2,8.9-4.7,14.1-2.3,9.6,4,14.4,14.5,16.3,24.1,1.4,7.1,2.1,14.3,3.3,21.4"/>
      <path id="Path_2830" class="st1" d="M477.7,800.2c9.3,7.6,9,21,6.8,31.8-3.2,15.2-11.3,28.8-20,41.4-3.5,5.2-7.4,10.2-10.7,15.5-.5.9-1.3,1.9-2.5,1.7-.9-.2-1.6-1-1.8-1.9-1-2.8-2-5.6-3-8.4-4.4-13-14.5-22.9-19.9-35.5-3.1-6.3-4.4-13.3-3.8-20.3-.2-20.6,19-23.4,29.2-18.1,0,0,16.6-13.7,25.7-6.2"/>
      <path id="Path_2831" class="st2" d="M469,699.9c13.9,9.6,10.8,29.1,3.7,42.1-3.5,6.4-7.3,12.7-11.3,18.8-1.6,2.4-4.2,6.8-7.5,4.4-1.7-1.2-3.4-2.5-5.1-3.7-2.7-2-5.4-4-8.2-5.9M440.6,755.5h0s0,0,0,0c-11.1-8-25.2-15.3-30-28.9-3.7-15.4,16.2-29,30.3-20,2.2-2.5,3.4-5.3,6.2-6.7,7.1-4.2,14.9-5.1,21.9.2"/>
      <path id="Path_2832" class="st1" d="M570.3,898.2c5.4,9.1-4.1,7.7-10.1,7.3-9.1-.7-18.7-1.5-26.7-6.3-.2,5.3-3.1,10-5.8,14.4-4,6.4-8.8,12.7-16,15.6-3.8,1.7-7.4,4.1-11.3,5.1-.5,0-.9-.1-1.3-.4-.9-.8-1.2-2.1-.7-3.2,1.2-3.6,2.6-7.1,3.9-10.6,4.3-11,9.4-27.4,24.1-25.7,1.6-6.7,10.3-8.4,16.3-9,10.7-1.3,22.4,3,27.6,12.9"/>
      <path id="Path_2833" class="st1" d="M401.2,940.4c8.4,11.7,1.3,28.2-7.5,37.7-2.4,2.5-14.5,14-17,9.1-.8-6-.8-12.1-2.6-17.9-3.3-8.8-2.7-18.7,1.6-27.1-4.1,1.8-8.7,2.4-13.1,1.7-13.3-.4-14.8-13.8-13.8-24.3.7-3.2-.5-10.1,3.4-11.1,1.1,0,2.1.4,3,.9,6,2.4,12.4,2.5,18.6,3.9,7.8,2.2,9.9,12.1,9.6,19.5.9-.1,1.7.3,2.1,1.1,5.7-1.5,12,2.3,15.6,6.5"/>
      <path id="Path_2834" class="st1" d="M508.6,264.6c7.2,3,14.2,11.8,9.1,19.6-5.9,7.5-16.5,10-25.6,9.5,4,7.1-4.3,12.2-10.6,10.5-14.4-.7-27.1-9.5-32.7-22.8-1.2-3.5-8.8-13.8-1.1-13.7,13.2.6,26.2-2.3,39.2-4.5,7.2-.9,14.8-1.8,21.6,1.4"/>
      <path id="Path_2835" class="st1" d="M628.8,248.8c1.2-.4,2.5.2,3,1.5.2.6.2,1.3-.1,1.8-9.6,16.6-20.7,45.6-43.8,43.3-7.8-1.5-12-6.2-11-13.9-.3-.4-.4-.8-.4-1.2,0-.1,0-.3,0-.4-13-6.5-8.5-22.1,4.4-25.9,11.2-4,23.6-3.1,35.1-3.9,4.3-.4,8.6-.7,12.9-1.4"/>
      <path id="Path_2836" class="st2" d="M623.9,326.6c.8,3,3,9.6-2.4,8.8-8.4-1.4-16.8-2.9-25.2-4.1-6.3-.9-13-1.5-19.1-3.6-5.3-1.8-10.8-5.2-10.9-11.4,0-3.9,2.3-7.5,4.8-10.3,1.5-1.8,3.4-3.2,5.5-4.2.7-.3,6.1-2.3,6.5-1.4-1.3-3.3-.5-7,2-9.5,6.4-9.7,19.4-2.6,24.8,4.4,7.6,8.8,10.9,20.3,14,31.3"/>
      <path id="Path_2837" class="st2" d="M553.7,295.3c6.2,2.7,7.3,10.9,3.4,15.9-8.8,10-23.6,13.6-36.5,12.6-1.4-.2-2.8-.5-4.2-.9-2.1.3-4.2.4-6.3.2-9.9-1.4-18.8-6.7-28-10.5-2.5-1.1-9.1-3.6-4.7-6.6,7.3-3.9,13.9-9,19.5-15.1,7.2-7.2,14-16.1,24.5-18.3,8.5-1.7,19,3.1,20.9,12,.4,3.8-.3,7.6-2,11,4.4-1.5,9.2-2.2,13.5-.2"/>
      <path id="Path_2838" class="st2" d="M504.9,376.2c5.5,9,5.7,13.2-2,20.7-16.2,15.8-40.6,12.2-61.3,14.3-1.7-.5-1.8-2.5-.9-3.8,2.2-4.3,4.5-8.5,6.7-12.8,5.6-9.8,10.3-22,21.3-26.9,5.4-2,13.2-1.6,16.7,3.5,2.5-1.6,6-.8,8.9-.9,4.3-.2,8.4,2.1,10.5,5.9"/>
      <path id="Path_2839" class="st2" d="M579.9,473.7c0,6.5-.6,13.3-4.4,18.7-7.3,11.9-20.9,18.2-31.1,27-1.3,1-2.2,3-4.1,2.2-.8-.4-1.4-1.2-1.2-2.1.5-6,.3-12.1.3-18.1-.6-15.1-2-36.7,19.8-33.4,4.8-4.3,14.5-5.1,19.1-.2,1.1,1.7,1.7,3.8,1.6,5.9"/>
    </g>
  </g>
</svg>