<?xml version="1.0" encoding="UTF-8"?>
<svg id="Layer_1" xmlns="http://www.w3.org/2000/svg" version="1.1" viewBox="0 0 1000 1000">
  <!-- Generator: Adobe Illustrator 29.0.1, SVG Export Plug-In . SVG Version: 2.1.0 Build 192)  -->
  <defs>
    <style>
      .st0 {
        fill: #4e1a48;
      }

      .st1 {
        fill: #c9aaca;
      }
    </style>
  </defs>
  <g>
    <g>
      <path class="st1" d="M661.6,644.6h-24.5c-48.7,35.1-86.7,81.3-114.2,148.2h36.8c25.2-55,43-85.7,117.2-148.2h-15.3Z"/>
      <path class="st1" d="M637.1,644.6s4.1,50.1,18.6,114.1c12.2,53.7,63.2,190.9,63.2,190.9,0,0-22-125.3-27.4-184.5-6.6-71.5-14.6-120.5-14.6-120.5h-39.7Z"/>
    </g>
    <g>
      <path class="st1" d="M503.1,504.7s4.1,60.9,18.6,138.9c12.2,65.3,63.2,232.3,63.2,232.3,0,0-22-152.5-27.4-224.5-6.6-87-14.6-146.7-14.6-146.7h-39.7Z"/>
      <path class="st0" d="M527.6,504.7h-24.5c-36.3,64.7-63.3,183.9-60.7,275.8h52.9c4.5-63.8,5.8-160,47.5-275.8h-15.3Z"/>
      <path class="st1" d="M519.1,504.7c-36.3,64.7-59.3,183.9-56.7,275.8h8.9c1.7-108.2,11.3-182.1,53.5-275.8h-5.7Z"/>
    </g>
    <g>
      <path class="st1" d="M263.7,644.6h24.5c48.7,35.1,86.7,81.3,114.2,148.2h-36.8c-25.2-55-43-85.7-117.2-148.2h15.3Z"/>
      <path class="st1" d="M288.2,644.6s-4.1,50.1-18.6,114.1c-12.2,53.7-21.1,201.5-21.1,201.5,0,0-20-135.9-14.6-195,6.6-71.5,14.6-120.5,14.6-120.5h39.7Z"/>
    </g>
    <g>
      <path class="st1" d="M193.7,624.7h24.5c77.8,71.4,132.8,133.1,154.2,158h-36.8c-27-30.6-83-91.4-157.2-158h15.3Z"/>
      <path class="st0" d="M218.2,624.7s-4.1,66.7-18.6,152.1c-12.2,71.5-44,166.8-44,166.8,0,0-10.2-97-.3-175,10.9-86.4,23.2-143.9,23.2-143.9h39.7Z"/>
    </g>
    <g>
      <path class="st1" d="M454.3,730.4c-30.5-72.4-65.3-130.6-100.1-178.7h-67.8c41.3,73.3,78.6,152.6,98.9,207.1,4.6,11.4,8.8,22.8,12.6,34h79.9c-6.7-20.4-14.6-41.2-23.6-62.4Z"/>
      <path class="st0" d="M422.9,741.6c-30.4-74.7-66.4-138-101.2-189.9h-7.1c34.3,52.8,70.1,117.2,100.8,193.1,6.7,16.2,12.6,32.2,17.9,48h8.9c-5.7-16.8-12.1-33.9-19.3-51.2Z"/>
      <path class="st0" d="M354.2,551.7s-33.5,83.3-62.8,130.9c-30.5,49.6-60,91.5-60,91.5,0,0,6-60.9,21-115.9,11.8-43.4,34-106.5,34-106.5h67.8Z"/>
      <path class="st1" d="M322.6,551.7c-19.6,42.7-31.9,72.3-44.2,101.5-25.8,60.8-43.1,114.1-47,120.9.9-4.5,16.7-59.4,40.5-124.4,10.6-28.9,26.3-64.7,40.8-98h10Z"/>
    </g>
    <g>
      <path class="st1" d="M449,792.8c-2.5-7.8-4.9-15.8-7.3-23.9-26.6-88.7-45.5-172.4-58.3-239.1h74.6c12.5,64.6,30.6,145.4,56,229.9,3.1,10.2,6.4,21.3,10,33h-75Z"/>
      <path class="st0" d="M482.6,792.8c-2.7-8.6-5.4-17.4-8.1-26.4-26.1-87-45.7-170.2-59.6-236.6h11.1c12.2,65.9,30.3,148.6,56.4,235.5,2.8,9.3,5.6,18.4,8.4,27.4h-8.2Z"/>
    </g>
    <g>
      <path class="st1" d="M729,634.7h-24.5c-77.8,71.4-132.8,133.1-154.2,158h36.8c27-30.6,83-91.4,157.2-158h-15.3Z"/>
      <path class="st1" d="M704.5,634.7s28.6,42.5,74.5,96.8c38.4,45.5,105.3,106.2,105.3,106.2,0,0-25.4-61.7-64-111.4-42.7-55-76.1-91.6-76.1-91.6h-39.7Z"/>
    </g>
    <g>
      <g>
        <path class="st1" d="M568.6,524.5c-45.3,121.3-72.2,226-82.3,268.3h76.8c13.1-52,41.4-155.2,85.3-268.3h-79.7Z"/>
        <path class="st0" d="M604.1,524.5c-45.3,117.4-75.3,221.8-87.9,268.3h15c11.4-48.5,38-152.2,81.9-268.3h-9Z"/>
      </g>
      <g>
        <path class="st0" d="M648.4,524.5c6.3,16.3,13,32.7,20,49.3,52.6,124.8,165.1,382.2,165.3,382.5-24.5-15.3-128.9-104.4-234-353.5-11.2-26.5-21.5-52.7-31.1-78.2h79.8Z"/>
        <path class="st1" d="M613.1,524.5c7.9,20.9,16.4,42.1,25.4,63.5,104.3,247.3,195.2,368.2,195.2,368.2,0,0-98.3-117.7-202.6-365-9.5-22.5-18.5-44.9-26.9-66.7h9Z"/>
      </g>
    </g>
  </g>
  <g>
    <path class="st0" d="M241.2,621h-74.9c-18.1,142.3-50.5,378.8-50.6,379,18.8-20.7,90.9-128.5,125.5-379Z"/>
    <path class="st1" d="M207.6,621h-8.2c-33.2,248-83.8,379-83.8,379,0,0,58.3-130.4,92-379Z"/>
  </g>
</svg>