<?xml version="1.0" encoding="UTF-8"?>
<svg id="Layer_1" xmlns="http://www.w3.org/2000/svg" version="1.1" viewBox="0 0 1000 1000">
  <!-- Generator: Adobe Illustrator 29.0.1, SVG Export Plug-In . SVG Version: 2.1.0 Build 192)  -->
  <defs>
    <style>
      .st0 {
        fill: #4e1a48;
      }

      .st1 {
        fill: #c9aaca;
      }
    </style>
  </defs>
  <path class="st1" d="M767.9,369.6c-23.2-30.7-57.3-54.3-94-66.1-34.7-11.1-76.2-8.6-98.1,1-29.7,13-50.3,32.9-65.3,51.4-14.1,14.9-27,34.7-37.3,55.4,2.1-9.5,4.2-18.5,6.2-26.6.4-1.5,4.8-17.2,8-29,7.7-1.6,19.2-15.1,31.4-33.9,10.9-16.8,29.9-48.5,72.5-110.8,18.5-27.1,28.3-36,45.2-64.1,4.8-7.9,9-16.4,10.3-25.5,1.3-9.1-.8-19.2-7.2-25.7-7.8-8-20.6-9.4-31.3-6.3-7.5,2.1-14.1,6.2-20.8,10.4-3.3,2.1-7.1-4.8-10.2-8.6-3.6-4.5-11.5-6.2-17-4.4-5.5,1.8-8.4,4-12.5,8.1-14.3,14.5-23.7,35.6-30.9,54.6-9.1,24-22.1,48.7-29.5,79.1-10.4,42.6-13.7,65-14.3,80.8-.6,16.9-.2,37.9,7.8,44.6-2.8,11.1-6.7,27.6-7.2,29.7-3.5,13.6-7,27.5-10.4,41.6-1.1-36.5-9.2-67.7-13-87.4,1.7-22.9-9-70.1-21.9-100.3-21.4-49.9-50.6-85.1-75.5-92.2-7.2-2-15.3-3.4-22-.1-6.4,3.1-9.6,6.3-1.9,24,2.3,5.3-.9,6.9-6.1,8.3-10.4,2.8-25.6,6.3-30.9,14-6.9,10-5.7,23.7-.9,34.8,9.2,21.3,30.1,27.7,51.1,37.6,5.2,2.7,10.5,5.6,16,8.7,29.5,16.8,41.7,66.8,73.5,78.3,2.1.8,6.1,1.5,8.5.7,2.6-.8,7.1,11,8.6,19,2.7,14.4,11,49.8,6.3,86.2-.6-8.8-1.9-17.2-4.1-24.8-3-10.5-11.4-27.9-24.9-45.4-13.7-17.6-37.8-34.8-71.4-46-27.8-9.3-45.3-12.6-69.3-10.7-18.3,1.5-30.2,5.6-38.1,8.5-5.6,2-10.4,5.9-13.3,11.1-4.1,7.2-2.6,13.2,2.2,17.1,1.4,1.2,1.7,3.2.8,4.8-3.8,6.8-6.2,14.8-3.8,20.5,3.1,7.2,7.4,13.8,14.1,18,19.9,12.4,44.8,12.4,68.1,11.5,31.1-1.1,63.3-3.5,95.6-8.6,8.9-1.4,15.6.2,20.9,4.8,4.5,4,7.6,10.6,9.5,16.1,3.2,9.2,5.4,18.6,6.7,28.1,1.2,14,.1,25-2.1,37.3-1,4.6-2,9.3-3.1,13.9-.4-3.7-.9-7.2-1.6-10.5-1.2-5.8-5.6-18.6-17.7-31.4-9.1-9.7-21.6-10.4-30-13.9-5.2-2.1-10.3-4.1-15.6-5.7-13.8-7.2-30.4-12.6-42.7-14-18.9-2.2-37.8,2-52,11.6-14.7,9.8-24,24.6-33,39-5.7,9.1-11.3,18.2-17,27.4-4.3,6.9-8.6,13.9-10.1,21.9-1.5,8,2,16.2,7,23.6,5.2,7.6,18.4,11.7,27.4,12.3-.4,3.5.2,6.5,4.1,9.3,7.1,5,17,3.4,30.1-2.1,16.5-6.9,41.5-17.2,57.1-29.1,17.5-13.2,41.4-37.1,56.1-59.2,6-8.9,8.7-8.8,14.2-4.9,7.1,5,13.4,17,14.7,29,2.8,26-1,41.1-3,54h0c-1.8,9-3.5,18.1-5.2,27.2-6.9-14.7-18.4-27.3-33.8-29-13.1-1.4-29,2.6-38.4,5-37.1,9.2-70.3,33.5-90.8,51.8-21.1,18.8-36.5,47.2-30.3,74.7,1.7,7.4,9.8,12,17.6,15.3,2.8,21,14.2,43.3,22.6,44.8,12.5,2.2,45.1-28,58.6-48.3,26.7-40.5,36.9-74.9,49-124.7,1.6-6.5,9.4-10.7,15.2-9.9,11.7,1.6,15.8,7.8,19.5,15.2,3,6.2,5.4,16.4,7,25.9-15.3,85.4-26.4,171.5-29.2,250.8-1.5,43.7-1.7,87.4-.7,131l16.9.2c-3-123.4,4.6-246.9,22.6-368.9,7.8-15.6,18-32.1,28.2-32.5,11.1-.5,20.9,14.8,20.3,21.2-1.4,17.4,1.2,50.4-5.8,82.9-5.8,26.9-34.9,86.2-33.1,97.7,3,19,39.7,2.6,47.4,13.2,2.7,3.7,10.1,16,13.8,18.2,6.9,4.2,21.3-5.3,28.2-29,5.3-18.3,11.6-57.6,3.4-107.8-8.6-52.3-43.4-85-43.4-85,0,0-7.3-11.6-22.2-17.8-9.2-3.8-21-2.2-31.8,7,3.3-20.3,6.9-40.6,10.8-60.8.5-2.8,1.1-5.8,1.7-8.8,0,0,0,0,0,0,0-.3.1-.7.2-1,2.3-10.6,5.3-21.6,8.4-27.6,3.8-7.3,8.1-13.4,19.8-14.7,5.8-.6,13.6,3.8,15,10.3,11,50.1,22.3,102,39.6,147.4,2.6,6.7,5.5,13.5,10.5,18.8,5,5.2,12.4,8.6,19.5,7,8.5-2,15-9.6,18.8-21.3,1.1-3.2,2.9-11.3,4.8-20.5,11,6.6,25.7,10,34.8,6.7,9-3.2,14.8-12.3,17.1-21.6,6.9-27.4-7.9-56.2-28.5-75.4-20-18.8-52.7-43.9-89.5-53.9-9.3-2.6-25.1-7-38.2-5.9-9.5.8-17.6,5.8-24.1,12.8,2.4-10.2,4.7-18.3,7.9-25,12.1-25.1,27.9-25,33.9-22.5,16.2,6.6,48.3,14.1,77.2,30.6,23.9,13.6,71.6,59.3,83.1,61.1,19,2.9,14.5-37,26.9-41.2,4.4-1.5,17.9,8.7,21.1,5.9,6-5.3-10.8-30.8-31.3-44.5-15.9-10.6-44.3-22-94.7-29.4-52.5-7.7-88.7,4.4-88.7,4.4,0,0-13.3,3.4-23.7,15.8-1.6,1.9-3.2,4.1-4.8,6.6.1-.5.2-1,.3-1.5,4.3-16.8,11.5-31.5,17.4-41.7,3.6-6.1,6.5-12.1,11.9-18.1,7.5-8.6,16.4-1.8,21.2.5,16.3,8,36.4,11.1,85.9,5.1,41.9-5,83.1-3.9,116.1,12.5,12.2,6,31,23,40.8,13.6,3.8-3.6,3.2-20.4,1.3-31.1-.5-2.9,1-3.5,5.6.9,4.5,4.3,8.2,3.9,9.3,3.4,5.8-2.4.7-17.2-6.4-26.6Z"/>
  <path class="st0" d="M767.9,369.6c-23.2-30.7-57.3-54.3-94-66.1-34.7-11.1-76.2-8.6-98.1,1-29.7,13-50.3,32.9-65.3,51.4-14.1,14.9-27,34.7-37.3,55.4,2.1-9.5,4.2-18.5,6.2-26.6.4-1.5,4.8-17.2,8-29,7.7-1.6,19.2-15.1,31.4-33.9,10.9-16.8,29.9-48.5,72.5-110.8,18.5-27.1,28.3-36,45.2-64.1,4.8-7.9,9-16.4,10.3-25.5,1.3-9.1-.8-19.2-7.2-25.7-7.8-8-20.6-9.4-31.3-6.3-7.5,2.1-14.1,6.2-20.8,10.4-3.3,2.1-7.1-4.8-10.2-8.6-3.6-4.5-11.5-6.2-17-4.4-5.5,1.8-8.4,4-12.5,8.1-14.3,14.5-23.7,35.6-30.9,54.6-9.1,24-22.1,48.7-29.5,79.1-10.4,42.6-13.7,65-14.3,80.8-.6,16.9-.2,37.9,7.8,44.6-2.8,11.1-6.7,27.6-7.2,29.7-3.5,13.6-7,27.5-10.4,41.6-1.1-36.5-9.2-67.7-13-87.4,1.7-22.9-9-70.1-21.9-100.3-21.4-49.9-50.6-85.1-75.5-92.2-7.2-2-15.3-3.4-22-.1-6.4,3.1-9.6,6.3-1.9,24,2.3,5.3-.9,6.9-6.1,8.3-10.4,2.8-25.6,6.3-30.9,14-6.9,10-5.7,23.7-.9,34.8,9.2,21.3,30.1,27.7,51.1,37.6,5.2,2.7,10.5,5.6,16,8.7,29.5,16.8,41.7,66.8,73.5,78.3,2.1.8,6.1,1.5,8.5.7,2.6-.8,7.1,11,8.6,19,2.7,14.4,11,49.8,6.3,86.2-.6-8.8-1.9-17.2-4.1-24.8-3-10.5-11.4-27.9-24.9-45.4-13.7-17.6-37.8-34.8-71.4-46-27.8-9.3-45.3-12.6-69.3-10.7-18.3,1.5-30.2,5.6-38.1,8.5-5.6,2-10.4,5.9-13.3,11.1-4.1,7.2-2.6,13.2,2.2,17.1,1.4,1.2,1.7,3.2.8,4.8-3.8,6.8-6.2,14.8-3.8,20.5,3.1,7.2,7.4,13.8,14.1,18,19.9,12.4,44.8,12.4,68.1,11.5,31.1-1.1,63.3-3.5,95.6-8.6,8.9-1.4,15.6.2,20.9,4.8,4.5,4,7.6,10.6,9.5,16.1,3.2,9.2,5.4,18.6,6.7,28.1,1.2,14,.1,25-2.1,37.3-1,4.6-2,9.3-3.1,13.9-.4-3.7-.9-7.2-1.6-10.5-1.2-5.8-5.6-18.6-17.7-31.4-9.1-9.7-21.6-10.4-30-13.9-5.2-2.1-10.3-4.1-15.6-5.7-13.8-7.2-30.4-12.6-42.7-14-18.9-2.2-37.8,2-52,11.6-14.7,9.8-24,24.6-33,39-5.7,9.1-11.3,18.2-17,27.4-4.3,6.9-8.6,13.9-10.1,21.9-1.5,8,2,16.2,7,23.6,5.2,7.6,18.4,11.7,27.4,12.3-.4,3.5.2,6.5,4.1,9.3,7.1,5,17,3.4,30.1-2.1,16.5-6.9,41.5-17.2,57.1-29.1,17.5-13.2,41.4-37.1,56.1-59.2,6-8.9,8.7-8.8,14.2-4.9,7.1,5,13.4,17,14.7,29,2.8,26-1,41.1-3,54h0c-1.8,9-3.5,18.1-5.2,27.2-6.9-14.7-18.4-27.3-33.8-29-13.1-1.4-29,2.6-38.4,5-37.1,9.2-70.3,33.5-90.8,51.8-21.1,18.8-36.5,47.2-30.3,74.7,1.7,7.4,9.8,12,17.6,15.3,2.8,21,14.2,43.3,22.6,44.8,12.5,2.2,45.1-28,58.6-48.3,26.7-40.5,36.9-74.9,49-124.7,1.6-6.5,9.4-10.7,15.2-9.9,11.7,1.6,15.8,7.8,19.5,15.2,3,6.2,5.4,16.4,7,25.9-15.3,85.4-26.4,171.5-29.2,250.8-1.5,43.7-1.7,87.4-.7,131l16.9.2c-3-123.4,4.6-246.9,22.6-368.9,7.8-15.6,18-32.1,28.2-32.5,11.1-.5,20.9,14.8,20.3,21.2-1.4,17.4,1.2,50.4-5.8,82.9-5.8,26.9-34.9,86.2-33.1,97.7,3,19,39.7,2.6,47.4,13.2,2.7,3.7,10.1,16,13.8,18.2,6.9,4.2,21.3-5.3,28.2-29,5.3-18.3,11.6-57.6,3.4-107.8-8.6-52.3-43.4-85-43.4-85,0,0-7.3-11.6-22.2-17.8-9.2-3.8-21-2.2-31.8,7,3.3-20.3,6.9-40.6,10.8-60.8.5-2.8,1.1-5.8,1.7-8.8h0s0,0,0,0c0-.3.1-.7.2-1,2.3-10.6,5.3-21.6,8.4-27.6,3.8-7.3,8.1-13.4,19.8-14.7,5.8-.6,13.6,3.8,15,10.3,11,50.1,22.3,102,39.6,147.4,2.6,6.7,5.5,13.5,10.5,18.8,5,5.2,12.4,8.6,19.5,7,8.5-2,15-9.6,18.8-21.3,1.1-3.2,2.9-11.3,4.8-20.5,11,6.6,25.7,10,34.8,6.7,9-3.2,14.8-12.3,17.1-21.6,6.9-27.4-7.9-56.2-28.5-75.4-20-18.8-52.7-43.9-89.5-53.9-9.3-2.6-25.1-7-38.2-5.9-9.5.8-17.6,5.8-24.1,12.8,2.4-10.2,4.7-18.3,7.9-25,12.1-25.1,27.9-25,33.9-22.5,16.2,6.6,48.3,14.1,77.2,30.6,23.9,13.6,71.6,59.3,83.1,61.1,19,2.9,14.5-37,26.9-41.2,4.4-1.5,17.9,8.7,21.1,5.9,6-5.3-10.8-30.8-31.3-44.5-15.9-10.6-44.3-22-94.7-29.4-52.5-7.7-88.7,4.4-88.7,4.4,0,0-13.3,3.4-23.7,15.8-1.6,1.9-3.2,4.1-4.8,6.6.1-.5.2-1,.3-1.5,4.3-16.8,11.5-31.5,17.4-41.7,3.6-6.1,6.5-12.1,11.9-18.1,7.5-8.6,16.4-1.8,21.2.5,16.3,8,36.4,11.1,85.9,5.1,41.9-5,83.1-3.9,116.1,12.5,12.2,6,31,23,40.8,13.6,3.8-3.6,3.2-20.4,1.3-31.1-.5-2.9,1-3.5,5.6.9,4.5,4.3,8.2,3.9,9.3,3.4,5.8-2.4.7-17.2-6.4-26.6ZM512.2,241.2c17.3-53.7,43.3-95.5,51.2-105.8,4.7-6.1,10.9-13.6,11.5-12.8.6.9.6,7.3-8.8,24.8-11.1,20.8-24.9,58.9-40.6,94.3-21.7,49.2-30.6,53.1-13.3-.6ZM431.4,312.5c-2,7.3-8.3-15.1-26.2-45.1-14.5-24.2-41.5-54-39.6-58.9,2-5.2,20,8.3,33.8,28.9,20,29.8,34.2,67.1,32,75ZM325.9,364.2c-21.3-2.9-47.5-2.4-65.1-.4,0,0-7.8,2.1-8.5.9-.4-.8,2.1-2.4,6.9-3.8,16.1-4.8,33.3-8.2,54.2-7.1,26.6,1.4,49.6,7.2,73.9,18.7,17.8,8.4-45.5-6.1-61.4-8.2ZM384.2,464c-12.1,3.4-24.3,2-49.8,12.7-34,14.3-75.2,49.7-85.4,69.5-.8,1.5-1.4,2.9-2.6,2.4-1.1-.5-.6-2,.1-3.4,5.7-11,11.4-21.1,19.2-30.7,16.5-20.7,36.4-38.1,61.7-47.3,11.7-4.2,39.9-8.9,52.4-7.3,8.7,1.1,9,2.9,4.4,4.2ZM319.9,624.1c-26.6,24.8-66.4,73-67.3,72.8-1-.2-1.4-1.8-.2-4.5,17.4-40.7,57.4-86.6,92.4-95.5,3.8-1-6.7,10.3-24.8,27.2ZM496.3,635c4.4-1.3,16.2,37.4,20,63.9,9.1,64.1-5.9,94.5-6.9,93.9-.9-.6,2.5-62.4-1-93.6-4.4-39-15.7-63.1-12.1-64.2ZM510.9,498c33.2,14.1,65.7,65.7,76.6,108.6.7,2.8,0,4.3-.9,4.4-1,0-32.9-53.7-55.3-82.3-15.3-19.5-24-32.2-20.3-30.7ZM585.5,432.7c63.8,10.7,88.3,34.2,87.4,35-.8.7-58.7-21.2-89.5-27.3-38.6-7.6-64.9-4.2-64.9-7.9,0-4.6,40.6-4.2,67,.3ZM638.7,329.1c-48.3-3.5-90.1,28.5-86.2,16.7,3.9-11.8,44.8-30.5,90-26.6,49.2,4.2,81.5,29.9,81,34.6-.7,7-28.1-20.6-84.8-24.7Z"/>
</svg>