<?xml version="1.0" encoding="UTF-8"?>
<svg id="Layer_1" xmlns="http://www.w3.org/2000/svg" version="1.1" viewBox="0 0 1000 1000">
  <!-- Generator: Adobe Illustrator 29.0.1, SVG Export Plug-In . SVG Version: 2.1.0 Build 192)  -->
  <defs>
    <style>
      .st0 {
        fill: #e8c5d1;
      }

      .st1 {
        fill: #8c4566;
      }
    </style>
  </defs>
  <g>
    <path class="st1" d="M228,408l1.9,13.6c94.6,71,242.9,349,251.3,578.3h43.7c-34.8-173.4-139.9-478.5-297-592Z"/>
    <path class="st0" d="M405.3,369.9c27.1.1,55.8.1,68.8-.1,15-.3,47.9-2.9,47.7-8.7-.4-8.6-61.4-23.1-89.8-25-17.1-1.2-48.5-1.3-77.4,6.8-7,1.9-19.5,7.6-32.3,13.8,9.6-7.9,17.5-14.2,20.2-16,15-10.2,30.4-20.3,39.5-28.9,17.5-16.4,38.3-37.6,33.6-42.6-6.8-7.3-38.9-.7-47.2,1.6-7.5,2.1-44.1,15.8-68.4,44.5-11.7,13.8-24.9,37-36.1,59l.8-35.3c5.3-19.8,34.3-47.4,33.4-55.5-.9-8.3-27.2-2.7-32.4-.9-18.1,6.2-34.9,17.7-34.9,17.7,0,0-19.4-3-26-.6-7.6,2.8-24,13.3-22.9,23.1.9,8.7,24,17,34.4,30.5l19.2,42.5c-17.1-16.7-38.8-34.9-58.3-43.8-9.3-8.3-19.8-16.6-25.3-17-11.9-1-36.5,13.8-36.5,13.8,0,0-21.3-.5-27.8,1.9-16.1,5.7-29.1,19.4-29.1,19.4-6.3,7.1-8.6,26.8-4.5,29.7,0,0,101.2-26.1,124.8-17.2,0,0,38.8,18.7,59,32.9-23.2-9.2-66.2-24.4-95.2-24.3-13.1,0-32.8,4.3-48.2,11.4-16.9,7.8-39.4,21-56.2,42.4-23.3,29.6-26.9,59.4-18.1,67.2,2.8,2.5,56.3-49.5,97.7-69.2,27.3-13,45.1-15.3,93.6-15.7,0,0,0,0,0,0-15.3,2-60.7,9.4-70.4,13-19.1,7.1-60.5,34.9-66.8,42.4-6.6,7.7-28,24.2-38,53.5-3.8,11.2-5.6,82.8,9.7,94,6.4,4.7,23-52.5,29.7-67.7,7.9-18,39.5-60.4,44.9-67.6,6-8,33-27.8,41.4-32.4,4-2.2,11.4-5.6,19.1-8.9-18.6,12.7-43.3,30.2-50.7,40.5-6,8.3-45.8,73.4-48.9,84-2.9,9.7-.8,106.4,23.3,103.2,22.2-3,27.8-75.5,30-84.6,2.8-11.2,27.6-100.5,33.5-110.6,2.4-4.1,10.9-10.7,21-17.6-4.3,4.8-8.1,9.6-11,14.3-20.6,33.6-21.7,97.8-18.5,127.2,1.1,10.3,14.2,69.1,36.1,66.6,10-1.1,15.4-38.8,19.5-101.2,1.6-24.3,3.7-64.8,12.1-87.5,3.7-10,7-18.4,10-25.6.5,3.7,1.1,7.2,1.5,10,1.8,11.1,18,87.4,27.2,102.5,27.3,44.8,58.8,64.1,79,56.8,8.8-5.1,17.5-39.8,9.8-79-3.7-18.8-39.1-73.9-50.3-89.8,22.9,16.6,46.9,39.7,51.8,44.4,10.3,9.8,24,21.9,38.1,34.2,29.3,25.6,50.6,33.9,63.4,30.4,6.2-1.7,5.7-10.6,3.6-24.3-4-25.6-14.5-50.2-35.7-69.9-22.3-20.7-51.9-38.2-81.9-48.5-13.1-4.5-26.8-7.9-40-9.8,7.9-.8,35.6-.3,70.3,6.4,19.8,3.8,51.9,11.8,73.1,16.8,10.4,2.5,66.9,10.6,65.4-2.8-.9-8.6-30.2-31.2-77.8-47.3-17.9-6.1-57.2-11.3-70.6-10.4-22.3,1.5-42.5,6.5-59.5,12.5,7.8-5.8,14.4-10.2,18.1-11.6,24.6-9.8,58.1-12.5,82.5-12.4Z"/>
    <path class="st1" d="M405.3,369.9c27.1.1,55.8.1,68.8-.1,15-.3,47.9-2.9,47.7-8.7-.4-8.6-61.4-23.1-89.8-25-17.1-1.2-48.5-1.3-77.4,6.8-7,1.9-19.5,7.6-32.3,13.8,9.6-7.9,17.5-14.2,20.2-16,15-10.2,30.4-20.3,39.5-28.9,17.5-16.4,38.3-37.6,33.6-42.6-6.8-7.3-38.9-.7-47.2,1.6-7.5,2.1-44.1,15.8-68.4,44.5-11.7,13.8-24.9,37-36.1,59l.8-35.3c5.3-19.8,34.3-47.4,33.4-55.5-.9-8.3-27.2-2.7-32.4-.9-18.1,6.2-34.9,17.7-34.9,17.7,0,0-19.4-3-26-.6-7.6,2.8-24,13.3-22.9,23.1.9,8.7,24,17,34.4,30.5l19.2,42.5c-17.1-16.7-38.8-34.9-58.3-43.8-9.3-8.3-19.8-16.6-25.3-17-11.9-1-36.5,13.8-36.5,13.8,0,0-21.3-.5-27.8,1.9-16.1,5.7-29.1,19.4-29.1,19.4-6.3,7.1-8.6,26.8-4.5,29.7,0,0,101.2-26.1,124.8-17.2,0,0,38.8,18.7,59,32.9-23.2-9.2-66.2-24.4-95.2-24.3-13.1,0-32.8,4.3-48.2,11.4-16.9,7.8-39.4,21-56.2,42.4-23.3,29.6-26.9,59.4-18.1,67.2,2.8,2.5,56.3-49.5,97.7-69.2,27.3-13,45.1-15.3,93.6-15.7,0,0,0,0,0,0-15.3,2-60.7,9.4-70.4,13-19.1,7.1-60.5,34.9-66.8,42.4-6.6,7.7-28,24.2-38,53.5-3.8,11.2-5.6,82.8,9.7,94,6.4,4.7,23-52.5,29.7-67.7,7.9-18,39.5-60.4,44.9-67.6,6-8,33-27.8,41.4-32.4,4-2.2,11.4-5.6,19.1-8.9-18.6,12.7-43.3,30.2-50.7,40.5-6,8.3-45.8,73.4-48.9,84-2.9,9.7-.8,106.4,23.3,103.2,22.2-3,27.8-75.5,30-84.6,2.8-11.2,27.6-100.5,33.5-110.6,2.4-4.1,10.9-10.7,21-17.6-4.3,4.8-8.1,9.6-11,14.3-20.6,33.6-21.7,97.8-18.5,127.2,1.1,10.3,14.2,69.1,36.1,66.6,10-1.1,15.4-38.8,19.5-101.2,1.6-24.3,3.7-64.8,12.1-87.5,3.7-10,7-18.4,10-25.6.5,3.7,1.1,7.2,1.5,10,1.8,11.1,18,87.4,27.2,102.5,27.3,44.8,58.8,64.1,79,56.8,8.8-5.1,17.5-39.8,9.8-79-3.7-18.8-39.1-73.9-50.3-89.8,22.9,16.6,46.9,39.7,51.8,44.4,10.3,9.8,24,21.9,38.1,34.2,29.3,25.6,50.6,33.9,63.4,30.4,6.2-1.7,5.7-10.6,3.6-24.3-4-25.6-14.5-50.2-35.7-69.9-22.3-20.7-51.9-38.2-81.9-48.5-13.1-4.5-26.8-7.9-40-9.8,7.9-.8,35.6-.3,70.3,6.4,19.8,3.8,51.9,11.8,73.1,16.8,10.4,2.5,66.9,10.6,65.4-2.8-.9-8.6-30.2-31.2-77.8-47.3-17.9-6.1-57.2-11.3-70.6-10.4-22.3,1.5-42.5,6.5-59.5,12.5,7.8-5.8,14.4-10.2,18.1-11.6,24.6-9.8,58.1-12.5,82.5-12.4ZM371.7,348.9c31.6-6.4,62.6-8.9,93.3-2.3,7.5,1.6,7.7,6-36.5,5.2-16.3-.3-41.6-.2-54.8,0-7.5.1-15.2-.2-2-2.9ZM148,353.4c-4.3-1.2-25.6-3.4-24.9-3.9,7-4.5,17.2-5.8,25.1-3.3,5.2,1.6,21.9,9.9,23.7,13.1.3.5-16.2-3.7-24-5.9ZM82.6,425.7c-23.5,16.9-40.3,34.3-41.3,32-1.7-3.9,10.9-23,36.5-37.8,24.6-14.2,40.7-17.9,56.6-19,5.4-.4-33.7,11.7-51.8,24.8ZM128.3,457.7c-3.4,2.6-51.1,45.2-61.9,65-19.4,35.7-16.6,10.2-6.1-6.5,12.5-19.9,23.4-30.9,42.1-44.6,16.2-11.8,29.2-16.4,25.9-13.9ZM111.8,581.7c-4.8,40.3-.3,65.7-5,65.2-3.6-.4-9.4-50.7-4-69.7,6.3-22.4,17.8-40.2,24.3-50.4-4.7,23.8-12.8,34-15.2,54.9ZM224,308.3c.8-1.9,5.1.4,8.5-.9,2.2-.9,5.6-4.4,7.6-6,.4-.3,1.1,0,1.2.5.3,7.1-1.2,34.2-2.8,40.5-.2.6-.9.8-1.3.3-2.2-2.7-14.1-32.1-13.1-34.4ZM187.7,548.1c-1.8,17.9-2.7,40-2.7,58,0,7,.1,46.5-.7,45-2.8-5.4-9.3-26.3-9-47.9.3-19.3,2.5-38.4,5.1-57.5,2.5-18.2,7.2-35.7,12.3-53.4,4.4-15.4-3.3,38.5-5,55.8ZM315.7,526.6c14.2,34.4,24.9,67.8,19.7,69-3.8.8-14.4-29.6-28.6-63.4-19.1-45.5-23.6-50.7-22.1-52.7,2.6-3.6,20.2,21,31,47.1ZM346.5,446c24.3,8.6,50.1,25.6,69,41,12.3,10.1,29.9,42.1,25.4,45.2-2.3,1.5-4.6-.9-33-31.8-14.8-16.1-64-47-69.7-50.5-4.2-2.6-6.6-9.1,8.3-3.9ZM362.4,391.7c40.1-1.3,106.2,22,110.4,27.9,5.7,8.1-32-5.3-59.4-14.1-12.3-4-59.5-9.2-66.1-12.6,5.1-.6,10.1-1,15.2-1.2ZM297.3,346c-3,.2,12.1-24.9,21-35.1,8.8-10,34.6-28,59.1-34.3,0,0-32.4,23.4-48.5,36.3-12.8,10.2-27.6,32.9-31.6,33.1Z"/>
  </g>
  <g>
    <path class="st1" d="M792.2,601.7l-2.4,8.3c-81.6,36.8-212,197.5-232.3,339.5h-43.7c38.6-105.2,143.2-289.5,278.4-347.9Z"/>
    <g>
      <path class="st0" d="M666.2,491.7c-24.9-10.9-51.1-22.4-62.9-27.9-13.6-6.3-42.7-22-40.1-27.2,3.8-7.7,65.5,3.7,92.2,13.4,16.2,5.8,44.9,18.4,68.1,37.5,5.6,4.6,14.8,14.8,23.9,25.7-5.6-11.1-10.3-20.1-12-22.8-9.6-15.4-19.6-30.9-24.5-42.4-9.4-22.1-19.9-49.9-13.6-52.5,9.1-3.9,35.9,15.1,42.6,20.6,6,4.9,34,32.3,44.6,68.3,5.1,17.4,7.8,43.9,9.2,68.6l13.5-32.6c3.2-20.3-12.2-57.2-8.1-64.2,4.2-7.2,26,8.5,30,12.2,14.1,13,24.7,30.3,24.7,30.3,0,0,19,5.1,24,9.9,5.9,5.6,16.5,21.9,11.6,30.4-4.3,7.6-28.8,5.9-43.8,14l-34.7,31.1c22.4-8.4,49.6-16.3,71-16.5,11.8-3.8,24.8-7.2,30-5.4,11.3,3.9,27.9,27.3,27.9,27.3,0,0,19.6,8.2,24.7,13,12.4,11.7,18.8,29.5,18.8,29.5,2.9,9.1-3,28-7.9,28.9,0,0-82.1-64.8-107.3-66.2,0,0-43,1.4-67.3,6.2,25,1,70.4,4.4,96.9,16.2,12,5.3,28.3,17.2,39.5,29.9,12.3,14,27.6,35.1,34.3,61.5,9.3,36.4.7,65.2-10.6,68.8-3.6,1.1-31.5-68-61.4-102.8-19.7-23-35-32.2-79.3-52.2,0,0,0,0,0,0,13.2,8,51.7,33.1,59.1,40.3,14.6,14.2,41.2,56.4,44,65.8,2.9,9.7,15.8,33.4,13.1,64.3-1,11.8-28.3,78-46.8,82-7.8,1.7.1-57.3.2-73.9,0-19.7-11.8-71.2-13.8-79.9-2.3-9.7-19-38.8-24.8-46.4-2.8-3.6-8.2-9.7-13.8-15.9,11.9,19.1,27.4,45.1,30,57.6,2.1,10,12.2,85.7,10.8,96.6-1.3,10-42.2,97.6-63,85-19.2-11.7,5.1-80.3,6.7-89.5,2-11.4,15.3-103.1,14-114.7-.5-4.7-5.7-14.2-12.1-24.6,2,6.1,3.6,12.1,4.3,17.6,5.3,39-19.6,98.2-34.4,123.8-5.2,9-40.9,57.4-59.9,46.3-8.7-5.1,1.6-41.7,23.1-100.5,8.4-22.9,22.7-60.7,24.3-84.9.7-10.6,1.1-19.7,1.2-27.5-2,3.2-3.9,6.1-5.4,8.5-6.2,9.4-51.8,72.6-66.3,82.7-43.1,30-79.7,34.8-95.2,20-6-8.2,0-43.5,23-76.2,11-15.7,65.6-51.9,82.3-61.9-27.6,5.9-58.9,17.4-65.3,19.7-13.4,4.8-30.8,10.3-48.6,15.9-37.2,11.6-60,10.5-70.2,2.2-5-4.1-.9-12,6.6-23.7,14-21.8,33.6-40,60.9-49.5,28.8-10,63-14,94.5-11.3,13.8,1.2,27.7,3.6,40.6,7.2-6.9-3.9-32.4-14.7-66.9-22.6-19.7-4.5-52.2-10.2-73.7-14.2-10.5-2-65.4-17.3-58.7-29,4.3-7.5,40.2-16.4,90.3-11.9,18.8,1.7,56.9,12.8,68.8,19,19.8,10.4,36.3,23.1,49.3,35.4-4.8-8.5-9.1-15.1-11.8-17.9-18.5-18.8-48.1-34.9-70.4-44.6Z"/>
      <path class="st1" d="M736.6,536.4c2.8,2.8,7.1,9.4,11.8,17.9-13.1-12.3-29.5-25.1-49.3-35.4-11.9-6.2-50-17.3-68.8-19-50-4.5-85.9,4.4-90.3,11.9-6.7,11.6,48.2,27,58.7,29,21.4,4,54,9.7,73.7,14.2,34.4,7.9,60,18.6,66.9,22.6-12.9-3.6-26.7-6-40.6-7.2-31.6-2.7-65.8,1.3-94.5,11.3-27.3,9.5-46.9,27.7-60.9,49.5-7.5,11.7-11.5,19.6-6.6,23.7,10.2,8.4,33,9.4,70.2-2.2,17.8-5.6,35.2-11,48.6-15.9,6.4-2.3,37.7-13.8,65.3-19.7-16.7,10-71.3,46.2-82.3,61.9-22.9,32.7-29,68-23,76.2,15.5,14.8,52.1,9.9,95.2-20,14.5-10.1,60.1-73.3,66.3-82.7,1.6-2.4,3.5-5.3,5.4-8.5-.1,7.8-.5,16.9-1.2,27.5-1.6,24.2-16,62.1-24.3,84.9-21.5,58.8-31.7,95.4-23.1,100.5,19.1,11.1,54.7-37.3,59.9-46.3,14.8-25.6,39.7-84.8,34.4-123.8-.7-5.5-2.3-11.4-4.3-17.6,6.4,10.4,11.5,19.9,12.1,24.6,1.4,11.6-12,103.4-14,114.7-1.6,9.2-25.8,77.8-6.7,89.5,20.8,12.7,61.7-74.9,63-85,1.4-10.9-8.7-86.6-10.8-96.6-2.7-12.5-18.2-38.4-30-57.6,5.6,6.1,11,12.2,13.8,15.9,5.9,7.6,22.6,36.6,24.8,46.4,2,8.7,13.9,60.3,13.8,79.9,0,16.6-7.9,75.6-.2,73.9,18.6-4,45.8-70.2,46.8-82,2.7-30.9-10.2-54.6-13.1-64.3-2.8-9.4-29.5-51.6-44-65.8-7.4-7.2-45.9-32.3-59.1-40.3,0,0,0,0,0,0,44.3,19.9,59.6,29.2,79.3,52.2,29.9,34.8,57.8,103.9,61.4,102.8,11.3-3.6,19.9-32.3,10.6-68.8-6.8-26.4-22-47.5-34.3-61.5-11.3-12.7-27.5-24.5-39.5-29.9-26.5-11.8-71.9-15.3-96.9-16.2,24.3-4.9,67.3-6.2,67.3-6.2,25.2,1.4,107.3,66.2,107.3,66.2,4.9-.9,10.8-19.9,7.9-28.9,0,0-6.3-17.7-18.8-29.5-5.1-4.8-24.7-13-24.7-13,0,0-16.6-23.4-27.9-27.3-5.2-1.8-18.2,1.6-30,5.4-21.5.2-48.7,8.1-71,16.5l34.7-31.1c15-8.2,39.5-6.4,43.8-14,4.9-8.6-5.8-24.8-11.6-30.4-5-4.8-24-9.9-24-9.9,0,0-10.7-17.3-24.7-30.3-4-3.7-25.9-19.4-30-12.2-4.1,7,11.3,44,8.1,64.2l-13.5,32.6c-1.4-24.6-4.1-51.2-9.2-68.6-10.6-36-38.6-63.4-44.6-68.3-6.7-5.5-33.4-24.5-42.6-20.6-6.3,2.7,4.2,30.4,13.6,52.5,4.9,11.5,14.9,27,24.5,42.4,1.7,2.8,6.4,11.8,12,22.8-9.1-10.8-18.3-21.1-23.9-25.7-23.2-19-52-31.6-68.1-37.5-26.7-9.7-88.4-21.1-92.2-13.4-2.6,5.2,26.5,20.9,40.1,27.2,11.8,5.5,38.1,17.1,62.9,27.9,22.3,9.7,51.9,25.8,70.4,44.6ZM702.4,487.9c-12.1-5.6-35.1-15.8-50.2-22.1-40.8-17.1-38.9-21-31.3-19.5,30.8,6.3,58.1,21.2,84.4,39.8,11.1,7.8,3.9,5-3,1.8ZM883.9,576.2c3-2.2,21.6-3,27-2.4,8.2.9,17.1,6.3,21.7,13.2.4.7-19.9-5.9-24.3-6.5-8-1.2-24.8-3.9-24.3-4.3ZM901.6,629.5c14.1,7.5,27.3,17.3,44.1,40.3,17.4,23.8,21.2,46.4,18.1,49.3-1.8,1.7-10.2-21-24.8-46-11.3-19.3-42.2-46.1-37.4-43.5ZM902.3,707.2c11.6,20.1,17.1,34.5,20.5,57.8,2.9,19.5-4.9,43.9-8.2,3.4-1.9-22.4-28.3-80.7-30.4-84.4-2-3.6,8.1,5.9,18.1,23.2ZM857.5,747.6c1.8,11.9,5.1,32.9,1.9,55.9-2.8,19.5-28.4,63.3-31.9,62.2-4.5-1.4,9.9-22.9,21.8-61.7,6.2-20.2,2.9-32.7,8.2-56.4ZM831.1,534.8c-.6.3-1.2-.2-1.1-.8,1-6.5,10.6-31.8,13.8-38.2.2-.5,1-.5,1.3,0,1.2,2.2,2.8,6.8,4.5,8.5,2.6,2.6,7.4,2.3,7.4,4.3,0,2.6-22.8,24.6-25.9,26.2ZM811.2,689.5c-2.5,18.2-5.3,36.1-10.3,53.8-5.3,18.5-11,36.9-18.5,54.7-8.4,19.9-22.9,36.4-27.6,40.2-1.3,1.1,14.7-35.1,17.5-41.4,7.3-16.5,15.3-37,20.9-54.1,5.4-16.6,20.1-69,17.9-53.1ZM732.3,640.6c.5,2.4-5.7,5.4-41.5,39.3-26.6,25.2-48.6,48.7-51.7,46.4-4.3-3.2,19-29.5,45.9-55.2,20.4-19.5,46.4-34.9,47.4-30.6ZM695.3,591.9c-6.7.9-64.1,9.3-84.2,18-38.4,16.8-41.5,18.1-43,15.8-2.9-4.6,26.1-26.8,41.5-31.1,23.5-6.5,54-11.6,79.7-9.6,15.8,1.2,10.9,6.2,6,6.9ZM710.1,536.2c-7.4.4-52.8-13.9-65.6-15.2-28.6-3-68.5-6-60.1-11.1,6.2-3.7,76.1,1.7,112.2,19.1,4.5,2.2,9,4.6,13.4,7.2ZM759.2,470.5c-9.6-18.3-29.7-52.8-29.7-52.8,19.9,15.6,36.3,42.5,40.2,55.2,4,12.9,7.7,42,5,40.6-3.6-1.8-8-28.6-15.5-43Z"/>
    </g>
  </g>
  <g>
    <path class="st1" d="M539.5,1000c-9.8-288.6,26.4-634.4,156.8-797.2l-14.2-10.1c-123.3,167.7-167.1,533.8-171,807.3h28.4Z"/>
    <g>
      <path class="st1" d="M606.7,364.3l.2,3.2c0-1.1-.2-2.1-.2-3.2,0,0,0,0,0,0Z"/>
      <path class="st0" d="M905.5,252.2c-6.6-15.8-54.5-69.7-75.9-75.2-31.6-8.2-73.5-8.7-107.3-1.1,0,0,0,0,0,0,20.9-13.3,34.3-15.5,46.8-17.8,18.5-3.4,42.2,0,61,2.1,8.1-8.9-29.5-29.9-48.8-47-16.8-15-29.2-17.9-43.7-11.1-10.6,4.9-22.9,12.7-37.2,34-4.1,6.1-7.9,12.4-11.4,18.8-2.9-16-5.8-31.5-9.3-41.1-12-32.9-25.2-51.5-37.7-66.3-12.9-15.4-32.4-22.9-52-27.4-19.6-4.5-68.3-6.2-57.7.5,20.5,12.9,35.9,23.8,60.2,45,15.9,13.9,31.7,33.2,42.5,48.7-25.9-24.5-53.2-45.5-70.8-57.7-11.8-8.2-42.8-22.1-57-20-30.2,4.5-73.8,41.8-69.9,56.2,29.2-20.4,94.9-12.7,132.9,5,20.8,9.7,41.7,24.6,60,41.5-47.7-29.4-94.4-42.9-123.6-45.3-35.4-2.9-58.4,4.7-84.5,27-26.4,22.6-28.7,45.5-22.9,57,6.4,12.8,15.3-30.8,85.4-40.4,9-1.2,57.9.8,105.6,12.7-1.4-.3-2.7-.6-3.9-.9-20.7-4.1-112.8,6-133.6,9-15.9,2.3-53.6,56.5-42.5,86.6,2,5.4,8.9,7,13,3,13.4-13,43.3-41,65.6-55.1,12.9-8.2,37.7-11.9,76.4-14.1,18.1-1,40.5,1,65.6,6.8-15.6-.5-31.4.9-47.7,3.5-18,2.9-79,5.4-96.9,22-17.8,16.7-45.7,109.8-31.8,117.3,19.8,10.6,83.7-82.1,112.2-90.5,6.6-1.9,43.2-13.7,77.3-22.2-51.3,27.3-84.5,50.7-85.5,62.8-2,23.7-17.6,80.7-.8,108.1,12.6,20.6,67.5-78.6,102.6-135.9-20.3,73.8-14.8,161.9-1.4,160.9,14.1-1.1,54-62.1,60.6-73.8,10.3-18.4-1-56.2-9.2-89.3,15,20.7,29.5,41.2,35.6,52.4,14.1,26,12.9,42.8,17,67.4,3.2,19.4,8.9,54.4,23.5,67.6,36.6-23.3,49.1-48.7,48.9-75.3-.1-20.3-5.4-40.5-17.9-56.5-5.3-6.7-53-52.9-84.4-81.8,18.6,10.5,38.3,23.7,52.7,34.1,21.6,15.8,53.9,44,61.1,72,12.4,47.7-6.5,86.7,9.2,88.4,15.3-5.7,32-37.3,37.5-55.8,4.6-15.7-2.5-53.9-14.4-75.1-14.4-25.6-43.6-55.7-69.7-69.3-15.2-7.9-50.1-15.2-81.9-18,23.7-4.3,52.2-1.9,78.3,6.7,23.2,7.6,47.9,29.4,60.8,44.8,19.8,23.5,25.7,40.6,37.5,52,8.8-7,8.2-33.8,1.6-49.5Z"/>
      <path class="st1" d="M905.5,252.2c-6.6-15.8-54.5-69.7-75.9-75.2-31.6-8.2-73.5-8.7-107.3-1.1,0,0,0,0,0,0,20.9-13.3,34.3-15.5,46.8-17.8,18.5-3.4,42.2,0,61,2.1,8.1-8.9-29.5-29.9-48.8-47-16.8-15-29.2-17.9-43.7-11.1-10.6,4.9-22.9,12.7-37.2,34-4.1,6.1-7.9,12.4-11.4,18.8-2.9-16-5.8-31.5-9.3-41.1-12-32.9-25.2-51.5-37.7-66.3-12.9-15.4-32.4-22.9-52-27.4-19.6-4.5-68.3-6.2-57.7.5,20.5,12.9,35.9,23.8,60.2,45,15.9,13.9,31.7,33.2,42.5,48.7-25.9-24.5-53.2-45.5-70.8-57.7-11.8-8.2-42.8-22.1-57-20-30.2,4.5-73.8,41.8-69.9,56.2,29.2-20.4,94.9-12.7,132.9,5,20.8,9.7,41.7,24.6,60,41.5-47.7-29.4-94.4-42.9-123.6-45.3-35.4-2.9-58.4,4.7-84.5,27-26.4,22.6-28.7,45.5-22.9,57,6.4,12.8,15.3-30.8,85.4-40.4,9-1.2,57.9.8,105.6,12.7-1.4-.3-2.7-.6-3.9-.9-20.7-4.1-112.8,6-133.6,9-15.9,2.3-53.6,56.5-42.5,86.6,2,5.4,8.9,7,13,3,13.4-13,43.3-41,65.6-55.1,12.9-8.2,37.7-11.9,76.4-14.1,18.1-1,40.5,1,65.6,6.8-15.6-.5-31.4.9-47.7,3.5-18,2.9-79,5.4-96.9,22-17.8,16.7-45.7,109.8-31.8,117.3,19.8,10.6,83.7-82.1,112.2-90.5,6.6-1.9,43.2-13.7,77.3-22.2-51.3,27.3-84.5,50.7-85.5,62.8-2,23.7-17.6,80.7-.8,108.1,12.6,20.6,67.5-78.6,102.6-135.9-20.3,73.8-14.8,161.9-1.4,160.9,14.1-1.1,54-62.1,60.6-73.8,10.3-18.4-1-56.2-9.2-89.3,15,20.7,29.5,41.2,35.6,52.4,14.1,26,12.9,42.8,17,67.4,3.2,19.4,8.9,54.4,23.5,67.6,36.6-23.3,49.1-48.7,48.9-75.3-.1-20.3-5.4-40.5-17.9-56.5-5.3-6.7-53-52.9-84.4-81.8,18.6,10.5,38.3,23.7,52.7,34.1,21.6,15.8,53.9,44,61.1,72,12.4,47.7-6.5,86.7,9.2,88.4,15.3-5.7,32-37.3,37.5-55.8,4.6-15.7-2.5-53.9-14.4-75.1-14.4-25.6-43.6-55.7-69.7-69.3-15.2-7.9-50.1-15.2-81.9-18,23.7-4.3,52.2-1.9,78.3,6.7,23.2,7.6,47.9,29.4,60.8,44.8,19.8,23.5,25.7,40.6,37.5,52,8.8-7,8.2-33.8,1.6-49.5ZM529.4,57.5c-12.6-2.3-47.9,8.4-49,4-.6-2.3,30.7-13.1,44.1-12.3,13.1.8,60.6,28.3,60.1,35.1-.1,1.7-37.2-23.6-55.1-26.9ZM545.6,119.2c-10.5-1.9-40.1-7.5-50.5-7.7-11.7-.3-36,9.5-47.3,12.8-6.6,1.9-17.6,4.2-16,1.2,5-9.1,46.9-21.8,58.7-21.8,12.5,0,66.5,11.2,75.9,17.3.7.4-7.7.6-20.9-1.7ZM469.9,170.5c-11.2,5.4-34.5,34.8-38.3,32.3-3.1-2,15.1-37.1,32.4-39.6,20.8-3,84.6-10.4,84.6-4s-66.2,5.2-78.8,11.3ZM592.1,150.6c1.3.3,2.7.7,4.2,1.1,10.5,2.8,20.9,6.1,30.6,10-11.5-4.2-22.3-7.7-30.6-10-1.4-.4-2.8-.8-4.2-1.1ZM560.7,205.4c-26.3,4.7-46.2,6.7-53.7,15.9-17.1,20.8-29.8,52.9-33.7,51.3-3.5-1.4,14.6-42.2,24.7-54.7,15.3-19,100.9-23.4,101.8-20.8,1,3.1-12.8,3.5-39.1,8.3ZM595.1,274c-7.5,14.1-21.9,66.1-25,66.1-4.5.4,8.5-50,15.5-67.7,5.3-13.3,40.5-40.6,45.5-38.8,3.5,1.3-22.8,15.5-36.1,40.4ZM661.9,95.2c-4.4.4-26.3-29.4-36.3-39.9-9.8-10.2-25.2-19.5-24.9-23.2.2-2.1,24.6,9.3,36.4,23.3,9.1,10.8,27.9,39.6,24.7,39.9ZM695.1,317.6c-3.4,15-19.4,59.1-24.4,57.9-5.6-1.2,10.1-42.1,18.1-77.8,3.4-15,3-45.2,5-45.2s7.1,39.7,1.3,65ZM714.9,142.7c-4.1-1.7,21.8-24.3,36-27.5,15.7-3.5,34.9,3.9,38,6.4,2.5,2.9-21.6-4.6-34.1,1.3-16.9,8-36.8,21.2-39.9,19.9ZM815.9,357.8c-.7,9.5-3.6,42.8-12,42.8-5.1,0,2.1-39.4,2.5-51.7.8-25.7-37.2-64.2-38-68.8-.8-5,49.9,44.2,47.5,77.7ZM844.4,258.8c3.3-2,24.8,25,31.5,38,10.7,20.8,10.7,45.5,10.3,52.6-.4,7.2-9.8,33.5-13.1,31.3-.9-.6,4.7-25.6,5.5-34.2,1.1-12.7.4-26-9.6-44.8-7.3-13.6-26.5-41.7-24.4-42.9ZM882.8,230.6c-1.7,2.4-27.7-27.3-45.7-33.7-12.6-4.5-32.1-11.2-49.9-14,17.8-.4,38,4.4,53.1,8.7,16.6,4.7,45.1,35.1,42.4,38.9Z"/>
    </g>
  </g>
</svg>