<?xml version="1.0" encoding="UTF-8"?>
<svg id="Layer_1" xmlns="http://www.w3.org/2000/svg" version="1.1" viewBox="0 0 1000 1000">
  <!-- Generator: Adobe Illustrator 29.0.1, SVG Export Plug-In . SVG Version: 2.1.0 Build 192)  -->
  <defs>
    <style>
      .st0 {
        fill: #72506d;
      }

      .st1 {
        fill: #3c1138;
      }

      .st2 {
        fill: #a4899a;
      }
    </style>
  </defs>
  <g>
    <path class="st2" d="M303.4,340.5s-47.5-15.6-76.2,3.3c-28.8,19-61.3,52.7-91.3,72.7-30,20-54.6,34.1-54.6,34.1-25.5,16.4-52,30-64,25.2-30.2-18.1,32.2-72,45.5-72s28.8-6.4,34.2-12.6c5.1-5.8,5.9-15,12.6-18.9,8.9-5.1,22.3,3,29.5-4.3,3.4-3.5,3.6-9,6-13.2,3.7-6.6,11.8-9.1,19.1-10.9,36.6-9.4,109.7-28.1,109.7-28.1,0,0,27.4,18.6,29.5,24.6Z"/>
    <path class="st0" d="M145,392.4c-12.4-3.3-30-3.2-36.3-6.7-4.7-2.5-4.1-5-2.6-8,.7-1.4,5.1-5.9,7.7-6.7-1.5.2-2.8.8-4.1,1.5-6.6,3.8-7.5,13.1-12.6,18.9-2.9,3.3-7.1,6.6-13.3,9h0c21.2-5.4,38.9-9.2,61.2-8Z"/>
    <path class="st0" d="M159.5,362.6c-3.9-1.2-8.5-2.6-8.6-6.5-.1-4.1,3.9-8.6,9.1-10.9-6,1.8-11.8,4.4-14.8,9.8-2.4,4.3-2.6,9.8-6,13.2-1.5,1.5-3.3,2.3-5.2,2.8,0,0,0,0,0,0,12.4-.6,32.5-1.5,44.9-.5-1.6-3.1-12.5-5.8-19.3-7.9Z"/>
    <path class="st0" d="M58.3,416c2.7,4,19.5,5.2,34.1-1.4,7.3-3.4,8-4.2,7.5-5.4-.9-1.9-7.3,3-17.2,2.2-16.7-1.3-21.5,2-24.3,4.6Z"/>
    <path class="st1" d="M401.2,523.6c-39.2-109.6-71.5-152.9-82.1-171-12.4-21.3,17.9-53.8,25.1-60,28.6-24.8,24.8-67.2,3.2-72.7-12.2-3.1-21.8,4.5-23.5,12.2-1.5,6.9-2.3,9.5-7.6,12.8-6,3.7-17.2,2.4-27.2,2.2-15.8-.2-22.4,15.6-24.3,21.4-2,5.9-3.5,12.7-8.8,15.8-6.1,3.5-14.1.2-20.8,2.7-6.4,2.3-9.8,9.3-11.6,15.8-1.8,6.6-2.7,13.6-6.7,19.1-4.7,6.4-12.6,9.3-19.4,13.3-13.2,7.7-23,19.9-32.6,31.9-6.7,8.4-13.4,16.8-20.1,25.2-4.5,5.6-9.2,11.4-15.7,14.4-4.4,2.1-23.8,12.5-35.4,18.3-14.8,7.5-29.6,28.7-31.2,36.9,46.8-12.7,92.2-43.7,128.3-65.6,18.4-11.2,42-25.3,53.8-28.2,28.6-6.9,63.2-13.3,77.7,5.1,14.6,18.6,13.6,20.1,26,48.3,15.7,35.8,40.1,92,55,147.7,35.8,134,55.1,326.7,60.3,410h24.3c1-79.4-60.2-381.1-86.9-455.9Z"/>
    <g>
      <path class="st0" d="M331.7,236.7c9.2-2.3,11.7,31.4,0,49.3-13.1,20.1-27.5,43.9-26.9,60.3-6.5-12.3,4.7-35,13.8-62.1,5.2-15.6,9.5-46.5,13.1-47.5Z"/>
      <path class="st0" d="M302.6,349.8c-17.4-9.8-27.8-24.1-38.7-33-14.3-11.6-30-17.8-30-20.5,0-4.7,17.9-2.4,33,10.5,13.1,11.2,30,29.6,35.7,42.9Z"/>
      <path class="st0" d="M297.8,351c-14.8-3.3-56.5-5.8-73.1-3.6-15.9,2.2-47.2,11.9-47.2,9.6,18.4-19.2,86.3-24.9,120.3-6Z"/>
      <path class="st0" d="M220.6,357.3c-22.1,3.9-63.3,19-64.2,25.6,26.9-11.2,70.3-21.8,124.4-27-3.1-.4-23-5.1-60.2,1.4Z"/>
      <path class="st0" d="M97.8,429.1c10.4,3.2,81.7-28,93-34.4-27.6,11.4-78.2,19.9-93,34.4Z"/>
    </g>
  </g>
  <g>
    <path class="st0" d="M542.5,419.3c29.8-61.6,69.6-106.5,130.1-127.2,10.7-3.6,17.6-6,25.1-14.5,8.2-9.2,6.6-24.2,2-35.6-7.3-15.2-13.2-31-16.5-47.6-1.9-9.3-2.9-18.9-6.1-27.9-3.1-9-8.6-17.6-17.1-22,0,0,29.2-17.9,49.6,7.3,20.4,25.2,76.5,92.1,86,118.8,9.5,26.8,57.1,86.8,70.7,110.2,41.2,70.7,57.2,133,57.2,133-76.3-36.3-112.3-130-126.9-138.1-13.2-7.4-29.9-18.2-41-37.4-10.1-17.5-38.6-38.4-56.9-38.3-18.3,0-36.1,6.1-52.6,14.2-49.9,24.4-70.6,58.7-94.5,113.3-22.2,50.9-65.4,296.9-73.1,558.5h-21.6c9.7-326.1,50.6-494.7,85.4-566.8Z"/>
    <path class="st1" d="M660,144.6c10.7-6.3,25.2-5.8,35.5,1.2,10.2,7,20.3,27.9,18.3,40.1-2,12.6-4.1,38.5-2.4,53,.9,7.7,9.6,37.7,27.4,51.8,17.6,14,31.5,8.9,45.2,26.8,12.5,16.3,5.7,43.6,21.8,56.4,5.6,4.4,13.3,6.2,17.9,11.7,7.8,9.3,3.8,25.3,12.9,33.4,9.1,8.1,26.8,3.4,32.7,14.1,5.7,10.3-5.5,26.3,3.7,33.6,3.4,2.7,8.3,2.6,12.4,4.3,6.9,2.9,10.3,10.6,14,17.1,17.5,30.8,57.4,47.8,91.5,38.2-14.8.9-26.4-12.6-32.6-26-6.2-13.4-10-28.7-20.6-38.9-4-3.8-9-7.1-10.7-12.3-3.1-9.4,5.9-18.5,6.2-28.4.4-14.8-17.6-22.8-24-36.1-4.2-8.8-3.8-20.6-11.8-26.1-4.8-3.3-11-3.1-16.7-4.2-5.7-1.1-12-4.9-11.8-10.7,0-4.5,4-7.9,6.2-11.8,3.9-7.1,2.1-16.2-2.5-22.9-4.5-6.7-11.3-11.5-18-16.1-12.9-9-25.7-17.9-38.6-26.9-13.5-9.4-27.9-19.9-33.1-35.6-5.6-17-.5-39.4-14.8-50.1-6.7-5.1-15.7-5.5-23.6-8.6-10.3-4-18.2-12.1-26-19.9-7.7-7.8-16-15.8-26.4-19.2-10.5-3.4-26.7,2.6-31.9,12.3Z"/>
    <path class="st0" d="M937.9,500.6c-9.2-11.2-16.4-23.8-23.2-36.5,16.4,9.7,26.4,27.5,41.4,39.2.5.4,1.1-.3.7-.8-14.9-14.8-25.8-35-45.1-44-2.9-5.3-5.7-10.6-8.7-15.8-6.2-10.7-13.7-22.7-21.5-34.8,18.4,5.7,29.6,21.2,40.8,36.1.3.5,1,0,.8-.5-8.4-16-20.3-31-36.8-39.6-3.2-1.6-6.9-2.5-9.2-2.8-9-14-18.3-27.8-26.2-39.6,0,0,0,0,0,0,19,14.7,45.2,25.1,45.9,22.8.3-2.3-15.8-5.4-25.3-13.6-7.3-6.4-18.1-11.8-24.4-14.7-10.7-15.1-22.7-29-36.9-40.7,9.5.2,18-3.8,27.6-6.5,12.1-3.4,21.3-9.5,36.1,2.3-16.3-15-25.9-8.2-39.2-4.7-8.8,2.3-19.6,4.7-33.2,2.2-1.6-1.1-3.2-2.2-4.8-3.3-9.4-6.2-19.2-9.9-29.4-12.5,6.7-11.9,10.5-29.2,11.8-41.7,1.7-17.5,1.9-33.7-1-51.6.7,19.7-1.2,32.9-2.5,49.9-1,13-8.1,32.6-16.9,41.4-8.1-1.7-16.4-3.2-24.9-5,2.3,3,5.3,5.4,8.6,7.6,12.8,3.2,30.1,6.3,44.7,14,10.2,13.1,8.5,24.4,10.3,37.1,1.7,12.3,8,22.4,13.9,21.6-14.3-11.8-10.4-32-9-48.1,13.7,11.4,26.3,25.1,38.1,39.9-1.9,6.5-5.6,19-6.4,23-2.2,10.8-1.7,28.2,4.9,34.5-3.5-7.4-4.6-19.2-2.5-28.4,1.9-8.1,4-16.8,7.5-24.7,10.7,13.9,20.7,28.6,30.1,43.2-.4,2.2-.8,5.2-1.1,8.5-.8,10.3-.6,18.5,1.5,27.6.9,4,2.9,15.8,7.7,17.4-5.8-9.8-6.9-33.7-4.4-47.8,8.2,13.1,16,26,23.3,38.2,2.8,4.6,5.4,9.3,8,14,0,15.4,3.8,32.1,11.4,45.6.2.4.9.1.7-.3-5-12.1-7.7-25.4-8.4-38.5,6.9,12.3,14,24.5,23.4,34.6,12.4,13.4,24.2,21,40.6,22,.4,0,.5-.5,0-.6-15.1-3.1-27.6-11.7-39.1-25.5Z"/>
  </g>
  <g>
    <g>
      <path class="st0" d="M605.8,560.6c-36.4,10.9-59.6,52.8-69.4,73.4-21.7,45.7-35.5,93.2-45.4,141.6-15.6,76-21.2,218.3-22.4,224.4l30.7-2.8c.2-1.4,5.1-165.5,11.4-214.4,7.6-58.7,26.1-124.2,36.2-146.1,8.9-19.2,28.2-56.1,59.8-65l-1-11Z"/>
      <path class="st2" d="M986,718.4c-1.3-20.5-21.7-35.8-23.3-56.3-.8-10,3.1-20.2,1.2-30-3.1-16-20.4-26.1-24.1-42-1.5-6.4-.6-13.5-3.3-19.5-4.9-11.1-18.6-14.1-30.1-18-6.1-2.1-12-4.8-17.6-8,0,0-.1,0-.2,0-12.7-7.4-23.8-17.7-32.1-29.9-13.1-19.3-19.8-43.9-38.7-57.5-15.6-11.3-36.4-12.6-55.3-9.2-12.6,2.3-26.2,7.4-32,18.9-5.3,10.5-2.6,23.1-1.1,34.8,4.6,35.7-5.1,74.6-25,104.6-9.9-5.4-12.2-13.8-12-25,.2-11.2,6.3-21.3,11.5-31.2,6.7-12.6,12.4-26.1,13.4-40.4,1-14.2-3.4-29.4-14.1-38.9-10.7-9.4-29.1-17.4-40-8.2-3.4,5.4-12,4.5-17,.5-5-3.9-8.1-9.9-12.8-14.2-4.7-4.4-12.5-6.8-17.2-2.5-3.2,2.9-4,8.1-7.6,10.5-5.1,3.3-11.8-.9-17.8,0-6.4,1-10.4,7.6-11.7,14-1.3,6.3-.7,13-2.5,19.2-2.7,9.2.2,23,.9,32.5.4,5.1-1.4,10.2-2.6,15.2-1.3,5-2,10.5.3,15.2,2.3,4.6,9.6,15.8,13.2,20.5,3.6,4.7,8.8,8.7,10,14.5,2.5,12.4-14.1,20.3-17.4,32.5-2.7,10.1,4.5,20.3,12.7,26.9,8.2,6.6,18,11.7,23.7,20.5,5.7,8.8,14.8,34.5,24.6,42.6,9.8,8,17.2,20.1,16.4,32.7-.4,6.4-2.8,12.8-1.4,19,2.4,10.7,14.5,15.6,23.9,21.3,11.3,6.8,20.4,16.7,29.4,26.5,5.1,5.5,10.2,11.1,13.9,17.6,3.5,6,5.8,12.7,9.4,18.7,4.9,8.1,12.1,14.6,19.1,21,7.1,6.4,14.4,12.9,22.8,17.6,11,6.1,23.8,8.9,33.4,17,11.2,9.4,16.5,24.7,28.2,33.5,11.7,8.9,27.4,9.7,41.9,11.6,14.6,2,28,6.8,35.1,19.7-5-19.8,8.4-36.7,17.3-55,9-18.3,20.3-35.8,25.2-55.6,7.3-29.5-.2-61.9,11.3-90,6.5-15.9,19.1-30.5,18-47.6Z"/>
      <path class="st0" d="M962.7,662.1c-.8-10,3.1-20.2,1.2-30-3.1-16-20.4-26.1-24.1-42-1.5-6.4-.6-13.5-3.3-19.5-4.9-11.1-18.6-14.1-30.1-18-6.1-2.1-12-4.8-17.6-8,0,0-.1,0-.2,0-12.7-7.4-23.8-17.7-32.1-29.9-13.1-19.3-19.8-43.9-38.7-57.5-15.6-11.3-36.4-12.6-55.3-9.2-12.6,2.3-26.2,7.4-32,18.9-5.3,10.5-2.6,23.1-1.1,34.8,4.6,35.7-5.1,74.6-25,104.6-9.9-5.4-12.2-13.8-12-25,.2-11.2,6.3-21.3,11.5-31.2,6.7-12.6,12.4-26.1,13.4-40.4,1-14.2-3.4-29.4-14.1-38.9-10.7-9.4-29.1-17.4-40-8.2-3.4,5.4-12,4.5-17,.5-5-3.9-8.1-9.9-12.8-14.2-4.7-4.4-12.5-6.8-17.2-2.5-3.2,2.9-4,8.1-7.6,10.5-5.1,3.3-11.8-.9-17.8,0-6.4,1-10.4,7.6-11.7,14-1.3,6.3-.7,13-2.5,19.2-2.7,9.2.2,23,.9,32.5.4,5.1-1.4,10.2-2.6,15.2-1.3,5-2,10.5.3,15.2,2.3,4.6,9.6,15.8,13.2,20.5,3.6,4.7,8.8,8.7,10,14.5,2.5,12.4-14.1,20.3-17.4,32.5-2.7,10.1,4.5,20.3,12.7,26.9,8.2,6.6,18,11.7,23.7,20.5,5.7,8.8,14.8,34.5,24.6,42.6,9.8,8,17.2,20.1,16.4,32.7-.4,6.4-2.8,12.8-1.4,19,2.4,10.7,14.5,15.6,23.9,21.3,11.3,6.8,20.4,16.7,29.4,26.5,5.1,5.5,10.2,11.1,13.9,17.6,3.5,6,5.8,12.7,9.4,18.7,4.9,8.1,12.1,14.6,19.1,21,7.1,6.4,14.4,12.9,22.8,17.6,11,6.1,23.8,8.9,33.4,17,11.2,9.4,16.5,24.7,28.2,33.5,11.7,8.9,27.4,9.7,41.9,11.6,14.6,2,28,6.8,35.1,19.7-5-19.8,8.4-36.7,17.3-55,9-18.3,20.3-35.8,25.2-55.6,7.3-29.5-.2-61.9,11.3-90,6.5-15.9,19.1-30.5,18-47.6-1.3-20.5-21.7-35.8-23.3-56.3ZM967.2,744.9c-15.4,1.2-25.2-.4-40.8-4.7-23.3-6.4-36-9.9-59.2-16.7-13.4-3.9-28.7-5.6-40.5-6.7-10.9-1-21.7,0-27.4.6,2.7,3.9,5.5,7.9,8.1,11.8,9.6,14.2,18.4,28.1,26.5,41.7,3.6.4,9.7,1.4,12.6,1.8,4.1.6,8.2,1.4,12.3,2.2,16.3,3.5,32.3,8.9,47.6,15.5,15.2,6.5,30,14.1,44.2,22.4,1.8,1.1,3.6,2.1,5.4,3.2-15.1-6.9-30.2-13.8-45.7-19.9-15.4-6-31.1-11.3-47.2-14.9-8-1.8-16-3.2-24.1-4.1-.3,0-.8-.1-1.4-.2,14.1,24.3,26,47.8,36.3,71.7,4.2,2.1,11.1,5.6,13.2,6.8,5.5,3.2,10.8,6.9,15.7,10.9,11.5,9.4,21.3,20.7,30.3,32.5-8.8-8.6-17.4-17.4-27-25.2-6.9-5.6-22.2-14.6-29.5-18.5,3.7,8.9,7.2,17.9,10.6,27,9.2,25,19.6,57.7,21.4,65.2.3,1.3-18.7-41.5-25.6-59.9-4-10.7-8.1-21.2-12.3-31.4-1.6,2.8-3.7,7-4.5,8.7-2.6,5.4-5,10.9-7,16.6-2.2,5.9-4.1,11.9-5.7,18-3.1,11.4-5.3,23.1-5.9,34.9-.7-7.4-.3-14.8.5-22.2,1.7-12,4.6-23.6,8.3-35.2,3.8-11.8,9.1-21.5,12-26.3-10.5-24.8-22-48.4-35.6-71.9-2.3,3.1-6.8,9.5-8.3,12-4.2,6.8-7.6,14.1-10.8,21.4-3.3,7.4-6.2,14.9-8.8,22.5-5.2,15.3-9.6,31.1-10.9,47.3-.2,2-.3,4-.3,6-.1-2.6-.5-5.1-.3-7.7.4-16.6,3.7-33.1,8.5-49,4.7-15.5,10.8-30.9,19.1-44.8,1.6-2.6,6.2-9.5,8.7-13.2-7.6-12.9-15.9-25.7-25-38.7-3.3-4.7-7-9.7-11-15-6.2,6.3-31.4,32.9-45.1,62.9-12.2,26.8-13.8,55.4-14.2,55.4-1.2,0,.3-23.4,4.4-41.4,3.4-12.1,6.9-21.5,12.8-32.6,13.6-25.5,31.1-44.3,37.3-50.6-9.3-12-19.9-25-30.3-37.6-3.8,3.7-14.5,14.2-17.3,17.4-6.7,7.6-14.8,19-22.1,28.5-15,19.7-41.5,39.3-42.9,37.9-1.8-1.8,22-18.9,32.9-34.6,11.1-15.9,9.3-11.7,21.1-27.2,4.4-5.8,17.7-20.1,24.3-26.7-11.1-13.3-21.9-26-30.9-36.7-3.3,4.8-10.2,13.7-20.6,20.1-23.3,14.3-50.8,16.5-77.1,12.3,8.3-.3,26.9-1.3,36.7-3.2,10.5-2,23.2-5.5,39-18.4,5.3-4.4,11.5-13.3,15.8-18.2-3.2-3.8-6-7.2-8.3-10.2-15.7,3-33,3.1-48.7,2.5-8.8-.3-19.5-1.6-28.2-3-8.4-1.4-14.7-2.7-22.5-6.3-.8-.4,18.2,2,49.8,3.3,13.2.6,27.8-.7,37.5-1.9-46.1-9-53.3-67.6-74.4-99-7.9-11.8-25.2-18.2-24.6-18.1,18.9,2.2,30.9,22.1,39.5,36.9,11.3,19.5,16.9,36.3,31.7,53.6,7.8,9.1,24.6,19.5,36,22.7,16.7-11.3,30.3-31.2,39.2-48.6,10.1-19.7,18.6-40.8,31.9-58.7,6.8-9.1,16.6-24.2,27.4-28.3.6-.2-18.9,15.3-40.3,58.6-9.6,19.6-15.3,32.4-27.2,53.7-5.6,10-13.6,18.6-22.8,23.1,57,4.5,139.9-11.7,200.2-43.7.8-.4-18.9,19.7-83.6,36.3-43.7,11.2-91.5,16.9-111.3,15.9,2.2,2.4,4.6,5.1,7.2,8.1,12.7,2,48.3,10,82.7,8,21.5-1.2,35.1-2.2,56.4-5.5,24-3.7,47.8-9.2,70.6-17.4-35.9,16.3-76.8,27.4-116.1,29.9-44.3,2.9-72.5-2.2-85.4-5.6,8.2,9.7,17.7,21.2,27.7,33.9,12.3-.8,51.7-2.5,68.9-3.6,19.7-1.3,39.3-1.4,58.9.5,22,2.1,44.1,6.3,64.3,15.6-20.2-6.5-40.8-9.7-61.9-11-21.5-1.3-42.8-.3-64.2,1.3-16.5,1.2-47.1,2.6-61,3.6,9,11.7,18.4,24.2,27.5,37,5.6-.5,17.8-1.3,33.9.2,10.1.9,23.6,2.4,35.9,6.1,23,7,42.5,13.1,65.3,20.6,22.4,7.4,39.7,7.3,37.8,7.4Z"/>
    </g>
    <g>
      <path class="st0" d="M434.3,745.9c-17-48.6-47.6-107.3-55.6-132.3-.2-.6-.4-1.2-.5-1.8-6,1.3-12,3.3-17.6,6.2-2.2,1.1-4.3,2.5-6.3,4,18.9,16.4,30,48.1,44.6,74.3,12.8,23.1,32.3,72.6,49.3,158.8,12,60.9,5.8,101.4-.5,141.6l20.5-1.9c13.3-74.5-6.8-171.6-33.9-249Z"/>
      <path class="st2" d="M481.5,590.8c-28.8-21.1,15.8-38.3.8-56.8-8.1-9.9-41.6-16-54.5-14.7-14.7,1.5-35.8,4.9-59.4,17.2-3.3,1.7-6.6,3.6-9.7,5.5-.2,0-.5.1-.7.2-.3,0-.4.3-.4.5-9.6,6-18.6,13.1-26.5,21.3-5.3,5.4-9.7,11.6-14.9,17-4.2,4.4-10.6,10.5-17.3,9.8-6.5-.7-8.8-6.9-7.4-12.5,1.5-6.1,5.8-11.6,10.8-15.1,12.4-8.6,29.2-10.9,36.8-25.6,6.6-13,.8-27.4-2.4-40.4-1.7-7-2.8-14.1-1.1-21.2,1.6-6.9,4.8-13.4,7.3-20.1,4.1-11.3,5.8-25.2-6.3-32.3-11-6.5-24.8-.7-36.2,1.4-6.8,1.2-14,1.8-20.2-1.8-7.7-4.4-12.8-12.1-20.5-16.5-12.4-7.1-26.7-3.1-37,5.7-12,10.2-18.8,24.2-23.3,39-5.4,17.7-30.1,62.1-38.1,78.8-20,41.7-18.5,66.3-12.1,126.7,4.2,39.9-30.6,79.6-14.5,116.6,17.4,40-17.4,94.4,10.5,106.4,8.6,3.7,30.4-25.2,72.2-43.8,33-14.7,47.3-41.6,68.4-49.7,26.2-10,39.6-35.7,45.2-44.2,6-9.2,66.7-8.1,78.9-35,9.8-21.7,33.5-22.4,39-31.2,9.9-15.9,8.1-50.9,27.6-52.9,16.9-1.7,12.6-27.2,5.3-32.6Z"/>
      <path class="st0" d="M217.2,836.3c33-14.7,47.3-41.6,68.4-49.7,26.2-10,39.6-35.7,45.2-44.2,6-9.2,66.7-8.1,78.9-35,9.8-21.7,33.5-22.4,39-31.2,9.9-15.9,8.1-50.9,27.6-52.9,16.9-1.7,12.6-27.2,5.3-32.6-28.8-21.1,15.8-38.3.8-56.8-8.1-9.9-41.6-16-54.5-14.7-14.7,1.5-35.8,4.9-59.4,17.2-3.3,1.7-6.6,3.6-9.7,5.5-.2,0-.5.1-.7.2-.3,0-.4.3-.4.5-9.6,6-18.6,13.1-26.5,21.3-5.3,5.4-9.7,11.6-14.9,17-4.2,4.4-10.6,10.5-17.3,9.8-6.5-.7-8.8-6.9-7.4-12.5,1.5-6.1,5.8-11.6,10.8-15.1,12.4-8.6,29.2-10.9,36.8-25.6,6.6-13,.8-27.4-2.4-40.4-1.7-7-2.8-14.1-1.1-21.2,1.6-6.9,4.8-13.4,7.3-20.1,4.1-11.3,5.8-25.2-6.3-32.3-11-6.5-24.8-.7-36.2,1.4-6.8,1.2-14,1.8-20.2-1.8-7.7-4.4-12.8-12.1-20.5-16.5-12.4-7.1-26.7-3.1-37,5.7-12,10.2-18.8,24.2-23.3,39-5.4,17.7-30.1,62.1-38.1,78.8-20,41.7-18.5,66.3-12.1,126.7,4.2,39.9-30.6,79.6-14.5,116.6,17.4,40-17.4,94.4,10.5,106.4,8.6,3.7,30.4-25.2,72.2-43.8ZM148.4,869.7c-3.5-1.3,9.2-30.7,18.7-51.9,8.1-17.9,34.5-65.7,43.2-84.4-4.8.7-15.6,3.3-31.5,12.2-20.3,11.4-31.5,29.2-33.3,24.1-1.4-4,18.6-20,29.9-28.3,12.5-8.9,30.6-14.5,38.1-16.6,3-8.7,11.7-30.6,20.7-50.8-6.1,1-23.6,4.6-41.9,14.7-12.7,7-39.9,32.8-41.1,24.5-.7-5,23-19,37.1-28,22.6-14.7,43.3-17.1,48.7-17.4,5.7-12.6,11.3-23.9,15.4-30.2.9-1.4,1.9-2.9,2.9-4.4-10.4.4-32.2,1.5-43.1,2.9-11.7,1.5-33.1,8.2-48,8.7-3.6.1-.6-3.7.2-4,14.6-4.9,43.7-10,50.6-10.8,18.8-2.2,38.5-4.4,46.1-5.3,2.9-4.1,5.9-8.4,9-12.4-15.6-2.5-15.4-4.2-39.5-10-36.7-8.7-58.2-20.2-56.6-22.8,1.4-2.2,34,10.7,60.5,16.4,8.1,1.7,31.5,7.1,41.1,9.2,2.3-2.8,4.5-5.4,6.5-7.4-2.3-6-7.4-19.3-11.6-31.3-6.4-18.4-12.2-35.5-9.9-61.1,2.6-28.4,6.5-26.4,4.9-4-1.5,22,1.4,37.6,8.3,58.4,3.9,11.9,13.2,29.6,15.7,34.3,11.6,1.1,84.1,7.5,105,5.4,24.6-2.4,42.6-8.7,28.3-3.8-19.3,6.6-35.7,11.8-56,11.1-18.1-.6-68.6-4.6-80.8-5.6-1.5,2.1-3.3,4.4-5.2,7,4.5,8.5,22.6,40.7,48.3,58.1,25.1,17.1,40.4,18.8,36.9,22-5.2,4.9-22.8-3.8-41.4-18-22.9-17.4-41.9-42-49.3-54.9-3.1,4.2-6.5,8.6-9.8,13.1,3.2,11.4,12.3,42.8,17.2,54.2,3.3,7.7,14.9,36.6,21.5,50.2.4.8-.7,1.5-1.2.8-11-13.8-21.4-38.1-25.6-47.7-5.3-12.2-13.9-37.8-17.6-49.5-4.7,6.7-9,13.3-12.1,19-2.1,3.9-4.6,9.2-7.3,15.6,3.3,6.3,10,20.5,11.5,36.5,2.7,29.2,14.1,56.4,10.2,58.8-5.1,3.2-13.3-36.5-15.5-55.3-1.2-9.9-6.4-26.4-8.8-33.8-6.3,15.2-13.3,34-19.1,49.7,4,8,13.8,30.7,13.4,59.3-.1,10.6-3.6,27.3-8.4,30-3.9,2.2,7.4-25.9-1.1-61.6-1.7-7-5.1-14-7.3-18-3.6,9.8-6.4,17.4-7.8,20.5-4.7,11.1-24,47-32.4,63.5-9.2,18.2-24.3,49.9-26.6,49.1Z"/>
    </g>
  </g>
</svg>