<?xml version="1.0" encoding="UTF-8"?>
<svg id="Layer_1" xmlns="http://www.w3.org/2000/svg" version="1.1" viewBox="0 0 1000 1000">
  <!-- Generator: Adobe Illustrator 29.0.1, SVG Export Plug-In . SVG Version: 2.1.0 Build 192)  -->
  <defs>
    <style>
      .st0 {
        fill: #f7fbe8;
      }

      .st1 {
        fill: #53522b;
      }
    </style>
  </defs>
  <g>
    <path class="st1" d="M226.9,405.6l1.9,13.7c95,71.3,243.9,350.5,252.4,580.7h43.9c-34.9-174.1-140.5-480.4-298.2-594.4Z"/>
    <path class="st0" d="M404.9,367.3c27.2.1,56.1.1,69.1-.1,15.1-.3,48.1-2.9,47.9-8.7-.4-8.7-61.7-23.2-90.1-25.1-17.2-1.2-48.7-1.3-77.8,6.8-7,2-19.6,7.6-32.4,13.9,9.6-7.9,17.6-14.3,20.3-16.1,15-10.3,30.5-20.4,39.7-29,17.6-16.5,38.5-37.7,33.8-42.7-6.8-7.3-39.1-.7-47.4,1.6-7.5,2.1-44.3,15.9-68.6,44.7-11.7,13.9-25,37.2-36.3,59.2l.8-35.4c5.3-19.9,34.4-47.6,33.5-55.7-.9-8.3-27.3-2.7-32.5-.9-18.2,6.2-35,17.8-35,17.8,0,0-19.5-3-26.1-.6-7.7,2.8-24.1,13.4-23,23.2.9,8.7,24.1,17.1,34.6,30.7l19.3,42.7c-17.1-16.8-38.9-35-58.6-44-9.3-8.3-19.9-16.7-25.4-17.1-12-1-36.7,13.8-36.7,13.8,0,0-21.4-.5-28,1.9-16.2,5.7-29.2,19.5-29.2,19.5-6.3,7.2-8.6,26.9-4.5,29.8,0,0,101.6-26.2,125.4-17.3,0,0,39,18.7,59.3,33-23.3-9.2-66.4-24.5-95.6-24.4-13.2,0-32.9,4.3-48.4,11.4-17,7.8-39.6,21.1-56.5,42.5-23.3,29.7-27,59.6-18.1,67.5,2.8,2.5,56.5-49.7,98.1-69.5,27.4-13.1,45.2-15.4,94-15.8,0,0,0,0,0,0-15.4,2-60.9,9.4-70.7,13-19.1,7.1-60.8,35.1-67.1,42.6-6.6,7.8-28.1,24.3-38.1,53.7-3.8,11.3-5.6,83.1,9.8,94.3,6.4,4.7,23.1-52.7,29.8-67.9,7.9-18.1,39.7-60.6,45.1-67.8,6-8,33.2-27.9,41.6-32.5,4.1-2.2,11.5-5.6,19.1-8.9-18.7,12.8-43.4,30.3-51,40.7-6,8.3-46,73.8-49.1,84.3-2.9,9.7-.9,106.8,23.4,103.6,22.3-3,27.9-75.8,30.2-84.9,2.8-11.2,27.7-101,33.7-111.1,2.4-4.1,11-10.7,21.1-17.7-4.4,4.8-8.2,9.6-11.1,14.4-20.6,33.7-21.8,98.2-18.6,127.7,1.1,10.3,14.3,69.3,36.3,66.8,10-1.1,15.5-38.9,19.6-101.7,1.6-24.4,3.7-65,12.1-87.9,3.7-10,7-18.5,10-25.7.5,3.7,1.1,7.2,1.5,10,1.8,11.2,18.1,87.7,27.3,102.9,27.4,45,59.1,64.3,79.3,57,8.9-5.1,17.6-39.9,9.8-79.3-3.7-18.8-39.3-74.2-50.5-90.2,23,16.6,47.1,39.9,52,44.6,10.4,9.9,24.1,22,38.2,34.3,29.5,25.7,50.8,34,63.6,30.5,6.2-1.7,5.7-10.7,3.6-24.4-4-25.7-14.6-50.4-35.9-70.1-22.4-20.8-52.2-38.4-82.3-48.7-13.2-4.5-26.9-7.9-40.2-9.9,7.9-.8,35.8-.3,70.6,6.4,19.9,3.8,52.1,11.8,73.4,16.8,10.4,2.5,67.1,10.6,65.7-2.8-.9-8.6-30.3-31.3-78.1-47.5-18-6.1-57.4-11.3-70.9-10.4-22.4,1.5-42.7,6.6-59.7,12.5,7.8-5.9,14.5-10.2,18.1-11.7,24.7-9.8,58.4-12.6,82.8-12.5Z"/>
    <path class="st1" d="M404.9,367.3c27.2.1,56.1.1,69.1-.1,15.1-.3,48.1-2.9,47.9-8.7-.4-8.7-61.7-23.2-90.1-25.1-17.2-1.2-48.7-1.3-77.8,6.8-7,2-19.6,7.6-32.4,13.9,9.6-7.9,17.6-14.3,20.3-16.1,15-10.3,30.5-20.4,39.7-29,17.6-16.5,38.5-37.7,33.8-42.7-6.8-7.3-39.1-.7-47.4,1.6-7.5,2.1-44.3,15.9-68.6,44.7-11.7,13.9-25,37.2-36.3,59.2l.8-35.4c5.3-19.9,34.4-47.6,33.5-55.7-.9-8.3-27.3-2.7-32.5-.9-18.2,6.2-35,17.8-35,17.8,0,0-19.5-3-26.1-.6-7.7,2.8-24.1,13.4-23,23.2.9,8.7,24.1,17.1,34.6,30.7l19.3,42.7c-17.1-16.8-38.9-35-58.6-44-9.3-8.3-19.9-16.7-25.4-17.1-12-1-36.7,13.8-36.7,13.8,0,0-21.4-.5-28,1.9-16.2,5.7-29.2,19.5-29.2,19.5-6.3,7.2-8.6,26.9-4.5,29.8,0,0,101.6-26.2,125.4-17.3,0,0,39,18.7,59.3,33-23.3-9.2-66.4-24.5-95.6-24.4-13.2,0-32.9,4.3-48.4,11.4-17,7.8-39.6,21.1-56.5,42.5-23.3,29.7-27,59.6-18.1,67.5,2.8,2.5,56.5-49.7,98.1-69.5,27.4-13.1,45.2-15.4,94-15.8,0,0,0,0,0,0-15.4,2-60.9,9.4-70.7,13-19.1,7.1-60.8,35.1-67.1,42.6-6.6,7.8-28.1,24.3-38.1,53.7-3.8,11.3-5.6,83.1,9.8,94.3,6.4,4.7,23.1-52.7,29.8-67.9,7.9-18.1,39.7-60.6,45.1-67.8,6-8,33.2-27.9,41.6-32.5,4.1-2.2,11.5-5.6,19.1-8.9-18.7,12.8-43.4,30.3-51,40.7-6,8.3-46,73.8-49.1,84.3-2.9,9.7-.9,106.8,23.4,103.6,22.3-3,27.9-75.8,30.2-84.9,2.8-11.2,27.7-101,33.7-111.1,2.4-4.1,11-10.7,21.1-17.7-4.4,4.8-8.2,9.6-11.1,14.4-20.6,33.7-21.8,98.2-18.6,127.7,1.1,10.3,14.3,69.3,36.3,66.8,10-1.1,15.5-38.9,19.6-101.7,1.6-24.4,3.7-65,12.1-87.9,3.7-10,7-18.5,10-25.7.5,3.7,1.1,7.2,1.5,10,1.8,11.2,18.1,87.7,27.3,102.9,27.4,45,59.1,64.3,79.3,57,8.9-5.1,17.6-39.9,9.8-79.3-3.7-18.8-39.3-74.2-50.5-90.2,23,16.6,47.1,39.9,52,44.6,10.4,9.9,24.1,22,38.2,34.3,29.5,25.7,50.8,34,63.6,30.5,6.2-1.7,5.7-10.7,3.6-24.4-4-25.7-14.6-50.4-35.9-70.1-22.4-20.8-52.2-38.4-82.3-48.7-13.2-4.5-26.9-7.9-40.2-9.9,7.9-.8,35.8-.3,70.6,6.4,19.9,3.8,52.1,11.8,73.4,16.8,10.4,2.5,67.1,10.6,65.7-2.8-.9-8.6-30.3-31.3-78.1-47.5-18-6.1-57.4-11.3-70.9-10.4-22.4,1.5-42.7,6.6-59.7,12.5,7.8-5.9,14.5-10.2,18.1-11.7,24.7-9.8,58.4-12.6,82.8-12.5ZM371.2,346.3c31.7-6.4,62.9-9,93.7-2.3,7.6,1.6,7.7,6.1-36.7,5.2-16.4-.3-41.7-.2-55.1,0-7.5.1-15.3-.2-2-2.9ZM146.6,350.8c-4.3-1.2-25.7-3.5-25-3.9,7-4.5,17.3-5.8,25.2-3.3,5.2,1.6,22,9.9,23.8,13.1.3.5-16.2-3.7-24.1-5.9ZM80.9,423.3c-23.6,17-40.5,34.5-41.5,32.2-1.7-3.9,11-23.1,36.6-37.9,24.7-14.3,40.9-18,56.8-19.1,5.5-.4-33.8,11.7-52,24.9ZM126.7,455.5c-3.4,2.6-51.4,45.4-62.1,65.2-19.5,35.8-16.7,10.3-6.2-6.5,12.6-20,23.5-31,42.3-44.8,16.2-11.9,29.3-16.5,26-14ZM110.2,580c-4.8,40.5-.3,66-5,65.5-3.6-.4-9.4-51-4-70,6.3-22.4,17.9-40.4,24.4-50.6-4.7,23.9-12.8,34.1-15.3,55.1ZM222.8,305.5c.8-1.9,5.1.4,8.6-.9,2.3-.9,5.6-4.5,7.6-6,.4-.3,1.1,0,1.2.5.3,7.1-1.2,34.3-2.9,40.7-.2.6-.9.8-1.3.3-2.2-2.7-14.2-32.2-13.2-34.6ZM186.4,546.2c-1.8,18-2.7,40.1-2.7,58.2,0,7,.1,46.7-.7,45.2-2.8-5.4-9.4-26.4-9-48.1.3-19.4,2.5-38.6,5.2-57.7,2.6-18.3,7.2-35.9,12.3-53.6,4.4-15.5-3.3,38.7-5.1,56.1ZM315,524.6c14.3,34.5,25,68.1,19.8,69.3-3.8.9-14.5-29.7-28.7-63.6-19.1-45.7-23.7-51-22.2-53,2.6-3.6,20.3,21.1,31.1,47.3ZM345.9,443.7c24.4,8.7,50.3,25.7,69.3,41.2,12.4,10.1,30.1,42.3,25.5,45.3-2.3,1.5-4.6-.9-33.1-31.9-14.9-16.2-64.2-47.2-70-50.7-4.2-2.6-6.6-9.2,8.3-3.9ZM361.9,389.2c40.3-1.3,106.7,22.1,110.8,28,5.7,8.1-32.2-5.3-59.7-14.2-12.3-4-59.8-9.3-66.4-12.6,5.1-.6,10.2-1,15.2-1.2ZM296.4,343.4c-3,.2,12.1-25.1,21.1-35.3,8.8-10.1,34.8-28.2,59.4-34.4,0,0-32.5,23.5-48.7,36.5-12.8,10.2-27.7,33-31.7,33.2Z"/>
  </g>
  <g>
    <path class="st1" d="M793.4,600.1l-2.4,8.4c-81.9,36.9-212.9,198.3-233.3,340.9h-43.9c38.8-105.6,143.8-290.7,279.5-349.3Z"/>
    <g>
      <path class="st0" d="M666.9,489.6c-25-10.9-51.3-22.5-63.2-28-13.7-6.3-42.9-22.1-40.3-27.3,3.9-7.8,65.8,3.7,92.6,13.4,16.2,5.9,45.1,18.5,68.4,37.6,5.7,4.6,14.8,14.9,24,25.8-5.6-11.1-10.3-20.1-12.1-22.9-9.6-15.5-19.7-31-24.6-42.6-9.4-22.2-20-50.1-13.6-52.7,9.2-3.9,36,15.2,42.7,20.6,6,4.9,34.1,32.4,44.7,68.6,5.1,17.5,7.8,44.1,9.3,68.8l13.6-32.7c3.2-20.4-12.2-57.5-8.2-64.5,4.2-7.2,26.1,8.6,30.1,12.3,14.1,13,24.8,30.4,24.8,30.4,0,0,19,5.1,24.1,9.9,5.9,5.6,16.6,22,11.7,30.6-4.3,7.6-28.9,5.9-44,14.1l-34.9,31.2c22.4-8.4,49.8-16.3,71.3-16.6,11.9-3.8,24.9-7.2,30.1-5.4,11.3,3.9,28,27.5,28,27.5,0,0,19.7,8.2,24.8,13,12.5,11.8,18.8,29.6,18.8,29.6,2.9,9.1-3,28.1-7.9,29.1,0,0-82.4-65-107.7-66.4,0,0-43.2,1.4-67.6,6.3,25.1,1,70.7,4.4,97.3,16.3,12,5.4,28.4,17.2,39.7,30,12.4,14,27.7,35.2,34.5,61.7,9.4,36.6.7,65.4-10.7,69-3.6,1.1-31.7-68.3-61.7-103.2-19.8-23-35.2-32.4-79.6-52.4,0,0,0,0,0,0,13.3,8,51.9,33.2,59.4,40.5,14.6,14.2,41.4,56.6,44.2,66,2.9,9.8,15.9,33.5,13.2,64.5-1,11.9-28.4,78.3-47,82.4-7.8,1.7.1-57.5.2-74.2,0-19.8-11.8-71.5-13.8-80.3-2.3-9.8-19-38.9-24.9-46.6-2.8-3.7-8.2-9.7-13.9-15.9,11.9,19.2,27.5,45.3,30.2,57.8,2.1,10,12.3,86,10.9,97-1.3,10.1-42.4,98-63.2,85.3-19.2-11.7,5.1-80.6,6.7-89.9,2-11.4,15.4-103.6,14-115.2-.5-4.7-5.7-14.2-12.1-24.7,2,6.2,3.6,12.1,4.3,17.6,5.3,39.2-19.7,98.6-34.6,124.3-5.2,9-41,57.7-60.2,46.5-8.7-5.1,1.6-41.9,23.2-100.9,8.4-23,22.8-61,24.4-85.3.7-10.6,1.1-19.8,1.2-27.6-2,3.2-3.9,6.1-5.4,8.5-6.2,9.5-52,72.9-66.5,83.1-43.2,30.1-80,35-95.6,20.1-6-8.2,0-43.7,23.1-76.5,11-15.7,65.9-52.1,82.6-62.1-27.7,5.9-59.2,17.5-65.6,19.8-13.5,4.8-30.9,10.3-48.8,15.9-37.4,11.7-60.2,10.6-70.5,2.2-5-4.1-.9-12.1,6.6-23.8,14-21.9,33.7-40.2,61.1-49.7,28.9-10,63.2-14,94.9-11.3,13.9,1.2,27.8,3.6,40.7,7.2-6.9-3.9-32.6-14.7-67.1-22.6-19.8-4.5-52.5-10.3-74-14.3-10.5-2-65.7-17.4-59-29.1,4.3-7.5,40.4-16.4,90.6-11.9,18.9,1.7,57.1,12.8,69.1,19.1,19.9,10.4,36.4,23.2,49.6,35.6-4.8-8.5-9.1-15.2-11.9-18-18.6-18.9-48.3-35.1-70.7-44.8Z"/>
      <path class="st1" d="M737.6,534.5c2.8,2.8,7.1,9.5,11.9,18-13.1-12.3-29.7-25.2-49.6-35.6-12-6.3-50.2-17.4-69.1-19.1-50.2-4.5-86.3,4.4-90.6,11.9-6.7,11.7,48.4,27.1,59,29.1,21.5,4,54.2,9.7,74,14.3,34.6,7.9,60.3,18.7,67.1,22.6-12.9-3.6-26.8-6-40.7-7.2-31.7-2.7-66,1.3-94.9,11.3-27.5,9.5-47.1,27.8-61.1,49.7-7.5,11.7-11.6,19.7-6.6,23.8,10.3,8.4,33.2,9.5,70.5-2.2,17.9-5.6,35.3-11.1,48.8-15.9,6.4-2.3,37.9-13.9,65.6-19.8-16.7,10-71.6,46.4-82.6,62.1-23,32.8-29.1,68.3-23.1,76.5,15.5,14.9,52.3,10,95.6-20.1,14.6-10.1,60.3-73.6,66.5-83.1,1.6-2.4,3.5-5.3,5.4-8.5-.1,7.9-.5,17-1.2,27.6-1.6,24.3-16,62.3-24.4,85.3-21.6,59-31.9,95.8-23.2,100.9,19.1,11.2,55-37.5,60.2-46.5,14.9-25.7,39.9-85.2,34.6-124.3-.7-5.5-2.3-11.5-4.3-17.6,6.4,10.5,11.6,20,12.1,24.7,1.4,11.6-12,103.8-14,115.2-1.6,9.2-25.9,78.1-6.7,89.9,20.9,12.7,62-75.3,63.2-85.3,1.4-11-8.7-87-10.9-97-2.7-12.5-18.2-38.6-30.2-57.8,5.7,6.2,11.1,12.3,13.9,15.9,5.9,7.6,22.7,36.8,24.9,46.6,2,8.8,13.9,60.5,13.8,80.3,0,16.7-8,75.9-.2,74.2,18.6-4.1,46-70.5,47-82.4,2.7-31-10.3-54.8-13.2-64.5-2.8-9.4-29.6-51.8-44.2-66-7.5-7.3-46.1-32.5-59.4-40.5,0,0,0,0,0,0,44.4,20,59.8,29.3,79.6,52.4,30,34.9,58,104.3,61.7,103.2,11.3-3.6,20-32.5,10.7-69-6.8-26.5-22.1-47.7-34.5-61.7-11.3-12.8-27.6-24.6-39.7-30-26.6-11.9-72.2-15.3-97.3-16.3,24.4-4.9,67.6-6.3,67.6-6.3,25.3,1.4,107.7,66.4,107.7,66.4,4.9-1,10.8-20,7.9-29.1,0,0-6.4-17.8-18.8-29.6-5.1-4.8-24.8-13-24.8-13,0,0-16.6-23.5-28-27.5-5.2-1.8-18.3,1.6-30.1,5.4-21.6.2-48.9,8.1-71.3,16.6l34.9-31.2c15.1-8.2,39.7-6.5,44-14.1,4.9-8.6-5.8-24.9-11.7-30.6-5.1-4.8-24.1-9.9-24.1-9.9,0,0-10.7-17.3-24.8-30.4-4-3.7-26-19.5-30.1-12.3-4.1,7,11.3,44.1,8.2,64.5l-13.6,32.7c-1.4-24.7-4.2-51.4-9.3-68.8-10.6-36.2-38.7-63.7-44.7-68.6-6.7-5.5-33.6-24.6-42.7-20.6-6.3,2.7,4.2,30.6,13.6,52.7,4.9,11.6,15,27.1,24.6,42.6,1.7,2.8,6.5,11.8,12.1,22.9-9.2-10.9-18.4-21.2-24-25.8-23.3-19.1-52.2-31.8-68.4-37.6-26.9-9.7-88.8-21.2-92.6-13.4-2.6,5.2,26.6,21,40.3,27.3,11.8,5.5,38.2,17.1,63.2,28,22.4,9.8,52.1,25.9,70.7,44.8ZM703.3,485.8c-12.1-5.6-35.3-15.9-50.4-22.2-40.9-17.1-39-21.1-31.4-19.6,30.9,6.3,58.4,21.3,84.8,39.9,11.1,7.8,3.9,5-3,1.8ZM885.5,574.5c3-2.2,21.7-3,27.1-2.4,8.3.9,17.2,6.3,21.7,13.2.4.7-20-5.9-24.4-6.5-8.1-1.2-24.9-4-24.4-4.3ZM903.2,628c14.1,7.5,27.4,17.4,44.2,40.4,17.5,23.9,21.3,46.6,18.2,49.5-1.8,1.7-10.2-21.1-24.9-46.2-11.3-19.3-42.4-46.3-37.5-43.7ZM903.9,706c11.7,20.2,17.2,34.6,20.6,58,2.9,19.6-4.9,44.1-8.3,3.4-1.9-22.5-28.4-81.1-30.5-84.8-2-3.6,8.1,5.9,18.2,23.3ZM858.9,746.6c1.8,11.9,5.2,33,1.9,56.1-2.8,19.6-28.5,63.5-32,62.4-4.5-1.4,9.9-22.9,21.9-61.9,6.2-20.2,2.9-32.8,8.3-56.6ZM832.5,532.9c-.6.3-1.2-.2-1.1-.8,1-6.5,10.6-32,13.8-38.4.2-.5,1-.5,1.3,0,1.2,2.2,2.8,6.8,4.5,8.6,2.6,2.6,7.5,2.3,7.5,4.3,0,2.6-22.8,24.7-26,26.3ZM812.5,688.2c-2.5,18.3-5.3,36.3-10.4,54-5.3,18.6-11,37-18.6,54.9-8.4,20-23,36.6-27.7,40.4-1.4,1.1,14.8-35.2,17.6-41.6,7.3-16.5,15.4-37.1,21-54.3,5.4-16.6,20.2-69.3,18-53.3ZM733.2,639.1c.5,2.4-5.8,5.4-41.7,39.5-26.7,25.3-48.8,48.9-51.9,46.6-4.3-3.2,19.1-29.6,46.1-55.4,20.5-19.6,46.6-35.1,47.6-30.7ZM696.1,590.2c-6.7.9-64.4,9.3-84.5,18.1-38.6,16.9-41.7,18.2-43.2,15.8-2.9-4.6,26.2-26.9,41.6-31.2,23.6-6.5,54.2-11.6,80-9.7,15.8,1.2,11,6.2,6.1,6.9ZM710.9,534.3c-7.4.4-53-13.9-65.9-15.3-28.7-3-68.8-6-60.3-11.1,6.2-3.7,76.4,1.7,112.7,19.2,4.6,2.2,9.1,4.6,13.5,7.2ZM760.2,468.3c-9.6-18.4-29.9-53.1-29.9-53.1,20,15.6,36.4,42.7,40.4,55.4,4.1,13,7.7,42.2,5.1,40.8-3.6-1.8-8-28.7-15.6-43.2Z"/>
    </g>
  </g>
  <g>
    <path class="st1" d="M539.7,1000c-9.8-289.8,26.5-637,157.4-800.5l-14.3-10.2c-123.8,168.4-167.8,535.9-171.7,810.6h28.5Z"/>
    <g>
      <path class="st1" d="M607.2,361.7l.2,3.2c0-1.1-.2-2.1-.2-3.2,0,0,0,0,0,0Z"/>
      <path class="st0" d="M907.2,249.1c-6.7-15.8-54.7-70-76.2-75.6-31.7-8.2-73.8-8.8-107.8-1.1,0,0,0,0,0,0,21-13.4,34.5-15.6,47-17.9,18.6-3.4,42.4,0,61.2,2.1,8.1-8.9-29.7-30-49-47.2-16.9-15-29.3-18-43.9-11.2-10.6,4.9-23,12.8-37.4,34.1-4.1,6.1-8,12.5-11.5,18.9-2.9-16.1-5.8-31.6-9.4-41.3-12.1-33-25.4-51.7-37.8-66.5-13-15.5-32.5-23-52.2-27.5-19.7-4.5-68.6-6.2-57.9.5,20.6,12.9,36,23.9,60.4,45.2,16,13.9,31.8,33.4,42.6,48.9-26-24.6-53.5-45.7-71.1-58-11.8-8.2-43-22.2-57.2-20.1-30.3,4.6-74.1,41.9-70.2,56.5,29.4-20.5,95.3-12.7,133.4,5.1,20.9,9.7,41.8,24.7,60.3,41.7-47.9-29.5-94.8-43.1-124.1-45.5-35.6-2.9-58.7,4.7-84.9,27.1-26.5,22.6-28.8,45.7-23,57.2,6.4,12.9,15.3-30.9,85.8-40.6,9.1-1.2,58.1.8,106,12.7-1.4-.3-2.7-.6-3.9-.9-20.8-4.2-113.2,6-134.2,9-15.9,2.3-53.8,56.7-42.7,87,2,5.4,8.9,7,13.1,3,13.5-13,43.4-41.1,65.8-55.4,12.9-8.2,37.9-12,76.7-14.2,18.1-1,40.7,1,65.9,6.8-15.6-.5-31.5.9-47.9,3.5-18.1,2.9-79.3,5.4-97.3,22.1-17.9,16.7-45.9,110.3-31.9,117.7,19.8,10.6,84.1-82.4,112.7-90.8,6.7-2,43.4-13.7,77.6-22.3-51.5,27.5-84.8,50.9-85.9,63-2,23.8-17.7,81-.8,108.5,12.7,20.7,67.8-78.9,103-136.5-20.4,74.1-14.9,162.6-1.4,161.6,14.2-1.1,54.3-62.3,60.9-74.1,10.4-18.5-1-56.4-9.2-89.7,15.1,20.7,29.6,41.4,35.7,52.6,14.2,26.1,12.9,43,17.1,67.6,3.3,19.5,8.9,54.6,23.6,67.8,36.8-23.4,49.3-48.9,49.1-75.6-.1-20.4-5.4-40.7-18-56.7-5.3-6.8-53.2-53.1-84.8-82.1,18.7,10.5,38.5,23.8,52.9,34.3,21.7,15.8,54.1,44.2,61.4,72.3,12.4,47.9-6.5,87,9.3,88.7,15.4-5.7,32.2-37.5,37.6-56,4.6-15.7-2.5-54.1-14.5-75.4-14.5-25.7-43.8-56-70-69.6-15.3-8-50.3-15.3-82.2-18,23.8-4.3,52.4-1.9,78.6,6.7,23.3,7.7,48.1,29.6,61.1,44.9,19.9,23.6,25.8,40.8,37.7,52.2,8.9-7.1,8.2-33.9,1.6-49.7Z"/>
      <path class="st1" d="M907.2,249.1c-6.7-15.8-54.7-70-76.2-75.6-31.7-8.2-73.8-8.8-107.8-1.1,0,0,0,0,0,0,21-13.4,34.5-15.6,47-17.9,18.6-3.4,42.4,0,61.2,2.1,8.1-8.9-29.7-30-49-47.2-16.9-15-29.3-18-43.9-11.2-10.6,4.9-23,12.8-37.4,34.1-4.1,6.1-8,12.5-11.5,18.9-2.9-16.1-5.8-31.6-9.4-41.3-12.1-33-25.4-51.7-37.8-66.5-13-15.5-32.5-23-52.2-27.5-19.7-4.5-68.6-6.2-57.9.5,20.6,12.9,36,23.9,60.4,45.2,16,13.9,31.8,33.4,42.6,48.9-26-24.6-53.5-45.7-71.1-58-11.8-8.2-43-22.2-57.2-20.1-30.3,4.6-74.1,41.9-70.2,56.5,29.4-20.5,95.3-12.7,133.4,5.1,20.9,9.7,41.8,24.7,60.3,41.7-47.9-29.5-94.8-43.1-124.1-45.5-35.6-2.9-58.7,4.7-84.9,27.1-26.5,22.6-28.8,45.7-23,57.2,6.4,12.9,15.3-30.9,85.8-40.6,9.1-1.2,58.1.8,106,12.7-1.4-.3-2.7-.6-3.9-.9-20.8-4.2-113.2,6-134.2,9-15.9,2.3-53.8,56.7-42.7,87,2,5.4,8.9,7,13.1,3,13.5-13,43.4-41.1,65.8-55.4,12.9-8.2,37.9-12,76.7-14.2,18.1-1,40.7,1,65.9,6.8-15.6-.5-31.5.9-47.9,3.5-18.1,2.9-79.3,5.4-97.3,22.1-17.9,16.7-45.9,110.3-31.9,117.7,19.8,10.6,84.1-82.4,112.7-90.8,6.7-2,43.4-13.7,77.6-22.3-51.5,27.5-84.8,50.9-85.9,63-2,23.8-17.7,81-.8,108.5,12.7,20.7,67.8-78.9,103-136.5-20.4,74.1-14.9,162.6-1.4,161.6,14.2-1.1,54.3-62.3,60.9-74.1,10.4-18.5-1-56.4-9.2-89.7,15.1,20.7,29.6,41.4,35.7,52.6,14.2,26.1,12.9,43,17.1,67.6,3.3,19.5,8.9,54.6,23.6,67.8,36.8-23.4,49.3-48.9,49.1-75.6-.1-20.4-5.4-40.7-18-56.7-5.3-6.8-53.2-53.1-84.8-82.1,18.7,10.5,38.5,23.8,52.9,34.3,21.7,15.8,54.1,44.2,61.4,72.3,12.4,47.9-6.5,87,9.3,88.7,15.4-5.7,32.2-37.5,37.6-56,4.6-15.7-2.5-54.1-14.5-75.4-14.5-25.7-43.8-56-70-69.6-15.3-8-50.3-15.3-82.2-18,23.8-4.3,52.4-1.9,78.6,6.7,23.3,7.7,48.1,29.6,61.1,44.9,19.9,23.6,25.8,40.8,37.7,52.2,8.9-7.1,8.2-33.9,1.6-49.7ZM529.6,53.7c-12.7-2.3-48.1,8.4-49.2,4-.6-2.3,30.8-13.1,44.2-12.3,13.1.8,60.8,28.4,60.3,35.3-.1,1.7-37.3-23.7-55.4-27ZM545.8,115.5c-10.5-1.9-40.2-7.5-50.7-7.8-11.7-.3-36.1,9.6-47.5,12.9-6.6,1.9-17.7,4.2-16.1,1.2,5-9.2,47.1-21.9,59-21.9,12.5,0,66.7,11.2,76.2,17.3.7.4-7.8.6-20.9-1.7ZM469.8,167.1c-11.2,5.4-34.7,34.9-38.4,32.5-3.1-2,15.2-37.3,32.6-39.8,20.9-3,85-10.4,85-4s-66.4,5.2-79.1,11.3ZM592.5,147.1c1.3.3,2.7.7,4.2,1.1,10.5,2.8,20.9,6.1,30.8,10-11.5-4.2-22.4-7.7-30.8-10-1.4-.4-2.8-.8-4.2-1.1ZM561,202.2c-26.4,4.8-46.4,6.8-53.9,16-17.2,20.9-30,53.1-33.9,51.5-3.5-1.4,14.6-42.3,24.8-55,15.4-19.1,101.3-23.5,102.2-20.8,1,3.1-12.8,3.5-39.3,8.3ZM595.5,271c-7.5,14.1-22,66.4-25.1,66.4-4.5.4,8.5-50.2,15.6-68,5.3-13.3,40.7-40.8,45.7-38.9,3.5,1.3-22.9,15.6-36.2,40.6ZM662.6,91.5c-4.5.4-26.4-29.6-36.4-40.1-9.8-10.3-25.3-19.6-25-23.3.2-2.1,24.7,9.3,36.6,23.3,9.2,10.8,28,39.8,24.8,40ZM695.9,314.8c-3.5,15-19.5,59.3-24.5,58.2-5.6-1.2,10.1-42.3,18.2-78.1,3.4-15,3-45.3,5-45.3s7.1,39.9,1.3,65.2ZM715.8,139.2c-4.1-1.7,21.9-24.4,36.2-27.6,15.8-3.5,35,4,38.1,6.4,2.5,2.9-21.7-4.6-34.3,1.3-17,8-36.9,21.2-40,20ZM817.2,355.1c-.7,9.5-3.7,42.9-12.1,42.9-5.1,0,2.2-39.6,2.5-51.9.8-25.8-37.4-64.5-38.2-69.1-.8-5,50.1,44.4,47.7,78ZM845.8,255.7c3.3-2,24.9,25.1,31.6,38.2,10.7,20.9,10.7,45.6,10.3,52.8-.4,7.2-9.9,33.7-13.2,31.4-.9-.6,4.7-25.7,5.5-34.4,1.1-12.8.4-26.1-9.7-45-7.3-13.6-26.6-41.8-24.5-43.1ZM884.4,227.5c-1.7,2.4-27.8-27.4-45.9-33.8-12.7-4.5-32.2-11.2-50.1-14.1,17.9-.4,38.1,4.4,53.4,8.8,16.7,4.7,45.3,35.3,42.6,39.1Z"/>
    </g>
  </g>
</svg>