<?xml version="1.0" encoding="UTF-8"?>
<svg id="Layer_1" xmlns="http://www.w3.org/2000/svg" version="1.1" viewBox="0 0 1000 1000">
  <!-- Generator: Adobe Illustrator 29.0.1, SVG Export Plug-In . SVG Version: 2.1.0 Build 192)  -->
  <defs>
    <style>
      .st0 {
        isolation: isolate;
      }

      .st1 {
        fill: #53522b;
      }
    </style>
  </defs>
  <g class="st0">
    <g>
      <g>
        <path class="st1" d="M650.7,274.6s68.6-13.4,107.9-29.7c51.4-21.4,94.1-64.1,87.9-71.9-3.6-4.4-28.7,19.8-74.9,53.3-35,25.4-116.6,44.1-116.6,44.1,0,0,3-75.7,9.3-112.6,5.5-32.2,28.9-111.3,18.8-111.2-5.8,0-19.8,68.4-27.5,107.8-6.8,34.9-10.7,115-10.7,115l5.8,5.3Z"/>
        <path class="st1" d="M890.2,247.3c-8.4-10.8-40.7,3.7-87.7,10.3-12.7,1.8-67.4,20.9-139.7,11.7,22.5-14.2,103.1-75,113.8-86.8,27-29.8,31.2-54.4,25.1-56.6-3.9-1.4-19.1,9.9-42.9,31.8-9,8.3-30.6,33.2-50.4,56.4-5.5,6.5-37.5,40.1-49.6,51.2,4.2-12.6,22-47.3,38.8-73.4,28-43.4,56.5-122.4,40-121.5-3.7.2-25.3,20.9-33.3,37.9-2.9,6.3-33.3,81.8-35.3,88.9-3.4,11.7-14,39.7-19.4,59.4-14.2-70.9-15.5-129.7-10.1-160.5,7.8-44.7,12.1-68.3-1.9-77-11.6-7.2-12.9,36-9.4,82.4,1.6,20.9,4.4,129.9,10.7,150.3-15.1-23.1-55.8-71.4-70.8-126.3-18.4-67.3-29.8-82.6-33.3-80.7-3.9,2.1-5.9,56,42.7,123.8,23.3,32.6,45.1,89.3,70.2,105.3,27.6,17.6,103.2,10.1,123,9,82.6-3.4,119.6-35.7,119.6-35.7Z"/>
        <path class="st1" d="M733.5,316.1c32.7,13.5,103.6,29.1,127.2,24.9,10.2-1.8,15.7-3.7,18.2-8.4,3.7-7-73.3,7.7-134.6-17.9-52.8-22-90.2-42.4-95.8-43.2-15.3-2.3,46.6,28.7,85.1,44.6Z"/>
        <path class="st1" d="M569.7,39.8c-1,1.2-1.2,4.8-1.3,6.8-.3,12.3,2.5,21.2,13,54,4.7,14.7,17.6,55,23.9,71.1,11,28.2,33.2,92.7,38.8,94.9,5.5,2.1-8.9-28.8-19.5-62.1-7.3-22.9-14.9-46.3-16.5-53.7-5.4-24-20.6-83.7-26.2-97.2-5.4-8.3-10.6-15.8-12.3-13.7Z"/>
      </g>
      <path class="st1" d="M472.3,182.9c-2.4-2.5-10.3,3.5-18.5,18-5.8,10.3-11.2,26.3-18.2,38.1-6.9,11.6-9,13.9-13.9,22.6-4.2,7.4-12.5,19.3-15.4,23.7-6.3,9.6-12.5,13.7-17.1,17.9,6.2-13.3,18-39,23.3-51.8,7.3-17.8,29.9-105.8,20.1-111.5-3.1-1.8-12.6,27.2-22.5,61.5-3.3,11.4-3.4,32-6.6,43.6-10.2,37.1-22,62.3-22,62.3,3.6-20,8-43.8,8.2-47.6.8-22.3,12.7-134.6-5.2-138.7-15-3.4-8.5,19.8-7.9,25.9,2.1,19.5,2.1,69,2,99.1,0,20.7-4.4,47.9-2.5,63.9-7.5-11.2-64.1-82.7-87.9-99-45.5-31.2-61.6-52.3-66.3-48.5-4.9,4,33.4,41.4,55.9,60.8,19.5,16.8,77.1,76.2,95.1,90.8,0,0-26.6-6-61.5-21.7-30.2-13.6-117.6-65.4-117.5-59.4,0,5.6,61.1,42.3,115.4,66.4,8.9,3.9,51.4,16.1,59.5,16.8-21.6-1.9-71.8-9-88.3-13.1-38.3-9.4-57.4-24-79.9-35.6-27.1-14-52-29.2-54-22-2.4,8.4,18.1,25.9,30.3,35.3,16.1,12.3,60.7,26.7,106.3,34.5,39.5,6.7,84.3,4,84.3,4-23.6,13-59.6,16.2-92.5,23.7-22.9,5.2-83.4.9-81.9,9.8,1,6,20.7,12.8,39.8,10.6,29.5-3.4,67.7-11.3,89.2-18.7,15-5.1,43.7-19.1,58-25.3,12.9-6.9,20.2-15.7,32.5-30.1,7.1-8.3,14.7-17.8,21-26.5,8-11.1,14.4-20.7,16.6-24.3,20.8-34.2,22.9-54.9,22.2-55.7Z"/>
      <path class="st1" d="M378.6,314.2c-1.3-9.8-8-49.1-11.6-65.9-4.1-19.1-9.7-37.8-13.3-57-3.2-17.3-18.3-61.3-25.3-64.3-2.4-1-4.8-.4-6.4.9-2.5.3.7,12.8,1.3,16,4.1,21,10.6,31.5,19.7,63.8,4.2,14.8,12.2,34.5,15.8,49.4,2.8,11.4,10.4,36.8,15.4,49.8,1.9,5,5.2,13.1,4.4,7.4Z"/>
      <path class="st1" d="M278.7,147.4c2.7,10.1,5.6,17,9.2,24.1,2.8,5.4,6.1,10.3,10.4,17.7,3.4,5.8,8.5,14.9,14.3,22.7,7.4,10,17.2,20.2,24.4,30.2,7.5,10.5,35.6,73.1,40.1,71.8,3.8-1.1-19.8-42.4-23.5-52.8-4.1-11.6-14.1-24.8-21.4-34.3-8.1-10.4-10.3-14.9-16.2-26.7-5.5-11.1-24-48.7-32-55.8-2.9-2.7-6.4-.9-5.4,2.9Z"/>
      <path class="st1" d="M195,198c7.5,8.8,13.7,14.1,20.8,19.5,5.4,4.1,11.1,7.3,19,12.6,6.2,4.2,15.7,10.7,25.3,15.6,12.3,6.3,27,11.7,39.1,18.2,12.6,6.8,70.7,55.5,74.7,52,3.3-2.9-40.2-32.6-48.8-41.2-9.6-9.5-26-17.8-38-23.7-13.1-6.5-17.5-9.8-29.1-18.7-10.9-8.3-47.4-36.7-58.9-40-4.2-1.2-7,2.2-4.1,5.5Z"/>
      <g>
        <path class="st1" d="M676,380.4c-6.5,7.1-9.6,21.2-16.1,28.3-8.6,18.9-60.4,28.6-64.5,31.6,10.4-21.9,28.2-55.6,38.1-83.2,4-11.2,5.3-35.1,4.3-35.1-1.5,0-5.3,4.2-8.5,8.5-4.6,6.2-12.2,19.7-20,38-6.8,15.8-16.2,55.5-24.1,70.6-16.9,6.4-31.7,19-40.3,22.4-3,1.2-6.2,2.3-9.3,3.4,19.3-12.8,46.2-40.7,58.1-85.6,6.3-23.9,21-54.3,20.5-57.1-.8-5.3-8.3-6.8-9.8-6.1-2.8,1-6.5,28.9-17.6,65-11.3,36.6-29.8,56.6-33.2,62.9-1.3,2.7-13.2,10.8-22.7,17.8,11-16.9,22.2-52.7,39.7-96.5,8.2-20.6,14.5-47.6,14.1-50.3-.8-5.3-8.3-2.5-9.8-1.9-2.8,1-13.5,18.5-20.2,57.3-6.4,37.3-19.5,71.4-22.9,77.7-1.4,2.9-6.8,10-10.2,15.9,4-23.3,8.4-84.1,8.2-106.3-.2-24.3-5.4-63.3-6.3-65.8-.2-.7-4.6-3.2-5.9-2.2-4.8,3.7-5.3,145.2-2.8,159.1.4,2,.9,6.1,1.6,10.4-2.3-4.5-4.8-9-5.9-11.1-3.4-6.3-18-48.4-24.4-85.8-6.7-38.8-13.4-51.9-15.8-53.4-4.6-2.9-8.8,4.6-8.7,17.4,0,2.8,7.7,16.8,15.9,37.4,16,40.1,22.5,74.4,29.9,93.2-8.3-8.5-17.9-17.3-19.2-20-3.4-6.3-11.1-18.6-28.6-53.7-18.5-34.8-22-65.8-24.8-66.8-1.5-.6-9,.8-9.8,6.1-.4,2.8,9.5,30.4,20.9,53.2,8.1,22.9,45.3,75.7,65.5,92.4-3.1-1.1-6.8-2.3-10.8-3.9-8.6-3.4-36.2-39-44.3-46.8-7.9-15.1-19.6-32.7-26.3-48.5-7.8-18.3-15.4-31.8-20-38-3.2-4.3-6.9-8.5-8.5-8.5-1,0,.3,23.9,4.3,35.1,9.9,27.5,60.5,84.8,83.6,104.5-.9-.7-6.4-2.7-14.5-5.7-6.8-6.1-27.3-23.5-56.2-51.5-31.2-28.8-46.6-57.5-49.7-57.8-1.7-.2-8.2,2.9-7,8.2.7,2.8,21,26.7,40.7,45.8,10.7,12.8,34.1,34.4,59,50.5-30.7-11.5-76.5-29.6-82.3-42.3-6.5-7.1-9.6-21.2-16.1-28.3-6.3-6.9-23.7-23.7-23.9-17.8-.6,15,29.2,43.4,37.7,60.1.3.5,64.5,27.1,101.6,40.2,5.6,2,11.1,3.6,16.2,5,5.9,2,11.5,3.4,16.8,3.8,3.5.6,6.1.9,7.1,1,0,0,0,0,0,0,0,0,0,0,0,0,.3,0,.5,0,.6,0,0,0,0,0,0,0,0,0,0,0,0,0,0,0,.1,0,.2,0,0,0,.1,0,.2,0,.5.6,20.1-2.4,40.7-9.7,37.2-13.1,101.3-39.7,101.6-40.2,8.5-16.7,38.2-45.1,37.7-60.1-.2-5.8-17.6,10.9-23.9,17.8Z"/>
        <path class="st1" d="M927.8,519.1c-6.7.3-64.3,1.6-71.1,2.2-25.5,2.2-48.7-7.3-73.2-8.2,13.9-6.6,36-18.9,53.2-26.7,11.5-5.2,29-9.4,47.3-14.3,23.7-6.3,37.9-8.4,47.4-13.4,6.7-3.5,20.7-13.3,17.4-17.8-3.1-4.2-13.1-.7-53.6,11.9-39.4,12.2-96.3,46-113.4,55.2,20.6-23.4,40.7-40.7,55.4-52.9,21.9-18.2,46.9-26.4,60-32.8,6.6-3.2,23.4-10.3,20.8-15.5-2.5-5-17.6-.4-18.3-.2-2.4.6-14.2,4.2-27.3,9.5-10.4,4.3-21.7,15.6-35.7,28.2-18.5,16.7-35.1,33.8-51.6,52.2,9.9-27.5,23.7-59,36.2-75.3,16.4-21.5,40.5-68.2,36.9-69.4-12.5-4.3-34.8,34.3-41.9,59.6-4.6,16.4-36.9,79.1-44.2,95.3-1.8-7.4-10.8-74.6,3.5-99.9,19.6-34.7,16.5-67.6,8.6-64.9-9.5,3.2-18.1,52.8-23,81.2-3,17.2-.4,50.4,3.2,73.1-12.2-33.1-20.8-59-25.6-86.3-2.6-15-2.8-41.5-6-56.8-1.6-7.7-4.6-26.7-10.1-26.4-5.3.3-4.1,16.8-4.1,17.5,0,2.5.9,15.4,3.1,30.2,1.8,11.8,6.2,24.9,10,37.3,9.5,31.1,19.1,72.1,35.9,101,1.1,4.2,2.1,6.8,3,7.3,2.4,4.7,8.7,13.7,18.8,27,22.3,29.7,60.1,61.3,60.1,61.3,0,0,19.1,26.1,53.3,35,10.9,2.8,43.2,5.2,44.4,1.2,1.8-5.9-85.1-37.6-92.4-41.2-11-5.5-33-29.2-51.8-50.4,22.1,18.8,50.2,39.2,67.9,46.9,26.2,11.4,59.9,26.2,92.5,22,7.5-1,12-.6,13.7-3.8,2.6-4.8-90.1-24.6-117.1-35.9-16.8-7.1-40.9-27.3-59.9-43.6,20.4,13.6,46.1,29.3,59.1,34.5,3.6,1.4,66.2,14.7,82.4,14.1,16.1-.6,33.5-8.3,35.6-13.5,1.5-3.8-27.3-3.9-40.4-2.7-11.5,1-55.8,2.6-73.1-4.5-8.3-3.4-56.2-35.3-79.9-46.9,27.8,7.8,40.5,5.4,70.5,9.2,25.2,3.1,71.3,2.8,73.8,1.9,1.3-.4,50.6,1.4,53.9-7.3,1.8-4.9-15.8-5.8-54.3-4.3Z"/>
      </g>
      <path class="st1" d="M361.7,430c-9-3.9-40.8,46.2-51,60.2-16.9,23.1-78.5,56.1-78.5,56.1,0,0,36.9-34.4,53.1-57.8,33.2-47.8,51.5-122.5,45.2-127.1-9.2-6.8-30.6,90.9-47.3,119.1-11.6,19.6-48.7,51.2-65.1,64.8,2.9-5.8,6.1-14.2,9.6-23.6,4.4-11.9,29.4-50.1,29.8-51.2,12.1-37.1,17-61.1,9.3-97.9-.7-3.1-8.2-7.7-9-6.9-2.8,3.1,2.4,70.9-13.4,107.9-.9,7.2-20.8,35.3-23.7,44.6-3.5,11-7.1,23.1-8.5,30-.1-.3-.2-.6-.4-.9-1.6-18-7-67.6-5.8-72.2,5.8-22.6,12.3-43.5,11.3-64.5,1.1-16.7-4-36.8-5.8-37.5-7.7-3.1-14.1,8-15,9.3-15.4,21.4,0,49.2-2.1,63.5-3.5,24.8,3.4,38.7,3.3,41.1,0,1,7.1,36.2,11.7,56-9-16.1-31.2-47.1-43.7-67.2-10-16.2-50.2-78.6-52.9-80-.7-.4-7.4-1.1-4.2,9.9,1.7,5.6,18,40.8,43,69.1,14.9,16.8,35.2,48.9,51.6,70.4-17.9-16.7-65.5-54.7-75.6-65.6-25-27.1-57.1-60.5-57.1-60.5,0,0-.3-1-3.7,2.1-5,4.6,13,21.2,18.5,27.9,8.9,11,21.7,21.5,42,42.1,8,8.1,46.6,38.7,68.2,53.7-21.8-9-56.1-21.8-66.5-28.3-31.2-19.6-51-38.7-63.1-48.3-8.7-6.9-22-7.8-24.5-3.9-3.7,5.8,11.8,19.4,18.9,24.5,11.5,8.2,44.8,23.1,69.3,33.8,10.8,4.7,52.4,22.4,72.9,29.3l-10.6-1.8s-37-1-72-10.3c-20.8-5.5-57.2-20.3-74.3-23.2-18-3.1-26.4,3.2-23.3,9.5,11.3,22.5,96.5,23.4,96.5,23.4,28.3,2.2,64.4,8.4,84,6.7-8.5,2.4-22.1,5.8-38.2,8.3-34.5,5.3-61.2,2.8-73.9,3.3-33.6,1.4-73.7,3.2-73,5.2,5.2,15.4,50.3,10.3,63.4,12.5,19.8,3.3,76.2-11.9,117.8-23-6.4,5.1-55.4,40-55.4,40,0,0-35.3,20.7-48.9,28.7-13.2,7.8-46.3,29.2-37.5,30.2,22.5,2.5,59.2-32,86.5-46,15.8-8.2,61.7-49.1,68.1-59.9,2.6.4,11.5.4,34.5-8.5,28.1-10.9,44-34,67.9-48.2,21.3-12.6,56.1-64.9,47.6-68.5Z"/>
      <path class="st1" d="M383.8,311.6s52.9,61.4,71.9,132.9c12.3,46.3,71.1,555.5,71.1,555.5h-26.4s-40.5-513.6-51.1-552.3c-17.5-63.4-75.1-129.9-75.1-129.9l9.6-6.2Z"/>
      <path class="st1" d="M646.7,261.3s-82.2,93.3-109.2,194.6c-6.8,25.4-9.3,544.1-9.3,544.1h17s-10-506.5,1.6-544.9c30.9-101.8,105.4-188.5,105.4-188.5l-5.4-5.3Z"/>
      <path class="st1" d="M514.9,470.3c-7.4,67.2-16,529.7-16,529.7h12.3s-.3-456.7,10.4-529.7c-3,0-3.7-.4-6.7,0Z"/>
      <path class="st1" d="M771.3,510.3s-149.1,119.3-156.4,151.1c-7.3,31.7-77.3,338.7-77.3,338.7h17.5s55.3-281.5,67.5-329.4c12.3-47.8,153.3-149.2,153.3-149.2l-4.6-11.2Z"/>
      <path class="st1" d="M203.7,548.4s82.8,32,142.4,73.6c21.6,15,137.7,378,137.7,378h23.7s-121.6-330.7-142.9-364.7c-27.6-44.4-119.2-73.9-154.6-86.5-5.9-2.1-6.4-.3-6.4-.3Z"/>
    </g>
  </g>
</svg>