<?xml version="1.0" encoding="UTF-8"?>
<svg id="Layer_1" xmlns="http://www.w3.org/2000/svg" version="1.1" viewBox="0 0 1000 1000">
  <!-- Generator: Adobe Illustrator 29.0.1, SVG Export Plug-In . SVG Version: 2.1.0 Build 192)  -->
  <defs>
    <style>
      .st0 {
        fill: #4e1a48;
      }

      .st1 {
        fill: #c9aaca;
      }
    </style>
  </defs>
  <g>
    <path class="st0" d="M225.3,402.1l2,13.8c95.6,71.7,245.4,352.5,253.9,584.1h44.1c-35.1-175.1-141.3-483.2-299.9-597.9Z"/>
    <path class="st1" d="M404.4,363.6c27.4.1,56.4.1,69.5-.1,15.1-.3,48.4-2.9,48.1-8.8-.4-8.7-62-23.3-90.7-25.3-17.3-1.2-49-1.3-78.2,6.8-7.1,2-19.7,7.7-32.6,14,9.7-8,17.7-14.3,20.4-16.2,15.1-10.3,30.7-20.5,39.9-29.2,17.7-16.6,38.7-38,34-43-6.9-7.3-39.3-.7-47.7,1.6-7.6,2.1-44.6,16-69,44.9-11.8,14-25.1,37.4-36.5,59.6l.8-35.6c5.4-20,34.6-47.9,33.7-56-.9-8.3-27.5-2.7-32.7-.9-18.3,6.3-35.2,17.9-35.2,17.9,0,0-19.6-3-26.2-.6-7.7,2.8-24.2,13.5-23.2,23.4.9,8.8,24.2,17.2,34.8,30.8l19.4,42.9c-17.2-16.9-39.2-35.2-58.9-44.2-9.4-8.3-20-16.7-25.5-17.2-12-1-36.9,13.9-36.9,13.9,0,0-21.5-.5-28.1,1.9-16.3,5.8-29.4,19.6-29.4,19.6-6.4,7.2-8.7,27.1-4.5,30,0,0,102.2-26.4,126.1-17.4,0,0,39.2,18.8,59.6,33.2-23.5-9.3-66.8-24.6-96.1-24.5-13.2,0-33.1,4.3-48.7,11.5-17.1,7.9-39.8,21.2-56.8,42.8-23.5,29.8-27.2,60-18.2,67.9,2.9,2.5,56.9-50,98.7-69.9,27.6-13.2,45.5-15.5,94.5-15.9,0,0,0,0,0,0-15.5,2-61.3,9.5-71.1,13.1-19.2,7.2-61.1,35.3-67.5,42.8-6.6,7.8-28.3,24.4-38.3,54-3.9,11.3-5.7,83.6,9.8,94.9,6.5,4.7,23.3-53,30-68.3,8-18.2,39.9-61,45.3-68.2,6.1-8.1,33.3-28.1,41.9-32.7,4.1-2.2,11.5-5.6,19.3-9-18.8,12.8-43.7,30.5-51.3,40.9-6,8.3-46.2,74.2-49.4,84.8-2.9,9.8-.9,107.4,23.5,104.2,22.5-3,28.1-76.3,30.3-85.4,2.8-11.3,27.9-101.5,33.9-111.7,2.4-4.1,11-10.8,21.2-17.8-4.4,4.8-8.2,9.7-11.1,14.5-20.8,33.9-22,98.7-18.7,128.5,1.1,10.4,14.3,69.7,36.5,67.2,10.1-1.1,15.5-39.2,19.7-102.3,1.6-24.5,3.8-65.4,12.2-88.4,3.7-10.1,7-18.6,10.1-25.9.5,3.8,1.1,7.2,1.5,10.1,1.9,11.2,18.2,88.2,27.5,103.5,27.6,45.3,59.4,64.7,79.8,57.3,8.9-5.1,17.7-40.2,9.9-79.8-3.8-18.9-39.5-74.7-50.8-90.7,23.1,16.7,47.3,40.1,52.3,44.9,10.4,9.9,24.3,22.1,38.5,34.5,29.6,25.9,51.1,34.2,64,30.7,6.3-1.7,5.7-10.7,3.6-24.6-4-25.8-14.7-50.7-36.1-70.6-22.5-21-52.5-38.6-82.8-49-13.3-4.5-27-8-40.4-9.9,7.9-.8,36-.3,71,6.4,20,3.9,52.4,11.9,73.9,16.9,10.5,2.5,67.5,10.7,66.1-2.8-.9-8.7-30.5-31.5-78.6-47.8-18.1-6.1-57.8-11.4-71.3-10.5-22.5,1.5-43,6.6-60.1,12.6,7.9-5.9,14.6-10.3,18.3-11.7,24.8-9.9,58.7-12.6,83.3-12.5Z"/>
    <path class="st0" d="M404.4,363.6c27.4.1,56.4.1,69.5-.1,15.1-.3,48.4-2.9,48.1-8.8-.4-8.7-62-23.3-90.7-25.3-17.3-1.2-49-1.3-78.2,6.8-7.1,2-19.7,7.7-32.6,14,9.7-8,17.7-14.3,20.4-16.2,15.1-10.3,30.7-20.5,39.9-29.2,17.7-16.6,38.7-38,34-43-6.9-7.3-39.3-.7-47.7,1.6-7.6,2.1-44.6,16-69,44.9-11.8,14-25.1,37.4-36.5,59.6l.8-35.6c5.4-20,34.6-47.9,33.7-56-.9-8.3-27.5-2.7-32.7-.9-18.3,6.3-35.2,17.9-35.2,17.9,0,0-19.6-3-26.2-.6-7.7,2.8-24.2,13.5-23.2,23.4.9,8.8,24.2,17.2,34.8,30.8l19.4,42.9c-17.2-16.9-39.2-35.2-58.9-44.2-9.4-8.3-20-16.7-25.5-17.2-12-1-36.9,13.9-36.9,13.9,0,0-21.5-.5-28.1,1.9-16.3,5.8-29.4,19.6-29.4,19.6-6.4,7.2-8.7,27.1-4.5,30,0,0,102.2-26.4,126.1-17.4,0,0,39.2,18.8,59.6,33.2-23.5-9.3-66.8-24.6-96.1-24.5-13.2,0-33.1,4.3-48.7,11.5-17.1,7.9-39.8,21.2-56.8,42.8-23.5,29.8-27.2,60-18.2,67.9,2.9,2.5,56.9-50,98.7-69.9,27.6-13.2,45.5-15.5,94.5-15.9,0,0,0,0,0,0-15.5,2-61.3,9.5-71.1,13.1-19.2,7.2-61.1,35.3-67.5,42.8-6.6,7.8-28.3,24.4-38.3,54-3.9,11.3-5.7,83.6,9.8,94.9,6.5,4.7,23.3-53,30-68.3,8-18.2,39.9-61,45.3-68.2,6.1-8.1,33.3-28.1,41.9-32.7,4.1-2.2,11.5-5.6,19.3-9-18.8,12.8-43.7,30.5-51.3,40.9-6,8.3-46.2,74.2-49.4,84.8-2.9,9.8-.9,107.4,23.5,104.2,22.5-3,28.1-76.3,30.3-85.4,2.8-11.3,27.9-101.5,33.9-111.7,2.4-4.1,11-10.8,21.2-17.8-4.4,4.8-8.2,9.7-11.1,14.5-20.8,33.9-22,98.7-18.7,128.5,1.1,10.4,14.3,69.7,36.5,67.2,10.1-1.1,15.5-39.2,19.7-102.3,1.6-24.5,3.8-65.4,12.2-88.4,3.7-10.1,7-18.6,10.1-25.9.5,3.8,1.1,7.2,1.5,10.1,1.9,11.2,18.2,88.2,27.5,103.5,27.6,45.3,59.4,64.7,79.8,57.3,8.9-5.1,17.7-40.2,9.9-79.8-3.8-18.9-39.5-74.7-50.8-90.7,23.1,16.7,47.3,40.1,52.3,44.9,10.4,9.9,24.3,22.1,38.5,34.5,29.6,25.9,51.1,34.2,64,30.7,6.3-1.7,5.7-10.7,3.6-24.6-4-25.8-14.7-50.7-36.1-70.6-22.5-21-52.5-38.6-82.8-49-13.3-4.5-27-8-40.4-9.9,7.9-.8,36-.3,71,6.4,20,3.9,52.4,11.9,73.9,16.9,10.5,2.5,67.5,10.7,66.1-2.8-.9-8.7-30.5-31.5-78.6-47.8-18.1-6.1-57.8-11.4-71.3-10.5-22.5,1.5-43,6.6-60.1,12.6,7.9-5.9,14.6-10.3,18.3-11.7,24.8-9.9,58.7-12.6,83.3-12.5ZM370.5,342.4c31.9-6.4,63.2-9,94.2-2.3,7.6,1.7,7.8,6.1-36.9,5.2-16.5-.3-42-.2-55.4,0-7.6.1-15.4-.2-2-2.9ZM144.5,347c-4.4-1.2-25.8-3.5-25.1-3.9,7-4.5,17.4-5.8,25.4-3.3,5.2,1.6,22.1,10,24,13.2.3.5-16.3-3.7-24.2-6ZM78.4,419.9c-23.7,17.1-40.7,34.7-41.7,32.4-1.7-3.9,11.1-23.2,36.8-38.1,24.9-14.4,41.1-18.1,57.1-19.2,5.5-.4-34,11.8-52.3,25ZM124.6,452.3c-3.4,2.6-51.7,45.7-62.5,65.6-19.6,36-16.8,10.4-6.2-6.5,12.7-20.1,23.6-31.2,42.5-45,16.3-11.9,29.5-16.6,26.2-14.1ZM107.9,577.5c-4.8,40.7-.3,66.4-5,65.9-3.6-.4-9.5-51.3-4.1-70.4,6.3-22.6,18-40.6,24.5-50.9-4.8,24.1-12.9,34.3-15.4,55.5ZM221.2,301.4c.8-1.9,5.2.4,8.6-1,2.3-.9,5.6-4.5,7.7-6,.4-.3,1.1,0,1.2.5.3,7.2-1.2,34.5-2.9,40.9-.2.6-.9.8-1.3.3-2.2-2.8-14.3-32.4-13.2-34.8ZM184.6,543.6c-1.8,18.1-2.7,40.4-2.7,58.5,0,7,.1,47-.7,45.4-2.8-5.4-9.4-26.6-9.1-48.4.3-19.5,2.5-38.8,5.2-58.1,2.6-18.4,7.3-36.1,12.4-53.9,4.5-15.6-3.3,38.9-5.1,56.4ZM313.9,521.8c14.4,34.7,25.2,68.5,19.9,69.7-3.8.9-14.5-29.9-28.8-64-19.2-46-23.8-51.2-22.3-53.3,2.6-3.6,20.4,21.2,31.3,47.6ZM345,440.4c24.5,8.7,50.6,25.8,69.7,41.4,12.4,10.2,30.2,42.5,25.6,45.6-2.3,1.6-4.6-.9-33.3-32.1-15-16.3-64.6-47.4-70.4-51-4.2-2.6-6.7-9.2,8.4-3.9ZM361,385.6c40.5-1.3,107.3,22.2,111.5,28.1,5.7,8.1-32.4-5.3-60-14.3-12.4-4-60.1-9.3-66.8-12.7,5.1-.6,10.2-1,15.3-1.2ZM295.3,339.5c-3,.2,12.2-25.2,21.2-35.5,8.9-10.1,35-28.3,59.7-34.6,0,0-32.7,23.7-49,36.7-12.9,10.3-27.8,33.2-31.9,33.4Z"/>
  </g>
  <g>
    <path class="st0" d="M795.1,597.7l-2.4,8.4c-82.4,37.2-214.1,199.5-234.6,342.9h-44.1c39-106.2,144.6-292.4,281.1-351.3Z"/>
    <g>
      <path class="st1" d="M667.9,486.7c-25.1-11-51.6-22.7-63.5-28.2-13.7-6.4-43.1-22.2-40.5-27.5,3.9-7.8,66.2,3.7,93.2,13.5,16.3,5.9,45.4,18.6,68.8,37.8,5.7,4.7,14.9,15,24.2,25.9-5.6-11.2-10.4-20.3-12.1-23.1-9.6-15.6-19.8-31.2-24.7-42.8-9.5-22.3-20.1-50.3-13.7-53.1,9.2-3.9,36.3,15.3,43,20.8,6.1,5,34.3,32.6,45,69,5.2,17.6,7.9,44.4,9.3,69.2l13.7-32.9c3.2-20.5-12.3-57.8-8.2-64.9,4.2-7.3,26.3,8.6,30.3,12.4,14.2,13.1,25,30.6,25,30.6,0,0,19.1,5.1,24.2,10,5.9,5.7,16.7,22.1,11.8,30.7-4.4,7.7-29.1,5.9-44.3,14.2l-35.1,31.4c22.6-8.5,50-16.4,71.8-16.7,11.9-3.8,25.1-7.2,30.3-5.4,11.4,3.9,28.1,27.6,28.1,27.6,0,0,19.8,8.2,25,13.1,12.6,11.9,19,29.8,19,29.8,2.9,9.2-3,28.3-7.9,29.2,0,0-82.9-65.4-108.3-66.8,0,0-43.5,1.4-68,6.3,25.2,1,71.1,4.4,97.8,16.4,12.1,5.4,28.5,17.3,39.9,30.2,12.5,14.1,27.9,35.5,34.7,62.1,9.4,36.8.7,65.8-10.7,69.4-3.6,1.1-31.8-68.7-62-103.8-19.9-23.2-35.4-32.6-80.1-52.7,0,0,0,0,0,0,13.3,8,52.2,33.4,59.7,40.7,14.7,14.3,41.7,56.9,44.5,66.4,2.9,9.8,16,33.7,13.3,64.9-1,11.9-28.6,78.8-47.3,82.9-7.8,1.7.1-57.9.2-74.6,0-19.9-11.9-71.9-13.9-80.7-2.3-9.8-19.2-39.2-25.1-46.8-2.8-3.7-8.3-9.8-14-16,12,19.3,27.7,45.6,30.3,58.2,2.2,10.1,12.3,86.5,10.9,97.6-1.3,10.1-42.6,98.6-63.6,85.8-19.3-11.8,5.1-81.1,6.7-90.4,2-11.5,15.5-104.2,14.1-115.9-.6-4.7-5.7-14.3-12.2-24.8,2.1,6.2,3.6,12.2,4.3,17.7,5.3,39.4-19.8,99.2-34.8,125.1-5.3,9.1-41.3,58-60.5,46.8-8.8-5.1,1.6-42.1,23.3-101.5,8.4-23.1,23-61.3,24.6-85.8.7-10.7,1.1-19.9,1.2-27.8-2,3.2-3.9,6.2-5.5,8.6-6.2,9.5-52.3,73.4-66.9,83.6-43.5,30.3-80.5,35.2-96.1,20.2-6.1-8.3,0-43.9,23.2-76.9,11.1-15.8,66.3-52.4,83.1-62.5-27.9,6-59.5,17.6-66,19.9-13.6,4.9-31.1,10.4-49.1,16-37.6,11.7-60.6,10.6-70.9,2.2-5-4.1-.9-12.2,6.6-23.9,14.1-22,33.9-40.4,61.5-50,29.1-10.1,63.6-14.1,95.5-11.4,14,1.2,28,3.6,41,7.2-6.9-4-32.8-14.8-67.5-22.8-19.9-4.5-52.8-10.3-74.4-14.3-10.6-2-66.1-17.5-59.3-29.2,4.4-7.6,40.7-16.5,91.2-12,19,1.7,57.5,12.9,69.5,19.2,20,10.5,36.6,23.4,49.8,35.8-4.8-8.6-9.2-15.3-12-18.1-18.7-19-48.6-35.3-71.1-45.1Z"/>
      <path class="st0" d="M739,531.7c2.8,2.8,7.1,9.5,12,18.1-13.2-12.4-29.8-25.3-49.8-35.8-12-6.3-50.5-17.5-69.5-19.2-50.5-4.5-86.8,4.4-91.2,12-6.8,11.8,48.7,27.3,59.3,29.2,21.6,4,54.5,9.8,74.4,14.3,34.8,8,60.6,18.8,67.5,22.8-13-3.6-27-6-41-7.2-31.9-2.8-66.4,1.3-95.5,11.4-27.6,9.6-47.4,28-61.5,50-7.5,11.8-11.7,19.8-6.6,23.9,10.3,8.4,33.4,9.5,70.9-2.2,18-5.6,35.6-11.1,49.1-16,6.5-2.3,38.1-14,66-19.9-16.8,10.1-72,46.7-83.1,62.5-23.2,33-29.3,68.7-23.2,76.9,15.6,14.9,52.6,10,96.1-20.2,14.7-10.2,60.7-74,66.9-83.6,1.6-2.4,3.5-5.4,5.5-8.6-.1,7.9-.5,17.1-1.2,27.8-1.6,24.4-16.1,62.7-24.6,85.8-21.7,59.4-32.1,96.4-23.3,101.5,19.3,11.2,55.3-37.7,60.5-46.8,15-25.9,40.1-85.7,34.8-125.1-.7-5.5-2.3-11.5-4.3-17.7,6.5,10.5,11.7,20.1,12.2,24.8,1.4,11.7-12.1,104.4-14.1,115.9-1.6,9.3-26.1,78.6-6.7,90.4,21,12.8,62.3-75.7,63.6-85.8,1.4-11-8.8-87.5-10.9-97.6-2.7-12.6-18.4-38.8-30.3-58.2,5.7,6.2,11.1,12.3,14,16,5.9,7.7,22.8,37,25.1,46.8,2,8.8,14,60.9,13.9,80.7,0,16.8-8,76.3-.2,74.6,18.7-4.1,46.3-70.9,47.3-82.9,2.7-31.2-10.3-55.1-13.3-64.9-2.8-9.5-29.8-52.1-44.5-66.4-7.5-7.3-46.4-32.7-59.7-40.7,0,0,0,0,0,0,44.7,20.1,60.2,29.5,80.1,52.7,30.2,35.1,58.4,104.9,62,103.8,11.4-3.6,20.1-32.6,10.7-69.4-6.8-26.6-22.2-48-34.7-62.1-11.4-12.9-27.8-24.8-39.9-30.2-26.8-12-72.6-15.4-97.8-16.4,24.5-4.9,68-6.3,68-6.3,25.5,1.4,108.3,66.8,108.3,66.8,4.9-1,10.9-20.1,7.9-29.2,0,0-6.4-17.9-19-29.8-5.1-4.8-25-13.1-25-13.1,0,0-16.7-23.7-28.1-27.6-5.2-1.8-18.4,1.6-30.3,5.4-21.7.2-49.2,8.2-71.8,16.7l35.1-31.4c15.2-8.3,39.9-6.5,44.3-14.2,4.9-8.7-5.8-25.1-11.8-30.7-5.1-4.9-24.2-10-24.2-10,0,0-10.8-17.5-25-30.6-4-3.7-26.1-19.6-30.3-12.4-4.1,7.1,11.4,44.4,8.2,64.9l-13.7,32.9c-1.4-24.9-4.2-51.7-9.3-69.2-10.7-36.4-38.9-64-45-69-6.7-5.5-33.8-24.7-43-20.8-6.4,2.7,4.2,30.7,13.7,53.1,4.9,11.6,15.1,27.3,24.7,42.8,1.7,2.8,6.5,11.9,12.1,23.1-9.2-11-18.5-21.3-24.2-25.9-23.4-19.2-52.5-31.9-68.8-37.8-27-9.8-89.3-21.3-93.2-13.5-2.6,5.3,26.8,21.1,40.5,27.5,11.9,5.5,38.4,17.2,63.5,28.2,22.5,9.8,52.4,26.1,71.1,45.1ZM704.5,482.8c-12.2-5.6-35.5-16-50.7-22.3-41.2-17.2-39.3-21.2-31.6-19.7,31.1,6.4,58.7,21.4,85.3,40.2,11.2,7.9,3.9,5-3,1.9ZM887.8,572c3-2.2,21.8-3,27.3-2.4,8.3.9,17.3,6.3,21.9,13.3.5.7-20.1-5.9-24.6-6.6-8.1-1.2-25.1-4-24.6-4.3ZM905.6,625.8c14.2,7.5,27.6,17.5,44.5,40.7,17.6,24.1,21.4,46.8,18.3,49.8-1.8,1.7-10.3-21.2-25.1-46.4-11.4-19.4-42.6-46.6-37.7-44ZM906.3,704.2c11.7,20.3,17.3,34.8,20.7,58.4,2.9,19.7-4.9,44.3-8.3,3.5-1.9-22.6-28.6-81.5-30.7-85.3-2-3.6,8.1,6,18.3,23.5ZM861,745.1c1.8,12,5.2,33.2,1.9,56.4-2.8,19.7-28.7,63.9-32.2,62.8-4.5-1.5,10-23.1,22-62.3,6.2-20.4,2.9-33,8.3-57ZM834.4,530.1c-.6.3-1.2-.2-1.1-.8,1-6.5,10.7-32.1,13.9-38.6.2-.5,1-.5,1.3,0,1.2,2.2,2.8,6.9,4.6,8.6,2.6,2.6,7.5,2.3,7.5,4.3,0,2.6-23,24.8-26.1,26.5ZM814.3,686.4c-2.5,18.4-5.4,36.5-10.4,54.3-5.3,18.7-11.1,37.2-18.7,55.2-8.5,20.1-23.1,36.8-27.8,40.6-1.4,1.1,14.9-35.4,17.7-41.9,7.3-16.6,15.5-37.4,21.1-54.7,5.5-16.7,20.3-69.7,18.1-53.7ZM734.6,637c.5,2.4-5.8,5.4-42,39.7-26.9,25.5-49.1,49.2-52.2,46.9-4.3-3.2,19.2-29.8,46.4-55.7,20.6-19.7,46.9-35.3,47.8-30.9ZM697.2,587.8c-6.7.9-64.8,9.4-85,18.2-38.8,17-42,18.3-43.4,15.9-3-4.7,26.4-27.1,41.9-31.4,23.7-6.5,54.5-11.7,80.5-9.7,15.9,1.2,11,6.3,6.1,6.9ZM712.2,531.5c-7.5.4-53.3-14-66.2-15.3-28.9-3-69.2-6-60.7-11.2,6.2-3.7,76.8,1.7,113.3,19.3,4.6,2.2,9.1,4.6,13.6,7.3ZM761.7,465.2c-9.7-18.5-30-53.4-30-53.4,20.1,15.7,36.6,42.9,40.6,55.8,4.1,13.1,7.8,42.4,5.1,41-3.6-1.8-8-28.8-15.7-43.4Z"/>
    </g>
  </g>
  <g>
    <path class="st0" d="M539.9,1000c-9.9-291.5,26.6-640.7,158.4-805.2l-14.3-10.2c-124.6,169.4-168.8,539.1-172.7,815.4h28.7Z"/>
    <g>
      <path class="st0" d="M607.8,357.9l.2,3.2c0-1.1-.2-2.1-.2-3.2,0,0,0,0,0,0Z"/>
      <path class="st1" d="M909.6,244.7c-6.7-15.9-55-70.4-76.6-76-31.9-8.3-74.3-8.8-108.4-1.1,0,0,0,0,0,0,21.1-13.5,34.7-15.7,47.3-18,18.7-3.5,42.7,0,61.6,2.1,8.1-9-29.8-30.2-49.3-47.5-17-15.1-29.4-18.1-44.2-11.2-10.7,5-23.2,12.8-37.6,34.3-4.1,6.2-8,12.6-11.6,19-3-16.2-5.8-31.8-9.4-41.5-12.2-33.2-25.5-52-38.1-66.9-13.1-15.5-32.7-23.1-52.5-27.7-19.8-4.6-69-6.3-58.2.5,20.7,13,36.3,24,60.8,45.4,16.1,14,32,33.6,42.9,49.2-26.1-24.8-53.8-46-71.5-58.3-11.9-8.3-43.3-22.4-57.6-20.2-30.5,4.6-74.5,42.2-70.6,56.8,29.5-20.6,95.9-12.8,134.2,5.1,21,9.8,42.1,24.8,60.6,41.9-48.2-29.7-95.3-43.3-124.8-45.8-35.8-3-59,4.7-85.4,27.3-26.6,22.8-28.9,45.9-23.1,57.6,6.4,12.9,15.4-31.1,86.3-40.8,9.1-1.3,58.4.8,106.6,12.8-1.4-.4-2.8-.6-3.9-.9-20.9-4.2-113.9,6.1-135,9.1-16,2.3-54.1,57.1-42.9,87.5,2,5.5,9,7.1,13.2,3,13.6-13.1,43.7-41.4,66.2-55.7,13-8.3,38.1-12.1,77.1-14.3,18.3-1,40.9,1,66.3,6.9-15.7-.6-31.7.9-48.2,3.5-18.2,2.9-79.8,5.4-97.8,22.3-18,16.8-46.1,110.9-32.1,118.4,20,10.7,84.6-82.9,113.4-91.4,6.7-2,43.6-13.8,78.1-22.4-51.8,27.6-85.3,51.2-86.4,63.4-2,23.9-17.8,81.5-.8,109.2,12.7,20.8,68.2-79.4,103.6-137.3-20.5,74.5-15,163.5-1.4,162.5,14.3-1.1,54.6-62.7,61.2-74.6,10.4-18.6-1-56.8-9.3-90.2,15.2,20.9,29.8,41.6,35.9,52.9,14.2,26.3,13,43.3,17.2,68,3.3,19.6,9,55,23.8,68.2,37-23.5,49.6-49.2,49.4-76.1-.1-20.5-5.4-40.9-18.1-57.1-5.3-6.8-53.5-53.4-85.3-82.6,18.8,10.6,38.7,23.9,53.2,34.5,21.8,15.9,54.4,44.5,61.7,72.7,12.5,48.2-6.5,87.5,9.3,89.3,15.5-5.7,32.4-37.7,37.9-56.3,4.7-15.8-2.5-54.4-14.6-75.8-14.6-25.8-44.1-56.3-70.4-70-15.4-8-50.6-15.4-82.7-18.1,23.9-4.4,52.7-2,79,6.7,23.4,7.7,48.4,29.7,61.4,45.2,20,23.7,25.9,41,37.9,52.5,8.9-7.1,8.3-34.1,1.6-50Z"/>
      <path class="st0" d="M909.6,244.7c-6.7-15.9-55-70.4-76.6-76-31.9-8.3-74.3-8.8-108.4-1.1,0,0,0,0,0,0,21.1-13.5,34.7-15.7,47.3-18,18.7-3.5,42.7,0,61.6,2.1,8.1-9-29.8-30.2-49.3-47.5-17-15.1-29.4-18.1-44.2-11.2-10.7,5-23.2,12.8-37.6,34.3-4.1,6.2-8,12.6-11.6,19-3-16.2-5.8-31.8-9.4-41.5-12.2-33.2-25.5-52-38.1-66.9-13.1-15.5-32.7-23.1-52.5-27.7-19.8-4.6-69-6.3-58.2.5,20.7,13,36.3,24,60.8,45.4,16.1,14,32,33.6,42.9,49.2-26.1-24.8-53.8-46-71.5-58.3-11.9-8.3-43.3-22.4-57.6-20.2-30.5,4.6-74.5,42.2-70.6,56.8,29.5-20.6,95.9-12.8,134.2,5.1,21,9.8,42.1,24.8,60.6,41.9-48.2-29.7-95.3-43.3-124.8-45.8-35.8-3-59,4.7-85.4,27.3-26.6,22.8-28.9,45.9-23.1,57.6,6.4,12.9,15.4-31.1,86.3-40.8,9.1-1.3,58.4.8,106.6,12.8-1.4-.4-2.8-.6-3.9-.9-20.9-4.2-113.9,6.1-135,9.1-16,2.3-54.1,57.1-42.9,87.5,2,5.5,9,7.1,13.2,3,13.6-13.1,43.7-41.4,66.2-55.7,13-8.3,38.1-12.1,77.1-14.3,18.3-1,40.9,1,66.3,6.9-15.7-.6-31.7.9-48.2,3.5-18.2,2.9-79.8,5.4-97.8,22.3-18,16.8-46.1,110.9-32.1,118.4,20,10.7,84.6-82.9,113.4-91.4,6.7-2,43.6-13.8,78.1-22.4-51.8,27.6-85.3,51.2-86.4,63.4-2,23.9-17.8,81.5-.8,109.2,12.7,20.8,68.2-79.4,103.6-137.3-20.5,74.5-15,163.5-1.4,162.5,14.3-1.1,54.6-62.7,61.2-74.6,10.4-18.6-1-56.8-9.3-90.2,15.2,20.9,29.8,41.6,35.9,52.9,14.2,26.3,13,43.3,17.2,68,3.3,19.6,9,55,23.8,68.2,37-23.5,49.6-49.2,49.4-76.1-.1-20.5-5.4-40.9-18.1-57.1-5.3-6.8-53.5-53.4-85.3-82.6,18.8,10.6,38.7,23.9,53.2,34.5,21.8,15.9,54.4,44.5,61.7,72.7,12.5,48.2-6.5,87.5,9.3,89.3,15.5-5.7,32.4-37.7,37.9-56.3,4.7-15.8-2.5-54.4-14.6-75.8-14.6-25.8-44.1-56.3-70.4-70-15.4-8-50.6-15.4-82.7-18.1,23.9-4.4,52.7-2,79,6.7,23.4,7.7,48.4,29.7,61.4,45.2,20,23.7,25.9,41,37.9,52.5,8.9-7.1,8.3-34.1,1.6-50ZM529.7,48.1c-12.7-2.3-48.4,8.5-49.5,4.1-.6-2.3,31-13.2,44.5-12.4,13.2.8,61.2,28.6,60.7,35.5-.1,1.8-37.6-23.8-55.7-27.1ZM546.1,110.4c-10.6-1.9-40.5-7.6-51-7.8-11.8-.3-36.4,9.6-47.8,13-6.6,1.9-17.8,4.2-16.2,1.2,5.1-9.2,47.4-22,59.3-22.1,12.6,0,67.1,11.3,76.7,17.4.7.4-7.8.6-21.1-1.8ZM469.6,162.2c-11.3,5.4-34.9,35.1-38.6,32.6-3.1-2,15.2-37.5,32.8-40,21.1-3,85.5-10.5,85.5-4s-66.8,5.3-79.6,11.4ZM593,142.1c1.3.3,2.7.7,4.2,1.1,10.6,2.8,21.1,6.2,30.9,10.1-11.6-4.2-22.6-7.7-30.9-10.1-1.4-.4-2.8-.8-4.2-1.1ZM561.3,197.5c-26.6,4.8-46.6,6.8-54.2,16.1-17.3,21-30.1,53.4-34.1,51.8-3.6-1.4,14.7-42.6,25-55.3,15.5-19.2,101.9-23.6,102.8-21,1,3.1-12.9,3.6-39.5,8.4ZM596.1,266.8c-7.6,14.2-22.2,66.8-25.2,66.8-4.6.4,8.6-50.5,15.7-68.4,5.3-13.4,40.9-41.1,46-39.2,3.5,1.3-23.1,15.7-36.4,40.8ZM663.5,86.2c-4.5.4-26.5-29.7-36.7-40.3-9.9-10.3-25.4-19.7-25.1-23.5.2-2.1,24.8,9.4,36.8,23.5,9.2,10.9,28.2,40,25,40.3ZM697.1,310.8c-3.5,15.1-19.6,59.6-24.6,58.5-5.6-1.3,10.2-42.5,18.3-78.5,3.4-15.1,3-45.6,5-45.6s7.2,40.1,1.3,65.6ZM717.1,134.1c-4.1-1.7,22.1-24.6,36.4-27.8,15.8-3.6,35.2,4,38.4,6.4,2.5,2.9-21.9-4.6-34.5,1.3-17.1,8-37.2,21.4-40.3,20.1ZM819,351.3c-.7,9.6-3.7,43.2-12.1,43.2-5.1,0,2.2-39.8,2.5-52.2.8-25.9-37.6-64.8-38.4-69.5-.8-5,50.4,44.7,48,78.5ZM847.9,251.4c3.3-2.1,25,25.2,31.8,38.4,10.8,21,10.8,45.9,10.4,53.1-.4,7.3-9.9,33.9-13.2,31.6-.9-.6,4.7-25.8,5.5-34.6,1.1-12.9.4-26.3-9.7-45.2-7.4-13.7-26.8-42.1-24.7-43.4ZM886.6,223c-1.7,2.4-28-27.6-46.1-34-12.8-4.5-32.4-11.3-50.4-14.1,18-.4,38.4,4.5,53.7,8.8,16.8,4.8,45.6,35.5,42.8,39.3Z"/>
    </g>
  </g>
</svg>